<?xml version='1.0' encoding='ASCII' standalone='yes'?>
<svg width = "6in" height = "4in" xmlns="http://www.w3.org/2000/svg" xmlns:xlink="http://www.w3.org/1999/xlink" version="1.1">
  <g transform="translate(-0.581794650448325, 0) scale(1 1) translate(-0.34906978865732063, 0) scale(1 1) translate(-0.1163554293259576, 0) scale(1 1) translate(0.1163554293259576, 0) scale(1 1) translate(0.34906978865732075, 0) scale(1 1) translate(0.5817946504483253, 0) scale(1 1) translate(0.814537017743164, 0) scale(1 1) translate(1.0473038956930552, 0) scale(1 1) translate(0, 0) scale(0.1 0.1)  skewX(-1.000000) skewX(-0.777778) skewX(-0.555556) skewX(-0.333333) skewX(-0.111111) skewX(0.111111) skewX(0.333333) skewX(0.555556)">
    <sodipodi:namedview xmlns:sodipodi="http://sodipodi.sourceforge.net/DTD/sodipodi-0.dtd" id="ScribMaster"/>
    <filter id="blur">
      <feGaussianBlur stdDeviation="5.0"/>
    </filter>
    <defs/>
    <g xmlns:inkscape="http://www.inkscape.org/namespaces/inkscape" xmlns:scribmaster="http://scribmaster.com/scribmaster" id="1625351816632" transform="matrix(1,0,0,1,-1.316833,-1.489594)" style="opacity:1.0">
      <g id="1625348338071" inkscape:groupmode="layer" transform="matrix(1,0,0,1,0,0)" style="opacity:1.0">
        <path transform="matrix(1,0,0,1,0,0)" d="M 71.31683 60.489594 L 72.31683 62.489594 L 72.31683 66.48959 L 72.31683 73.48959 L 72.31683 84.48959 L 71.31683 97.48959 L 71.31683 110.48959 L 71.31683 122.48959 L 72.31683 136.4896 L 73.31683 146.4896 L 73.31683 155.4896 L 74.31683 161.4896 L 76.31683 165.4896 L 79.31683 167.4896 L 81.31683 168.4896 L 85.31683 167.4896 L 88.31683 167.4896 L 91.31683 166.4896 L 95.31683 166.4896 L 98.31683 166.4896 L 102.31683 167.4896 L 106.31683 169.4896 L 111.31683 171.4896 L 116.31683 174.4896 L 121.31683 178.4896 L 125.31683 182.4896 L 127.31683 186.4896 L 129.31683 190.4896 L 130.31683 194.4896 L 130.31683 198.4896 L 128.31683 201.4896 L 126.31683 205.4896 L 124.31683 208.4896 L 120.31683 211.4896 L 114.31683 214.4896 L 109.31683 217.4896 L 102.31683 219.4896 L 96.31683 220.4896 L 89.31683 220.4896 L 81.31683 220.4896 L 74.31683 220.4896 L 68.31683 221.4896 L 62.316833 221.4896 L 57.316833 222.4896 L 55.316833 223.4896 L 53.316833 223.4896" scribmaster:penstyle="draw" style="stroke:#000000;stroke-width:5.0;stroke-linejoin:round;stroke-linecap:round;stroke-opacity:1.0;fill:none"/>
        <path transform="matrix(1,0,0,1,0,0)" d="M 73.31683 73.48959 L 75.31683 72.48959 L 77.31683 71.48959 L 82.31683 70.48959 L 88.31683 69.48959 L 97.31683 68.48959 L 105.31683 67.48959 L 115.31683 66.48959 L 123.31683 64.48959 L 131.31683 63.489594 L 138.31683 62.489594 L 144.31683 60.489594 L 150.31683 60.489594" scribmaster:penstyle="draw" style="stroke:#000000;stroke-width:5.0;stroke-linejoin:round;stroke-linecap:round;stroke-opacity:1.0;fill:none"/>
      </g>
    </g>
  </g>
</svg>
