<?xml version='1.0' encoding='ASCII' standalone='yes'?>
<svg width = "6in" height = "4in" xmlns="http://www.w3.org/2000/svg" xmlns:xlink="http://www.w3.org/1999/xlink" version="1.1">
  <g transform="translate(0.1163554293259576, 0) scale(1 1) translate(0.34906978865732075, 0) scale(1 1) translate(0.5817946504483253, 0) scale(1 1) translate(0.814537017743164, 0) scale(1 1) translate(1.0473038956930552, 0) scale(1 1) translate(0, 0) scale(0.1 0.1)  skewX(-1.000000) skewX(-0.777778) skewX(-0.555556) skewX(-0.333333) skewX(-0.111111)">
    <sodipodi:namedview xmlns:sodipodi="http://sodipodi.sourceforge.net/DTD/sodipodi-0.dtd" id="ScribMaster"/>
    <filter id="blur">
      <feGaussianBlur stdDeviation="5.0"/>
    </filter>
    <defs/>
    <g xmlns:inkscape="http://www.inkscape.org/namespaces/inkscape" xmlns:scribmaster="http://scribmaster.com/scribmaster" id="1625348657664" transform="matrix(1,0,0,1,0,0)" style="opacity:1.0">
      <g id="1625348338071" inkscape:groupmode="layer" transform="matrix(1,0,0,1,0,0)" style="opacity:1.0">
        <path transform="matrix(1,0,0,1,0,0)" d="M 80.0 41.0 L 78.0 40.0 L 77.0 40.0 L 76.0 41.0 L 75.0 42.0 L 74.0 43.0 L 73.0 43.0 L 71.0 45.0 L 70.0 46.0 L 68.0 48.0 L 65.0 52.0 L 64.0 55.0 L 62.0 59.0 L 60.0 65.0 L 58.0 71.0 L 56.0 78.0 L 55.0 87.0 L 54.0 96.0 L 53.0 104.0 L 52.0 113.0 L 51.0 120.0 L 50.0 130.0 L 49.0 140.0 L 47.0 150.0 L 46.0 159.0 L 45.0 168.0 L 44.0 177.0 L 44.0 186.0 L 43.0 194.0 L 43.0 202.0 L 42.0 210.0 L 41.0 217.0 L 40.0 224.0 L 40.0 231.0 L 38.0 238.0 L 36.0 243.0 L 34.0 246.0 L 33.0 248.0 L 32.0 249.0 L 33.0 249.0 L 34.0 248.0 L 34.0 246.0" scribmaster:penstyle="draw" style="stroke:#000000;stroke-width:5.0;stroke-linejoin:round;stroke-linecap:round;stroke-opacity:1.0;fill:none"/>
        <path transform="matrix(1,0,0,1,0,0)" d="M 44.0 141.0 L 44.0 140.0 L 47.0 139.0 L 52.0 138.0 L 63.0 136.0" scribmaster:penstyle="draw" style="stroke:#000000;stroke-width:5.0;stroke-linejoin:round;stroke-linecap:round;stroke-opacity:1.0;fill:none"/>
      </g>
    </g>
  </g>
</svg>
