<?xml version='1.0' encoding='ASCII' standalone='yes'?>
<svg width = "6in" height = "4in" xmlns="http://www.w3.org/2000/svg" xmlns:xlink="http://www.w3.org/1999/xlink" version="1.1">
  <g transform="translate(0.1163554293259576, 0) scale(1 1) translate(0.34906978865732075, 0) scale(1 1) translate(0.5817946504483253, 0) scale(1 1) translate(0.814537017743164, 0) scale(1 1) translate(1.0473038956930552, 0) scale(1 1) translate(0, 0) scale(0.1 0.1)  skewX(-1.000000) skewX(-0.777778) skewX(-0.555556) skewX(-0.333333) skewX(-0.111111)">
    <sodipodi:namedview xmlns:sodipodi="http://sodipodi.sourceforge.net/DTD/sodipodi-0.dtd" id="ScribMaster"/>
    <filter id="blur">
      <feGaussianBlur stdDeviation="5.0"/>
    </filter>
    <defs/>
    <g xmlns:inkscape="http://www.inkscape.org/namespaces/inkscape" xmlns:scribmaster="http://scribmaster.com/scribmaster" id="1625348701679" transform="matrix(1,0,0,1,0,0)" style="opacity:1.0">
      <g id="1625348338071" inkscape:groupmode="layer" transform="matrix(1,0,0,1,0,0)" style="opacity:1.0">
        <path transform="matrix(1,0,0,1,0,0)" d="M 65.0 13.0 L 62.0 12.0 L 61.0 13.0 L 60.0 13.0 L 58.0 14.0 L 57.0 15.0 L 56.0 17.0 L 55.0 18.0 L 53.0 21.0 L 52.0 24.0 L 51.0 28.0 L 50.0 31.0 L 48.0 35.0 L 47.0 41.0 L 46.0 48.0 L 45.0 56.0 L 44.0 63.0 L 44.0 70.0 L 43.0 77.0 L 43.0 85.0 L 42.0 93.0 L 42.0 101.0 L 42.0 109.0 L 42.0 117.0 L 42.0 124.0 L 42.0 134.0 L 42.0 143.0 L 42.0 153.0 L 42.0 162.0 L 42.0 171.0 L 42.0 180.0 L 42.0 187.0 L 41.0 194.0 L 41.0 200.0 L 40.0 206.0 L 39.0 212.0 L 36.0 217.0 L 35.0 220.0 L 33.0 223.0 L 31.0 227.0 L 30.0 230.0 L 29.0 234.0 L 28.0 237.0 L 28.0 238.0" scribmaster:penstyle="draw" style="stroke:#000000;stroke-width:5.0;stroke-linejoin:round;stroke-linecap:round;stroke-opacity:1.0;fill:none"/>
        <path transform="matrix(1,0,0,1,0,0)" d="M 20.0 142.0 L 21.0 141.0 L 24.0 141.0 L 27.0 140.0 L 31.0 138.0 L 37.0 136.0 L 43.0 134.0 L 50.0 131.0 L 56.0 129.0 L 62.0 127.0 L 67.0 125.0" scribmaster:penstyle="draw" style="stroke:#000000;stroke-width:5.0;stroke-linejoin:round;stroke-linecap:round;stroke-opacity:1.0;fill:none"/>
      </g>
    </g>
  </g>
</svg>
