<?xml version='1.0' encoding='ASCII' standalone='yes'?>
<svg width = "6in" height = "4in" xmlns="http://www.w3.org/2000/svg" xmlns:xlink="http://www.w3.org/1999/xlink" version="1.1">
  <g transform="translate(-0.581794650448325, 0) scale(1 1) translate(-0.34906978865732063, 0) scale(1 1) translate(-0.1163554293259576, 0) scale(1 1) translate(0.1163554293259576, 0) scale(1 1) translate(0.34906978865732075, 0) scale(1 1) translate(0.5817946504483253, 0) scale(1 1) translate(0.814537017743164, 0) scale(1 1) translate(1.0473038956930552, 0) scale(1 1) translate(0, 0) scale(0.1 0.1)  skewX(-1.000000) skewX(-0.777778) skewX(-0.555556) skewX(-0.333333) skewX(-0.111111) skewX(0.111111) skewX(0.333333) skewX(0.555556)">
    <sodipodi:namedview xmlns:sodipodi="http://sodipodi.sourceforge.net/DTD/sodipodi-0.dtd" id="ScribMaster"/>
    <filter id="blur">
      <feGaussianBlur stdDeviation="5.0"/>
    </filter>
    <defs/>
    <g xmlns:inkscape="http://www.inkscape.org/namespaces/inkscape" xmlns:scribmaster="http://scribmaster.com/scribmaster" id="1625348459901" transform="matrix(1,0,0,1,0,0)" style="opacity:1.0">
      <g id="1625348338071" inkscape:groupmode="layer" transform="matrix(1,0,0,1,0,0)" style="opacity:1.0">
        <path transform="matrix(1,0,0,1,0,0)" d="M 46.0 20.0 L 45.0 19.0 L 44.0 19.0 L 44.0 21.0 L 44.0 22.0 L 45.0 23.0 L 45.0 24.0 L 45.0 26.0 L 45.0 28.0 L 45.0 32.0 L 45.0 35.0 L 45.0 39.0 L 44.0 45.0 L 44.0 53.0 L 44.0 61.0 L 43.0 68.0 L 43.0 77.0 L 43.0 90.0 L 42.0 101.0 L 42.0 111.0 L 42.0 121.0 L 42.0 130.0 L 42.0 140.0 L 42.0 149.0 L 42.0 158.0 L 42.0 166.0 L 42.0 173.0 L 42.0 182.0 L 42.0 189.0 L 42.0 197.0 L 42.0 204.0 L 42.0 210.0 L 42.0 215.0 L 42.0 219.0 L 42.0 222.0 L 42.0 224.0 L 42.0 225.0 L 42.0 226.0 L 42.0 225.0 L 42.0 224.0 L 42.0 222.0 L 43.0 219.0 L 43.0 214.0 L 44.0 209.0 L 44.0 202.0 L 45.0 195.0 L 46.0 188.0 L 47.0 179.0 L 49.0 171.0 L 51.0 164.0 L 53.0 157.0 L 55.0 151.0 L 57.0 146.0 L 59.0 143.0 L 61.0 141.0 L 63.0 138.0 L 65.0 137.0 L 68.0 136.0 L 71.0 135.0 L 75.0 135.0 L 78.0 135.0 L 82.0 135.0 L 86.0 136.0 L 90.0 138.0 L 94.0 140.0 L 97.0 143.0 L 100.0 147.0 L 102.0 151.0 L 105.0 155.0 L 106.0 160.0 L 107.0 165.0 L 107.0 172.0 L 107.0 179.0 L 105.0 185.0 L 101.0 193.0 L 98.0 200.0 L 93.0 206.0 L 88.0 212.0 L 83.0 217.0 L 79.0 221.0 L 74.0 224.0 L 69.0 225.0 L 65.0 225.0 L 61.0 224.0 L 57.0 223.0 L 54.0 221.0 L 51.0 219.0" scribmaster:penstyle="draw" style="stroke:#000000;stroke-width:5.0;stroke-linejoin:round;stroke-linecap:round;stroke-opacity:1.0;fill:none"/>
      </g>
    </g>
  </g>
</svg>
