<?xml version='1.0' encoding='UTF-8' standalone='no' ?><svg xmlns="http://www.w3.org/2000/svg" xmlns:scribmaster="http://scribmaster.com/scribmaster" xmlns:sodipodi="http://sodipodi.sourceforge.net/DTD/sodipodi-0.dtd" xmlns:inkscape="http://www.inkscape.org/namespaces/inkscape" xmlns:xlink="http://www.w3.org/1999/xlink" version="1.2" width="800" height="1014"><sodipodi:namedview id="ScribMaster" /><filter id="blur"><feGaussianBlur stdDeviation="5.0" /></filter><defs /><g id="1627855758999" transform="matrix(1.041329,0,0,1.041329,-16.413086,-18.68722)" style="opacity:1.0"><g id="1627851273342" inkscape:groupmode="layer" transform="matrix(1,0,0,1,0,0)" style="opacity:1.0"><path transform="matrix(1,0,0,1,0,0)" d="M 777.2883 360.7766 L 777.2883 360.78622" scribmaster:penstyle="draw" style="stroke:#000000;stroke-width:5.0;stroke-linejoin:round;stroke-linecap:round;stroke-opacity:1.0;fill:none" /><path transform="matrix(1,0,0,1,0,0)" d="M 102.18966 156.23033 L 100.269035 155.27002 L 99.30872 155.27002 L 98.34842 155.27002 L 97.38811 155.27002 L 95.46748 155.27002 L 92.58655 155.27002 L 88.74531 158.15096 L 82.98344 161.9922 L 75.30095 171.5953 L 67.61846 183.11905 L 61.8566 195.60309 L 58.015354 208.08713 L 57.055046 217.69025 L 58.015354 225.37273 L 59.935978 232.09491 L 63.77722 235.93616 L 68.57877 236.89647 L 71.45971 236.89647 L 74.340645 235.93616 L 76.26126 234.97585 L 78.181885 233.05522 L 81.06282 231.1346 L 82.98344 228.25366 L 86.824684 224.41241 L 89.70562 217.69025 L 93.54686 209.04744 L 97.38811 199.44434 L 100.269035 188.8809 L 102.18966 179.2778 L 103.14997 171.5953 L 103.14997 164.87314 L 102.18966 160.07158 L 102.18966 158.15096 L 100.269035 157.19064 L 99.30872 157.19064 L 98.34842 157.19064 L 98.34842 159.11127 L 97.38811 161.03189 L 97.38811 164.87314 L 97.38811 169.67468 L 98.34842 177.35718 L 100.269035 184.07936 L 103.14997 190.80153 L 106.03091 195.60309 L 109.87215 199.44434 L 112.75308 203.28557 L 115.63402 206.1665 L 118.514946 207.12682 L 120.43557 207.12682 L 122.35619 205.20619 L 124.27682 203.28557 L 128.11806 198.48402 L 131.9593 191.76184 L 135.80055 182.15874 L 137.72118 173.51593 L 138.68149 164.87314 L 137.72118 157.19064 L 134.84024 149.50816 L 130.03868 144.7066 L 123.316505 141.82567 L 113.713394 140.86536 L 101.22935 143.74629 L 85.86437 149.50816 L 71.45971 161.03189 L 59.935978 173.51593 L 56.094734 185.99997 L 56.094734 199.44434 L 59.935978 210.96806 L 69.539085 221.53148 L 82.023125 229.21397 L 97.38811 234.01553 L 110.83246 237.85677 L 123.316505 238.81708 L 135.80055 237.85677 L 144.44336 235.93616 L 155.00677 232.09491 L 165.57019 226.33304" scribmaster:penstyle="draw" style="stroke:#000000;stroke-width:5.0;stroke-linejoin:round;stroke-linecap:round;stroke-opacity:1.0;fill:none" /></g></g></svg>