<?xml version='1.0' encoding='ASCII' standalone='yes'?>
<svg width = "6in" height = "4in" xmlns="http://www.w3.org/2000/svg" xmlns:xlink="http://www.w3.org/1999/xlink" version="1.1">
  <g transform="translate(0.34906978865732075, 0) scale(1 1) translate(0.5817946504483253, 0) scale(1 1) translate(0.814537017743164, 0) scale(1 1) translate(1.0473038956930552, 0) scale(1 1) translate(0, 0) scale(0.1 0.1)  skewX(-1.000000) skewX(-0.777778) skewX(-0.555556) skewX(-0.333333)">
    <sodipodi:namedview xmlns:sodipodi="http://sodipodi.sourceforge.net/DTD/sodipodi-0.dtd" id="ScribMaster"/>
    <filter id="blur">
      <feGaussianBlur stdDeviation="5.0"/>
    </filter>
    <defs/>
    <g xmlns:inkscape="http://www.inkscape.org/namespaces/inkscape" xmlns:scribmaster="http://scribmaster.com/scribmaster" id="1627854888112" transform="matrix(1.041329,0,0,1.041329,-16.413086,-15.68722)" style="opacity:1.0">
      <g id="1627851273342" inkscape:groupmode="layer" transform="matrix(1,0,0,1,0,0)" style="opacity:1.0">
        <path transform="matrix(1,0,0,1,0,0)" d="M 66.65815 87.087944 L 64.73753 88.048256 L 64.73753 89.00857 L 64.73753 89.96887 L 64.73753 90.929184 L 64.73753 92.84981 L 64.73753 93.81012 L 65.697845 95.73074 L 65.697845 97.65137 L 66.65815 101.49261 L 66.65815 104.37354 L 67.61846 109.175095 L 68.57877 113.01634 L 70.4994 116.85758 L 71.45971 120.69883 L 73.38033 124.54008 L 74.340645 128.38132 L 76.26126 134.14317 L 79.1422 140.86536 L 81.06282 147.58752 L 83.94375 154.30971 L 85.86437 160.07158 L 88.74531 166.79375 L 90.665924 172.55562 L 92.58655 179.2778 L 95.46748 185.03966 L 97.38811 190.80153 L 98.34842 195.60309 L 100.269035 200.40463 L 102.18966 205.20619 L 104.11028 210.00775 L 106.03091 213.849 L 106.99122 217.69023 L 107.95153 220.57117 L 109.87215 223.4521 L 110.83246 225.37273 L 111.79277 228.25366 L 112.75308 230.17429 L 114.673706 232.09491 L 115.63402 234.01553 L 116.59433 234.97583 L 116.59433 236.89645 L 117.554634 237.85677 L 118.514946 238.81708 L 119.47526 238.81708 L 119.47526 239.77739 L 120.43557 239.77739 L 121.39588 239.77739 L 121.39588 238.81708 L 122.35619 237.85677 L 122.35619 235.93614 L 123.316505 234.01553 L 124.27682 232.09491 L 126.19743 229.21397 L 127.157745 224.41241 L 129.07837 218.65054 L 130.999 211.92838 L 133.87993 203.28557 L 135.80055 193.68246 L 138.68149 184.07935 L 140.60211 175.43655 L 143.48303 165.83344 L 145.40367 156.23033 L 148.28459 147.58752 L 150.20522 138.94473 L 152.12584 130.30194 L 154.04646 122.61945 L 155.00677 115.89728 L 156.9274 109.175095 L 157.88771 103.41323 L 158.84802 97.65137 L 159.80833 92.84981 L 161.72896 88.048256 L 161.72896 85.16732 L 162.68927 84.20701 L 162.68927 82.286385 L 163.64958 81.32607 L 164.6099 80.36577 L 165.57019 79.40546" scribmaster:penstyle="draw" style="stroke:#000000;stroke-width:5.0;stroke-linejoin:round;stroke-linecap:round;stroke-opacity:1.0;fill:none"/>
      </g>
    </g>
  </g>
</svg>
