<?xml version='1.0' encoding='UTF-8' standalone='no' ?><svg xmlns="http://www.w3.org/2000/svg" xmlns:scribmaster="http://scribmaster.com/scribmaster" xmlns:sodipodi="http://sodipodi.sourceforge.net/DTD/sodipodi-0.dtd" xmlns:inkscape="http://www.inkscape.org/namespaces/inkscape" xmlns:xlink="http://www.w3.org/1999/xlink" version="1.2" width="800" height="1014"><sodipodi:namedview id="ScribMaster" /><filter id="blur"><feGaussianBlur stdDeviation="5.0" /></filter><defs /><g id="1627853917688" transform="matrix(1.041329,0,0,1.041329,-16.413086,-15.68722)" style="opacity:1.0"><g id="1627851273342" inkscape:groupmode="layer" transform="matrix(1,0,0,1,0,0)" style="opacity:1.0"><path transform="matrix(1,0,0,1,0,0)" d="M 146.36398 99.57198 L 145.40367 99.57198 L 145.40367 98.61167 L 144.44336 98.61167 L 143.48303 96.691055 L 143.48303 95.73074 L 142.52274 95.73074 L 142.52274 94.77043 L 141.56242 93.81012 L 140.60211 93.81012 L 140.60211 92.84981 L 139.6418 91.889496 L 138.68149 89.96887 L 137.72118 89.00857 L 136.76086 88.048256 L 135.80055 87.087944 L 133.87993 86.12763 L 131.9593 85.16732 L 130.03868 85.16732 L 128.11806 84.20701 L 126.19743 83.2467 L 123.316505 82.286385 L 121.39588 82.286385 L 119.47526 81.32607 L 116.59433 80.36577 L 115.63402 80.36577 L 112.75308 80.36577 L 110.83246 80.36577 L 108.911835 80.36577 L 106.03091 81.32607 L 104.11028 82.286385 L 102.18966 83.2467 L 99.30872 84.20701 L 97.38811 85.16732 L 93.54686 86.12763 L 90.665924 88.048256 L 87.784996 89.96887 L 85.86437 91.889496 L 82.98344 93.81012 L 81.06282 95.73074 L 79.1422 97.65137 L 77.22157 99.57198 L 75.30095 102.45292 L 74.340645 105.333855 L 72.42002 108.21478 L 71.45971 111.09572 L 70.4994 113.976654 L 68.57877 115.89728 L 68.57877 118.778206 L 67.61846 121.65914 L 66.65815 123.579765 L 66.65815 126.46069 L 65.697845 129.34163 L 65.697845 132.22256 L 65.697845 135.10349 L 64.73753 137.98442 L 64.73753 140.86536 L 64.73753 144.7066 L 64.73753 147.58752 L 64.73753 151.42877 L 64.73753 154.30971 L 64.73753 158.15096 L 64.73753 161.9922 L 64.73753 165.83344 L 65.697845 168.71437 L 65.697845 172.55562 L 66.65815 175.43655 L 67.61846 179.2778 L 68.57877 182.15872 L 68.57877 185.03966 L 69.539085 187.9206 L 70.4994 190.80153 L 71.45971 193.68246 L 73.38033 196.5634 L 74.340645 199.44434 L 75.30095 201.36494 L 76.26126 204.24588 L 78.181885 206.1665 L 79.1422 209.04744 L 81.06282 210.00775 L 82.023125 210.96806 L 83.94375 211.92838 L 84.90406 213.849 L 86.824684 214.80931 L 88.74531 215.76962 L 90.665924 215.76962 L 92.58655 216.72993 L 94.50717 217.69023 L 97.38811 218.65054 L 99.30872 219.61086 L 101.22935 220.57117 L 103.14997 220.57117 L 106.03091 221.53148 L 109.87215 221.53148 L 112.75308 220.57117 L 116.59433 220.57117 L 120.43557 219.61086 L 123.316505 218.65054 L 127.157745 217.69023 L 130.03868 216.72993 L 132.91962 215.76962 L 135.80055 213.849 L 138.68149 211.92838 L 141.56242 210.00775 L 144.44336 208.08713 L 147.3243 206.1665 L 150.20522 203.28557 L 152.12584 200.40463 L 154.04646 198.48402 L 155.96709 196.5634 L 157.88771 194.64278 L 158.84802 193.68246" scribmaster:penstyle="draw" style="stroke:#000000;stroke-width:5.0;stroke-linejoin:round;stroke-linecap:round;stroke-opacity:1.0;fill:none" /></g></g></svg>