<?xml version='1.0' encoding='ASCII' standalone='yes'?>
<svg width = "6in" height = "4in" xmlns="http://www.w3.org/2000/svg" xmlns:xlink="http://www.w3.org/1999/xlink" version="1.1">
  <g transform="translate(0.34906978865732075, 0) scale(1 1) translate(0.5817946504483253, 0) scale(1 1) translate(0.814537017743164, 0) scale(1 1) translate(1.0473038956930552, 0) scale(1 1) translate(0, 0) scale(0.1 0.1)  skewX(-1.000000) skewX(-0.777778) skewX(-0.555556) skewX(-0.333333)">
    <sodipodi:namedview xmlns:sodipodi="http://sodipodi.sourceforge.net/DTD/sodipodi-0.dtd" id="ScribMaster"/>
    <filter id="blur">
      <feGaussianBlur stdDeviation="5.0"/>
    </filter>
    <defs/>
    <g xmlns:inkscape="http://www.inkscape.org/namespaces/inkscape" xmlns:scribmaster="http://scribmaster.com/scribmaster" id="1627855692129" transform="matrix(1.041329,0,0,1.041329,-16.413086,-18.68722)" style="opacity:1.0">
      <g id="1627851273342" inkscape:groupmode="layer" transform="matrix(1,0,0,1,0,0)" style="opacity:1.0">
        <path transform="matrix(1,0,0,1,0,0)" d="M 777.2883 360.7766 L 777.2883 360.78622" scribmaster:penstyle="draw" style="stroke:#000000;stroke-width:5.0;stroke-linejoin:round;stroke-linecap:round;stroke-opacity:1.0;fill:none"/>
        <path transform="matrix(1,0,0,1,0,0)" d="M 104.11028 99.57198 L 103.14997 97.65136 L 102.18966 97.65136 L 102.18966 96.69105 L 101.22935 96.69105 L 100.269035 96.69105 L 98.34842 96.69105 L 97.38811 96.69105 L 95.46748 97.65136 L 92.58655 99.57198 L 86.824684 103.41322 L 81.06282 112.05602 L 74.340645 121.659134 L 68.57877 134.14319 L 63.77722 149.50816 L 61.8566 162.95251 L 61.8566 175.43655 L 63.77722 186.96028 L 68.57877 196.5634 L 73.38033 204.24588 L 79.1422 210.00775 L 84.90406 213.849 L 88.74531 215.76962 L 92.58655 215.76962 L 95.46748 215.76962 L 98.34842 213.849 L 101.22935 211.92838 L 104.11028 209.04744 L 107.95153 206.1665 L 110.83246 202.32527 L 115.63402 197.52371 L 119.47526 191.76184 L 123.316505 184.07936 L 128.11806 176.39687 L 130.999 167.75406 L 133.87993 160.07158 L 135.80055 151.42877 L 136.76086 142.78598 L 135.80055 134.14319 L 133.87993 126.46069 L 131.9593 119.73851 L 128.11806 113.016335 L 124.27682 108.21478 L 119.47526 103.41322 L 112.75308 101.4926 L 106.99122 99.57198 L 100.269035 100.532295 L 93.54686 101.4926 L 87.784996 104.373535 L 82.023125 107.25447" scribmaster:penstyle="draw" style="stroke:#000000;stroke-width:5.0;stroke-linejoin:round;stroke-linecap:round;stroke-opacity:1.0;fill:none"/>
      </g>
    </g>
  </g>
</svg>
