<?xml version='1.0' encoding='ASCII' standalone='yes'?>
<svg width = "6in" height = "4in" xmlns="http://www.w3.org/2000/svg" xmlns:xlink="http://www.w3.org/1999/xlink" version="1.1">
  <g transform="translate(1.0473038956930552, 0) scale(1 1) translate(0, 0) scale(0.1 0.1)  skewX(-1.000000)">
    <sodipodi:namedview xmlns:sodipodi="http://sodipodi.sourceforge.net/DTD/sodipodi-0.dtd" id="ScribMaster"/>
    <filter id="blur">
      <feGaussianBlur stdDeviation="5.0"/>
    </filter>
    <defs/>
    <g xmlns:inkscape="http://www.inkscape.org/namespaces/inkscape" xmlns:scribmaster="http://scribmaster.com/scribmaster" id="1625370455370" transform="matrix(1,0,0,1,-1.316833,-1.489594)" style="opacity:1.0">
      <g id="1625348338071" inkscape:groupmode="layer" transform="matrix(1,0,0,1,0,0)" style="opacity:1.0">
        <path transform="matrix(1,0,0,1,0,0)" d="M 58.316833 137.4896 L 58.316833 138.4896 L 59.316833 142.4896 L 59.316833 147.4896 L 60.316833 158.4896 L 60.316833 174.4896 L 60.316833 190.4896 L 59.316833 208.4896 L 58.316833 227.4896 L 56.316833 242.4896 L 54.316833 254.4896 L 53.316833 262.4896 L 51.316833 268.4896 L 48.316833 270.4896 L 46.316833 270.4896 L 44.316833 269.4896 L 39.316833 268.4896 L 34.316833 266.4896 L 29.316833 264.4896 L 25.316833 260.4896 L 21.316833 256.4896 L 19.316833 253.4896 L 17.316833 250.4896 L 16.316833 249.4896" scribmaster:penstyle="draw" style="stroke:#000000;stroke-width:5.0;stroke-linejoin:round;stroke-linecap:round;stroke-opacity:1.0;fill:none"/>
        <path transform="matrix(1,0,0,1,0,0)" d="M 60.316833 109.48959 L 59.316833 109.48959 L 59.316833 108.48959 L 59.316833 107.48959" scribmaster:penstyle="draw" style="stroke:#000000;stroke-width:5.0;stroke-linejoin:round;stroke-linecap:round;stroke-opacity:1.0;fill:none"/>
      </g>
    </g>
  </g>
</svg>
