<?xml version='1.0' encoding='UTF-8' standalone='no' ?><svg xmlns="http://www.w3.org/2000/svg" xmlns:scribmaster="http://scribmaster.com/scribmaster" xmlns:sodipodi="http://sodipodi.sourceforge.net/DTD/sodipodi-0.dtd" xmlns:inkscape="http://www.inkscape.org/namespaces/inkscape" xmlns:xlink="http://www.w3.org/1999/xlink" version="1.2" width="800" height="1014"><sodipodi:namedview id="ScribMaster" /><filter id="blur"><feGaussianBlur stdDeviation="5.0" /></filter><defs /><g id="1625350141392" transform="matrix(1,0,0,1,-1.316833,-1.489594)" style="opacity:1.0"><g id="1625348338071" inkscape:groupmode="layer" transform="matrix(1,0,0,1,0,0)" style="opacity:1.0"><path transform="matrix(1,0,0,1,0,0)" d="M 55.316833 24.489594 L 55.316833 26.489594 L 55.316833 28.489594 L 54.316833 31.489594 L 54.316833 34.489594 L 54.316833 39.489594 L 53.316833 47.489594 L 53.316833 58.489594 L 52.316833 71.48959 L 52.316833 88.48959 L 51.316833 102.48959 L 51.316833 117.48959 L 51.316833 129.4896 L 51.316833 147.4896 L 51.316833 161.4896 L 51.316833 173.4896 L 51.316833 184.4896 L 51.316833 195.4896 L 51.316833 204.4896 L 51.316833 212.4896 L 51.316833 218.4896 L 51.316833 224.4896 L 52.316833 227.4896 L 52.316833 229.4896 L 52.316833 230.4896" scribmaster:penstyle="draw" style="stroke:#000000;stroke-width:5.0;stroke-linejoin:round;stroke-linecap:round;stroke-opacity:1.0;fill:none" /><path transform="matrix(1,0,0,1,0,0)" d="M 153.31683 63.489594 L 152.31683 64.48959 L 152.31683 66.48959 L 151.31683 67.48959 L 150.31683 68.48959 L 148.31683 71.48959 L 146.31683 74.48959 L 142.31683 78.48959 L 137.31683 84.48959 L 131.31683 91.48959 L 124.31683 99.48959 L 116.31683 108.48959 L 109.31683 116.48959 L 102.31683 123.48959 L 95.31683 129.4896 L 89.31683 135.4896 L 84.31683 139.4896 L 80.31683 144.4896 L 76.31683 147.4896 L 73.31683 150.4896 L 71.31683 152.4896 L 69.31683 154.4896 L 67.31683 155.4896 L 66.31683 156.4896 L 66.31683 158.4896 L 65.31683 159.4896 L 64.31683 160.4896" scribmaster:penstyle="draw" style="stroke:#000000;stroke-width:5.0;stroke-linejoin:round;stroke-linecap:round;stroke-opacity:1.0;fill:none" /><path transform="matrix(1,0,0,1,0,0)" d="M 53.316833 164.4896 L 52.316833 163.4896 L 52.316833 162.4896 L 51.316833 161.4896 L 51.316833 160.4896 L 50.316833 159.4896 L 50.316833 158.4896 L 50.316833 157.4896 L 51.316833 157.4896 L 54.316833 158.4896 L 57.316833 160.4896 L 63.316833 163.4896 L 74.31683 170.4896 L 88.31683 179.4896 L 102.31683 190.4896 L 117.31683 200.4896 L 129.31683 208.4896 L 140.31683 214.4896 L 149.31683 219.4896 L 157.31683 224.4896 L 165.31683 228.4896 L 172.31683 231.4896 L 177.31683 233.4896 L 181.31683 233.4896" scribmaster:penstyle="draw" style="stroke:#000000;stroke-width:5.0;stroke-linejoin:round;stroke-linecap:round;stroke-opacity:1.0;fill:none" /></g></g></svg>