<?xml version='1.0' encoding='ASCII' standalone='yes'?>
<svg width = "6in" height = "4in" xmlns="http://www.w3.org/2000/svg" xmlns:xlink="http://www.w3.org/1999/xlink" version="1.1">
  <g transform="translate(0.814537017743164, 0) scale(1 1) translate(1.0473038956930552, 0) scale(1 1) translate(0, 0) scale(0.1 0.1)  skewX(-1.000000) skewX(-0.777778)">
    <sodipodi:namedview xmlns:sodipodi="http://sodipodi.sourceforge.net/DTD/sodipodi-0.dtd" id="ScribMaster"/>
    <filter id="blur">
      <feGaussianBlur stdDeviation="5.0"/>
    </filter>
    <defs/>
    <g xmlns:inkscape="http://www.inkscape.org/namespaces/inkscape" xmlns:scribmaster="http://scribmaster.com/scribmaster" id="1627855398590" transform="matrix(1.041329,0,0,1.041329,-16.413086,-15.68722)" style="opacity:1.0">
      <g id="1627851273342" inkscape:groupmode="layer" transform="matrix(1,0,0,1,0,0)" style="opacity:1.0">
        <path transform="matrix(1,0,0,1,0,0)" d="M 78.181885 90.929184 L 82.023125 91.889496 L 85.86437 92.84981 L 92.58655 93.81012 L 99.30872 94.77043 L 107.95153 95.73074 L 115.63402 97.65137 L 123.316505 98.61167 L 130.999 100.532295 L 137.72118 101.49261 L 144.44336 102.45292 L 151.16553 102.45292 L 156.9274 102.45292 L 162.68927 101.49261 L 167.49081 100.532295 L 170.37175 99.57198 L 171.33206 98.61167 L 173.25269 97.65137 L 174.213 97.65137" scribmaster:penstyle="draw" style="stroke:#000000;stroke-width:5.0;stroke-linejoin:round;stroke-linecap:round;stroke-opacity:1.0;fill:none"/>
        <path transform="matrix(1,0,0,1,0,0)" d="M 82.98344 95.73074 L 81.06282 93.81012 L 81.06282 92.84981 L 81.06282 93.81012 L 81.06282 96.691055 L 81.06282 100.532295 L 81.06282 105.333855 L 81.06282 111.09572 L 81.06282 117.817894 L 81.06282 124.54008 L 81.06282 131.26225 L 81.06282 137.02411 L 82.023125 141.82567 L 82.023125 146.62723 L 82.023125 149.50815 L 82.023125 150.46846 L 82.98344 152.38908 L 82.98344 153.3494 L 82.98344 152.38908 L 83.94375 151.42877 L 83.94375 150.46846 L 84.90406 150.46846 L 85.86437 149.50815 L 86.824684 148.54784 L 88.74531 147.58752 L 89.70562 147.58752 L 92.58655 146.62723 L 95.46748 146.62723 L 98.34842 146.62723 L 102.18966 147.58752 L 105.070595 147.58752 L 108.911835 149.50815 L 113.713394 152.38908 L 118.514946 155.27002 L 122.35619 159.11127 L 127.157745 163.91283 L 130.999 169.67468 L 134.84024 175.43655 L 136.76086 182.15872 L 138.68149 187.9206 L 139.6418 193.68246 L 138.68149 199.44434 L 137.72118 204.24588 L 135.80055 209.04744 L 132.91962 212.88869 L 130.03868 216.72993 L 125.23713 220.57117 L 121.39588 222.49179 L 116.59433 224.41241 L 111.79277 225.37273 L 106.03091 225.37273 L 101.22935 225.37273 L 96.427795 225.37273 L 91.626236 225.37273 L 86.824684 225.37273 L 82.98344 225.37273 L 80.10251 225.37273 L 78.181885 225.37273" scribmaster:penstyle="draw" style="stroke:#000000;stroke-width:5.0;stroke-linejoin:round;stroke-linecap:round;stroke-opacity:1.0;fill:none"/>
      </g>
    </g>
  </g>
</svg>
