<?xml version='1.0' encoding='UTF-8' standalone='no' ?><svg xmlns="http://www.w3.org/2000/svg" xmlns:scribmaster="http://scribmaster.com/scribmaster" xmlns:sodipodi="http://sodipodi.sourceforge.net/DTD/sodipodi-0.dtd" xmlns:inkscape="http://www.inkscape.org/namespaces/inkscape" xmlns:xlink="http://www.w3.org/1999/xlink" version="1.2" width="800" height="1014"><sodipodi:namedview id="ScribMaster" /><filter id="blur"><feGaussianBlur stdDeviation="5.0" /></filter><defs /><g id="1620939226288" transform="matrix(1,0,0,1,124.996094,181.889359)" style="opacity:1.0"><g id="1620536817093" inkscape:groupmode="layer" transform="matrix(1,0,0,1,0,0)" style="opacity:1.0"><path transform="matrix(1,0,0,1,0,0)" d="M 88.00391 134.11064 L 87.00391 135.11064 L 86.00391 135.11064 L 85.00391 135.11064 L 85.00391 136.11064 L 84.00391 136.11064 L 82.00391 137.11064 L 81.00391 138.11064 L 80.00391 138.11064 L 78.00391 139.11064 L 75.00391 140.11064 L 72.00391 141.11064 L 66.00391 143.11064 L 61.003906 145.11064 L 56.003906 147.11064 L 51.003906 150.11064 L 46.003906 153.11064 L 41.003906 158.11064 L 35.003906 163.11064 L 30.003906 168.11064 L 25.003906 173.11064 L 20.003906 178.11064 L 16.003906 184.11064 L 13.003906 189.11064 L 10.003906 194.11064 L 7.0039062 199.11064 L 5.0039062 205.11064 L 4.0039062 210.11064 L 4.0039062 215.11064 L 4.0039062 220.11064 L 5.0039062 224.11064 L 6.0039062 228.11064 L 9.003906 230.11064 L 10.003906 231.11064 L 13.003906 232.11064 L 16.003906 232.11064 L 20.003906 232.11064 L 25.003906 232.11064 L 32.003906 230.11064 L 40.003906 227.11064 L 47.003906 223.11064 L 53.003906 218.11064 L 61.003906 212.11064 L 68.00391 206.11064 L 76.00391 199.11064 L 83.00391 192.11064 L 88.00391 185.11064 L 93.00391 178.11064 L 97.00391 171.11064 L 100.00391 165.11064 L 102.00391 159.11064 L 104.00391 154.11064 L 105.00391 149.11064 L 105.00391 145.11064 L 104.00391 143.11064 L 104.00391 141.11064 L 103.00391 140.11064 L 102.00391 138.11064 L 102.00391 137.11064 L 101.00391 136.11064 L 100.00391 136.11064 L 100.00391 135.11064 L 99.00391 135.11064 L 98.00391 135.11064 L 97.00391 135.11064 L 96.00391 135.11064 L 95.00391 136.11064 L 95.00391 137.11064 L 95.00391 139.11064 L 94.00391 141.11064 L 94.00391 145.11064 L 93.00391 148.11064 L 93.00391 153.11064 L 94.00391 160.11064 L 95.00391 167.11064 L 95.00391 176.11064 L 97.00391 184.11064 L 98.00391 192.11064 L 100.00391 200.11064 L 102.00391 206.11064 L 105.00391 212.11064 L 107.00391 216.11064 L 110.00391 219.11064 L 112.00391 220.11064 L 116.00391 220.11064 L 125.00391 218.11064" scribmaster:penstyle="draw" style="stroke:#000000;stroke-width:1.0;stroke-linejoin:round;stroke-linecap:round;stroke-opacity:1.0;fill:none" /></g></g><defs /><g id="1620939226305" transform="matrix(1,0,0,1,0,0)" style="opacity:1.0"><g id="1620621491459" inkscape:groupmode="layer" transform="matrix(1,0,0,1,0,0)" style="opacity:1.0" /></g></svg>