<?xml version='1.0' encoding='UTF-8' standalone='no' ?><svg xmlns="http://www.w3.org/2000/svg" xmlns:scribmaster="http://scribmaster.com/scribmaster" xmlns:sodipodi="http://sodipodi.sourceforge.net/DTD/sodipodi-0.dtd" xmlns:inkscape="http://www.inkscape.org/namespaces/inkscape" xmlns:xlink="http://www.w3.org/1999/xlink" version="1.2" width="800" height="1014"><sodipodi:namedview id="ScribMaster" /><filter id="blur"><feGaussianBlur stdDeviation="5.0" /></filter><defs /><g id="1620939323575" transform="matrix(1,0,0,1,124.996094,181.889359)" style="opacity:1.0"><g id="1620536817093" inkscape:groupmode="layer" transform="matrix(1,0,0,1,0,0)" style="opacity:1.0"><path transform="matrix(1,0,0,1,0,0)" d="M 36.003906 26.110641 L 36.003906 27.110641 L 36.003906 28.110641 L 36.003906 29.110641 L 36.003906 30.110641 L 36.003906 32.11064 L 36.003906 33.11064 L 36.003906 36.11064 L 36.003906 40.11064 L 36.003906 43.11064 L 35.003906 47.11064 L 35.003906 51.11064 L 35.003906 55.11064 L 35.003906 58.11064 L 35.003906 62.11064 L 35.003906 66.11064 L 35.003906 71.11064 L 35.003906 75.11064 L 35.003906 80.11064 L 35.003906 86.11064 L 35.003906 91.11064 L 35.003906 96.11064 L 35.003906 101.11064 L 35.003906 107.11064 L 35.003906 112.11064 L 34.003906 118.11064 L 34.003906 124.11064 L 34.003906 130.11064 L 34.003906 135.11064 L 34.003906 141.11064 L 34.003906 146.11064 L 33.003906 151.11064 L 33.003906 156.11064 L 33.003906 162.11064 L 33.003906 167.11064 L 33.003906 172.11064 L 33.003906 177.11064 L 33.003906 181.11064 L 33.003906 186.11064 L 33.003906 190.11064 L 34.003906 194.11064 L 34.003906 198.11064 L 34.003906 202.11064 L 34.003906 206.11064 L 35.003906 210.11064 L 35.003906 213.11064 L 35.003906 217.11064 L 35.003906 219.11064 L 35.003906 222.11064 L 36.003906 225.11064 L 36.003906 227.11064 L 36.003906 230.11064 L 37.003906 233.11064 L 37.003906 235.11064 L 37.003906 238.11064 L 37.003906 240.11064 L 37.003906 241.11064 L 38.003906 243.11064 L 38.003906 244.11064 L 38.003906 245.11064 L 38.003906 246.11064 L 38.003906 247.11064 L 38.003906 248.11064 L 38.003906 247.11064 L 38.003906 246.11064 L 39.003906 243.11064 L 40.003906 240.11064 L 40.003906 236.11064 L 41.003906 231.11064 L 41.003906 226.11064 L 42.003906 221.11064 L 43.003906 216.11064 L 44.003906 211.11064 L 45.003906 205.11064 L 47.003906 200.11064 L 48.003906 194.11064 L 49.003906 189.11064 L 51.003906 185.11064 L 52.003906 180.11064 L 54.003906 176.11064 L 55.003906 171.11064 L 57.003906 168.11064 L 59.003906 164.11064 L 60.003906 161.11064 L 62.003906 159.11064 L 63.003906 156.11064 L 65.00391 155.11064 L 66.00391 153.11064 L 67.00391 152.11064 L 69.00391 151.11064 L 70.00391 150.11064 L 72.00391 150.11064 L 73.00391 149.11064 L 75.00391 148.11064 L 77.00391 148.11064 L 80.00391 148.11064 L 82.00391 148.11064 L 85.00391 148.11064 L 88.00391 149.11064 L 91.00391 150.11064 L 95.00391 151.11064 L 98.00391 153.11064 L 100.00391 155.11064 L 103.00391 158.11064 L 105.00391 161.11064 L 107.00391 164.11064 L 109.00391 168.11064 L 110.00391 173.11064 L 110.00391 178.11064 L 111.00391 183.11064 L 111.00391 189.11064 L 110.00391 194.11064 L 109.00391 200.11064 L 107.00391 205.11064 L 105.00391 209.11064 L 102.00391 213.11064 L 98.00391 217.11064 L 93.00391 221.11064 L 88.00391 223.11064 L 82.00391 226.11064 L 76.00391 228.11064 L 70.00391 230.11064 L 64.00391 232.11064 L 58.003906 233.11064 L 53.003906 234.11064 L 49.003906 235.11064" scribmaster:penstyle="draw" style="stroke:#000000;stroke-width:1.0;stroke-linejoin:round;stroke-linecap:round;stroke-opacity:1.0;fill:none" /></g></g><defs /><g id="1620939323577" transform="matrix(1,0,0,1,0,0)" style="opacity:1.0"><g id="1620621491459" inkscape:groupmode="layer" transform="matrix(1,0,0,1,0,0)" style="opacity:1.0" /></g></svg>