<?xml version='1.0' encoding='UTF-8' standalone='no' ?><svg xmlns="http://www.w3.org/2000/svg" xmlns:scribmaster="http://scribmaster.com/scribmaster" xmlns:sodipodi="http://sodipodi.sourceforge.net/DTD/sodipodi-0.dtd" xmlns:inkscape="http://www.inkscape.org/namespaces/inkscape" xmlns:xlink="http://www.w3.org/1999/xlink" version="1.2" width="800" height="1014"><sodipodi:namedview id="ScribMaster" /><filter id="blur"><feGaussianBlur stdDeviation="5.0" /></filter><defs /><g id="1620939342040" transform="matrix(1,0,0,1,124.996094,181.889359)" style="opacity:1.0"><g id="1620536817093" inkscape:groupmode="layer" transform="matrix(1,0,0,1,0,0)" style="opacity:1.0"><path transform="matrix(1,0,0,1,0,0)" d="M 77.00391 132.11064 L 76.00391 132.11064 L 76.00391 133.11064 L 75.00391 133.11064 L 75.00391 134.11064 L 74.00391 135.11064 L 73.00391 135.11064 L 73.00391 136.11064 L 72.00391 136.11064 L 72.00391 137.11064 L 71.00391 137.11064 L 70.00391 137.11064 L 70.00391 138.11064 L 69.00391 138.11064 L 68.00391 139.11064 L 66.00391 139.11064 L 65.00391 140.11064 L 63.003906 140.11064 L 60.003906 141.11064 L 57.003906 143.11064 L 53.003906 145.11064 L 48.003906 148.11064 L 44.003906 151.11064 L 39.003906 154.11064 L 35.003906 159.11064 L 31.003906 163.11064 L 28.003906 167.11064 L 24.003906 174.11064 L 22.003906 179.11064 L 20.003906 185.11064 L 19.003906 191.11064 L 18.003906 198.11064 L 19.003906 203.11064 L 19.003906 209.11064 L 21.003906 214.11064 L 23.003906 218.11064 L 26.003906 222.11064 L 32.003906 224.11064 L 38.003906 224.11064 L 46.003906 223.11064 L 58.003906 221.11064 L 69.00391 219.11064 L 79.00391 217.11064" scribmaster:penstyle="draw" style="stroke:#000000;stroke-width:1.0;stroke-linejoin:round;stroke-linecap:round;stroke-opacity:1.0;fill:none" /></g></g><defs /><g id="1620939342041" transform="matrix(1,0,0,1,0,0)" style="opacity:1.0"><g id="1620621491459" inkscape:groupmode="layer" transform="matrix(1,0,0,1,0,0)" style="opacity:1.0" /></g></svg>