<?xml version='1.0' encoding='UTF-8' standalone='no' ?><svg xmlns="http://www.w3.org/2000/svg" xmlns:scribmaster="http://scribmaster.com/scribmaster" xmlns:sodipodi="http://sodipodi.sourceforge.net/DTD/sodipodi-0.dtd" xmlns:inkscape="http://www.inkscape.org/namespaces/inkscape" xmlns:xlink="http://www.w3.org/1999/xlink" version="1.2" width="800" height="1014"><sodipodi:namedview id="ScribMaster" /><filter id="blur"><feGaussianBlur stdDeviation="5.0" /></filter><defs /><g id="1620939361367" transform="matrix(1,0,0,1,124.996094,181.889359)" style="opacity:1.0"><g id="1620536817093" inkscape:groupmode="layer" transform="matrix(1,0,0,1,0,0)" style="opacity:1.0"><path transform="matrix(1,0,0,1,0,0)" d="M 77.00391 154.11064 L 77.00391 153.11064 L 77.00391 152.11064 L 77.00391 151.11064 L 77.00391 150.11064 L 77.00391 148.11064 L 77.00391 147.11064 L 76.00391 146.11064 L 76.00391 145.11064 L 75.00391 145.11064 L 73.00391 145.11064 L 70.00391 145.11064 L 66.00391 147.11064 L 61.003906 149.11064 L 55.003906 152.11064 L 48.003906 156.11064 L 42.003906 162.11064 L 36.003906 167.11064 L 30.003906 174.11064 L 25.003906 181.11064 L 20.003906 187.11064 L 17.003906 194.11064 L 15.003906 201.11064 L 13.003906 208.11064 L 13.003906 215.11064 L 13.003906 221.11064 L 14.003906 226.11064 L 15.003906 231.11064 L 17.003906 233.11064 L 19.003906 235.11064 L 21.003906 236.11064 L 24.003906 236.11064 L 26.003906 236.11064 L 31.003906 234.11064 L 36.003906 232.11064 L 41.003906 228.11064 L 46.003906 223.11064 L 51.003906 218.11064 L 57.003906 212.11064 L 62.003906 204.11064 L 67.00391 195.11064 L 71.00391 187.11064 L 74.00391 179.11064 L 77.00391 171.11064 L 79.00391 160.11064 L 80.00391 149.11064 L 82.00391 138.11064 L 83.00391 127.11064 L 83.00391 117.11064 L 84.00391 107.11064 L 84.00391 99.11064 L 84.00391 91.11064 L 84.00391 84.11064 L 84.00391 77.11064 L 83.00391 71.11064 L 83.00391 65.11064 L 83.00391 59.11064 L 83.00391 55.11064 L 83.00391 51.11064 L 83.00391 49.11064 L 83.00391 46.11064 L 83.00391 44.11064 L 83.00391 42.11064 L 82.00391 41.11064 L 82.00391 39.11064 L 82.00391 38.11064 L 82.00391 37.11064 L 81.00391 37.11064 L 81.00391 36.11064 L 80.00391 37.11064 L 80.00391 39.11064 L 79.00391 42.11064 L 78.00391 46.11064 L 77.00391 51.11064 L 76.00391 58.11064 L 75.00391 69.11064 L 74.00391 82.11064 L 73.00391 96.11064 L 73.00391 110.11064 L 72.00391 125.11064 L 72.00391 138.11064 L 73.00391 149.11064 L 73.00391 159.11064 L 74.00391 169.11064 L 75.00391 179.11064 L 77.00391 187.11064 L 78.00391 194.11064 L 79.00391 201.11064 L 80.00391 208.11064 L 80.00391 216.11064 L 80.00391 223.11064 L 80.00391 228.11064 L 81.00391 231.11064 L 83.00391 234.11064" scribmaster:penstyle="draw" style="stroke:#000000;stroke-width:1.0;stroke-linejoin:round;stroke-linecap:round;stroke-opacity:1.0;fill:none" /></g></g><defs /><g id="1620939361369" transform="matrix(1,0,0,1,0,0)" style="opacity:1.0"><g id="1620621491459" inkscape:groupmode="layer" transform="matrix(1,0,0,1,0,0)" style="opacity:1.0" /></g></svg>