<?xml version='1.0' encoding='UTF-8' standalone='no' ?><svg xmlns="http://www.w3.org/2000/svg" xmlns:scribmaster="http://scribmaster.com/scribmaster" xmlns:sodipodi="http://sodipodi.sourceforge.net/DTD/sodipodi-0.dtd" xmlns:inkscape="http://www.inkscape.org/namespaces/inkscape" xmlns:xlink="http://www.w3.org/1999/xlink" version="1.2" width="800" height="1014"><sodipodi:namedview id="ScribMaster" /><filter id="blur"><feGaussianBlur stdDeviation="5.0" /></filter><defs /><g id="1620939376627" transform="matrix(1,0,0,1,124.996094,181.889359)" style="opacity:1.0"><g id="1620536817093" inkscape:groupmode="layer" transform="matrix(1,0,0,1,0,0)" style="opacity:1.0"><path transform="matrix(1,0,0,1,0,0)" d="M 53.003906 195.11064 L 53.003906 194.11064 L 54.003906 194.11064 L 55.003906 194.11064 L 56.003906 194.11064 L 57.003906 194.11064 L 58.003906 194.11064 L 60.003906 194.11064 L 61.003906 193.11064 L 63.003906 193.11064 L 65.00391 192.11064 L 69.00391 191.11064 L 72.00391 189.11064 L 77.00391 187.11064 L 82.00391 184.11064 L 87.00391 181.11064 L 91.00391 178.11064 L 95.00391 175.11064 L 98.00391 171.11064 L 101.00391 168.11064 L 103.00391 165.11064 L 105.00391 161.11064 L 105.00391 158.11064 L 105.00391 155.11064 L 104.00391 153.11064 L 102.00391 150.11064 L 99.00391 148.11064 L 95.00391 145.11064 L 91.00391 143.11064 L 87.00391 141.11064 L 82.00391 141.11064 L 77.00391 140.11064 L 70.00391 140.11064 L 64.00391 140.11064 L 58.003906 141.11064 L 52.003906 142.11064 L 46.003906 144.11064 L 41.003906 146.11064 L 35.003906 148.11064 L 30.003906 151.11064 L 26.003906 154.11064 L 22.003906 158.11064 L 19.003906 162.11064 L 17.003906 168.11064 L 15.003906 174.11064 L 15.003906 180.11064 L 15.003906 188.11064 L 17.003906 198.11064 L 20.003906 207.11064 L 23.003906 214.11064 L 27.003906 221.11064 L 33.003906 227.11064 L 41.003906 233.11064 L 50.003906 236.11064 L 59.003906 238.11064 L 71.00391 240.11064 L 87.00391 238.11064 L 101.00391 236.11064 L 114.00391 233.11064" scribmaster:penstyle="draw" style="stroke:#000000;stroke-width:1.0;stroke-linejoin:round;stroke-linecap:round;stroke-opacity:1.0;fill:none" /></g></g><defs /><g id="1620939376629" transform="matrix(1,0,0,1,0,0)" style="opacity:1.0"><g id="1620621491459" inkscape:groupmode="layer" transform="matrix(1,0,0,1,0,0)" style="opacity:1.0" /></g></svg>