<?xml version='1.0' encoding='UTF-8' standalone='no' ?><svg xmlns="http://www.w3.org/2000/svg" xmlns:scribmaster="http://scribmaster.com/scribmaster" xmlns:sodipodi="http://sodipodi.sourceforge.net/DTD/sodipodi-0.dtd" xmlns:inkscape="http://www.inkscape.org/namespaces/inkscape" xmlns:xlink="http://www.w3.org/1999/xlink" version="1.2" width="800" height="1014"><sodipodi:namedview id="ScribMaster" /><filter id="blur"><feGaussianBlur stdDeviation="5.0" /></filter><defs /><g id="1620939396784" transform="matrix(1,0,0,1,124.996094,181.889359)" style="opacity:1.0"><g id="1620536817093" inkscape:groupmode="layer" transform="matrix(1,0,0,1,0,0)" style="opacity:1.0"><path transform="matrix(1,0,0,1,0,0)" d="M 78.00391 27.110641 L 77.00391 28.110641 L 76.00391 28.110641 L 75.00391 29.110641 L 75.00391 30.110641 L 74.00391 31.110641 L 73.00391 32.11064 L 72.00391 34.11064 L 70.00391 36.11064 L 69.00391 38.11064 L 67.00391 42.11064 L 65.00391 45.11064 L 63.003906 48.11064 L 61.003906 52.11064 L 59.003906 56.11064 L 58.003906 60.11064 L 55.003906 66.11064 L 54.003906 71.11064 L 52.003906 76.11064 L 50.003906 82.11064 L 49.003906 88.11064 L 48.003906 95.11064 L 47.003906 103.11064 L 47.003906 112.11064 L 46.003906 121.11064 L 46.003906 130.11064 L 46.003906 138.11064 L 46.003906 146.11064 L 46.003906 153.11064 L 46.003906 161.11064 L 47.003906 170.11064 L 47.003906 178.11064 L 46.003906 186.11064 L 46.003906 193.11064 L 45.003906 200.11064 L 45.003906 207.11064 L 45.003906 213.11064 L 44.003906 219.11064 L 43.003906 223.11064 L 42.003906 226.11064 L 42.003906 228.11064 L 41.003906 229.11064 L 41.003906 230.11064 L 40.003906 231.11064 L 40.003906 230.11064" scribmaster:penstyle="draw" style="stroke:#000000;stroke-width:1.0;stroke-linejoin:round;stroke-linecap:round;stroke-opacity:1.0;fill:none" /><path transform="matrix(1,0,0,1,0,0)" d="M 32.003906 163.11064 L 33.003906 162.11064 L 36.003906 161.11064 L 43.003906 159.11064 L 53.003906 155.11064 L 69.00391 151.11064 L 90.00391 146.11064" scribmaster:penstyle="draw" style="stroke:#000000;stroke-width:1.0;stroke-linejoin:round;stroke-linecap:round;stroke-opacity:1.0;fill:none" /></g></g><defs /><g id="1620939396786" transform="matrix(1,0,0,1,0,0)" style="opacity:1.0"><g id="1620621491459" inkscape:groupmode="layer" transform="matrix(1,0,0,1,0,0)" style="opacity:1.0" /></g></svg>