<?xml version='1.0' encoding='UTF-8' standalone='no' ?><svg xmlns="http://www.w3.org/2000/svg" xmlns:scribmaster="http://scribmaster.com/scribmaster" xmlns:sodipodi="http://sodipodi.sourceforge.net/DTD/sodipodi-0.dtd" xmlns:inkscape="http://www.inkscape.org/namespaces/inkscape" xmlns:xlink="http://www.w3.org/1999/xlink" version="1.2" width="800" height="1014"><sodipodi:namedview id="ScribMaster" /><filter id="blur"><feGaussianBlur stdDeviation="5.0" /></filter><defs /><g id="1620939416492" transform="matrix(1,0,0,1,124.996094,181.889359)" style="opacity:1.0"><g id="1620536817093" inkscape:groupmode="layer" transform="matrix(1,0,0,1,0,0)" style="opacity:1.0"><path transform="matrix(1,0,0,1,0,0)" d="M 76.00391 158.11064 L 75.00391 158.11064 L 74.00391 158.11064 L 73.00391 158.11064 L 72.00391 159.11064 L 70.00391 159.11064 L 69.00391 160.11064 L 66.00391 162.11064 L 62.003906 165.11064 L 58.003906 169.11064 L 52.003906 173.11064 L 48.003906 178.11064 L 43.003906 183.11064 L 39.003906 189.11064 L 35.003906 194.11064 L 33.003906 200.11064 L 30.003906 206.11064 L 29.003906 211.11064 L 28.003906 216.11064 L 28.003906 221.11064 L 28.003906 226.11064 L 29.003906 229.11064 L 31.003906 232.11064 L 33.003906 234.11064 L 36.003906 235.11064 L 40.003906 236.11064 L 44.003906 235.11064 L 48.003906 233.11064 L 52.003906 231.11064 L 57.003906 226.11064 L 62.003906 222.11064 L 67.00391 217.11064 L 72.00391 212.11064 L 76.00391 205.11064 L 80.00391 199.11064 L 84.00391 194.11064 L 87.00391 189.11064 L 89.00391 185.11064 L 90.00391 182.11064 L 91.00391 180.11064 L 91.00391 179.11064 L 91.00391 177.11064 L 91.00391 176.11064 L 91.00391 175.11064 L 91.00391 174.11064 L 91.00391 173.11064 L 91.00391 172.11064 L 91.00391 171.11064 L 92.00391 171.11064 L 93.00391 172.11064 L 94.00391 172.11064 L 95.00391 173.11064 L 96.00391 174.11064 L 97.00391 176.11064 L 99.00391 179.11064 L 101.00391 181.11064 L 103.00391 185.11064 L 105.00391 189.11064 L 109.00391 196.11064 L 112.00391 205.11064 L 114.00391 213.11064 L 116.00391 222.11064 L 117.00391 233.11064 L 118.00391 245.11064 L 117.00391 256.11066 L 115.00391 265.11066 L 113.00391 275.11066 L 108.00391 285.11066 L 100.00391 297.11066 L 90.00391 309.11066 L 81.00391 319.11066 L 73.00391 328.11066 L 65.00391 335.11066 L 57.003906 340.11066 L 48.003906 343.11066 L 40.003906 345.11066 L 33.003906 343.11066 L 27.003906 339.11066 L 23.003906 336.11066" scribmaster:penstyle="draw" style="stroke:#000000;stroke-width:1.0;stroke-linejoin:round;stroke-linecap:round;stroke-opacity:1.0;fill:none" /></g></g><defs /><g id="1620939416494" transform="matrix(1,0,0,1,0,0)" style="opacity:1.0"><g id="1620621491459" inkscape:groupmode="layer" transform="matrix(1,0,0,1,0,0)" style="opacity:1.0" /></g></svg>