<?xml version='1.0' encoding='UTF-8' standalone='no' ?><svg xmlns="http://www.w3.org/2000/svg" xmlns:scribmaster="http://scribmaster.com/scribmaster" xmlns:sodipodi="http://sodipodi.sourceforge.net/DTD/sodipodi-0.dtd" xmlns:inkscape="http://www.inkscape.org/namespaces/inkscape" xmlns:xlink="http://www.w3.org/1999/xlink" version="1.2" width="800" height="1014"><sodipodi:namedview id="ScribMaster" /><filter id="blur"><feGaussianBlur stdDeviation="5.0" /></filter><defs /><g id="1620939448935" transform="matrix(1,0,0,1,124.996094,181.889359)" style="opacity:1.0"><g id="1620536817093" inkscape:groupmode="layer" transform="matrix(1,0,0,1,0,0)" style="opacity:1.0"><path transform="matrix(1,0,0,1,0,0)" d="M 56.003906 18.110641 L 55.003906 17.110641 L 55.003906 16.110641 L 54.003906 16.110641 L 53.003906 16.110641 L 53.003906 17.110641 L 53.003906 19.110641 L 52.003906 21.110641 L 52.003906 25.110641 L 52.003906 28.110641 L 51.003906 32.11064 L 50.003906 38.11064 L 49.003906 45.11064 L 48.003906 52.11064 L 47.003906 60.11064 L 46.003906 71.11064 L 45.003906 81.11064 L 44.003906 92.11064 L 43.003906 103.11064 L 43.003906 116.11064 L 42.003906 130.11064 L 41.003906 141.11064 L 40.003906 153.11064 L 40.003906 165.11064 L 38.003906 176.11064 L 37.003906 186.11064 L 36.003906 195.11064 L 35.003906 204.11064 L 34.003906 211.11064 L 33.003906 218.11064 L 32.003906 223.11064 L 31.003906 226.11064 L 31.003906 228.11064 L 31.003906 229.11064 L 31.003906 230.11064 L 31.003906 228.11064 L 32.003906 227.11064 L 33.003906 224.11064 L 34.003906 220.11064 L 35.003906 214.11064 L 37.003906 206.11064 L 39.003906 199.11064 L 41.003906 190.11064 L 44.003906 183.11064 L 47.003906 176.11064 L 50.003906 169.11064 L 52.003906 163.11064 L 55.003906 158.11064 L 59.003906 153.11064 L 62.003906 149.11064 L 64.00391 146.11064 L 66.00391 145.11064 L 68.00391 144.11064 L 70.00391 143.11064 L 72.00391 143.11064 L 74.00391 143.11064 L 75.00391 144.11064 L 77.00391 145.11064 L 79.00391 147.11064 L 81.00391 151.11064 L 84.00391 158.11064 L 87.00391 169.11064 L 90.00391 178.11064 L 92.00391 189.11064 L 95.00391 199.11064 L 97.00391 208.11064 L 100.00391 214.11064 L 104.00391 218.11064" scribmaster:penstyle="draw" style="stroke:#000000;stroke-width:1.0;stroke-linejoin:round;stroke-linecap:round;stroke-opacity:1.0;fill:none" /></g></g><defs /><g id="1620939448937" transform="matrix(1,0,0,1,0,0)" style="opacity:1.0"><g id="1620621491459" inkscape:groupmode="layer" transform="matrix(1,0,0,1,0,0)" style="opacity:1.0" /></g></svg>