<?xml version='1.0' encoding='UTF-8' standalone='no' ?><svg xmlns="http://www.w3.org/2000/svg" xmlns:scribmaster="http://scribmaster.com/scribmaster" xmlns:sodipodi="http://sodipodi.sourceforge.net/DTD/sodipodi-0.dtd" xmlns:inkscape="http://www.inkscape.org/namespaces/inkscape" xmlns:xlink="http://www.w3.org/1999/xlink" version="1.2" width="800" height="1014"><sodipodi:namedview id="ScribMaster" /><filter id="blur"><feGaussianBlur stdDeviation="5.0" /></filter><defs /><g id="1620939464110" transform="matrix(1,0,0,1,124.996094,181.889359)" style="opacity:1.0"><g id="1620536817093" inkscape:groupmode="layer" transform="matrix(1,0,0,1,0,0)" style="opacity:1.0"><path transform="matrix(1,0,0,1,0,0)" d="M 44.003906 146.11064 L 43.003906 146.11064 L 42.003906 146.11064 L 41.003906 147.11064 L 41.003906 148.11064 L 41.003906 149.11064 L 40.003906 150.11064 L 40.003906 152.11064 L 40.003906 155.11064 L 40.003906 159.11064 L 39.003906 163.11064 L 39.003906 168.11064 L 38.003906 174.11064 L 37.003906 179.11064 L 37.003906 184.11064 L 36.003906 190.11064 L 35.003906 196.11064 L 35.003906 201.11064 L 34.003906 206.11064 L 34.003906 211.11064 L 33.003906 216.11064 L 33.003906 220.11064 L 33.003906 224.11064 L 34.003906 226.11064" scribmaster:penstyle="draw" style="stroke:#000000;stroke-width:1.0;stroke-linejoin:round;stroke-linecap:round;stroke-opacity:1.0;fill:none" /><path transform="matrix(1,0,0,1,0,0)" d="M 59.003906 91.11064 L 58.003906 92.11064 L 57.003906 93.11064 L 55.003906 96.11064 L 54.003906 99.11064 L 52.003906 102.11064 L 51.003906 106.11064" scribmaster:penstyle="draw" style="stroke:#000000;stroke-width:1.0;stroke-linejoin:round;stroke-linecap:round;stroke-opacity:1.0;fill:none" /></g></g><defs /><g id="1620939464111" transform="matrix(1,0,0,1,0,0)" style="opacity:1.0"><g id="1620621491459" inkscape:groupmode="layer" transform="matrix(1,0,0,1,0,0)" style="opacity:1.0" /></g></svg>