<?xml version='1.0' encoding='UTF-8' standalone='no' ?><svg xmlns="http://www.w3.org/2000/svg" xmlns:scribmaster="http://scribmaster.com/scribmaster" xmlns:sodipodi="http://sodipodi.sourceforge.net/DTD/sodipodi-0.dtd" xmlns:inkscape="http://www.inkscape.org/namespaces/inkscape" xmlns:xlink="http://www.w3.org/1999/xlink" version="1.2" width="800" height="1014"><sodipodi:namedview id="ScribMaster" /><filter id="blur"><feGaussianBlur stdDeviation="5.0" /></filter><defs /><g id="1620939527905" transform="matrix(1,0,0,1,124.996094,181.889359)" style="opacity:1.0"><g id="1620536817093" inkscape:groupmode="layer" transform="matrix(1,0,0,1,0,0)" style="opacity:1.0"><path transform="matrix(1,0,0,1,0,0)" d="M 83.00391 132.11064 L 82.00391 133.11064 L 83.00391 134.11064 L 83.00391 135.11064 L 84.00391 136.11064 L 84.00391 138.11064 L 85.00391 140.11064 L 86.00391 141.11064 L 87.00391 145.11064 L 89.00391 150.11064 L 91.00391 158.11064 L 92.00391 165.11064 L 95.00391 174.11064 L 96.00391 184.11064 L 98.00391 196.11064 L 99.00391 208.11064 L 99.00391 218.11064 L 99.00391 226.11064 L 97.00391 233.11064 L 95.00391 239.11064 L 93.00391 246.11064 L 90.00391 253.11064 L 87.00391 259.11066 L 83.00391 265.11066 L 80.00391 270.11066 L 77.00391 273.11066 L 74.00391 275.11066 L 71.00391 276.11066 L 68.00391 276.11066 L 64.00391 274.11066 L 60.003906 272.11066 L 55.003906 269.11066 L 49.003906 265.11066 L 44.003906 262.11066 L 39.003906 258.11066 L 35.003906 256.11066" scribmaster:penstyle="draw" style="stroke:#000000;stroke-width:1.0;stroke-linejoin:round;stroke-linecap:round;stroke-opacity:1.0;fill:none" /><path transform="matrix(1,0,0,1,0,0)" d="M 83.00391 94.11064 L 82.00391 93.11064 L 82.00391 94.11064 L 83.00391 95.11064 L 85.00391 96.11064" scribmaster:penstyle="draw" style="stroke:#000000;stroke-width:1.0;stroke-linejoin:round;stroke-linecap:round;stroke-opacity:1.0;fill:none" /></g></g><defs /><g id="1620939527907" transform="matrix(1,0,0,1,0,0)" style="opacity:1.0"><g id="1620621491459" inkscape:groupmode="layer" transform="matrix(1,0,0,1,0,0)" style="opacity:1.0" /></g></svg>