<?xml version='1.0' encoding='UTF-8' standalone='no' ?><svg xmlns="http://www.w3.org/2000/svg" xmlns:scribmaster="http://scribmaster.com/scribmaster" xmlns:sodipodi="http://sodipodi.sourceforge.net/DTD/sodipodi-0.dtd" xmlns:inkscape="http://www.inkscape.org/namespaces/inkscape" xmlns:xlink="http://www.w3.org/1999/xlink" version="1.2" width="800" height="1014"><sodipodi:namedview id="ScribMaster" /><filter id="blur"><feGaussianBlur stdDeviation="5.0" /></filter><defs /><g id="1620939556874" transform="matrix(1,0,0,1,124.996094,181.889359)" style="opacity:1.0"><g id="1620536817093" inkscape:groupmode="layer" transform="matrix(1,0,0,1,0,0)" style="opacity:1.0"><path transform="matrix(1,0,0,1,0,0)" d="M 34.003906 66.11064 L 34.003906 67.11064 L 34.003906 68.11064 L 34.003906 69.11064 L 34.003906 70.11064 L 34.003906 71.11064 L 34.003906 73.11064 L 34.003906 74.11064 L 34.003906 76.11064 L 34.003906 77.11064 L 35.003906 79.11064 L 35.003906 81.11064 L 35.003906 85.11064 L 36.003906 89.11064 L 36.003906 92.11064 L 37.003906 96.11064 L 37.003906 101.11064 L 38.003906 105.11064 L 39.003906 111.11064 L 40.003906 116.11064 L 40.003906 122.11064 L 41.003906 128.11064 L 41.003906 134.11064 L 41.003906 139.11064 L 41.003906 145.11064 L 41.003906 150.11064 L 41.003906 155.11064 L 42.003906 160.11064 L 42.003906 166.11064 L 42.003906 171.11064 L 42.003906 176.11064 L 42.003906 181.11064 L 42.003906 186.11064 L 42.003906 191.11064 L 42.003906 196.11064 L 42.003906 201.11064 L 42.003906 206.11064 L 42.003906 210.11064 L 43.003906 214.11064 L 43.003906 218.11064 L 44.003906 221.11064 L 45.003906 223.11064 L 45.003906 226.11064" scribmaster:penstyle="draw" style="stroke:#000000;stroke-width:1.0;stroke-linejoin:round;stroke-linecap:round;stroke-opacity:1.0;fill:none" /><path transform="matrix(1,0,0,1,0,0)" d="M 98.00391 131.11064 L 98.00391 133.11064 L 98.00391 134.11064 L 98.00391 136.11064 L 97.00391 138.11064 L 95.00391 140.11064 L 94.00391 142.11064 L 91.00391 145.11064 L 89.00391 147.11064 L 87.00391 150.11064 L 84.00391 153.11064 L 81.00391 155.11064 L 79.00391 158.11064 L 77.00391 160.11064 L 75.00391 163.11064 L 73.00391 165.11064 L 71.00391 167.11064 L 69.00391 169.11064 L 66.00391 171.11064 L 62.003906 174.11064 L 59.003906 176.11064 L 55.003906 178.11064 L 52.003906 180.11064 L 48.003906 181.11064" scribmaster:penstyle="draw" style="stroke:#000000;stroke-width:1.0;stroke-linejoin:round;stroke-linecap:round;stroke-opacity:1.0;fill:none" /><path transform="matrix(1,0,0,1,0,0)" d="M 39.003906 187.11064 L 40.003906 186.11064 L 41.003906 187.11064 L 42.003906 188.11064 L 43.003906 189.11064 L 45.003906 190.11064 L 48.003906 192.11064 L 50.003906 194.11064 L 54.003906 196.11064 L 59.003906 198.11064 L 65.00391 203.11064 L 72.00391 209.11064 L 81.00391 216.11064 L 89.00391 223.11064 L 96.00391 229.11064 L 104.00391 234.11064" scribmaster:penstyle="draw" style="stroke:#000000;stroke-width:1.0;stroke-linejoin:round;stroke-linecap:round;stroke-opacity:1.0;fill:none" /></g></g><defs /><g id="1620939556876" transform="matrix(1,0,0,1,0,0)" style="opacity:1.0"><g id="1620621491459" inkscape:groupmode="layer" transform="matrix(1,0,0,1,0,0)" style="opacity:1.0" /></g></svg>