<?xml version='1.0' encoding='UTF-8' standalone='no' ?><svg xmlns="http://www.w3.org/2000/svg" xmlns:scribmaster="http://scribmaster.com/scribmaster" xmlns:sodipodi="http://sodipodi.sourceforge.net/DTD/sodipodi-0.dtd" xmlns:inkscape="http://www.inkscape.org/namespaces/inkscape" xmlns:xlink="http://www.w3.org/1999/xlink" version="1.2" width="800" height="1014"><sodipodi:namedview id="ScribMaster" /><filter id="blur"><feGaussianBlur stdDeviation="5.0" /></filter><defs /><g id="1620939601512" transform="matrix(1,0,0,1,124.996094,181.889359)" style="opacity:1.0"><g id="1620536817093" inkscape:groupmode="layer" transform="matrix(1,0,0,1,0,0)" style="opacity:1.0"><path transform="matrix(1,0,0,1,0,0)" d="M 62.003906 86.11064 L 61.003906 86.11064 L 61.003906 87.11064 L 61.003906 88.11064 L 61.003906 90.11064 L 60.003906 91.11064 L 59.003906 95.11064 L 58.003906 99.11064 L 56.003906 104.11064 L 54.003906 113.11064 L 51.003906 124.11064 L 47.003906 136.11064 L 44.003906 147.11064 L 41.003906 159.11064 L 38.003906 171.11064 L 35.003906 182.11064 L 33.003906 192.11064 L 30.003906 203.11064 L 28.003906 213.11064 L 26.003906 221.11064 L 25.003906 225.11064" scribmaster:penstyle="draw" style="stroke:#000000;stroke-width:1.0;stroke-linejoin:round;stroke-linecap:round;stroke-opacity:1.0;fill:none" /></g></g><defs /><g id="1620939601513" transform="matrix(1,0,0,1,0,0)" style="opacity:1.0"><g id="1620621491459" inkscape:groupmode="layer" transform="matrix(1,0,0,1,0,0)" style="opacity:1.0" /></g></svg>