<?xml version='1.0' encoding='UTF-8' standalone='no' ?><svg xmlns="http://www.w3.org/2000/svg" xmlns:scribmaster="http://scribmaster.com/scribmaster" xmlns:sodipodi="http://sodipodi.sourceforge.net/DTD/sodipodi-0.dtd" xmlns:inkscape="http://www.inkscape.org/namespaces/inkscape" xmlns:xlink="http://www.w3.org/1999/xlink" version="1.2" width="800" height="1014"><sodipodi:namedview id="ScribMaster" /><filter id="blur"><feGaussianBlur stdDeviation="5.0" /></filter><defs /><g id="1620939645375" transform="matrix(1,0,0,1,124.996094,181.889359)" style="opacity:1.0"><g id="1620536817093" inkscape:groupmode="layer" transform="matrix(1,0,0,1,0,0)" style="opacity:1.0"><path transform="matrix(1,0,0,1,0,0)" d="M 28.003906 139.11064 L 28.003906 140.11064 L 28.003906 141.11064 L 27.003906 142.11064 L 27.003906 144.11064 L 27.003906 146.11064 L 26.003906 149.11064 L 26.003906 152.11064 L 26.003906 156.11064 L 26.003906 160.11064 L 26.003906 166.11064 L 27.003906 171.11064 L 27.003906 177.11064 L 27.003906 182.11064 L 27.003906 188.11064 L 28.003906 194.11064 L 28.003906 199.11064 L 28.003906 204.11064 L 27.003906 210.11064 L 26.003906 215.11064 L 26.003906 219.11064 L 25.003906 223.11064 L 24.003906 227.11064 L 23.003906 231.11064 L 23.003906 233.11064 L 23.003906 235.11064 L 22.003906 236.11064 L 22.003906 237.11064 L 22.003906 236.11064 L 22.003906 233.11064 L 23.003906 229.11064 L 23.003906 223.11064 L 25.003906 216.11064 L 26.003906 206.11064 L 29.003906 195.11064 L 31.003906 185.11064 L 34.003906 175.11064 L 38.003906 166.11064 L 41.003906 159.11064 L 45.003906 152.11064 L 49.003906 145.11064 L 53.003906 140.11064 L 57.003906 136.11064 L 62.003906 132.11064 L 66.00391 129.11064 L 70.00391 127.11064 L 72.00391 126.11064 L 76.00391 126.11064 L 78.00391 127.11064 L 80.00391 129.11064 L 82.00391 131.11064 L 85.00391 136.11064 L 86.00391 140.11064 L 89.00391 147.11064 L 91.00391 156.11064 L 93.00391 166.11064 L 95.00391 178.11064 L 96.00391 189.11064 L 97.00391 201.11064 L 98.00391 213.11064 L 100.00391 222.11064 L 103.00391 228.11064 L 106.00391 229.11064" scribmaster:penstyle="draw" style="stroke:#000000;stroke-width:1.0;stroke-linejoin:round;stroke-linecap:round;stroke-opacity:1.0;fill:none" /></g></g><defs /><g id="1620939645377" transform="matrix(1,0,0,1,0,0)" style="opacity:1.0"><g id="1620621491459" inkscape:groupmode="layer" transform="matrix(1,0,0,1,0,0)" style="opacity:1.0" /></g></svg>