<?xml version='1.0' encoding='UTF-8' standalone='no' ?><svg xmlns="http://www.w3.org/2000/svg" xmlns:scribmaster="http://scribmaster.com/scribmaster" xmlns:sodipodi="http://sodipodi.sourceforge.net/DTD/sodipodi-0.dtd" xmlns:inkscape="http://www.inkscape.org/namespaces/inkscape" xmlns:xlink="http://www.w3.org/1999/xlink" version="1.2" width="800" height="1014"><sodipodi:namedview id="ScribMaster" /><filter id="blur"><feGaussianBlur stdDeviation="5.0" /></filter><defs /><g id="1620939658581" transform="matrix(1,0,0,1,124.996094,181.889359)" style="opacity:1.0"><g id="1620536817093" inkscape:groupmode="layer" transform="matrix(1,0,0,1,0,0)" style="opacity:1.0"><path transform="matrix(1,0,0,1,0,0)" d="M 71.00391 147.11064 L 71.00391 146.11064 L 71.00391 145.11064 L 71.00391 144.11064 L 71.00391 143.11064 L 70.00391 143.11064 L 69.00391 145.11064 L 68.00391 146.11064 L 66.00391 149.11064 L 64.00391 151.11064 L 62.003906 153.11064 L 59.003906 156.11064 L 56.003906 159.11064 L 53.003906 163.11064 L 50.003906 168.11064 L 46.003906 174.11064 L 42.003906 179.11064 L 39.003906 184.11064 L 37.003906 190.11064 L 35.003906 195.11064 L 35.003906 200.11064 L 35.003906 206.11064 L 35.003906 211.11064 L 37.003906 216.11064 L 40.003906 220.11064 L 44.003906 224.11064 L 48.003906 227.11064 L 52.003906 229.11064 L 57.003906 231.11064 L 61.003906 233.11064 L 66.00391 234.11064 L 71.00391 235.11064 L 77.00391 234.11064 L 83.00391 232.11064 L 89.00391 228.11064 L 95.00391 222.11064 L 102.00391 216.11064 L 107.00391 206.11064 L 111.00391 196.11064 L 114.00391 186.11064 L 116.00391 177.11064 L 117.00391 168.11064 L 116.00391 160.11064 L 115.00391 152.11064 L 112.00391 146.11064 L 108.00391 141.11064 L 103.00391 137.11064 L 98.00391 136.11064 L 92.00391 136.11064 L 87.00391 136.11064" scribmaster:penstyle="draw" style="stroke:#000000;stroke-width:1.0;stroke-linejoin:round;stroke-linecap:round;stroke-opacity:1.0;fill:none" /></g></g><defs /><g id="1620939658582" transform="matrix(1,0,0,1,0,0)" style="opacity:1.0"><g id="1620621491459" inkscape:groupmode="layer" transform="matrix(1,0,0,1,0,0)" style="opacity:1.0" /></g></svg>