<?xml version='1.0' encoding='UTF-8' standalone='no' ?><svg xmlns="http://www.w3.org/2000/svg" xmlns:scribmaster="http://scribmaster.com/scribmaster" xmlns:sodipodi="http://sodipodi.sourceforge.net/DTD/sodipodi-0.dtd" xmlns:inkscape="http://www.inkscape.org/namespaces/inkscape" xmlns:xlink="http://www.w3.org/1999/xlink" version="1.2" width="800" height="1014"><sodipodi:namedview id="ScribMaster" /><filter id="blur"><feGaussianBlur stdDeviation="5.0" /></filter><defs /><g id="1620939680719" transform="matrix(1,0,0,1,124.996094,181.889359)" style="opacity:1.0"><g id="1620536817093" inkscape:groupmode="layer" transform="matrix(1,0,0,1,0,0)" style="opacity:1.0"><path transform="matrix(1,0,0,1,0,0)" d="M 26.003906 146.11064 L 27.003906 148.11064 L 27.003906 149.11064 L 28.003906 151.11064 L 29.003906 154.11064 L 30.003906 157.11064 L 31.003906 162.11064 L 32.003906 168.11064 L 34.003906 175.11064 L 35.003906 184.11064 L 36.003906 197.11064 L 37.003906 211.11064 L 38.003906 224.11064 L 38.003906 240.11064 L 39.003906 256.11066 L 39.003906 271.11066 L 40.003906 285.11066 L 40.003906 298.11066 L 41.003906 311.11066 L 41.003906 321.11066 L 40.003906 329.11066 L 40.003906 336.11066 L 40.003906 342.11066 L 40.003906 345.11066 L 40.003906 347.11066 L 39.003906 345.11066 L 39.003906 344.11066 L 39.003906 341.11066 L 38.003906 338.11066 L 38.003906 334.11066 L 38.003906 327.11066 L 37.003906 318.11066 L 36.003906 306.11066 L 35.003906 292.11066 L 34.003906 279.11066 L 34.003906 267.11066 L 33.003906 255.11064 L 33.003906 242.11064 L 33.003906 229.11064 L 34.003906 216.11064 L 35.003906 203.11064 L 37.003906 191.11064 L 39.003906 181.11064 L 41.003906 172.11064 L 43.003906 164.11064 L 45.003906 156.11064 L 48.003906 149.11064 L 50.003906 143.11064 L 53.003906 138.11064 L 56.003906 135.11064 L 59.003906 132.11064 L 62.003906 130.11064 L 65.00391 129.11064 L 69.00391 129.11064 L 71.00391 128.11064 L 75.00391 129.11064 L 78.00391 130.11064 L 81.00391 131.11064 L 85.00391 133.11064 L 88.00391 136.11064 L 91.00391 140.11064 L 94.00391 144.11064 L 97.00391 148.11064 L 99.00391 152.11064 L 100.00391 157.11064 L 102.00391 164.11064 L 102.00391 171.11064 L 101.00391 177.11064 L 99.00391 183.11064 L 95.00391 188.11064 L 90.00391 192.11064 L 84.00391 197.11064 L 77.00391 201.11064 L 70.00391 205.11064 L 61.003906 209.11064 L 54.003906 212.11064 L 49.003906 215.11064" scribmaster:penstyle="draw" style="stroke:#000000;stroke-width:1.0;stroke-linejoin:round;stroke-linecap:round;stroke-opacity:1.0;fill:none" /></g></g><defs /><g id="1620939680720" transform="matrix(1,0,0,1,0,0)" style="opacity:1.0"><g id="1620621491459" inkscape:groupmode="layer" transform="matrix(1,0,0,1,0,0)" style="opacity:1.0" /></g></svg>