<?xml version='1.0' encoding='UTF-8' standalone='no' ?><svg xmlns="http://www.w3.org/2000/svg" xmlns:scribmaster="http://scribmaster.com/scribmaster" xmlns:sodipodi="http://sodipodi.sourceforge.net/DTD/sodipodi-0.dtd" xmlns:inkscape="http://www.inkscape.org/namespaces/inkscape" xmlns:xlink="http://www.w3.org/1999/xlink" version="1.2" width="800" height="1014"><sodipodi:namedview id="ScribMaster" /><filter id="blur"><feGaussianBlur stdDeviation="5.0" /></filter><defs /><g id="1620939696541" transform="matrix(1,0,0,1,124.996094,181.889359)" style="opacity:1.0"><g id="1620536817093" inkscape:groupmode="layer" transform="matrix(1,0,0,1,0,0)" style="opacity:1.0"><path transform="matrix(1,0,0,1,0,0)" d="M 72.00391 146.11064 L 72.00391 144.11064 L 71.00391 143.11064 L 70.00391 143.11064 L 68.00391 143.11064 L 65.00391 144.11064 L 60.003906 145.11064 L 55.003906 147.11064 L 49.003906 150.11064 L 44.003906 154.11064 L 38.003906 157.11064 L 33.003906 162.11064 L 27.003906 167.11064 L 22.003906 174.11064 L 17.003906 180.11064 L 14.003906 186.11064 L 11.003906 192.11064 L 10.003906 198.11064 L 10.003906 204.11064 L 10.003906 210.11064 L 12.003906 214.11064 L 14.003906 218.11064 L 16.003906 220.11064 L 18.003906 221.11064 L 20.003906 222.11064 L 23.003906 222.11064 L 28.003906 221.11064 L 33.003906 219.11064 L 39.003906 217.11064 L 45.003906 213.11064 L 50.003906 209.11064 L 54.003906 205.11064 L 58.003906 200.11064 L 62.003906 195.11064 L 65.00391 190.11064 L 67.00391 186.11064 L 69.00391 182.11064 L 70.00391 179.11064 L 70.00391 176.11064 L 70.00391 175.11064 L 70.00391 173.11064 L 70.00391 172.11064 L 70.00391 171.11064 L 70.00391 170.11064 L 70.00391 169.11064 L 70.00391 168.11064 L 70.00391 167.11064 L 71.00391 166.11064 L 71.00391 165.11064 L 72.00391 165.11064 L 72.00391 166.11064 L 73.00391 168.11064 L 73.00391 172.11064 L 73.00391 179.11064 L 73.00391 189.11064 L 72.00391 201.11064 L 71.00391 215.11064 L 71.00391 229.11064 L 70.00391 246.11064 L 70.00391 261.11066 L 69.00391 272.11066 L 69.00391 283.11066 L 69.00391 291.11066 L 70.00391 299.11066 L 70.00391 305.11066 L 70.00391 310.11066 L 70.00391 312.11066 L 70.00391 314.11066" scribmaster:penstyle="draw" style="stroke:#000000;stroke-width:1.0;stroke-linejoin:round;stroke-linecap:round;stroke-opacity:1.0;fill:none" /></g></g><defs /><g id="1620939696542" transform="matrix(1,0,0,1,0,0)" style="opacity:1.0"><g id="1620621491459" inkscape:groupmode="layer" transform="matrix(1,0,0,1,0,0)" style="opacity:1.0" /></g></svg>