<?xml version='1.0' encoding='UTF-8' standalone='no' ?><svg xmlns="http://www.w3.org/2000/svg" xmlns:scribmaster="http://scribmaster.com/scribmaster" xmlns:sodipodi="http://sodipodi.sourceforge.net/DTD/sodipodi-0.dtd" xmlns:inkscape="http://www.inkscape.org/namespaces/inkscape" xmlns:xlink="http://www.w3.org/1999/xlink" version="1.2" width="800" height="1014"><sodipodi:namedview id="ScribMaster" /><filter id="blur"><feGaussianBlur stdDeviation="5.0" /></filter><defs /><g id="1620939740120" transform="matrix(1,0,0,1,124.996094,181.889359)" style="opacity:1.0"><g id="1620536817093" inkscape:groupmode="layer" transform="matrix(1,0,0,1,0,0)" style="opacity:1.0"><path transform="matrix(1,0,0,1,0,0)" d="M 62.003906 131.11064 L 61.003906 130.11064 L 60.003906 130.11064 L 59.003906 130.11064 L 59.003906 131.11064 L 59.003906 132.11064 L 59.003906 134.11064 L 59.003906 136.11064 L 59.003906 138.11064 L 59.003906 141.11064 L 59.003906 145.11064 L 59.003906 149.11064 L 59.003906 153.11064 L 59.003906 158.11064 L 59.003906 164.11064 L 59.003906 170.11064 L 58.003906 176.11064 L 58.003906 181.11064 L 57.003906 187.11064 L 57.003906 193.11064 L 56.003906 198.11064 L 56.003906 203.11064 L 56.003906 208.11064 L 55.003906 213.11064 L 55.003906 217.11064 L 55.003906 220.11064 L 55.003906 223.11064 L 55.003906 225.11064 L 55.003906 227.11064 L 55.003906 228.11064 L 55.003906 229.11064 L 55.003906 230.11064 L 55.003906 231.11064 L 55.003906 232.11064 L 55.003906 233.11064 L 55.003906 234.11064 L 55.003906 235.11064 L 54.003906 235.11064 L 54.003906 234.11064 L 53.003906 233.11064 L 53.003906 232.11064 L 53.003906 231.11064 L 53.003906 229.11064 L 53.003906 227.11064 L 53.003906 224.11064 L 53.003906 221.11064 L 54.003906 217.11064 L 55.003906 213.11064 L 55.003906 208.11064 L 57.003906 203.11064 L 58.003906 197.11064 L 60.003906 192.11064 L 61.003906 187.11064 L 63.003906 182.11064 L 65.00391 177.11064 L 67.00391 172.11064 L 69.00391 167.11064 L 72.00391 162.11064 L 76.00391 156.11064 L 80.00391 151.11064 L 85.00391 146.11064 L 91.00391 143.11064 L 96.00391 140.11064 L 102.00391 138.11064" scribmaster:penstyle="draw" style="stroke:#000000;stroke-width:1.0;stroke-linejoin:round;stroke-linecap:round;stroke-opacity:1.0;fill:none" /></g></g><defs /><g id="1620939740121" transform="matrix(1,0,0,1,0,0)" style="opacity:1.0"><g id="1620621491459" inkscape:groupmode="layer" transform="matrix(1,0,0,1,0,0)" style="opacity:1.0" /></g></svg>