<?xml version='1.0' encoding='UTF-8' standalone='no' ?><svg xmlns="http://www.w3.org/2000/svg" xmlns:scribmaster="http://scribmaster.com/scribmaster" xmlns:sodipodi="http://sodipodi.sourceforge.net/DTD/sodipodi-0.dtd" xmlns:inkscape="http://www.inkscape.org/namespaces/inkscape" xmlns:xlink="http://www.w3.org/1999/xlink" version="1.2" width="800" height="1014"><sodipodi:namedview id="ScribMaster" /><filter id="blur"><feGaussianBlur stdDeviation="5.0" /></filter><defs /><g id="1620939751231" transform="matrix(1,0,0,1,124.996094,181.889359)" style="opacity:1.0"><g id="1620536817093" inkscape:groupmode="layer" transform="matrix(1,0,0,1,0,0)" style="opacity:1.0"><path transform="matrix(1,0,0,1,0,0)" d="M 88.00391 133.11064 L 87.00391 133.11064 L 86.00391 134.11064 L 85.00391 135.11064 L 84.00391 135.11064 L 83.00391 136.11064 L 81.00391 137.11064 L 79.00391 139.11064 L 76.00391 141.11064 L 73.00391 143.11064 L 70.00391 145.11064 L 66.00391 147.11064 L 62.003906 150.11064 L 59.003906 152.11064 L 55.003906 154.11064 L 52.003906 157.11064 L 50.003906 159.11064 L 47.003906 162.11064 L 45.003906 165.11064 L 45.003906 167.11064 L 45.003906 170.11064 L 45.003906 172.11064 L 46.003906 175.11064 L 48.003906 177.11064 L 51.003906 179.11064 L 53.003906 182.11064 L 57.003906 185.11064 L 61.003906 188.11064 L 65.00391 191.11064 L 70.00391 194.11064 L 73.00391 197.11064 L 77.00391 200.11064 L 80.00391 203.11064 L 81.00391 207.11064 L 82.00391 210.11064 L 81.00391 213.11064 L 80.00391 216.11064 L 78.00391 218.11064 L 75.00391 222.11064 L 70.00391 226.11064 L 65.00391 229.11064 L 59.003906 232.11064 L 51.003906 235.11064 L 44.003906 238.11064 L 36.003906 242.11064 L 30.003906 245.11064" scribmaster:penstyle="draw" style="stroke:#000000;stroke-width:1.0;stroke-linejoin:round;stroke-linecap:round;stroke-opacity:1.0;fill:none" /></g></g><defs /><g id="1620939751231" transform="matrix(1,0,0,1,0,0)" style="opacity:1.0"><g id="1620621491459" inkscape:groupmode="layer" transform="matrix(1,0,0,1,0,0)" style="opacity:1.0" /></g></svg>