<?xml version='1.0' encoding='UTF-8' standalone='no' ?><svg xmlns="http://www.w3.org/2000/svg" xmlns:scribmaster="http://scribmaster.com/scribmaster" xmlns:sodipodi="http://sodipodi.sourceforge.net/DTD/sodipodi-0.dtd" xmlns:inkscape="http://www.inkscape.org/namespaces/inkscape" xmlns:xlink="http://www.w3.org/1999/xlink" version="1.2" width="800" height="1014"><sodipodi:namedview id="ScribMaster" /><filter id="blur"><feGaussianBlur stdDeviation="5.0" /></filter><defs /><g id="1620939809557" transform="matrix(1,0,0,1,124.996094,181.889359)" style="opacity:1.0"><g id="1620536817093" inkscape:groupmode="layer" transform="matrix(1,0,0,1,0,0)" style="opacity:1.0"><path transform="matrix(1,0,0,1,0,0)" d="M 20.003906 115.11064 L 19.003906 114.11064 L 18.003906 114.11064 L 17.003906 114.11064 L 16.003906 114.11064 L 17.003906 115.11064 L 19.003906 115.11064 L 21.003906 115.11064 L 25.003906 115.11064 L 30.003906 116.11064 L 35.003906 116.11064 L 42.003906 116.11064 L 50.003906 117.11064 L 59.003906 118.11064 L 66.00391 118.11064 L 73.00391 119.11064 L 80.00391 120.11064 L 87.00391 120.11064 L 92.00391 120.11064 L 97.00391 120.11064 L 101.00391 120.11064" scribmaster:penstyle="draw" style="stroke:#000000;stroke-width:1.0;stroke-linejoin:round;stroke-linecap:round;stroke-opacity:1.0;fill:none" /><path transform="matrix(1,0,0,1,0,0)" d="M 67.00391 76.11064 L 67.00391 77.11064 L 67.00391 79.11064 L 67.00391 81.11064 L 68.00391 83.11064 L 68.00391 86.11064 L 68.00391 90.11064 L 68.00391 94.11064 L 68.00391 99.11064 L 68.00391 105.11064 L 68.00391 112.11064 L 68.00391 120.11064 L 68.00391 127.11064 L 68.00391 134.11064 L 68.00391 143.11064 L 68.00391 151.11064 L 68.00391 161.11064 L 68.00391 171.11064 L 67.00391 179.11064 L 67.00391 187.11064 L 67.00391 195.11064 L 67.00391 201.11064 L 67.00391 207.11064 L 67.00391 213.11064 L 67.00391 218.11064 L 67.00391 222.11064 L 67.00391 226.11064 L 67.00391 229.11064 L 68.00391 232.11064" scribmaster:penstyle="draw" style="stroke:#000000;stroke-width:1.0;stroke-linejoin:round;stroke-linecap:round;stroke-opacity:1.0;fill:none" /></g></g><defs /><g id="1620939809558" transform="matrix(1,0,0,1,0,0)" style="opacity:1.0"><g id="1620621491459" inkscape:groupmode="layer" transform="matrix(1,0,0,1,0,0)" style="opacity:1.0" /></g></svg>