<?xml version='1.0' encoding='UTF-8' standalone='no' ?><svg xmlns="http://www.w3.org/2000/svg" xmlns:scribmaster="http://scribmaster.com/scribmaster" xmlns:sodipodi="http://sodipodi.sourceforge.net/DTD/sodipodi-0.dtd" xmlns:inkscape="http://www.inkscape.org/namespaces/inkscape" xmlns:xlink="http://www.w3.org/1999/xlink" version="1.2" width="800" height="1014"><sodipodi:namedview id="ScribMaster" /><filter id="blur"><feGaussianBlur stdDeviation="5.0" /></filter><defs /><g id="1620939838076" transform="matrix(1,0,0,1,124.996094,181.889359)" style="opacity:1.0"><g id="1620536817093" inkscape:groupmode="layer" transform="matrix(1,0,0,1,0,0)" style="opacity:1.0"><path transform="matrix(1,0,0,1,0,0)" d="M 30.003906 158.11064 L 30.003906 159.11064 L 29.003906 161.11064 L 29.003906 162.11064 L 28.003906 165.11064 L 27.003906 168.11064 L 26.003906 172.11064 L 26.003906 177.11064 L 25.003906 183.11064 L 25.003906 190.11064 L 25.003906 197.11064 L 25.003906 204.11064 L 25.003906 210.11064 L 26.003906 216.11064 L 27.003906 221.11064 L 28.003906 226.11064 L 29.003906 230.11064 L 30.003906 233.11064 L 31.003906 235.11064 L 33.003906 237.11064 L 35.003906 238.11064 L 37.003906 239.11064 L 40.003906 239.11064 L 42.003906 239.11064 L 45.003906 239.11064 L 48.003906 238.11064 L 52.003906 235.11064 L 56.003906 231.11064 L 60.003906 228.11064 L 65.00391 222.11064 L 69.00391 217.11064 L 72.00391 211.11064 L 76.00391 205.11064 L 79.00391 199.11064 L 82.00391 193.11064 L 84.00391 188.11064 L 87.00391 182.11064 L 89.00391 177.11064 L 90.00391 172.11064 L 92.00391 167.11064 L 93.00391 163.11064 L 94.00391 158.11064 L 95.00391 154.11064 L 95.00391 151.11064 L 95.00391 150.11064 L 95.00391 148.11064 L 95.00391 146.11064 L 95.00391 145.11064 L 94.00391 145.11064 L 94.00391 146.11064 L 93.00391 147.11064 L 93.00391 150.11064 L 93.00391 153.11064 L 93.00391 156.11064 L 93.00391 161.11064 L 93.00391 167.11064 L 94.00391 174.11064 L 95.00391 181.11064 L 95.00391 188.11064 L 96.00391 195.11064 L 98.00391 201.11064 L 100.00391 208.11064 L 102.00391 213.11064 L 104.00391 218.11064 L 108.00391 222.11064 L 112.00391 226.11064 L 116.00391 228.11064" scribmaster:penstyle="draw" style="stroke:#000000;stroke-width:1.0;stroke-linejoin:round;stroke-linecap:round;stroke-opacity:1.0;fill:none" /></g></g><defs /><g id="1620939838077" transform="matrix(1,0,0,1,0,0)" style="opacity:1.0"><g id="1620621491459" inkscape:groupmode="layer" transform="matrix(1,0,0,1,0,0)" style="opacity:1.0" /></g></svg>