<?xml version='1.0' encoding='UTF-8' standalone='no' ?><svg xmlns="http://www.w3.org/2000/svg" xmlns:scribmaster="http://scribmaster.com/scribmaster" xmlns:sodipodi="http://sodipodi.sourceforge.net/DTD/sodipodi-0.dtd" xmlns:inkscape="http://www.inkscape.org/namespaces/inkscape" xmlns:xlink="http://www.w3.org/1999/xlink" version="1.2" width="800" height="1014"><sodipodi:namedview id="ScribMaster" /><filter id="blur"><feGaussianBlur stdDeviation="5.0" /></filter><defs /><g id="1620939849491" transform="matrix(1,0,0,1,124.996094,181.889359)" style="opacity:1.0"><g id="1620536817093" inkscape:groupmode="layer" transform="matrix(1,0,0,1,0,0)" style="opacity:1.0"><path transform="matrix(1,0,0,1,0,0)" d="M 31.003906 136.11064 L 30.003906 136.11064 L 30.003906 137.11064 L 30.003906 138.11064 L 30.003906 139.11064 L 30.003906 140.11064 L 30.003906 141.11064 L 30.003906 143.11064 L 30.003906 145.11064 L 30.003906 146.11064 L 30.003906 150.11064 L 30.003906 154.11064 L 30.003906 159.11064 L 30.003906 164.11064 L 30.003906 170.11064 L 31.003906 176.11064 L 31.003906 181.11064 L 32.003906 186.11064 L 33.003906 192.11064 L 34.003906 197.11064 L 34.003906 202.11064 L 35.003906 208.11064 L 37.003906 213.11064 L 38.003906 217.11064 L 40.003906 221.11064 L 41.003906 225.11064 L 43.003906 228.11064 L 45.003906 231.11064 L 46.003906 233.11064 L 48.003906 234.11064 L 49.003906 236.11064 L 50.003906 237.11064 L 52.003906 237.11064 L 53.003906 238.11064 L 54.003906 237.11064 L 55.003906 237.11064 L 58.003906 235.11064 L 60.003906 231.11064 L 62.003906 226.11064 L 65.00391 220.11064 L 69.00391 214.11064 L 73.00391 205.11064 L 77.00391 196.11064 L 80.00391 188.11064 L 84.00391 180.11064 L 88.00391 174.11064 L 91.00391 167.11064 L 94.00391 161.11064 L 96.00391 155.11064 L 98.00391 150.11064 L 100.00391 146.11064 L 101.00391 142.11064 L 102.00391 140.11064 L 102.00391 137.11064 L 103.00391 136.11064 L 103.00391 135.11064 L 104.00391 134.11064 L 104.00391 133.11064 L 105.00391 133.11064 L 105.00391 132.11064" scribmaster:penstyle="draw" style="stroke:#000000;stroke-width:1.0;stroke-linejoin:round;stroke-linecap:round;stroke-opacity:1.0;fill:none" /></g></g><defs /><g id="1620939849492" transform="matrix(1,0,0,1,0,0)" style="opacity:1.0"><g id="1620621491459" inkscape:groupmode="layer" transform="matrix(1,0,0,1,0,0)" style="opacity:1.0" /></g></svg>