<?xml version='1.0' encoding='UTF-8' standalone='no' ?><svg xmlns="http://www.w3.org/2000/svg" xmlns:scribmaster="http://scribmaster.com/scribmaster" xmlns:sodipodi="http://sodipodi.sourceforge.net/DTD/sodipodi-0.dtd" xmlns:inkscape="http://www.inkscape.org/namespaces/inkscape" xmlns:xlink="http://www.w3.org/1999/xlink" version="1.2" width="800" height="1014"><sodipodi:namedview id="ScribMaster" /><filter id="blur"><feGaussianBlur stdDeviation="5.0" /></filter><defs /><g id="1620939869028" transform="matrix(1,0,0,1,124.996094,181.889359)" style="opacity:1.0"><g id="1620536817093" inkscape:groupmode="layer" transform="matrix(1,0,0,1,0,0)" style="opacity:1.0"><path transform="matrix(1,0,0,1,0,0)" d="M 34.003906 128.11064 L 34.003906 129.11064 L 34.003906 130.11064 L 34.003906 131.11064 L 35.003906 133.11064 L 35.003906 135.11064 L 35.003906 136.11064 L 35.003906 139.11064 L 36.003906 142.11064 L 37.003906 146.11064 L 37.003906 150.11064 L 38.003906 156.11064 L 38.003906 162.11064 L 39.003906 168.11064 L 39.003906 173.11064 L 40.003906 179.11064 L 40.003906 184.11064 L 40.003906 190.11064 L 40.003906 196.11064 L 40.003906 203.11064 L 40.003906 209.11064 L 41.003906 215.11064 L 42.003906 220.11064 L 43.003906 224.11064 L 43.003906 227.11064 L 44.003906 228.11064 L 44.003906 230.11064 L 45.003906 231.11064 L 45.003906 232.11064 L 46.003906 232.11064 L 47.003906 232.11064 L 48.003906 231.11064 L 49.003906 229.11064 L 51.003906 227.11064 L 52.003906 224.11064 L 54.003906 221.11064 L 56.003906 218.11064 L 59.003906 214.11064 L 61.003906 209.11064 L 63.003906 204.11064 L 65.00391 199.11064 L 68.00391 195.11064 L 70.00391 191.11064 L 72.00391 187.11064 L 74.00391 184.11064 L 75.00391 181.11064 L 77.00391 179.11064 L 78.00391 176.11064 L 79.00391 174.11064 L 80.00391 173.11064 L 81.00391 171.11064 L 82.00391 170.11064 L 83.00391 170.11064 L 84.00391 169.11064 L 85.00391 169.11064 L 85.00391 170.11064 L 86.00391 171.11064 L 87.00391 172.11064 L 87.00391 174.11064 L 88.00391 176.11064 L 90.00391 179.11064 L 90.00391 183.11064 L 91.00391 186.11064 L 92.00391 189.11064 L 93.00391 193.11064 L 94.00391 197.11064 L 95.00391 201.11064 L 96.00391 205.11064 L 97.00391 209.11064 L 98.00391 213.11064 L 99.00391 216.11064 L 100.00391 218.11064 L 101.00391 221.11064 L 102.00391 223.11064 L 103.00391 225.11064 L 104.00391 226.11064 L 105.00391 226.11064 L 106.00391 226.11064 L 107.00391 226.11064 L 109.00391 224.11064 L 111.00391 222.11064 L 113.00391 219.11064 L 115.00391 214.11064 L 118.00391 208.11064 L 121.00391 202.11064 L 124.00391 194.11064 L 127.00391 186.11064 L 130.0039 180.11064 L 133.0039 173.11064 L 136.0039 167.11064 L 138.0039 161.11064 L 140.0039 154.11064 L 143.0039 149.11064 L 145.0039 144.11064 L 146.0039 140.11064 L 148.0039 137.11064 L 149.0039 135.11064 L 149.0039 133.11064 L 150.0039 132.11064 L 151.0039 131.11064" scribmaster:penstyle="draw" style="stroke:#000000;stroke-width:1.0;stroke-linejoin:round;stroke-linecap:round;stroke-opacity:1.0;fill:none" /></g></g><defs /><g id="1620939869029" transform="matrix(1,0,0,1,0,0)" style="opacity:1.0"><g id="1620621491459" inkscape:groupmode="layer" transform="matrix(1,0,0,1,0,0)" style="opacity:1.0" /></g></svg>