<?xml version='1.0' encoding='UTF-8' standalone='no' ?><svg xmlns="http://www.w3.org/2000/svg" xmlns:scribmaster="http://scribmaster.com/scribmaster" xmlns:sodipodi="http://sodipodi.sourceforge.net/DTD/sodipodi-0.dtd" xmlns:inkscape="http://www.inkscape.org/namespaces/inkscape" xmlns:xlink="http://www.w3.org/1999/xlink" version="1.2" width="800" height="1014"><sodipodi:namedview id="ScribMaster" /><filter id="blur"><feGaussianBlur stdDeviation="5.0" /></filter><defs /><g id="1620939889795" transform="matrix(1,0,0,1,124.996094,181.889359)" style="opacity:1.0"><g id="1620536817093" inkscape:groupmode="layer" transform="matrix(1,0,0,1,0,0)" style="opacity:1.0"><path transform="matrix(1,0,0,1,0,0)" d="M 102.00391 132.11064 L 102.00391 133.11064 L 102.00391 134.11064 L 101.00391 135.11064 L 101.00391 136.11064 L 100.00391 137.11064 L 99.00391 139.11064 L 98.00391 140.11064 L 96.00391 143.11064 L 93.00391 148.11064 L 90.00391 154.11064 L 85.00391 162.11064 L 80.00391 171.11064 L 76.00391 181.11064 L 71.00391 192.11064 L 65.00391 203.11064 L 59.003906 213.11064 L 53.003906 222.11064 L 48.003906 229.11064 L 44.003906 235.11064 L 40.003906 240.11064 L 37.003906 244.11064 L 35.003906 246.11064 L 34.003906 247.11064 L 34.003906 248.11064 L 33.003906 249.11064" scribmaster:penstyle="draw" style="stroke:#000000;stroke-width:1.0;stroke-linejoin:round;stroke-linecap:round;stroke-opacity:1.0;fill:none" /><path transform="matrix(1,0,0,1,0,0)" d="M 36.003906 131.11064 L 35.003906 131.11064 L 34.003906 131.11064 L 33.003906 131.11064 L 34.003906 131.11064 L 34.003906 133.11064 L 35.003906 135.11064 L 37.003906 137.11064 L 39.003906 141.11064 L 43.003906 146.11064 L 48.003906 155.11064 L 54.003906 165.11064 L 60.003906 175.11064 L 66.00391 185.11064 L 73.00391 196.11064 L 79.00391 205.11064 L 86.00391 213.11064 L 93.00391 220.11064 L 98.00391 225.11064" scribmaster:penstyle="draw" style="stroke:#000000;stroke-width:1.0;stroke-linejoin:round;stroke-linecap:round;stroke-opacity:1.0;fill:none" /></g></g><defs /><g id="1620939889797" transform="matrix(1,0,0,1,0,0)" style="opacity:1.0"><g id="1620621491459" inkscape:groupmode="layer" transform="matrix(1,0,0,1,0,0)" style="opacity:1.0" /></g></svg>