<?xml version='1.0' encoding='UTF-8' standalone='no' ?><svg xmlns="http://www.w3.org/2000/svg" xmlns:scribmaster="http://scribmaster.com/scribmaster" xmlns:sodipodi="http://sodipodi.sourceforge.net/DTD/sodipodi-0.dtd" xmlns:inkscape="http://www.inkscape.org/namespaces/inkscape" xmlns:xlink="http://www.w3.org/1999/xlink" version="1.2" width="800" height="1014"><sodipodi:namedview id="ScribMaster" /><filter id="blur"><feGaussianBlur stdDeviation="5.0" /></filter><defs /><g id="1620939905730" transform="matrix(1,0,0,1,124.996094,181.889359)" style="opacity:1.0"><g id="1620536817093" inkscape:groupmode="layer" transform="matrix(1,0,0,1,0,0)" style="opacity:1.0"><path transform="matrix(1,0,0,1,0,0)" d="M 33.003906 148.11064 L 34.003906 149.11064 L 34.003906 150.11064 L 35.003906 151.11064 L 36.003906 153.11064 L 37.003906 154.11064 L 38.003906 158.11064 L 40.003906 163.11064 L 42.003906 168.11064 L 45.003906 174.11064 L 47.003906 181.11064 L 50.003906 187.11064 L 52.003906 194.11064 L 55.003906 201.11064 L 58.003906 207.11064 L 61.003906 213.11064 L 63.003906 218.11064 L 66.00391 222.11064 L 69.00391 225.11064 L 70.00391 227.11064" scribmaster:penstyle="draw" style="stroke:#000000;stroke-width:1.0;stroke-linejoin:round;stroke-linecap:round;stroke-opacity:1.0;fill:none" /><path transform="matrix(1,0,0,1,0,0)" d="M 134.0039 154.11064 L 134.0039 153.11064 L 133.0039 152.11064 L 133.0039 151.11064 L 132.0039 152.11064 L 132.0039 153.11064 L 131.0039 154.11064 L 131.0039 156.11064 L 130.0039 159.11064 L 128.0039 164.11064 L 125.00391 171.11064 L 121.00391 182.11064 L 116.00391 194.11064 L 109.00391 206.11064 L 99.00391 222.11064 L 90.00391 235.11064 L 79.00391 250.11064 L 68.00391 265.11066 L 59.003906 278.11066 L 51.003906 287.11066 L 45.003906 296.11066 L 41.003906 303.11066 L 37.003906 310.11066 L 35.003906 315.11066 L 34.003906 318.11066 L 35.003906 320.11066" scribmaster:penstyle="draw" style="stroke:#000000;stroke-width:1.0;stroke-linejoin:round;stroke-linecap:round;stroke-opacity:1.0;fill:none" /></g></g><defs /><g id="1620939905731" transform="matrix(1,0,0,1,0,0)" style="opacity:1.0"><g id="1620621491459" inkscape:groupmode="layer" transform="matrix(1,0,0,1,0,0)" style="opacity:1.0" /></g></svg>