<?xml version='1.0' encoding='UTF-8' standalone='no' ?><svg xmlns="http://www.w3.org/2000/svg" xmlns:scribmaster="http://scribmaster.com/scribmaster" xmlns:sodipodi="http://sodipodi.sourceforge.net/DTD/sodipodi-0.dtd" xmlns:inkscape="http://www.inkscape.org/namespaces/inkscape" xmlns:xlink="http://www.w3.org/1999/xlink" version="1.2" width="800" height="1014"><sodipodi:namedview id="ScribMaster" /><filter id="blur"><feGaussianBlur stdDeviation="5.0" /></filter><defs /><g id="1620939928434" transform="matrix(1,0,0,1,124.996094,181.889359)" style="opacity:1.0"><g id="1620536817093" inkscape:groupmode="layer" transform="matrix(1,0,0,1,0,0)" style="opacity:1.0"><path transform="matrix(1,0,0,1,0,0)" d="M 18.003906 147.11064 L 17.003906 147.11064 L 19.003906 147.11064 L 20.003906 147.11064 L 23.003906 147.11064 L 28.003906 147.11064 L 34.003906 147.11064 L 41.003906 147.11064 L 50.003906 147.11064 L 60.003906 147.11064 L 70.00391 147.11064 L 79.00391 148.11064 L 87.00391 149.11064 L 95.00391 150.11064 L 101.00391 151.11064 L 106.00391 152.11064 L 110.00391 154.11064 L 112.00391 155.11064 L 113.00391 157.11064 L 113.00391 159.11064 L 112.00391 161.11064 L 111.00391 164.11064 L 109.00391 168.11064 L 105.00391 172.11064 L 100.00391 178.11064 L 94.00391 184.11064 L 86.00391 192.11064 L 77.00391 200.11064 L 69.00391 206.11064 L 61.003906 212.11064 L 55.003906 218.11064 L 49.003906 222.11064 L 44.003906 226.11064 L 40.003906 229.11064 L 39.003906 230.11064 L 38.003906 231.11064 L 38.003906 232.11064 L 39.003906 233.11064 L 40.003906 233.11064 L 43.003906 234.11064 L 46.003906 234.11064 L 52.003906 233.11064 L 61.003906 232.11064 L 73.00391 230.11064 L 85.00391 228.11064 L 98.00391 225.11064 L 112.00391 223.11064 L 125.00391 221.11064 L 137.0039 219.11064 L 146.0039 218.11064" scribmaster:penstyle="draw" style="stroke:#000000;stroke-width:1.0;stroke-linejoin:round;stroke-linecap:round;stroke-opacity:1.0;fill:none" /></g></g><defs /><g id="1620939928435" transform="matrix(1,0,0,1,0,0)" style="opacity:1.0"><g id="1620621491459" inkscape:groupmode="layer" transform="matrix(1,0,0,1,0,0)" style="opacity:1.0" /></g></svg>