<?xml version='1.0' encoding='ASCII' standalone='yes'?>
<svg width = "6in" height = "4in" xmlns="http://www.w3.org/2000/svg" xmlns:xlink="http://www.w3.org/1999/xlink" version="1.1">
  <g transform="translate(-0.8145370177431639, 0) scale(1 1) translate(-0.581794650448325, 0) scale(1 1) translate(-0.34906978865732063, 0) scale(1 1) translate(-0.1163554293259576, 0) scale(1 1) translate(0.1163554293259576, 0) scale(1 1) translate(0.34906978865732075, 0) scale(1 1) translate(0.5817946504483253, 0) scale(1 1) translate(0.814537017743164, 0) scale(1 1) translate(1.0473038956930552, 0) scale(1 1) translate(0, 0) scale(0.1 0.1)  skewX(-1.000000) skewX(-0.777778) skewX(-0.555556) skewX(-0.333333) skewX(-0.111111) skewX(0.111111) skewX(0.333333) skewX(0.555556) skewX(0.777778)">
    <sodipodi:namedview xmlns:sodipodi="http://sodipodi.sourceforge.net/DTD/sodipodi-0.dtd" id="ScribMaster"/>
    <filter id="blur">
      <feGaussianBlur stdDeviation="5.0"/>
    </filter>
    <defs/>
    <g xmlns:inkscape="http://www.inkscape.org/namespaces/inkscape" xmlns:scribmaster="http://scribmaster.com/scribmaster" id="1625351759184" transform="matrix(1,0,0,1,-1.316833,-1.489594)" style="opacity:1.0">
      <g id="1625348338071" inkscape:groupmode="layer" transform="matrix(1,0,0,1,0,0)" style="opacity:1.0">
        <path transform="matrix(1,0,0,1,0,0)" d="M 53.316833 46.489594 L 55.316833 44.489594 L 58.316833 44.489594 L 63.316833 44.489594 L 68.31683 44.489594 L 77.31683 44.489594 L 86.31683 44.489594 L 95.31683 44.489594 L 104.31683 45.489594 L 113.31683 46.489594 L 121.31683 48.489594 L 128.31683 49.489594 L 134.31683 50.489594 L 138.31683 53.489594 L 140.31683 55.489594 L 142.31683 58.489594 L 142.31683 60.489594 L 142.31683 64.48959 L 141.31683 68.48959 L 138.31683 72.48959 L 135.31683 77.48959 L 131.31683 82.48959 L 124.31683 90.48959 L 115.31683 99.48959 L 106.31683 106.48959 L 96.31683 113.48959 L 88.31683 119.48959 L 79.31683 125.48959 L 71.31683 129.4896 L 65.31683 134.4896 L 61.316833 137.4896 L 58.316833 138.4896 L 56.316833 139.4896 L 56.316833 140.4896 L 56.316833 141.4896 L 58.316833 141.4896 L 60.316833 141.4896 L 64.31683 140.4896 L 70.31683 139.4896 L 77.31683 139.4896 L 86.31683 138.4896 L 95.31683 137.4896 L 103.31683 136.4896 L 113.31683 136.4896 L 121.31683 137.4896 L 128.31683 137.4896 L 135.31683 139.4896 L 140.31683 141.4896 L 143.31683 144.4896 L 145.31683 148.4896 L 146.31683 152.4896 L 145.31683 156.4896 L 144.31683 161.4896 L 141.31683 166.4896 L 138.31683 172.4896 L 132.31683 179.4896 L 126.31683 186.4896 L 117.31683 192.4896 L 108.31683 198.4896 L 99.31683 203.4896 L 90.31683 206.4896 L 81.31683 210.4896 L 73.31683 213.4896 L 65.31683 215.4896 L 59.316833 217.4896 L 54.316833 218.4896 L 51.316833 219.4896 L 50.316833 219.4896" scribmaster:penstyle="draw" style="stroke:#000000;stroke-width:5.0;stroke-linejoin:round;stroke-linecap:round;stroke-opacity:1.0;fill:none"/>
      </g>
    </g>
  </g>
</svg>
