<?xml version='1.0' encoding='ASCII' standalone='yes'?>
<svg width = "6in" height = "4in" xmlns="http://www.w3.org/2000/svg" xmlns:xlink="http://www.w3.org/1999/xlink" version="1.1">
  <g transform="translate(0.1163554293259576, 0) scale(1 1) translate(0.34906978865732075, 0) scale(1 1) translate(0.5817946504483253, 0) scale(1 1) translate(0.814537017743164, 0) scale(1 1) translate(1.0473038956930552, 0) scale(1 1) translate(0, 0) scale(0.1 0.1)  skewX(-1.000000) skewX(-0.777778) skewX(-0.555556) skewX(-0.333333) skewX(-0.111111)">
    <sodipodi:namedview xmlns:sodipodi="http://sodipodi.sourceforge.net/DTD/sodipodi-0.dtd" id="ScribMaster"/>
    <filter id="blur">
      <feGaussianBlur stdDeviation="5.0"/>
    </filter>
    <defs/>
    <g xmlns:inkscape="http://www.inkscape.org/namespaces/inkscape" xmlns:scribmaster="http://scribmaster.com/scribmaster" id="1625351744352" transform="matrix(1,0,0,1,-1.316833,-1.489594)" style="opacity:1.0">
      <g id="1625348338071" inkscape:groupmode="layer" transform="matrix(1,0,0,1,0,0)" style="opacity:1.0">
        <path transform="matrix(1,0,0,1,0,0)" d="M 51.316833 48.489594 L 52.316833 47.489594 L 56.316833 47.489594 L 59.316833 47.489594 L 65.31683 47.489594 L 72.31683 47.489594 L 79.31683 48.489594 L 86.31683 48.489594 L 93.31683 49.489594 L 101.31683 49.489594 L 109.31683 50.489594 L 116.31683 51.489594 L 123.31683 53.489594 L 129.31683 55.489594 L 133.31683 58.489594 L 137.31683 61.489594 L 139.31683 64.48959 L 141.31683 68.48959 L 141.31683 71.48959 L 141.31683 75.48959 L 139.31683 79.48959 L 136.31683 86.48959 L 132.31683 93.48959 L 127.31683 102.48959 L 120.31683 111.48959 L 113.31683 119.48959 L 106.31683 127.48959 L 97.31683 133.4896 L 90.31683 138.4896 L 84.31683 143.4896 L 79.31683 147.4896 L 74.31683 150.4896 L 71.31683 152.4896 L 70.31683 154.4896 L 69.31683 154.4896 L 68.31683 154.4896 L 69.31683 153.4896 L 70.31683 153.4896 L 71.31683 152.4896 L 75.31683 151.4896 L 81.31683 149.4896 L 88.31683 148.4896 L 95.31683 147.4896 L 104.31683 146.4896 L 113.31683 145.4896 L 121.31683 144.4896 L 128.31683 144.4896 L 135.31683 145.4896 L 140.31683 146.4896 L 145.31683 149.4896 L 147.31683 152.4896 L 149.31683 156.4896 L 149.31683 160.4896 L 149.31683 164.4896 L 146.31683 169.4896 L 142.31683 176.4896 L 135.31683 185.4896 L 126.31683 193.4896 L 114.31683 202.4896 L 103.31683 210.4896 L 91.31683 216.4896 L 81.31683 222.4896 L 71.31683 225.4896 L 64.31683 227.4896 L 59.316833 227.4896 L 56.316833 226.4896" scribmaster:penstyle="draw" style="stroke:#000000;stroke-width:5.0;stroke-linejoin:round;stroke-linecap:round;stroke-opacity:1.0;fill:none"/>
      </g>
    </g>
  </g>
</svg>
