<?xml version='1.0' encoding='ASCII' standalone='yes'?>
<svg width = "6in" height = "4in" xmlns="http://www.w3.org/2000/svg" xmlns:xlink="http://www.w3.org/1999/xlink" version="1.1">
  <g transform="translate(0.814537017743164, 0) scale(1 1) translate(1.0473038956930552, 0) scale(1 1) translate(0, 0) scale(0.1 0.1)  skewX(-1.000000) skewX(-0.777778)">
    <sodipodi:namedview xmlns:sodipodi="http://sodipodi.sourceforge.net/DTD/sodipodi-0.dtd" id="ScribMaster"/>
    <filter id="blur">
      <feGaussianBlur stdDeviation="5.0"/>
    </filter>
    <defs/>
    <g xmlns:inkscape="http://www.inkscape.org/namespaces/inkscape" xmlns:scribmaster="http://scribmaster.com/scribmaster" id="1625349680983" transform="matrix(1,0,0,1,-1.316833,-1.489594)" style="opacity:1.0">
      <g id="1625348338071" inkscape:groupmode="layer" transform="matrix(1,0,0,1,0,0)" style="opacity:1.0">
        <path transform="matrix(1,0,0,1,0,0)" d="M 54.316833 58.489594 L 54.316833 59.489594 L 53.316833 63.489594 L 53.316833 66.48959 L 53.316833 71.48959 L 52.316833 79.48959 L 52.316833 92.48959 L 51.316833 107.48959 L 50.316833 120.48959 L 50.316833 138.4896 L 50.316833 152.4896 L 50.316833 165.4896 L 49.316833 176.4896 L 48.316833 186.4896 L 47.316833 196.4896 L 46.316833 204.4896 L 45.316833 211.4896 L 44.316833 218.4896 L 44.316833 224.4896 L 42.316833 230.4896 L 42.316833 237.4896 L 42.316833 240.4896 L 42.316833 243.4896 L 42.316833 244.4896 L 42.316833 245.4896 L 42.316833 244.4896 L 42.316833 243.4896 L 42.316833 242.4896 L 42.316833 240.4896" scribmaster:penstyle="draw" style="stroke:#000000;stroke-width:5.0;stroke-linejoin:round;stroke-linecap:round;stroke-opacity:1.0;fill:none"/>
        <path transform="matrix(1,0,0,1,0,0)" d="M 71.31683 69.48959 L 69.31683 69.48959 L 68.31683 69.48959 L 67.31683 69.48959 L 66.31683 69.48959 L 66.31683 70.48959 L 67.31683 70.48959 L 69.31683 70.48959 L 71.31683 70.48959 L 75.31683 70.48959 L 79.31683 71.48959 L 84.31683 72.48959 L 90.31683 73.48959 L 96.31683 75.48959 L 102.31683 78.48959 L 108.31683 81.48959 L 113.31683 85.48959 L 117.31683 89.48959 L 120.31683 93.48959 L 122.31683 97.48959 L 123.31683 102.48959 L 122.31683 106.48959 L 121.31683 110.48959 L 118.31683 115.48959 L 114.31683 119.48959 L 110.31683 124.48959 L 105.31683 128.4896 L 99.31683 132.4896 L 93.31683 136.4896 L 87.31683 140.4896 L 81.31683 143.4896 L 76.31683 145.4896 L 72.31683 147.4896 L 70.31683 149.4896 L 68.31683 150.4896 L 67.31683 151.4896 L 67.31683 152.4896 L 68.31683 152.4896 L 70.31683 153.4896 L 72.31683 154.4896 L 77.31683 155.4896 L 84.31683 156.4896 L 92.31683 157.4896 L 101.31683 158.4896 L 109.31683 159.4896 L 116.31683 160.4896 L 123.31683 161.4896 L 128.31683 163.4896 L 133.31683 164.4896 L 136.31683 166.4896 L 137.31683 167.4896 L 138.31683 169.4896 L 138.31683 170.4896 L 136.31683 173.4896 L 133.31683 176.4896 L 128.31683 181.4896 L 120.31683 187.4896 L 107.31683 195.4896 L 96.31683 202.4896 L 86.31683 208.4896 L 77.31683 213.4896 L 68.31683 217.4896 L 62.316833 221.4896 L 57.316833 224.4896 L 54.316833 225.4896" scribmaster:penstyle="draw" style="stroke:#000000;stroke-width:5.0;stroke-linejoin:round;stroke-linecap:round;stroke-opacity:1.0;fill:none"/>
      </g>
    </g>
  </g>
</svg>
