<?xml version='1.0' encoding='ASCII' standalone='yes'?>
<svg width = "6in" height = "4in" xmlns="http://www.w3.org/2000/svg" xmlns:xlink="http://www.w3.org/1999/xlink" version="1.1">
  <g transform="translate(-0.1163554293259576, 0) scale(1 1) translate(0.1163554293259576, 0) scale(1 1) translate(0.34906978865732075, 0) scale(1 1) translate(0.5817946504483253, 0) scale(1 1) translate(0.814537017743164, 0) scale(1 1) translate(1.0473038956930552, 0) scale(1 1) translate(0, 0) scale(0.1 0.1)  skewX(-1.000000) skewX(-0.777778) skewX(-0.555556) skewX(-0.333333) skewX(-0.111111) skewX(0.111111)">
    <sodipodi:namedview xmlns:sodipodi="http://sodipodi.sourceforge.net/DTD/sodipodi-0.dtd" id="ScribMaster"/>
    <filter id="blur">
      <feGaussianBlur stdDeviation="5.0"/>
    </filter>
    <defs/>
    <g xmlns:inkscape="http://www.inkscape.org/namespaces/inkscape" xmlns:scribmaster="http://scribmaster.com/scribmaster" id="1625349656638" transform="matrix(1,0,0,1,-1.316833,-1.489594)" style="opacity:1.0">
      <g id="1625348338071" inkscape:groupmode="layer" transform="matrix(1,0,0,1,0,0)" style="opacity:1.0">
        <path transform="matrix(1,0,0,1,0,0)" d="M 58.316833 53.489594 L 56.316833 52.489594 L 55.316833 53.489594 L 55.316833 54.489594 L 54.316833 55.489594 L 53.316833 59.489594 L 52.316833 64.48959 L 51.316833 71.48959 L 49.316833 84.48959 L 48.316833 99.48959 L 47.316833 114.48959 L 46.316833 127.48959 L 45.316833 143.4896 L 45.316833 156.4896 L 45.316833 168.4896 L 44.316833 177.4896 L 44.316833 187.4896 L 43.316833 195.4896 L 43.316833 203.4896 L 43.316833 209.4896 L 43.316833 214.4896 L 43.316833 219.4896 L 43.316833 223.4896 L 43.316833 226.4896 L 43.316833 230.4896 L 43.316833 233.4896 L 43.316833 235.4896 L 43.316833 237.4896 L 43.316833 236.4896 L 43.316833 235.4896 L 43.316833 234.4896 L 43.316833 233.4896" scribmaster:penstyle="draw" style="stroke:#000000;stroke-width:5.0;stroke-linejoin:round;stroke-linecap:round;stroke-opacity:1.0;fill:none"/>
        <path transform="matrix(1,0,0,1,0,0)" d="M 59.316833 64.48959 L 58.316833 63.489594 L 57.316833 62.489594 L 57.316833 61.489594 L 56.316833 61.489594 L 58.316833 60.489594 L 61.316833 60.489594 L 64.31683 61.489594 L 69.31683 63.489594 L 73.31683 66.48959 L 77.31683 68.48959 L 81.31683 71.48959 L 85.31683 74.48959 L 89.31683 78.48959 L 92.31683 82.48959 L 95.31683 85.48959 L 97.31683 89.48959 L 99.31683 93.48959 L 99.31683 98.48959 L 99.31683 102.48959 L 97.31683 106.48959 L 95.31683 109.48959 L 92.31683 113.48959 L 88.31683 117.48959 L 85.31683 121.48959 L 81.31683 124.48959 L 77.31683 128.4896 L 73.31683 131.4896 L 70.31683 134.4896 L 66.31683 136.4896 L 63.316833 138.4896 L 61.316833 140.4896 L 59.316833 141.4896 L 57.316833 142.4896 L 56.316833 142.4896 L 58.316833 142.4896 L 61.316833 142.4896 L 66.31683 141.4896 L 73.31683 140.4896 L 81.31683 140.4896 L 89.31683 140.4896 L 96.31683 140.4896 L 103.31683 141.4896 L 111.31683 142.4896 L 117.31683 143.4896 L 124.31683 146.4896 L 129.31683 149.4896 L 134.31683 152.4896 L 138.31683 156.4896 L 141.31683 161.4896 L 142.31683 166.4896 L 142.31683 171.4896 L 140.31683 177.4896 L 136.31683 183.4896 L 131.31683 190.4896 L 122.31683 198.4896 L 112.31683 205.4896 L 100.31683 212.4896 L 86.31683 219.4896 L 72.31683 225.4896 L 61.316833 230.4896 L 52.316833 234.4896 L 43.316833 237.4896 L 38.316833 239.4896 L 38.316833 241.4896 L 40.316833 241.4896" scribmaster:penstyle="draw" style="stroke:#000000;stroke-width:5.0;stroke-linejoin:round;stroke-linecap:round;stroke-opacity:1.0;fill:none"/>
      </g>
    </g>
  </g>
</svg>
