<?xml version='1.0' encoding='UTF-8' standalone='no' ?><svg xmlns="http://www.w3.org/2000/svg" xmlns:scribmaster="http://scribmaster.com/scribmaster" xmlns:sodipodi="http://sodipodi.sourceforge.net/DTD/sodipodi-0.dtd" xmlns:inkscape="http://www.inkscape.org/namespaces/inkscape" xmlns:xlink="http://www.w3.org/1999/xlink" version="1.2" width="800" height="1014"><sodipodi:namedview id="ScribMaster" /><filter id="blur"><feGaussianBlur stdDeviation="5.0" /></filter><defs /><g id="1625349426419" transform="matrix(1,0,0,1,0,0)" style="opacity:1.0"><g id="1625348338071" inkscape:groupmode="layer" transform="matrix(1,0,0,1,0,0)" style="opacity:1.0"><path transform="matrix(1,0,0,1,0,0)" d="M 86.0 147.0 L 85.0 149.0 L 83.0 151.0 L 81.0 154.0 L 79.0 158.0 L 75.0 164.0 L 69.0 174.0 L 63.0 183.0 L 58.0 191.0 L 52.0 200.0 L 45.0 209.0 L 39.0 218.0 L 32.0 226.0 L 26.0 233.0 L 22.0 239.0 L 19.0 242.0" scribmaster:penstyle="draw" style="stroke:#000000;stroke-width:5.0;stroke-linejoin:round;stroke-linecap:round;stroke-opacity:1.0;fill:none" /><path transform="matrix(1,0,0,1,0,0)" d="M 20.0 151.0 L 23.0 152.0 L 25.0 154.0 L 29.0 158.0 L 32.0 163.0 L 40.0 174.0 L 51.0 188.0 L 61.0 199.0 L 71.0 209.0 L 80.0 216.0 L 87.0 222.0 L 93.0 227.0" scribmaster:penstyle="draw" style="stroke:#000000;stroke-width:5.0;stroke-linejoin:round;stroke-linecap:round;stroke-opacity:1.0;fill:none" /></g></g></svg>