<?xml version='1.0' encoding='UTF-8' standalone='no' ?><svg xmlns="http://www.w3.org/2000/svg" xmlns:scribmaster="http://scribmaster.com/scribmaster" xmlns:sodipodi="http://sodipodi.sourceforge.net/DTD/sodipodi-0.dtd" xmlns:inkscape="http://www.inkscape.org/namespaces/inkscape" xmlns:xlink="http://www.w3.org/1999/xlink" version="1.2" width="800" height="1014"><sodipodi:namedview id="ScribMaster" /><filter id="blur"><feGaussianBlur stdDeviation="5.0" /></filter><defs /><g id="1625349442898" transform="matrix(1,0,0,1,0,0)" style="opacity:1.0"><g id="1625348338071" inkscape:groupmode="layer" transform="matrix(1,0,0,1,0,0)" style="opacity:1.0"><path transform="matrix(1,0,0,1,0,0)" d="M 11.0 131.0 L 12.0 131.0 L 14.0 133.0 L 19.0 136.0 L 23.0 140.0 L 26.0 145.0 L 30.0 152.0 L 34.0 158.0 L 38.0 166.0 L 43.0 175.0 L 49.0 184.0 L 55.0 192.0 L 60.0 198.0 L 65.0 204.0 L 70.0 209.0 L 75.0 214.0 L 79.0 218.0 L 82.0 221.0 L 84.0 223.0 L 85.0 224.0 L 86.0 226.0 L 87.0 227.0 L 88.0 228.0 L 89.0 229.0" scribmaster:penstyle="draw" style="stroke:#000000;stroke-width:5.0;stroke-linejoin:round;stroke-linecap:round;stroke-opacity:1.0;fill:none" /><path transform="matrix(1,0,0,1,0,0)" d="M 84.0 140.0 L 83.0 139.0 L 82.0 139.0 L 80.0 140.0 L 79.0 141.0 L 75.0 144.0 L 71.0 148.0 L 66.0 153.0 L 61.0 160.0 L 51.0 168.0 L 41.0 178.0 L 33.0 189.0 L 25.0 199.0 L 20.0 207.0 L 16.0 214.0 L 13.0 220.0 L 11.0 227.0 L 10.0 231.0" scribmaster:penstyle="draw" style="stroke:#000000;stroke-width:5.0;stroke-linejoin:round;stroke-linecap:round;stroke-opacity:1.0;fill:none" /></g></g></svg>