<?xml version='1.0' encoding='ASCII' standalone='yes'?>
<svg width = "6in" height = "4in" xmlns="http://www.w3.org/2000/svg" xmlns:xlink="http://www.w3.org/1999/xlink" version="1.1">
  <g transform="translate(-0.34906978865732063, 0) scale(1 1) translate(-0.1163554293259576, 0) scale(1 1) translate(0.1163554293259576, 0) scale(1 1) translate(0.34906978865732075, 0) scale(1 1) translate(0.5817946504483253, 0) scale(1 1) translate(0.814537017743164, 0) scale(1 1) translate(1.0473038956930552, 0) scale(1 1) translate(0, 0) scale(0.1 0.1)  skewX(-1.000000) skewX(-0.777778) skewX(-0.555556) skewX(-0.333333) skewX(-0.111111) skewX(0.111111) skewX(0.333333)">
    <sodipodi:namedview xmlns:sodipodi="http://sodipodi.sourceforge.net/DTD/sodipodi-0.dtd" id="ScribMaster"/>
    <filter id="blur">
      <feGaussianBlur stdDeviation="5.0"/>
    </filter>
    <defs/>
    <g xmlns:inkscape="http://www.inkscape.org/namespaces/inkscape" xmlns:scribmaster="http://scribmaster.com/scribmaster" id="1625349346673" transform="matrix(1,0,0,1,0,0)" style="opacity:1.0">
      <g id="1625348338071" inkscape:groupmode="layer" transform="matrix(1,0,0,1,0,0)" style="opacity:1.0">
        <path transform="matrix(1,0,0,1,0,0)" d="M 49.0 142.0 L 47.0 143.0 L 47.0 145.0 L 46.0 148.0 L 45.0 151.0 L 44.0 156.0 L 43.0 163.0 L 43.0 173.0 L 42.0 182.0 L 42.0 192.0 L 42.0 201.0 L 43.0 209.0 L 44.0 217.0 L 46.0 224.0 L 49.0 229.0 L 53.0 233.0 L 57.0 236.0 L 60.0 237.0 L 63.0 238.0 L 65.0 237.0 L 68.0 236.0 L 70.0 234.0 L 74.0 230.0 L 79.0 225.0 L 85.0 216.0 L 91.0 206.0 L 97.0 196.0 L 101.0 187.0 L 105.0 178.0 L 108.0 170.0 L 110.0 164.0 L 112.0 158.0 L 114.0 153.0 L 115.0 148.0 L 115.0 145.0 L 116.0 143.0 L 116.0 142.0 L 115.0 141.0 L 115.0 142.0 L 114.0 143.0 L 114.0 145.0 L 113.0 149.0 L 112.0 156.0 L 112.0 167.0 L 111.0 179.0 L 112.0 190.0 L 112.0 199.0 L 115.0 207.0 L 118.0 213.0 L 122.0 218.0 L 126.0 219.0 L 130.0 220.0" scribmaster:penstyle="draw" style="stroke:#000000;stroke-width:5.0;stroke-linejoin:round;stroke-linecap:round;stroke-opacity:1.0;fill:none"/>
      </g>
    </g>
  </g>
</svg>
