<?xml version='1.0' encoding='ASCII' standalone='yes'?>
<svg width = "6in" height = "4in" xmlns="http://www.w3.org/2000/svg" xmlns:xlink="http://www.w3.org/1999/xlink" version="1.1">
  <g transform="translate(-0.8145370177431639, 0) scale(1 1) translate(-0.581794650448325, 0) scale(1 1) translate(-0.34906978865732063, 0) scale(1 1) translate(-0.1163554293259576, 0) scale(1 1) translate(0.1163554293259576, 0) scale(1 1) translate(0.34906978865732075, 0) scale(1 1) translate(0.5817946504483253, 0) scale(1 1) translate(0.814537017743164, 0) scale(1 1) translate(1.0473038956930552, 0) scale(1 1) translate(0, 0) scale(0.1 0.1)  skewX(-1.000000) skewX(-0.777778) skewX(-0.555556) skewX(-0.333333) skewX(-0.111111) skewX(0.111111) skewX(0.333333) skewX(0.555556) skewX(0.777778)">
    <sodipodi:namedview xmlns:sodipodi="http://sodipodi.sourceforge.net/DTD/sodipodi-0.dtd" id="ScribMaster"/>
    <filter id="blur">
      <feGaussianBlur stdDeviation="5.0"/>
    </filter>
    <defs/>
    <g xmlns:inkscape="http://www.inkscape.org/namespaces/inkscape" xmlns:scribmaster="http://scribmaster.com/scribmaster" id="1625349325779" transform="matrix(1,0,0,1,0,0)" style="opacity:1.0">
      <g id="1625348338071" inkscape:groupmode="layer" transform="matrix(1,0,0,1,0,0)" style="opacity:1.0">
        <path transform="matrix(1,0,0,1,0,0)" d="M 44.0 136.0 L 43.0 138.0 L 42.0 141.0 L 40.0 146.0 L 37.0 154.0 L 33.0 166.0 L 30.0 180.0 L 29.0 193.0 L 28.0 204.0 L 30.0 215.0 L 32.0 224.0 L 35.0 232.0 L 38.0 238.0 L 40.0 240.0 L 42.0 241.0 L 45.0 240.0 L 48.0 238.0 L 52.0 234.0 L 56.0 229.0 L 62.0 222.0 L 68.0 210.0 L 75.0 197.0 L 82.0 182.0 L 87.0 169.0 L 90.0 159.0 L 94.0 151.0 L 96.0 145.0 L 98.0 142.0 L 98.0 139.0 L 98.0 137.0 L 98.0 136.0 L 98.0 135.0 L 97.0 136.0 L 97.0 137.0 L 96.0 139.0 L 95.0 143.0 L 94.0 150.0 L 92.0 160.0 L 91.0 173.0 L 91.0 184.0 L 93.0 194.0 L 95.0 203.0 L 97.0 211.0 L 100.0 219.0 L 104.0 224.0 L 109.0 228.0 L 115.0 229.0" scribmaster:penstyle="draw" style="stroke:#000000;stroke-width:5.0;stroke-linejoin:round;stroke-linecap:round;stroke-opacity:1.0;fill:none"/>
      </g>
    </g>
  </g>
</svg>
