<?xml version='1.0' encoding='ASCII' standalone='yes'?>
<svg width = "6in" height = "4in" xmlns="http://www.w3.org/2000/svg" xmlns:xlink="http://www.w3.org/1999/xlink" version="1.1">
  <g transform="translate(-0.34906978865732063, 0) scale(1 1) translate(-0.1163554293259576, 0) scale(1 1) translate(0.1163554293259576, 0) scale(1 1) translate(0.34906978865732075, 0) scale(1 1) translate(0.5817946504483253, 0) scale(1 1) translate(0.814537017743164, 0) scale(1 1) translate(1.0473038956930552, 0) scale(1 1) translate(0, 0) scale(0.1 0.1)  skewX(-1.000000) skewX(-0.777778) skewX(-0.555556) skewX(-0.333333) skewX(-0.111111) skewX(0.111111) skewX(0.333333)">
    <sodipodi:namedview xmlns:sodipodi="http://sodipodi.sourceforge.net/DTD/sodipodi-0.dtd" id="ScribMaster"/>
    <filter id="blur">
      <feGaussianBlur stdDeviation="5.0"/>
    </filter>
    <defs/>
    <g xmlns:inkscape="http://www.inkscape.org/namespaces/inkscape" xmlns:scribmaster="http://scribmaster.com/scribmaster" id="1627855000171" transform="matrix(1.041329,0,0,1.041329,-16.413086,-15.68722)" style="opacity:1.0">
      <g id="1627851273342" inkscape:groupmode="layer" transform="matrix(1,0,0,1,0,0)" style="opacity:1.0">
        <path transform="matrix(1,0,0,1,0,0)" d="M 59.935978 89.00857 L 58.975666 89.96887 L 58.975666 90.929184 L 58.975666 92.84981 L 58.975666 93.81012 L 58.975666 95.73074 L 58.975666 99.57198 L 59.935978 102.45292 L 59.935978 105.333855 L 60.89629 108.21478 L 61.8566 112.05603 L 62.81691 115.89728 L 64.73753 120.69883 L 66.65815 126.46069 L 68.57877 131.26225 L 71.45971 137.98442 L 73.38033 145.66692 L 76.26126 151.42877 L 78.181885 157.19064 L 81.06282 163.91283 L 84.90406 169.67468 L 87.784996 175.43655 L 89.70562 182.15872 L 92.58655 187.9206 L 94.50717 192.72215 L 97.38811 197.52371 L 99.30872 202.32526 L 101.22935 206.1665 L 102.18966 210.00775 L 104.11028 213.849 L 106.03091 216.72993 L 106.99122 219.61086 L 108.911835 222.49179 L 109.87215 224.41241 L 110.83246 226.33304 L 111.79277 228.25366 L 112.75308 230.17429 L 113.713394 232.09491 L 114.673706 234.01553 L 115.63402 234.97583 L 115.63402 235.93614 L 116.59433 236.89645 L 116.59433 237.85677 L 116.59433 238.81708 L 116.59433 237.85677 L 116.59433 236.89645 L 116.59433 235.93614 L 116.59433 234.97583 L 116.59433 234.01553 L 116.59433 232.09491 L 116.59433 230.17429 L 117.554634 228.25366 L 117.554634 225.37273 L 118.514946 221.53148 L 119.47526 217.69023 L 119.47526 214.80931 L 120.43557 210.00775 L 120.43557 206.1665 L 121.39588 202.32526 L 122.35619 198.48402 L 123.316505 194.64278 L 123.316505 190.80153 L 124.27682 186.96028 L 125.23713 183.11903 L 126.19743 180.23811 L 126.19743 176.39687 L 126.19743 173.51593 L 127.157745 171.5953 L 128.11806 169.67468 L 128.11806 167.75406 L 128.11806 166.79375 L 129.07837 164.87312 L 129.07837 163.91283 L 129.07837 162.95251 L 130.03868 161.9922 L 130.03868 161.03189 L 130.03868 160.07158 L 130.999 160.07158 L 131.9593 160.07158 L 132.91962 161.03189 L 133.87993 161.9922 L 134.84024 162.95251 L 135.80055 163.91283 L 135.80055 164.87312 L 136.76086 166.79375 L 138.68149 169.67468 L 140.60211 172.55562 L 142.52274 175.43655 L 144.44336 179.2778 L 145.40367 183.11903 L 147.3243 187.9206 L 150.20522 192.72215 L 152.12584 196.5634 L 155.00677 201.36494 L 157.88771 206.1665 L 159.80833 210.00775 L 161.72896 212.88869 L 164.6099 215.76962 L 165.57019 218.65054 L 168.45113 220.57117 L 169.41144 222.49179 L 171.33206 224.41241 L 173.25269 225.37273 L 175.17331 227.29335 L 176.13362 228.25366 L 177.09393 228.25366 L 178.05424 229.21397 L 179.01456 229.21397 L 179.97487 228.25366 L 180.93518 228.25366 L 181.8955 226.33304 L 182.85579 225.37273 L 183.8161 222.49179 L 185.73672 217.69023 L 187.65735 211.92838 L 189.57797 204.24588 L 191.4986 193.68246 L 193.41922 182.15872 L 195.33984 171.5953 L 198.22078 160.07158 L 200.1414 147.58752 L 202.06201 136.0638 L 203.02232 125.50038 L 204.94295 115.89728 L 205.90326 108.21478 L 206.86357 100.532295 L 207.82388 93.81012 L 209.7445 88.048256 L 210.70482 83.2467 L 212.62544 79.40546 L 214.54607 76.52452 L 216.46669 74.6039" scribmaster:penstyle="draw" style="stroke:#000000;stroke-width:5.0;stroke-linejoin:round;stroke-linecap:round;stroke-opacity:1.0;fill:none"/>
      </g>
    </g>
  </g>
</svg>
