<?xml version='1.0' encoding='ASCII' standalone='yes'?>
<svg width = "6in" height = "4in" xmlns="http://www.w3.org/2000/svg" xmlns:xlink="http://www.w3.org/1999/xlink" version="1.1">
  <g transform="translate(0.814537017743164, 0) scale(1 1) translate(1.0473038956930552, 0) scale(1 1) translate(0, 0) scale(0.1 0.1)  skewX(-1.000000) skewX(-0.777778)">
    <sodipodi:namedview xmlns:sodipodi="http://sodipodi.sourceforge.net/DTD/sodipodi-0.dtd" id="ScribMaster"/>
    <filter id="blur">
      <feGaussianBlur stdDeviation="5.0"/>
    </filter>
    <defs/>
    <g xmlns:inkscape="http://www.inkscape.org/namespaces/inkscape" xmlns:scribmaster="http://scribmaster.com/scribmaster" id="1627854967651" transform="matrix(1.041329,0,0,1.041329,-16.413086,-15.68722)" style="opacity:1.0">
      <g id="1627851273342" inkscape:groupmode="layer" transform="matrix(1,0,0,1,0,0)" style="opacity:1.0">
        <path transform="matrix(1,0,0,1,0,0)" d="M 58.975666 86.12763 L 58.015354 87.087944 L 58.975666 89.00857 L 59.935978 92.84981 L 60.89629 98.61167 L 62.81691 105.333855 L 64.73753 113.976654 L 66.65815 122.61945 L 69.539085 134.14317 L 72.42002 147.58752 L 75.30095 159.11127 L 78.181885 169.67468 L 80.10251 179.2778 L 82.023125 188.8809 L 83.94375 196.5634 L 85.86437 203.28557 L 87.784996 209.04744 L 89.70562 212.88869 L 91.626236 215.76962 L 92.58655 218.65054 L 93.54686 220.57117 L 94.50717 221.53148 L 95.46748 222.49179 L 96.427795 223.4521 L 97.38811 223.4521 L 97.38811 222.49179 L 98.34842 221.53148 L 99.30872 220.57117 L 99.30872 219.61086 L 100.269035 215.76962 L 101.22935 212.88869 L 102.18966 210.00775 L 102.18966 206.1665 L 104.11028 202.32526 L 105.070595 198.48402 L 106.03091 192.72215 L 107.95153 187.9206 L 109.87215 183.11903 L 110.83246 179.2778 L 112.75308 175.43655 L 113.713394 173.51593 L 114.673706 171.5953 L 115.63402 170.635 L 116.59433 171.5953 L 117.554634 172.55562 L 118.514946 174.47624 L 119.47526 179.2778 L 122.35619 185.03966 L 124.27682 190.80153 L 126.19743 196.5634 L 129.07837 201.36494 L 130.999 206.1665 L 133.87993 210.00775 L 135.80055 212.88869 L 137.72118 215.76962 L 140.60211 217.69023 L 141.56242 219.61086 L 143.48303 220.57117 L 145.40367 220.57117 L 146.36398 220.57117 L 147.3243 220.57117 L 150.20522 218.65054 L 152.12584 214.80931 L 155.00677 206.1665 L 159.80833 192.72215 L 164.6099 174.47624 L 169.41144 157.19064 L 173.25269 140.86536 L 176.13362 127.421005 L 179.01456 116.85758 L 181.8955 107.25448 L 183.8161 99.57198 L 185.73672 93.81012 L 187.65735 89.96887 L 188.61766 85.16732 L 189.57797 81.32607 L 190.53828 79.40546 L 190.53828 78.445145 L 191.4986 77.48483 L 192.45891 76.52452 L 192.45891 77.48483 L 192.45891 79.40546" scribmaster:penstyle="draw" style="stroke:#000000;stroke-width:5.0;stroke-linejoin:round;stroke-linecap:round;stroke-opacity:1.0;fill:none"/>
      </g>
    </g>
  </g>
</svg>
