<?xml version='1.0' encoding='ASCII' standalone='yes'?>
<svg width = "6in" height = "4in" xmlns="http://www.w3.org/2000/svg" xmlns:xlink="http://www.w3.org/1999/xlink" version="1.1">
  <g transform="translate(-1.0473038956930552, 0) scale(1 1) translate(-0.8145370177431639, 0) scale(1 1) translate(-0.581794650448325, 0) scale(1 1) translate(-0.34906978865732063, 0) scale(1 1) translate(-0.1163554293259576, 0) scale(1 1) translate(0.1163554293259576, 0) scale(1 1) translate(0.34906978865732075, 0) scale(1 1) translate(0.5817946504483253, 0) scale(1 1) translate(0.814537017743164, 0) scale(1 1) translate(1.0473038956930552, 0) scale(1 1) translate(0, 0) scale(0.1 0.1)  skewX(-1.000000) skewX(-0.777778) skewX(-0.555556) skewX(-0.333333) skewX(-0.111111) skewX(0.111111) skewX(0.333333) skewX(0.555556) skewX(0.777778) skewX(1.000000)">
    <sodipodi:namedview xmlns:sodipodi="http://sodipodi.sourceforge.net/DTD/sodipodi-0.dtd" id="ScribMaster"/>
    <filter id="blur">
      <feGaussianBlur stdDeviation="5.0"/>
    </filter>
    <defs/>
    <g xmlns:inkscape="http://www.inkscape.org/namespaces/inkscape" xmlns:scribmaster="http://scribmaster.com/scribmaster" id="1625351191349" transform="matrix(1,0,0,1,-1.316833,-1.489594)" style="opacity:1.0">
      <g id="1625348338071" inkscape:groupmode="layer" transform="matrix(1,0,0,1,0,0)" style="opacity:1.0">
        <path transform="matrix(1,0,0,1,0,0)" d="M 66.31683 45.489594 L 64.31683 46.489594 L 63.316833 47.489594 L 62.316833 50.489594 L 61.316833 54.489594 L 59.316833 59.489594 L 58.316833 67.48959 L 56.316833 78.48959 L 55.316833 93.48959 L 53.316833 109.48959 L 52.316833 123.48959 L 50.316833 137.4896 L 49.316833 152.4896 L 49.316833 166.4896 L 48.316833 176.4896 L 48.316833 187.4896 L 48.316833 197.4896 L 48.316833 205.4896 L 48.316833 213.4896 L 47.316833 219.4896 L 46.316833 224.4896 L 46.316833 227.4896 L 45.316833 229.4896 L 45.316833 230.4896" scribmaster:penstyle="draw" style="stroke:#000000;stroke-width:5.0;stroke-linejoin:round;stroke-linecap:round;stroke-opacity:1.0;fill:none"/>
        <path transform="matrix(1,0,0,1,0,0)" d="M 70.31683 54.489594 L 70.31683 53.489594 L 71.31683 52.489594 L 73.31683 51.489594 L 76.31683 49.489594 L 79.31683 49.489594 L 82.31683 48.489594 L 86.31683 48.489594 L 89.31683 49.489594 L 93.31683 49.489594 L 96.31683 50.489594 L 100.31683 52.489594 L 103.31683 54.489594 L 107.31683 57.489594 L 111.31683 60.489594 L 115.31683 64.48959 L 117.31683 68.48959 L 120.31683 71.48959 L 122.31683 75.48959 L 123.31683 79.48959 L 124.31683 84.48959 L 123.31683 88.48959 L 121.31683 93.48959 L 119.31683 97.48959 L 115.31683 102.48959 L 111.31683 107.48959 L 105.31683 113.48959 L 99.31683 119.48959 L 91.31683 125.48959 L 84.31683 130.4896 L 78.31683 135.4896 L 72.31683 139.4896 L 67.31683 142.4896 L 64.31683 144.4896 L 62.316833 146.4896 L 61.316833 148.4896 L 61.316833 149.4896 L 62.316833 150.4896 L 63.316833 151.4896 L 65.31683 152.4896 L 68.31683 153.4896 L 71.31683 154.4896 L 76.31683 156.4896 L 83.31683 160.4896 L 89.31683 164.4896 L 96.31683 169.4896 L 104.31683 174.4896 L 111.31683 181.4896 L 118.31683 186.4896 L 124.31683 192.4896 L 129.31683 197.4896 L 133.31683 202.4896 L 136.31683 206.4896 L 139.31683 210.4896 L 141.31683 214.4896" scribmaster:penstyle="draw" style="stroke:#000000;stroke-width:5.0;stroke-linejoin:round;stroke-linecap:round;stroke-opacity:1.0;fill:none"/>
      </g>
    </g>
  </g>
</svg>
