<?xml version='1.0' encoding='ASCII' standalone='yes'?>
<svg width = "6in" height = "4in" xmlns="http://www.w3.org/2000/svg" xmlns:xlink="http://www.w3.org/1999/xlink" version="1.1">
  <g transform="translate(0.1163554293259576, 0) scale(1 1) translate(0.34906978865732075, 0) scale(1 1) translate(0.5817946504483253, 0) scale(1 1) translate(0.814537017743164, 0) scale(1 1) translate(1.0473038956930552, 0) scale(1 1) translate(0, 0) scale(0.1 0.1)  skewX(-1.000000) skewX(-0.777778) skewX(-0.555556) skewX(-0.333333) skewX(-0.111111)">
    <sodipodi:namedview xmlns:sodipodi="http://sodipodi.sourceforge.net/DTD/sodipodi-0.dtd" id="ScribMaster"/>
    <filter id="blur">
      <feGaussianBlur stdDeviation="5.0"/>
    </filter>
    <defs/>
    <g xmlns:inkscape="http://www.inkscape.org/namespaces/inkscape" xmlns:scribmaster="http://scribmaster.com/scribmaster" id="1625351215197" transform="matrix(1,0,0,1,-1.316833,-1.489594)" style="opacity:1.0">
      <g id="1625348338071" inkscape:groupmode="layer" transform="matrix(1,0,0,1,0,0)" style="opacity:1.0">
        <path transform="matrix(1,0,0,1,0,0)" d="M 72.31683 38.489594 L 72.31683 39.489594 L 72.31683 40.489594 L 71.31683 42.489594 L 71.31683 44.489594 L 71.31683 48.489594 L 70.31683 52.489594 L 69.31683 58.489594 L 68.31683 66.48959 L 67.31683 73.48959 L 66.31683 85.48959 L 64.31683 97.48959 L 62.316833 109.48959 L 60.316833 119.48959 L 59.316833 129.4896 L 57.316833 139.4896 L 56.316833 149.4896 L 54.316833 160.4896 L 52.316833 169.4896 L 51.316833 177.4896 L 50.316833 185.4896 L 49.316833 192.4896 L 48.316833 199.4896 L 48.316833 204.4896 L 47.316833 209.4896 L 46.316833 214.4896 L 45.316833 217.4896 L 44.316833 220.4896 L 44.316833 223.4896 L 44.316833 224.4896 L 43.316833 225.4896 L 43.316833 226.4896 L 44.316833 227.4896" scribmaster:penstyle="draw" style="stroke:#000000;stroke-width:5.0;stroke-linejoin:round;stroke-linecap:round;stroke-opacity:1.0;fill:none"/>
        <path transform="matrix(1,0,0,1,0,0)" d="M 80.31683 46.489594 L 81.31683 45.489594 L 83.31683 45.489594 L 86.31683 44.489594 L 90.31683 44.489594 L 93.31683 44.489594 L 97.31683 44.489594 L 102.31683 45.489594 L 108.31683 46.489594 L 113.31683 47.489594 L 117.31683 49.489594 L 122.31683 50.489594 L 126.31683 52.489594 L 129.31683 55.489594 L 132.31683 58.489594 L 134.31683 62.489594 L 136.31683 65.48959 L 137.31683 69.48959 L 137.31683 74.48959 L 137.31683 78.48959 L 136.31683 83.48959 L 133.31683 89.48959 L 130.31683 95.48959 L 127.31683 101.48959 L 121.31683 107.48959 L 116.31683 112.48959 L 109.31683 117.48959 L 103.31683 121.48959 L 97.31683 124.48959 L 92.31683 127.48959 L 87.31683 129.4896 L 82.31683 131.4896 L 79.31683 132.4896 L 77.31683 133.4896 L 75.31683 134.4896 L 73.31683 135.4896 L 72.31683 135.4896 L 71.31683 136.4896 L 71.31683 137.4896 L 71.31683 138.4896 L 72.31683 139.4896 L 73.31683 140.4896 L 74.31683 140.4896 L 75.31683 141.4896 L 76.31683 142.4896 L 77.31683 142.4896 L 79.31683 145.4896 L 82.31683 148.4896 L 85.31683 153.4896 L 91.31683 160.4896 L 96.31683 170.4896 L 103.31683 181.4896 L 110.31683 191.4896 L 117.31683 201.4896 L 124.31683 210.4896 L 130.31683 218.4896 L 135.31683 225.4896 L 139.31683 232.4896 L 144.31683 238.4896" scribmaster:penstyle="draw" style="stroke:#000000;stroke-width:5.0;stroke-linejoin:round;stroke-linecap:round;stroke-opacity:1.0;fill:none"/>
      </g>
    </g>
  </g>
</svg>
