<?xml version='1.0' encoding='ASCII' standalone='yes'?>
<svg width = "6in" height = "4in" xmlns="http://www.w3.org/2000/svg" xmlns:xlink="http://www.w3.org/1999/xlink" version="1.1">
  <g transform="translate(-0.34906978865732063, 0) scale(1 1) translate(-0.1163554293259576, 0) scale(1 1) translate(0.1163554293259576, 0) scale(1 1) translate(0.34906978865732075, 0) scale(1 1) translate(0.5817946504483253, 0) scale(1 1) translate(0.814537017743164, 0) scale(1 1) translate(1.0473038956930552, 0) scale(1 1) translate(0, 0) scale(0.1 0.1)  skewX(-1.000000) skewX(-0.777778) skewX(-0.555556) skewX(-0.333333) skewX(-0.111111) skewX(0.111111) skewX(0.333333)">
    <sodipodi:namedview xmlns:sodipodi="http://sodipodi.sourceforge.net/DTD/sodipodi-0.dtd" id="ScribMaster"/>
    <filter id="blur">
      <feGaussianBlur stdDeviation="5.0"/>
    </filter>
    <defs/>
    <g xmlns:inkscape="http://www.inkscape.org/namespaces/inkscape" xmlns:scribmaster="http://scribmaster.com/scribmaster" id="1625348374491" transform="matrix(1,0,0,1,0,0)" style="opacity:1.0">
      <g id="1625348338071" inkscape:groupmode="layer" transform="matrix(1,0,0,1,0,0)" style="opacity:1.0">
        <path transform="matrix(1,0,0,1,0,0)" d="M 93.0 128.0 L 91.0 128.0 L 90.0 129.0 L 88.0 130.0 L 85.0 131.0 L 80.0 134.0 L 75.0 138.0 L 68.0 143.0 L 61.0 150.0 L 51.0 158.0 L 40.0 168.0 L 33.0 178.0 L 28.0 188.0 L 23.0 197.0 L 20.0 204.0 L 18.0 212.0 L 17.0 218.0 L 18.0 221.0 L 19.0 224.0 L 21.0 226.0 L 25.0 228.0 L 28.0 228.0 L 31.0 229.0 L 35.0 229.0 L 39.0 228.0 L 43.0 226.0 L 49.0 224.0 L 55.0 220.0 L 61.0 215.0 L 67.0 209.0 L 73.0 203.0 L 78.0 196.0 L 83.0 189.0 L 86.0 182.0 L 89.0 174.0 L 90.0 167.0 L 92.0 161.0 L 93.0 156.0 L 94.0 151.0 L 94.0 148.0 L 94.0 145.0 L 94.0 143.0 L 94.0 141.0 L 94.0 140.0 L 94.0 138.0 L 93.0 138.0 L 92.0 138.0 L 91.0 140.0 L 90.0 143.0 L 90.0 147.0 L 90.0 154.0 L 89.0 162.0 L 89.0 175.0 L 89.0 186.0 L 90.0 196.0 L 93.0 204.0 L 95.0 211.0 L 99.0 216.0 L 103.0 220.0 L 107.0 222.0" scribmaster:penstyle="draw" style="stroke:#000000;stroke-width:5.0;stroke-linejoin:round;stroke-linecap:round;stroke-opacity:1.0;fill:none"/>
      </g>
    </g>
  </g>
</svg>
