<?xml version='1.0' encoding='ASCII' standalone='yes'?>
<svg width = "6in" height = "4in" xmlns="http://www.w3.org/2000/svg" xmlns:xlink="http://www.w3.org/1999/xlink" version="1.1">
  <g transform="translate(-1.0473038956930552, 0) scale(1 1) translate(-0.8145370177431639, 0) scale(1 1) translate(-0.581794650448325, 0) scale(1 1) translate(-0.34906978865732063, 0) scale(1 1) translate(-0.1163554293259576, 0) scale(1 1) translate(0.1163554293259576, 0) scale(1 1) translate(0.34906978865732075, 0) scale(1 1) translate(0.5817946504483253, 0) scale(1 1) translate(0.814537017743164, 0) scale(1 1) translate(1.0473038956930552, 0) scale(1 1) translate(0, 0) scale(0.1 0.1)  skewX(-1.000000) skewX(-0.777778) skewX(-0.555556) skewX(-0.333333) skewX(-0.111111) skewX(0.111111) skewX(0.333333) skewX(0.555556) skewX(0.777778) skewX(1.000000)">
    <sodipodi:namedview xmlns:sodipodi="http://sodipodi.sourceforge.net/DTD/sodipodi-0.dtd" id="ScribMaster"/>
    <filter id="blur">
      <feGaussianBlur stdDeviation="5.0"/>
    </filter>
    <defs/>
    <g xmlns:inkscape="http://www.inkscape.org/namespaces/inkscape" xmlns:scribmaster="http://scribmaster.com/scribmaster" id="1625348425869" transform="matrix(1,0,0,1,0,0)" style="opacity:1.0">
      <g id="1625348338071" inkscape:groupmode="layer" transform="matrix(1,0,0,1,0,0)" style="opacity:1.0">
        <path transform="matrix(1,0,0,1,0,0)" d="M 81.0 128.0 L 80.0 127.0 L 78.0 128.0 L 76.0 129.0 L 73.0 131.0 L 69.0 134.0 L 64.0 139.0 L 58.0 144.0 L 50.0 151.0 L 40.0 160.0 L 33.0 168.0 L 27.0 176.0 L 23.0 185.0 L 19.0 193.0 L 16.0 201.0 L 14.0 208.0 L 13.0 213.0 L 12.0 217.0 L 13.0 219.0 L 13.0 221.0 L 15.0 222.0 L 19.0 223.0 L 22.0 223.0 L 26.0 223.0 L 30.0 222.0 L 35.0 219.0 L 41.0 216.0 L 50.0 209.0 L 59.0 201.0 L 68.0 192.0 L 75.0 183.0 L 81.0 175.0 L 86.0 166.0 L 90.0 159.0 L 93.0 153.0 L 94.0 147.0 L 95.0 143.0 L 95.0 141.0 L 95.0 138.0 L 94.0 136.0 L 94.0 135.0 L 93.0 134.0 L 92.0 134.0 L 91.0 134.0 L 90.0 135.0 L 90.0 136.0 L 89.0 137.0 L 88.0 141.0 L 87.0 145.0 L 87.0 152.0 L 87.0 163.0 L 88.0 175.0 L 90.0 186.0 L 94.0 195.0 L 98.0 203.0 L 102.0 209.0 L 106.0 214.0 L 111.0 218.0 L 116.0 222.0 L 121.0 225.0" scribmaster:penstyle="draw" style="stroke:#000000;stroke-width:5.0;stroke-linejoin:round;stroke-linecap:round;stroke-opacity:1.0;fill:none"/>
      </g>
    </g>
  </g>
</svg>
