<?xml version='1.0' encoding='ASCII' standalone='yes'?>
<svg width = "6in" height = "4in" xmlns="http://www.w3.org/2000/svg" xmlns:xlink="http://www.w3.org/1999/xlink" version="1.1">
  <g transform="translate(0.814537017743164, 0) scale(1 1) translate(1.0473038956930552, 0) scale(1 1) translate(0, 0) scale(0.1 0.1)  skewX(-1.000000) skewX(-0.777778)">
    <sodipodi:namedview xmlns:sodipodi="http://sodipodi.sourceforge.net/DTD/sodipodi-0.dtd" id="ScribMaster"/>
    <filter id="blur">
      <feGaussianBlur stdDeviation="5.0"/>
    </filter>
    <defs/>
    <g xmlns:inkscape="http://www.inkscape.org/namespaces/inkscape" xmlns:scribmaster="http://scribmaster.com/scribmaster" id="1627854486560" transform="matrix(1.041329,0,0,1.041329,-16.413086,-15.68722)" style="opacity:1.0">
      <g id="1627851273342" inkscape:groupmode="layer" transform="matrix(1,0,0,1,0,0)" style="opacity:1.0">
        <path transform="matrix(1,0,0,1,0,0)" d="M 76.26126 97.65137 L 75.30095 96.691055 L 75.30095 95.73074 L 75.30095 98.61167 L 74.340645 105.333855 L 74.340645 113.976654 L 73.38033 126.46069 L 72.42002 145.66692 L 71.45971 166.79375 L 71.45971 183.11903 L 70.4994 196.5634 L 71.45971 206.1665 L 72.42002 211.92838 L 72.42002 216.72993 L 73.38033 219.61086 L 74.340645 222.49179 L 74.340645 224.41241 L 75.30095 226.33304 L 75.30095 228.25366 L 76.26126 229.21397 L 76.26126 230.17429" scribmaster:penstyle="draw" style="stroke:#000000;stroke-width:5.0;stroke-linejoin:round;stroke-linecap:round;stroke-opacity:1.0;fill:none"/>
        <path transform="matrix(1,0,0,1,0,0)" d="M 75.30095 100.532295 L 75.30095 98.61167 L 75.30095 97.65137 L 74.340645 96.691055 L 74.340645 95.73074 L 74.340645 94.77043 L 74.340645 95.73074 L 75.30095 96.691055 L 76.26126 98.61167 L 78.181885 102.45292 L 80.10251 106.29417 L 82.98344 111.09572 L 85.86437 117.817894 L 88.74531 123.579765 L 92.58655 130.30194 L 96.427795 136.0638 L 99.30872 141.82567 L 103.14997 147.58752 L 106.99122 154.30971 L 110.83246 161.03189 L 113.713394 166.79375 L 116.59433 172.55562 L 119.47526 177.35718 L 122.35619 181.19843 L 124.27682 185.99997 L 126.19743 188.8809 L 127.157745 190.80153 L 129.07837 192.72215 L 130.03868 194.64278 L 130.999 195.60309 L 131.9593 197.52371 L 132.91962 199.44434 L 133.87993 200.40463 L 133.87993 201.36494 L 134.84024 202.32526 L 134.84024 203.28557 L 135.80055 203.28557 L 136.76086 203.28557 L 136.76086 202.32526 L 136.76086 201.36494 L 137.72118 200.40463 L 137.72118 198.48402 L 138.68149 195.60309 L 138.68149 192.72215 L 139.6418 185.99997 L 140.60211 177.35718 L 140.60211 164.87312 L 142.52274 152.38908 L 143.48303 137.98442 L 144.44336 124.54008 L 144.44336 113.976654 L 144.44336 105.333855 L 144.44336 97.65137 L 144.44336 89.96887 L 144.44336 85.16732 L 144.44336 81.32607 L 144.44336 78.445145 L 145.40367 76.52452 L 145.40367 75.56421 L 145.40367 74.6039 L 146.36398 74.6039" scribmaster:penstyle="draw" style="stroke:#000000;stroke-width:5.0;stroke-linejoin:round;stroke-linecap:round;stroke-opacity:1.0;fill:none"/>
      </g>
    </g>
  </g>
</svg>
