<?xml version='1.0' encoding='ASCII' standalone='yes'?>
<svg width = "6in" height = "4in" xmlns="http://www.w3.org/2000/svg" xmlns:xlink="http://www.w3.org/1999/xlink" version="1.1">
  <g transform="translate(-0.34906978865732063, 0) scale(1 1) translate(-0.1163554293259576, 0) scale(1 1) translate(0.1163554293259576, 0) scale(1 1) translate(0.34906978865732075, 0) scale(1 1) translate(0.5817946504483253, 0) scale(1 1) translate(0.814537017743164, 0) scale(1 1) translate(1.0473038956930552, 0) scale(1 1) translate(0, 0) scale(0.1 0.1)  skewX(-1.000000) skewX(-0.777778) skewX(-0.555556) skewX(-0.333333) skewX(-0.111111) skewX(0.111111) skewX(0.333333)">
    <sodipodi:namedview xmlns:sodipodi="http://sodipodi.sourceforge.net/DTD/sodipodi-0.dtd" id="ScribMaster"/>
    <filter id="blur">
      <feGaussianBlur stdDeviation="5.0"/>
    </filter>
    <defs/>
    <g xmlns:inkscape="http://www.inkscape.org/namespaces/inkscape" xmlns:scribmaster="http://scribmaster.com/scribmaster" id="1627852901369" transform="matrix(1.032782,0,0,1.032782,-14.899414,-13.325867)" style="opacity:1.0">
      <g id="1627851273342" inkscape:groupmode="layer" transform="matrix(1,0,0,1,0,0)" style="opacity:1.0">
        <path transform="matrix(1,0,0,1,0,0)" d="M 66.71245 142.64952 L 65.74419 145.5543 L 65.74419 150.3956 L 64.77593 157.1734 L 64.77593 165.88773 L 66.71245 176.53857 L 69.617226 186.22116 L 72.521996 194.93549 L 75.42677 202.68155 L 79.299805 208.4911 L 84.1411 213.3324 L 88.01414 216.23718 L 91.88717 218.17369 L 95.7602 218.17369 L 98.66498 217.20543 L 101.569756 215.26892 L 105.44279 212.36414 L 109.31582 207.52284 L 113.18886 200.74504 L 117.06189 192.99896 L 120.93492 182.34813 L 124.80796 173.6338 L 127.71274 164.91946 L 129.64926 157.1734 L 130.61751 150.3956 L 131.58577 145.5543 L 131.58577 142.64952 L 131.58577 141.68126 L 131.58577 139.74475 L 132.55403 139.74475" scribmaster:penstyle="draw" style="stroke:#000000;stroke-width:5.0;stroke-linejoin:round;stroke-linecap:round;stroke-opacity:1.0;fill:none"/>
      </g>
    </g>
  </g>
</svg>
