<?xml version='1.0' encoding='ASCII' standalone='yes'?>
<svg width = "6in" height = "4in" xmlns="http://www.w3.org/2000/svg" xmlns:xlink="http://www.w3.org/1999/xlink" version="1.1">
  <g transform="translate(0.1163554293259576, 0) scale(1 1) translate(0.34906978865732075, 0) scale(1 1) translate(0.5817946504483253, 0) scale(1 1) translate(0.814537017743164, 0) scale(1 1) translate(1.0473038956930552, 0) scale(1 1) translate(0, 0) scale(0.1 0.1)  skewX(-1.000000) skewX(-0.777778) skewX(-0.555556) skewX(-0.333333) skewX(-0.111111)">
    <sodipodi:namedview xmlns:sodipodi="http://sodipodi.sourceforge.net/DTD/sodipodi-0.dtd" id="ScribMaster"/>
    <filter id="blur">
      <feGaussianBlur stdDeviation="5.0"/>
    </filter>
    <defs/>
    <g xmlns:inkscape="http://www.inkscape.org/namespaces/inkscape" xmlns:scribmaster="http://scribmaster.com/scribmaster" id="1627852891519" transform="matrix(1.032782,0,0,1.032782,-14.899414,-13.325867)" style="opacity:1.0">
      <g id="1627851273342" inkscape:groupmode="layer" transform="matrix(1,0,0,1,0,0)" style="opacity:1.0">
        <path transform="matrix(1,0,0,1,0,0)" d="M 61.871155 149.42734 L 60.902893 147.49081 L 60.902893 146.52255 L 60.902893 150.3956 L 61.871155 155.2369 L 62.839417 162.0147 L 63.80767 174.60205 L 65.74419 188.15768 L 67.6807 200.74504 L 70.58548 211.39589 L 73.49026 220.11021 L 77.36329 227.85628 L 81.23632 234.6341 L 85.10936 239.47539 L 89.95065 242.38016 L 93.823685 243.34842 L 96.72846 243.34842 L 99.63324 242.38016 L 101.569756 240.44363 L 104.474525 238.50713 L 107.3793 234.6341 L 110.28408 231.72931 L 112.2206 227.85628 L 115.125374 221.07846 L 117.06189 215.26892 L 118.998405 208.4911 L 120.93492 201.7133 L 122.871445 193.96722 L 123.8397 185.2529 L 124.80796 178.4751 L 125.776215 172.66554 L 125.776215 166.85599 L 125.776215 162.0147 L 126.74448 159.10992 L 126.74448 156.20514 L 127.71274 154.26863 L 128.681 153.30037 L 128.681 152.3321" scribmaster:penstyle="draw" style="stroke:#000000;stroke-width:5.0;stroke-linejoin:round;stroke-linecap:round;stroke-opacity:1.0;fill:none"/>
      </g>
    </g>
  </g>
</svg>
