<?xml version='1.0' encoding='ASCII' standalone='yes'?>
<svg width = "6in" height = "4in" xmlns="http://www.w3.org/2000/svg" xmlns:xlink="http://www.w3.org/1999/xlink" version="1.1">
  <g transform="translate(0.1163554293259576, 0) scale(1 1) translate(0.34906978865732075, 0) scale(1 1) translate(0.5817946504483253, 0) scale(1 1) translate(0.814537017743164, 0) scale(1 1) translate(1.0473038956930552, 0) scale(1 1) translate(0, 0) scale(0.1 0.1)  skewX(-1.000000) skewX(-0.777778) skewX(-0.555556) skewX(-0.333333) skewX(-0.111111)">
    <sodipodi:namedview xmlns:sodipodi="http://sodipodi.sourceforge.net/DTD/sodipodi-0.dtd" id="ScribMaster"/>
    <filter id="blur">
      <feGaussianBlur stdDeviation="5.0"/>
    </filter>
    <defs/>
    <g xmlns:inkscape="http://www.inkscape.org/namespaces/inkscape" xmlns:scribmaster="http://scribmaster.com/scribmaster" id="1627852910368" transform="matrix(1.032782,0,0,1.032782,-14.899414,-13.325867)" style="opacity:1.0">
      <g id="1627851273342" inkscape:groupmode="layer" transform="matrix(1,0,0,1,0,0)" style="opacity:1.0">
        <path transform="matrix(1,0,0,1,0,0)" d="M 64.77593 140.71301 L 63.80767 140.71301 L 63.80767 144.58604 L 63.80767 149.42734 L 63.80767 158.14166 L 63.80767 172.66554 L 65.74419 188.15768 L 69.617226 203.64981 L 73.49026 216.23718 L 77.36329 224.9515 L 82.20458 230.76105 L 88.01414 234.6341 L 91.88717 235.60234 L 95.7602 234.6341 L 98.66498 233.66583 L 101.569756 229.7928 L 103.50627 227.85628 L 106.41105 223.98325 L 109.31582 217.20543 L 112.2206 210.42763 L 115.125374 202.68155 L 116.093636 194.93549 L 118.998405 185.2529 L 119.96667 176.53857 L 120.93492 168.79251 L 120.93492 162.0147 L 121.90318 156.20514 L 122.871445 151.36385 L 123.8397 148.45908 L 124.80796 146.52255 L 125.776215 144.58604" scribmaster:penstyle="draw" style="stroke:#000000;stroke-width:5.0;stroke-linejoin:round;stroke-linecap:round;stroke-opacity:1.0;fill:none"/>
      </g>
    </g>
  </g>
</svg>
