<?xml version='1.0' encoding='UTF-8' standalone='no' ?><svg xmlns="http://www.w3.org/2000/svg" xmlns:scribmaster="http://scribmaster.com/scribmaster" xmlns:sodipodi="http://sodipodi.sourceforge.net/DTD/sodipodi-0.dtd" xmlns:inkscape="http://www.inkscape.org/namespaces/inkscape" xmlns:xlink="http://www.w3.org/1999/xlink" version="1.2" width="800" height="1014"><sodipodi:namedview id="ScribMaster" /><filter id="blur"><feGaussianBlur stdDeviation="5.0" /></filter><defs /><g id="1625348797946" transform="matrix(1,0,0,1,0,0)" style="opacity:1.0"><g id="1625348338071" inkscape:groupmode="layer" transform="matrix(1,0,0,1,0,0)" style="opacity:1.0"><path transform="matrix(1,0,0,1,0,0)" d="M 62.0 135.0 L 63.0 136.0 L 63.0 138.0 L 64.0 143.0 L 64.0 149.0 L 65.0 156.0 L 65.0 165.0 L 65.0 176.0 L 66.0 185.0 L 66.0 193.0 L 67.0 201.0 L 67.0 208.0 L 67.0 215.0 L 68.0 222.0 L 68.0 227.0 L 69.0 231.0 L 69.0 233.0 L 69.0 234.0 L 70.0 233.0" scribmaster:penstyle="draw" style="stroke:#000000;stroke-width:5.0;stroke-linejoin:round;stroke-linecap:round;stroke-opacity:1.0;fill:none" /><path transform="matrix(1,0,0,1,0,0)" d="M 84.0 77.0 L 82.0 78.0 L 81.0 78.0 L 80.0 80.0 L 77.0 82.0 L 75.0 85.0 L 71.0 89.0 L 68.0 93.0" scribmaster:penstyle="draw" style="stroke:#000000;stroke-width:5.0;stroke-linejoin:round;stroke-linecap:round;stroke-opacity:1.0;fill:none" /></g></g></svg>