<?xml version='1.0' encoding='UTF-8' standalone='no' ?><svg xmlns="http://www.w3.org/2000/svg" xmlns:scribmaster="http://scribmaster.com/scribmaster" xmlns:sodipodi="http://sodipodi.sourceforge.net/DTD/sodipodi-0.dtd" xmlns:inkscape="http://www.inkscape.org/namespaces/inkscape" xmlns:xlink="http://www.w3.org/1999/xlink" version="1.2" width="800" height="1014"><sodipodi:namedview id="ScribMaster" /><filter id="blur"><feGaussianBlur stdDeviation="5.0" /></filter><defs /><g id="1625348818078" transform="matrix(1,0,0,1,0,0)" style="opacity:1.0"><g id="1625348338071" inkscape:groupmode="layer" transform="matrix(1,0,0,1,0,0)" style="opacity:1.0"><path transform="matrix(1,0,0,1,0,0)" d="M 70.0 130.0 L 70.0 131.0 L 70.0 133.0 L 70.0 136.0 L 69.0 140.0 L 69.0 145.0 L 69.0 151.0 L 69.0 158.0 L 68.0 165.0 L 68.0 173.0 L 68.0 179.0 L 67.0 185.0 L 67.0 191.0 L 67.0 196.0 L 67.0 201.0 L 66.0 206.0 L 66.0 210.0 L 66.0 213.0 L 65.0 216.0 L 65.0 219.0 L 65.0 223.0 L 65.0 226.0 L 65.0 228.0 L 65.0 229.0 L 65.0 231.0 L 65.0 232.0" scribmaster:penstyle="draw" style="stroke:#000000;stroke-width:5.0;stroke-linejoin:round;stroke-linecap:round;stroke-opacity:1.0;fill:none" /><path transform="matrix(1,0,0,1,0,0)" d="M 88.0 93.0 L 87.0 93.0 L 86.0 95.0 L 85.0 96.0 L 83.0 99.0 L 82.0 102.0" scribmaster:penstyle="draw" style="stroke:#000000;stroke-width:5.0;stroke-linejoin:round;stroke-linecap:round;stroke-opacity:1.0;fill:none" /></g></g></svg>