<?xml version='1.0' encoding='ASCII' standalone='yes'?>
<svg width = "6in" height = "4in" xmlns="http://www.w3.org/2000/svg" xmlns:xlink="http://www.w3.org/1999/xlink" version="1.1">
  <g transform="translate(-1.0473038956930552, 0) scale(1 1) translate(-0.8145370177431639, 0) scale(1 1) translate(-0.581794650448325, 0) scale(1 1) translate(-0.34906978865732063, 0) scale(1 1) translate(-0.1163554293259576, 0) scale(1 1) translate(0.1163554293259576, 0) scale(1 1) translate(0.34906978865732075, 0) scale(1 1) translate(0.5817946504483253, 0) scale(1 1) translate(0.814537017743164, 0) scale(1 1) translate(1.0473038956930552, 0) scale(1 1) translate(0, 0) scale(0.1 0.1)  skewX(-1.000000) skewX(-0.777778) skewX(-0.555556) skewX(-0.333333) skewX(-0.111111) skewX(0.111111) skewX(0.333333) skewX(0.555556) skewX(0.777778) skewX(1.000000)">
    <sodipodi:namedview xmlns:sodipodi="http://sodipodi.sourceforge.net/DTD/sodipodi-0.dtd" id="ScribMaster"/>
    <filter id="blur">
      <feGaussianBlur stdDeviation="5.0"/>
    </filter>
    <defs/>
    <g xmlns:inkscape="http://www.inkscape.org/namespaces/inkscape" xmlns:scribmaster="http://scribmaster.com/scribmaster" id="1625349150933" transform="matrix(1,0,0,1,0,0)" style="opacity:1.0">
      <g id="1625348338071" inkscape:groupmode="layer" transform="matrix(1,0,0,1,0,0)" style="opacity:1.0">
        <path transform="matrix(1,0,0,1,0,0)" d="M 90.0 146.0 L 90.0 145.0 L 89.0 145.0 L 88.0 145.0 L 87.0 145.0 L 86.0 145.0 L 85.0 145.0 L 83.0 146.0 L 80.0 147.0 L 75.0 149.0 L 71.0 152.0 L 67.0 155.0 L 62.0 158.0 L 57.0 163.0 L 49.0 170.0 L 42.0 178.0 L 37.0 187.0 L 33.0 194.0 L 30.0 201.0 L 30.0 207.0 L 31.0 210.0 L 33.0 213.0 L 34.0 214.0 L 36.0 215.0 L 37.0 215.0 L 39.0 215.0 L 41.0 215.0 L 44.0 214.0 L 47.0 212.0 L 52.0 209.0 L 56.0 206.0 L 61.0 201.0 L 66.0 196.0 L 71.0 191.0 L 75.0 186.0 L 79.0 180.0 L 83.0 175.0 L 85.0 169.0 L 88.0 165.0 L 90.0 161.0 L 92.0 158.0 L 93.0 157.0 L 94.0 155.0 L 94.0 154.0 L 93.0 154.0 L 93.0 155.0 L 92.0 157.0 L 91.0 160.0 L 90.0 166.0 L 88.0 177.0 L 86.0 189.0 L 84.0 203.0 L 81.0 222.0 L 79.0 237.0 L 77.0 250.0 L 76.0 261.0 L 75.0 271.0 L 75.0 280.0 L 74.0 288.0 L 74.0 293.0 L 74.0 298.0 L 74.0 300.0 L 75.0 302.0 L 75.0 304.0 L 75.0 306.0 L 76.0 308.0 L 77.0 309.0 L 79.0 311.0 L 81.0 313.0" scribmaster:penstyle="draw" style="stroke:#000000;stroke-width:5.0;stroke-linejoin:round;stroke-linecap:round;stroke-opacity:1.0;fill:none"/>
      </g>
    </g>
  </g>
</svg>
