<?xml version='1.0' encoding='ASCII' standalone='yes'?>
<svg width = "6in" height = "4in" xmlns="http://www.w3.org/2000/svg" xmlns:xlink="http://www.w3.org/1999/xlink" version="1.1">
  <g transform="translate(0.5817946504483253, 0) scale(1 1) translate(0.814537017743164, 0) scale(1 1) translate(1.0473038956930552, 0) scale(1 1) translate(0, 0) scale(0.1 0.1)  skewX(-1.000000) skewX(-0.777778) skewX(-0.555556)">
    <sodipodi:namedview xmlns:sodipodi="http://sodipodi.sourceforge.net/DTD/sodipodi-0.dtd" id="ScribMaster"/>
    <filter id="blur">
      <feGaussianBlur stdDeviation="5.0"/>
    </filter>
    <defs/>
    <g xmlns:inkscape="http://www.inkscape.org/namespaces/inkscape" xmlns:scribmaster="http://scribmaster.com/scribmaster" id="1625349166961" transform="matrix(1,0,0,1,0,0)" style="opacity:1.0">
      <g id="1625348338071" inkscape:groupmode="layer" transform="matrix(1,0,0,1,0,0)" style="opacity:1.0">
        <path transform="matrix(1,0,0,1,0,0)" d="M 93.0 151.0 L 90.0 149.0 L 89.0 149.0 L 87.0 149.0 L 86.0 150.0 L 83.0 152.0 L 78.0 155.0 L 73.0 159.0 L 68.0 164.0 L 62.0 171.0 L 56.0 180.0 L 51.0 188.0 L 47.0 196.0 L 44.0 204.0 L 42.0 211.0 L 41.0 218.0 L 41.0 224.0 L 41.0 230.0 L 41.0 233.0 L 43.0 234.0 L 44.0 234.0 L 45.0 233.0 L 48.0 231.0 L 52.0 227.0 L 59.0 221.0 L 66.0 212.0 L 73.0 203.0 L 80.0 193.0 L 85.0 184.0 L 90.0 176.0 L 94.0 169.0 L 96.0 163.0 L 99.0 158.0 L 100.0 155.0 L 101.0 154.0 L 101.0 153.0 L 101.0 154.0 L 101.0 155.0 L 101.0 156.0 L 100.0 160.0 L 99.0 167.0 L 97.0 181.0 L 94.0 200.0 L 90.0 229.0 L 89.0 249.0 L 87.0 264.0 L 85.0 278.0 L 85.0 289.0 L 85.0 299.0 L 83.0 308.0 L 83.0 315.0 L 83.0 323.0 L 85.0 330.0 L 90.0 334.0" scribmaster:penstyle="draw" style="stroke:#000000;stroke-width:5.0;stroke-linejoin:round;stroke-linecap:round;stroke-opacity:1.0;fill:none"/>
      </g>
    </g>
  </g>
</svg>
