<?xml version='1.0' encoding='ASCII' standalone='yes'?>
<svg width = "6in" height = "4in" xmlns="http://www.w3.org/2000/svg" xmlns:xlink="http://www.w3.org/1999/xlink" version="1.1">
  <g transform="translate(0.34906978865732075, 0) scale(1 1) translate(0.5817946504483253, 0) scale(1 1) translate(0.814537017743164, 0) scale(1 1) translate(1.0473038956930552, 0) scale(1 1) translate(0, 0) scale(0.1 0.1)  skewX(-1.000000) skewX(-0.777778) skewX(-0.555556) skewX(-0.333333)">
    <sodipodi:namedview xmlns:sodipodi="http://sodipodi.sourceforge.net/DTD/sodipodi-0.dtd" id="ScribMaster"/>
    <filter id="blur">
      <feGaussianBlur stdDeviation="5.0"/>
    </filter>
    <defs/>
    <g xmlns:inkscape="http://www.inkscape.org/namespaces/inkscape" xmlns:scribmaster="http://scribmaster.com/scribmaster" id="1627851423607" transform="matrix(1.032782,0,0,1.032782,-14.899414,-13.325867)" style="opacity:1.0">
      <g id="1627851273342" inkscape:groupmode="layer" transform="matrix(1,0,0,1,0,0)" style="opacity:1.0">
        <path transform="matrix(1,0,0,1,0,0)" d="M 793.0 698.0 L 793.0 698.01" scribmaster:penstyle="draw" style="stroke:#000000;stroke-width:5.0;stroke-linejoin:round;stroke-linecap:round;stroke-opacity:1.0;fill:none"/>
        <path transform="matrix(1,0,0,1,0,0)" d="M 112.2206 147.49081 L 111.25234 144.58604 L 110.28408 143.61778 L 110.28408 142.64952 L 109.31582 141.68126 L 108.347565 140.71301 L 107.3793 139.74475 L 105.44279 137.80824 L 104.474525 136.83998 L 101.569756 134.90346 L 99.63324 133.9352 L 96.72846 131.99869 L 92.85542 131.03043 L 89.95065 131.03043 L 87.045876 131.03043 L 83.172844 131.99869 L 79.299805 134.90346 L 75.42677 139.74475 L 70.58548 147.49081 L 66.71245 159.10992 L 63.80767 171.69728 L 62.839417 186.22116 L 63.80767 198.80852 L 67.6807 209.45937 L 72.521996 218.17369 L 79.299805 223.98325 L 88.01414 227.85628 L 95.7602 228.82454 L 104.474525 228.82454 L 112.2206 225.91975 L 120.93492 222.04672 L 128.681 218.17369 L 136.42706 212.36414 L 142.23662 207.52284 L 147.07791 202.68155 L 149.98268 200.74504" scribmaster:penstyle="draw" style="stroke:#000000;stroke-width:5.0;stroke-linejoin:round;stroke-linecap:round;stroke-opacity:1.0;fill:none"/>
      </g>
    </g>
  </g>
</svg>
