<?xml version='1.0' encoding='ASCII' standalone='yes'?>
<svg width = "6in" height = "4in" xmlns="http://www.w3.org/2000/svg" xmlns:xlink="http://www.w3.org/1999/xlink" version="1.1">
  <g transform="translate(-0.1163554293259576, 0) scale(1 1) translate(0.1163554293259576, 0) scale(1 1) translate(0.34906978865732075, 0) scale(1 1) translate(0.5817946504483253, 0) scale(1 1) translate(0.814537017743164, 0) scale(1 1) translate(1.0473038956930552, 0) scale(1 1) translate(0, 0) scale(0.1 0.1)  skewX(-1.000000) skewX(-0.777778) skewX(-0.555556) skewX(-0.333333) skewX(-0.111111) skewX(0.111111)">
    <sodipodi:namedview xmlns:sodipodi="http://sodipodi.sourceforge.net/DTD/sodipodi-0.dtd" id="ScribMaster"/>
    <filter id="blur">
      <feGaussianBlur stdDeviation="5.0"/>
    </filter>
    <defs/>
    <g xmlns:inkscape="http://www.inkscape.org/namespaces/inkscape" xmlns:scribmaster="http://scribmaster.com/scribmaster" id="1627851398251" transform="matrix(1.032782,0,0,1.032782,-14.899414,-13.325867)" style="opacity:1.0">
      <g id="1627851273342" inkscape:groupmode="layer" transform="matrix(1,0,0,1,0,0)" style="opacity:1.0">
        <path transform="matrix(1,0,0,1,0,0)" d="M 793.0 698.0 L 793.0 698.01" scribmaster:penstyle="draw" style="stroke:#000000;stroke-width:5.0;stroke-linejoin:round;stroke-linecap:round;stroke-opacity:1.0;fill:none"/>
        <path transform="matrix(1,0,0,1,0,0)" d="M 125.776215 148.45908 L 125.776215 147.49081 L 125.776215 146.52255 L 125.776215 145.5543 L 125.776215 144.58604 L 124.80796 143.61778 L 124.80796 142.64952 L 124.80796 141.68126 L 123.8397 140.71301 L 122.871445 139.74475 L 121.90318 137.80824 L 120.93492 136.83998 L 119.96667 135.87172 L 118.03015 134.90346 L 116.093636 133.9352 L 113.18886 132.96695 L 109.31582 132.96695 L 105.44279 132.96695 L 100.601494 134.90346 L 94.79195 137.80824 L 88.98239 142.64952 L 82.20458 150.3956 L 77.36329 161.04643 L 72.521996 173.6338 L 69.617226 188.15768 L 70.58548 199.77678 L 73.49026 208.4911 L 77.36329 215.26892 L 84.1411 220.11021 L 91.88717 222.04672 L 98.66498 222.04672 L 105.44279 221.07846 L 110.28408 219.14195 L 116.093636 217.20543 L 122.871445 214.30066 L 128.681 211.39589 L 133.5223 208.4911 L 137.39532 205.58633" scribmaster:penstyle="draw" style="stroke:#000000;stroke-width:5.0;stroke-linejoin:round;stroke-linecap:round;stroke-opacity:1.0;fill:none"/>
      </g>
    </g>
  </g>
</svg>
