<?xml version='1.0' encoding='ASCII' standalone='yes'?>
<svg width = "6in" height = "4in" xmlns="http://www.w3.org/2000/svg" xmlns:xlink="http://www.w3.org/1999/xlink" version="1.1">
  <g transform="translate(0.814537017743164, 0) scale(1 1) translate(1.0473038956930552, 0) scale(1 1) translate(0, 0) scale(0.1 0.1)  skewX(-1.000000) skewX(-0.777778)">
    <sodipodi:namedview xmlns:sodipodi="http://sodipodi.sourceforge.net/DTD/sodipodi-0.dtd" id="ScribMaster"/>
    <filter id="blur">
      <feGaussianBlur stdDeviation="5.0"/>
    </filter>
    <defs/>
    <g xmlns:inkscape="http://www.inkscape.org/namespaces/inkscape" xmlns:scribmaster="http://scribmaster.com/scribmaster" id="1627854224703" transform="matrix(1.041329,0,0,1.041329,-16.413086,-15.68722)" style="opacity:1.0">
      <g id="1627851273342" inkscape:groupmode="layer" transform="matrix(1,0,0,1,0,0)" style="opacity:1.0">
        <path transform="matrix(1,0,0,1,0,0)" d="M 132.91962 94.77043 L 130.999 93.81012 L 130.03868 93.81012 L 129.07837 92.84981 L 128.11806 92.84981 L 127.157745 91.889496 L 126.19743 90.929184 L 124.27682 89.96887 L 122.35619 89.96887 L 120.43557 89.00857 L 117.554634 89.00857 L 113.713394 89.00857 L 110.83246 89.96887 L 106.03091 92.84981 L 99.30872 95.73074 L 91.626236 102.45292 L 84.90406 109.175095 L 78.181885 116.85758 L 73.38033 126.46069 L 69.539085 137.98442 L 65.697845 153.3494 L 63.77722 168.71437 L 63.77722 185.99997 L 66.65815 199.44434 L 71.45971 209.04744 L 77.22157 215.76962 L 82.98344 219.61086 L 88.74531 223.4521 L 93.54686 225.37273 L 97.38811 226.33304 L 101.22935 226.33304 L 104.11028 226.33304 L 107.95153 225.37273 L 110.83246 224.41241 L 114.673706 223.4521 L 117.554634 221.53148 L 121.39588 220.57117 L 124.27682 217.69023 L 128.11806 215.76962 L 130.999 212.88869 L 134.84024 210.00775 L 136.76086 208.08713 L 138.68149 206.1665 L 140.60211 205.20619 L 140.60211 203.28557 L 142.52274 202.32526 L 143.48303 201.36494 L 143.48303 200.40463 L 144.44336 199.44434 L 144.44336 197.52371 L 144.44336 196.5634 L 144.44336 195.60309 L 144.44336 194.64278 L 143.48303 193.68246 L 142.52274 193.68246 L 141.56242 192.72215 L 140.60211 192.72215 L 138.68149 192.72215 L 136.76086 192.72215 L 134.84024 192.72215 L 131.9593 192.72215 L 129.07837 191.76184 L 126.19743 191.76184 L 123.316505 191.76184 L 120.43557 191.76184 L 117.554634 191.76184 L 115.63402 192.72215 L 114.673706 192.72215 L 112.75308 192.72215 L 111.79277 192.72215 L 111.79277 193.68246" scribmaster:penstyle="draw" style="stroke:#000000;stroke-width:5.0;stroke-linejoin:round;stroke-linecap:round;stroke-opacity:1.0;fill:none"/>
      </g>
    </g>
  </g>
</svg>
