<?xml version='1.0' encoding='ASCII' standalone='yes'?>
<svg width = "6in" height = "4in" xmlns="http://www.w3.org/2000/svg" xmlns:xlink="http://www.w3.org/1999/xlink" version="1.1">
  <g transform="translate(1.0473038956930552, 0) scale(1 1) translate(0, 0) scale(0.1 0.1)  skewX(-1.000000)">
    <sodipodi:namedview xmlns:sodipodi="http://sodipodi.sourceforge.net/DTD/sodipodi-0.dtd" id="ScribMaster"/>
    <filter id="blur">
      <feGaussianBlur stdDeviation="5.0"/>
    </filter>
    <defs/>
    <g xmlns:inkscape="http://www.inkscape.org/namespaces/inkscape" xmlns:scribmaster="http://scribmaster.com/scribmaster" id="1627854205421" transform="matrix(1.041329,0,0,1.041329,-16.413086,-15.68722)" style="opacity:1.0">
      <g id="1627851273342" inkscape:groupmode="layer" transform="matrix(1,0,0,1,0,0)" style="opacity:1.0">
        <path transform="matrix(1,0,0,1,0,0)" d="M 133.87993 98.61167 L 132.91962 97.65137 L 131.9593 96.691055 L 130.999 96.691055 L 130.03868 95.73074 L 128.11806 94.77043 L 126.19743 94.77043 L 125.23713 93.81012 L 121.39588 93.81012 L 117.554634 93.81012 L 112.75308 93.81012 L 107.95153 94.77043 L 102.18966 96.691055 L 96.427795 98.61167 L 89.70562 101.49261 L 82.98344 106.29417 L 77.22157 111.09572 L 71.45971 117.817894 L 64.73753 126.46069 L 58.015354 137.02411 L 53.2138 150.46846 L 50.332867 163.91283 L 49.372555 175.43655 L 51.29318 185.99997 L 53.2138 195.60309 L 56.094734 203.28557 L 59.935978 210.00775 L 65.697845 214.80931 L 71.45971 219.61086 L 76.26126 221.53148 L 80.10251 224.41241 L 83.94375 225.37273 L 87.784996 226.33304 L 90.665924 226.33304 L 93.54686 226.33304 L 97.38811 226.33304 L 101.22935 225.37273 L 105.070595 223.4521 L 108.911835 220.57117 L 111.79277 217.69023 L 115.63402 213.849 L 118.514946 210.00775 L 121.39588 205.20619 L 123.316505 201.36494 L 125.23713 198.48402 L 126.19743 195.60309 L 128.11806 193.68246 L 129.07837 190.80153 L 130.03868 188.8809 L 130.999 186.96028 L 130.999 185.99997 L 131.9593 184.07935 L 131.9593 183.11903 L 132.91962 182.15872 L 132.91962 181.19843 L 132.91962 180.23811 L 132.91962 179.2778 L 131.9593 179.2778 L 130.999 179.2778 L 130.03868 179.2778 L 129.07837 179.2778 L 127.157745 179.2778 L 125.23713 179.2778 L 122.35619 179.2778 L 119.47526 179.2778 L 116.59433 180.23811 L 113.713394 180.23811 L 110.83246 180.23811 L 106.99122 181.19843 L 104.11028 181.19843 L 102.18966 181.19843 L 100.269035 181.19843" scribmaster:penstyle="draw" style="stroke:#000000;stroke-width:5.0;stroke-linejoin:round;stroke-linecap:round;stroke-opacity:1.0;fill:none"/>
      </g>
    </g>
  </g>
</svg>
