<?xml version='1.0' encoding='ASCII' standalone='yes'?>
<svg width = "6in" height = "4in" xmlns="http://www.w3.org/2000/svg" xmlns:xlink="http://www.w3.org/1999/xlink" version="1.1">
  <g transform="translate(-0.581794650448325, 0) scale(1 1) translate(-0.34906978865732063, 0) scale(1 1) translate(-0.1163554293259576, 0) scale(1 1) translate(0.1163554293259576, 0) scale(1 1) translate(0.34906978865732075, 0) scale(1 1) translate(0.5817946504483253, 0) scale(1 1) translate(0.814537017743164, 0) scale(1 1) translate(1.0473038956930552, 0) scale(1 1) translate(0, 0) scale(0.1 0.1)  skewX(-1.000000) skewX(-0.777778) skewX(-0.555556) skewX(-0.333333) skewX(-0.111111) skewX(0.111111) skewX(0.333333) skewX(0.555556)">
    <sodipodi:namedview xmlns:sodipodi="http://sodipodi.sourceforge.net/DTD/sodipodi-0.dtd" id="ScribMaster"/>
    <filter id="blur">
      <feGaussianBlur stdDeviation="5.0"/>
    </filter>
    <defs/>
    <g xmlns:inkscape="http://www.inkscape.org/namespaces/inkscape" xmlns:scribmaster="http://scribmaster.com/scribmaster" id="1625372087288" transform="matrix(1,0,0,1,-1.316833,-1.489594)" style="opacity:1.0">
      <g id="1625348338071" inkscape:groupmode="layer" transform="matrix(1,0,0,1,0,0)" style="opacity:1.0">
        <path transform="matrix(1,0,0,1,0,0)" d="M 40.316833 49.489594 L 40.316833 51.489594 L 40.316833 54.489594 L 40.316833 59.489594 L 40.316833 66.48959 L 39.316833 75.48959 L 37.316833 98.48959 L 32.316833 120.48959 L 28.316833 145.4896 L 25.316833 167.4896 L 24.316833 183.4896 L 23.316833 199.4896 L 22.316833 210.4896 L 21.316833 219.4896 L 21.316833 225.4896 L 20.316833 230.4896 L 20.316833 233.4896 L 20.316833 234.4896 L 20.316833 236.4896 L 20.316833 237.4896 L 21.316833 237.4896" scribmaster:penstyle="draw" style="stroke:#000000;stroke-width:5.0;stroke-linejoin:round;stroke-linecap:round;stroke-opacity:1.0;fill:none"/>
        <path transform="matrix(1,0,0,1,0,0)" d="M 111.31683 104.48959 L 108.31683 106.48959 L 106.31683 109.48959 L 103.31683 112.48959 L 99.31683 116.48959 L 95.31683 121.48959 L 90.31683 126.48959 L 85.31683 131.4896 L 79.31683 138.4896 L 73.31683 144.4896 L 68.31683 150.4896 L 64.31683 156.4896 L 60.316833 160.4896 L 58.316833 164.4896 L 56.316833 167.4896 L 55.316833 169.4896 L 55.316833 170.4896 L 55.316833 171.4896 L 55.316833 172.4896 L 55.316833 173.4896" scribmaster:penstyle="draw" style="stroke:#000000;stroke-width:5.0;stroke-linejoin:round;stroke-linecap:round;stroke-opacity:1.0;fill:none"/>
        <path transform="matrix(1,0,0,1,0,0)" d="M 27.316833 162.4896 L 28.316833 162.4896 L 29.316833 162.4896 L 31.316833 164.4896 L 34.316833 166.4896 L 39.316833 171.4896 L 45.316833 181.4896 L 54.316833 192.4896 L 63.316833 204.4896 L 73.31683 214.4896 L 81.31683 221.4896 L 90.31683 226.4896" scribmaster:penstyle="draw" style="stroke:#000000;stroke-width:5.0;stroke-linejoin:round;stroke-linecap:round;stroke-opacity:1.0;fill:none"/>
      </g>
    </g>
  </g>
</svg>
