<?xml version='1.0' encoding='ASCII' standalone='yes'?>
<svg width = "6in" height = "4in" xmlns="http://www.w3.org/2000/svg" xmlns:xlink="http://www.w3.org/1999/xlink" version="1.1">
  <g transform="translate(1.0473038956930552, 0) scale(1 1) translate(0, 0) scale(0.1 0.1)  skewX(-1.000000)">
    <sodipodi:namedview xmlns:sodipodi="http://sodipodi.sourceforge.net/DTD/sodipodi-0.dtd" id="ScribMaster"/>
    <filter id="blur">
      <feGaussianBlur stdDeviation="5.0"/>
    </filter>
    <defs/>
    <g xmlns:inkscape="http://www.inkscape.org/namespaces/inkscape" xmlns:scribmaster="http://scribmaster.com/scribmaster" id="1627855118958" transform="matrix(1.041329,0,0,1.041329,-16.413086,-15.68722)" style="opacity:1.0">
      <g id="1627851273342" inkscape:groupmode="layer" transform="matrix(1,0,0,1,0,0)" style="opacity:1.0">
        <path transform="matrix(1,0,0,1,0,0)" d="M 53.2138 80.36577 L 52.25349 79.40546 L 52.25349 80.36577 L 53.2138 80.36577 L 54.17411 80.36577 L 55.134422 80.36577 L 56.094734 80.36577 L 57.055046 80.36577 L 58.975666 80.36577 L 61.8566 80.36577 L 65.697845 81.32607 L 69.539085 81.32607 L 74.340645 81.32607 L 80.10251 81.32607 L 84.90406 81.32607 L 90.665924 81.32607 L 95.46748 81.32607 L 101.22935 81.32607 L 106.03091 80.36577 L 111.79277 80.36577 L 116.59433 80.36577 L 121.39588 79.40546 L 126.19743 79.40546 L 130.999 79.40546 L 135.80055 79.40546 L 139.6418 79.40546 L 143.48303 79.40546 L 146.36398 79.40546 L 150.20522 79.40546 L 152.12584 79.40546 L 154.04646 79.40546 L 155.96709 79.40546 L 157.88771 79.40546 L 159.80833 79.40546 L 160.76865 78.445145 L 161.72896 78.445145 L 162.68927 78.445145 L 164.6099 78.445145 L 165.57019 78.445145 L 166.5305 78.445145 L 166.5305 79.40546 L 165.57019 79.40546 L 165.57019 80.36577 L 164.6099 81.32607 L 163.64958 82.286385 L 162.68927 84.20701 L 160.76865 85.16732 L 159.80833 87.087944 L 156.9274 89.96887 L 154.04646 91.889496 L 150.20522 95.73074 L 145.40367 100.532295 L 141.56242 106.29417 L 136.76086 111.09572 L 130.999 117.817894 L 125.23713 123.579765 L 119.47526 128.38132 L 114.673706 133.18288 L 109.87215 137.98442 L 105.070595 142.78598 L 101.22935 147.58752 L 96.427795 152.38908 L 92.58655 157.19064 L 88.74531 161.03189 L 84.90406 165.83344 L 81.06282 169.67468 L 77.22157 173.51593 L 73.38033 177.35718 L 71.45971 180.23811 L 68.57877 183.11903 L 67.61846 185.03966 L 65.697845 186.96028 L 63.77722 188.8809 L 62.81691 190.80153 L 61.8566 192.72215 L 60.89629 194.64278 L 58.975666 196.5634 L 58.975666 198.48402 L 58.015354 200.40463 L 58.015354 201.36494 L 57.055046 202.32526 L 57.055046 203.28557 L 56.094734 204.24588 L 56.094734 205.20619 L 56.094734 206.1665 L 55.134422 207.12682 L 55.134422 208.08713 L 55.134422 209.04744 L 55.134422 210.00775 L 54.17411 210.96806 L 54.17411 211.92838 L 54.17411 212.88869 L 55.134422 212.88869 L 55.134422 213.849 L 56.094734 213.849 L 57.055046 213.849 L 58.975666 213.849 L 60.89629 213.849 L 64.73753 213.849 L 67.61846 213.849 L 71.45971 213.849 L 75.30095 213.849 L 80.10251 213.849 L 85.86437 213.849 L 92.58655 213.849 L 99.30872 213.849 L 106.99122 213.849 L 114.673706 213.849 L 123.316505 212.88869 L 130.999 212.88869 L 138.68149 211.92838 L 145.40367 211.92838 L 152.12584 211.92838 L 158.84802 211.92838 L 165.57019 211.92838 L 171.33206 211.92838 L 176.13362 211.92838 L 180.93518 211.92838 L 183.8161 211.92838 L 186.69704 211.92838 L 188.61766 211.92838 L 189.57797 211.92838 L 191.4986 211.92838 L 192.45891 212.88869" scribmaster:penstyle="draw" style="stroke:#000000;stroke-width:5.0;stroke-linejoin:round;stroke-linecap:round;stroke-opacity:1.0;fill:none"/>
      </g>
    </g>
  </g>
</svg>
