<?xml version='1.0' encoding='ASCII' standalone='yes'?>
<svg width = "6in" height = "4in" xmlns="http://www.w3.org/2000/svg" xmlns:xlink="http://www.w3.org/1999/xlink" version="1.1">
  <g transform="translate(-0.581794650448325, 0) scale(1 1) translate(-0.34906978865732063, 0) scale(1 1) translate(-0.1163554293259576, 0) scale(1 1) translate(0.1163554293259576, 0) scale(1 1) translate(0.34906978865732075, 0) scale(1 1) translate(0.5817946504483253, 0) scale(1 1) translate(0.814537017743164, 0) scale(1 1) translate(1.0473038956930552, 0) scale(1 1) translate(0, 0) scale(0.1 0.1)  skewX(-1.000000) skewX(-0.777778) skewX(-0.555556) skewX(-0.333333) skewX(-0.111111) skewX(0.111111) skewX(0.333333) skewX(0.555556)">
    <sodipodi:namedview xmlns:sodipodi="http://sodipodi.sourceforge.net/DTD/sodipodi-0.dtd" id="ScribMaster"/>
    <filter id="blur">
      <feGaussianBlur stdDeviation="5.0"/>
    </filter>
    <defs/>
    <g xmlns:inkscape="http://www.inkscape.org/namespaces/inkscape" xmlns:scribmaster="http://scribmaster.com/scribmaster" id="1627855101251" transform="matrix(1.041329,0,0,1.041329,-16.413086,-15.68722)" style="opacity:1.0">
      <g id="1627851273342" inkscape:groupmode="layer" transform="matrix(1,0,0,1,0,0)" style="opacity:1.0">
        <path transform="matrix(1,0,0,1,0,0)" d="M 54.17411 80.36577 L 53.2138 80.36577 L 53.2138 81.32607 L 52.25349 81.32607 L 51.29318 81.32607 L 51.29318 82.286385 L 52.25349 82.286385 L 53.2138 82.286385 L 54.17411 83.2467 L 55.134422 83.2467 L 57.055046 83.2467 L 58.975666 84.20701 L 61.8566 84.20701 L 65.697845 84.20701 L 71.45971 85.16732 L 76.26126 85.16732 L 82.023125 84.20701 L 86.824684 84.20701 L 92.58655 84.20701 L 96.427795 84.20701 L 101.22935 83.2467 L 105.070595 83.2467 L 109.87215 83.2467 L 112.75308 83.2467 L 116.59433 83.2467 L 120.43557 82.286385 L 123.316505 82.286385 L 126.19743 82.286385 L 129.07837 82.286385 L 130.999 82.286385 L 132.91962 82.286385 L 134.84024 82.286385 L 135.80055 82.286385 L 136.76086 82.286385 L 138.68149 82.286385 L 139.6418 82.286385 L 140.60211 82.286385 L 141.56242 82.286385 L 142.52274 82.286385 L 143.48303 82.286385 L 143.48303 83.2467 L 144.44336 83.2467 L 144.44336 84.20701 L 143.48303 85.16732 L 142.52274 85.16732 L 141.56242 86.12763 L 140.60211 87.087944 L 140.60211 88.048256 L 139.6418 89.00857 L 137.72118 90.929184 L 136.76086 92.84981 L 134.84024 94.77043 L 131.9593 97.65137 L 129.07837 100.532295 L 126.19743 105.333855 L 122.35619 110.13541 L 118.514946 113.976654 L 114.673706 118.778206 L 111.79277 123.579765 L 107.95153 127.421005 L 104.11028 131.26225 L 101.22935 136.0638 L 97.38811 139.90504 L 94.50717 144.7066 L 91.626236 149.50815 L 88.74531 153.3494 L 85.86437 157.19064 L 82.98344 161.9922 L 80.10251 164.87312 L 78.181885 168.71437 L 75.30095 172.55562 L 73.38033 175.43655 L 71.45971 178.31749 L 69.539085 180.23811 L 68.57877 182.15872 L 67.61846 185.03966 L 65.697845 186.96028 L 64.73753 188.8809 L 62.81691 191.76184 L 60.89629 193.68246 L 59.935978 196.5634 L 58.015354 198.48402 L 57.055046 200.40463 L 55.134422 202.32526 L 54.17411 204.24588 L 52.25349 205.20619 L 50.332867 207.12682 L 49.372555 208.08713 L 47.451935 210.00775 L 46.491623 210.96806 L 45.53131 210.96806 L 44.571 211.92838 L 43.610687 212.88869 L 42.65038 213.849 L 41.690067 214.80931 L 40.729755 215.76962 L 40.729755 216.72993 L 40.729755 217.69023 L 41.690067 217.69023 L 42.65038 218.65054 L 43.610687 218.65054 L 44.571 218.65054 L 45.53131 219.61086 L 46.491623 219.61086 L 48.412247 219.61086 L 50.332867 219.61086 L 52.25349 220.57117 L 55.134422 220.57117 L 58.015354 220.57117 L 60.89629 220.57117 L 64.73753 220.57117 L 70.4994 220.57117 L 75.30095 219.61086 L 81.06282 219.61086 L 86.824684 219.61086 L 93.54686 219.61086 L 100.269035 219.61086 L 106.99122 219.61086 L 113.713394 219.61086 L 120.43557 218.65054 L 126.19743 218.65054 L 131.9593 218.65054 L 137.72118 218.65054 L 144.44336 217.69023 L 149.2449 217.69023 L 155.00677 216.72993 L 159.80833 215.76962 L 164.6099 215.76962 L 168.45113 215.76962 L 171.33206 215.76962 L 173.25269 214.80931 L 175.17331 214.80931 L 176.13362 214.80931 L 178.05424 214.80931 L 179.01456 214.80931 L 179.01456 215.76962 L 179.97487 215.76962" scribmaster:penstyle="draw" style="stroke:#000000;stroke-width:5.0;stroke-linejoin:round;stroke-linecap:round;stroke-opacity:1.0;fill:none"/>
      </g>
    </g>
  </g>
</svg>
