<?xml version='1.0' encoding='UTF-8' standalone='no' ?><svg xmlns="http://www.w3.org/2000/svg" xmlns:scribmaster="http://scribmaster.com/scribmaster" xmlns:sodipodi="http://sodipodi.sourceforge.net/DTD/sodipodi-0.dtd" xmlns:inkscape="http://www.inkscape.org/namespaces/inkscape" xmlns:xlink="http://www.w3.org/1999/xlink" version="1.2" width="800" height="1014"><sodipodi:namedview id="ScribMaster" /><filter id="blur"><feGaussianBlur stdDeviation="5.0" /></filter><defs /><g id="1627855029992" transform="matrix(1.041329,0,0,1.041329,-16.413086,-15.68722)" style="opacity:1.0"><g id="1627851273342" inkscape:groupmode="layer" transform="matrix(1,0,0,1,0,0)" style="opacity:1.0"><path transform="matrix(1,0,0,1,0,0)" d="M 161.72896 75.56421 L 159.80833 75.56421 L 159.80833 77.48483 L 157.88771 80.36577 L 156.9274 83.2467 L 153.08615 89.00857 L 148.28459 95.73074 L 141.56242 106.29417 L 132.91962 116.85758 L 124.27682 128.38132 L 114.673706 138.94473 L 106.03091 151.42877 L 97.38811 162.95251 L 89.70562 173.51593 L 82.98344 181.19843 L 76.26126 188.8809 L 71.45971 194.64278 L 67.61846 200.40463 L 63.77722 206.1665 L 60.89629 210.00775 L 59.935978 211.92838 L 58.975666 213.849 L 58.975666 214.80931 L 58.015354 215.76962 L 58.975666 215.76962 L 58.975666 214.80931" scribmaster:penstyle="draw" style="stroke:#000000;stroke-width:5.0;stroke-linejoin:round;stroke-linecap:round;stroke-opacity:1.0;fill:none" /><path transform="matrix(1,0,0,1,0,0)" d="M 55.134422 86.12763 L 55.134422 87.087944 L 56.094734 89.00857 L 57.055046 89.96887 L 57.055046 91.889496 L 58.015354 93.81012 L 58.975666 96.691055 L 60.89629 100.532295 L 62.81691 104.37354 L 65.697845 109.175095 L 69.539085 114.936966 L 73.38033 121.65914 L 78.181885 128.38132 L 83.94375 136.0638 L 89.70562 144.7066 L 95.46748 154.30971 L 102.18966 162.95251 L 108.911835 170.635 L 114.673706 178.31749 L 121.39588 186.96028 L 128.11806 195.60309 L 134.84024 202.32526 L 140.60211 209.04744 L 146.36398 213.849 L 152.12584 218.65054 L 156.9274 222.49179 L 161.72896 225.37273 L 165.57019 228.25366 L 168.45113 229.21397 L 170.37175 231.1346 L 173.25269 232.09491 L 175.17331 233.05522 L 177.09393 234.01553" scribmaster:penstyle="draw" style="stroke:#000000;stroke-width:5.0;stroke-linejoin:round;stroke-linecap:round;stroke-opacity:1.0;fill:none" /></g></g></svg>