<?xml version='1.0' encoding='UTF-8' standalone='no' ?><svg xmlns="http://www.w3.org/2000/svg" xmlns:scribmaster="http://scribmaster.com/scribmaster" xmlns:sodipodi="http://sodipodi.sourceforge.net/DTD/sodipodi-0.dtd" xmlns:inkscape="http://www.inkscape.org/namespaces/inkscape" xmlns:xlink="http://www.w3.org/1999/xlink" version="1.2" width="800" height="1014"><sodipodi:namedview id="ScribMaster" /><filter id="blur"><feGaussianBlur stdDeviation="5.0" /></filter><defs /><g id="1625350243427" transform="matrix(1,0,0,1,-1.316833,-1.489594)" style="opacity:1.0"><g id="1625348338071" inkscape:groupmode="layer" transform="matrix(1,0,0,1,0,0)" style="opacity:1.0"><path transform="matrix(1,0,0,1,0,0)" d="M 58.316833 23.489594 L 57.316833 26.489594 L 57.316833 29.489594 L 56.316833 35.489594 L 56.316833 43.489594 L 55.316833 54.489594 L 54.316833 67.48959 L 52.316833 81.48959 L 51.316833 96.48959 L 51.316833 109.48959 L 50.316833 121.48959 L 49.316833 132.4896 L 48.316833 144.4896 L 48.316833 155.4896 L 47.316833 165.4896 L 46.316833 173.4896 L 46.316833 180.4896 L 45.316833 187.4896 L 45.316833 194.4896 L 45.316833 200.4896 L 45.316833 204.4896 L 45.316833 208.4896 L 45.316833 210.4896 L 44.316833 212.4896 L 44.316833 213.4896 L 44.316833 215.4896 L 44.316833 217.4896 L 44.316833 219.4896 L 43.316833 220.4896 L 43.316833 222.4896 L 43.316833 223.4896 L 42.316833 224.4896 L 42.316833 225.4896 L 42.316833 226.4896 L 43.316833 226.4896 L 44.316833 226.4896 L 45.316833 226.4896 L 49.316833 226.4896 L 54.316833 225.4896 L 61.316833 224.4896 L 70.31683 223.4896 L 81.31683 222.4896 L 91.31683 220.4896 L 102.31683 218.4896 L 112.31683 217.4896" scribmaster:penstyle="draw" style="stroke:#000000;stroke-width:5.0;stroke-linejoin:round;stroke-linecap:round;stroke-opacity:1.0;fill:none" /></g></g></svg>