<?xml version='1.0' encoding='ASCII' standalone='yes'?>
<svg width = "6in" height = "4in" xmlns="http://www.w3.org/2000/svg" xmlns:xlink="http://www.w3.org/1999/xlink" version="1.1">
  <g transform="translate(-0.1163554293259576, 0) scale(1 1) translate(0.1163554293259576, 0) scale(1 1) translate(0.34906978865732075, 0) scale(1 1) translate(0.5817946504483253, 0) scale(1 1) translate(0.814537017743164, 0) scale(1 1) translate(1.0473038956930552, 0) scale(1 1) translate(0, 0) scale(0.1 0.1)  skewX(-1.000000) skewX(-0.777778) skewX(-0.555556) skewX(-0.333333) skewX(-0.111111) skewX(0.111111)">
    <sodipodi:namedview xmlns:sodipodi="http://sodipodi.sourceforge.net/DTD/sodipodi-0.dtd" id="ScribMaster"/>
    <filter id="blur">
      <feGaussianBlur stdDeviation="5.0"/>
    </filter>
    <defs/>
    <g xmlns:inkscape="http://www.inkscape.org/namespaces/inkscape" xmlns:scribmaster="http://scribmaster.com/scribmaster" id="1625351980492" transform="matrix(1,0,0,1,-1.316833,-1.489594)" style="opacity:1.0">
      <g id="1625348338071" inkscape:groupmode="layer" transform="matrix(1,0,0,1,0,0)" style="opacity:1.0">
        <path transform="matrix(1,0,0,1,0,0)" d="M 95.31683 56.489594 L 95.31683 54.489594 L 94.31683 54.489594 L 93.31683 54.489594 L 92.31683 54.489594 L 89.31683 54.489594 L 86.31683 55.489594 L 80.31683 58.489594 L 73.31683 62.489594 L 65.31683 68.48959 L 57.316833 74.48959 L 44.316833 83.48959 L 36.316833 92.48959 L 31.316833 102.48959 L 27.316833 110.48959 L 27.316833 117.48959 L 30.316833 121.48959 L 33.316833 123.48959 L 36.316833 124.48959 L 39.316833 124.48959 L 42.316833 122.48959 L 47.316833 118.48959 L 56.316833 112.48959 L 66.31683 103.48959 L 77.31683 93.48959 L 85.31683 83.48959 L 92.31683 74.48959 L 98.31683 67.48959 L 102.31683 61.489594 L 105.31683 57.489594 L 107.31683 54.489594 L 108.31683 53.489594 L 108.31683 54.489594 L 107.31683 54.489594 L 107.31683 56.489594 L 106.31683 59.489594 L 106.31683 64.48959 L 104.31683 73.48959 L 102.31683 89.48959 L 99.31683 110.48959 L 98.31683 129.4896 L 97.31683 151.4896 L 96.31683 169.4896 L 96.31683 182.4896 L 96.31683 196.4896 L 96.31683 207.4896 L 95.31683 217.4896 L 95.31683 225.4896 L 95.31683 232.4896 L 96.31683 238.4896 L 96.31683 241.4896" scribmaster:penstyle="draw" style="stroke:#000000;stroke-width:5.0;stroke-linejoin:round;stroke-linecap:round;stroke-opacity:1.0;fill:none"/>
      </g>
    </g>
  </g>
</svg>
