<?xml version='1.0' encoding='ASCII' standalone='yes'?>
<svg width = "6in" height = "4in" xmlns="http://www.w3.org/2000/svg" xmlns:xlink="http://www.w3.org/1999/xlink" version="1.1">
  <g transform="translate(0.1163554293259576, 0) scale(1 1) translate(0.34906978865732075, 0) scale(1 1) translate(0.5817946504483253, 0) scale(1 1) translate(0.814537017743164, 0) scale(1 1) translate(1.0473038956930552, 0) scale(1 1) translate(0, 0) scale(0.1 0.1)  skewX(-1.000000) skewX(-0.777778) skewX(-0.555556) skewX(-0.333333) skewX(-0.111111)">
    <sodipodi:namedview xmlns:sodipodi="http://sodipodi.sourceforge.net/DTD/sodipodi-0.dtd" id="ScribMaster"/>
    <filter id="blur">
      <feGaussianBlur stdDeviation="5.0"/>
    </filter>
    <defs/>
    <g xmlns:inkscape="http://www.inkscape.org/namespaces/inkscape" xmlns:scribmaster="http://scribmaster.com/scribmaster" id="1625352010859" transform="matrix(1,0,0,1,-1.316833,-1.489594)" style="opacity:1.0">
      <g id="1625348338071" inkscape:groupmode="layer" transform="matrix(1,0,0,1,0,0)" style="opacity:1.0">
        <path transform="matrix(1,0,0,1,0,0)" d="M 101.31683 52.489594 L 101.31683 50.489594 L 100.31683 50.489594 L 99.31683 50.489594 L 97.31683 50.489594 L 95.31683 51.489594 L 91.31683 52.489594 L 87.31683 54.489594 L 81.31683 58.489594 L 75.31683 62.489594 L 68.31683 67.48959 L 61.316833 73.48959 L 51.316833 80.48959 L 43.316833 88.48959 L 37.316833 96.48959 L 34.316833 104.48959 L 32.316833 110.48959 L 31.316833 117.48959 L 33.316833 122.48959 L 35.316833 126.48959 L 37.316833 128.4896 L 40.316833 130.4896 L 42.316833 131.4896 L 46.316833 131.4896 L 52.316833 130.4896 L 61.316833 127.48959 L 71.31683 122.48959 L 81.31683 114.48959 L 89.31683 107.48959 L 96.31683 100.48959 L 101.31683 94.48959 L 106.31683 89.48959 L 110.31683 84.48959 L 112.31683 81.48959 L 113.31683 78.48959 L 114.31683 77.48959 L 115.31683 76.48959 L 115.31683 75.48959 L 114.31683 76.48959 L 114.31683 77.48959 L 113.31683 78.48959 L 113.31683 80.48959 L 113.31683 83.48959 L 112.31683 90.48959 L 111.31683 98.48959 L 110.31683 108.48959 L 109.31683 120.48959 L 107.31683 134.4896 L 106.31683 148.4896 L 104.31683 161.4896 L 104.31683 173.4896 L 104.31683 184.4896 L 104.31683 194.4896 L 104.31683 203.4896 L 103.31683 211.4896 L 104.31683 218.4896 L 104.31683 225.4896 L 104.31683 231.4896 L 103.31683 237.4896 L 103.31683 240.4896 L 103.31683 243.4896 L 104.31683 243.4896" scribmaster:penstyle="draw" style="stroke:#000000;stroke-width:5.0;stroke-linejoin:round;stroke-linecap:round;stroke-opacity:1.0;fill:none"/>
      </g>
    </g>
  </g>
</svg>
