<?xml version='1.0' encoding='ASCII' standalone='yes'?>
<svg width = "6in" height = "4in" xmlns="http://www.w3.org/2000/svg" xmlns:xlink="http://www.w3.org/1999/xlink" version="1.1">
  <g transform="translate(-1.0473038956930552, 0) scale(1 1) translate(-0.8145370177431639, 0) scale(1 1) translate(-0.581794650448325, 0) scale(1 1) translate(-0.34906978865732063, 0) scale(1 1) translate(-0.1163554293259576, 0) scale(1 1) translate(0.1163554293259576, 0) scale(1 1) translate(0.34906978865732075, 0) scale(1 1) translate(0.5817946504483253, 0) scale(1 1) translate(0.814537017743164, 0) scale(1 1) translate(1.0473038956930552, 0) scale(1 1) translate(0, 0) scale(0.1 0.1)  skewX(-1.000000) skewX(-0.777778) skewX(-0.555556) skewX(-0.333333) skewX(-0.111111) skewX(0.111111) skewX(0.333333) skewX(0.555556) skewX(0.777778) skewX(1.000000)">
    <sodipodi:namedview xmlns:sodipodi="http://sodipodi.sourceforge.net/DTD/sodipodi-0.dtd" id="ScribMaster"/>
    <filter id="blur">
      <feGaussianBlur stdDeviation="5.0"/>
    </filter>
    <defs/>
    <g xmlns:inkscape="http://www.inkscape.org/namespaces/inkscape" xmlns:scribmaster="http://scribmaster.com/scribmaster" id="1627852842998" transform="matrix(1.032782,0,0,1.032782,-14.899414,-13.325867)" style="opacity:1.0">
      <g id="1627851273342" inkscape:groupmode="layer" transform="matrix(1,0,0,1,0,0)" style="opacity:1.0">
        <path transform="matrix(1,0,0,1,0,0)" d="M 90.91891 134.90346 L 89.95065 133.9352 L 88.98239 133.9352 L 88.98239 132.96695 L 88.01414 131.99869 L 88.01414 131.03043 L 87.045876 131.03043 L 87.045876 130.06216 L 87.045876 129.0939 L 87.045876 130.06216 L 87.045876 132.96695 L 88.01414 135.87172 L 88.01414 140.71301 L 88.98239 147.49081 L 89.95065 158.14166 L 89.95065 170.72902 L 89.95065 183.31639 L 90.91891 194.93549 L 91.88717 203.64981 L 91.88717 211.39589 L 91.88717 218.17369 L 92.85542 223.01498 L 92.85542 225.91975 L 93.823685 228.82454 L 92.85542 229.7928 L 92.85542 230.76105 L 91.88717 231.72931 L 91.88717 232.69757" scribmaster:penstyle="draw" style="stroke:#000000;stroke-width:5.0;stroke-linejoin:round;stroke-linecap:round;stroke-opacity:1.0;fill:none"/>
        <path transform="matrix(1,0,0,1,0,0)" d="M 58.966377 168.79251 L 60.902893 168.79251 L 64.77593 168.79251 L 69.617226 169.76076 L 76.395035 170.72902 L 85.10936 170.72902 L 93.823685 170.72902 L 101.569756 171.69728 L 109.31582 171.69728 L 116.093636 171.69728 L 122.871445 172.66554 L 128.681 173.6338" scribmaster:penstyle="draw" style="stroke:#000000;stroke-width:5.0;stroke-linejoin:round;stroke-linecap:round;stroke-opacity:1.0;fill:none"/>
      </g>
    </g>
  </g>
</svg>
