<?xml version='1.0' encoding='ASCII' standalone='yes'?>
<svg width = "6in" height = "4in" xmlns="http://www.w3.org/2000/svg" xmlns:xlink="http://www.w3.org/1999/xlink" version="1.1">
  <g transform="translate(-1.0473038956930552, 0) scale(1 1) translate(-0.8145370177431639, 0) scale(1 1) translate(-0.581794650448325, 0) scale(1 1) translate(-0.34906978865732063, 0) scale(1 1) translate(-0.1163554293259576, 0) scale(1 1) translate(0.1163554293259576, 0) scale(1 1) translate(0.34906978865732075, 0) scale(1 1) translate(0.5817946504483253, 0) scale(1 1) translate(0.814537017743164, 0) scale(1 1) translate(1.0473038956930552, 0) scale(1 1) translate(0, 0) scale(0.1 0.1)  skewX(-1.000000) skewX(-0.777778) skewX(-0.555556) skewX(-0.333333) skewX(-0.111111) skewX(0.111111) skewX(0.333333) skewX(0.555556) skewX(0.777778) skewX(1.000000)">
    <sodipodi:namedview xmlns:sodipodi="http://sodipodi.sourceforge.net/DTD/sodipodi-0.dtd" id="ScribMaster"/>
    <filter id="blur">
      <feGaussianBlur stdDeviation="5.0"/>
    </filter>
    <defs/>
    <g xmlns:inkscape="http://www.inkscape.org/namespaces/inkscape" xmlns:scribmaster="http://scribmaster.com/scribmaster" id="1627852852961" transform="matrix(1.032782,0,0,1.032782,-14.899414,-13.325867)" style="opacity:1.0">
      <g id="1627851273342" inkscape:groupmode="layer" transform="matrix(1,0,0,1,0,0)" style="opacity:1.0">
        <path transform="matrix(1,0,0,1,0,0)" d="M 73.49026 128.12566 L 72.521996 128.12566 L 72.521996 130.06216 L 72.521996 132.96695 L 73.49026 140.71301 L 74.45852 151.36385 L 74.45852 163.95122 L 75.42677 180.4116 L 75.42677 192.99896 L 76.395035 204.61807 L 76.395035 213.3324 L 77.36329 220.11021 L 78.33155 226.88802 L 78.33155 230.76105 L 79.299805 233.66583 L 79.299805 234.6341 L 80.26807 235.60234 L 79.299805 235.60234 L 79.299805 234.6341" scribmaster:penstyle="draw" style="stroke:#000000;stroke-width:5.0;stroke-linejoin:round;stroke-linecap:round;stroke-opacity:1.0;fill:none"/>
        <path transform="matrix(1,0,0,1,0,0)" d="M 48.315536 182.34813 L 49.28379 181.37987 L 50.252052 181.37987 L 52.18857 181.37987 L 54.125084 182.34813 L 57.02986 182.34813 L 59.93464 183.31639 L 65.74419 184.28464 L 72.521996 185.2529 L 79.299805 186.22116 L 86.077614 187.18942 L 91.88717 187.18942 L 97.69672 188.15768 L 101.569756 189.12593" scribmaster:penstyle="draw" style="stroke:#000000;stroke-width:5.0;stroke-linejoin:round;stroke-linecap:round;stroke-opacity:1.0;fill:none"/>
      </g>
    </g>
  </g>
</svg>
