<?xml version='1.0' encoding='ASCII' standalone='yes'?>
<svg width = "6in" height = "4in" xmlns="http://www.w3.org/2000/svg" xmlns:xlink="http://www.w3.org/1999/xlink" version="1.1">
  <g transform="translate(1.0473038956930552, 0) scale(1 1) translate(0, 0) scale(0.1 0.1)  skewX(-1.000000)">
    <sodipodi:namedview xmlns:sodipodi="http://sodipodi.sourceforge.net/DTD/sodipodi-0.dtd" id="ScribMaster"/>
    <filter id="blur">
      <feGaussianBlur stdDeviation="5.0"/>
    </filter>
    <defs/>
    <g xmlns:inkscape="http://www.inkscape.org/namespaces/inkscape" xmlns:scribmaster="http://scribmaster.com/scribmaster" id="1627853042817" transform="matrix(1.032782,0,0,1.032782,-14.899414,-13.325867)" style="opacity:1.0">
      <g id="1627851273342" inkscape:groupmode="layer" transform="matrix(1,0,0,1,0,0)" style="opacity:1.0">
        <path transform="matrix(1,0,0,1,0,0)" d="M 64.77593 141.68126 L 64.77593 140.71301 L 64.77593 142.64952 L 65.74419 145.5543 L 65.74419 149.42734 L 66.71245 152.3321 L 67.6807 158.14166 L 69.617226 164.91946 L 70.58548 172.66554 L 72.521996 181.37987 L 74.45852 189.12593 L 76.395035 195.90375 L 78.33155 201.7133 L 80.26807 207.52284 L 81.23632 212.36414 L 83.172844 216.23718 L 85.10936 219.14195 L 86.077614 221.07846 L 87.045876 223.01498 L 88.01414 223.98325 L 88.98239 223.98325 L 89.95065 223.98325 L 90.91891 223.98325 L 91.88717 223.01498 L 92.85542 222.04672 L 93.823685 221.07846 L 94.79195 219.14195 L 96.72846 217.20543 L 98.66498 214.30066 L 100.601494 211.39589 L 101.569756 208.4911 L 103.50627 205.58633 L 105.44279 202.68155 L 106.41105 199.77678 L 108.347565 196.87201 L 110.28408 194.93549 L 111.25234 192.99896 L 112.2206 191.06245 L 113.18886 190.0942 L 114.15711 189.12593 L 115.125374 189.12593 L 116.093636 189.12593 L 117.06189 190.0942 L 118.998405 192.99896 L 120.93492 195.90375 L 122.871445 200.74504 L 125.776215 204.61807 L 127.71274 208.4911 L 130.61751 211.39589 L 133.5223 214.30066 L 135.4588 216.23718 L 137.39532 218.17369 L 139.33185 218.17369 L 140.3001 218.17369 L 142.23662 217.20543 L 144.17313 215.26892 L 146.10965 212.36414 L 149.01442 208.4911 L 150.95094 204.61807 L 153.85571 197.84026 L 157.72874 190.0942 L 160.63353 182.34813 L 162.57004 175.57031 L 164.50656 168.79251 L 167.41133 162.98296 L 169.34785 157.1734 L 171.28436 152.3321 L 172.25262 149.42734 L 173.22089 146.52255 L 174.18915 144.58604 L 175.15741 143.61778" scribmaster:penstyle="draw" style="stroke:#000000;stroke-width:5.0;stroke-linejoin:round;stroke-linecap:round;stroke-opacity:1.0;fill:none"/>
      </g>
    </g>
  </g>
</svg>
