<?xml version='1.0' encoding='ASCII' standalone='yes'?>
<svg width = "6in" height = "4in" xmlns="http://www.w3.org/2000/svg" xmlns:xlink="http://www.w3.org/1999/xlink" version="1.1">
  <g transform="translate(-0.34906978865732063, 0) scale(1 1) translate(-0.1163554293259576, 0) scale(1 1) translate(0.1163554293259576, 0) scale(1 1) translate(0.34906978865732075, 0) scale(1 1) translate(0.5817946504483253, 0) scale(1 1) translate(0.814537017743164, 0) scale(1 1) translate(1.0473038956930552, 0) scale(1 1) translate(0, 0) scale(0.1 0.1)  skewX(-1.000000) skewX(-0.777778) skewX(-0.555556) skewX(-0.333333) skewX(-0.111111) skewX(0.111111) skewX(0.333333)">
    <sodipodi:namedview xmlns:sodipodi="http://sodipodi.sourceforge.net/DTD/sodipodi-0.dtd" id="ScribMaster"/>
    <filter id="blur">
      <feGaussianBlur stdDeviation="5.0"/>
    </filter>
    <defs/>
    <g xmlns:inkscape="http://www.inkscape.org/namespaces/inkscape" xmlns:scribmaster="http://scribmaster.com/scribmaster" id="1627853029286" transform="matrix(1.032782,0,0,1.032782,-14.899414,-13.325867)" style="opacity:1.0">
      <g id="1627851273342" inkscape:groupmode="layer" transform="matrix(1,0,0,1,0,0)" style="opacity:1.0">
        <path transform="matrix(1,0,0,1,0,0)" d="M 57.02986 142.64952 L 57.02986 139.74475 L 57.02986 141.68126 L 57.998123 142.64952 L 57.998123 144.58604 L 58.966377 147.49081 L 59.93464 151.36385 L 60.902893 156.20514 L 61.871155 162.0147 L 62.839417 167.82425 L 63.80767 175.57031 L 65.74419 182.34813 L 67.6807 188.15768 L 68.648964 194.93549 L 70.58548 199.77678 L 71.55374 204.61807 L 72.521996 209.45937 L 73.49026 212.36414 L 74.45852 215.26892 L 76.395035 218.17369 L 77.36329 220.11021 L 77.36329 222.04672 L 78.33155 223.01498 L 79.299805 223.98325 L 80.26807 223.98325 L 81.23632 223.98325 L 82.20458 223.01498 L 83.172844 222.04672 L 84.1411 220.11021 L 85.10936 219.14195 L 86.077614 217.20543 L 88.01414 214.30066 L 89.95065 211.39589 L 91.88717 208.4911 L 92.85542 205.58633 L 94.79195 202.68155 L 96.72846 199.77678 L 98.66498 197.84026 L 99.63324 194.93549 L 101.569756 192.99896 L 102.53801 192.03072 L 103.50627 191.06245 L 104.474525 190.0942 L 105.44279 189.12593 L 106.41105 189.12593 L 108.347565 190.0942 L 109.31582 190.0942 L 110.28408 191.06245 L 112.2206 193.96722 L 114.15711 195.90375 L 116.093636 198.80852 L 118.03015 201.7133 L 119.96667 204.61807 L 121.90318 207.52284 L 123.8397 210.42763 L 125.776215 212.36414 L 127.71274 215.26892 L 129.64926 216.23718 L 131.58577 218.17369 L 132.55403 219.14195 L 134.49055 219.14195 L 135.4588 219.14195 L 136.42706 219.14195 L 138.36359 218.17369 L 140.3001 216.23718 L 142.23662 211.39589 L 145.14139 205.58633 L 148.04616 197.84026 L 150.95094 187.18942 L 152.88745 175.57031 L 155.79224 165.88773 L 157.72874 157.1734 L 160.63353 149.42734 L 162.57004 143.61778 L 164.50656 137.80824 L 165.47482 132.96695 L 167.41133 130.06216 L 168.3796 127.157394 L 169.34785 125.22088 L 170.31612 124.25262 L 171.28436 123.28436 L 171.28436 122.3161" scribmaster:penstyle="draw" style="stroke:#000000;stroke-width:5.0;stroke-linejoin:round;stroke-linecap:round;stroke-opacity:1.0;fill:none"/>
      </g>
    </g>
  </g>
</svg>
