<?xml version='1.0' encoding='ASCII' standalone='yes'?>
<svg width = "6in" height = "4in" xmlns="http://www.w3.org/2000/svg" xmlns:xlink="http://www.w3.org/1999/xlink" version="1.1">
  <g transform="translate(1.0473038956930552, 0) scale(1 1) translate(0, 0) scale(0.1 0.1)  skewX(-1.000000)">
    <sodipodi:namedview xmlns:sodipodi="http://sodipodi.sourceforge.net/DTD/sodipodi-0.dtd" id="ScribMaster"/>
    <filter id="blur">
      <feGaussianBlur stdDeviation="5.0"/>
    </filter>
    <defs/>
    <g xmlns:inkscape="http://www.inkscape.org/namespaces/inkscape" xmlns:scribmaster="http://scribmaster.com/scribmaster" id="1627853017243" transform="matrix(1.032782,0,0,1.032782,-14.899414,-13.325867)" style="opacity:1.0">
      <g id="1627851273342" inkscape:groupmode="layer" transform="matrix(1,0,0,1,0,0)" style="opacity:1.0">
        <path transform="matrix(1,0,0,1,0,0)" d="M 63.80767 142.64952 L 62.839417 144.58604 L 62.839417 150.3956 L 63.80767 158.14166 L 65.74419 168.79251 L 68.648964 181.37987 L 70.58548 192.03072 L 72.521996 201.7133 L 74.45852 209.45937 L 77.36329 215.26892 L 78.33155 220.11021 L 80.26807 223.98325 L 81.23632 224.9515 L 82.20458 225.91975 L 84.1411 224.9515 L 85.10936 223.98325 L 87.045876 221.07846 L 88.98239 216.23718 L 91.88717 210.42763 L 94.79195 203.64981 L 96.72846 196.87201 L 99.63324 192.03072 L 101.569756 187.18942 L 102.53801 185.2529 L 103.50627 184.28464 L 105.44279 185.2529 L 106.41105 187.18942 L 107.3793 190.0942 L 109.31582 193.96722 L 112.2206 199.77678 L 116.093636 205.58633 L 118.998405 211.39589 L 121.90318 216.23718 L 124.80796 220.11021 L 127.71274 222.04672 L 130.61751 223.01498 L 132.55403 222.04672 L 134.49055 220.11021 L 138.36359 215.26892 L 143.20486 203.64981 L 149.01442 186.22116 L 154.82397 167.82425 L 158.697 152.3321 L 160.63353 141.68126 L 162.57004 133.9352 L 163.5383 131.03043 L 164.50656 131.03043 L 164.50656 132.96695" scribmaster:penstyle="draw" style="stroke:#000000;stroke-width:5.0;stroke-linejoin:round;stroke-linecap:round;stroke-opacity:1.0;fill:none"/>
      </g>
    </g>
  </g>
</svg>
