<?xml version='1.0' encoding='UTF-8' standalone='no' ?><svg xmlns="http://www.w3.org/2000/svg" xmlns:scribmaster="http://scribmaster.com/scribmaster" xmlns:sodipodi="http://sodipodi.sourceforge.net/DTD/sodipodi-0.dtd" xmlns:inkscape="http://www.inkscape.org/namespaces/inkscape" xmlns:xlink="http://www.w3.org/1999/xlink" version="1.2" width="800" height="1014"><sodipodi:namedview id="ScribMaster" /><filter id="blur"><feGaussianBlur stdDeviation="5.0" /></filter><defs /><g id="1625351522376" transform="matrix(1,0,0,1,-1.316833,-1.489594)" style="opacity:1.0"><g id="1625348338071" inkscape:groupmode="layer" transform="matrix(1,0,0,1,0,0)" style="opacity:1.0"><path transform="matrix(1,0,0,1,0,0)" d="M 124.31683 48.489594 L 124.31683 49.489594 L 123.31683 51.489594 L 122.31683 54.489594 L 120.31683 59.489594 L 117.31683 68.48959 L 111.31683 86.48959 L 103.31683 107.48959 L 93.31683 131.4896 L 81.31683 159.4896 L 72.31683 180.4896 L 63.316833 199.4896 L 55.316833 212.4896 L 48.316833 224.4896 L 43.316833 232.4896 L 38.316833 240.4896 L 32.316833 247.4896 L 27.316833 249.4896 L 30.316833 249.4896" scribmaster:penstyle="draw" style="stroke:#000000;stroke-width:5.0;stroke-linejoin:round;stroke-linecap:round;stroke-opacity:1.0;fill:none" /><path transform="matrix(1,0,0,1,0,0)" d="M 43.316833 66.48959 L 43.316833 64.48959 L 43.316833 63.489594 L 43.316833 62.489594 L 43.316833 61.489594 L 43.316833 60.489594 L 44.316833 60.489594 L 44.316833 64.48959 L 45.316833 70.48959 L 49.316833 83.48959 L 56.316833 104.48959 L 63.316833 125.48959 L 71.31683 149.4896 L 79.31683 166.4896 L 85.31683 179.4896 L 91.31683 190.4896 L 96.31683 199.4896 L 99.31683 205.4896 L 103.31683 210.4896 L 107.31683 214.4896 L 109.31683 216.4896 L 111.31683 219.4896 L 113.31683 220.4896 L 115.31683 222.4896 L 118.31683 223.4896" scribmaster:penstyle="draw" style="stroke:#000000;stroke-width:5.0;stroke-linejoin:round;stroke-linecap:round;stroke-opacity:1.0;fill:none" /></g></g></svg>