<?xml version='1.0' encoding='ASCII' standalone='yes'?>
<svg width = "6in" height = "4in" xmlns="http://www.w3.org/2000/svg" xmlns:xlink="http://www.w3.org/1999/xlink" version="1.1">
  <g transform="translate(1.0473038956930552, 0) scale(1 1) translate(0, 0) scale(0.1 0.1)  skewX(-1.000000)">
    <sodipodi:namedview xmlns:sodipodi="http://sodipodi.sourceforge.net/DTD/sodipodi-0.dtd" id="ScribMaster"/>
    <filter id="blur">
      <feGaussianBlur stdDeviation="5.0"/>
    </filter>
    <defs/>
    <g xmlns:inkscape="http://www.inkscape.org/namespaces/inkscape" xmlns:scribmaster="http://scribmaster.com/scribmaster" id="1627855499634" transform="matrix(1.041329,0,0,1.041329,-16.413086,-18.68722)" style="opacity:1.0">
      <g id="1627851273342" inkscape:groupmode="layer" transform="matrix(1,0,0,1,0,0)" style="opacity:1.0">
        <path transform="matrix(1,0,0,1,0,0)" d="M 62.81691 99.57198 L 63.77722 98.61167 L 64.73753 98.61167 L 66.65815 98.61167 L 68.57877 98.61167 L 70.4994 98.61167 L 73.38033 98.61167 L 77.22157 98.61167 L 81.06282 99.57198 L 83.94375 99.57198 L 87.784996 99.57198 L 91.626236 100.532295 L 94.50717 100.532295 L 98.34842 100.532295 L 101.22935 100.532295 L 104.11028 100.532295 L 106.99122 101.4926 L 108.911835 101.4926 L 111.79277 101.4926 L 112.75308 101.4926 L 114.673706 102.45291 L 116.59433 102.45291 L 117.554634 102.45291 L 118.514946 102.45291 L 119.47526 103.41322 L 120.43557 103.41322 L 121.39588 103.41322 L 122.35619 103.41322 L 122.35619 104.373535 L 123.316505 104.373535 L 123.316505 105.33385 L 123.316505 106.29416 L 122.35619 106.29416 L 122.35619 107.25447 L 121.39588 109.175095 L 121.39588 112.05602 L 119.47526 114.93696 L 116.59433 121.659134 L 112.75308 131.26225 L 106.99122 143.74629 L 101.22935 156.23033 L 95.46748 168.71437 L 90.665924 179.2778 L 87.784996 189.84122 L 84.90406 198.48402 L 82.98344 206.1665 L 82.023125 212.88869 L 80.10251 217.69025 L 80.10251 220.57117 L 80.10251 222.49179 L 80.10251 223.4521 L 81.06282 223.4521" scribmaster:penstyle="draw" style="stroke:#000000;stroke-width:5.0;stroke-linejoin:round;stroke-linecap:round;stroke-opacity:1.0;fill:none"/>
      </g>
    </g>
  </g>
</svg>
