<?xml version='1.0' encoding='ASCII' standalone='yes'?>
<svg width = "6in" height = "4in" xmlns="http://www.w3.org/2000/svg" xmlns:xlink="http://www.w3.org/1999/xlink" version="1.1">
  <g transform="translate(0.5817946504483253, 0) scale(1 1) translate(0.814537017743164, 0) scale(1 1) translate(1.0473038956930552, 0) scale(1 1) translate(0, 0) scale(0.1 0.1)  skewX(-1.000000) skewX(-0.777778) skewX(-0.555556)">
    <sodipodi:namedview xmlns:sodipodi="http://sodipodi.sourceforge.net/DTD/sodipodi-0.dtd" id="ScribMaster"/>
    <filter id="blur">
      <feGaussianBlur stdDeviation="5.0"/>
    </filter>
    <defs/>
    <g xmlns:inkscape="http://www.inkscape.org/namespaces/inkscape" xmlns:scribmaster="http://scribmaster.com/scribmaster" id="1627855484630" transform="matrix(1.041329,0,0,1.041329,-16.413086,-18.68722)" style="opacity:1.0">
      <g id="1627851273342" inkscape:groupmode="layer" transform="matrix(1,0,0,1,0,0)" style="opacity:1.0">
        <path transform="matrix(1,0,0,1,0,0)" d="M 64.73753 99.57198 L 65.697845 98.61167 L 67.61846 97.65136 L 70.4994 97.65136 L 73.38033 97.65136 L 77.22157 98.61167 L 80.10251 98.61167 L 85.86437 99.57198 L 91.626236 99.57198 L 96.427795 100.532295 L 102.18966 100.532295 L 106.99122 101.4926 L 113.713394 101.4926 L 120.43557 101.4926 L 126.19743 101.4926 L 131.9593 100.532295 L 136.76086 100.532295 L 142.52274 100.532295 L 146.36398 99.57198 L 150.20522 99.57198 L 153.08615 99.57198 L 155.00677 99.57198 L 156.9274 99.57198 L 157.88771 99.57198 L 158.84802 99.57198 L 159.80833 100.532295 L 159.80833 101.4926 L 158.84802 102.45291 L 157.88771 104.373535 L 156.9274 107.25447 L 154.04646 111.09571 L 150.20522 118.778206 L 143.48303 129.34163 L 136.76086 141.82567 L 128.11806 159.11127 L 118.514946 176.39687 L 111.79277 190.80153 L 106.99122 203.28557 L 104.11028 212.88869 L 102.18966 220.57117 L 100.269035 227.29335 L 100.269035 231.1346 L 100.269035 234.97585 L 101.22935 236.89647 L 102.18966 237.85677 L 102.18966 238.81708" scribmaster:penstyle="draw" style="stroke:#000000;stroke-width:5.0;stroke-linejoin:round;stroke-linecap:round;stroke-opacity:1.0;fill:none"/>
      </g>
    </g>
  </g>
</svg>
