<?xml version='1.0' encoding='ASCII' standalone='yes'?>
<svg width = "6in" height = "4in" xmlns="http://www.w3.org/2000/svg" xmlns:xlink="http://www.w3.org/1999/xlink" version="1.1">
  <g transform="translate(0.34906978865732075, 0) scale(1 1) translate(0.5817946504483253, 0) scale(1 1) translate(0.814537017743164, 0) scale(1 1) translate(1.0473038956930552, 0) scale(1 1) translate(0, 0) scale(0.1 0.1)  skewX(-1.000000) skewX(-0.777778) skewX(-0.555556) skewX(-0.333333)">
    <sodipodi:namedview xmlns:sodipodi="http://sodipodi.sourceforge.net/DTD/sodipodi-0.dtd" id="ScribMaster"/>
    <filter id="blur">
      <feGaussianBlur stdDeviation="5.0"/>
    </filter>
    <defs/>
    <g xmlns:inkscape="http://www.inkscape.org/namespaces/inkscape" xmlns:scribmaster="http://scribmaster.com/scribmaster" id="1625348752117" transform="matrix(1,0,0,1,0,0)" style="opacity:1.0">
      <g id="1625348338071" inkscape:groupmode="layer" transform="matrix(1,0,0,1,0,0)" style="opacity:1.0">
        <path transform="matrix(1,0,0,1,0,0)" d="M 29.0 15.0 L 29.0 17.0 L 30.0 20.0 L 30.0 24.0 L 30.0 32.0 L 30.0 45.0 L 31.0 62.0 L 31.0 80.0 L 31.0 106.0 L 30.0 126.0 L 29.0 145.0 L 27.0 163.0 L 25.0 178.0 L 23.0 189.0 L 22.0 200.0 L 21.0 208.0 L 21.0 213.0 L 20.0 216.0 L 20.0 217.0 L 21.0 217.0 L 22.0 216.0 L 23.0 214.0 L 25.0 210.0 L 27.0 206.0 L 29.0 201.0 L 32.0 192.0 L 36.0 179.0 L 40.0 168.0 L 43.0 158.0 L 47.0 150.0 L 51.0 143.0 L 55.0 138.0 L 58.0 134.0 L 60.0 132.0 L 62.0 131.0 L 63.0 130.0 L 65.0 130.0 L 66.0 130.0 L 67.0 131.0 L 69.0 132.0 L 70.0 134.0 L 72.0 136.0 L 73.0 139.0 L 75.0 144.0 L 77.0 150.0 L 79.0 157.0 L 80.0 166.0 L 83.0 177.0 L 84.0 187.0 L 86.0 198.0 L 88.0 207.0 L 90.0 215.0 L 92.0 223.0 L 95.0 228.0 L 98.0 229.0" scribmaster:penstyle="draw" style="stroke:#000000;stroke-width:5.0;stroke-linejoin:round;stroke-linecap:round;stroke-opacity:1.0;fill:none"/>
      </g>
    </g>
  </g>
</svg>
