<?xml version='1.0' encoding='UTF-8' standalone='no' ?><svg xmlns="http://www.w3.org/2000/svg" xmlns:scribmaster="http://scribmaster.com/scribmaster" xmlns:sodipodi="http://sodipodi.sourceforge.net/DTD/sodipodi-0.dtd" xmlns:inkscape="http://www.inkscape.org/namespaces/inkscape" xmlns:xlink="http://www.w3.org/1999/xlink" version="1.2" width="800" height="1014"><sodipodi:namedview id="ScribMaster" /><filter id="blur"><feGaussianBlur stdDeviation="5.0" /></filter><defs /><g id="1625349932617" transform="matrix(1,0,0,1,-1.316833,-1.489594)" style="opacity:1.0"><g id="1625348338071" inkscape:groupmode="layer" transform="matrix(1,0,0,1,0,0)" style="opacity:1.0"><path transform="matrix(1,0,0,1,0,0)" d="M 127.31683 32.489594 L 125.31683 31.489594 L 124.31683 32.489594 L 124.31683 33.489594 L 122.31683 34.489594 L 120.31683 36.489594 L 116.31683 39.489594 L 111.31683 44.489594 L 105.31683 50.489594 L 97.31683 58.489594 L 88.31683 68.48959 L 80.31683 78.48959 L 70.31683 91.48959 L 61.316833 105.48959 L 55.316833 118.48959 L 50.316833 129.4896 L 46.316833 143.4896 L 44.316833 155.4896 L 44.316833 166.4896 L 44.316833 176.4896 L 46.316833 184.4896 L 48.316833 191.4896 L 50.316833 199.4896 L 54.316833 205.4896 L 57.316833 210.4896 L 59.316833 214.4896 L 62.316833 216.4896 L 64.31683 218.4896 L 66.31683 220.4896 L 69.31683 220.4896 L 71.31683 220.4896 L 74.31683 220.4896 L 78.31683 218.4896 L 81.31683 216.4896 L 85.31683 213.4896 L 90.31683 208.4896 L 94.31683 204.4896 L 98.31683 200.4896 L 101.31683 196.4896 L 105.31683 192.4896 L 107.31683 189.4896 L 109.31683 187.4896 L 110.31683 186.4896 L 111.31683 185.4896 L 111.31683 184.4896 L 111.31683 183.4896 L 112.31683 183.4896 L 112.31683 182.4896" scribmaster:penstyle="draw" style="stroke:#000000;stroke-width:5.0;stroke-linejoin:round;stroke-linecap:round;stroke-opacity:1.0;fill:none" /><path transform="matrix(1,0,0,1,0,0)" d="M 98.31683 177.4896 L 100.31683 176.4896 L 105.31683 176.4896 L 112.31683 176.4896 L 122.31683 176.4896 L 135.31683 176.4896" scribmaster:penstyle="draw" style="stroke:#000000;stroke-width:5.0;stroke-linejoin:round;stroke-linecap:round;stroke-opacity:1.0;fill:none" /></g></g></svg>