<?xml version='1.0' encoding='ASCII' standalone='yes'?>
<svg width = "6in" height = "4in" xmlns="http://www.w3.org/2000/svg" xmlns:xlink="http://www.w3.org/1999/xlink" version="1.1">
  <g transform="translate(-1.0473038956930552, 0) scale(1 1) translate(-0.8145370177431639, 0) scale(1 1) translate(-0.581794650448325, 0) scale(1 1) translate(-0.34906978865732063, 0) scale(1 1) translate(-0.1163554293259576, 0) scale(1 1) translate(0.1163554293259576, 0) scale(1 1) translate(0.34906978865732075, 0) scale(1 1) translate(0.5817946504483253, 0) scale(1 1) translate(0.814537017743164, 0) scale(1 1) translate(1.0473038956930552, 0) scale(1 1) translate(0, 0) scale(0.1 0.1)  skewX(-1.000000) skewX(-0.777778) skewX(-0.555556) skewX(-0.333333) skewX(-0.111111) skewX(0.111111) skewX(0.333333) skewX(0.555556) skewX(0.777778) skewX(1.000000)">
    <sodipodi:namedview xmlns:sodipodi="http://sodipodi.sourceforge.net/DTD/sodipodi-0.dtd" id="ScribMaster"/>
    <filter id="blur">
      <feGaussianBlur stdDeviation="5.0"/>
    </filter>
    <defs/>
    <g xmlns:inkscape="http://www.inkscape.org/namespaces/inkscape" xmlns:scribmaster="http://scribmaster.com/scribmaster" id="1625349260601" transform="matrix(1,0,0,1,0,0)" style="opacity:1.0">
      <g id="1625348338071" inkscape:groupmode="layer" transform="matrix(1,0,0,1,0,0)" style="opacity:1.0">
        <path transform="matrix(1,0,0,1,0,0)" d="M 21.0 135.0 L 20.0 134.0 L 19.0 134.0 L 19.0 133.0 L 20.0 133.0 L 23.0 131.0 L 28.0 130.0 L 33.0 129.0 L 40.0 128.0 L 48.0 126.0 L 57.0 126.0 L 65.0 125.0 L 72.0 124.0 L 79.0 123.0 L 85.0 123.0 L 90.0 121.0" scribmaster:penstyle="draw" style="stroke:#000000;stroke-width:5.0;stroke-linejoin:round;stroke-linecap:round;stroke-opacity:1.0;fill:none"/>
        <path transform="matrix(1,0,0,1,0,0)" d="M 65.0 92.0 L 64.0 94.0 L 62.0 99.0 L 60.0 110.0 L 56.0 128.0 L 52.0 153.0 L 49.0 179.0 L 48.0 203.0 L 49.0 218.0 L 50.0 231.0 L 50.0 242.0" scribmaster:penstyle="draw" style="stroke:#000000;stroke-width:5.0;stroke-linejoin:round;stroke-linecap:round;stroke-opacity:1.0;fill:none"/>
      </g>
    </g>
  </g>
</svg>
