<?xml version='1.0' encoding='ASCII' standalone='yes'?>
<svg width = "6in" height = "4in" xmlns="http://www.w3.org/2000/svg" xmlns:xlink="http://www.w3.org/1999/xlink" version="1.1">
  <g transform="translate(-0.8145370177431639, 0) scale(1 1) translate(-0.581794650448325, 0) scale(1 1) translate(-0.34906978865732063, 0) scale(1 1) translate(-0.1163554293259576, 0) scale(1 1) translate(0.1163554293259576, 0) scale(1 1) translate(0.34906978865732075, 0) scale(1 1) translate(0.5817946504483253, 0) scale(1 1) translate(0.814537017743164, 0) scale(1 1) translate(1.0473038956930552, 0) scale(1 1) translate(0, 0) scale(0.1 0.1)  skewX(-1.000000) skewX(-0.777778) skewX(-0.555556) skewX(-0.333333) skewX(-0.111111) skewX(0.111111) skewX(0.333333) skewX(0.555556) skewX(0.777778)">
    <sodipodi:namedview xmlns:sodipodi="http://sodipodi.sourceforge.net/DTD/sodipodi-0.dtd" id="ScribMaster"/>
    <filter id="blur">
      <feGaussianBlur stdDeviation="5.0"/>
    </filter>
    <defs/>
    <g xmlns:inkscape="http://www.inkscape.org/namespaces/inkscape" xmlns:scribmaster="http://scribmaster.com/scribmaster" id="1627854382303" transform="matrix(1.041329,0,0,1.041329,-16.413086,-15.68722)" style="opacity:1.0">
      <g id="1627851273342" inkscape:groupmode="layer" transform="matrix(1,0,0,1,0,0)" style="opacity:1.0">
        <path transform="matrix(1,0,0,1,0,0)" d="M 84.90406 84.20701 L 82.98344 82.286385 L 82.98344 83.2467 L 82.98344 84.20701 L 82.023125 85.16732 L 81.06282 88.048256 L 81.06282 90.929184 L 80.10251 95.73074 L 79.1422 102.45292 L 78.181885 111.09572 L 77.22157 121.65914 L 75.30095 133.18288 L 73.38033 145.66692 L 71.45971 158.15096 L 70.4994 168.71437 L 68.57877 177.35718 L 67.61846 185.03966 L 66.65815 192.72215 L 66.65815 198.48402 L 65.697845 204.24588 L 65.697845 209.04744 L 64.73753 210.96806 L 64.73753 213.849 L 64.73753 215.76962 L 64.73753 217.69023 L 64.73753 219.61086 L 64.73753 220.57117 L 64.73753 221.53148 L 64.73753 222.49179 L 64.73753 223.4521 L 64.73753 224.41241 L 64.73753 225.37273 L 64.73753 226.33304 L 64.73753 227.29335 L 64.73753 228.25366 L 65.697845 228.25366 L 66.65815 228.25366 L 67.61846 228.25366 L 68.57877 228.25366 L 70.4994 228.25366 L 71.45971 228.25366 L 73.38033 228.25366 L 76.26126 228.25366 L 80.10251 228.25366 L 82.98344 228.25366 L 87.784996 228.25366 L 92.58655 228.25366 L 98.34842 228.25366 L 105.070595 227.29335 L 112.75308 226.33304 L 121.39588 225.37273 L 129.07837 223.4521 L 136.76086 222.49179 L 144.44336 220.57117 L 152.12584 219.61086 L 157.88771 218.65054 L 164.6099 218.65054 L 169.41144 217.69023 L 174.213 217.69023 L 176.13362 216.72993 L 179.01456 216.72993 L 179.97487 216.72993 L 180.93518 215.76962 L 181.8955 215.76962 L 182.85579 214.80931 L 183.8161 214.80931 L 184.77641 213.849" scribmaster:penstyle="draw" style="stroke:#000000;stroke-width:5.0;stroke-linejoin:round;stroke-linecap:round;stroke-opacity:1.0;fill:none"/>
      </g>
    </g>
  </g>
</svg>
