<?xml version='1.0' encoding='ASCII' standalone='yes'?>
<svg width = "6in" height = "4in" xmlns="http://www.w3.org/2000/svg" xmlns:xlink="http://www.w3.org/1999/xlink" version="1.1">
  <g transform="translate(-0.8145370177431639, 0) scale(1 1) translate(-0.581794650448325, 0) scale(1 1) translate(-0.34906978865732063, 0) scale(1 1) translate(-0.1163554293259576, 0) scale(1 1) translate(0.1163554293259576, 0) scale(1 1) translate(0.34906978865732075, 0) scale(1 1) translate(0.5817946504483253, 0) scale(1 1) translate(0.814537017743164, 0) scale(1 1) translate(1.0473038956930552, 0) scale(1 1) translate(0, 0) scale(0.1 0.1)  skewX(-1.000000) skewX(-0.777778) skewX(-0.555556) skewX(-0.333333) skewX(-0.111111) skewX(0.111111) skewX(0.333333) skewX(0.555556) skewX(0.777778)">
    <sodipodi:namedview xmlns:sodipodi="http://sodipodi.sourceforge.net/DTD/sodipodi-0.dtd" id="ScribMaster"/>
    <filter id="blur">
      <feGaussianBlur stdDeviation="5.0"/>
    </filter>
    <defs/>
    <g xmlns:inkscape="http://www.inkscape.org/namespaces/inkscape" xmlns:scribmaster="http://scribmaster.com/scribmaster" id="1627854402036" transform="matrix(1.041329,0,0,1.041329,-16.413086,-15.68722)" style="opacity:1.0">
      <g id="1627851273342" inkscape:groupmode="layer" transform="matrix(1,0,0,1,0,0)" style="opacity:1.0">
        <path transform="matrix(1,0,0,1,0,0)" d="M 90.665924 92.84981 L 88.74531 91.889496 L 87.784996 92.84981 L 87.784996 93.81012 L 86.824684 94.77043 L 85.86437 97.65137 L 85.86437 102.45292 L 84.90406 107.25448 L 83.94375 115.89728 L 82.98344 125.50038 L 82.023125 137.02411 L 82.023125 147.58752 L 81.06282 158.15096 L 80.10251 166.79375 L 79.1422 176.39687 L 79.1422 185.03966 L 78.181885 192.72215 L 78.181885 200.40463 L 77.22157 207.12682 L 76.26126 211.92838 L 76.26126 215.76962 L 76.26126 218.65054 L 76.26126 219.61086 L 76.26126 220.57117 L 76.26126 221.53148 L 75.30095 222.49179 L 75.30095 223.4521 L 74.340645 224.41241 L 73.38033 225.37273 L 73.38033 226.33304 L 72.42002 227.29335 L 71.45971 228.25366 L 71.45971 229.21397 L 70.4994 229.21397 L 71.45971 229.21397 L 72.42002 230.17429 L 73.38033 230.17429 L 74.340645 230.17429 L 75.30095 230.17429 L 76.26126 230.17429 L 77.22157 230.17429 L 78.181885 230.17429 L 80.10251 230.17429 L 82.023125 231.1346 L 82.98344 231.1346 L 84.90406 231.1346 L 87.784996 231.1346 L 89.70562 231.1346 L 92.58655 230.17429 L 96.427795 230.17429 L 99.30872 230.17429 L 103.14997 230.17429 L 106.03091 229.21397 L 109.87215 229.21397 L 113.713394 229.21397 L 117.554634 229.21397 L 121.39588 228.25366 L 125.23713 228.25366 L 129.07837 228.25366 L 132.91962 227.29335 L 136.76086 227.29335 L 140.60211 227.29335 L 144.44336 227.29335 L 148.28459 227.29335 L 152.12584 227.29335 L 155.00677 227.29335 L 158.84802 226.33304 L 162.68927 226.33304 L 165.57019 226.33304 L 169.41144 225.37273 L 171.33206 225.37273 L 174.213 225.37273 L 176.13362 225.37273 L 177.09393 225.37273 L 179.01456 225.37273 L 180.93518 225.37273 L 181.8955 225.37273 L 182.85579 225.37273" scribmaster:penstyle="draw" style="stroke:#000000;stroke-width:5.0;stroke-linejoin:round;stroke-linecap:round;stroke-opacity:1.0;fill:none"/>
      </g>
    </g>
  </g>
</svg>
