<?xml version='1.0' encoding='ASCII' standalone='yes'?>
<svg width = "6in" height = "4in" xmlns="http://www.w3.org/2000/svg" xmlns:xlink="http://www.w3.org/1999/xlink" version="1.1">
  <g transform="translate(-0.581794650448325, 0) scale(1 1) translate(-0.34906978865732063, 0) scale(1 1) translate(-0.1163554293259576, 0) scale(1 1) translate(0.1163554293259576, 0) scale(1 1) translate(0.34906978865732075, 0) scale(1 1) translate(0.5817946504483253, 0) scale(1 1) translate(0.814537017743164, 0) scale(1 1) translate(1.0473038956930552, 0) scale(1 1) translate(0, 0) scale(0.1 0.1)  skewX(-1.000000) skewX(-0.777778) skewX(-0.555556) skewX(-0.333333) skewX(-0.111111) skewX(0.111111) skewX(0.333333) skewX(0.555556)">
    <sodipodi:namedview xmlns:sodipodi="http://sodipodi.sourceforge.net/DTD/sodipodi-0.dtd" id="ScribMaster"/>
    <filter id="blur">
      <feGaussianBlur stdDeviation="5.0"/>
    </filter>
    <defs/>
    <g xmlns:inkscape="http://www.inkscape.org/namespaces/inkscape" xmlns:scribmaster="http://scribmaster.com/scribmaster" id="1625351413919" transform="matrix(1,0,0,1,-1.316833,-1.489594)" style="opacity:1.0">
      <g id="1625348338071" inkscape:groupmode="layer" transform="matrix(1,0,0,1,0,0)" style="opacity:1.0">
        <path transform="matrix(1,0,0,1,0,0)" d="M 50.316833 78.48959 L 48.316833 79.48959 L 48.316833 80.48959 L 47.316833 82.48959 L 46.316833 85.48959 L 45.316833 90.48959 L 44.316833 96.48959 L 43.316833 103.48959 L 41.316833 110.48959 L 40.316833 118.48959 L 38.316833 130.4896 L 37.316833 142.4896 L 38.316833 153.4896 L 39.316833 165.4896 L 40.316833 177.4896 L 42.316833 187.4896 L 44.316833 196.4896 L 46.316833 204.4896 L 49.316833 210.4896 L 53.316833 216.4896 L 59.316833 220.4896 L 63.316833 224.4896 L 68.31683 227.4896 L 73.31683 229.4896 L 78.31683 230.4896 L 83.31683 230.4896 L 89.31683 229.4896 L 94.31683 227.4896 L 100.31683 224.4896 L 106.31683 220.4896 L 113.31683 214.4896 L 120.31683 205.4896 L 127.31683 194.4896 L 135.31683 182.4896 L 142.31683 168.4896 L 148.31683 156.4896 L 153.31683 145.4896 L 157.31683 137.4896 L 160.31683 128.4896 L 163.31683 120.48959 L 165.31683 113.48959 L 167.31683 106.48959 L 169.31683 100.48959 L 171.31683 94.48959 L 173.31683 89.48959 L 174.31683 84.48959 L 175.31683 79.48959 L 176.31683 75.48959 L 176.31683 72.48959 L 176.31683 69.48959 L 176.31683 68.48959 L 176.31683 67.48959 L 176.31683 68.48959 L 176.31683 69.48959 L 175.31683 71.48959 L 174.31683 74.48959 L 174.31683 78.48959 L 172.31683 87.48959 L 170.31683 98.48959 L 168.31683 111.48959 L 166.31683 124.48959 L 165.31683 139.4896 L 164.31683 152.4896 L 163.31683 164.4896 L 163.31683 175.4896 L 163.31683 186.4896 L 164.31683 195.4896 L 165.31683 202.4896 L 167.31683 208.4896 L 171.31683 212.4896 L 174.31683 215.4896 L 176.31683 216.4896" scribmaster:penstyle="draw" style="stroke:#000000;stroke-width:5.0;stroke-linejoin:round;stroke-linecap:round;stroke-opacity:1.0;fill:none"/>
      </g>
    </g>
  </g>
</svg>
