<?xml version='1.0' encoding='UTF-8' standalone='no' ?><svg xmlns="http://www.w3.org/2000/svg" xmlns:scribmaster="http://scribmaster.com/scribmaster" xmlns:sodipodi="http://sodipodi.sourceforge.net/DTD/sodipodi-0.dtd" xmlns:inkscape="http://www.inkscape.org/namespaces/inkscape" xmlns:xlink="http://www.w3.org/1999/xlink" version="1.2" width="800" height="1014"><sodipodi:namedview id="ScribMaster" /><filter id="blur"><feGaussianBlur stdDeviation="5.0" /></filter><defs /><g id="1625349887019" transform="matrix(1,0,0,1,-1.316833,-1.489594)" style="opacity:1.0"><g id="1625348338071" inkscape:groupmode="layer" transform="matrix(1,0,0,1,0,0)" style="opacity:1.0"><path transform="matrix(1,0,0,1,0,0)" d="M 64.31683 25.489594 L 64.31683 27.489594 L 64.31683 30.489594 L 64.31683 34.489594 L 64.31683 39.489594 L 64.31683 49.489594 L 63.316833 62.489594 L 61.316833 79.48959 L 59.316833 98.48959 L 56.316833 116.48959 L 54.316833 131.4896 L 52.316833 148.4896 L 49.316833 162.4896 L 47.316833 174.4896 L 45.316833 184.4896 L 44.316833 195.4896 L 43.316833 204.4896 L 42.316833 211.4896 L 41.316833 218.4896 L 41.316833 224.4896 L 41.316833 226.4896 L 41.316833 227.4896" scribmaster:penstyle="draw" style="stroke:#000000;stroke-width:5.0;stroke-linejoin:round;stroke-linecap:round;stroke-opacity:1.0;fill:none" /><path transform="matrix(1,0,0,1,0,0)" d="M 59.316833 45.489594 L 59.316833 44.489594 L 60.316833 43.489594 L 61.316833 43.489594 L 64.31683 42.489594 L 67.31683 41.489594 L 76.31683 40.489594 L 84.31683 39.489594 L 93.31683 39.489594 L 102.31683 39.489594 L 111.31683 39.489594 L 119.31683 39.489594 L 126.31683 40.489594 L 133.31683 41.489594 L 138.31683 42.489594 L 143.31683 43.489594 L 145.31683 44.489594 L 147.31683 45.489594" scribmaster:penstyle="draw" style="stroke:#000000;stroke-width:5.0;stroke-linejoin:round;stroke-linecap:round;stroke-opacity:1.0;fill:none" /><path transform="matrix(1,0,0,1,0,0)" d="M 62.316833 146.4896 L 64.31683 146.4896 L 66.31683 146.4896 L 69.31683 146.4896 L 73.31683 146.4896 L 79.31683 146.4896 L 86.31683 145.4896 L 93.31683 145.4896 L 102.31683 144.4896 L 110.31683 143.4896 L 118.31683 142.4896 L 125.31683 141.4896 L 132.31683 140.4896 L 137.31683 139.4896 L 142.31683 139.4896 L 145.31683 139.4896" scribmaster:penstyle="draw" style="stroke:#000000;stroke-width:5.0;stroke-linejoin:round;stroke-linecap:round;stroke-opacity:1.0;fill:none" /></g></g></svg>