<?xml version='1.0' encoding='ASCII' standalone='yes'?>
<svg width = "6in" height = "4in" xmlns="http://www.w3.org/2000/svg" xmlns:xlink="http://www.w3.org/1999/xlink" version="1.1">
  <g transform="translate(-0.8145370177431639, 0) scale(1 1) translate(-0.581794650448325, 0) scale(1 1) translate(-0.34906978865732063, 0) scale(1 1) translate(-0.1163554293259576, 0) scale(1 1) translate(0.1163554293259576, 0) scale(1 1) translate(0.34906978865732075, 0) scale(1 1) translate(0.5817946504483253, 0) scale(1 1) translate(0.814537017743164, 0) scale(1 1) translate(1.0473038956930552, 0) scale(1 1) translate(0, 0) scale(0.1 0.1)  skewX(-1.000000) skewX(-0.777778) skewX(-0.555556) skewX(-0.333333) skewX(-0.111111) skewX(0.111111) skewX(0.333333) skewX(0.555556) skewX(0.777778)">
    <sodipodi:namedview xmlns:sodipodi="http://sodipodi.sourceforge.net/DTD/sodipodi-0.dtd" id="ScribMaster"/>
    <filter id="blur">
      <feGaussianBlur stdDeviation="5.0"/>
    </filter>
    <defs/>
    <g xmlns:inkscape="http://www.inkscape.org/namespaces/inkscape" xmlns:scribmaster="http://scribmaster.com/scribmaster" id="1627854685028" transform="matrix(1.041329,0,0,1.041329,-16.413086,-15.68722)" style="opacity:1.0">
      <g id="1627851273342" inkscape:groupmode="layer" transform="matrix(1,0,0,1,0,0)" style="opacity:1.0">
        <path transform="matrix(1,0,0,1,0,0)" d="M 118.514946 95.73074 L 117.554634 94.77043 L 116.59433 93.81012 L 115.63402 92.84981 L 114.673706 91.889496 L 113.713394 90.929184 L 112.75308 89.96887 L 110.83246 89.00857 L 109.87215 89.00857 L 107.95153 89.00857 L 106.03091 89.00857 L 103.14997 89.00857 L 99.30872 89.96887 L 95.46748 92.84981 L 88.74531 96.691055 L 83.94375 101.49261 L 78.181885 109.175095 L 72.42002 119.73852 L 68.57877 129.34163 L 64.73753 141.82567 L 61.8566 157.19064 L 60.89629 172.55562 L 61.8566 186.96028 L 63.77722 199.44434 L 66.65815 210.00775 L 72.42002 217.69023 L 78.181885 223.4521 L 85.86437 228.25366 L 93.54686 230.17429 L 100.269035 230.17429 L 106.03091 229.21397 L 111.79277 227.29335 L 116.59433 225.37273 L 120.43557 223.4521 L 124.27682 220.57117 L 128.11806 216.72993 L 131.9593 212.88869 L 135.80055 209.04744 L 139.6418 204.24588 L 142.52274 199.44434 L 146.36398 194.64278 L 149.2449 188.8809 L 151.16553 182.15872 L 153.08615 176.39687 L 154.04646 169.67468 L 154.04646 162.95251 L 153.08615 157.19064 L 151.16553 150.46846 L 148.28459 141.82567 L 145.40367 134.14317 L 140.60211 127.421005 L 136.76086 120.69883 L 131.9593 113.976654 L 128.11806 108.21478 L 124.27682 103.41323 L 120.43557 98.61167 L 117.554634 94.77043 L 114.673706 92.84981 L 112.75308 90.929184 L 110.83246 89.96887 L 108.911835 89.96887 L 106.03091 90.929184" scribmaster:penstyle="draw" style="stroke:#000000;stroke-width:5.0;stroke-linejoin:round;stroke-linecap:round;stroke-opacity:1.0;fill:none"/>
        <path transform="matrix(1,0,0,1,0,0)" d="M 121.39588 192.72215 L 123.316505 193.68246 L 125.23713 195.60309 L 129.07837 198.48402 L 131.9593 202.32526 L 135.80055 208.08713 L 140.60211 212.88869 L 144.44336 216.72993 L 148.28459 220.57117 L 152.12584 223.4521" scribmaster:penstyle="draw" style="stroke:#000000;stroke-width:5.0;stroke-linejoin:round;stroke-linecap:round;stroke-opacity:1.0;fill:none"/>
      </g>
    </g>
  </g>
</svg>
