<?xml version='1.0' encoding='ASCII' standalone='yes'?>
<svg width = "6in" height = "4in" xmlns="http://www.w3.org/2000/svg" xmlns:xlink="http://www.w3.org/1999/xlink" version="1.1">
  <g transform="translate(1.0473038956930552, 0) scale(1 1) translate(0, 0) scale(0.1 0.1)  skewX(-1.000000)">
    <sodipodi:namedview xmlns:sodipodi="http://sodipodi.sourceforge.net/DTD/sodipodi-0.dtd" id="ScribMaster"/>
    <filter id="blur">
      <feGaussianBlur stdDeviation="5.0"/>
    </filter>
    <defs/>
    <g xmlns:inkscape="http://www.inkscape.org/namespaces/inkscape" xmlns:scribmaster="http://scribmaster.com/scribmaster" id="1627854662911" transform="matrix(1.041329,0,0,1.041329,-16.413086,-15.68722)" style="opacity:1.0">
      <g id="1627851273342" inkscape:groupmode="layer" transform="matrix(1,0,0,1,0,0)" style="opacity:1.0">
        <path transform="matrix(1,0,0,1,0,0)" d="M 107.95153 97.65137 L 106.99122 96.691055 L 106.99122 95.73074 L 106.99122 94.77043 L 106.03091 93.81012 L 106.03091 92.84981 L 105.070595 91.889496 L 105.070595 90.929184 L 104.11028 89.96887 L 102.18966 89.00857 L 101.22935 89.00857 L 99.30872 89.00857 L 97.38811 89.00857 L 95.46748 89.96887 L 90.665924 91.889496 L 86.824684 94.77043 L 82.023125 98.61167 L 77.22157 105.333855 L 72.42002 113.976654 L 68.57877 125.50038 L 64.73753 139.90504 L 64.73753 154.30971 L 68.57877 169.67468 L 74.340645 181.19843 L 81.06282 190.80153 L 89.70562 198.48402 L 98.34842 202.32526 L 106.99122 204.24588 L 115.63402 203.28557 L 123.316505 201.36494 L 130.999 197.52371 L 135.80055 195.60309 L 139.6418 191.76184 L 143.48303 187.9206 L 145.40367 185.03966 L 147.3243 181.19843 L 150.20522 176.39687 L 152.12584 170.635 L 154.04646 163.91283 L 156.9274 154.30971 L 158.84802 143.74629 L 160.76865 133.18288 L 161.72896 123.579765 L 160.76865 113.976654 L 159.80833 105.333855 L 157.88771 97.65137 L 153.08615 90.929184 L 147.3243 86.12763 L 140.60211 83.2467 L 130.999 82.286385 L 121.39588 84.20701 L 110.83246 88.048256 L 98.34842 93.81012 L 87.784996 99.57198 L 80.10251 104.37354 L 75.30095 108.21478" scribmaster:penstyle="draw" style="stroke:#000000;stroke-width:5.0;stroke-linejoin:round;stroke-linecap:round;stroke-opacity:1.0;fill:none"/>
        <path transform="matrix(1,0,0,1,0,0)" d="M 115.63402 163.91283 L 116.59433 165.83344 L 119.47526 167.75406 L 123.316505 171.5953 L 128.11806 175.43655 L 133.87993 180.23811 L 138.68149 185.03966 L 144.44336 190.80153 L 150.20522 196.5634 L 155.00677 201.36494 L 159.80833 205.20619 L 165.57019 209.04744 L 170.37175 211.92838 L 175.17331 214.80931" scribmaster:penstyle="draw" style="stroke:#000000;stroke-width:5.0;stroke-linejoin:round;stroke-linecap:round;stroke-opacity:1.0;fill:none"/>
      </g>
    </g>
  </g>
</svg>
