<?xml version='1.0' encoding='ASCII' standalone='yes'?>
<svg width = "6in" height = "4in" xmlns="http://www.w3.org/2000/svg" xmlns:xlink="http://www.w3.org/1999/xlink" version="1.1">
  <g transform="translate(0.5817946504483253, 0) scale(1 1) translate(0.814537017743164, 0) scale(1 1) translate(1.0473038956930552, 0) scale(1 1) translate(0, 0) scale(0.1 0.1)  skewX(-1.000000) skewX(-0.777778) skewX(-0.555556)">
    <sodipodi:namedview xmlns:sodipodi="http://sodipodi.sourceforge.net/DTD/sodipodi-0.dtd" id="ScribMaster"/>
    <filter id="blur">
      <feGaussianBlur stdDeviation="5.0"/>
    </filter>
    <defs/>
    <g xmlns:inkscape="http://www.inkscape.org/namespaces/inkscape" xmlns:scribmaster="http://scribmaster.com/scribmaster" id="1627855583632" transform="matrix(1.041329,0,0,1.041329,-16.413086,-18.68722)" style="opacity:1.0">
      <g id="1627851273342" inkscape:groupmode="layer" transform="matrix(1,0,0,1,0,0)" style="opacity:1.0">
        <path transform="matrix(1,0,0,1,0,0)" d="M 777.2883 360.7766 L 777.2883 360.78622" scribmaster:penstyle="draw" style="stroke:#000000;stroke-width:5.0;stroke-linejoin:round;stroke-linecap:round;stroke-opacity:1.0;fill:none"/>
        <path transform="matrix(1,0,0,1,0,0)" d="M 106.03091 148.54785 L 104.11028 146.62723 L 103.14997 146.62723 L 102.18966 146.62723 L 102.18966 145.66692 L 101.22935 144.7066 L 100.269035 143.74629 L 99.30872 142.78598 L 98.34842 141.82567 L 97.38811 139.90504 L 95.46748 138.94473 L 94.50717 136.06381 L 92.58655 134.14319 L 90.665924 131.26225 L 89.70562 128.38132 L 87.784996 125.50038 L 86.824684 121.659134 L 85.86437 118.778206 L 84.90406 114.93696 L 83.94375 112.05602 L 83.94375 108.21478 L 83.94375 104.373535 L 83.94375 100.532295 L 83.94375 96.69105 L 84.90406 93.81011 L 85.86437 90.929184 L 87.784996 87.08794 L 88.74531 85.16731 L 90.665924 82.286385 L 93.54686 80.36576 L 95.46748 78.44514 L 98.34842 77.484825 L 101.22935 76.52452 L 104.11028 75.56421 L 106.99122 74.6039 L 109.87215 74.6039 L 111.79277 75.56421 L 114.673706 75.56421 L 116.59433 76.52452 L 118.514946 77.484825 L 120.43557 79.40545 L 122.35619 81.32607 L 123.316505 83.2467 L 125.23713 85.16731 L 126.19743 88.04825 L 126.19743 89.96887 L 126.19743 92.8498 L 126.19743 96.69105 L 125.23713 99.57198 L 124.27682 102.45291 L 122.35619 107.25447 L 120.43557 112.05602 L 117.554634 115.89727 L 114.673706 119.73851 L 111.79277 124.54007 L 108.911835 128.38132 L 106.03091 133.18288 L 103.14997 137.02411 L 100.269035 140.86536 L 97.38811 145.66692 L 94.50717 150.46846 L 92.58655 154.30971 L 89.70562 159.11127 L 87.784996 163.91283 L 85.86437 168.71437 L 84.90406 173.51593 L 83.94375 180.23811 L 82.98344 186.96028 L 82.98344 193.68246 L 82.98344 199.44434 L 83.94375 204.24588 L 84.90406 209.04744 L 86.824684 213.849 L 88.74531 216.72993 L 91.626236 218.65056 L 93.54686 220.57117 L 96.427795 222.49179 L 98.34842 222.49179 L 101.22935 222.49179 L 103.14997 222.49179 L 106.03091 221.53148 L 108.911835 220.57117 L 111.79277 218.65056 L 114.673706 216.72993 L 116.59433 214.80931 L 119.47526 212.88869 L 121.39588 210.00775 L 124.27682 208.08713 L 126.19743 205.20619 L 127.157745 203.28557 L 129.07837 201.36496 L 130.03868 198.48402 L 130.999 195.60309 L 130.999 192.72215 L 130.999 189.84122 L 130.999 185.99997 L 130.999 183.11905 L 130.999 180.23811 L 130.03868 177.35718 L 129.07837 174.47624 L 128.11806 171.5953 L 126.19743 169.67468 L 125.23713 166.79376 L 122.35619 164.87314 L 120.43557 161.9922 L 118.514946 160.07158 L 116.59433 157.19064 L 113.713394 155.27002 L 111.79277 153.3494 L 110.83246 150.46846 L 109.87215 148.54785 L 108.911835 144.7066" scribmaster:penstyle="draw" style="stroke:#000000;stroke-width:5.0;stroke-linejoin:round;stroke-linecap:round;stroke-opacity:1.0;fill:none"/>
      </g>
    </g>
  </g>
</svg>
