<?xml version='1.0' encoding='ASCII' standalone='yes'?>
<svg width = "6in" height = "4in" xmlns="http://www.w3.org/2000/svg" xmlns:xlink="http://www.w3.org/1999/xlink" version="1.1">
  <g transform="translate(-1.0473038956930552, 0) scale(1 1) translate(-0.8145370177431639, 0) scale(1 1) translate(-0.581794650448325, 0) scale(1 1) translate(-0.34906978865732063, 0) scale(1 1) translate(-0.1163554293259576, 0) scale(1 1) translate(0.1163554293259576, 0) scale(1 1) translate(0.34906978865732075, 0) scale(1 1) translate(0.5817946504483253, 0) scale(1 1) translate(0.814537017743164, 0) scale(1 1) translate(1.0473038956930552, 0) scale(1 1) translate(0, 0) scale(0.1 0.1)  skewX(-1.000000) skewX(-0.777778) skewX(-0.555556) skewX(-0.333333) skewX(-0.111111) skewX(0.111111) skewX(0.333333) skewX(0.555556) skewX(0.777778) skewX(1.000000)">
    <sodipodi:namedview xmlns:sodipodi="http://sodipodi.sourceforge.net/DTD/sodipodi-0.dtd" id="ScribMaster"/>
    <filter id="blur">
      <feGaussianBlur stdDeviation="5.0"/>
    </filter>
    <defs/>
    <g xmlns:inkscape="http://www.inkscape.org/namespaces/inkscape" xmlns:scribmaster="http://scribmaster.com/scribmaster" id="1627855607240" transform="matrix(1.041329,0,0,1.041329,-16.413086,-18.68722)" style="opacity:1.0">
      <g id="1627851273342" inkscape:groupmode="layer" transform="matrix(1,0,0,1,0,0)" style="opacity:1.0">
        <path transform="matrix(1,0,0,1,0,0)" d="M 777.2883 360.7766 L 777.2883 360.78622" scribmaster:penstyle="draw" style="stroke:#000000;stroke-width:5.0;stroke-linejoin:round;stroke-linecap:round;stroke-opacity:1.0;fill:none"/>
        <path transform="matrix(1,0,0,1,0,0)" d="M 107.95153 147.58754 L 106.99122 146.62723 L 106.03091 145.66692 L 105.070595 144.7066 L 104.11028 143.74629 L 103.14997 142.78598 L 102.18966 141.82567 L 102.18966 140.86536 L 100.269035 138.94473 L 98.34842 136.06381 L 96.427795 134.14319 L 94.50717 131.26225 L 92.58655 128.38132 L 91.626236 125.50038 L 89.70562 122.619446 L 88.74531 119.73851 L 87.784996 116.85758 L 87.784996 113.97665 L 86.824684 111.09571 L 86.824684 107.25447 L 87.784996 103.41322 L 87.784996 100.532295 L 88.74531 97.65136 L 89.70562 94.770424 L 91.626236 91.889496 L 92.58655 89.96887 L 95.46748 88.04825 L 97.38811 86.127625 L 99.30872 85.16731 L 102.18966 83.2467 L 105.070595 83.2467 L 107.95153 82.286385 L 110.83246 82.286385 L 112.75308 83.2467 L 115.63402 84.207 L 117.554634 86.127625 L 119.47526 87.08794 L 122.35619 89.00856 L 124.27682 90.929184 L 126.19743 92.8498 L 127.157745 94.770424 L 128.11806 96.69105 L 129.07837 98.61167 L 130.03868 101.4926 L 130.03868 103.41322 L 129.07837 107.25447 L 129.07837 111.09571 L 128.11806 113.97665 L 126.19743 117.817894 L 125.23713 122.619446 L 122.35619 128.38132 L 120.43557 133.18288 L 117.554634 137.98442 L 114.673706 143.74629 L 111.79277 149.50816 L 107.95153 154.30971 L 105.070595 160.07158 L 102.18966 164.87314 L 99.30872 169.67468 L 96.427795 174.47624 L 94.50717 178.31749 L 92.58655 183.11905 L 90.665924 187.9206 L 88.74531 192.72215 L 87.784996 196.5634 L 87.784996 199.44434 L 87.784996 201.36496 L 87.784996 203.28557 L 87.784996 205.20619 L 87.784996 207.12682 L 87.784996 209.04744 L 88.74531 210.00775 L 89.70562 211.92838 L 90.665924 212.88869 L 91.626236 212.88869 L 92.58655 213.849 L 94.50717 213.849 L 95.46748 214.80931 L 97.38811 214.80931 L 99.30872 214.80931 L 100.269035 214.80931 L 102.18966 214.80931 L 104.11028 214.80931 L 106.03091 214.80931 L 106.99122 214.80931 L 108.911835 213.849 L 109.87215 212.88869 L 111.79277 212.88869 L 112.75308 210.96806 L 113.713394 210.00775 L 114.673706 208.08713 L 116.59433 207.12682 L 116.59433 205.20619 L 117.554634 204.24588 L 118.514946 203.28557 L 119.47526 201.36496 L 120.43557 199.44434 L 121.39588 198.48402 L 121.39588 197.52371 L 121.39588 195.60309 L 122.35619 193.68246 L 122.35619 192.72215 L 122.35619 190.80153 L 122.35619 188.8809 L 122.35619 186.96028 L 122.35619 185.03966 L 122.35619 183.11905 L 122.35619 181.19843 L 122.35619 179.2778 L 121.39588 177.35718 L 121.39588 175.43655 L 121.39588 173.51593 L 121.39588 171.5953 L 120.43557 169.67468 L 119.47526 167.75406 L 119.47526 165.83345 L 118.514946 163.91283 L 117.554634 161.9922 L 116.59433 160.07158 L 115.63402 158.15096 L 114.673706 157.19064 L 113.713394 155.27002 L 112.75308 153.3494 L 112.75308 151.42877 L 111.79277 150.46846 L 110.83246 148.54785 L 109.87215 148.54785 L 108.911835 147.58754" scribmaster:penstyle="draw" style="stroke:#000000;stroke-width:5.0;stroke-linejoin:round;stroke-linecap:round;stroke-opacity:1.0;fill:none"/>
      </g>
    </g>
  </g>
</svg>
