<?xml version='1.0' encoding='ASCII' standalone='yes'?>
<svg width = "6in" height = "4in" xmlns="http://www.w3.org/2000/svg" xmlns:xlink="http://www.w3.org/1999/xlink" version="1.1">
  <g transform="translate(0.814537017743164, 0) scale(1 1) translate(1.0473038956930552, 0) scale(1 1) translate(0, 0) scale(0.1 0.1)  skewX(-1.000000) skewX(-0.777778)">
    <sodipodi:namedview xmlns:sodipodi="http://sodipodi.sourceforge.net/DTD/sodipodi-0.dtd" id="ScribMaster"/>
    <filter id="blur">
      <feGaussianBlur stdDeviation="5.0"/>
    </filter>
    <defs/>
    <g xmlns:inkscape="http://www.inkscape.org/namespaces/inkscape" xmlns:scribmaster="http://scribmaster.com/scribmaster" id="1627854597748" transform="matrix(1.041329,0,0,1.041329,-16.413086,-15.68722)" style="opacity:1.0">
      <g id="1627851273342" inkscape:groupmode="layer" transform="matrix(1,0,0,1,0,0)" style="opacity:1.0">
        <path transform="matrix(1,0,0,1,0,0)" d="M 133.87993 81.32607 L 133.87993 80.36577 L 132.91962 80.36577 L 131.9593 80.36577 L 130.999 80.36577 L 130.03868 80.36577 L 129.07837 80.36577 L 128.11806 80.36577 L 127.157745 80.36577 L 125.23713 80.36577 L 123.316505 81.32607 L 121.39588 81.32607 L 118.514946 82.286385 L 114.673706 83.2467 L 111.79277 84.20701 L 107.95153 85.16732 L 104.11028 87.087944 L 100.269035 89.00857 L 96.427795 89.96887 L 91.626236 93.81012 L 86.824684 96.691055 L 82.98344 100.532295 L 78.181885 107.25448 L 74.340645 113.01634 L 71.45971 119.73852 L 68.57877 127.421005 L 65.697845 135.10349 L 63.77722 144.7066 L 62.81691 153.3494 L 62.81691 163.91283 L 62.81691 173.51593 L 63.77722 182.15872 L 65.697845 191.76184 L 68.57877 199.44434 L 72.42002 206.1665 L 77.22157 210.96806 L 81.06282 215.76962 L 85.86437 219.61086 L 91.626236 222.49179 L 96.427795 225.37273 L 102.18966 227.29335 L 107.95153 228.25366 L 112.75308 229.21397 L 117.554634 230.17429 L 121.39588 230.17429 L 124.27682 230.17429 L 128.11806 230.17429 L 131.9593 230.17429 L 135.80055 229.21397 L 140.60211 227.29335 L 144.44336 224.41241 L 147.3243 221.53148 L 151.16553 218.65054 L 155.00677 213.849 L 157.88771 210.00775 L 160.76865 205.20619 L 164.6099 199.44434 L 166.5305 194.64278 L 169.41144 186.96028 L 172.29237 180.23811 L 175.17331 173.51593 L 177.09393 166.79375 L 179.01456 161.03189 L 179.97487 155.27002 L 180.93518 150.46846 L 180.93518 146.62723 L 180.93518 142.78598 L 180.93518 137.98442 L 179.97487 134.14317 L 179.01456 130.30194 L 179.01456 125.50038 L 178.05424 121.65914 L 177.09393 117.817894 L 176.13362 113.976654 L 175.17331 112.05603 L 174.213 110.13541 L 173.25269 108.21478 L 171.33206 106.29417 L 170.37175 104.37354 L 168.45113 102.45292 L 166.5305 100.532295 L 164.6099 99.57198 L 162.68927 97.65137 L 160.76865 95.73074 L 158.84802 94.77043 L 155.96709 92.84981 L 154.04646 91.889496 L 152.12584 89.96887 L 150.20522 88.048256 L 148.28459 87.087944 L 146.36398 85.16732 L 145.40367 85.16732 L 144.44336 84.20701 L 142.52274 84.20701 L 140.60211 83.2467 L 139.6418 83.2467 L 138.68149 83.2467 L 136.76086 83.2467 L 135.80055 84.20701" scribmaster:penstyle="draw" style="stroke:#000000;stroke-width:5.0;stroke-linejoin:round;stroke-linecap:round;stroke-opacity:1.0;fill:none"/>
      </g>
    </g>
  </g>
</svg>
