<?xml version='1.0' encoding='ASCII' standalone='yes'?>
<svg width = "6in" height = "4in" xmlns="http://www.w3.org/2000/svg" xmlns:xlink="http://www.w3.org/1999/xlink" version="1.1">
  <g transform="translate(0.34906978865732075, 0) scale(1 1) translate(0.5817946504483253, 0) scale(1 1) translate(0.814537017743164, 0) scale(1 1) translate(1.0473038956930552, 0) scale(1 1) translate(0, 0) scale(0.1 0.1)  skewX(-1.000000) skewX(-0.777778) skewX(-0.555556) skewX(-0.333333)">
    <sodipodi:namedview xmlns:sodipodi="http://sodipodi.sourceforge.net/DTD/sodipodi-0.dtd" id="ScribMaster"/>
    <filter id="blur">
      <feGaussianBlur stdDeviation="5.0"/>
    </filter>
    <defs/>
    <g xmlns:inkscape="http://www.inkscape.org/namespaces/inkscape" xmlns:scribmaster="http://scribmaster.com/scribmaster" id="1625349088663" transform="matrix(1,0,0,1,0,0)" style="opacity:1.0">
      <g id="1625348338071" inkscape:groupmode="layer" transform="matrix(1,0,0,1,0,0)" style="opacity:1.0">
        <path transform="matrix(1,0,0,1,0,0)" d="M 66.0 145.0 L 64.0 146.0 L 62.0 147.0 L 60.0 149.0 L 58.0 152.0 L 55.0 155.0 L 52.0 160.0 L 49.0 166.0 L 45.0 175.0 L 44.0 183.0 L 43.0 191.0 L 43.0 199.0 L 44.0 205.0 L 45.0 211.0 L 48.0 215.0 L 52.0 218.0 L 56.0 220.0 L 61.0 220.0 L 66.0 219.0 L 71.0 217.0 L 76.0 214.0 L 82.0 208.0 L 88.0 201.0 L 94.0 193.0 L 97.0 184.0 L 99.0 175.0 L 99.0 168.0 L 98.0 161.0 L 95.0 155.0 L 92.0 151.0 L 88.0 148.0 L 83.0 147.0 L 78.0 146.0 L 73.0 147.0 L 68.0 147.0 L 63.0 148.0" scribmaster:penstyle="draw" style="stroke:#000000;stroke-width:5.0;stroke-linejoin:round;stroke-linecap:round;stroke-opacity:1.0;fill:none"/>
      </g>
    </g>
  </g>
</svg>
