<?xml version='1.0' encoding='ASCII' standalone='yes'?>
<svg width = "6in" height = "4in" xmlns="http://www.w3.org/2000/svg" xmlns:xlink="http://www.w3.org/1999/xlink" version="1.1">
  <g transform="translate(0.34906978865732075, 0) scale(1 1) translate(0.5817946504483253, 0) scale(1 1) translate(0.814537017743164, 0) scale(1 1) translate(1.0473038956930552, 0) scale(1 1) translate(0, 0) scale(0.1 0.1)  skewX(-1.000000) skewX(-0.777778) skewX(-0.555556) skewX(-0.333333)">
    <sodipodi:namedview xmlns:sodipodi="http://sodipodi.sourceforge.net/DTD/sodipodi-0.dtd" id="ScribMaster"/>
    <filter id="blur">
      <feGaussianBlur stdDeviation="5.0"/>
    </filter>
    <defs/>
    <g xmlns:inkscape="http://www.inkscape.org/namespaces/inkscape" xmlns:scribmaster="http://scribmaster.com/scribmaster" id="1625349075326" transform="matrix(1,0,0,1,0,0)" style="opacity:1.0">
      <g id="1625348338071" inkscape:groupmode="layer" transform="matrix(1,0,0,1,0,0)" style="opacity:1.0">
        <path transform="matrix(1,0,0,1,0,0)" d="M 63.0 146.0 L 62.0 146.0 L 60.0 148.0 L 58.0 150.0 L 56.0 153.0 L 54.0 157.0 L 51.0 163.0 L 48.0 173.0 L 45.0 184.0 L 44.0 195.0 L 43.0 205.0 L 43.0 214.0 L 44.0 222.0 L 45.0 228.0 L 51.0 233.0 L 56.0 235.0 L 61.0 234.0 L 67.0 233.0 L 75.0 229.0 L 85.0 223.0 L 94.0 215.0 L 102.0 206.0 L 110.0 197.0 L 115.0 188.0 L 118.0 179.0 L 119.0 170.0 L 118.0 162.0 L 116.0 155.0 L 113.0 149.0 L 108.0 145.0 L 103.0 143.0 L 97.0 142.0 L 92.0 141.0 L 85.0 142.0 L 78.0 143.0" scribmaster:penstyle="draw" style="stroke:#000000;stroke-width:5.0;stroke-linejoin:round;stroke-linecap:round;stroke-opacity:1.0;fill:none"/>
      </g>
    </g>
  </g>
</svg>
