<?xml version='1.0' encoding='ASCII' standalone='yes'?>
<svg width = "6in" height = "4in" xmlns="http://www.w3.org/2000/svg" xmlns:xlink="http://www.w3.org/1999/xlink" version="1.1">
  <g transform="translate(-1.0473038956930552, 0) scale(1 1) translate(-0.8145370177431639, 0) scale(1 1) translate(-0.581794650448325, 0) scale(1 1) translate(-0.34906978865732063, 0) scale(1 1) translate(-0.1163554293259576, 0) scale(1 1) translate(0.1163554293259576, 0) scale(1 1) translate(0.34906978865732075, 0) scale(1 1) translate(0.5817946504483253, 0) scale(1 1) translate(0.814537017743164, 0) scale(1 1) translate(1.0473038956930552, 0) scale(1 1) translate(0, 0) scale(0.1 0.1)  skewX(-1.000000) skewX(-0.777778) skewX(-0.555556) skewX(-0.333333) skewX(-0.111111) skewX(0.111111) skewX(0.333333) skewX(0.555556) skewX(0.777778) skewX(1.000000)">
    <sodipodi:namedview xmlns:sodipodi="http://sodipodi.sourceforge.net/DTD/sodipodi-0.dtd" id="ScribMaster"/>
    <filter id="blur">
      <feGaussianBlur stdDeviation="5.0"/>
    </filter>
    <defs/>
    <g xmlns:inkscape="http://www.inkscape.org/namespaces/inkscape" xmlns:scribmaster="http://scribmaster.com/scribmaster" id="1625348585143" transform="matrix(1,0,0,1,0,0)" style="opacity:1.0">
      <g id="1625348338071" inkscape:groupmode="layer" transform="matrix(1,0,0,1,0,0)" style="opacity:1.0">
        <path transform="matrix(1,0,0,1,0,0)" d="M 81.0 137.0 L 79.0 138.0 L 78.0 138.0 L 76.0 138.0 L 73.0 139.0 L 70.0 141.0 L 67.0 143.0 L 63.0 146.0 L 59.0 150.0 L 51.0 156.0 L 42.0 165.0 L 36.0 172.0 L 31.0 179.0 L 26.0 187.0 L 23.0 195.0 L 21.0 203.0 L 20.0 209.0 L 20.0 215.0 L 21.0 220.0 L 23.0 224.0 L 26.0 226.0 L 29.0 228.0 L 32.0 229.0 L 34.0 229.0 L 36.0 229.0 L 39.0 228.0 L 42.0 227.0 L 44.0 225.0 L 48.0 222.0 L 52.0 219.0 L 55.0 216.0 L 60.0 211.0 L 64.0 205.0 L 69.0 198.0 L 75.0 189.0 L 79.0 178.0 L 83.0 168.0 L 86.0 156.0 L 89.0 145.0 L 90.0 132.0 L 91.0 121.0 L 92.0 111.0 L 93.0 101.0 L 93.0 92.0 L 93.0 82.0 L 93.0 74.0 L 92.0 67.0 L 92.0 61.0 L 91.0 54.0 L 91.0 49.0 L 90.0 44.0 L 90.0 41.0 L 90.0 38.0 L 89.0 34.0 L 89.0 32.0 L 88.0 29.0 L 88.0 27.0 L 88.0 25.0 L 87.0 23.0 L 87.0 21.0 L 87.0 20.0 L 86.0 21.0 L 86.0 23.0 L 86.0 24.0 L 86.0 28.0 L 86.0 31.0 L 86.0 36.0 L 86.0 43.0 L 87.0 53.0 L 87.0 63.0 L 87.0 75.0 L 89.0 89.0 L 90.0 103.0 L 90.0 116.0 L 90.0 127.0 L 91.0 141.0 L 91.0 154.0 L 91.0 165.0 L 91.0 176.0 L 90.0 188.0 L 90.0 197.0 L 90.0 205.0 L 90.0 213.0 L 90.0 220.0 L 90.0 225.0 L 91.0 229.0 L 93.0 233.0 L 95.0 235.0" scribmaster:penstyle="draw" style="stroke:#000000;stroke-width:5.0;stroke-linejoin:round;stroke-linecap:round;stroke-opacity:1.0;fill:none"/>
      </g>
    </g>
  </g>
</svg>
