<?xml version='1.0' encoding='ASCII' standalone='yes'?>
<svg width = "6in" height = "4in" xmlns="http://www.w3.org/2000/svg" xmlns:xlink="http://www.w3.org/1999/xlink" version="1.1">
  <g transform="translate(-0.581794650448325, 0) scale(1 1) translate(-0.34906978865732063, 0) scale(1 1) translate(-0.1163554293259576, 0) scale(1 1) translate(0.1163554293259576, 0) scale(1 1) translate(0.34906978865732075, 0) scale(1 1) translate(0.5817946504483253, 0) scale(1 1) translate(0.814537017743164, 0) scale(1 1) translate(1.0473038956930552, 0) scale(1 1) translate(0, 0) scale(0.1 0.1)  skewX(-1.000000) skewX(-0.777778) skewX(-0.555556) skewX(-0.333333) skewX(-0.111111) skewX(0.111111) skewX(0.333333) skewX(0.555556)">
    <sodipodi:namedview xmlns:sodipodi="http://sodipodi.sourceforge.net/DTD/sodipodi-0.dtd" id="ScribMaster"/>
    <filter id="blur">
      <feGaussianBlur stdDeviation="5.0"/>
    </filter>
    <defs/>
    <g xmlns:inkscape="http://www.inkscape.org/namespaces/inkscape" xmlns:scribmaster="http://scribmaster.com/scribmaster" id="1625348599975" transform="matrix(1,0,0,1,0,0)" style="opacity:1.0">
      <g id="1625348338071" inkscape:groupmode="layer" transform="matrix(1,0,0,1,0,0)" style="opacity:1.0">
        <path transform="matrix(1,0,0,1,0,0)" d="M 81.0 141.0 L 79.0 140.0 L 78.0 140.0 L 76.0 140.0 L 73.0 141.0 L 70.0 142.0 L 65.0 146.0 L 59.0 150.0 L 45.0 159.0 L 34.0 170.0 L 25.0 181.0 L 19.0 193.0 L 15.0 202.0 L 13.0 210.0 L 11.0 218.0 L 11.0 223.0 L 11.0 226.0 L 13.0 229.0 L 14.0 230.0 L 17.0 231.0 L 20.0 231.0 L 24.0 230.0 L 28.0 228.0 L 33.0 225.0 L 39.0 221.0 L 45.0 215.0 L 55.0 208.0 L 62.0 200.0 L 70.0 192.0 L 76.0 184.0 L 82.0 175.0 L 88.0 165.0 L 92.0 155.0 L 96.0 145.0 L 100.0 133.0 L 103.0 121.0 L 105.0 109.0 L 105.0 98.0 L 106.0 89.0 L 105.0 79.0 L 105.0 71.0 L 105.0 63.0 L 105.0 56.0 L 103.0 48.0 L 102.0 41.0 L 102.0 34.0 L 101.0 29.0 L 100.0 26.0 L 100.0 23.0 L 98.0 22.0 L 98.0 21.0 L 96.0 21.0 L 95.0 21.0 L 95.0 22.0 L 94.0 23.0 L 93.0 24.0 L 93.0 26.0 L 92.0 30.0 L 92.0 35.0 L 91.0 43.0 L 91.0 53.0 L 92.0 66.0 L 92.0 78.0 L 93.0 95.0 L 94.0 113.0 L 94.0 130.0 L 95.0 151.0 L 96.0 172.0 L 96.0 189.0 L 98.0 202.0 L 99.0 214.0 L 101.0 223.0 L 103.0 229.0 L 105.0 236.0 L 106.0 240.0 L 108.0 242.0 L 109.0 243.0" scribmaster:penstyle="draw" style="stroke:#000000;stroke-width:5.0;stroke-linejoin:round;stroke-linecap:round;stroke-opacity:1.0;fill:none"/>
      </g>
    </g>
  </g>
</svg>
