<?xml version='1.0' encoding='ASCII' standalone='yes'?>
<svg width = "6in" height = "4in" xmlns="http://www.w3.org/2000/svg" xmlns:xlink="http://www.w3.org/1999/xlink" version="1.1">
  <g transform="translate(-0.581794650448325, 0) scale(1 1) translate(-0.34906978865732063, 0) scale(1 1) translate(-0.1163554293259576, 0) scale(1 1) translate(0.1163554293259576, 0) scale(1 1) translate(0.34906978865732075, 0) scale(1 1) translate(0.5817946504483253, 0) scale(1 1) translate(0.814537017743164, 0) scale(1 1) translate(1.0473038956930552, 0) scale(1 1) translate(0, 0) scale(0.1 0.1)  skewX(-1.000000) skewX(-0.777778) skewX(-0.555556) skewX(-0.333333) skewX(-0.111111) skewX(0.111111) skewX(0.333333) skewX(0.555556)">
    <sodipodi:namedview xmlns:sodipodi="http://sodipodi.sourceforge.net/DTD/sodipodi-0.dtd" id="ScribMaster"/>
    <filter id="blur">
      <feGaussianBlur stdDeviation="5.0"/>
    </filter>
    <defs/>
    <g xmlns:inkscape="http://www.inkscape.org/namespaces/inkscape" xmlns:scribmaster="http://scribmaster.com/scribmaster" id="1627854330096" transform="matrix(1.041329,0,0,1.041329,-16.413086,-15.68722)" style="opacity:1.0">
      <g id="1627851273342" inkscape:groupmode="layer" transform="matrix(1,0,0,1,0,0)" style="opacity:1.0">
        <path transform="matrix(1,0,0,1,0,0)" d="M 122.35619 73.643585 L 120.43557 74.6039 L 120.43557 75.56421 L 120.43557 78.445145 L 121.39588 81.32607 L 121.39588 89.00857 L 122.35619 99.57198 L 123.316505 111.09572 L 123.316505 124.54008 L 124.27682 140.86536 L 125.23713 156.23033 L 126.19743 169.67468 L 127.157745 181.19843 L 128.11806 192.72215 L 129.07837 201.36494 L 130.03868 209.04744 L 130.03868 214.80931 L 130.03868 219.61086 L 130.03868 224.41241 L 130.03868 227.29335 L 129.07837 230.17429 L 128.11806 233.05522 L 127.157745 234.97583 L 126.19743 236.89645 L 124.27682 238.81708 L 122.35619 240.7377 L 119.47526 241.69801 L 117.554634 243.61864 L 115.63402 243.61864 L 112.75308 243.61864 L 110.83246 242.65833 L 106.99122 241.69801 L 104.11028 239.77739 L 101.22935 238.81708 L 97.38811 236.89645 L 94.50717 234.97583 L 90.665924 234.01553 L 86.824684 232.09491 L 83.94375 230.17429 L 81.06282 228.25366 L 78.181885 226.33304 L 76.26126 224.41241 L 75.30095 221.53148 L 73.38033 218.65054" scribmaster:penstyle="draw" style="stroke:#000000;stroke-width:5.0;stroke-linejoin:round;stroke-linecap:round;stroke-opacity:1.0;fill:none"/>
      </g>
    </g>
  </g>
</svg>
