<?xml version='1.0' encoding='ASCII' standalone='yes'?>
<svg width = "6in" height = "4in" xmlns="http://www.w3.org/2000/svg" xmlns:xlink="http://www.w3.org/1999/xlink" version="1.1">
  <g transform="translate(0.34906978865732075, 0) scale(1 1) translate(0.5817946504483253, 0) scale(1 1) translate(0.814537017743164, 0) scale(1 1) translate(1.0473038956930552, 0) scale(1 1) translate(0, 0) scale(0.1 0.1)  skewX(-1.000000) skewX(-0.777778) skewX(-0.555556) skewX(-0.333333)">
    <sodipodi:namedview xmlns:sodipodi="http://sodipodi.sourceforge.net/DTD/sodipodi-0.dtd" id="ScribMaster"/>
    <filter id="blur">
      <feGaussianBlur stdDeviation="5.0"/>
    </filter>
    <defs/>
    <g xmlns:inkscape="http://www.inkscape.org/namespaces/inkscape" xmlns:scribmaster="http://scribmaster.com/scribmaster" id="1627854311644" transform="matrix(1.041329,0,0,1.041329,-16.413086,-15.68722)" style="opacity:1.0">
      <g id="1627851273342" inkscape:groupmode="layer" transform="matrix(1,0,0,1,0,0)" style="opacity:1.0">
        <path transform="matrix(1,0,0,1,0,0)" d="M 116.59433 86.12763 L 114.673706 89.00857 L 115.63402 91.889496 L 116.59433 99.57198 L 117.554634 109.175095 L 119.47526 121.65914 L 121.39588 137.98442 L 123.316505 151.42877 L 124.27682 164.87312 L 126.19743 176.39687 L 126.19743 187.9206 L 126.19743 196.5634 L 126.19743 205.20619 L 126.19743 211.92838 L 125.23713 217.69023 L 123.316505 223.4521 L 122.35619 227.29335 L 119.47526 230.17429 L 116.59433 234.01553 L 114.673706 235.93614 L 111.79277 238.81708 L 107.95153 241.69801 L 104.11028 242.65833 L 100.269035 243.61864 L 97.38811 242.65833 L 93.54686 241.69801 L 89.70562 239.77739 L 85.86437 237.85677 L 82.023125 235.93614 L 79.1422 233.05522 L 76.26126 230.17429 L 73.38033 227.29335 L 71.45971 224.41241 L 70.4994 220.57117 L 70.4994 216.72993" scribmaster:penstyle="draw" style="stroke:#000000;stroke-width:5.0;stroke-linejoin:round;stroke-linecap:round;stroke-opacity:1.0;fill:none"/>
      </g>
    </g>
  </g>
</svg>
