<?xml version='1.0' encoding='UTF-8' standalone='no' ?><svg xmlns="http://www.w3.org/2000/svg" xmlns:scribmaster="http://scribmaster.com/scribmaster" xmlns:sodipodi="http://sodipodi.sourceforge.net/DTD/sodipodi-0.dtd" xmlns:inkscape="http://www.inkscape.org/namespaces/inkscape" xmlns:xlink="http://www.w3.org/1999/xlink" version="1.2" width="800" height="1014"><sodipodi:namedview id="ScribMaster" /><filter id="blur"><feGaussianBlur stdDeviation="5.0" /></filter><defs /><g id="1625348780909" transform="matrix(1,0,0,1,0,0)" style="opacity:1.0"><g id="1625348338071" inkscape:groupmode="layer" transform="matrix(1,0,0,1,0,0)" style="opacity:1.0"><path transform="matrix(1,0,0,1,0,0)" d="M 33.0 11.0 L 33.0 12.0 L 33.0 13.0 L 33.0 14.0 L 33.0 15.0 L 34.0 17.0 L 34.0 20.0 L 34.0 24.0 L 34.0 29.0 L 33.0 35.0 L 32.0 45.0 L 31.0 58.0 L 29.0 72.0 L 27.0 90.0 L 26.0 106.0 L 23.0 120.0 L 21.0 132.0 L 20.0 145.0 L 18.0 156.0 L 16.0 166.0 L 15.0 174.0 L 14.0 181.0 L 13.0 189.0 L 13.0 197.0 L 12.0 204.0 L 11.0 210.0 L 10.0 215.0 L 10.0 219.0 L 10.0 222.0 L 10.0 224.0 L 10.0 226.0 L 10.0 224.0 L 10.0 223.0 L 10.0 221.0 L 11.0 217.0 L 14.0 211.0 L 18.0 202.0 L 24.0 192.0 L 29.0 182.0 L 34.0 172.0 L 37.0 164.0 L 41.0 157.0 L 44.0 150.0 L 49.0 145.0 L 54.0 141.0 L 58.0 137.0 L 61.0 135.0 L 64.0 134.0 L 66.0 133.0 L 68.0 133.0 L 69.0 134.0 L 70.0 135.0 L 71.0 136.0 L 72.0 138.0 L 74.0 141.0 L 75.0 145.0 L 76.0 152.0 L 78.0 161.0 L 80.0 174.0 L 81.0 186.0 L 83.0 196.0 L 85.0 205.0 L 87.0 212.0 L 89.0 218.0" scribmaster:penstyle="draw" style="stroke:#000000;stroke-width:5.0;stroke-linejoin:round;stroke-linecap:round;stroke-opacity:1.0;fill:none" /></g></g></svg>