<?xml version='1.0' encoding='ASCII' standalone='yes'?>
<svg width = "6in" height = "4in" xmlns="http://www.w3.org/2000/svg" xmlns:xlink="http://www.w3.org/1999/xlink" version="1.1">
  <g transform="translate(-0.1163554293259576, 0) scale(1 1) translate(0.1163554293259576, 0) scale(1 1) translate(0.34906978865732075, 0) scale(1 1) translate(0.5817946504483253, 0) scale(1 1) translate(0.814537017743164, 0) scale(1 1) translate(1.0473038956930552, 0) scale(1 1) translate(0, 0) scale(0.1 0.1)  skewX(-1.000000) skewX(-0.777778) skewX(-0.555556) skewX(-0.333333) skewX(-0.111111) skewX(0.111111)">
    <sodipodi:namedview xmlns:sodipodi="http://sodipodi.sourceforge.net/DTD/sodipodi-0.dtd" id="ScribMaster"/>
    <filter id="blur">
      <feGaussianBlur stdDeviation="5.0"/>
    </filter>
    <defs/>
    <g xmlns:inkscape="http://www.inkscape.org/namespaces/inkscape" xmlns:scribmaster="http://scribmaster.com/scribmaster" id="1627852384703" transform="matrix(1.032782,0,0,1.032782,-14.899414,-13.325867)" style="opacity:1.0">
      <g id="1627851273342" inkscape:groupmode="layer" transform="matrix(1,0,0,1,0,0)" style="opacity:1.0">
        <path transform="matrix(1,0,0,1,0,0)" d="M 74.45852 140.71301 L 73.49026 139.74475 L 73.49026 138.77649 L 72.521996 137.80824 L 72.521996 136.83998 L 71.55374 135.87172 L 72.521996 136.83998 L 72.521996 139.74475 L 73.49026 144.58604 L 74.45852 153.30037 L 76.395035 165.88773 L 77.36329 181.37987 L 78.33155 195.90375 L 79.299805 208.4911 L 81.23632 218.17369 L 81.23632 226.88802 L 82.20458 233.66583 L 82.20458 237.53886 L 83.172844 239.47539 L 83.172844 238.50713 L 83.172844 237.53886 L 83.172844 236.5706" scribmaster:penstyle="draw" style="stroke:#000000;stroke-width:5.0;stroke-linejoin:round;stroke-linecap:round;stroke-opacity:1.0;fill:none"/>
        <path transform="matrix(1,0,0,1,0,0)" d="M 122.871445 150.3956 L 120.93492 148.45908 L 120.93492 147.49081 L 119.96667 147.49081 L 118.998405 147.49081 L 118.03015 148.45908 L 116.093636 149.42734 L 115.125374 152.3321 L 112.2206 156.20514 L 110.28408 161.04643 L 107.3793 166.85599 L 103.50627 172.66554 L 100.601494 177.50684 L 96.72846 183.31639 L 93.823685 188.15768 L 91.88717 192.03072 L 88.98239 195.90375 L 88.01414 198.80852 L 87.045876 200.74504 L 86.077614 201.7133 L 85.10936 203.64981 L 85.10936 204.61807 L 85.10936 205.58633 L 86.077614 206.5546 L 87.045876 207.52284 L 87.045876 208.4911 L 88.01414 209.45937 L 90.91891 211.39589 L 92.85542 214.30066 L 95.7602 216.23718 L 100.601494 219.14195 L 104.474525 223.01498 L 110.28408 226.88802 L 116.093636 230.76105 L 121.90318 233.66583 L 126.74448 237.53886 L 131.58577 240.44363 L 135.4588 243.34842 L 139.33185 246.25319 L 141.26836 248.18971 L 143.20486 251.09448" scribmaster:penstyle="draw" style="stroke:#000000;stroke-width:5.0;stroke-linejoin:round;stroke-linecap:round;stroke-opacity:1.0;fill:none"/>
      </g>
    </g>
  </g>
</svg>
