<?xml version='1.0' encoding='ASCII' standalone='yes'?>
<svg width = "6in" height = "4in" xmlns="http://www.w3.org/2000/svg" xmlns:xlink="http://www.w3.org/1999/xlink" version="1.1">
  <g transform="translate(0.814537017743164, 0) scale(1 1) translate(1.0473038956930552, 0) scale(1 1) translate(0, 0) scale(0.1 0.1)  skewX(-1.000000) skewX(-0.777778)">
    <sodipodi:namedview xmlns:sodipodi="http://sodipodi.sourceforge.net/DTD/sodipodi-0.dtd" id="ScribMaster"/>
    <filter id="blur">
      <feGaussianBlur stdDeviation="5.0"/>
    </filter>
    <defs/>
    <g xmlns:inkscape="http://www.inkscape.org/namespaces/inkscape" xmlns:scribmaster="http://scribmaster.com/scribmaster" id="1627852367873" transform="matrix(1.032782,0,0,1.032782,-14.899414,-13.325867)" style="opacity:1.0">
      <g id="1627851273342" inkscape:groupmode="layer" transform="matrix(1,0,0,1,0,0)" style="opacity:1.0">
        <path transform="matrix(1,0,0,1,0,0)" d="M 71.55374 141.68126 L 70.58548 140.71301 L 70.58548 139.74475 L 69.617226 139.74475 L 68.648964 139.74475 L 68.648964 140.71301 L 68.648964 143.61778 L 69.617226 147.49081 L 70.58548 154.26863 L 70.58548 164.91946 L 71.55374 179.44334 L 72.521996 191.06245 L 72.521996 201.7133 L 73.49026 210.42763 L 74.45852 219.14195 L 74.45852 224.9515 L 75.42677 229.7928 L 75.42677 232.69757 L 76.395035 233.66583 L 76.395035 232.69757 L 77.36329 231.72931 L 77.36329 230.76105" scribmaster:penstyle="draw" style="stroke:#000000;stroke-width:5.0;stroke-linejoin:round;stroke-linecap:round;stroke-opacity:1.0;fill:none"/>
        <path transform="matrix(1,0,0,1,0,0)" d="M 115.125374 154.26863 L 112.2206 155.2369 L 111.25234 158.14166 L 109.31582 161.04643 L 107.3793 165.88773 L 104.474525 169.76076 L 100.601494 175.57031 L 97.69672 181.37987 L 94.79195 186.22116 L 91.88717 190.0942 L 89.95065 193.96722 L 88.01414 195.90375 L 87.045876 197.84026 L 86.077614 199.77678 L 85.10936 200.74504 L 85.10936 201.7133 L 86.077614 202.68155 L 87.045876 203.64981 L 88.01414 204.61807 L 89.95065 206.5546 L 92.85542 208.4911 L 97.69672 212.36414 L 103.50627 216.23718 L 109.31582 220.11021 L 115.125374 223.01498 L 119.96667 224.9515 L 124.80796 227.85628 L 129.64926 229.7928 L 133.5223 231.72931 L 136.42706 232.69757 L 138.36359 233.66583" scribmaster:penstyle="draw" style="stroke:#000000;stroke-width:5.0;stroke-linejoin:round;stroke-linecap:round;stroke-opacity:1.0;fill:none"/>
      </g>
    </g>
  </g>
</svg>
