<?xml version='1.0' encoding='ASCII' standalone='yes'?>
<svg width = "6in" height = "4in" xmlns="http://www.w3.org/2000/svg" xmlns:xlink="http://www.w3.org/1999/xlink" version="1.1">
  <g transform="translate(-0.8145370177431639, 0) scale(1 1) translate(-0.581794650448325, 0) scale(1 1) translate(-0.34906978865732063, 0) scale(1 1) translate(-0.1163554293259576, 0) scale(1 1) translate(0.1163554293259576, 0) scale(1 1) translate(0.34906978865732075, 0) scale(1 1) translate(0.5817946504483253, 0) scale(1 1) translate(0.814537017743164, 0) scale(1 1) translate(1.0473038956930552, 0) scale(1 1) translate(0, 0) scale(0.1 0.1)  skewX(-1.000000) skewX(-0.777778) skewX(-0.555556) skewX(-0.333333) skewX(-0.111111) skewX(0.111111) skewX(0.333333) skewX(0.555556) skewX(0.777778)">
    <sodipodi:namedview xmlns:sodipodi="http://sodipodi.sourceforge.net/DTD/sodipodi-0.dtd" id="ScribMaster"/>
    <filter id="blur">
      <feGaussianBlur stdDeviation="5.0"/>
    </filter>
    <defs/>
    <g xmlns:inkscape="http://www.inkscape.org/namespaces/inkscape" xmlns:scribmaster="http://scribmaster.com/scribmaster" id="1627852350167" transform="matrix(1.032782,0,0,1.032782,-14.899414,-13.325867)" style="opacity:1.0">
      <g id="1627851273342" inkscape:groupmode="layer" transform="matrix(1,0,0,1,0,0)" style="opacity:1.0">
        <path transform="matrix(1,0,0,1,0,0)" d="M 79.299805 128.12566 L 77.36329 127.157394 L 77.36329 128.12566 L 77.36329 131.03043 L 77.36329 135.87172 L 77.36329 144.58604 L 77.36329 156.20514 L 77.36329 170.72902 L 77.36329 185.2529 L 77.36329 195.90375 L 77.36329 204.61807 L 77.36329 212.36414 L 77.36329 219.14195 L 77.36329 224.9515 L 77.36329 228.82454 L 77.36329 233.66583 L 77.36329 237.53886 L 77.36329 239.47539 L 77.36329 242.38016 L 77.36329 243.34842 L 78.33155 241.4119" scribmaster:penstyle="draw" style="stroke:#000000;stroke-width:5.0;stroke-linejoin:round;stroke-linecap:round;stroke-opacity:1.0;fill:none"/>
        <path transform="matrix(1,0,0,1,0,0)" d="M 128.681 132.96695 L 127.71274 132.96695 L 126.74448 132.96695 L 126.74448 133.9352 L 125.776215 134.90346 L 125.776215 135.87172 L 124.80796 136.83998 L 122.871445 137.80824 L 121.90318 139.74475 L 119.96667 142.64952 L 118.03015 145.5543 L 115.125374 150.3956 L 111.25234 154.26863 L 108.347565 159.10992 L 103.50627 164.91946 L 98.66498 170.72902 L 94.79195 175.57031 L 91.88717 179.44334 L 88.98239 183.31639 L 87.045876 185.2529 L 86.077614 187.18942 L 85.10936 188.15768 L 85.10936 189.12593 L 85.10936 190.0942 L 86.077614 192.03072 L 88.01414 194.93549 L 90.91891 197.84026 L 95.7602 202.68155 L 101.569756 209.45937 L 110.28408 215.26892 L 118.03015 220.11021 L 125.776215 223.98325 L 132.55403 225.91975 L 138.36359 227.85628 L 143.20486 228.82454" scribmaster:penstyle="draw" style="stroke:#000000;stroke-width:5.0;stroke-linejoin:round;stroke-linecap:round;stroke-opacity:1.0;fill:none"/>
      </g>
    </g>
  </g>
</svg>
