<?xml version='1.0' encoding='UTF-8' standalone='no' ?><svg xmlns="http://www.w3.org/2000/svg" xmlns:scribmaster="http://scribmaster.com/scribmaster" xmlns:sodipodi="http://sodipodi.sourceforge.net/DTD/sodipodi-0.dtd" xmlns:inkscape="http://www.inkscape.org/namespaces/inkscape" xmlns:xlink="http://www.w3.org/1999/xlink" version="1.2" width="800" height="1014"><sodipodi:namedview id="ScribMaster" /><filter id="blur"><feGaussianBlur stdDeviation="5.0" /></filter><defs /><g id="1625348539622" transform="matrix(1,0,0,1,0,0)" style="opacity:1.0"><g id="1625348338071" inkscape:groupmode="layer" transform="matrix(1,0,0,1,0,0)" style="opacity:1.0"><path transform="matrix(1,0,0,1,0,0)" d="M 58.0 134.0 L 56.0 135.0 L 54.0 136.0 L 47.0 139.0 L 39.0 146.0 L 31.0 152.0 L 25.0 158.0 L 20.0 165.0 L 16.0 171.0 L 14.0 179.0 L 12.0 188.0 L 11.0 195.0 L 10.0 203.0 L 9.0 210.0 L 10.0 216.0 L 12.0 220.0 L 19.0 222.0 L 27.0 222.0 L 38.0 221.0 L 49.0 219.0 L 61.0 217.0 L 72.0 215.0 L 82.0 214.0" scribmaster:penstyle="draw" style="stroke:#000000;stroke-width:5.0;stroke-linejoin:round;stroke-linecap:round;stroke-opacity:1.0;fill:none" /></g></g></svg>