<?xml version='1.0' encoding='ASCII' standalone='yes'?>
<svg width = "6in" height = "4in" xmlns="http://www.w3.org/2000/svg" xmlns:xlink="http://www.w3.org/1999/xlink" version="1.1">
  <g transform="translate(-1.0473038956930552, 0) scale(1 1) translate(-0.8145370177431639, 0) scale(1 1) translate(-0.581794650448325, 0) scale(1 1) translate(-0.34906978865732063, 0) scale(1 1) translate(-0.1163554293259576, 0) scale(1 1) translate(0.1163554293259576, 0) scale(1 1) translate(0.34906978865732075, 0) scale(1 1) translate(0.5817946504483253, 0) scale(1 1) translate(0.814537017743164, 0) scale(1 1) translate(1.0473038956930552, 0) scale(1 1) translate(0, 0) scale(0.1 0.1)  skewX(-1.000000) skewX(-0.777778) skewX(-0.555556) skewX(-0.333333) skewX(-0.111111) skewX(0.111111) skewX(0.333333) skewX(0.555556) skewX(0.777778) skewX(1.000000)">
    <sodipodi:namedview xmlns:sodipodi="http://sodipodi.sourceforge.net/DTD/sodipodi-0.dtd" id="ScribMaster"/>
    <filter id="blur">
      <feGaussianBlur stdDeviation="5.0"/>
    </filter>
    <defs/>
    <g xmlns:inkscape="http://www.inkscape.org/namespaces/inkscape" xmlns:scribmaster="http://scribmaster.com/scribmaster" id="1627855296974" transform="matrix(1.041329,0,0,1.041329,-16.413086,-15.68722)" style="opacity:1.0">
      <g id="1627851273342" inkscape:groupmode="layer" transform="matrix(1,0,0,1,0,0)" style="opacity:1.0">
        <path transform="matrix(1,0,0,1,0,0)" d="M 83.94375 110.13541 L 82.023125 108.21478 L 82.023125 107.25448 L 81.06282 107.25448 L 81.06282 106.29417 L 81.06282 105.333855 L 80.10251 104.37354 L 80.10251 103.41323 L 81.06282 101.49261 L 81.06282 100.532295 L 82.023125 98.61167 L 82.98344 97.65137 L 83.94375 95.73074 L 84.90406 94.77043 L 86.824684 93.81012 L 88.74531 92.84981 L 91.626236 91.889496 L 92.58655 91.889496 L 96.427795 92.84981 L 99.30872 93.81012 L 102.18966 95.73074 L 104.11028 98.61167 L 106.03091 102.45292 L 107.95153 107.25448 L 109.87215 113.976654 L 110.83246 120.69883 L 109.87215 128.38132 L 109.87215 136.0638 L 106.99122 145.66692 L 105.070595 153.3494 L 102.18966 161.03189 L 99.30872 167.75406 L 95.46748 173.51593 L 92.58655 179.2778 L 88.74531 184.07935 L 84.90406 188.8809 L 80.10251 193.68246 L 76.26126 197.52371 L 73.38033 201.36494 L 70.4994 204.24588 L 68.57877 206.1665 L 67.61846 207.12682 L 66.65815 208.08713 L 67.61846 208.08713 L 68.57877 209.04744 L 70.4994 209.04744 L 73.38033 209.04744 L 77.22157 210.00775 L 82.023125 210.00775 L 86.824684 210.00775 L 93.54686 210.00775 L 100.269035 210.00775 L 106.99122 210.00775 L 114.673706 209.04744 L 122.35619 209.04744 L 129.07837 208.08713 L 134.84024 208.08713 L 140.60211 208.08713 L 144.44336 208.08713 L 147.3243 208.08713 L 150.20522 209.04744 L 151.16553 209.04744 L 151.16553 210.00775 L 152.12584 210.00775 L 152.12584 210.96806" scribmaster:penstyle="draw" style="stroke:#000000;stroke-width:5.0;stroke-linejoin:round;stroke-linecap:round;stroke-opacity:1.0;fill:none"/>
      </g>
    </g>
  </g>
</svg>
