<?xml version='1.0' encoding='ASCII' standalone='yes'?>
<svg width = "6in" height = "4in" xmlns="http://www.w3.org/2000/svg" xmlns:xlink="http://www.w3.org/1999/xlink" version="1.1">
  <g transform="translate(-0.581794650448325, 0) scale(1 1) translate(-0.34906978865732063, 0) scale(1 1) translate(-0.1163554293259576, 0) scale(1 1) translate(0.1163554293259576, 0) scale(1 1) translate(0.34906978865732075, 0) scale(1 1) translate(0.5817946504483253, 0) scale(1 1) translate(0.814537017743164, 0) scale(1 1) translate(1.0473038956930552, 0) scale(1 1) translate(0, 0) scale(0.1 0.1)  skewX(-1.000000) skewX(-0.777778) skewX(-0.555556) skewX(-0.333333) skewX(-0.111111) skewX(0.111111) skewX(0.333333) skewX(0.555556)">
    <sodipodi:namedview xmlns:sodipodi="http://sodipodi.sourceforge.net/DTD/sodipodi-0.dtd" id="ScribMaster"/>
    <filter id="blur">
      <feGaussianBlur stdDeviation="5.0"/>
    </filter>
    <defs/>
    <g xmlns:inkscape="http://www.inkscape.org/namespaces/inkscape" xmlns:scribmaster="http://scribmaster.com/scribmaster" id="1627855280068" transform="matrix(1.041329,0,0,1.041329,-16.413086,-15.68722)" style="opacity:1.0">
      <g id="1627851273342" inkscape:groupmode="layer" transform="matrix(1,0,0,1,0,0)" style="opacity:1.0">
        <path transform="matrix(1,0,0,1,0,0)" d="M 79.1422 105.333855 L 78.181885 103.41323 L 78.181885 102.45292 L 78.181885 101.49261 L 78.181885 99.57198 L 79.1422 98.61167 L 80.10251 96.691055 L 82.023125 94.77043 L 82.98344 93.81012 L 84.90406 91.889496 L 86.824684 90.929184 L 88.74531 90.929184 L 91.626236 90.929184 L 94.50717 90.929184 L 97.38811 92.84981 L 100.269035 94.77043 L 102.18966 97.65137 L 105.070595 102.45292 L 106.99122 108.21478 L 107.95153 115.89728 L 107.95153 126.46069 L 105.070595 138.94473 L 102.18966 150.46846 L 98.34842 161.03189 L 93.54686 169.67468 L 89.70562 178.31749 L 85.86437 185.03966 L 81.06282 191.76184 L 76.26126 197.52371 L 71.45971 202.32526 L 68.57877 206.1665 L 65.697845 210.00775 L 64.73753 210.96806 L 63.77722 212.88869 L 63.77722 213.849 L 63.77722 214.80931 L 64.73753 215.76962 L 67.61846 215.76962 L 70.4994 216.72993 L 75.30095 216.72993 L 81.06282 217.69023 L 87.784996 217.69023 L 98.34842 217.69023 L 106.99122 217.69023 L 116.59433 217.69023 L 125.23713 216.72993 L 131.9593 215.76962 L 139.6418 215.76962 L 145.40367 215.76962 L 150.20522 215.76962 L 152.12584 215.76962 L 154.04646 215.76962" scribmaster:penstyle="draw" style="stroke:#000000;stroke-width:5.0;stroke-linejoin:round;stroke-linecap:round;stroke-opacity:1.0;fill:none"/>
      </g>
    </g>
  </g>
</svg>
