<?xml version='1.0' encoding='UTF-8' standalone='no' ?><svg xmlns="http://www.w3.org/2000/svg" xmlns:scribmaster="http://scribmaster.com/scribmaster" xmlns:sodipodi="http://sodipodi.sourceforge.net/DTD/sodipodi-0.dtd" xmlns:inkscape="http://www.inkscape.org/namespaces/inkscape" xmlns:xlink="http://www.w3.org/1999/xlink" version="1.2" width="800" height="1014"><sodipodi:namedview id="ScribMaster" /><filter id="blur"><feGaussianBlur stdDeviation="5.0" /></filter><defs /><g id="1627851371655" transform="matrix(1.032782,0,0,1.032782,-14.899414,-13.325867)" style="opacity:1.0"><g id="1627851273342" inkscape:groupmode="layer" transform="matrix(1,0,0,1,0,0)" style="opacity:1.0"><path transform="matrix(1,0,0,1,0,0)" d="M 793.0 698.0 L 793.0 698.01" scribmaster:penstyle="draw" style="stroke:#000000;stroke-width:5.0;stroke-linejoin:round;stroke-linecap:round;stroke-opacity:1.0;fill:none" /><path transform="matrix(1,0,0,1,0,0)" d="M 123.8397 150.3956 L 122.871445 148.45908 L 121.90318 147.49081 L 120.93492 146.52255 L 119.96667 145.5543 L 118.998405 144.58604 L 117.06189 144.58604 L 114.15711 142.64952 L 111.25234 141.68126 L 108.347565 141.68126 L 104.474525 140.71301 L 99.63324 141.68126 L 93.823685 142.64952 L 88.98239 144.58604 L 85.10936 146.52255 L 80.26807 152.3321 L 74.45852 159.10992 L 69.617226 169.76076 L 64.77593 184.28464 L 62.839417 196.87201 L 63.80767 208.4911 L 67.6807 216.23718 L 74.45852 223.01498 L 83.172844 226.88802 L 91.88717 229.7928 L 101.569756 232.69757 L 109.31582 233.66583 L 117.06189 233.66583 L 124.80796 232.69757 L 132.55403 231.72931 L 138.36359 229.7928 L 144.17313 226.88802" scribmaster:penstyle="draw" style="stroke:#000000;stroke-width:5.0;stroke-linejoin:round;stroke-linecap:round;stroke-opacity:1.0;fill:none" /></g></g></svg>