<?xml version='1.0' encoding='ASCII' standalone='yes'?>
<svg width = "6in" height = "4in" xmlns="http://www.w3.org/2000/svg" xmlns:xlink="http://www.w3.org/1999/xlink" version="1.1">
  <g transform="translate(0.5817946504483253, 0) scale(1 1) translate(0.814537017743164, 0) scale(1 1) translate(1.0473038956930552, 0) scale(1 1) translate(0, 0) scale(0.1 0.1)  skewX(-1.000000) skewX(-0.777778) skewX(-0.555556)">
    <sodipodi:namedview xmlns:sodipodi="http://sodipodi.sourceforge.net/DTD/sodipodi-0.dtd" id="ScribMaster"/>
    <filter id="blur">
      <feGaussianBlur stdDeviation="5.0"/>
    </filter>
    <defs/>
    <g xmlns:inkscape="http://www.inkscape.org/namespaces/inkscape" xmlns:scribmaster="http://scribmaster.com/scribmaster" id="1625349230930" transform="matrix(1,0,0,1,0,0)" style="opacity:1.0">
      <g id="1625348338071" inkscape:groupmode="layer" transform="matrix(1,0,0,1,0,0)" style="opacity:1.0">
        <path transform="matrix(1,0,0,1,0,0)" d="M 83.0 136.0 L 81.0 135.0 L 80.0 136.0 L 78.0 137.0 L 75.0 138.0 L 72.0 141.0 L 69.0 143.0 L 66.0 146.0 L 64.0 148.0 L 62.0 151.0 L 61.0 154.0 L 60.0 157.0 L 61.0 160.0 L 62.0 163.0 L 63.0 167.0 L 64.0 170.0 L 66.0 173.0 L 68.0 177.0 L 69.0 180.0 L 70.0 183.0 L 71.0 186.0 L 71.0 189.0 L 70.0 192.0 L 69.0 195.0 L 66.0 198.0 L 62.0 202.0 L 58.0 206.0 L 46.0 212.0 L 38.0 217.0 L 31.0 220.0 L 25.0 223.0" scribmaster:penstyle="draw" style="stroke:#000000;stroke-width:5.0;stroke-linejoin:round;stroke-linecap:round;stroke-opacity:1.0;fill:none"/>
      </g>
    </g>
  </g>
</svg>
