<?xml version='1.0' encoding='ASCII' standalone='yes'?>
<svg width = "6in" height = "4in" xmlns="http://www.w3.org/2000/svg" xmlns:xlink="http://www.w3.org/1999/xlink" version="1.1">
  <g transform="translate(-0.34906978865732063, 0) scale(1 1) translate(-0.1163554293259576, 0) scale(1 1) translate(0.1163554293259576, 0) scale(1 1) translate(0.34906978865732075, 0) scale(1 1) translate(0.5817946504483253, 0) scale(1 1) translate(0.814537017743164, 0) scale(1 1) translate(1.0473038956930552, 0) scale(1 1) translate(0, 0) scale(0.1 0.1)  skewX(-1.000000) skewX(-0.777778) skewX(-0.555556) skewX(-0.333333) skewX(-0.111111) skewX(0.111111) skewX(0.333333)">
    <sodipodi:namedview xmlns:sodipodi="http://sodipodi.sourceforge.net/DTD/sodipodi-0.dtd" id="ScribMaster"/>
    <filter id="blur">
      <feGaussianBlur stdDeviation="5.0"/>
    </filter>
    <defs/>
    <g xmlns:inkscape="http://www.inkscape.org/namespaces/inkscape" xmlns:scribmaster="http://scribmaster.com/scribmaster" id="1625349246670" transform="matrix(1,0,0,1,0,0)" style="opacity:1.0">
      <g id="1625348338071" inkscape:groupmode="layer" transform="matrix(1,0,0,1,0,0)" style="opacity:1.0">
        <path transform="matrix(1,0,0,1,0,0)" d="M 85.0 133.0 L 83.0 132.0 L 83.0 131.0 L 82.0 131.0 L 81.0 131.0 L 80.0 131.0 L 79.0 131.0 L 77.0 131.0 L 76.0 132.0 L 74.0 133.0 L 72.0 134.0 L 69.0 136.0 L 67.0 137.0 L 65.0 140.0 L 62.0 142.0 L 60.0 145.0 L 59.0 148.0 L 58.0 151.0 L 57.0 154.0 L 57.0 158.0 L 58.0 161.0 L 59.0 165.0 L 60.0 168.0 L 62.0 172.0 L 63.0 176.0 L 65.0 179.0 L 65.0 183.0 L 66.0 187.0 L 66.0 190.0 L 65.0 194.0 L 63.0 198.0 L 60.0 203.0 L 57.0 207.0 L 54.0 211.0 L 44.0 218.0 L 38.0 223.0 L 33.0 228.0 L 29.0 230.0 L 26.0 231.0" scribmaster:penstyle="draw" style="stroke:#000000;stroke-width:5.0;stroke-linejoin:round;stroke-linecap:round;stroke-opacity:1.0;fill:none"/>
      </g>
    </g>
  </g>
</svg>
