<?xml version='1.0' encoding='ASCII' standalone='yes'?>
<svg width = "6in" height = "4in" xmlns="http://www.w3.org/2000/svg" xmlns:xlink="http://www.w3.org/1999/xlink" version="1.1">
  <g transform="translate(-0.1163554293259576, 0) scale(1 1) translate(0.1163554293259576, 0) scale(1 1) translate(0.34906978865732075, 0) scale(1 1) translate(0.5817946504483253, 0) scale(1 1) translate(0.814537017743164, 0) scale(1 1) translate(1.0473038956930552, 0) scale(1 1) translate(0, 0) scale(0.1 0.1)  skewX(-1.000000) skewX(-0.777778) skewX(-0.555556) skewX(-0.333333) skewX(-0.111111) skewX(0.111111)">
    <sodipodi:namedview xmlns:sodipodi="http://sodipodi.sourceforge.net/DTD/sodipodi-0.dtd" id="ScribMaster"/>
    <filter id="blur">
      <feGaussianBlur stdDeviation="5.0"/>
    </filter>
    <defs/>
    <g xmlns:inkscape="http://www.inkscape.org/namespaces/inkscape" xmlns:scribmaster="http://scribmaster.com/scribmaster" id="1625349871849" transform="matrix(1,0,0,1,-1.316833,-1.489594)" style="opacity:1.0">
      <g id="1625348338071" inkscape:groupmode="layer" transform="matrix(1,0,0,1,0,0)" style="opacity:1.0">
        <path transform="matrix(1,0,0,1,0,0)" d="M 54.316833 37.489594 L 52.316833 38.489594 L 52.316833 41.489594 L 52.316833 48.489594 L 51.316833 59.489594 L 49.316833 74.48959 L 47.316833 98.48959 L 46.316833 120.48959 L 44.316833 141.4896 L 43.316833 158.4896 L 41.316833 172.4896 L 40.316833 184.4896 L 39.316833 196.4896 L 37.316833 205.4896 L 36.316833 211.4896 L 34.316833 217.4896 L 32.316833 222.4896 L 31.316833 225.4896 L 30.316833 227.4896 L 30.316833 228.4896 L 30.316833 229.4896 L 31.316833 230.4896" scribmaster:penstyle="draw" style="stroke:#000000;stroke-width:5.0;stroke-linejoin:round;stroke-linecap:round;stroke-opacity:1.0;fill:none"/>
        <path transform="matrix(1,0,0,1,0,0)" d="M 59.316833 56.489594 L 58.316833 55.489594 L 58.316833 54.489594 L 59.316833 53.489594 L 60.316833 52.489594 L 61.316833 51.489594 L 64.31683 50.489594 L 69.31683 49.489594 L 76.31683 48.489594 L 83.31683 47.489594 L 89.31683 46.489594 L 96.31683 45.489594 L 102.31683 44.489594 L 108.31683 44.489594 L 113.31683 44.489594 L 118.31683 44.489594 L 122.31683 44.489594 L 126.31683 45.489594 L 128.31683 46.489594" scribmaster:penstyle="draw" style="stroke:#000000;stroke-width:5.0;stroke-linejoin:round;stroke-linecap:round;stroke-opacity:1.0;fill:none"/>
        <path transform="matrix(1,0,0,1,0,0)" d="M 56.316833 137.4896 L 58.316833 136.4896 L 63.316833 135.4896 L 72.31683 134.4896 L 82.31683 133.4896 L 91.31683 132.4896 L 102.31683 130.4896 L 113.31683 128.4896 L 123.31683 125.48959 L 131.31683 123.48959" scribmaster:penstyle="draw" style="stroke:#000000;stroke-width:5.0;stroke-linejoin:round;stroke-linecap:round;stroke-opacity:1.0;fill:none"/>
      </g>
    </g>
  </g>
</svg>
