<?xml version='1.0' encoding='ASCII' standalone='yes'?>
<svg width = "6in" height = "4in" xmlns="http://www.w3.org/2000/svg" xmlns:xlink="http://www.w3.org/1999/xlink" version="1.1">
  <g transform="translate(0.1163554293259576, 0) scale(1 1) translate(0.34906978865732075, 0) scale(1 1) translate(0.5817946504483253, 0) scale(1 1) translate(0.814537017743164, 0) scale(1 1) translate(1.0473038956930552, 0) scale(1 1) translate(0, 0) scale(0.1 0.1)  skewX(-1.000000) skewX(-0.777778) skewX(-0.555556) skewX(-0.333333) skewX(-0.111111)">
    <sodipodi:namedview xmlns:sodipodi="http://sodipodi.sourceforge.net/DTD/sodipodi-0.dtd" id="ScribMaster"/>
    <filter id="blur">
      <feGaussianBlur stdDeviation="5.0"/>
    </filter>
    <defs/>
    <g xmlns:inkscape="http://www.inkscape.org/namespaces/inkscape" xmlns:scribmaster="http://scribmaster.com/scribmaster" id="1625351719835" transform="matrix(1,0,0,1,-1.316833,-1.489594)" style="opacity:1.0">
      <g id="1625348338071" inkscape:groupmode="layer" transform="matrix(1,0,0,1,0,0)" style="opacity:1.0">
        <path transform="matrix(1,0,0,1,0,0)" d="M 40.316833 59.489594 L 41.316833 58.489594 L 42.316833 57.489594 L 44.316833 57.489594 L 48.316833 57.489594 L 53.316833 57.489594 L 60.316833 58.489594 L 67.31683 59.489594 L 73.31683 60.489594 L 80.31683 62.489594 L 86.31683 64.48959 L 91.31683 67.48959 L 96.31683 70.48959 L 100.31683 74.48959 L 104.31683 78.48959 L 106.31683 83.48959 L 109.31683 88.48959 L 110.31683 94.48959 L 111.31683 101.48959 L 111.31683 109.48959 L 110.31683 117.48959 L 109.31683 126.48959 L 106.31683 137.4896 L 102.31683 147.4896 L 96.31683 159.4896 L 91.31683 169.4896 L 85.31683 178.4896 L 79.31683 188.4896 L 73.31683 196.4896 L 67.31683 203.4896 L 62.316833 209.4896 L 58.316833 213.4896 L 55.316833 217.4896 L 53.316833 219.4896 L 52.316833 220.4896 L 51.316833 222.4896 L 50.316833 223.4896 L 51.316833 223.4896 L 52.316833 223.4896 L 54.316833 223.4896 L 56.316833 223.4896 L 61.316833 223.4896 L 68.31683 222.4896 L 79.31683 222.4896 L 89.31683 221.4896 L 98.31683 220.4896 L 107.31683 220.4896 L 116.31683 219.4896 L 124.31683 218.4896 L 132.31683 217.4896 L 139.31683 216.4896 L 146.31683 215.4896 L 151.31683 214.4896" scribmaster:penstyle="draw" style="stroke:#000000;stroke-width:5.0;stroke-linejoin:round;stroke-linecap:round;stroke-opacity:1.0;fill:none"/>
      </g>
    </g>
  </g>
</svg>
