<?xml version='1.0' encoding='ASCII' standalone='yes'?>
<svg width = "6in" height = "4in" xmlns="http://www.w3.org/2000/svg" xmlns:xlink="http://www.w3.org/1999/xlink" version="1.1">
  <g transform="translate(1.0473038956930552, 0) scale(1 1) translate(0, 0) scale(0.1 0.1)  skewX(-1.000000)">
    <sodipodi:namedview xmlns:sodipodi="http://sodipodi.sourceforge.net/DTD/sodipodi-0.dtd" id="ScribMaster"/>
    <filter id="blur">
      <feGaussianBlur stdDeviation="5.0"/>
    </filter>
    <defs/>
    <g xmlns:inkscape="http://www.inkscape.org/namespaces/inkscape" xmlns:scribmaster="http://scribmaster.com/scribmaster" id="1625351730767" transform="matrix(1,0,0,1,-1.316833,-1.489594)" style="opacity:1.0">
      <g id="1625348338071" inkscape:groupmode="layer" transform="matrix(1,0,0,1,0,0)" style="opacity:1.0">
        <path transform="matrix(1,0,0,1,0,0)" d="M 22.316833 56.489594 L 24.316833 55.489594 L 27.316833 54.489594 L 30.316833 54.489594 L 34.316833 54.489594 L 39.316833 54.489594 L 43.316833 54.489594 L 49.316833 55.489594 L 55.316833 56.489594 L 61.316833 57.489594 L 66.31683 59.489594 L 71.31683 61.489594 L 77.31683 64.48959 L 81.31683 68.48959 L 86.31683 71.48959 L 90.31683 75.48959 L 93.31683 80.48959 L 96.31683 85.48959 L 98.31683 92.48959 L 99.31683 99.48959 L 98.31683 107.48959 L 97.31683 115.48959 L 95.31683 124.48959 L 90.31683 137.4896 L 84.31683 148.4896 L 79.31683 158.4896 L 74.31683 168.4896 L 68.31683 178.4896 L 62.316833 187.4896 L 57.316833 195.4896 L 52.316833 202.4896 L 48.316833 208.4896 L 45.316833 214.4896 L 44.316833 218.4896 L 43.316833 220.4896 L 43.316833 221.4896 L 44.316833 222.4896 L 45.316833 223.4896 L 46.316833 223.4896 L 50.316833 222.4896 L 55.316833 222.4896 L 66.31683 221.4896 L 79.31683 220.4896 L 93.31683 218.4896 L 106.31683 217.4896 L 116.31683 215.4896 L 126.31683 214.4896 L 135.31683 213.4896 L 144.31683 213.4896 L 151.31683 214.4896" scribmaster:penstyle="draw" style="stroke:#000000;stroke-width:5.0;stroke-linejoin:round;stroke-linecap:round;stroke-opacity:1.0;fill:none"/>
      </g>
    </g>
  </g>
</svg>
