<?xml version='1.0' encoding='UTF-8' standalone='no' ?><svg xmlns="http://www.w3.org/2000/svg" xmlns:scribmaster="http://scribmaster.com/scribmaster" xmlns:sodipodi="http://sodipodi.sourceforge.net/DTD/sodipodi-0.dtd" xmlns:inkscape="http://www.inkscape.org/namespaces/inkscape" xmlns:xlink="http://www.w3.org/1999/xlink" version="1.2" width="800" height="1014"><sodipodi:namedview id="ScribMaster" /><filter id="blur"><feGaussianBlur stdDeviation="5.0" /></filter><defs /><g id="1625351875177" transform="matrix(1,0,0,1,-1.316833,-1.489594)" style="opacity:1.0"><g id="1625348338071" inkscape:groupmode="layer" transform="matrix(1,0,0,1,0,0)" style="opacity:1.0"><path transform="matrix(1,0,0,1,0,0)" d="M 56.316833 49.489594 L 57.316833 49.489594 L 58.316833 50.489594 L 60.316833 50.489594 L 64.31683 50.489594 L 68.31683 50.489594 L 73.31683 51.489594 L 81.31683 51.489594 L 88.31683 51.489594 L 94.31683 50.489594 L 101.31683 50.489594 L 107.31683 50.489594 L 113.31683 51.489594 L 119.31683 51.489594 L 123.31683 52.489594 L 127.31683 54.489594 L 130.31683 56.489594 L 131.31683 60.489594 L 131.31683 65.48959 L 131.31683 74.48959 L 128.31683 88.48959 L 124.31683 106.48959 L 118.31683 125.48959 L 107.31683 150.4896 L 96.31683 173.4896 L 88.31683 191.4896 L 81.31683 208.4896 L 75.31683 219.4896 L 71.31683 228.4896 L 69.31683 233.4896 L 67.31683 236.4896" scribmaster:penstyle="draw" style="stroke:#000000;stroke-width:5.0;stroke-linejoin:round;stroke-linecap:round;stroke-opacity:1.0;fill:none" /></g></g></svg>