<?xml version='1.0' encoding='UTF-8' standalone='no' ?><svg xmlns="http://www.w3.org/2000/svg" xmlns:scribmaster="http://scribmaster.com/scribmaster" xmlns:sodipodi="http://sodipodi.sourceforge.net/DTD/sodipodi-0.dtd" xmlns:inkscape="http://www.inkscape.org/namespaces/inkscape" xmlns:xlink="http://www.w3.org/1999/xlink" version="1.2" width="800" height="1014"><sodipodi:namedview id="ScribMaster" /><filter id="blur"><feGaussianBlur stdDeviation="5.0" /></filter><defs /><g id="1627852659274" transform="matrix(1.032782,0,0,1.032782,-14.899414,-13.325867)" style="opacity:1.0"><g id="1627851273342" inkscape:groupmode="layer" transform="matrix(1,0,0,1,0,0)" style="opacity:1.0"><path transform="matrix(1,0,0,1,0,0)" d="M 70.58548 175.57031 L 68.648964 177.50684 L 68.648964 180.4116 L 68.648964 185.2529 L 69.617226 192.03072 L 69.617226 201.7133 L 68.648964 214.30066 L 67.6807 229.7928 L 67.6807 242.38016 L 65.74419 253.031 L 64.77593 261.74533 L 64.77593 269.49142 L 63.80767 277.2375 L 62.839417 282.07877 L 62.839417 285.9518 L 62.839417 286.92007 L 62.839417 287.88834 L 62.839417 286.92007 L 62.839417 285.9518 L 62.839417 284.0153 L 61.871155 281.1105 L 61.871155 275.30096 L 61.871155 265.61838 L 61.871155 253.031 L 61.871155 241.4119 L 62.839417 225.91975 L 62.839417 212.36414 L 64.77593 198.80852 L 67.6807 186.22116 L 70.58548 175.57031 L 74.45852 165.88773 L 78.33155 158.14166 L 82.20458 151.36385 L 87.045876 145.5543 L 92.85542 139.74475 L 97.69672 135.87172 L 102.53801 132.96695 L 106.41105 131.03043 L 110.28408 131.03043 L 113.18886 131.03043 L 116.093636 131.99869 L 118.03015 133.9352 L 119.96667 135.87172 L 122.871445 137.80824 L 124.80796 141.68126 L 126.74448 145.5543 L 127.71274 150.3956 L 129.64926 157.1734 L 129.64926 163.95122 L 128.681 170.72902 L 126.74448 177.50684 L 124.80796 183.31639 L 120.93492 190.0942 L 116.093636 195.90375 L 110.28408 200.74504 L 104.474525 205.58633 L 98.66498 208.4911 L 91.88717 211.39589 L 87.045876 213.3324 L 83.172844 214.30066" scribmaster:penstyle="draw" style="stroke:#000000;stroke-width:5.0;stroke-linejoin:round;stroke-linecap:round;stroke-opacity:1.0;fill:none" /></g></g></svg>