<?xml version='1.0' encoding='ASCII' standalone='yes'?>
<svg width = "6in" height = "4in" xmlns="http://www.w3.org/2000/svg" xmlns:xlink="http://www.w3.org/1999/xlink" version="1.1">
  <g transform="translate(-0.34906978865732063, 0) scale(1 1) translate(-0.1163554293259576, 0) scale(1 1) translate(0.1163554293259576, 0) scale(1 1) translate(0.34906978865732075, 0) scale(1 1) translate(0.5817946504483253, 0) scale(1 1) translate(0.814537017743164, 0) scale(1 1) translate(1.0473038956930552, 0) scale(1 1) translate(0, 0) scale(0.1 0.1)  skewX(-1.000000) skewX(-0.777778) skewX(-0.555556) skewX(-0.333333) skewX(-0.111111) skewX(0.111111) skewX(0.333333)">
    <sodipodi:namedview xmlns:sodipodi="http://sodipodi.sourceforge.net/DTD/sodipodi-0.dtd" id="ScribMaster"/>
    <filter id="blur">
      <feGaussianBlur stdDeviation="5.0"/>
    </filter>
    <defs/>
    <g xmlns:inkscape="http://www.inkscape.org/namespaces/inkscape" xmlns:scribmaster="http://scribmaster.com/scribmaster" id="1627852603572" transform="matrix(1.032782,0,0,1.032782,-14.899414,-13.325867)" style="opacity:1.0">
      <g id="1627851273342" inkscape:groupmode="layer" transform="matrix(1,0,0,1,0,0)" style="opacity:1.0">
        <path transform="matrix(1,0,0,1,0,0)" d="M 106.41105 137.80824 L 105.44279 136.83998 L 103.50627 136.83998 L 102.53801 135.87172 L 101.569756 134.90346 L 100.601494 134.90346 L 98.66498 133.9352 L 96.72846 133.9352 L 94.79195 132.96695 L 92.85542 132.96695 L 90.91891 131.99869 L 88.01414 131.99869 L 84.1411 131.99869 L 81.23632 132.96695 L 78.33155 133.9352 L 75.42677 134.90346 L 72.521996 136.83998 L 68.648964 140.71301 L 63.80767 146.52255 L 59.93464 152.3321 L 56.0616 160.07819 L 55.093346 167.82425 L 55.093346 175.57031 L 55.093346 182.34813 L 56.0616 189.12593 L 57.998123 194.93549 L 61.871155 199.77678 L 65.74419 202.68155 L 70.58548 205.58633 L 74.45852 208.4911 L 79.299805 209.45937 L 83.172844 209.45937 L 88.01414 208.4911 L 91.88717 206.5546 L 96.72846 204.61807 L 101.569756 200.74504 L 105.44279 196.87201 L 109.31582 192.99896 L 112.2206 189.12593 L 116.093636 184.28464 L 118.03015 178.4751 L 119.96667 173.6338 L 120.93492 167.82425 L 121.90318 162.98296 L 121.90318 158.14166 L 121.90318 153.30037 L 120.93492 149.42734 L 118.998405 144.58604 L 117.06189 141.68126 L 115.125374 139.74475 L 111.25234 138.77649 L 107.3793 137.80824 L 103.50627 138.77649 L 99.63324 139.74475 L 95.7602 141.68126" scribmaster:penstyle="draw" style="stroke:#000000;stroke-width:5.0;stroke-linejoin:round;stroke-linecap:round;stroke-opacity:1.0;fill:none"/>
      </g>
    </g>
  </g>
</svg>
