<?xml version='1.0' encoding='ASCII' standalone='yes'?>
<svg width = "6in" height = "4in" xmlns="http://www.w3.org/2000/svg" xmlns:xlink="http://www.w3.org/1999/xlink" version="1.1">
  <g transform="translate(-0.1163554293259576, 0) scale(1 1) translate(0.1163554293259576, 0) scale(1 1) translate(0.34906978865732075, 0) scale(1 1) translate(0.5817946504483253, 0) scale(1 1) translate(0.814537017743164, 0) scale(1 1) translate(1.0473038956930552, 0) scale(1 1) translate(0, 0) scale(0.1 0.1)  skewX(-1.000000) skewX(-0.777778) skewX(-0.555556) skewX(-0.333333) skewX(-0.111111) skewX(0.111111)">
    <sodipodi:namedview xmlns:sodipodi="http://sodipodi.sourceforge.net/DTD/sodipodi-0.dtd" id="ScribMaster"/>
    <filter id="blur">
      <feGaussianBlur stdDeviation="5.0"/>
    </filter>
    <defs/>
    <g xmlns:inkscape="http://www.inkscape.org/namespaces/inkscape" xmlns:scribmaster="http://scribmaster.com/scribmaster" id="1627852614901" transform="matrix(1.032782,0,0,1.032782,-14.899414,-13.325867)" style="opacity:1.0">
      <g id="1627851273342" inkscape:groupmode="layer" transform="matrix(1,0,0,1,0,0)" style="opacity:1.0">
        <path transform="matrix(1,0,0,1,0,0)" d="M 93.823685 162.0147 L 91.88717 161.04643 L 90.91891 161.04643 L 89.95065 160.07819 L 88.98239 160.07819 L 88.01414 160.07819 L 87.045876 159.10992 L 85.10936 159.10992 L 84.1411 158.14166 L 83.172844 158.14166 L 81.23632 158.14166 L 80.26807 158.14166 L 78.33155 157.1734 L 76.395035 157.1734 L 74.45852 158.14166 L 72.521996 159.10992 L 70.58548 161.04643 L 68.648964 163.95122 L 65.74419 167.82425 L 63.80767 172.66554 L 62.839417 179.44334 L 60.902893 186.22116 L 60.902893 192.99896 L 61.871155 198.80852 L 62.839417 204.61807 L 65.74419 210.42763 L 68.648964 215.26892 L 73.49026 220.11021 L 77.36329 223.01498 L 83.172844 224.9515 L 88.98239 226.88802 L 94.79195 225.91975 L 100.601494 224.9515 L 105.44279 223.01498 L 110.28408 220.11021 L 116.093636 215.26892 L 121.90318 210.42763 L 125.776215 204.61807 L 130.61751 198.80852 L 133.5223 192.99896 L 135.4588 186.22116 L 136.42706 179.44334 L 135.4588 173.6338 L 133.5223 167.82425 L 130.61751 162.98296 L 126.74448 159.10992 L 121.90318 156.20514 L 116.093636 154.26863 L 110.28408 153.30037 L 104.474525 153.30037 L 97.69672 154.26863 L 91.88717 156.20514 L 86.077614 158.14166 L 81.23632 162.0147 L 77.36329 165.88773" scribmaster:penstyle="draw" style="stroke:#000000;stroke-width:5.0;stroke-linejoin:round;stroke-linecap:round;stroke-opacity:1.0;fill:none"/>
      </g>
    </g>
  </g>
</svg>
