<?xml version='1.0' encoding='ASCII' standalone='yes'?>
<svg width = "6in" height = "4in" xmlns="http://www.w3.org/2000/svg" xmlns:xlink="http://www.w3.org/1999/xlink" version="1.1">
  <g transform="translate(-1.0473038956930552, 0) scale(1 1) translate(-0.8145370177431639, 0) scale(1 1) translate(-0.581794650448325, 0) scale(1 1) translate(-0.34906978865732063, 0) scale(1 1) translate(-0.1163554293259576, 0) scale(1 1) translate(0.1163554293259576, 0) scale(1 1) translate(0.34906978865732075, 0) scale(1 1) translate(0.5817946504483253, 0) scale(1 1) translate(0.814537017743164, 0) scale(1 1) translate(1.0473038956930552, 0) scale(1 1) translate(0, 0) scale(0.1 0.1)  skewX(-1.000000) skewX(-0.777778) skewX(-0.555556) skewX(-0.333333) skewX(-0.111111) skewX(0.111111) skewX(0.333333) skewX(0.555556) skewX(0.777778) skewX(1.000000)">
    <sodipodi:namedview xmlns:sodipodi="http://sodipodi.sourceforge.net/DTD/sodipodi-0.dtd" id="ScribMaster"/>
    <filter id="blur">
      <feGaussianBlur stdDeviation="5.0"/>
    </filter>
    <defs/>
    <g xmlns:inkscape="http://www.inkscape.org/namespaces/inkscape" xmlns:scribmaster="http://scribmaster.com/scribmaster" id="1627855818961" transform="matrix(1.041329,0,0,1.041329,-16.413086,-18.68722)" style="opacity:1.0">
      <g id="1627851273342" inkscape:groupmode="layer" transform="matrix(1,0,0,1,0,0)" style="opacity:1.0">
        <path transform="matrix(1,0,0,1,0,0)" d="M 777.2883 360.7766 L 777.2883 360.78622" scribmaster:penstyle="draw" style="stroke:#000000;stroke-width:5.0;stroke-linejoin:round;stroke-linecap:round;stroke-opacity:1.0;fill:none"/>
        <path transform="matrix(1,0,0,1,0,0)" d="M 106.03091 142.78598 L 105.070595 143.74629 L 104.11028 143.74629 L 103.14997 143.74629 L 101.22935 142.78598 L 100.269035 142.78598 L 99.30872 141.82567 L 97.38811 141.82567 L 96.427795 141.82567 L 94.50717 140.86536 L 92.58655 140.86536 L 90.665924 141.82567 L 87.784996 142.78598 L 83.94375 144.7066 L 80.10251 147.58754 L 75.30095 152.38908 L 71.45971 158.15096 L 67.61846 164.87314 L 64.73753 170.635 L 63.77722 176.39687 L 62.81691 183.11905 L 62.81691 188.8809 L 63.77722 193.68246 L 66.65815 198.48402 L 69.539085 201.36496 L 72.42002 204.24588 L 75.30095 206.1665 L 78.181885 207.12682 L 81.06282 206.1665 L 82.98344 205.20619 L 84.90406 203.28557 L 87.784996 201.36496 L 90.665924 197.52371 L 92.58655 190.80153 L 95.46748 183.11905 L 97.38811 175.43655 L 98.34842 167.75406 L 99.30872 161.9922 L 98.34842 157.19064 L 97.38811 153.3494 L 95.46748 151.42877 L 94.50717 150.46846 L 93.54686 150.46846 L 92.58655 150.46846 L 92.58655 151.42877 L 91.626236 152.38908 L 90.665924 154.30971 L 90.665924 155.27002 L 91.626236 158.15096 L 92.58655 161.9922 L 93.54686 164.87314 L 95.46748 169.67468 L 99.30872 173.51593 L 102.18966 176.39687 L 106.03091 179.2778 L 109.87215 182.15874 L 112.75308 184.07936 L 116.59433 185.03966 L 120.43557 185.99997 L 123.316505 185.03966 L 125.23713 184.07936 L 127.157745 181.19843 L 129.07837 179.2778 L 130.03868 174.47624 L 130.999 169.67468 L 130.999 163.91283 L 130.03868 157.19064 L 129.07837 151.42877 L 126.19743 144.7066 L 122.35619 137.98442 L 117.554634 133.18288 L 111.79277 128.38132 L 106.03091 125.50038 L 100.269035 123.57976 L 92.58655 122.619446 L 84.90406 123.57976 L 78.181885 126.46069 L 71.45971 131.26225 L 65.697845 137.98442 L 58.975666 150.46846 L 55.134422 166.79376 L 54.17411 184.07936 L 55.134422 200.40465 L 57.055046 213.849 L 62.81691 225.37273 L 71.45971 233.05522 L 82.023125 236.89647 L 92.58655 237.85677 L 103.14997 234.97585 L 113.713394 231.1346 L 123.316505 225.37273 L 132.91962 220.57117 L 140.60211 212.88869 L 145.40367 208.08713" scribmaster:penstyle="draw" style="stroke:#000000;stroke-width:5.0;stroke-linejoin:round;stroke-linecap:round;stroke-opacity:1.0;fill:none"/>
      </g>
    </g>
  </g>
</svg>
