<?xml version='1.0' encoding='ASCII' standalone='yes'?>
<svg width = "6in" height = "4in" xmlns="http://www.w3.org/2000/svg" xmlns:xlink="http://www.w3.org/1999/xlink" version="1.1">
  <g transform="translate(-0.1163554293259576, 0) scale(1 1) translate(0.1163554293259576, 0) scale(1 1) translate(0.34906978865732075, 0) scale(1 1) translate(0.5817946504483253, 0) scale(1 1) translate(0.814537017743164, 0) scale(1 1) translate(1.0473038956930552, 0) scale(1 1) translate(0, 0) scale(0.1 0.1)  skewX(-1.000000) skewX(-0.777778) skewX(-0.555556) skewX(-0.333333) skewX(-0.111111) skewX(0.111111)">
    <sodipodi:namedview xmlns:sodipodi="http://sodipodi.sourceforge.net/DTD/sodipodi-0.dtd" id="ScribMaster"/>
    <filter id="blur">
      <feGaussianBlur stdDeviation="5.0"/>
    </filter>
    <defs/>
    <g xmlns:inkscape="http://www.inkscape.org/namespaces/inkscape" xmlns:scribmaster="http://scribmaster.com/scribmaster" id="1627855850681" transform="matrix(1.041329,0,0,1.041329,-16.413086,-18.68722)" style="opacity:1.0">
      <g id="1627851273342" inkscape:groupmode="layer" transform="matrix(1,0,0,1,0,0)" style="opacity:1.0">
        <path transform="matrix(1,0,0,1,0,0)" d="M 777.2883 360.7766 L 777.2883 360.78622" scribmaster:penstyle="draw" style="stroke:#000000;stroke-width:5.0;stroke-linejoin:round;stroke-linecap:round;stroke-opacity:1.0;fill:none"/>
        <path transform="matrix(1,0,0,1,0,0)" d="M 97.38811 162.95251 L 96.427795 162.95251 L 95.46748 162.95251 L 94.50717 162.95251 L 92.58655 162.95251 L 92.58655 163.91283 L 90.665924 164.87314 L 88.74531 164.87314 L 85.86437 165.83345 L 82.98344 167.75406 L 80.10251 169.67468 L 77.22157 173.51593 L 72.42002 179.2778 L 68.57877 186.96028 L 65.697845 194.64278 L 64.73753 201.36496 L 64.73753 208.08713 L 65.697845 212.88869 L 69.539085 217.69025 L 73.38033 219.61087 L 77.22157 220.57117 L 80.10251 219.61087 L 82.98344 218.65056 L 85.86437 217.69025 L 88.74531 214.80931 L 91.626236 211.92838 L 93.54686 208.08713 L 95.46748 204.24588 L 97.38811 199.44434 L 98.34842 195.60309 L 99.30872 190.80153 L 99.30872 186.96028 L 100.269035 184.07936 L 100.269035 182.15874 L 100.269035 181.19843 L 99.30872 181.19843 L 99.30872 183.11905 L 100.269035 185.03966 L 101.22935 187.9206 L 102.18966 189.84122 L 104.11028 192.72215 L 106.99122 194.64278 L 109.87215 196.5634 L 112.75308 198.48402 L 115.63402 199.44434 L 117.554634 199.44434 L 120.43557 199.44434 L 123.316505 198.48402 L 125.23713 196.5634 L 127.157745 194.64278 L 130.03868 191.76184 L 130.999 186.96028 L 132.91962 181.19843 L 133.87993 175.43655 L 133.87993 168.71437 L 131.9593 162.95251 L 130.03868 157.19064 L 125.23713 150.46846 L 119.47526 145.66692 L 113.713394 142.78598 L 106.99122 140.86536 L 98.34842 139.90504 L 88.74531 141.82567 L 80.10251 144.7066 L 71.45971 148.54785 L 57.055046 158.15096 L 48.412247 166.79376 L 42.65038 176.39687 L 38.809135 185.03966 L 38.809135 195.60309 L 40.729755 205.20619 L 46.491623 215.76962 L 51.29318 225.37273 L 57.055046 233.05522 L 66.65815 240.7377 L 77.22157 246.49957 L 87.784996 251.30113 L 98.34842 254.18207 L 108.911835 252.26144 L 118.514946 248.4202 L 127.157745 241.69801 L 135.80055 233.05522 L 141.56242 223.4521 L 147.3243 214.80931 L 152.12584 208.08713" scribmaster:penstyle="draw" style="stroke:#000000;stroke-width:5.0;stroke-linejoin:round;stroke-linecap:round;stroke-opacity:1.0;fill:none"/>
      </g>
    </g>
  </g>
</svg>
