<?xml version='1.0' encoding='ASCII' standalone='yes'?>
<svg width = "6in" height = "4in" xmlns="http://www.w3.org/2000/svg" xmlns:xlink="http://www.w3.org/1999/xlink" version="1.1">
  <g transform="translate(0.34906978865732075, 0) scale(1 1) translate(0.5817946504483253, 0) scale(1 1) translate(0.814537017743164, 0) scale(1 1) translate(1.0473038956930552, 0) scale(1 1) translate(0, 0) scale(0.1 0.1)  skewX(-1.000000) skewX(-0.777778) skewX(-0.555556) skewX(-0.333333)">
    <sodipodi:namedview xmlns:sodipodi="http://sodipodi.sourceforge.net/DTD/sodipodi-0.dtd" id="ScribMaster"/>
    <filter id="blur">
      <feGaussianBlur stdDeviation="5.0"/>
    </filter>
    <defs/>
    <g xmlns:inkscape="http://www.inkscape.org/namespaces/inkscape" xmlns:scribmaster="http://scribmaster.com/scribmaster" id="1625351159694" transform="matrix(1,0,0,1,-1.316833,-1.489594)" style="opacity:1.0">
      <g id="1625348338071" inkscape:groupmode="layer" transform="matrix(1,0,0,1,0,0)" style="opacity:1.0">
        <path transform="matrix(1,0,0,1,0,0)" d="M 99.31683 39.489594 L 97.31683 40.489594 L 96.31683 40.489594 L 95.31683 42.489594 L 93.31683 43.489594 L 91.31683 45.489594 L 89.31683 48.489594 L 86.31683 50.489594 L 83.31683 55.489594 L 79.31683 61.489594 L 74.31683 67.48959 L 70.31683 74.48959 L 65.31683 84.48959 L 60.316833 95.48959 L 56.316833 106.48959 L 54.316833 116.48959 L 51.316833 125.48959 L 49.316833 137.4896 L 47.316833 148.4896 L 46.316833 160.4896 L 45.316833 171.4896 L 45.316833 183.4896 L 46.316833 194.4896 L 47.316833 203.4896 L 50.316833 211.4896 L 54.316833 218.4896 L 60.316833 222.4896 L 67.31683 225.4896 L 74.31683 227.4896 L 81.31683 228.4896 L 86.31683 228.4896 L 92.31683 227.4896 L 98.31683 226.4896 L 105.31683 224.4896 L 111.31683 220.4896 L 119.31683 216.4896 L 127.31683 209.4896 L 134.31683 201.4896 L 141.31683 191.4896 L 148.31683 179.4896 L 156.31683 164.4896 L 161.31683 151.4896 L 166.31683 139.4896 L 169.31683 125.48959 L 170.31683 113.48959 L 170.31683 102.48959 L 169.31683 93.48959 L 166.31683 83.48959 L 162.31683 74.48959 L 158.31683 67.48959 L 152.31683 61.489594 L 146.31683 56.489594 L 140.31683 53.489594 L 135.31683 51.489594 L 130.31683 50.489594 L 125.31683 49.489594 L 121.31683 49.489594 L 116.31683 48.489594 L 112.31683 48.489594 L 109.31683 48.489594" scribmaster:penstyle="draw" style="stroke:#000000;stroke-width:5.0;stroke-linejoin:round;stroke-linecap:round;stroke-opacity:1.0;fill:none"/>
        <path transform="matrix(1,0,0,1,0,0)" d="M 136.31683 172.4896 L 137.31683 173.4896 L 138.31683 175.4896 L 141.31683 179.4896 L 146.31683 185.4896 L 155.31683 195.4896 L 165.31683 205.4896 L 173.31683 214.4896 L 180.31683 221.4896 L 186.31683 225.4896 L 190.31683 229.4896" scribmaster:penstyle="draw" style="stroke:#000000;stroke-width:5.0;stroke-linejoin:round;stroke-linecap:round;stroke-opacity:1.0;fill:none"/>
      </g>
    </g>
  </g>
</svg>
