<?xml version='1.0' encoding='ASCII' standalone='yes'?>
<svg width = "6in" height = "4in" xmlns="http://www.w3.org/2000/svg" xmlns:xlink="http://www.w3.org/1999/xlink" version="1.1">
  <g transform="translate(-0.581794650448325, 0) scale(1 1) translate(-0.34906978865732063, 0) scale(1 1) translate(-0.1163554293259576, 0) scale(1 1) translate(0.1163554293259576, 0) scale(1 1) translate(0.34906978865732075, 0) scale(1 1) translate(0.5817946504483253, 0) scale(1 1) translate(0.814537017743164, 0) scale(1 1) translate(1.0473038956930552, 0) scale(1 1) translate(0, 0) scale(0.1 0.1)  skewX(-1.000000) skewX(-0.777778) skewX(-0.555556) skewX(-0.333333) skewX(-0.111111) skewX(0.111111) skewX(0.333333) skewX(0.555556)">
    <sodipodi:namedview xmlns:sodipodi="http://sodipodi.sourceforge.net/DTD/sodipodi-0.dtd" id="ScribMaster"/>
    <filter id="blur">
      <feGaussianBlur stdDeviation="5.0"/>
    </filter>
    <defs/>
    <g xmlns:inkscape="http://www.inkscape.org/namespaces/inkscape" xmlns:scribmaster="http://scribmaster.com/scribmaster" id="1625351176999" transform="matrix(1,0,0,1,-1.316833,-1.489594)" style="opacity:1.0">
      <g id="1625348338071" inkscape:groupmode="layer" transform="matrix(1,0,0,1,0,0)" style="opacity:1.0">
        <path transform="matrix(1,0,0,1,0,0)" d="M 88.31683 46.489594 L 86.31683 46.489594 L 85.31683 46.489594 L 83.31683 47.489594 L 81.31683 48.489594 L 78.31683 49.489594 L 73.31683 52.489594 L 68.31683 57.489594 L 63.316833 62.489594 L 55.316833 69.48959 L 44.316833 78.48959 L 36.316833 85.48959 L 30.316833 94.48959 L 25.316833 103.48959 L 21.316833 112.48959 L 18.316833 121.48959 L 16.316833 130.4896 L 15.3168335 142.4896 L 15.3168335 152.4896 L 16.316833 162.4896 L 18.316833 170.4896 L 22.316833 177.4896 L 28.316833 185.4896 L 34.316833 192.4896 L 39.316833 198.4896 L 45.316833 203.4896 L 53.316833 207.4896 L 61.316833 209.4896 L 70.31683 212.4896 L 79.31683 214.4896 L 86.31683 216.4896 L 93.31683 217.4896 L 99.31683 217.4896 L 105.31683 215.4896 L 109.31683 213.4896 L 113.31683 207.4896 L 117.31683 200.4896 L 121.31683 190.4896 L 127.31683 176.4896 L 131.31683 163.4896 L 133.31683 151.4896 L 135.31683 141.4896 L 137.31683 128.4896 L 138.31683 117.48959 L 138.31683 106.48959 L 139.31683 96.48959 L 139.31683 87.48959 L 138.31683 77.48959 L 136.31683 69.48959 L 132.31683 62.489594 L 128.31683 55.489594 L 123.31683 50.489594 L 118.31683 46.489594 L 112.31683 44.489594 L 107.31683 43.489594 L 101.31683 44.489594 L 97.31683 44.489594 L 94.31683 46.489594 L 91.31683 48.489594" scribmaster:penstyle="draw" style="stroke:#000000;stroke-width:5.0;stroke-linejoin:round;stroke-linecap:round;stroke-opacity:1.0;fill:none"/>
        <path transform="matrix(1,0,0,1,0,0)" d="M 116.31683 175.4896 L 117.31683 176.4896 L 118.31683 177.4896 L 121.31683 181.4896 L 124.31683 186.4896 L 129.31683 195.4896 L 136.31683 204.4896 L 145.31683 212.4896" scribmaster:penstyle="draw" style="stroke:#000000;stroke-width:5.0;stroke-linejoin:round;stroke-linecap:round;stroke-opacity:1.0;fill:none"/>
      </g>
    </g>
  </g>
</svg>
