<?xml version="1.0" encoding="UTF-8" standalone="no"?>
<svg
   xmlns:scribmaster="http://scribmaster.com/scribmaster"
   xmlns:dc="http://purl.org/dc/elements/1.1/"
   xmlns:cc="http://creativecommons.org/ns#"
   xmlns:rdf="http://www.w3.org/1999/02/22-rdf-syntax-ns#"
   xmlns:svg="http://www.w3.org/2000/svg"
   xmlns="http://www.w3.org/2000/svg"
   xmlns:sodipodi="http://sodipodi.sourceforge.net/DTD/sodipodi-0.dtd"
   xmlns:inkscape="http://www.inkscape.org/namespaces/inkscape"
   version="1.2"
   width="800"
   height="1014"
   id="svg12"
   sodipodi:docname="a.svg"
   inkscape:version="1.0.2-2 (e86c870879, 2021-01-15)">
  <metadata
     id="metadata14">
    <rdf:RDF>
      <cc:Work
         rdf:about="">
        <dc:format>image/svg+xml</dc:format>
        <dc:type
           rdf:resource="http://purl.org/dc/dcmitype/StillImage" />
      </cc:Work>
    </rdf:RDF>
  </metadata>
  <sodipodi:namedview
     id="ScribMaster"
     inkscape:document-rotation="0"
     showgrid="false"
     inkscape:zoom="0.8382643"
     inkscape:cx="400"
     inkscape:cy="507"
     inkscape:window-width="1258"
     inkscape:window-height="1040"
     inkscape:window-x="558"
     inkscape:window-y="83"
     inkscape:window-maximized="0"
     inkscape:current-layer="svg12" />
  <filter
     id="blur">
    <feGaussianBlur
       stdDeviation="5.0"
       id="feGaussianBlur3" />
  </filter>
  <defs
     id="defs6" />
  <g
     id="1620598676355"
     transform="matrix(1.1891681,0,0,1.2119127,-316.80341,-97.300246)"
     style="opacity:1">
    <g
       id="1620536817093"
       inkscape:groupmode="layer"
       style="opacity:1">
      <path
         d="m 365,124 h -1 -1 -2 l -3,2 -2,1 -3,2 -3,2 -5,6 -7,6 -7,8 -6,8 -5,8 -4,8 -3,6 -1,7 -1,5 1,4 1,2 2,2 2,1 h 3 l 3,-1 5,-3 5,-4 7,-6 6,-6 6,-7 4,-6 4,-6 3,-5 2,-5 1,-3 1,-2 1,-2 v -1 -1 1 1 l 1,2 v 3 l 1,4 1,5 2,8 3,7 5,6 9,5"
         scribmaster:penstyle="draw"
         style="fill:none;stroke:#000000;stroke-width:5;stroke-linecap:round;stroke-linejoin:round;stroke-opacity:1"
         id="path8" />
    </g>
  </g>
</svg>
