<?xml version='1.0' encoding='ASCII' standalone='yes'?>
<svg width = "6in" height = "4in" xmlns="http://www.w3.org/2000/svg" xmlns:xlink="http://www.w3.org/1999/xlink" version="1.1">
  <g transform="translate(0, 0) scale(.15 .15) ">
    <sodipodi:namedview xmlns:sodipodi="http://sodipodi.sourceforge.net/DTD/sodipodi-0.dtd" id="ScribMaster"/>
    <filter id="blur">
      <feGaussianBlur stdDeviation="5.0"/>
    </filter>
    <defs/>
    <g xmlns:inkscape="http://www.inkscape.org/namespaces/inkscape" xmlns:scribmaster="http://scribmaster.com/scribmaster" id="1620939869028" transform="matrix(1,0,0,1,124.996094,181.889359)" style="opacity:1.0">
      <g id="1620536817093" inkscape:groupmode="layer" transform="matrix(1,0,0,1,0,0)" style="opacity:1.0">
        <path transform="matrix(1,0,0,1,0,0)" d="M 34.003906 128.11064 L 34.003906 129.11064 L 34.003906 130.11064 L 34.003906 131.11064 L 35.003906 133.11064 L 35.003906 135.11064 L 35.003906 136.11064 L 35.003906 139.11064 L 36.003906 142.11064 L 37.003906 146.11064 L 37.003906 150.11064 L 38.003906 156.11064 L 38.003906 162.11064 L 39.003906 168.11064 L 39.003906 173.11064 L 40.003906 179.11064 L 40.003906 184.11064 L 40.003906 190.11064 L 40.003906 196.11064 L 40.003906 203.11064 L 40.003906 209.11064 L 41.003906 215.11064 L 42.003906 220.11064 L 43.003906 224.11064 L 43.003906 227.11064 L 44.003906 228.11064 L 44.003906 230.11064 L 45.003906 231.11064 L 45.003906 232.11064 L 46.003906 232.11064 L 47.003906 232.11064 L 48.003906 231.11064 L 49.003906 229.11064 L 51.003906 227.11064 L 52.003906 224.11064 L 54.003906 221.11064 L 56.003906 218.11064 L 59.003906 214.11064 L 61.003906 209.11064 L 63.003906 204.11064 L 65.00391 199.11064 L 68.00391 195.11064 L 70.00391 191.11064 L 72.00391 187.11064 L 74.00391 184.11064 L 75.00391 181.11064 L 77.00391 179.11064 L 78.00391 176.11064 L 79.00391 174.11064 L 80.00391 173.11064 L 81.00391 171.11064 L 82.00391 170.11064 L 83.00391 170.11064 L 84.00391 169.11064 L 85.00391 169.11064 L 85.00391 170.11064 L 86.00391 171.11064 L 87.00391 172.11064 L 87.00391 174.11064 L 88.00391 176.11064 L 90.00391 179.11064 L 90.00391 183.11064 L 91.00391 186.11064 L 92.00391 189.11064 L 93.00391 193.11064 L 94.00391 197.11064 L 95.00391 201.11064 L 96.00391 205.11064 L 97.00391 209.11064 L 98.00391 213.11064 L 99.00391 216.11064 L 100.00391 218.11064 L 101.00391 221.11064 L 102.00391 223.11064 L 103.00391 225.11064 L 104.00391 226.11064 L 105.00391 226.11064 L 106.00391 226.11064 L 107.00391 226.11064 L 109.00391 224.11064 L 111.00391 222.11064 L 113.00391 219.11064 L 115.00391 214.11064 L 118.00391 208.11064 L 121.00391 202.11064 L 124.00391 194.11064 L 127.00391 186.11064 L 130.0039 180.11064 L 133.0039 173.11064 L 136.0039 167.11064 L 138.0039 161.11064 L 140.0039 154.11064 L 143.0039 149.11064 L 145.0039 144.11064 L 146.0039 140.11064 L 148.0039 137.11064 L 149.0039 135.11064 L 149.0039 133.11064 L 150.0039 132.11064 L 151.0039 131.11064" scribmaster:penstyle="draw" style="stroke:#000000;stroke-width:1.0;stroke-linejoin:round;stroke-linecap:round;stroke-opacity:1.0;fill:none"/>
      </g>
    </g>
    <defs/>
    <g xmlns:inkscape="http://www.inkscape.org/namespaces/inkscape" id="1620939869029" transform="matrix(1,0,0,1,0,0)" style="opacity:1.0">
      <g id="1620621491459" inkscape:groupmode="layer" transform="matrix(1,0,0,1,0,0)" style="opacity:1.0"/>
    </g>
  </g>
  <g transform="translate(23, 0) scale(.15 .15) ">
    <sodipodi:namedview xmlns:sodipodi="http://sodipodi.sourceforge.net/DTD/sodipodi-0.dtd" id="ScribMaster"/>
    <filter id="blur">
      <feGaussianBlur stdDeviation="5.0"/>
    </filter>
    <defs/>
    <g xmlns:inkscape="http://www.inkscape.org/namespaces/inkscape" xmlns:scribmaster="http://scribmaster.com/scribmaster" id="1620939448935" transform="matrix(1,0,0,1,124.996094,181.889359)" style="opacity:1.0">
      <g id="1620536817093" inkscape:groupmode="layer" transform="matrix(1,0,0,1,0,0)" style="opacity:1.0">
        <path transform="matrix(1,0,0,1,0,0)" d="M 56.003906 18.110641 L 55.003906 17.110641 L 55.003906 16.110641 L 54.003906 16.110641 L 53.003906 16.110641 L 53.003906 17.110641 L 53.003906 19.110641 L 52.003906 21.110641 L 52.003906 25.110641 L 52.003906 28.110641 L 51.003906 32.11064 L 50.003906 38.11064 L 49.003906 45.11064 L 48.003906 52.11064 L 47.003906 60.11064 L 46.003906 71.11064 L 45.003906 81.11064 L 44.003906 92.11064 L 43.003906 103.11064 L 43.003906 116.11064 L 42.003906 130.11064 L 41.003906 141.11064 L 40.003906 153.11064 L 40.003906 165.11064 L 38.003906 176.11064 L 37.003906 186.11064 L 36.003906 195.11064 L 35.003906 204.11064 L 34.003906 211.11064 L 33.003906 218.11064 L 32.003906 223.11064 L 31.003906 226.11064 L 31.003906 228.11064 L 31.003906 229.11064 L 31.003906 230.11064 L 31.003906 228.11064 L 32.003906 227.11064 L 33.003906 224.11064 L 34.003906 220.11064 L 35.003906 214.11064 L 37.003906 206.11064 L 39.003906 199.11064 L 41.003906 190.11064 L 44.003906 183.11064 L 47.003906 176.11064 L 50.003906 169.11064 L 52.003906 163.11064 L 55.003906 158.11064 L 59.003906 153.11064 L 62.003906 149.11064 L 64.00391 146.11064 L 66.00391 145.11064 L 68.00391 144.11064 L 70.00391 143.11064 L 72.00391 143.11064 L 74.00391 143.11064 L 75.00391 144.11064 L 77.00391 145.11064 L 79.00391 147.11064 L 81.00391 151.11064 L 84.00391 158.11064 L 87.00391 169.11064 L 90.00391 178.11064 L 92.00391 189.11064 L 95.00391 199.11064 L 97.00391 208.11064 L 100.00391 214.11064 L 104.00391 218.11064" scribmaster:penstyle="draw" style="stroke:#000000;stroke-width:1.0;stroke-linejoin:round;stroke-linecap:round;stroke-opacity:1.0;fill:none"/>
      </g>
    </g>
    <defs/>
    <g xmlns:inkscape="http://www.inkscape.org/namespaces/inkscape" id="1620939448937" transform="matrix(1,0,0,1,0,0)" style="opacity:1.0">
      <g id="1620621491459" inkscape:groupmode="layer" transform="matrix(1,0,0,1,0,0)" style="opacity:1.0"/>
    </g>
  </g>
  <g transform="translate(41, 0) scale(.15 .15) ">
    <sodipodi:namedview xmlns:sodipodi="http://sodipodi.sourceforge.net/DTD/sodipodi-0.dtd" id="ScribMaster"/>
    <filter id="blur">
      <feGaussianBlur stdDeviation="5.0"/>
    </filter>
    <defs/>
    <g xmlns:inkscape="http://www.inkscape.org/namespaces/inkscape" xmlns:scribmaster="http://scribmaster.com/scribmaster" id="1620939376627" transform="matrix(1,0,0,1,124.996094,181.889359)" style="opacity:1.0">
      <g id="1620536817093" inkscape:groupmode="layer" transform="matrix(1,0,0,1,0,0)" style="opacity:1.0">
        <path transform="matrix(1,0,0,1,0,0)" d="M 53.003906 195.11064 L 53.003906 194.11064 L 54.003906 194.11064 L 55.003906 194.11064 L 56.003906 194.11064 L 57.003906 194.11064 L 58.003906 194.11064 L 60.003906 194.11064 L 61.003906 193.11064 L 63.003906 193.11064 L 65.00391 192.11064 L 69.00391 191.11064 L 72.00391 189.11064 L 77.00391 187.11064 L 82.00391 184.11064 L 87.00391 181.11064 L 91.00391 178.11064 L 95.00391 175.11064 L 98.00391 171.11064 L 101.00391 168.11064 L 103.00391 165.11064 L 105.00391 161.11064 L 105.00391 158.11064 L 105.00391 155.11064 L 104.00391 153.11064 L 102.00391 150.11064 L 99.00391 148.11064 L 95.00391 145.11064 L 91.00391 143.11064 L 87.00391 141.11064 L 82.00391 141.11064 L 77.00391 140.11064 L 70.00391 140.11064 L 64.00391 140.11064 L 58.003906 141.11064 L 52.003906 142.11064 L 46.003906 144.11064 L 41.003906 146.11064 L 35.003906 148.11064 L 30.003906 151.11064 L 26.003906 154.11064 L 22.003906 158.11064 L 19.003906 162.11064 L 17.003906 168.11064 L 15.003906 174.11064 L 15.003906 180.11064 L 15.003906 188.11064 L 17.003906 198.11064 L 20.003906 207.11064 L 23.003906 214.11064 L 27.003906 221.11064 L 33.003906 227.11064 L 41.003906 233.11064 L 50.003906 236.11064 L 59.003906 238.11064 L 71.00391 240.11064 L 87.00391 238.11064 L 101.00391 236.11064 L 114.00391 233.11064" scribmaster:penstyle="draw" style="stroke:#000000;stroke-width:1.0;stroke-linejoin:round;stroke-linecap:round;stroke-opacity:1.0;fill:none"/>
      </g>
    </g>
    <defs/>
    <g xmlns:inkscape="http://www.inkscape.org/namespaces/inkscape" id="1620939376629" transform="matrix(1,0,0,1,0,0)" style="opacity:1.0">
      <g id="1620621491459" inkscape:groupmode="layer" transform="matrix(1,0,0,1,0,0)" style="opacity:1.0"/>
    </g>
  </g>
  <g transform="translate(59, 0) scale(.15 .15) ">
    <sodipodi:namedview xmlns:sodipodi="http://sodipodi.sourceforge.net/DTD/sodipodi-0.dtd" id="ScribMaster"/>
    <filter id="blur">
      <feGaussianBlur stdDeviation="5.0"/>
    </filter>
    <defs/>
    <g xmlns:inkscape="http://www.inkscape.org/namespaces/inkscape" xmlns:scribmaster="http://scribmaster.com/scribmaster" id="1620939740120" transform="matrix(1,0,0,1,124.996094,181.889359)" style="opacity:1.0">
      <g id="1620536817093" inkscape:groupmode="layer" transform="matrix(1,0,0,1,0,0)" style="opacity:1.0">
        <path transform="matrix(1,0,0,1,0,0)" d="M 62.003906 131.11064 L 61.003906 130.11064 L 60.003906 130.11064 L 59.003906 130.11064 L 59.003906 131.11064 L 59.003906 132.11064 L 59.003906 134.11064 L 59.003906 136.11064 L 59.003906 138.11064 L 59.003906 141.11064 L 59.003906 145.11064 L 59.003906 149.11064 L 59.003906 153.11064 L 59.003906 158.11064 L 59.003906 164.11064 L 59.003906 170.11064 L 58.003906 176.11064 L 58.003906 181.11064 L 57.003906 187.11064 L 57.003906 193.11064 L 56.003906 198.11064 L 56.003906 203.11064 L 56.003906 208.11064 L 55.003906 213.11064 L 55.003906 217.11064 L 55.003906 220.11064 L 55.003906 223.11064 L 55.003906 225.11064 L 55.003906 227.11064 L 55.003906 228.11064 L 55.003906 229.11064 L 55.003906 230.11064 L 55.003906 231.11064 L 55.003906 232.11064 L 55.003906 233.11064 L 55.003906 234.11064 L 55.003906 235.11064 L 54.003906 235.11064 L 54.003906 234.11064 L 53.003906 233.11064 L 53.003906 232.11064 L 53.003906 231.11064 L 53.003906 229.11064 L 53.003906 227.11064 L 53.003906 224.11064 L 53.003906 221.11064 L 54.003906 217.11064 L 55.003906 213.11064 L 55.003906 208.11064 L 57.003906 203.11064 L 58.003906 197.11064 L 60.003906 192.11064 L 61.003906 187.11064 L 63.003906 182.11064 L 65.00391 177.11064 L 67.00391 172.11064 L 69.00391 167.11064 L 72.00391 162.11064 L 76.00391 156.11064 L 80.00391 151.11064 L 85.00391 146.11064 L 91.00391 143.11064 L 96.00391 140.11064 L 102.00391 138.11064" scribmaster:penstyle="draw" style="stroke:#000000;stroke-width:1.0;stroke-linejoin:round;stroke-linecap:round;stroke-opacity:1.0;fill:none"/>
      </g>
    </g>
    <defs/>
    <g xmlns:inkscape="http://www.inkscape.org/namespaces/inkscape" id="1620939740121" transform="matrix(1,0,0,1,0,0)" style="opacity:1.0">
      <g id="1620621491459" inkscape:groupmode="layer" transform="matrix(1,0,0,1,0,0)" style="opacity:1.0"/>
    </g>
  </g>
  <g transform="translate(77, 0) scale(.15 .15) ">
    <sodipodi:namedview xmlns:sodipodi="http://sodipodi.sourceforge.net/DTD/sodipodi-0.dtd" id="ScribMaster"/>
    <filter id="blur">
      <feGaussianBlur stdDeviation="5.0"/>
    </filter>
    <defs/>
    <g xmlns:inkscape="http://www.inkscape.org/namespaces/inkscape" xmlns:scribmaster="http://scribmaster.com/scribmaster" id="1620939376627" transform="matrix(1,0,0,1,124.996094,181.889359)" style="opacity:1.0">
      <g id="1620536817093" inkscape:groupmode="layer" transform="matrix(1,0,0,1,0,0)" style="opacity:1.0">
        <path transform="matrix(1,0,0,1,0,0)" d="M 53.003906 195.11064 L 53.003906 194.11064 L 54.003906 194.11064 L 55.003906 194.11064 L 56.003906 194.11064 L 57.003906 194.11064 L 58.003906 194.11064 L 60.003906 194.11064 L 61.003906 193.11064 L 63.003906 193.11064 L 65.00391 192.11064 L 69.00391 191.11064 L 72.00391 189.11064 L 77.00391 187.11064 L 82.00391 184.11064 L 87.00391 181.11064 L 91.00391 178.11064 L 95.00391 175.11064 L 98.00391 171.11064 L 101.00391 168.11064 L 103.00391 165.11064 L 105.00391 161.11064 L 105.00391 158.11064 L 105.00391 155.11064 L 104.00391 153.11064 L 102.00391 150.11064 L 99.00391 148.11064 L 95.00391 145.11064 L 91.00391 143.11064 L 87.00391 141.11064 L 82.00391 141.11064 L 77.00391 140.11064 L 70.00391 140.11064 L 64.00391 140.11064 L 58.003906 141.11064 L 52.003906 142.11064 L 46.003906 144.11064 L 41.003906 146.11064 L 35.003906 148.11064 L 30.003906 151.11064 L 26.003906 154.11064 L 22.003906 158.11064 L 19.003906 162.11064 L 17.003906 168.11064 L 15.003906 174.11064 L 15.003906 180.11064 L 15.003906 188.11064 L 17.003906 198.11064 L 20.003906 207.11064 L 23.003906 214.11064 L 27.003906 221.11064 L 33.003906 227.11064 L 41.003906 233.11064 L 50.003906 236.11064 L 59.003906 238.11064 L 71.00391 240.11064 L 87.00391 238.11064 L 101.00391 236.11064 L 114.00391 233.11064" scribmaster:penstyle="draw" style="stroke:#000000;stroke-width:1.0;stroke-linejoin:round;stroke-linecap:round;stroke-opacity:1.0;fill:none"/>
      </g>
    </g>
    <defs/>
    <g xmlns:inkscape="http://www.inkscape.org/namespaces/inkscape" id="1620939376629" transform="matrix(1,0,0,1,0,0)" style="opacity:1.0">
      <g id="1620621491459" inkscape:groupmode="layer" transform="matrix(1,0,0,1,0,0)" style="opacity:1.0"/>
    </g>
  </g>
  <g transform="translate(107, 0) scale(.15 .15) ">
    <sodipodi:namedview xmlns:sodipodi="http://sodipodi.sourceforge.net/DTD/sodipodi-0.dtd" id="ScribMaster"/>
    <filter id="blur">
      <feGaussianBlur stdDeviation="5.0"/>
    </filter>
    <defs/>
    <g xmlns:inkscape="http://www.inkscape.org/namespaces/inkscape" xmlns:scribmaster="http://scribmaster.com/scribmaster" id="1620939869028" transform="matrix(1,0,0,1,124.996094,181.889359)" style="opacity:1.0">
      <g id="1620536817093" inkscape:groupmode="layer" transform="matrix(1,0,0,1,0,0)" style="opacity:1.0">
        <path transform="matrix(1,0,0,1,0,0)" d="M 34.003906 128.11064 L 34.003906 129.11064 L 34.003906 130.11064 L 34.003906 131.11064 L 35.003906 133.11064 L 35.003906 135.11064 L 35.003906 136.11064 L 35.003906 139.11064 L 36.003906 142.11064 L 37.003906 146.11064 L 37.003906 150.11064 L 38.003906 156.11064 L 38.003906 162.11064 L 39.003906 168.11064 L 39.003906 173.11064 L 40.003906 179.11064 L 40.003906 184.11064 L 40.003906 190.11064 L 40.003906 196.11064 L 40.003906 203.11064 L 40.003906 209.11064 L 41.003906 215.11064 L 42.003906 220.11064 L 43.003906 224.11064 L 43.003906 227.11064 L 44.003906 228.11064 L 44.003906 230.11064 L 45.003906 231.11064 L 45.003906 232.11064 L 46.003906 232.11064 L 47.003906 232.11064 L 48.003906 231.11064 L 49.003906 229.11064 L 51.003906 227.11064 L 52.003906 224.11064 L 54.003906 221.11064 L 56.003906 218.11064 L 59.003906 214.11064 L 61.003906 209.11064 L 63.003906 204.11064 L 65.00391 199.11064 L 68.00391 195.11064 L 70.00391 191.11064 L 72.00391 187.11064 L 74.00391 184.11064 L 75.00391 181.11064 L 77.00391 179.11064 L 78.00391 176.11064 L 79.00391 174.11064 L 80.00391 173.11064 L 81.00391 171.11064 L 82.00391 170.11064 L 83.00391 170.11064 L 84.00391 169.11064 L 85.00391 169.11064 L 85.00391 170.11064 L 86.00391 171.11064 L 87.00391 172.11064 L 87.00391 174.11064 L 88.00391 176.11064 L 90.00391 179.11064 L 90.00391 183.11064 L 91.00391 186.11064 L 92.00391 189.11064 L 93.00391 193.11064 L 94.00391 197.11064 L 95.00391 201.11064 L 96.00391 205.11064 L 97.00391 209.11064 L 98.00391 213.11064 L 99.00391 216.11064 L 100.00391 218.11064 L 101.00391 221.11064 L 102.00391 223.11064 L 103.00391 225.11064 L 104.00391 226.11064 L 105.00391 226.11064 L 106.00391 226.11064 L 107.00391 226.11064 L 109.00391 224.11064 L 111.00391 222.11064 L 113.00391 219.11064 L 115.00391 214.11064 L 118.00391 208.11064 L 121.00391 202.11064 L 124.00391 194.11064 L 127.00391 186.11064 L 130.0039 180.11064 L 133.0039 173.11064 L 136.0039 167.11064 L 138.0039 161.11064 L 140.0039 154.11064 L 143.0039 149.11064 L 145.0039 144.11064 L 146.0039 140.11064 L 148.0039 137.11064 L 149.0039 135.11064 L 149.0039 133.11064 L 150.0039 132.11064 L 151.0039 131.11064" scribmaster:penstyle="draw" style="stroke:#000000;stroke-width:1.0;stroke-linejoin:round;stroke-linecap:round;stroke-opacity:1.0;fill:none"/>
      </g>
    </g>
    <defs/>
    <g xmlns:inkscape="http://www.inkscape.org/namespaces/inkscape" id="1620939869029" transform="matrix(1,0,0,1,0,0)" style="opacity:1.0">
      <g id="1620621491459" inkscape:groupmode="layer" transform="matrix(1,0,0,1,0,0)" style="opacity:1.0"/>
    </g>
  </g>
  <g transform="translate(130, 0) scale(.15 .15) ">
    <sodipodi:namedview xmlns:sodipodi="http://sodipodi.sourceforge.net/DTD/sodipodi-0.dtd" id="ScribMaster"/>
    <filter id="blur">
      <feGaussianBlur stdDeviation="5.0"/>
    </filter>
    <defs/>
    <g xmlns:inkscape="http://www.inkscape.org/namespaces/inkscape" xmlns:scribmaster="http://scribmaster.com/scribmaster" id="1620939376627" transform="matrix(1,0,0,1,124.996094,181.889359)" style="opacity:1.0">
      <g id="1620536817093" inkscape:groupmode="layer" transform="matrix(1,0,0,1,0,0)" style="opacity:1.0">
        <path transform="matrix(1,0,0,1,0,0)" d="M 53.003906 195.11064 L 53.003906 194.11064 L 54.003906 194.11064 L 55.003906 194.11064 L 56.003906 194.11064 L 57.003906 194.11064 L 58.003906 194.11064 L 60.003906 194.11064 L 61.003906 193.11064 L 63.003906 193.11064 L 65.00391 192.11064 L 69.00391 191.11064 L 72.00391 189.11064 L 77.00391 187.11064 L 82.00391 184.11064 L 87.00391 181.11064 L 91.00391 178.11064 L 95.00391 175.11064 L 98.00391 171.11064 L 101.00391 168.11064 L 103.00391 165.11064 L 105.00391 161.11064 L 105.00391 158.11064 L 105.00391 155.11064 L 104.00391 153.11064 L 102.00391 150.11064 L 99.00391 148.11064 L 95.00391 145.11064 L 91.00391 143.11064 L 87.00391 141.11064 L 82.00391 141.11064 L 77.00391 140.11064 L 70.00391 140.11064 L 64.00391 140.11064 L 58.003906 141.11064 L 52.003906 142.11064 L 46.003906 144.11064 L 41.003906 146.11064 L 35.003906 148.11064 L 30.003906 151.11064 L 26.003906 154.11064 L 22.003906 158.11064 L 19.003906 162.11064 L 17.003906 168.11064 L 15.003906 174.11064 L 15.003906 180.11064 L 15.003906 188.11064 L 17.003906 198.11064 L 20.003906 207.11064 L 23.003906 214.11064 L 27.003906 221.11064 L 33.003906 227.11064 L 41.003906 233.11064 L 50.003906 236.11064 L 59.003906 238.11064 L 71.00391 240.11064 L 87.00391 238.11064 L 101.00391 236.11064 L 114.00391 233.11064" scribmaster:penstyle="draw" style="stroke:#000000;stroke-width:1.0;stroke-linejoin:round;stroke-linecap:round;stroke-opacity:1.0;fill:none"/>
      </g>
    </g>
    <defs/>
    <g xmlns:inkscape="http://www.inkscape.org/namespaces/inkscape" id="1620939376629" transform="matrix(1,0,0,1,0,0)" style="opacity:1.0">
      <g id="1620621491459" inkscape:groupmode="layer" transform="matrix(1,0,0,1,0,0)" style="opacity:1.0"/>
    </g>
  </g>
  <g transform="translate(148, 0) scale(.15 .15) ">
    <sodipodi:namedview xmlns:sodipodi="http://sodipodi.sourceforge.net/DTD/sodipodi-0.dtd" id="ScribMaster"/>
    <filter id="blur">
      <feGaussianBlur stdDeviation="5.0"/>
    </filter>
    <defs/>
    <g xmlns:inkscape="http://www.inkscape.org/namespaces/inkscape" xmlns:scribmaster="http://scribmaster.com/scribmaster" id="1620939740120" transform="matrix(1,0,0,1,124.996094,181.889359)" style="opacity:1.0">
      <g id="1620536817093" inkscape:groupmode="layer" transform="matrix(1,0,0,1,0,0)" style="opacity:1.0">
        <path transform="matrix(1,0,0,1,0,0)" d="M 62.003906 131.11064 L 61.003906 130.11064 L 60.003906 130.11064 L 59.003906 130.11064 L 59.003906 131.11064 L 59.003906 132.11064 L 59.003906 134.11064 L 59.003906 136.11064 L 59.003906 138.11064 L 59.003906 141.11064 L 59.003906 145.11064 L 59.003906 149.11064 L 59.003906 153.11064 L 59.003906 158.11064 L 59.003906 164.11064 L 59.003906 170.11064 L 58.003906 176.11064 L 58.003906 181.11064 L 57.003906 187.11064 L 57.003906 193.11064 L 56.003906 198.11064 L 56.003906 203.11064 L 56.003906 208.11064 L 55.003906 213.11064 L 55.003906 217.11064 L 55.003906 220.11064 L 55.003906 223.11064 L 55.003906 225.11064 L 55.003906 227.11064 L 55.003906 228.11064 L 55.003906 229.11064 L 55.003906 230.11064 L 55.003906 231.11064 L 55.003906 232.11064 L 55.003906 233.11064 L 55.003906 234.11064 L 55.003906 235.11064 L 54.003906 235.11064 L 54.003906 234.11064 L 53.003906 233.11064 L 53.003906 232.11064 L 53.003906 231.11064 L 53.003906 229.11064 L 53.003906 227.11064 L 53.003906 224.11064 L 53.003906 221.11064 L 54.003906 217.11064 L 55.003906 213.11064 L 55.003906 208.11064 L 57.003906 203.11064 L 58.003906 197.11064 L 60.003906 192.11064 L 61.003906 187.11064 L 63.003906 182.11064 L 65.00391 177.11064 L 67.00391 172.11064 L 69.00391 167.11064 L 72.00391 162.11064 L 76.00391 156.11064 L 80.00391 151.11064 L 85.00391 146.11064 L 91.00391 143.11064 L 96.00391 140.11064 L 102.00391 138.11064" scribmaster:penstyle="draw" style="stroke:#000000;stroke-width:1.0;stroke-linejoin:round;stroke-linecap:round;stroke-opacity:1.0;fill:none"/>
      </g>
    </g>
    <defs/>
    <g xmlns:inkscape="http://www.inkscape.org/namespaces/inkscape" id="1620939740121" transform="matrix(1,0,0,1,0,0)" style="opacity:1.0">
      <g id="1620621491459" inkscape:groupmode="layer" transform="matrix(1,0,0,1,0,0)" style="opacity:1.0"/>
    </g>
  </g>
  <g transform="translate(166, 0) scale(.15 .15) ">
    <sodipodi:namedview xmlns:sodipodi="http://sodipodi.sourceforge.net/DTD/sodipodi-0.dtd" id="ScribMaster"/>
    <filter id="blur">
      <feGaussianBlur stdDeviation="5.0"/>
    </filter>
    <defs/>
    <g xmlns:inkscape="http://www.inkscape.org/namespaces/inkscape" xmlns:scribmaster="http://scribmaster.com/scribmaster" id="1620939376627" transform="matrix(1,0,0,1,124.996094,181.889359)" style="opacity:1.0">
      <g id="1620536817093" inkscape:groupmode="layer" transform="matrix(1,0,0,1,0,0)" style="opacity:1.0">
        <path transform="matrix(1,0,0,1,0,0)" d="M 53.003906 195.11064 L 53.003906 194.11064 L 54.003906 194.11064 L 55.003906 194.11064 L 56.003906 194.11064 L 57.003906 194.11064 L 58.003906 194.11064 L 60.003906 194.11064 L 61.003906 193.11064 L 63.003906 193.11064 L 65.00391 192.11064 L 69.00391 191.11064 L 72.00391 189.11064 L 77.00391 187.11064 L 82.00391 184.11064 L 87.00391 181.11064 L 91.00391 178.11064 L 95.00391 175.11064 L 98.00391 171.11064 L 101.00391 168.11064 L 103.00391 165.11064 L 105.00391 161.11064 L 105.00391 158.11064 L 105.00391 155.11064 L 104.00391 153.11064 L 102.00391 150.11064 L 99.00391 148.11064 L 95.00391 145.11064 L 91.00391 143.11064 L 87.00391 141.11064 L 82.00391 141.11064 L 77.00391 140.11064 L 70.00391 140.11064 L 64.00391 140.11064 L 58.003906 141.11064 L 52.003906 142.11064 L 46.003906 144.11064 L 41.003906 146.11064 L 35.003906 148.11064 L 30.003906 151.11064 L 26.003906 154.11064 L 22.003906 158.11064 L 19.003906 162.11064 L 17.003906 168.11064 L 15.003906 174.11064 L 15.003906 180.11064 L 15.003906 188.11064 L 17.003906 198.11064 L 20.003906 207.11064 L 23.003906 214.11064 L 27.003906 221.11064 L 33.003906 227.11064 L 41.003906 233.11064 L 50.003906 236.11064 L 59.003906 238.11064 L 71.00391 240.11064 L 87.00391 238.11064 L 101.00391 236.11064 L 114.00391 233.11064" scribmaster:penstyle="draw" style="stroke:#000000;stroke-width:1.0;stroke-linejoin:round;stroke-linecap:round;stroke-opacity:1.0;fill:none"/>
      </g>
    </g>
    <defs/>
    <g xmlns:inkscape="http://www.inkscape.org/namespaces/inkscape" id="1620939376629" transform="matrix(1,0,0,1,0,0)" style="opacity:1.0">
      <g id="1620621491459" inkscape:groupmode="layer" transform="matrix(1,0,0,1,0,0)" style="opacity:1.0"/>
    </g>
  </g>
  <g transform="translate(196, 0) scale(.15 .15) ">
    <sodipodi:namedview xmlns:sodipodi="http://sodipodi.sourceforge.net/DTD/sodipodi-0.dtd" id="ScribMaster"/>
    <filter id="blur">
      <feGaussianBlur stdDeviation="5.0"/>
    </filter>
    <defs/>
    <g xmlns:inkscape="http://www.inkscape.org/namespaces/inkscape" xmlns:scribmaster="http://scribmaster.com/scribmaster" id="1620939838076" transform="matrix(1,0,0,1,124.996094,181.889359)" style="opacity:1.0">
      <g id="1620536817093" inkscape:groupmode="layer" transform="matrix(1,0,0,1,0,0)" style="opacity:1.0">
        <path transform="matrix(1,0,0,1,0,0)" d="M 30.003906 158.11064 L 30.003906 159.11064 L 29.003906 161.11064 L 29.003906 162.11064 L 28.003906 165.11064 L 27.003906 168.11064 L 26.003906 172.11064 L 26.003906 177.11064 L 25.003906 183.11064 L 25.003906 190.11064 L 25.003906 197.11064 L 25.003906 204.11064 L 25.003906 210.11064 L 26.003906 216.11064 L 27.003906 221.11064 L 28.003906 226.11064 L 29.003906 230.11064 L 30.003906 233.11064 L 31.003906 235.11064 L 33.003906 237.11064 L 35.003906 238.11064 L 37.003906 239.11064 L 40.003906 239.11064 L 42.003906 239.11064 L 45.003906 239.11064 L 48.003906 238.11064 L 52.003906 235.11064 L 56.003906 231.11064 L 60.003906 228.11064 L 65.00391 222.11064 L 69.00391 217.11064 L 72.00391 211.11064 L 76.00391 205.11064 L 79.00391 199.11064 L 82.00391 193.11064 L 84.00391 188.11064 L 87.00391 182.11064 L 89.00391 177.11064 L 90.00391 172.11064 L 92.00391 167.11064 L 93.00391 163.11064 L 94.00391 158.11064 L 95.00391 154.11064 L 95.00391 151.11064 L 95.00391 150.11064 L 95.00391 148.11064 L 95.00391 146.11064 L 95.00391 145.11064 L 94.00391 145.11064 L 94.00391 146.11064 L 93.00391 147.11064 L 93.00391 150.11064 L 93.00391 153.11064 L 93.00391 156.11064 L 93.00391 161.11064 L 93.00391 167.11064 L 94.00391 174.11064 L 95.00391 181.11064 L 95.00391 188.11064 L 96.00391 195.11064 L 98.00391 201.11064 L 100.00391 208.11064 L 102.00391 213.11064 L 104.00391 218.11064 L 108.00391 222.11064 L 112.00391 226.11064 L 116.00391 228.11064" scribmaster:penstyle="draw" style="stroke:#000000;stroke-width:1.0;stroke-linejoin:round;stroke-linecap:round;stroke-opacity:1.0;fill:none"/>
      </g>
    </g>
    <defs/>
    <g xmlns:inkscape="http://www.inkscape.org/namespaces/inkscape" id="1620939838077" transform="matrix(1,0,0,1,0,0)" style="opacity:1.0">
      <g id="1620621491459" inkscape:groupmode="layer" transform="matrix(1,0,0,1,0,0)" style="opacity:1.0"/>
    </g>
  </g>
  <g transform="translate(0, 40) scale(.15 .15) ">
    <sodipodi:namedview xmlns:sodipodi="http://sodipodi.sourceforge.net/DTD/sodipodi-0.dtd" id="ScribMaster"/>
    <filter id="blur">
      <feGaussianBlur stdDeviation="5.0"/>
    </filter>
    <defs/>
    <g xmlns:inkscape="http://www.inkscape.org/namespaces/inkscape" xmlns:scribmaster="http://scribmaster.com/scribmaster" id="1620939869028" transform="matrix(1,0,0,1,124.996094,181.889359)" style="opacity:1.0">
      <g id="1620536817093" inkscape:groupmode="layer" transform="matrix(1,0,0,1,0,0)" style="opacity:1.0">
        <path transform="matrix(1,0,0,1,0,0)" d="M 34.003906 128.11064 L 34.003906 129.11064 L 34.003906 130.11064 L 34.003906 131.11064 L 35.003906 133.11064 L 35.003906 135.11064 L 35.003906 136.11064 L 35.003906 139.11064 L 36.003906 142.11064 L 37.003906 146.11064 L 37.003906 150.11064 L 38.003906 156.11064 L 38.003906 162.11064 L 39.003906 168.11064 L 39.003906 173.11064 L 40.003906 179.11064 L 40.003906 184.11064 L 40.003906 190.11064 L 40.003906 196.11064 L 40.003906 203.11064 L 40.003906 209.11064 L 41.003906 215.11064 L 42.003906 220.11064 L 43.003906 224.11064 L 43.003906 227.11064 L 44.003906 228.11064 L 44.003906 230.11064 L 45.003906 231.11064 L 45.003906 232.11064 L 46.003906 232.11064 L 47.003906 232.11064 L 48.003906 231.11064 L 49.003906 229.11064 L 51.003906 227.11064 L 52.003906 224.11064 L 54.003906 221.11064 L 56.003906 218.11064 L 59.003906 214.11064 L 61.003906 209.11064 L 63.003906 204.11064 L 65.00391 199.11064 L 68.00391 195.11064 L 70.00391 191.11064 L 72.00391 187.11064 L 74.00391 184.11064 L 75.00391 181.11064 L 77.00391 179.11064 L 78.00391 176.11064 L 79.00391 174.11064 L 80.00391 173.11064 L 81.00391 171.11064 L 82.00391 170.11064 L 83.00391 170.11064 L 84.00391 169.11064 L 85.00391 169.11064 L 85.00391 170.11064 L 86.00391 171.11064 L 87.00391 172.11064 L 87.00391 174.11064 L 88.00391 176.11064 L 90.00391 179.11064 L 90.00391 183.11064 L 91.00391 186.11064 L 92.00391 189.11064 L 93.00391 193.11064 L 94.00391 197.11064 L 95.00391 201.11064 L 96.00391 205.11064 L 97.00391 209.11064 L 98.00391 213.11064 L 99.00391 216.11064 L 100.00391 218.11064 L 101.00391 221.11064 L 102.00391 223.11064 L 103.00391 225.11064 L 104.00391 226.11064 L 105.00391 226.11064 L 106.00391 226.11064 L 107.00391 226.11064 L 109.00391 224.11064 L 111.00391 222.11064 L 113.00391 219.11064 L 115.00391 214.11064 L 118.00391 208.11064 L 121.00391 202.11064 L 124.00391 194.11064 L 127.00391 186.11064 L 130.0039 180.11064 L 133.0039 173.11064 L 136.0039 167.11064 L 138.0039 161.11064 L 140.0039 154.11064 L 143.0039 149.11064 L 145.0039 144.11064 L 146.0039 140.11064 L 148.0039 137.11064 L 149.0039 135.11064 L 149.0039 133.11064 L 150.0039 132.11064 L 151.0039 131.11064" scribmaster:penstyle="draw" style="stroke:#000000;stroke-width:1.0;stroke-linejoin:round;stroke-linecap:round;stroke-opacity:1.0;fill:none"/>
      </g>
    </g>
    <defs/>
    <g xmlns:inkscape="http://www.inkscape.org/namespaces/inkscape" id="1620939869029" transform="matrix(1,0,0,1,0,0)" style="opacity:1.0">
      <g id="1620621491459" inkscape:groupmode="layer" transform="matrix(1,0,0,1,0,0)" style="opacity:1.0"/>
    </g>
  </g>
  <g transform="translate(23, 40) scale(.15 .15) ">
    <sodipodi:namedview xmlns:sodipodi="http://sodipodi.sourceforge.net/DTD/sodipodi-0.dtd" id="ScribMaster"/>
    <filter id="blur">
      <feGaussianBlur stdDeviation="5.0"/>
    </filter>
    <defs/>
    <g xmlns:inkscape="http://www.inkscape.org/namespaces/inkscape" xmlns:scribmaster="http://scribmaster.com/scribmaster" id="1620939448935" transform="matrix(1,0,0,1,124.996094,181.889359)" style="opacity:1.0">
      <g id="1620536817093" inkscape:groupmode="layer" transform="matrix(1,0,0,1,0,0)" style="opacity:1.0">
        <path transform="matrix(1,0,0,1,0,0)" d="M 56.003906 18.110641 L 55.003906 17.110641 L 55.003906 16.110641 L 54.003906 16.110641 L 53.003906 16.110641 L 53.003906 17.110641 L 53.003906 19.110641 L 52.003906 21.110641 L 52.003906 25.110641 L 52.003906 28.110641 L 51.003906 32.11064 L 50.003906 38.11064 L 49.003906 45.11064 L 48.003906 52.11064 L 47.003906 60.11064 L 46.003906 71.11064 L 45.003906 81.11064 L 44.003906 92.11064 L 43.003906 103.11064 L 43.003906 116.11064 L 42.003906 130.11064 L 41.003906 141.11064 L 40.003906 153.11064 L 40.003906 165.11064 L 38.003906 176.11064 L 37.003906 186.11064 L 36.003906 195.11064 L 35.003906 204.11064 L 34.003906 211.11064 L 33.003906 218.11064 L 32.003906 223.11064 L 31.003906 226.11064 L 31.003906 228.11064 L 31.003906 229.11064 L 31.003906 230.11064 L 31.003906 228.11064 L 32.003906 227.11064 L 33.003906 224.11064 L 34.003906 220.11064 L 35.003906 214.11064 L 37.003906 206.11064 L 39.003906 199.11064 L 41.003906 190.11064 L 44.003906 183.11064 L 47.003906 176.11064 L 50.003906 169.11064 L 52.003906 163.11064 L 55.003906 158.11064 L 59.003906 153.11064 L 62.003906 149.11064 L 64.00391 146.11064 L 66.00391 145.11064 L 68.00391 144.11064 L 70.00391 143.11064 L 72.00391 143.11064 L 74.00391 143.11064 L 75.00391 144.11064 L 77.00391 145.11064 L 79.00391 147.11064 L 81.00391 151.11064 L 84.00391 158.11064 L 87.00391 169.11064 L 90.00391 178.11064 L 92.00391 189.11064 L 95.00391 199.11064 L 97.00391 208.11064 L 100.00391 214.11064 L 104.00391 218.11064" scribmaster:penstyle="draw" style="stroke:#000000;stroke-width:1.0;stroke-linejoin:round;stroke-linecap:round;stroke-opacity:1.0;fill:none"/>
      </g>
    </g>
    <defs/>
    <g xmlns:inkscape="http://www.inkscape.org/namespaces/inkscape" id="1620939448937" transform="matrix(1,0,0,1,0,0)" style="opacity:1.0">
      <g id="1620621491459" inkscape:groupmode="layer" transform="matrix(1,0,0,1,0,0)" style="opacity:1.0"/>
    </g>
  </g>
  <g transform="translate(41, 40) scale(.15 .15) ">
    <sodipodi:namedview xmlns:sodipodi="http://sodipodi.sourceforge.net/DTD/sodipodi-0.dtd" id="ScribMaster"/>
    <filter id="blur">
      <feGaussianBlur stdDeviation="5.0"/>
    </filter>
    <defs/>
    <g xmlns:inkscape="http://www.inkscape.org/namespaces/inkscape" xmlns:scribmaster="http://scribmaster.com/scribmaster" id="1620939376627" transform="matrix(1,0,0,1,124.996094,181.889359)" style="opacity:1.0">
      <g id="1620536817093" inkscape:groupmode="layer" transform="matrix(1,0,0,1,0,0)" style="opacity:1.0">
        <path transform="matrix(1,0,0,1,0,0)" d="M 53.003906 195.11064 L 53.003906 194.11064 L 54.003906 194.11064 L 55.003906 194.11064 L 56.003906 194.11064 L 57.003906 194.11064 L 58.003906 194.11064 L 60.003906 194.11064 L 61.003906 193.11064 L 63.003906 193.11064 L 65.00391 192.11064 L 69.00391 191.11064 L 72.00391 189.11064 L 77.00391 187.11064 L 82.00391 184.11064 L 87.00391 181.11064 L 91.00391 178.11064 L 95.00391 175.11064 L 98.00391 171.11064 L 101.00391 168.11064 L 103.00391 165.11064 L 105.00391 161.11064 L 105.00391 158.11064 L 105.00391 155.11064 L 104.00391 153.11064 L 102.00391 150.11064 L 99.00391 148.11064 L 95.00391 145.11064 L 91.00391 143.11064 L 87.00391 141.11064 L 82.00391 141.11064 L 77.00391 140.11064 L 70.00391 140.11064 L 64.00391 140.11064 L 58.003906 141.11064 L 52.003906 142.11064 L 46.003906 144.11064 L 41.003906 146.11064 L 35.003906 148.11064 L 30.003906 151.11064 L 26.003906 154.11064 L 22.003906 158.11064 L 19.003906 162.11064 L 17.003906 168.11064 L 15.003906 174.11064 L 15.003906 180.11064 L 15.003906 188.11064 L 17.003906 198.11064 L 20.003906 207.11064 L 23.003906 214.11064 L 27.003906 221.11064 L 33.003906 227.11064 L 41.003906 233.11064 L 50.003906 236.11064 L 59.003906 238.11064 L 71.00391 240.11064 L 87.00391 238.11064 L 101.00391 236.11064 L 114.00391 233.11064" scribmaster:penstyle="draw" style="stroke:#000000;stroke-width:1.0;stroke-linejoin:round;stroke-linecap:round;stroke-opacity:1.0;fill:none"/>
      </g>
    </g>
    <defs/>
    <g xmlns:inkscape="http://www.inkscape.org/namespaces/inkscape" id="1620939376629" transform="matrix(1,0,0,1,0,0)" style="opacity:1.0">
      <g id="1620621491459" inkscape:groupmode="layer" transform="matrix(1,0,0,1,0,0)" style="opacity:1.0"/>
    </g>
  </g>
  <g transform="translate(59, 40) scale(.15 .15) ">
    <sodipodi:namedview xmlns:sodipodi="http://sodipodi.sourceforge.net/DTD/sodipodi-0.dtd" id="ScribMaster"/>
    <filter id="blur">
      <feGaussianBlur stdDeviation="5.0"/>
    </filter>
    <defs/>
    <g xmlns:inkscape="http://www.inkscape.org/namespaces/inkscape" xmlns:scribmaster="http://scribmaster.com/scribmaster" id="1620939645375" transform="matrix(1,0,0,1,124.996094,181.889359)" style="opacity:1.0">
      <g id="1620536817093" inkscape:groupmode="layer" transform="matrix(1,0,0,1,0,0)" style="opacity:1.0">
        <path transform="matrix(1,0,0,1,0,0)" d="M 28.003906 139.11064 L 28.003906 140.11064 L 28.003906 141.11064 L 27.003906 142.11064 L 27.003906 144.11064 L 27.003906 146.11064 L 26.003906 149.11064 L 26.003906 152.11064 L 26.003906 156.11064 L 26.003906 160.11064 L 26.003906 166.11064 L 27.003906 171.11064 L 27.003906 177.11064 L 27.003906 182.11064 L 27.003906 188.11064 L 28.003906 194.11064 L 28.003906 199.11064 L 28.003906 204.11064 L 27.003906 210.11064 L 26.003906 215.11064 L 26.003906 219.11064 L 25.003906 223.11064 L 24.003906 227.11064 L 23.003906 231.11064 L 23.003906 233.11064 L 23.003906 235.11064 L 22.003906 236.11064 L 22.003906 237.11064 L 22.003906 236.11064 L 22.003906 233.11064 L 23.003906 229.11064 L 23.003906 223.11064 L 25.003906 216.11064 L 26.003906 206.11064 L 29.003906 195.11064 L 31.003906 185.11064 L 34.003906 175.11064 L 38.003906 166.11064 L 41.003906 159.11064 L 45.003906 152.11064 L 49.003906 145.11064 L 53.003906 140.11064 L 57.003906 136.11064 L 62.003906 132.11064 L 66.00391 129.11064 L 70.00391 127.11064 L 72.00391 126.11064 L 76.00391 126.11064 L 78.00391 127.11064 L 80.00391 129.11064 L 82.00391 131.11064 L 85.00391 136.11064 L 86.00391 140.11064 L 89.00391 147.11064 L 91.00391 156.11064 L 93.00391 166.11064 L 95.00391 178.11064 L 96.00391 189.11064 L 97.00391 201.11064 L 98.00391 213.11064 L 100.00391 222.11064 L 103.00391 228.11064 L 106.00391 229.11064" scribmaster:penstyle="draw" style="stroke:#000000;stroke-width:1.0;stroke-linejoin:round;stroke-linecap:round;stroke-opacity:1.0;fill:none"/>
      </g>
    </g>
    <defs/>
    <g xmlns:inkscape="http://www.inkscape.org/namespaces/inkscape" id="1620939645377" transform="matrix(1,0,0,1,0,0)" style="opacity:1.0">
      <g id="1620621491459" inkscape:groupmode="layer" transform="matrix(1,0,0,1,0,0)" style="opacity:1.0"/>
    </g>
  </g>
  <g transform="translate(89, 40) scale(.15 .15) ">
    <sodipodi:namedview xmlns:sodipodi="http://sodipodi.sourceforge.net/DTD/sodipodi-0.dtd" id="ScribMaster"/>
    <filter id="blur">
      <feGaussianBlur stdDeviation="5.0"/>
    </filter>
    <defs/>
    <g xmlns:inkscape="http://www.inkscape.org/namespaces/inkscape" xmlns:scribmaster="http://scribmaster.com/scribmaster" id="1620939645375" transform="matrix(1,0,0,1,124.996094,181.889359)" style="opacity:1.0">
      <g id="1620536817093" inkscape:groupmode="layer" transform="matrix(1,0,0,1,0,0)" style="opacity:1.0">
        <path transform="matrix(1,0,0,1,0,0)" d="M 28.003906 139.11064 L 28.003906 140.11064 L 28.003906 141.11064 L 27.003906 142.11064 L 27.003906 144.11064 L 27.003906 146.11064 L 26.003906 149.11064 L 26.003906 152.11064 L 26.003906 156.11064 L 26.003906 160.11064 L 26.003906 166.11064 L 27.003906 171.11064 L 27.003906 177.11064 L 27.003906 182.11064 L 27.003906 188.11064 L 28.003906 194.11064 L 28.003906 199.11064 L 28.003906 204.11064 L 27.003906 210.11064 L 26.003906 215.11064 L 26.003906 219.11064 L 25.003906 223.11064 L 24.003906 227.11064 L 23.003906 231.11064 L 23.003906 233.11064 L 23.003906 235.11064 L 22.003906 236.11064 L 22.003906 237.11064 L 22.003906 236.11064 L 22.003906 233.11064 L 23.003906 229.11064 L 23.003906 223.11064 L 25.003906 216.11064 L 26.003906 206.11064 L 29.003906 195.11064 L 31.003906 185.11064 L 34.003906 175.11064 L 38.003906 166.11064 L 41.003906 159.11064 L 45.003906 152.11064 L 49.003906 145.11064 L 53.003906 140.11064 L 57.003906 136.11064 L 62.003906 132.11064 L 66.00391 129.11064 L 70.00391 127.11064 L 72.00391 126.11064 L 76.00391 126.11064 L 78.00391 127.11064 L 80.00391 129.11064 L 82.00391 131.11064 L 85.00391 136.11064 L 86.00391 140.11064 L 89.00391 147.11064 L 91.00391 156.11064 L 93.00391 166.11064 L 95.00391 178.11064 L 96.00391 189.11064 L 97.00391 201.11064 L 98.00391 213.11064 L 100.00391 222.11064 L 103.00391 228.11064 L 106.00391 229.11064" scribmaster:penstyle="draw" style="stroke:#000000;stroke-width:1.0;stroke-linejoin:round;stroke-linecap:round;stroke-opacity:1.0;fill:none"/>
      </g>
    </g>
    <defs/>
    <g xmlns:inkscape="http://www.inkscape.org/namespaces/inkscape" id="1620939645377" transform="matrix(1,0,0,1,0,0)" style="opacity:1.0">
      <g id="1620621491459" inkscape:groupmode="layer" transform="matrix(1,0,0,1,0,0)" style="opacity:1.0"/>
    </g>
  </g>
  <g transform="translate(107, 40) scale(.15 .15) ">
    <sodipodi:namedview xmlns:sodipodi="http://sodipodi.sourceforge.net/DTD/sodipodi-0.dtd" id="ScribMaster"/>
    <filter id="blur">
      <feGaussianBlur stdDeviation="5.0"/>
    </filter>
    <defs/>
    <g xmlns:inkscape="http://www.inkscape.org/namespaces/inkscape" xmlns:scribmaster="http://scribmaster.com/scribmaster" id="1620939376627" transform="matrix(1,0,0,1,124.996094,181.889359)" style="opacity:1.0">
      <g id="1620536817093" inkscape:groupmode="layer" transform="matrix(1,0,0,1,0,0)" style="opacity:1.0">
        <path transform="matrix(1,0,0,1,0,0)" d="M 53.003906 195.11064 L 53.003906 194.11064 L 54.003906 194.11064 L 55.003906 194.11064 L 56.003906 194.11064 L 57.003906 194.11064 L 58.003906 194.11064 L 60.003906 194.11064 L 61.003906 193.11064 L 63.003906 193.11064 L 65.00391 192.11064 L 69.00391 191.11064 L 72.00391 189.11064 L 77.00391 187.11064 L 82.00391 184.11064 L 87.00391 181.11064 L 91.00391 178.11064 L 95.00391 175.11064 L 98.00391 171.11064 L 101.00391 168.11064 L 103.00391 165.11064 L 105.00391 161.11064 L 105.00391 158.11064 L 105.00391 155.11064 L 104.00391 153.11064 L 102.00391 150.11064 L 99.00391 148.11064 L 95.00391 145.11064 L 91.00391 143.11064 L 87.00391 141.11064 L 82.00391 141.11064 L 77.00391 140.11064 L 70.00391 140.11064 L 64.00391 140.11064 L 58.003906 141.11064 L 52.003906 142.11064 L 46.003906 144.11064 L 41.003906 146.11064 L 35.003906 148.11064 L 30.003906 151.11064 L 26.003906 154.11064 L 22.003906 158.11064 L 19.003906 162.11064 L 17.003906 168.11064 L 15.003906 174.11064 L 15.003906 180.11064 L 15.003906 188.11064 L 17.003906 198.11064 L 20.003906 207.11064 L 23.003906 214.11064 L 27.003906 221.11064 L 33.003906 227.11064 L 41.003906 233.11064 L 50.003906 236.11064 L 59.003906 238.11064 L 71.00391 240.11064 L 87.00391 238.11064 L 101.00391 236.11064 L 114.00391 233.11064" scribmaster:penstyle="draw" style="stroke:#000000;stroke-width:1.0;stroke-linejoin:round;stroke-linecap:round;stroke-opacity:1.0;fill:none"/>
      </g>
    </g>
    <defs/>
    <g xmlns:inkscape="http://www.inkscape.org/namespaces/inkscape" id="1620939376629" transform="matrix(1,0,0,1,0,0)" style="opacity:1.0">
      <g id="1620621491459" inkscape:groupmode="layer" transform="matrix(1,0,0,1,0,0)" style="opacity:1.0"/>
    </g>
  </g>
  <g transform="translate(125, 40) scale(.15 .15) ">
    <sodipodi:namedview xmlns:sodipodi="http://sodipodi.sourceforge.net/DTD/sodipodi-0.dtd" id="ScribMaster"/>
    <filter id="blur">
      <feGaussianBlur stdDeviation="5.0"/>
    </filter>
    <defs/>
    <g xmlns:inkscape="http://www.inkscape.org/namespaces/inkscape" xmlns:scribmaster="http://scribmaster.com/scribmaster" id="1620939809557" transform="matrix(1,0,0,1,124.996094,181.889359)" style="opacity:1.0">
      <g id="1620536817093" inkscape:groupmode="layer" transform="matrix(1,0,0,1,0,0)" style="opacity:1.0">
        <path transform="matrix(1,0,0,1,0,0)" d="M 20.003906 115.11064 L 19.003906 114.11064 L 18.003906 114.11064 L 17.003906 114.11064 L 16.003906 114.11064 L 17.003906 115.11064 L 19.003906 115.11064 L 21.003906 115.11064 L 25.003906 115.11064 L 30.003906 116.11064 L 35.003906 116.11064 L 42.003906 116.11064 L 50.003906 117.11064 L 59.003906 118.11064 L 66.00391 118.11064 L 73.00391 119.11064 L 80.00391 120.11064 L 87.00391 120.11064 L 92.00391 120.11064 L 97.00391 120.11064 L 101.00391 120.11064" scribmaster:penstyle="draw" style="stroke:#000000;stroke-width:1.0;stroke-linejoin:round;stroke-linecap:round;stroke-opacity:1.0;fill:none"/>
        <path transform="matrix(1,0,0,1,0,0)" d="M 67.00391 76.11064 L 67.00391 77.11064 L 67.00391 79.11064 L 67.00391 81.11064 L 68.00391 83.11064 L 68.00391 86.11064 L 68.00391 90.11064 L 68.00391 94.11064 L 68.00391 99.11064 L 68.00391 105.11064 L 68.00391 112.11064 L 68.00391 120.11064 L 68.00391 127.11064 L 68.00391 134.11064 L 68.00391 143.11064 L 68.00391 151.11064 L 68.00391 161.11064 L 68.00391 171.11064 L 67.00391 179.11064 L 67.00391 187.11064 L 67.00391 195.11064 L 67.00391 201.11064 L 67.00391 207.11064 L 67.00391 213.11064 L 67.00391 218.11064 L 67.00391 222.11064 L 67.00391 226.11064 L 67.00391 229.11064 L 68.00391 232.11064" scribmaster:penstyle="draw" style="stroke:#000000;stroke-width:1.0;stroke-linejoin:round;stroke-linecap:round;stroke-opacity:1.0;fill:none"/>
      </g>
    </g>
    <defs/>
    <g xmlns:inkscape="http://www.inkscape.org/namespaces/inkscape" id="1620939809558" transform="matrix(1,0,0,1,0,0)" style="opacity:1.0">
      <g id="1620621491459" inkscape:groupmode="layer" transform="matrix(1,0,0,1,0,0)" style="opacity:1.0"/>
    </g>
  </g>
  <g transform="translate(137, 40) scale(.15 .15) ">
    <sodipodi:namedview xmlns:sodipodi="http://sodipodi.sourceforge.net/DTD/sodipodi-0.dtd" id="ScribMaster"/>
    <filter id="blur">
      <feGaussianBlur stdDeviation="5.0"/>
    </filter>
    <defs/>
    <g xmlns:inkscape="http://www.inkscape.org/namespaces/inkscape" xmlns:scribmaster="http://scribmaster.com/scribmaster" id="1620939396784" transform="matrix(1,0,0,1,124.996094,181.889359)" style="opacity:1.0">
      <g id="1620536817093" inkscape:groupmode="layer" transform="matrix(1,0,0,1,0,0)" style="opacity:1.0">
        <path transform="matrix(1,0,0,1,0,0)" d="M 78.00391 27.110641 L 77.00391 28.110641 L 76.00391 28.110641 L 75.00391 29.110641 L 75.00391 30.110641 L 74.00391 31.110641 L 73.00391 32.11064 L 72.00391 34.11064 L 70.00391 36.11064 L 69.00391 38.11064 L 67.00391 42.11064 L 65.00391 45.11064 L 63.003906 48.11064 L 61.003906 52.11064 L 59.003906 56.11064 L 58.003906 60.11064 L 55.003906 66.11064 L 54.003906 71.11064 L 52.003906 76.11064 L 50.003906 82.11064 L 49.003906 88.11064 L 48.003906 95.11064 L 47.003906 103.11064 L 47.003906 112.11064 L 46.003906 121.11064 L 46.003906 130.11064 L 46.003906 138.11064 L 46.003906 146.11064 L 46.003906 153.11064 L 46.003906 161.11064 L 47.003906 170.11064 L 47.003906 178.11064 L 46.003906 186.11064 L 46.003906 193.11064 L 45.003906 200.11064 L 45.003906 207.11064 L 45.003906 213.11064 L 44.003906 219.11064 L 43.003906 223.11064 L 42.003906 226.11064 L 42.003906 228.11064 L 41.003906 229.11064 L 41.003906 230.11064 L 40.003906 231.11064 L 40.003906 230.11064" scribmaster:penstyle="draw" style="stroke:#000000;stroke-width:1.0;stroke-linejoin:round;stroke-linecap:round;stroke-opacity:1.0;fill:none"/>
        <path transform="matrix(1,0,0,1,0,0)" d="M 32.003906 163.11064 L 33.003906 162.11064 L 36.003906 161.11064 L 43.003906 159.11064 L 53.003906 155.11064 L 69.00391 151.11064 L 90.00391 146.11064" scribmaster:penstyle="draw" style="stroke:#000000;stroke-width:1.0;stroke-linejoin:round;stroke-linecap:round;stroke-opacity:1.0;fill:none"/>
      </g>
    </g>
    <defs/>
    <g xmlns:inkscape="http://www.inkscape.org/namespaces/inkscape" id="1620939396786" transform="matrix(1,0,0,1,0,0)" style="opacity:1.0">
      <g id="1620621491459" inkscape:groupmode="layer" transform="matrix(1,0,0,1,0,0)" style="opacity:1.0"/>
    </g>
  </g>
  <g transform="translate(145, 40) scale(.15 .15) ">
    <sodipodi:namedview xmlns:sodipodi="http://sodipodi.sourceforge.net/DTD/sodipodi-0.dtd" id="ScribMaster"/>
    <filter id="blur">
      <feGaussianBlur stdDeviation="5.0"/>
    </filter>
    <defs/>
    <g xmlns:inkscape="http://www.inkscape.org/namespaces/inkscape" xmlns:scribmaster="http://scribmaster.com/scribmaster" id="1620939601512" transform="matrix(1,0,0,1,124.996094,181.889359)" style="opacity:1.0">
      <g id="1620536817093" inkscape:groupmode="layer" transform="matrix(1,0,0,1,0,0)" style="opacity:1.0">
        <path transform="matrix(1,0,0,1,0,0)" d="M 62.003906 86.11064 L 61.003906 86.11064 L 61.003906 87.11064 L 61.003906 88.11064 L 61.003906 90.11064 L 60.003906 91.11064 L 59.003906 95.11064 L 58.003906 99.11064 L 56.003906 104.11064 L 54.003906 113.11064 L 51.003906 124.11064 L 47.003906 136.11064 L 44.003906 147.11064 L 41.003906 159.11064 L 38.003906 171.11064 L 35.003906 182.11064 L 33.003906 192.11064 L 30.003906 203.11064 L 28.003906 213.11064 L 26.003906 221.11064 L 25.003906 225.11064" scribmaster:penstyle="draw" style="stroke:#000000;stroke-width:1.0;stroke-linejoin:round;stroke-linecap:round;stroke-opacity:1.0;fill:none"/>
      </g>
    </g>
    <defs/>
    <g xmlns:inkscape="http://www.inkscape.org/namespaces/inkscape" id="1620939601513" transform="matrix(1,0,0,1,0,0)" style="opacity:1.0">
      <g id="1620621491459" inkscape:groupmode="layer" transform="matrix(1,0,0,1,0,0)" style="opacity:1.0"/>
    </g>
  </g>
  <g transform="translate(153, 40) scale(.15 .15) ">
    <sodipodi:namedview xmlns:sodipodi="http://sodipodi.sourceforge.net/DTD/sodipodi-0.dtd" id="ScribMaster"/>
    <filter id="blur">
      <feGaussianBlur stdDeviation="5.0"/>
    </filter>
    <defs/>
    <g xmlns:inkscape="http://www.inkscape.org/namespaces/inkscape" xmlns:scribmaster="http://scribmaster.com/scribmaster" id="1620939464110" transform="matrix(1,0,0,1,124.996094,181.889359)" style="opacity:1.0">
      <g id="1620536817093" inkscape:groupmode="layer" transform="matrix(1,0,0,1,0,0)" style="opacity:1.0">
        <path transform="matrix(1,0,0,1,0,0)" d="M 44.003906 146.11064 L 43.003906 146.11064 L 42.003906 146.11064 L 41.003906 147.11064 L 41.003906 148.11064 L 41.003906 149.11064 L 40.003906 150.11064 L 40.003906 152.11064 L 40.003906 155.11064 L 40.003906 159.11064 L 39.003906 163.11064 L 39.003906 168.11064 L 38.003906 174.11064 L 37.003906 179.11064 L 37.003906 184.11064 L 36.003906 190.11064 L 35.003906 196.11064 L 35.003906 201.11064 L 34.003906 206.11064 L 34.003906 211.11064 L 33.003906 216.11064 L 33.003906 220.11064 L 33.003906 224.11064 L 34.003906 226.11064" scribmaster:penstyle="draw" style="stroke:#000000;stroke-width:1.0;stroke-linejoin:round;stroke-linecap:round;stroke-opacity:1.0;fill:none"/>
        <path transform="matrix(1,0,0,1,0,0)" d="M 59.003906 91.11064 L 58.003906 92.11064 L 57.003906 93.11064 L 55.003906 96.11064 L 54.003906 99.11064 L 52.003906 102.11064 L 51.003906 106.11064" scribmaster:penstyle="draw" style="stroke:#000000;stroke-width:1.0;stroke-linejoin:round;stroke-linecap:round;stroke-opacity:1.0;fill:none"/>
      </g>
    </g>
    <defs/>
    <g xmlns:inkscape="http://www.inkscape.org/namespaces/inkscape" id="1620939464111" transform="matrix(1,0,0,1,0,0)" style="opacity:1.0">
      <g id="1620621491459" inkscape:groupmode="layer" transform="matrix(1,0,0,1,0,0)" style="opacity:1.0"/>
    </g>
  </g>
  <g transform="translate(161, 40) scale(.15 .15) ">
    <sodipodi:namedview xmlns:sodipodi="http://sodipodi.sourceforge.net/DTD/sodipodi-0.dtd" id="ScribMaster"/>
    <filter id="blur">
      <feGaussianBlur stdDeviation="5.0"/>
    </filter>
    <defs/>
    <g xmlns:inkscape="http://www.inkscape.org/namespaces/inkscape" xmlns:scribmaster="http://scribmaster.com/scribmaster" id="1620939889795" transform="matrix(1,0,0,1,124.996094,181.889359)" style="opacity:1.0">
      <g id="1620536817093" inkscape:groupmode="layer" transform="matrix(1,0,0,1,0,0)" style="opacity:1.0">
        <path transform="matrix(1,0,0,1,0,0)" d="M 102.00391 132.11064 L 102.00391 133.11064 L 102.00391 134.11064 L 101.00391 135.11064 L 101.00391 136.11064 L 100.00391 137.11064 L 99.00391 139.11064 L 98.00391 140.11064 L 96.00391 143.11064 L 93.00391 148.11064 L 90.00391 154.11064 L 85.00391 162.11064 L 80.00391 171.11064 L 76.00391 181.11064 L 71.00391 192.11064 L 65.00391 203.11064 L 59.003906 213.11064 L 53.003906 222.11064 L 48.003906 229.11064 L 44.003906 235.11064 L 40.003906 240.11064 L 37.003906 244.11064 L 35.003906 246.11064 L 34.003906 247.11064 L 34.003906 248.11064 L 33.003906 249.11064" scribmaster:penstyle="draw" style="stroke:#000000;stroke-width:1.0;stroke-linejoin:round;stroke-linecap:round;stroke-opacity:1.0;fill:none"/>
        <path transform="matrix(1,0,0,1,0,0)" d="M 36.003906 131.11064 L 35.003906 131.11064 L 34.003906 131.11064 L 33.003906 131.11064 L 34.003906 131.11064 L 34.003906 133.11064 L 35.003906 135.11064 L 37.003906 137.11064 L 39.003906 141.11064 L 43.003906 146.11064 L 48.003906 155.11064 L 54.003906 165.11064 L 60.003906 175.11064 L 66.00391 185.11064 L 73.00391 196.11064 L 79.00391 205.11064 L 86.00391 213.11064 L 93.00391 220.11064 L 98.00391 225.11064" scribmaster:penstyle="draw" style="stroke:#000000;stroke-width:1.0;stroke-linejoin:round;stroke-linecap:round;stroke-opacity:1.0;fill:none"/>
      </g>
    </g>
    <defs/>
    <g xmlns:inkscape="http://www.inkscape.org/namespaces/inkscape" id="1620939889797" transform="matrix(1,0,0,1,0,0)" style="opacity:1.0">
      <g id="1620621491459" inkscape:groupmode="layer" transform="matrix(1,0,0,1,0,0)" style="opacity:1.0"/>
    </g>
  </g>
  <g transform="translate(0, 80) scale(.15 .15) ">
    <sodipodi:namedview xmlns:sodipodi="http://sodipodi.sourceforge.net/DTD/sodipodi-0.dtd" id="ScribMaster"/>
    <filter id="blur">
      <feGaussianBlur stdDeviation="5.0"/>
    </filter>
    <defs/>
    <g xmlns:inkscape="http://www.inkscape.org/namespaces/inkscape" xmlns:scribmaster="http://scribmaster.com/scribmaster" id="1620939869028" transform="matrix(1,0,0,1,124.996094,181.889359)" style="opacity:1.0">
      <g id="1620536817093" inkscape:groupmode="layer" transform="matrix(1,0,0,1,0,0)" style="opacity:1.0">
        <path transform="matrix(1,0,0,1,0,0)" d="M 34.003906 128.11064 L 34.003906 129.11064 L 34.003906 130.11064 L 34.003906 131.11064 L 35.003906 133.11064 L 35.003906 135.11064 L 35.003906 136.11064 L 35.003906 139.11064 L 36.003906 142.11064 L 37.003906 146.11064 L 37.003906 150.11064 L 38.003906 156.11064 L 38.003906 162.11064 L 39.003906 168.11064 L 39.003906 173.11064 L 40.003906 179.11064 L 40.003906 184.11064 L 40.003906 190.11064 L 40.003906 196.11064 L 40.003906 203.11064 L 40.003906 209.11064 L 41.003906 215.11064 L 42.003906 220.11064 L 43.003906 224.11064 L 43.003906 227.11064 L 44.003906 228.11064 L 44.003906 230.11064 L 45.003906 231.11064 L 45.003906 232.11064 L 46.003906 232.11064 L 47.003906 232.11064 L 48.003906 231.11064 L 49.003906 229.11064 L 51.003906 227.11064 L 52.003906 224.11064 L 54.003906 221.11064 L 56.003906 218.11064 L 59.003906 214.11064 L 61.003906 209.11064 L 63.003906 204.11064 L 65.00391 199.11064 L 68.00391 195.11064 L 70.00391 191.11064 L 72.00391 187.11064 L 74.00391 184.11064 L 75.00391 181.11064 L 77.00391 179.11064 L 78.00391 176.11064 L 79.00391 174.11064 L 80.00391 173.11064 L 81.00391 171.11064 L 82.00391 170.11064 L 83.00391 170.11064 L 84.00391 169.11064 L 85.00391 169.11064 L 85.00391 170.11064 L 86.00391 171.11064 L 87.00391 172.11064 L 87.00391 174.11064 L 88.00391 176.11064 L 90.00391 179.11064 L 90.00391 183.11064 L 91.00391 186.11064 L 92.00391 189.11064 L 93.00391 193.11064 L 94.00391 197.11064 L 95.00391 201.11064 L 96.00391 205.11064 L 97.00391 209.11064 L 98.00391 213.11064 L 99.00391 216.11064 L 100.00391 218.11064 L 101.00391 221.11064 L 102.00391 223.11064 L 103.00391 225.11064 L 104.00391 226.11064 L 105.00391 226.11064 L 106.00391 226.11064 L 107.00391 226.11064 L 109.00391 224.11064 L 111.00391 222.11064 L 113.00391 219.11064 L 115.00391 214.11064 L 118.00391 208.11064 L 121.00391 202.11064 L 124.00391 194.11064 L 127.00391 186.11064 L 130.0039 180.11064 L 133.0039 173.11064 L 136.0039 167.11064 L 138.0039 161.11064 L 140.0039 154.11064 L 143.0039 149.11064 L 145.0039 144.11064 L 146.0039 140.11064 L 148.0039 137.11064 L 149.0039 135.11064 L 149.0039 133.11064 L 150.0039 132.11064 L 151.0039 131.11064" scribmaster:penstyle="draw" style="stroke:#000000;stroke-width:1.0;stroke-linejoin:round;stroke-linecap:round;stroke-opacity:1.0;fill:none"/>
      </g>
    </g>
    <defs/>
    <g xmlns:inkscape="http://www.inkscape.org/namespaces/inkscape" id="1620939869029" transform="matrix(1,0,0,1,0,0)" style="opacity:1.0">
      <g id="1620621491459" inkscape:groupmode="layer" transform="matrix(1,0,0,1,0,0)" style="opacity:1.0"/>
    </g>
  </g>
  <g transform="translate(23, 80) scale(.15 .15) ">
    <sodipodi:namedview xmlns:sodipodi="http://sodipodi.sourceforge.net/DTD/sodipodi-0.dtd" id="ScribMaster"/>
    <filter id="blur">
      <feGaussianBlur stdDeviation="5.0"/>
    </filter>
    <defs/>
    <g xmlns:inkscape="http://www.inkscape.org/namespaces/inkscape" xmlns:scribmaster="http://scribmaster.com/scribmaster" id="1620939226288" transform="matrix(1,0,0,1,124.996094,181.889359)" style="opacity:1.0">
      <g id="1620536817093" inkscape:groupmode="layer" transform="matrix(1,0,0,1,0,0)" style="opacity:1.0">
        <path transform="matrix(1,0,0,1,0,0)" d="M 88.00391 134.11064 L 87.00391 135.11064 L 86.00391 135.11064 L 85.00391 135.11064 L 85.00391 136.11064 L 84.00391 136.11064 L 82.00391 137.11064 L 81.00391 138.11064 L 80.00391 138.11064 L 78.00391 139.11064 L 75.00391 140.11064 L 72.00391 141.11064 L 66.00391 143.11064 L 61.003906 145.11064 L 56.003906 147.11064 L 51.003906 150.11064 L 46.003906 153.11064 L 41.003906 158.11064 L 35.003906 163.11064 L 30.003906 168.11064 L 25.003906 173.11064 L 20.003906 178.11064 L 16.003906 184.11064 L 13.003906 189.11064 L 10.003906 194.11064 L 7.0039062 199.11064 L 5.0039062 205.11064 L 4.0039062 210.11064 L 4.0039062 215.11064 L 4.0039062 220.11064 L 5.0039062 224.11064 L 6.0039062 228.11064 L 9.003906 230.11064 L 10.003906 231.11064 L 13.003906 232.11064 L 16.003906 232.11064 L 20.003906 232.11064 L 25.003906 232.11064 L 32.003906 230.11064 L 40.003906 227.11064 L 47.003906 223.11064 L 53.003906 218.11064 L 61.003906 212.11064 L 68.00391 206.11064 L 76.00391 199.11064 L 83.00391 192.11064 L 88.00391 185.11064 L 93.00391 178.11064 L 97.00391 171.11064 L 100.00391 165.11064 L 102.00391 159.11064 L 104.00391 154.11064 L 105.00391 149.11064 L 105.00391 145.11064 L 104.00391 143.11064 L 104.00391 141.11064 L 103.00391 140.11064 L 102.00391 138.11064 L 102.00391 137.11064 L 101.00391 136.11064 L 100.00391 136.11064 L 100.00391 135.11064 L 99.00391 135.11064 L 98.00391 135.11064 L 97.00391 135.11064 L 96.00391 135.11064 L 95.00391 136.11064 L 95.00391 137.11064 L 95.00391 139.11064 L 94.00391 141.11064 L 94.00391 145.11064 L 93.00391 148.11064 L 93.00391 153.11064 L 94.00391 160.11064 L 95.00391 167.11064 L 95.00391 176.11064 L 97.00391 184.11064 L 98.00391 192.11064 L 100.00391 200.11064 L 102.00391 206.11064 L 105.00391 212.11064 L 107.00391 216.11064 L 110.00391 219.11064 L 112.00391 220.11064 L 116.00391 220.11064 L 125.00391 218.11064" scribmaster:penstyle="draw" style="stroke:#000000;stroke-width:1.0;stroke-linejoin:round;stroke-linecap:round;stroke-opacity:1.0;fill:none"/>
      </g>
    </g>
    <defs/>
    <g xmlns:inkscape="http://www.inkscape.org/namespaces/inkscape" id="1620939226305" transform="matrix(1,0,0,1,0,0)" style="opacity:1.0">
      <g id="1620621491459" inkscape:groupmode="layer" transform="matrix(1,0,0,1,0,0)" style="opacity:1.0"/>
    </g>
  </g>
  <g transform="translate(41, 80) scale(.15 .15) ">
    <sodipodi:namedview xmlns:sodipodi="http://sodipodi.sourceforge.net/DTD/sodipodi-0.dtd" id="ScribMaster"/>
    <filter id="blur">
      <feGaussianBlur stdDeviation="5.0"/>
    </filter>
    <defs/>
    <g xmlns:inkscape="http://www.inkscape.org/namespaces/inkscape" xmlns:scribmaster="http://scribmaster.com/scribmaster" id="1620939751231" transform="matrix(1,0,0,1,124.996094,181.889359)" style="opacity:1.0">
      <g id="1620536817093" inkscape:groupmode="layer" transform="matrix(1,0,0,1,0,0)" style="opacity:1.0">
        <path transform="matrix(1,0,0,1,0,0)" d="M 88.00391 133.11064 L 87.00391 133.11064 L 86.00391 134.11064 L 85.00391 135.11064 L 84.00391 135.11064 L 83.00391 136.11064 L 81.00391 137.11064 L 79.00391 139.11064 L 76.00391 141.11064 L 73.00391 143.11064 L 70.00391 145.11064 L 66.00391 147.11064 L 62.003906 150.11064 L 59.003906 152.11064 L 55.003906 154.11064 L 52.003906 157.11064 L 50.003906 159.11064 L 47.003906 162.11064 L 45.003906 165.11064 L 45.003906 167.11064 L 45.003906 170.11064 L 45.003906 172.11064 L 46.003906 175.11064 L 48.003906 177.11064 L 51.003906 179.11064 L 53.003906 182.11064 L 57.003906 185.11064 L 61.003906 188.11064 L 65.00391 191.11064 L 70.00391 194.11064 L 73.00391 197.11064 L 77.00391 200.11064 L 80.00391 203.11064 L 81.00391 207.11064 L 82.00391 210.11064 L 81.00391 213.11064 L 80.00391 216.11064 L 78.00391 218.11064 L 75.00391 222.11064 L 70.00391 226.11064 L 65.00391 229.11064 L 59.003906 232.11064 L 51.003906 235.11064 L 44.003906 238.11064 L 36.003906 242.11064 L 30.003906 245.11064" scribmaster:penstyle="draw" style="stroke:#000000;stroke-width:1.0;stroke-linejoin:round;stroke-linecap:round;stroke-opacity:1.0;fill:none"/>
      </g>
    </g>
    <defs/>
    <g xmlns:inkscape="http://www.inkscape.org/namespaces/inkscape" id="1620939751231" transform="matrix(1,0,0,1,0,0)" style="opacity:1.0">
      <g id="1620621491459" inkscape:groupmode="layer" transform="matrix(1,0,0,1,0,0)" style="opacity:1.0"/>
    </g>
  </g>
  <g transform="translate(65, 80) scale(.15 .15) ">
    <sodipodi:namedview xmlns:sodipodi="http://sodipodi.sourceforge.net/DTD/sodipodi-0.dtd" id="ScribMaster"/>
    <filter id="blur">
      <feGaussianBlur stdDeviation="5.0"/>
    </filter>
    <defs/>
    <g xmlns:inkscape="http://www.inkscape.org/namespaces/inkscape" xmlns:scribmaster="http://scribmaster.com/scribmaster" id="1620939556874" transform="matrix(1,0,0,1,124.996094,181.889359)" style="opacity:1.0">
      <g id="1620536817093" inkscape:groupmode="layer" transform="matrix(1,0,0,1,0,0)" style="opacity:1.0">
        <path transform="matrix(1,0,0,1,0,0)" d="M 34.003906 66.11064 L 34.003906 67.11064 L 34.003906 68.11064 L 34.003906 69.11064 L 34.003906 70.11064 L 34.003906 71.11064 L 34.003906 73.11064 L 34.003906 74.11064 L 34.003906 76.11064 L 34.003906 77.11064 L 35.003906 79.11064 L 35.003906 81.11064 L 35.003906 85.11064 L 36.003906 89.11064 L 36.003906 92.11064 L 37.003906 96.11064 L 37.003906 101.11064 L 38.003906 105.11064 L 39.003906 111.11064 L 40.003906 116.11064 L 40.003906 122.11064 L 41.003906 128.11064 L 41.003906 134.11064 L 41.003906 139.11064 L 41.003906 145.11064 L 41.003906 150.11064 L 41.003906 155.11064 L 42.003906 160.11064 L 42.003906 166.11064 L 42.003906 171.11064 L 42.003906 176.11064 L 42.003906 181.11064 L 42.003906 186.11064 L 42.003906 191.11064 L 42.003906 196.11064 L 42.003906 201.11064 L 42.003906 206.11064 L 42.003906 210.11064 L 43.003906 214.11064 L 43.003906 218.11064 L 44.003906 221.11064 L 45.003906 223.11064 L 45.003906 226.11064" scribmaster:penstyle="draw" style="stroke:#000000;stroke-width:1.0;stroke-linejoin:round;stroke-linecap:round;stroke-opacity:1.0;fill:none"/>
        <path transform="matrix(1,0,0,1,0,0)" d="M 98.00391 131.11064 L 98.00391 133.11064 L 98.00391 134.11064 L 98.00391 136.11064 L 97.00391 138.11064 L 95.00391 140.11064 L 94.00391 142.11064 L 91.00391 145.11064 L 89.00391 147.11064 L 87.00391 150.11064 L 84.00391 153.11064 L 81.00391 155.11064 L 79.00391 158.11064 L 77.00391 160.11064 L 75.00391 163.11064 L 73.00391 165.11064 L 71.00391 167.11064 L 69.00391 169.11064 L 66.00391 171.11064 L 62.003906 174.11064 L 59.003906 176.11064 L 55.003906 178.11064 L 52.003906 180.11064 L 48.003906 181.11064" scribmaster:penstyle="draw" style="stroke:#000000;stroke-width:1.0;stroke-linejoin:round;stroke-linecap:round;stroke-opacity:1.0;fill:none"/>
        <path transform="matrix(1,0,0,1,0,0)" d="M 39.003906 187.11064 L 40.003906 186.11064 L 41.003906 187.11064 L 42.003906 188.11064 L 43.003906 189.11064 L 45.003906 190.11064 L 48.003906 192.11064 L 50.003906 194.11064 L 54.003906 196.11064 L 59.003906 198.11064 L 65.00391 203.11064 L 72.00391 209.11064 L 81.00391 216.11064 L 89.00391 223.11064 L 96.00391 229.11064 L 104.00391 234.11064" scribmaster:penstyle="draw" style="stroke:#000000;stroke-width:1.0;stroke-linejoin:round;stroke-linecap:round;stroke-opacity:1.0;fill:none"/>
      </g>
    </g>
    <defs/>
    <g xmlns:inkscape="http://www.inkscape.org/namespaces/inkscape" id="1620939556876" transform="matrix(1,0,0,1,0,0)" style="opacity:1.0">
      <g id="1620621491459" inkscape:groupmode="layer" transform="matrix(1,0,0,1,0,0)" style="opacity:1.0"/>
    </g>
  </g>
  <g transform="translate(83, 80) scale(.15 .15) ">
    <sodipodi:namedview xmlns:sodipodi="http://sodipodi.sourceforge.net/DTD/sodipodi-0.dtd" id="ScribMaster"/>
    <filter id="blur">
      <feGaussianBlur stdDeviation="5.0"/>
    </filter>
    <defs/>
    <g xmlns:inkscape="http://www.inkscape.org/namespaces/inkscape" xmlns:scribmaster="http://scribmaster.com/scribmaster" id="1620939464110" transform="matrix(1,0,0,1,124.996094,181.889359)" style="opacity:1.0">
      <g id="1620536817093" inkscape:groupmode="layer" transform="matrix(1,0,0,1,0,0)" style="opacity:1.0">
        <path transform="matrix(1,0,0,1,0,0)" d="M 44.003906 146.11064 L 43.003906 146.11064 L 42.003906 146.11064 L 41.003906 147.11064 L 41.003906 148.11064 L 41.003906 149.11064 L 40.003906 150.11064 L 40.003906 152.11064 L 40.003906 155.11064 L 40.003906 159.11064 L 39.003906 163.11064 L 39.003906 168.11064 L 38.003906 174.11064 L 37.003906 179.11064 L 37.003906 184.11064 L 36.003906 190.11064 L 35.003906 196.11064 L 35.003906 201.11064 L 34.003906 206.11064 L 34.003906 211.11064 L 33.003906 216.11064 L 33.003906 220.11064 L 33.003906 224.11064 L 34.003906 226.11064" scribmaster:penstyle="draw" style="stroke:#000000;stroke-width:1.0;stroke-linejoin:round;stroke-linecap:round;stroke-opacity:1.0;fill:none"/>
        <path transform="matrix(1,0,0,1,0,0)" d="M 59.003906 91.11064 L 58.003906 92.11064 L 57.003906 93.11064 L 55.003906 96.11064 L 54.003906 99.11064 L 52.003906 102.11064 L 51.003906 106.11064" scribmaster:penstyle="draw" style="stroke:#000000;stroke-width:1.0;stroke-linejoin:round;stroke-linecap:round;stroke-opacity:1.0;fill:none"/>
      </g>
    </g>
    <defs/>
    <g xmlns:inkscape="http://www.inkscape.org/namespaces/inkscape" id="1620939464111" transform="matrix(1,0,0,1,0,0)" style="opacity:1.0">
      <g id="1620621491459" inkscape:groupmode="layer" transform="matrix(1,0,0,1,0,0)" style="opacity:1.0"/>
    </g>
  </g>
  <g transform="translate(91, 80) scale(.15 .15) ">
    <sodipodi:namedview xmlns:sodipodi="http://sodipodi.sourceforge.net/DTD/sodipodi-0.dtd" id="ScribMaster"/>
    <filter id="blur">
      <feGaussianBlur stdDeviation="5.0"/>
    </filter>
    <defs/>
    <g xmlns:inkscape="http://www.inkscape.org/namespaces/inkscape" xmlns:scribmaster="http://scribmaster.com/scribmaster" id="1620939601512" transform="matrix(1,0,0,1,124.996094,181.889359)" style="opacity:1.0">
      <g id="1620536817093" inkscape:groupmode="layer" transform="matrix(1,0,0,1,0,0)" style="opacity:1.0">
        <path transform="matrix(1,0,0,1,0,0)" d="M 62.003906 86.11064 L 61.003906 86.11064 L 61.003906 87.11064 L 61.003906 88.11064 L 61.003906 90.11064 L 60.003906 91.11064 L 59.003906 95.11064 L 58.003906 99.11064 L 56.003906 104.11064 L 54.003906 113.11064 L 51.003906 124.11064 L 47.003906 136.11064 L 44.003906 147.11064 L 41.003906 159.11064 L 38.003906 171.11064 L 35.003906 182.11064 L 33.003906 192.11064 L 30.003906 203.11064 L 28.003906 213.11064 L 26.003906 221.11064 L 25.003906 225.11064" scribmaster:penstyle="draw" style="stroke:#000000;stroke-width:1.0;stroke-linejoin:round;stroke-linecap:round;stroke-opacity:1.0;fill:none"/>
      </g>
    </g>
    <defs/>
    <g xmlns:inkscape="http://www.inkscape.org/namespaces/inkscape" id="1620939601513" transform="matrix(1,0,0,1,0,0)" style="opacity:1.0">
      <g id="1620621491459" inkscape:groupmode="layer" transform="matrix(1,0,0,1,0,0)" style="opacity:1.0"/>
    </g>
  </g>
  <g transform="translate(99, 80) scale(.15 .15) ">
    <sodipodi:namedview xmlns:sodipodi="http://sodipodi.sourceforge.net/DTD/sodipodi-0.dtd" id="ScribMaster"/>
    <filter id="blur">
      <feGaussianBlur stdDeviation="5.0"/>
    </filter>
    <defs/>
    <g xmlns:inkscape="http://www.inkscape.org/namespaces/inkscape" xmlns:scribmaster="http://scribmaster.com/scribmaster" id="1620939601512" transform="matrix(1,0,0,1,124.996094,181.889359)" style="opacity:1.0">
      <g id="1620536817093" inkscape:groupmode="layer" transform="matrix(1,0,0,1,0,0)" style="opacity:1.0">
        <path transform="matrix(1,0,0,1,0,0)" d="M 62.003906 86.11064 L 61.003906 86.11064 L 61.003906 87.11064 L 61.003906 88.11064 L 61.003906 90.11064 L 60.003906 91.11064 L 59.003906 95.11064 L 58.003906 99.11064 L 56.003906 104.11064 L 54.003906 113.11064 L 51.003906 124.11064 L 47.003906 136.11064 L 44.003906 147.11064 L 41.003906 159.11064 L 38.003906 171.11064 L 35.003906 182.11064 L 33.003906 192.11064 L 30.003906 203.11064 L 28.003906 213.11064 L 26.003906 221.11064 L 25.003906 225.11064" scribmaster:penstyle="draw" style="stroke:#000000;stroke-width:1.0;stroke-linejoin:round;stroke-linecap:round;stroke-opacity:1.0;fill:none"/>
      </g>
    </g>
    <defs/>
    <g xmlns:inkscape="http://www.inkscape.org/namespaces/inkscape" id="1620939601513" transform="matrix(1,0,0,1,0,0)" style="opacity:1.0">
      <g id="1620621491459" inkscape:groupmode="layer" transform="matrix(1,0,0,1,0,0)" style="opacity:1.0"/>
    </g>
  </g>
  <g transform="translate(0, 120) scale(.15 .15) ">
    <sodipodi:namedview xmlns:sodipodi="http://sodipodi.sourceforge.net/DTD/sodipodi-0.dtd" id="ScribMaster"/>
    <filter id="blur">
      <feGaussianBlur stdDeviation="5.0"/>
    </filter>
    <defs/>
    <g xmlns:inkscape="http://www.inkscape.org/namespaces/inkscape" xmlns:scribmaster="http://scribmaster.com/scribmaster" id="1620939751231" transform="matrix(1,0,0,1,124.996094,181.889359)" style="opacity:1.0">
      <g id="1620536817093" inkscape:groupmode="layer" transform="matrix(1,0,0,1,0,0)" style="opacity:1.0">
        <path transform="matrix(1,0,0,1,0,0)" d="M 88.00391 133.11064 L 87.00391 133.11064 L 86.00391 134.11064 L 85.00391 135.11064 L 84.00391 135.11064 L 83.00391 136.11064 L 81.00391 137.11064 L 79.00391 139.11064 L 76.00391 141.11064 L 73.00391 143.11064 L 70.00391 145.11064 L 66.00391 147.11064 L 62.003906 150.11064 L 59.003906 152.11064 L 55.003906 154.11064 L 52.003906 157.11064 L 50.003906 159.11064 L 47.003906 162.11064 L 45.003906 165.11064 L 45.003906 167.11064 L 45.003906 170.11064 L 45.003906 172.11064 L 46.003906 175.11064 L 48.003906 177.11064 L 51.003906 179.11064 L 53.003906 182.11064 L 57.003906 185.11064 L 61.003906 188.11064 L 65.00391 191.11064 L 70.00391 194.11064 L 73.00391 197.11064 L 77.00391 200.11064 L 80.00391 203.11064 L 81.00391 207.11064 L 82.00391 210.11064 L 81.00391 213.11064 L 80.00391 216.11064 L 78.00391 218.11064 L 75.00391 222.11064 L 70.00391 226.11064 L 65.00391 229.11064 L 59.003906 232.11064 L 51.003906 235.11064 L 44.003906 238.11064 L 36.003906 242.11064 L 30.003906 245.11064" scribmaster:penstyle="draw" style="stroke:#000000;stroke-width:1.0;stroke-linejoin:round;stroke-linecap:round;stroke-opacity:1.0;fill:none"/>
      </g>
    </g>
    <defs/>
    <g xmlns:inkscape="http://www.inkscape.org/namespaces/inkscape" id="1620939751231" transform="matrix(1,0,0,1,0,0)" style="opacity:1.0">
      <g id="1620621491459" inkscape:groupmode="layer" transform="matrix(1,0,0,1,0,0)" style="opacity:1.0"/>
    </g>
  </g>
  <g transform="translate(12, 120) scale(.15 .15) ">
    <sodipodi:namedview xmlns:sodipodi="http://sodipodi.sourceforge.net/DTD/sodipodi-0.dtd" id="ScribMaster"/>
    <filter id="blur">
      <feGaussianBlur stdDeviation="5.0"/>
    </filter>
    <defs/>
    <g xmlns:inkscape="http://www.inkscape.org/namespaces/inkscape" xmlns:scribmaster="http://scribmaster.com/scribmaster" id="1620939809557" transform="matrix(1,0,0,1,124.996094,181.889359)" style="opacity:1.0">
      <g id="1620536817093" inkscape:groupmode="layer" transform="matrix(1,0,0,1,0,0)" style="opacity:1.0">
        <path transform="matrix(1,0,0,1,0,0)" d="M 20.003906 115.11064 L 19.003906 114.11064 L 18.003906 114.11064 L 17.003906 114.11064 L 16.003906 114.11064 L 17.003906 115.11064 L 19.003906 115.11064 L 21.003906 115.11064 L 25.003906 115.11064 L 30.003906 116.11064 L 35.003906 116.11064 L 42.003906 116.11064 L 50.003906 117.11064 L 59.003906 118.11064 L 66.00391 118.11064 L 73.00391 119.11064 L 80.00391 120.11064 L 87.00391 120.11064 L 92.00391 120.11064 L 97.00391 120.11064 L 101.00391 120.11064" scribmaster:penstyle="draw" style="stroke:#000000;stroke-width:1.0;stroke-linejoin:round;stroke-linecap:round;stroke-opacity:1.0;fill:none"/>
        <path transform="matrix(1,0,0,1,0,0)" d="M 67.00391 76.11064 L 67.00391 77.11064 L 67.00391 79.11064 L 67.00391 81.11064 L 68.00391 83.11064 L 68.00391 86.11064 L 68.00391 90.11064 L 68.00391 94.11064 L 68.00391 99.11064 L 68.00391 105.11064 L 68.00391 112.11064 L 68.00391 120.11064 L 68.00391 127.11064 L 68.00391 134.11064 L 68.00391 143.11064 L 68.00391 151.11064 L 68.00391 161.11064 L 68.00391 171.11064 L 67.00391 179.11064 L 67.00391 187.11064 L 67.00391 195.11064 L 67.00391 201.11064 L 67.00391 207.11064 L 67.00391 213.11064 L 67.00391 218.11064 L 67.00391 222.11064 L 67.00391 226.11064 L 67.00391 229.11064 L 68.00391 232.11064" scribmaster:penstyle="draw" style="stroke:#000000;stroke-width:1.0;stroke-linejoin:round;stroke-linecap:round;stroke-opacity:1.0;fill:none"/>
      </g>
    </g>
    <defs/>
    <g xmlns:inkscape="http://www.inkscape.org/namespaces/inkscape" id="1620939809558" transform="matrix(1,0,0,1,0,0)" style="opacity:1.0">
      <g id="1620621491459" inkscape:groupmode="layer" transform="matrix(1,0,0,1,0,0)" style="opacity:1.0"/>
    </g>
  </g>
  <g transform="translate(24, 120) scale(.15 .15) ">
    <sodipodi:namedview xmlns:sodipodi="http://sodipodi.sourceforge.net/DTD/sodipodi-0.dtd" id="ScribMaster"/>
    <filter id="blur">
      <feGaussianBlur stdDeviation="5.0"/>
    </filter>
    <defs/>
    <g xmlns:inkscape="http://www.inkscape.org/namespaces/inkscape" xmlns:scribmaster="http://scribmaster.com/scribmaster" id="1620939226288" transform="matrix(1,0,0,1,124.996094,181.889359)" style="opacity:1.0">
      <g id="1620536817093" inkscape:groupmode="layer" transform="matrix(1,0,0,1,0,0)" style="opacity:1.0">
        <path transform="matrix(1,0,0,1,0,0)" d="M 88.00391 134.11064 L 87.00391 135.11064 L 86.00391 135.11064 L 85.00391 135.11064 L 85.00391 136.11064 L 84.00391 136.11064 L 82.00391 137.11064 L 81.00391 138.11064 L 80.00391 138.11064 L 78.00391 139.11064 L 75.00391 140.11064 L 72.00391 141.11064 L 66.00391 143.11064 L 61.003906 145.11064 L 56.003906 147.11064 L 51.003906 150.11064 L 46.003906 153.11064 L 41.003906 158.11064 L 35.003906 163.11064 L 30.003906 168.11064 L 25.003906 173.11064 L 20.003906 178.11064 L 16.003906 184.11064 L 13.003906 189.11064 L 10.003906 194.11064 L 7.0039062 199.11064 L 5.0039062 205.11064 L 4.0039062 210.11064 L 4.0039062 215.11064 L 4.0039062 220.11064 L 5.0039062 224.11064 L 6.0039062 228.11064 L 9.003906 230.11064 L 10.003906 231.11064 L 13.003906 232.11064 L 16.003906 232.11064 L 20.003906 232.11064 L 25.003906 232.11064 L 32.003906 230.11064 L 40.003906 227.11064 L 47.003906 223.11064 L 53.003906 218.11064 L 61.003906 212.11064 L 68.00391 206.11064 L 76.00391 199.11064 L 83.00391 192.11064 L 88.00391 185.11064 L 93.00391 178.11064 L 97.00391 171.11064 L 100.00391 165.11064 L 102.00391 159.11064 L 104.00391 154.11064 L 105.00391 149.11064 L 105.00391 145.11064 L 104.00391 143.11064 L 104.00391 141.11064 L 103.00391 140.11064 L 102.00391 138.11064 L 102.00391 137.11064 L 101.00391 136.11064 L 100.00391 136.11064 L 100.00391 135.11064 L 99.00391 135.11064 L 98.00391 135.11064 L 97.00391 135.11064 L 96.00391 135.11064 L 95.00391 136.11064 L 95.00391 137.11064 L 95.00391 139.11064 L 94.00391 141.11064 L 94.00391 145.11064 L 93.00391 148.11064 L 93.00391 153.11064 L 94.00391 160.11064 L 95.00391 167.11064 L 95.00391 176.11064 L 97.00391 184.11064 L 98.00391 192.11064 L 100.00391 200.11064 L 102.00391 206.11064 L 105.00391 212.11064 L 107.00391 216.11064 L 110.00391 219.11064 L 112.00391 220.11064 L 116.00391 220.11064 L 125.00391 218.11064" scribmaster:penstyle="draw" style="stroke:#000000;stroke-width:1.0;stroke-linejoin:round;stroke-linecap:round;stroke-opacity:1.0;fill:none"/>
      </g>
    </g>
    <defs/>
    <g xmlns:inkscape="http://www.inkscape.org/namespaces/inkscape" id="1620939226305" transform="matrix(1,0,0,1,0,0)" style="opacity:1.0">
      <g id="1620621491459" inkscape:groupmode="layer" transform="matrix(1,0,0,1,0,0)" style="opacity:1.0"/>
    </g>
  </g>
  <g transform="translate(42, 120) scale(.15 .15) ">
    <sodipodi:namedview xmlns:sodipodi="http://sodipodi.sourceforge.net/DTD/sodipodi-0.dtd" id="ScribMaster"/>
    <filter id="blur">
      <feGaussianBlur stdDeviation="5.0"/>
    </filter>
    <defs/>
    <g xmlns:inkscape="http://www.inkscape.org/namespaces/inkscape" xmlns:scribmaster="http://scribmaster.com/scribmaster" id="1620939342040" transform="matrix(1,0,0,1,124.996094,181.889359)" style="opacity:1.0">
      <g id="1620536817093" inkscape:groupmode="layer" transform="matrix(1,0,0,1,0,0)" style="opacity:1.0">
        <path transform="matrix(1,0,0,1,0,0)" d="M 77.00391 132.11064 L 76.00391 132.11064 L 76.00391 133.11064 L 75.00391 133.11064 L 75.00391 134.11064 L 74.00391 135.11064 L 73.00391 135.11064 L 73.00391 136.11064 L 72.00391 136.11064 L 72.00391 137.11064 L 71.00391 137.11064 L 70.00391 137.11064 L 70.00391 138.11064 L 69.00391 138.11064 L 68.00391 139.11064 L 66.00391 139.11064 L 65.00391 140.11064 L 63.003906 140.11064 L 60.003906 141.11064 L 57.003906 143.11064 L 53.003906 145.11064 L 48.003906 148.11064 L 44.003906 151.11064 L 39.003906 154.11064 L 35.003906 159.11064 L 31.003906 163.11064 L 28.003906 167.11064 L 24.003906 174.11064 L 22.003906 179.11064 L 20.003906 185.11064 L 19.003906 191.11064 L 18.003906 198.11064 L 19.003906 203.11064 L 19.003906 209.11064 L 21.003906 214.11064 L 23.003906 218.11064 L 26.003906 222.11064 L 32.003906 224.11064 L 38.003906 224.11064 L 46.003906 223.11064 L 58.003906 221.11064 L 69.00391 219.11064 L 79.00391 217.11064" scribmaster:penstyle="draw" style="stroke:#000000;stroke-width:1.0;stroke-linejoin:round;stroke-linecap:round;stroke-opacity:1.0;fill:none"/>
      </g>
    </g>
    <defs/>
    <g xmlns:inkscape="http://www.inkscape.org/namespaces/inkscape" id="1620939342041" transform="matrix(1,0,0,1,0,0)" style="opacity:1.0">
      <g id="1620621491459" inkscape:groupmode="layer" transform="matrix(1,0,0,1,0,0)" style="opacity:1.0"/>
    </g>
  </g>
  <g transform="translate(54, 120) scale(.15 .15) ">
    <sodipodi:namedview xmlns:sodipodi="http://sodipodi.sourceforge.net/DTD/sodipodi-0.dtd" id="ScribMaster"/>
    <filter id="blur">
      <feGaussianBlur stdDeviation="5.0"/>
    </filter>
    <defs/>
    <g xmlns:inkscape="http://www.inkscape.org/namespaces/inkscape" xmlns:scribmaster="http://scribmaster.com/scribmaster" id="1620939905730" transform="matrix(1,0,0,1,124.996094,181.889359)" style="opacity:1.0">
      <g id="1620536817093" inkscape:groupmode="layer" transform="matrix(1,0,0,1,0,0)" style="opacity:1.0">
        <path transform="matrix(1,0,0,1,0,0)" d="M 33.003906 148.11064 L 34.003906 149.11064 L 34.003906 150.11064 L 35.003906 151.11064 L 36.003906 153.11064 L 37.003906 154.11064 L 38.003906 158.11064 L 40.003906 163.11064 L 42.003906 168.11064 L 45.003906 174.11064 L 47.003906 181.11064 L 50.003906 187.11064 L 52.003906 194.11064 L 55.003906 201.11064 L 58.003906 207.11064 L 61.003906 213.11064 L 63.003906 218.11064 L 66.00391 222.11064 L 69.00391 225.11064 L 70.00391 227.11064" scribmaster:penstyle="draw" style="stroke:#000000;stroke-width:1.0;stroke-linejoin:round;stroke-linecap:round;stroke-opacity:1.0;fill:none"/>
        <path transform="matrix(1,0,0,1,0,0)" d="M 134.0039 154.11064 L 134.0039 153.11064 L 133.0039 152.11064 L 133.0039 151.11064 L 132.0039 152.11064 L 132.0039 153.11064 L 131.0039 154.11064 L 131.0039 156.11064 L 130.0039 159.11064 L 128.0039 164.11064 L 125.00391 171.11064 L 121.00391 182.11064 L 116.00391 194.11064 L 109.00391 206.11064 L 99.00391 222.11064 L 90.00391 235.11064 L 79.00391 250.11064 L 68.00391 265.11066 L 59.003906 278.11066 L 51.003906 287.11066 L 45.003906 296.11066 L 41.003906 303.11066 L 37.003906 310.11066 L 35.003906 315.11066 L 34.003906 318.11066 L 35.003906 320.11066" scribmaster:penstyle="draw" style="stroke:#000000;stroke-width:1.0;stroke-linejoin:round;stroke-linecap:round;stroke-opacity:1.0;fill:none"/>
      </g>
    </g>
    <defs/>
    <g xmlns:inkscape="http://www.inkscape.org/namespaces/inkscape" id="1620939905731" transform="matrix(1,0,0,1,0,0)" style="opacity:1.0">
      <g id="1620621491459" inkscape:groupmode="layer" transform="matrix(1,0,0,1,0,0)" style="opacity:1.0"/>
    </g>
  </g>
  <g transform="translate(89, 120) scale(.15 .15) ">
    <sodipodi:namedview xmlns:sodipodi="http://sodipodi.sourceforge.net/DTD/sodipodi-0.dtd" id="ScribMaster"/>
    <filter id="blur">
      <feGaussianBlur stdDeviation="5.0"/>
    </filter>
    <defs/>
    <g xmlns:inkscape="http://www.inkscape.org/namespaces/inkscape" xmlns:scribmaster="http://scribmaster.com/scribmaster" id="1620939323575" transform="matrix(1,0,0,1,124.996094,181.889359)" style="opacity:1.0">
      <g id="1620536817093" inkscape:groupmode="layer" transform="matrix(1,0,0,1,0,0)" style="opacity:1.0">
        <path transform="matrix(1,0,0,1,0,0)" d="M 36.003906 26.110641 L 36.003906 27.110641 L 36.003906 28.110641 L 36.003906 29.110641 L 36.003906 30.110641 L 36.003906 32.11064 L 36.003906 33.11064 L 36.003906 36.11064 L 36.003906 40.11064 L 36.003906 43.11064 L 35.003906 47.11064 L 35.003906 51.11064 L 35.003906 55.11064 L 35.003906 58.11064 L 35.003906 62.11064 L 35.003906 66.11064 L 35.003906 71.11064 L 35.003906 75.11064 L 35.003906 80.11064 L 35.003906 86.11064 L 35.003906 91.11064 L 35.003906 96.11064 L 35.003906 101.11064 L 35.003906 107.11064 L 35.003906 112.11064 L 34.003906 118.11064 L 34.003906 124.11064 L 34.003906 130.11064 L 34.003906 135.11064 L 34.003906 141.11064 L 34.003906 146.11064 L 33.003906 151.11064 L 33.003906 156.11064 L 33.003906 162.11064 L 33.003906 167.11064 L 33.003906 172.11064 L 33.003906 177.11064 L 33.003906 181.11064 L 33.003906 186.11064 L 33.003906 190.11064 L 34.003906 194.11064 L 34.003906 198.11064 L 34.003906 202.11064 L 34.003906 206.11064 L 35.003906 210.11064 L 35.003906 213.11064 L 35.003906 217.11064 L 35.003906 219.11064 L 35.003906 222.11064 L 36.003906 225.11064 L 36.003906 227.11064 L 36.003906 230.11064 L 37.003906 233.11064 L 37.003906 235.11064 L 37.003906 238.11064 L 37.003906 240.11064 L 37.003906 241.11064 L 38.003906 243.11064 L 38.003906 244.11064 L 38.003906 245.11064 L 38.003906 246.11064 L 38.003906 247.11064 L 38.003906 248.11064 L 38.003906 247.11064 L 38.003906 246.11064 L 39.003906 243.11064 L 40.003906 240.11064 L 40.003906 236.11064 L 41.003906 231.11064 L 41.003906 226.11064 L 42.003906 221.11064 L 43.003906 216.11064 L 44.003906 211.11064 L 45.003906 205.11064 L 47.003906 200.11064 L 48.003906 194.11064 L 49.003906 189.11064 L 51.003906 185.11064 L 52.003906 180.11064 L 54.003906 176.11064 L 55.003906 171.11064 L 57.003906 168.11064 L 59.003906 164.11064 L 60.003906 161.11064 L 62.003906 159.11064 L 63.003906 156.11064 L 65.00391 155.11064 L 66.00391 153.11064 L 67.00391 152.11064 L 69.00391 151.11064 L 70.00391 150.11064 L 72.00391 150.11064 L 73.00391 149.11064 L 75.00391 148.11064 L 77.00391 148.11064 L 80.00391 148.11064 L 82.00391 148.11064 L 85.00391 148.11064 L 88.00391 149.11064 L 91.00391 150.11064 L 95.00391 151.11064 L 98.00391 153.11064 L 100.00391 155.11064 L 103.00391 158.11064 L 105.00391 161.11064 L 107.00391 164.11064 L 109.00391 168.11064 L 110.00391 173.11064 L 110.00391 178.11064 L 111.00391 183.11064 L 111.00391 189.11064 L 110.00391 194.11064 L 109.00391 200.11064 L 107.00391 205.11064 L 105.00391 209.11064 L 102.00391 213.11064 L 98.00391 217.11064 L 93.00391 221.11064 L 88.00391 223.11064 L 82.00391 226.11064 L 76.00391 228.11064 L 70.00391 230.11064 L 64.00391 232.11064 L 58.003906 233.11064 L 53.003906 234.11064 L 49.003906 235.11064" scribmaster:penstyle="draw" style="stroke:#000000;stroke-width:1.0;stroke-linejoin:round;stroke-linecap:round;stroke-opacity:1.0;fill:none"/>
      </g>
    </g>
    <defs/>
    <g xmlns:inkscape="http://www.inkscape.org/namespaces/inkscape" id="1620939323577" transform="matrix(1,0,0,1,0,0)" style="opacity:1.0">
      <g id="1620621491459" inkscape:groupmode="layer" transform="matrix(1,0,0,1,0,0)" style="opacity:1.0"/>
    </g>
  </g>
  <g transform="translate(107, 120) scale(.15 .15) ">
    <sodipodi:namedview xmlns:sodipodi="http://sodipodi.sourceforge.net/DTD/sodipodi-0.dtd" id="ScribMaster"/>
    <filter id="blur">
      <feGaussianBlur stdDeviation="5.0"/>
    </filter>
    <defs/>
    <g xmlns:inkscape="http://www.inkscape.org/namespaces/inkscape" xmlns:scribmaster="http://scribmaster.com/scribmaster" id="1620939809557" transform="matrix(1,0,0,1,124.996094,181.889359)" style="opacity:1.0">
      <g id="1620536817093" inkscape:groupmode="layer" transform="matrix(1,0,0,1,0,0)" style="opacity:1.0">
        <path transform="matrix(1,0,0,1,0,0)" d="M 20.003906 115.11064 L 19.003906 114.11064 L 18.003906 114.11064 L 17.003906 114.11064 L 16.003906 114.11064 L 17.003906 115.11064 L 19.003906 115.11064 L 21.003906 115.11064 L 25.003906 115.11064 L 30.003906 116.11064 L 35.003906 116.11064 L 42.003906 116.11064 L 50.003906 117.11064 L 59.003906 118.11064 L 66.00391 118.11064 L 73.00391 119.11064 L 80.00391 120.11064 L 87.00391 120.11064 L 92.00391 120.11064 L 97.00391 120.11064 L 101.00391 120.11064" scribmaster:penstyle="draw" style="stroke:#000000;stroke-width:1.0;stroke-linejoin:round;stroke-linecap:round;stroke-opacity:1.0;fill:none"/>
        <path transform="matrix(1,0,0,1,0,0)" d="M 67.00391 76.11064 L 67.00391 77.11064 L 67.00391 79.11064 L 67.00391 81.11064 L 68.00391 83.11064 L 68.00391 86.11064 L 68.00391 90.11064 L 68.00391 94.11064 L 68.00391 99.11064 L 68.00391 105.11064 L 68.00391 112.11064 L 68.00391 120.11064 L 68.00391 127.11064 L 68.00391 134.11064 L 68.00391 143.11064 L 68.00391 151.11064 L 68.00391 161.11064 L 68.00391 171.11064 L 67.00391 179.11064 L 67.00391 187.11064 L 67.00391 195.11064 L 67.00391 201.11064 L 67.00391 207.11064 L 67.00391 213.11064 L 67.00391 218.11064 L 67.00391 222.11064 L 67.00391 226.11064 L 67.00391 229.11064 L 68.00391 232.11064" scribmaster:penstyle="draw" style="stroke:#000000;stroke-width:1.0;stroke-linejoin:round;stroke-linecap:round;stroke-opacity:1.0;fill:none"/>
      </g>
    </g>
    <defs/>
    <g xmlns:inkscape="http://www.inkscape.org/namespaces/inkscape" id="1620939809558" transform="matrix(1,0,0,1,0,0)" style="opacity:1.0">
      <g id="1620621491459" inkscape:groupmode="layer" transform="matrix(1,0,0,1,0,0)" style="opacity:1.0"/>
    </g>
  </g>
  <g transform="translate(119, 120) scale(.15 .15) ">
    <sodipodi:namedview xmlns:sodipodi="http://sodipodi.sourceforge.net/DTD/sodipodi-0.dtd" id="ScribMaster"/>
    <filter id="blur">
      <feGaussianBlur stdDeviation="5.0"/>
    </filter>
    <defs/>
    <g xmlns:inkscape="http://www.inkscape.org/namespaces/inkscape" xmlns:scribmaster="http://scribmaster.com/scribmaster" id="1620939396784" transform="matrix(1,0,0,1,124.996094,181.889359)" style="opacity:1.0">
      <g id="1620536817093" inkscape:groupmode="layer" transform="matrix(1,0,0,1,0,0)" style="opacity:1.0">
        <path transform="matrix(1,0,0,1,0,0)" d="M 78.00391 27.110641 L 77.00391 28.110641 L 76.00391 28.110641 L 75.00391 29.110641 L 75.00391 30.110641 L 74.00391 31.110641 L 73.00391 32.11064 L 72.00391 34.11064 L 70.00391 36.11064 L 69.00391 38.11064 L 67.00391 42.11064 L 65.00391 45.11064 L 63.003906 48.11064 L 61.003906 52.11064 L 59.003906 56.11064 L 58.003906 60.11064 L 55.003906 66.11064 L 54.003906 71.11064 L 52.003906 76.11064 L 50.003906 82.11064 L 49.003906 88.11064 L 48.003906 95.11064 L 47.003906 103.11064 L 47.003906 112.11064 L 46.003906 121.11064 L 46.003906 130.11064 L 46.003906 138.11064 L 46.003906 146.11064 L 46.003906 153.11064 L 46.003906 161.11064 L 47.003906 170.11064 L 47.003906 178.11064 L 46.003906 186.11064 L 46.003906 193.11064 L 45.003906 200.11064 L 45.003906 207.11064 L 45.003906 213.11064 L 44.003906 219.11064 L 43.003906 223.11064 L 42.003906 226.11064 L 42.003906 228.11064 L 41.003906 229.11064 L 41.003906 230.11064 L 40.003906 231.11064 L 40.003906 230.11064" scribmaster:penstyle="draw" style="stroke:#000000;stroke-width:1.0;stroke-linejoin:round;stroke-linecap:round;stroke-opacity:1.0;fill:none"/>
        <path transform="matrix(1,0,0,1,0,0)" d="M 32.003906 163.11064 L 33.003906 162.11064 L 36.003906 161.11064 L 43.003906 159.11064 L 53.003906 155.11064 L 69.00391 151.11064 L 90.00391 146.11064" scribmaster:penstyle="draw" style="stroke:#000000;stroke-width:1.0;stroke-linejoin:round;stroke-linecap:round;stroke-opacity:1.0;fill:none"/>
      </g>
    </g>
    <defs/>
    <g xmlns:inkscape="http://www.inkscape.org/namespaces/inkscape" id="1620939396786" transform="matrix(1,0,0,1,0,0)" style="opacity:1.0">
      <g id="1620621491459" inkscape:groupmode="layer" transform="matrix(1,0,0,1,0,0)" style="opacity:1.0"/>
    </g>
  </g>
  <g transform="translate(127, 120) scale(.15 .15) ">
    <sodipodi:namedview xmlns:sodipodi="http://sodipodi.sourceforge.net/DTD/sodipodi-0.dtd" id="ScribMaster"/>
    <filter id="blur">
      <feGaussianBlur stdDeviation="5.0"/>
    </filter>
    <defs/>
    <g xmlns:inkscape="http://www.inkscape.org/namespaces/inkscape" xmlns:scribmaster="http://scribmaster.com/scribmaster" id="1620939658581" transform="matrix(1,0,0,1,124.996094,181.889359)" style="opacity:1.0">
      <g id="1620536817093" inkscape:groupmode="layer" transform="matrix(1,0,0,1,0,0)" style="opacity:1.0">
        <path transform="matrix(1,0,0,1,0,0)" d="M 71.00391 147.11064 L 71.00391 146.11064 L 71.00391 145.11064 L 71.00391 144.11064 L 71.00391 143.11064 L 70.00391 143.11064 L 69.00391 145.11064 L 68.00391 146.11064 L 66.00391 149.11064 L 64.00391 151.11064 L 62.003906 153.11064 L 59.003906 156.11064 L 56.003906 159.11064 L 53.003906 163.11064 L 50.003906 168.11064 L 46.003906 174.11064 L 42.003906 179.11064 L 39.003906 184.11064 L 37.003906 190.11064 L 35.003906 195.11064 L 35.003906 200.11064 L 35.003906 206.11064 L 35.003906 211.11064 L 37.003906 216.11064 L 40.003906 220.11064 L 44.003906 224.11064 L 48.003906 227.11064 L 52.003906 229.11064 L 57.003906 231.11064 L 61.003906 233.11064 L 66.00391 234.11064 L 71.00391 235.11064 L 77.00391 234.11064 L 83.00391 232.11064 L 89.00391 228.11064 L 95.00391 222.11064 L 102.00391 216.11064 L 107.00391 206.11064 L 111.00391 196.11064 L 114.00391 186.11064 L 116.00391 177.11064 L 117.00391 168.11064 L 116.00391 160.11064 L 115.00391 152.11064 L 112.00391 146.11064 L 108.00391 141.11064 L 103.00391 137.11064 L 98.00391 136.11064 L 92.00391 136.11064 L 87.00391 136.11064" scribmaster:penstyle="draw" style="stroke:#000000;stroke-width:1.0;stroke-linejoin:round;stroke-linecap:round;stroke-opacity:1.0;fill:none"/>
      </g>
    </g>
    <defs/>
    <g xmlns:inkscape="http://www.inkscape.org/namespaces/inkscape" id="1620939658582" transform="matrix(1,0,0,1,0,0)" style="opacity:1.0">
      <g id="1620621491459" inkscape:groupmode="layer" transform="matrix(1,0,0,1,0,0)" style="opacity:1.0"/>
    </g>
  </g>
</svg>
