<?xml version='1.0' encoding='UTF-8' standalone='no' ?><svg xmlns="http://www.w3.org/2000/svg" xmlns:scribmaster="http://scribmaster.com/scribmaster" xmlns:sodipodi="http://sodipodi.sourceforge.net/DTD/sodipodi-0.dtd" xmlns:inkscape="http://www.inkscape.org/namespaces/inkscape" xmlns:xlink="http://www.w3.org/1999/xlink" version="1.2" width=600" height="800" x = "0" y = "0"  preserveAspectRatio="xMaxYMax meet"><sodipodi:namedview id="ScribMaster" /><filter id="blur"><feGaussianBlur stdDeviation="5.0" /></filter><defs /><g id="1620536824013" transform="matrix(1,0,0,1,0,0)" style="opacity:1.0"><g id="1620536817093" inkscape:groupmode="layer" transform="matrix(1,0,0,1,0,0)" style="opacity:1.0"><path transform="matrix(1,0,0,1,0,0)" d="M 210.0 340.0 L 210.0 338.0 L 209.0 337.0 L 209.0 336.0 L 209.0 335.0 L 208.0 334.0 L 207.0 333.0 L 206.0 334.0 L 203.0 335.0 L 197.0 338.0 L 186.0 345.0 L 169.0 358.0 L 150.0 373.0 L 135.0 388.0 L 122.0 404.0 L 107.0 420.0 L 97.0 435.0 L 88.0 448.0 L 82.0 460.0 L 78.0 472.0 L 76.0 483.0 L 75.0 496.0 L 75.0 506.0 L 76.0 513.0 L 80.0 519.0 L 85.0 523.0 L 90.0 526.0 L 95.0 526.0 L 99.0 525.0 L 104.0 524.0 L 108.0 522.0 L 113.0 519.0 L 122.0 513.0 L 133.0 503.0 L 148.0 489.0 L 166.0 471.0 L 182.0 452.0 L 195.0 435.0 L 206.0 418.0 L 218.0 402.0 L 225.0 388.0 L 231.0 372.0 L 236.0 359.0 L 239.0 348.0 L 241.0 338.0 L 242.0 330.0 L 242.0 323.0 L 241.0 320.0 L 240.0 318.0 L 239.0 318.0 L 237.0 318.0 L 236.0 319.0 L 235.0 320.0 L 234.0 322.0 L 233.0 324.0 L 232.0 327.0 L 231.0 331.0 L 230.0 337.0 L 230.0 349.0 L 230.0 363.0 L 231.0 381.0 L 233.0 400.0 L 237.0 414.0 L 241.0 427.0 L 247.0 438.0 L 256.0 447.0 L 268.0 457.0 L 278.0 464.0 L 294.0 471.0 L 314.0 478.0" scribmaster:penstyle="draw" style="stroke:#000000;stroke-width:5.0;stroke-linejoin:round;stroke-linecap:round;stroke-opacity:1.0;fill:none" /></g></g></svg>