<svg 
   height="1000"
   width="1000"
viewBox="0 0 1000 1000"
 version="1.1" xmlns="http://www.w3.org/2000/svg">
<path transform="scale(1, -1) translate(0, -1000)" d="m 334,992 1,-1 1,-2 1,-3 1,-5 v -7 -7 -10 -15 l -1,-13 -1,-13 -1,-13 v -16 l -1,-16 v -15 -18 l -1,-14 v -13 l -1,-13 v -12 l -1,-10 -1,-10 -1,-7 -1,-7 -1,-6 -1,-6 -1,-3 v -1 -1 1 1 2 3 4 3 l 1,6 1,6 1,8 1,7 1,7 1,7 2,6 2,7 2,6 2,6 2,6 3,6 3,4 4,5 4,3 4,3 5,1 5,1 6,-2 7,-3 7,-5 7,-6 7,-7 6,-9 4,-9 3,-8 1,-9 -1,-8 -2,-9 -4,-8 -6,-8 -7,-7 -8,-5 -9,-3 h -10 l -11,3 -11,5 -10,10" />
</svg>