<?xml version='1.0' encoding='ASCII' standalone='yes'?>
<svg width = "6in" height = "4in" xmlns="http://www.w3.org/2000/svg" xmlns:xlink="http://www.w3.org/1999/xlink" version="1.1">
  <g transform="translate(-0.581794650448325, 0) scale(1 1) translate(-0.34906978865732063, 0) scale(1 1) translate(-0.1163554293259576, 0) scale(1 1) translate(0.1163554293259576, 0) scale(1 1) translate(0.34906978865732075, 0) scale(1 1) translate(0.5817946504483253, 0) scale(1 1) translate(0.814537017743164, 0) scale(1 1) translate(1.0473038956930552, 0) scale(1 1) translate(0, 0) scale(0.1 0.1)  skewX(-1.000000) skewX(-0.777778) skewX(-0.555556) skewX(-0.333333) skewX(-0.111111) skewX(0.111111) skewX(0.333333) skewX(0.555556)">
    <sodipodi:namedview xmlns:sodipodi="http://sodipodi.sourceforge.net/DTD/sodipodi-0.dtd" id="ScribMaster"/>
    <filter id="blur">
      <feGaussianBlur stdDeviation="5.0"/>
    </filter>
    <defs/>
    <g xmlns:inkscape="http://www.inkscape.org/namespaces/inkscape" xmlns:scribmaster="http://scribmaster.com/scribmaster" id="1627851889613" transform="matrix(1.032782,0,0,1.032782,-14.899414,-13.325867)" style="opacity:1.0">
      <g id="1627851273342" inkscape:groupmode="layer" transform="matrix(1,0,0,1,0,0)" style="opacity:1.0">
        <path transform="matrix(1,0,0,1,0,0)" d="M 781.2873 540.6038 L 781.2873 540.6135" scribmaster:penstyle="draw" style="stroke:#000000;stroke-width:5.0;stroke-linejoin:round;stroke-linecap:round;stroke-opacity:1.0;fill:none"/>
        <path transform="matrix(1,0,0,1,0,0)" d="M 98.66498 234.6341 L 96.72846 233.66583 L 96.72846 231.72931 L 95.7602 229.7928 L 95.7602 226.88802 L 95.7602 220.11021 L 94.79195 212.36414 L 94.79195 201.7133 L 94.79195 190.0942 L 93.823685 179.44334 L 93.823685 167.82425 L 94.79195 157.1734 L 95.7602 148.45908 L 96.72846 140.71301 L 97.69672 132.96695 L 99.63324 127.157394 L 102.53801 121.34785 L 106.41105 116.50655 L 111.25234 112.633514 L 115.125374 108.76048 L 118.998405 106.82397 L 123.8397 106.82397 L 128.681 107.79222 L 133.5223 109.728745 L 136.42706 113.601776 L 140.3001 117.47481 L 144.17313 122.3161 L 147.07791 127.157394 L 149.01442 131.03043 L 150.95094 134.90346" scribmaster:penstyle="draw" style="stroke:#000000;stroke-width:5.0;stroke-linejoin:round;stroke-linecap:round;stroke-opacity:1.0;fill:none"/>
        <path transform="matrix(1,0,0,1,0,0)" d="M 64.77593 177.50684 L 65.74419 177.50684 L 67.6807 177.50684 L 70.58548 177.50684 L 75.42677 177.50684 L 82.20458 177.50684 L 89.95065 178.4751 L 97.69672 179.44334 L 105.44279 180.4116 L 113.18886 181.37987 L 120.93492 182.34813 L 126.74448 183.31639 L 133.5223 184.28464 L 139.33185 183.31639 L 145.14139 182.34813" scribmaster:penstyle="draw" style="stroke:#000000;stroke-width:5.0;stroke-linejoin:round;stroke-linecap:round;stroke-opacity:1.0;fill:none"/>
      </g>
    </g>
  </g>
</svg>
