<?xml version='1.0' encoding='ASCII' standalone='yes'?>
<svg width = "6in" height = "4in" xmlns="http://www.w3.org/2000/svg" xmlns:xlink="http://www.w3.org/1999/xlink" version="1.1">
  <g transform="translate(1.0473038956930552, 0) scale(1 1) translate(0, 0) scale(0.1 0.1)  skewX(-1.000000)">
    <sodipodi:namedview xmlns:sodipodi="http://sodipodi.sourceforge.net/DTD/sodipodi-0.dtd" id="ScribMaster"/>
    <filter id="blur">
      <feGaussianBlur stdDeviation="5.0"/>
    </filter>
    <defs/>
    <g xmlns:inkscape="http://www.inkscape.org/namespaces/inkscape" xmlns:scribmaster="http://scribmaster.com/scribmaster" id="1627851825568" transform="matrix(1.032782,0,0,1.032782,-14.899414,-13.325867)" style="opacity:1.0">
      <g id="1627851273342" inkscape:groupmode="layer" transform="matrix(1,0,0,1,0,0)" style="opacity:1.0">
        <path transform="matrix(1,0,0,1,0,0)" d="M 781.2873 540.6038 L 781.2873 540.6135" scribmaster:penstyle="draw" style="stroke:#000000;stroke-width:5.0;stroke-linejoin:round;stroke-linecap:round;stroke-opacity:1.0;fill:none"/>
        <path transform="matrix(1,0,0,1,0,0)" d="M 88.01414 234.6341 L 87.045876 234.6341 L 86.077614 234.6341 L 85.10936 232.69757 L 85.10936 231.72931 L 85.10936 229.7928 L 85.10936 228.82454 L 85.10936 225.91975 L 84.1411 223.01498 L 84.1411 219.14195 L 84.1411 215.26892 L 84.1411 209.45937 L 83.172844 202.68155 L 83.172844 194.93549 L 83.172844 187.18942 L 83.172844 178.4751 L 84.1411 168.79251 L 84.1411 159.10992 L 85.10936 149.42734 L 86.077614 139.74475 L 88.01414 131.03043 L 90.91891 123.28436 L 92.85542 117.47481 L 96.72846 113.601776 L 101.569756 111.66526 L 105.44279 110.697 L 109.31582 110.697 L 112.2206 110.697 L 116.093636 111.66526 L 118.998405 113.601776 L 122.871445 115.53829 L 125.776215 116.50655 L 128.681 117.47481 L 130.61751 117.47481 L 131.58577 118.44307" scribmaster:penstyle="draw" style="stroke:#000000;stroke-width:5.0;stroke-linejoin:round;stroke-linecap:round;stroke-opacity:1.0;fill:none"/>
        <path transform="matrix(1,0,0,1,0,0)" d="M 63.80767 174.60205 L 66.71245 174.60205 L 72.521996 173.6338 L 80.26807 173.6338 L 89.95065 173.6338 L 99.63324 173.6338 L 110.28408 173.6338 L 119.96667 172.66554" scribmaster:penstyle="draw" style="stroke:#000000;stroke-width:5.0;stroke-linejoin:round;stroke-linecap:round;stroke-opacity:1.0;fill:none"/>
      </g>
    </g>
  </g>
</svg>
