<?xml version='1.0' encoding='ASCII' standalone='yes'?>
<svg width = "6in" height = "4in" xmlns="http://www.w3.org/2000/svg" xmlns:xlink="http://www.w3.org/1999/xlink" version="1.1">
  <g transform="translate(-0.8145370177431639, 0) scale(1 1) translate(-0.581794650448325, 0) scale(1 1) translate(-0.34906978865732063, 0) scale(1 1) translate(-0.1163554293259576, 0) scale(1 1) translate(0.1163554293259576, 0) scale(1 1) translate(0.34906978865732075, 0) scale(1 1) translate(0.5817946504483253, 0) scale(1 1) translate(0.814537017743164, 0) scale(1 1) translate(1.0473038956930552, 0) scale(1 1) translate(0, 0) scale(0.1 0.1)  skewX(-1.000000) skewX(-0.777778) skewX(-0.555556) skewX(-0.333333) skewX(-0.111111) skewX(0.111111) skewX(0.333333) skewX(0.555556) skewX(0.777778)">
    <sodipodi:namedview xmlns:sodipodi="http://sodipodi.sourceforge.net/DTD/sodipodi-0.dtd" id="ScribMaster"/>
    <filter id="blur">
      <feGaussianBlur stdDeviation="5.0"/>
    </filter>
    <defs/>
    <g xmlns:inkscape="http://www.inkscape.org/namespaces/inkscape" xmlns:scribmaster="http://scribmaster.com/scribmaster" id="1627851838773" transform="matrix(1.032782,0,0,1.032782,-14.899414,-13.325867)" style="opacity:1.0">
      <g id="1627851273342" inkscape:groupmode="layer" transform="matrix(1,0,0,1,0,0)" style="opacity:1.0">
        <path transform="matrix(1,0,0,1,0,0)" d="M 781.2873 540.6038 L 781.2873 540.6135" scribmaster:penstyle="draw" style="stroke:#000000;stroke-width:5.0;stroke-linejoin:round;stroke-linecap:round;stroke-opacity:1.0;fill:none"/>
        <path transform="matrix(1,0,0,1,0,0)" d="M 98.66498 238.50713 L 96.72846 236.5706 L 96.72846 235.60234 L 96.72846 234.6341 L 96.72846 233.66583 L 96.72846 230.76105 L 96.72846 228.82454 L 95.7602 224.9515 L 95.7602 219.14195 L 94.79195 214.30066 L 94.79195 207.52284 L 93.823685 200.74504 L 92.85542 192.03072 L 91.88717 183.31639 L 91.88717 175.57031 L 91.88717 168.79251 L 91.88717 162.0147 L 92.85542 156.20514 L 94.79195 151.36385 L 96.72846 146.52255 L 99.63324 143.61778 L 102.53801 141.68126 L 105.44279 139.74475 L 109.31582 138.77649 L 114.15711 137.80824 L 118.03015 137.80824 L 121.90318 136.83998 L 125.776215 136.83998 L 129.64926 137.80824 L 133.5223 137.80824 L 136.42706 138.77649" scribmaster:penstyle="draw" style="stroke:#000000;stroke-width:5.0;stroke-linejoin:round;stroke-linecap:round;stroke-opacity:1.0;fill:none"/>
        <path transform="matrix(1,0,0,1,0,0)" d="M 68.648964 188.15768 L 69.617226 188.15768 L 72.521996 188.15768 L 75.42677 188.15768 L 80.26807 189.12593 L 87.045876 189.12593 L 93.823685 189.12593 L 100.601494 188.15768 L 107.3793 188.15768 L 115.125374 187.18942 L 121.90318 186.22116 L 128.681 184.28464" scribmaster:penstyle="draw" style="stroke:#000000;stroke-width:5.0;stroke-linejoin:round;stroke-linecap:round;stroke-opacity:1.0;fill:none"/>
      </g>
    </g>
  </g>
</svg>
