<?xml version='1.0' encoding='ASCII' standalone='yes'?>
<svg width = "6in" height = "4in" xmlns="http://www.w3.org/2000/svg" xmlns:xlink="http://www.w3.org/1999/xlink" version="1.1">
  <g transform="translate(-0.8145370177431639, 0) scale(1 1) translate(-0.581794650448325, 0) scale(1 1) translate(-0.34906978865732063, 0) scale(1 1) translate(-0.1163554293259576, 0) scale(1 1) translate(0.1163554293259576, 0) scale(1 1) translate(0.34906978865732075, 0) scale(1 1) translate(0.5817946504483253, 0) scale(1 1) translate(0.814537017743164, 0) scale(1 1) translate(1.0473038956930552, 0) scale(1 1) translate(0, 0) scale(0.1 0.1)  skewX(-1.000000) skewX(-0.777778) skewX(-0.555556) skewX(-0.333333) skewX(-0.111111) skewX(0.111111) skewX(0.333333) skewX(0.555556) skewX(0.777778)">
    <sodipodi:namedview xmlns:sodipodi="http://sodipodi.sourceforge.net/DTD/sodipodi-0.dtd" id="ScribMaster"/>
    <filter id="blur">
      <feGaussianBlur stdDeviation="5.0"/>
    </filter>
    <defs/>
    <g xmlns:inkscape="http://www.inkscape.org/namespaces/inkscape" xmlns:scribmaster="http://scribmaster.com/scribmaster" id="1627853074794" transform="matrix(1.032782,0,0,1.032782,-14.899414,-13.325867)" style="opacity:1.0">
      <g id="1627851273342" inkscape:groupmode="layer" transform="matrix(1,0,0,1,0,0)" style="opacity:1.0">
        <path transform="matrix(1,0,0,1,0,0)" d="M 136.42706 131.99869 L 135.4588 131.99869 L 134.49055 132.96695 L 133.5223 132.96695 L 133.5223 133.9352 L 132.55403 134.90346 L 132.55403 136.83998 L 130.61751 139.74475 L 129.64926 141.68126 L 127.71274 146.52255 L 123.8397 152.3321 L 118.998405 160.07819 L 113.18886 168.79251 L 106.41105 178.4751 L 98.66498 190.0942 L 91.88717 201.7133 L 83.172844 212.36414 L 76.395035 222.04672 L 70.58548 229.7928 L 65.74419 236.5706 L 61.871155 242.38016 L 58.966377 247.22145 L 57.02986 250.12622 L 57.02986 252.06274 L 56.0616 253.031 L 56.0616 253.99925 L 56.0616 253.031" scribmaster:penstyle="draw" style="stroke:#000000;stroke-width:5.0;stroke-linejoin:round;stroke-linecap:round;stroke-opacity:1.0;fill:none"/>
        <path transform="matrix(1,0,0,1,0,0)" d="M 58.966377 149.42734 L 59.93464 147.49081 L 60.902893 148.45908 L 62.839417 149.42734 L 64.77593 152.3321 L 67.6807 154.26863 L 72.521996 158.14166 L 77.36329 163.95122 L 85.10936 171.69728 L 91.88717 179.44334 L 101.569756 188.15768 L 108.347565 195.90375 L 116.093636 203.64981 L 122.871445 210.42763 L 128.681 217.20543 L 135.4588 223.01498 L 140.3001 227.85628 L 145.14139 233.66583 L 149.98268 238.50713 L 152.88745 243.34842 L 156.7605 247.22145 L 158.697 250.12622 L 160.63353 253.031 L 162.57004 254.96751 L 164.50656 255.93578" scribmaster:penstyle="draw" style="stroke:#000000;stroke-width:5.0;stroke-linejoin:round;stroke-linecap:round;stroke-opacity:1.0;fill:none"/>
      </g>
    </g>
  </g>
</svg>
