<?xml version='1.0' encoding='ASCII' standalone='yes'?>
<svg width = "6in" height = "4in" xmlns="http://www.w3.org/2000/svg" xmlns:xlink="http://www.w3.org/1999/xlink" version="1.1">
  <g transform="translate(0.1163554293259576, 0) scale(1 1) translate(0.34906978865732075, 0) scale(1 1) translate(0.5817946504483253, 0) scale(1 1) translate(0.814537017743164, 0) scale(1 1) translate(1.0473038956930552, 0) scale(1 1) translate(0, 0) scale(0.1 0.1)  skewX(-1.000000) skewX(-0.777778) skewX(-0.555556) skewX(-0.333333) skewX(-0.111111)">
    <sodipodi:namedview xmlns:sodipodi="http://sodipodi.sourceforge.net/DTD/sodipodi-0.dtd" id="ScribMaster"/>
    <filter id="blur">
      <feGaussianBlur stdDeviation="5.0"/>
    </filter>
    <defs/>
    <g xmlns:inkscape="http://www.inkscape.org/namespaces/inkscape" xmlns:scribmaster="http://scribmaster.com/scribmaster" id="1627853064079" transform="matrix(1.032782,0,0,1.032782,-14.899414,-13.325867)" style="opacity:1.0">
      <g id="1627851273342" inkscape:groupmode="layer" transform="matrix(1,0,0,1,0,0)" style="opacity:1.0">
        <path transform="matrix(1,0,0,1,0,0)" d="M 149.98268 125.22088 L 148.04616 125.22088 L 147.07791 127.157394 L 145.14139 129.0939 L 142.23662 132.96695 L 138.36359 138.77649 L 130.61751 149.42734 L 118.998405 163.95122 L 105.44279 181.37987 L 91.88717 198.80852 L 82.20458 210.42763 L 74.45852 220.11021 L 67.6807 227.85628 L 63.80767 234.6341 L 60.902893 238.50713 L 58.966377 243.34842 L 58.966377 245.28493 L 58.966377 247.22145 L 59.93464 248.18971 L 59.93464 247.22145" scribmaster:penstyle="draw" style="stroke:#000000;stroke-width:5.0;stroke-linejoin:round;stroke-linecap:round;stroke-opacity:1.0;fill:none"/>
        <path transform="matrix(1,0,0,1,0,0)" d="M 66.71245 139.74475 L 67.6807 139.74475 L 69.617226 140.71301 L 70.58548 141.68126 L 74.45852 143.61778 L 78.33155 147.49081 L 83.172844 152.3321 L 91.88717 161.04643 L 99.63324 170.72902 L 109.31582 183.31639 L 118.998405 195.90375 L 128.681 207.52284 L 137.39532 216.23718 L 145.14139 223.98325 L 150.95094 229.7928 L 156.7605 234.6341 L 161.60179 238.50713 L 165.47482 240.44363 L 168.3796 242.38016 L 169.34785 243.34842 L 171.28436 242.38016 L 172.25262 243.34842" scribmaster:penstyle="draw" style="stroke:#000000;stroke-width:5.0;stroke-linejoin:round;stroke-linecap:round;stroke-opacity:1.0;fill:none"/>
      </g>
    </g>
  </g>
</svg>
