<?xml version='1.0' encoding='ASCII' standalone='yes'?>
<svg width = "6in" height = "4in" xmlns="http://www.w3.org/2000/svg" xmlns:xlink="http://www.w3.org/1999/xlink" version="1.1">
  <g transform="translate(-0.34906978865732063, 0) scale(1 1) translate(-0.1163554293259576, 0) scale(1 1) translate(0.1163554293259576, 0) scale(1 1) translate(0.34906978865732075, 0) scale(1 1) translate(0.5817946504483253, 0) scale(1 1) translate(0.814537017743164, 0) scale(1 1) translate(1.0473038956930552, 0) scale(1 1) translate(0, 0) scale(0.1 0.1)  skewX(-1.000000) skewX(-0.777778) skewX(-0.555556) skewX(-0.333333) skewX(-0.111111) skewX(0.111111) skewX(0.333333)">
    <sodipodi:namedview xmlns:sodipodi="http://sodipodi.sourceforge.net/DTD/sodipodi-0.dtd" id="ScribMaster"/>
    <filter id="blur">
      <feGaussianBlur stdDeviation="5.0"/>
    </filter>
    <defs/>
    <g xmlns:inkscape="http://www.inkscape.org/namespaces/inkscape" xmlns:scribmaster="http://scribmaster.com/scribmaster" id="1625352065271" transform="matrix(1,0,0,1,-1.316833,-1.489594)" style="opacity:1.0">
      <g id="1625348338071" inkscape:groupmode="layer" transform="matrix(1,0,0,1,0,0)" style="opacity:1.0">
        <path transform="matrix(1,0,0,1,0,0)" d="M 111.31683 138.4896 L 109.31683 138.4896 L 107.31683 139.4896 L 106.31683 139.4896 L 102.31683 141.4896 L 98.31683 144.4896 L 91.31683 149.4896 L 83.31683 157.4896 L 74.31683 166.4896 L 66.31683 178.4896 L 60.316833 189.4896 L 56.316833 199.4896 L 53.316833 208.4896 L 51.316833 215.4896 L 52.316833 221.4896 L 54.316833 226.4896 L 57.316833 227.4896 L 61.316833 227.4896 L 65.31683 226.4896 L 71.31683 223.4896 L 81.31683 218.4896 L 91.31683 209.4896 L 101.31683 199.4896 L 111.31683 189.4896 L 120.31683 179.4896 L 127.31683 169.4896 L 133.31683 161.4896 L 138.31683 153.4896 L 141.31683 146.4896 L 144.31683 139.4896 L 145.31683 133.4896 L 145.31683 127.48959 L 143.31683 121.48959 L 141.31683 116.48959 L 138.31683 112.48959 L 133.31683 109.48959 L 127.31683 106.48959 L 120.31683 105.48959 L 112.31683 104.48959 L 101.31683 105.48959 L 86.31683 108.48959 L 69.31683 115.48959 L 41.316833 126.48959 L 21.316833 141.4896 L 12.3168335 157.4896 L 10.3168335 174.4896 L 9.3168335 190.4896 L 9.3168335 207.4896 L 9.3168335 220.4896 L 12.3168335 230.4896 L 24.316833 240.4896 L 41.316833 249.4896 L 61.316833 252.4896 L 84.31683 252.4896 L 105.31683 249.4896 L 127.31683 241.4896 L 147.31683 233.4896 L 170.31683 225.4896" scribmaster:penstyle="draw" style="stroke:#000000;stroke-width:5.0;stroke-linejoin:round;stroke-linecap:round;stroke-opacity:1.0;fill:none"/>
      </g>
    </g>
  </g>
</svg>
