<?xml version='1.0' encoding='ASCII' standalone='yes'?>
<svg width = "6in" height = "4in" xmlns="http://www.w3.org/2000/svg" xmlns:xlink="http://www.w3.org/1999/xlink" version="1.1">
  <g transform="translate(0.5817946504483253, 0) scale(1 1) translate(0.814537017743164, 0) scale(1 1) translate(1.0473038956930552, 0) scale(1 1) translate(0, 0) scale(0.1 0.1)  skewX(-1.000000) skewX(-0.777778) skewX(-0.555556)">
    <sodipodi:namedview xmlns:sodipodi="http://sodipodi.sourceforge.net/DTD/sodipodi-0.dtd" id="ScribMaster"/>
    <filter id="blur">
      <feGaussianBlur stdDeviation="5.0"/>
    </filter>
    <defs/>
    <g xmlns:inkscape="http://www.inkscape.org/namespaces/inkscape" xmlns:scribmaster="http://scribmaster.com/scribmaster" id="1625352091107" transform="matrix(1,0,0,1,-1.316833,-1.489594)" style="opacity:1.0">
      <g id="1625348338071" inkscape:groupmode="layer" transform="matrix(1,0,0,1,0,0)" style="opacity:1.0">
        <path transform="matrix(1,0,0,1,0,0)" d="M 95.31683 152.4896 L 93.31683 152.4896 L 92.31683 153.4896 L 91.31683 154.4896 L 88.31683 155.4896 L 85.31683 157.4896 L 81.31683 161.4896 L 76.31683 165.4896 L 70.31683 171.4896 L 64.31683 179.4896 L 59.316833 187.4896 L 55.316833 195.4896 L 52.316833 203.4896 L 50.316833 209.4896 L 50.316833 215.4896 L 51.316833 218.4896 L 53.316833 220.4896 L 56.316833 220.4896 L 60.316833 220.4896 L 64.31683 219.4896 L 70.31683 216.4896 L 78.31683 212.4896 L 86.31683 205.4896 L 94.31683 197.4896 L 101.31683 190.4896 L 106.31683 183.4896 L 109.31683 177.4896 L 112.31683 172.4896 L 113.31683 169.4896 L 113.31683 168.4896 L 113.31683 166.4896 L 112.31683 166.4896 L 111.31683 166.4896 L 110.31683 166.4896 L 109.31683 167.4896 L 109.31683 168.4896 L 108.31683 170.4896 L 108.31683 172.4896 L 109.31683 175.4896 L 109.31683 178.4896 L 111.31683 181.4896 L 112.31683 184.4896 L 115.31683 187.4896 L 117.31683 189.4896 L 120.31683 190.4896 L 123.31683 191.4896 L 127.31683 190.4896 L 131.31683 189.4896 L 136.31683 186.4896 L 140.31683 181.4896 L 145.31683 174.4896 L 148.31683 167.4896 L 149.31683 158.4896 L 149.31683 150.4896 L 146.31683 142.4896 L 141.31683 136.4896 L 135.31683 132.4896 L 126.31683 129.4896 L 116.31683 128.4896 L 101.31683 128.4896 L 88.31683 130.4896 L 72.31683 134.4896 L 59.316833 139.4896 L 44.316833 146.4896 L 31.316833 158.4896 L 23.316833 169.4896 L 19.316833 179.4896 L 17.316833 191.4896 L 19.316833 204.4896 L 24.316833 215.4896 L 33.316833 224.4896 L 40.316833 229.4896 L 46.316833 235.4896 L 56.316833 239.4896 L 66.31683 243.4896 L 80.31683 246.4896 L 95.31683 247.4896 L 111.31683 245.4896 L 130.31683 240.4896 L 149.31683 233.4896 L 169.31683 225.4896 L 186.31683 217.4896" scribmaster:penstyle="draw" style="stroke:#000000;stroke-width:5.0;stroke-linejoin:round;stroke-linecap:round;stroke-opacity:1.0;fill:none"/>
      </g>
    </g>
  </g>
</svg>
