<?xml version='1.0' encoding='ASCII' standalone='yes'?>
<svg width = "6in" height = "4in" xmlns="http://www.w3.org/2000/svg" xmlns:xlink="http://www.w3.org/1999/xlink" version="1.1">
  <g transform="translate(0.34906978865732075, 0) scale(1 1) translate(0.5817946504483253, 0) scale(1 1) translate(0.814537017743164, 0) scale(1 1) translate(1.0473038956930552, 0) scale(1 1) translate(0, 0) scale(0.1 0.1)  skewX(-1.000000) skewX(-0.777778) skewX(-0.555556) skewX(-0.333333)">
    <sodipodi:namedview xmlns:sodipodi="http://sodipodi.sourceforge.net/DTD/sodipodi-0.dtd" id="ScribMaster"/>
    <filter id="blur">
      <feGaussianBlur stdDeviation="5.0"/>
    </filter>
    <defs/>
    <g xmlns:inkscape="http://www.inkscape.org/namespaces/inkscape" xmlns:scribmaster="http://scribmaster.com/scribmaster" id="1627854113141" transform="matrix(1.041329,0,0,1.041329,-16.413086,-15.68722)" style="opacity:1.0">
      <g id="1627851273342" inkscape:groupmode="layer" transform="matrix(1,0,0,1,0,0)" style="opacity:1.0">
        <path transform="matrix(1,0,0,1,0,0)" d="M 78.181885 74.6039 L 75.30095 74.6039 L 74.340645 75.56421 L 74.340645 79.40546 L 73.38033 85.16732 L 71.45971 97.65137 L 70.4994 112.05603 L 68.57877 128.38132 L 68.57877 149.50815 L 66.65815 164.87312 L 66.65815 176.39687 L 66.65815 185.99997 L 66.65815 194.64278 L 65.697845 201.36494 L 65.697845 207.12682 L 65.697845 210.96806 L 65.697845 212.88869 L 64.73753 214.80931 L 64.73753 216.72993 L 64.73753 217.69023 L 64.73753 218.65054 L 64.73753 219.61086 L 63.77722 219.61086 L 63.77722 218.65054 L 63.77722 217.69023 L 63.77722 215.76962 L 63.77722 214.80931 L 63.77722 212.88869 L 64.73753 210.96806" scribmaster:penstyle="draw" style="stroke:#000000;stroke-width:5.0;stroke-linejoin:round;stroke-linecap:round;stroke-opacity:1.0;fill:none"/>
        <path transform="matrix(1,0,0,1,0,0)" d="M 86.824684 77.48483 L 84.90406 77.48483 L 83.94375 77.48483 L 82.98344 77.48483 L 82.023125 77.48483 L 81.06282 77.48483 L 82.98344 77.48483 L 85.86437 77.48483 L 88.74531 77.48483 L 93.54686 77.48483 L 98.34842 78.445145 L 103.14997 78.445145 L 107.95153 79.40546 L 114.673706 79.40546 L 121.39588 78.445145 L 126.19743 78.445145 L 131.9593 77.48483 L 136.76086 77.48483 L 140.60211 78.445145 L 142.52274 79.40546" scribmaster:penstyle="draw" style="stroke:#000000;stroke-width:5.0;stroke-linejoin:round;stroke-linecap:round;stroke-opacity:1.0;fill:none"/>
        <path transform="matrix(1,0,0,1,0,0)" d="M 76.26126 160.07158 L 75.30095 160.07158 L 74.340645 160.07158 L 73.38033 160.07158 L 72.42002 160.07158 L 71.45971 160.07158 L 70.4994 160.07158 L 69.539085 160.07158 L 68.57877 160.07158 L 70.4994 160.07158 L 71.45971 160.07158 L 73.38033 160.07158 L 74.340645 160.07158 L 76.26126 160.07158 L 79.1422 160.07158 L 82.98344 160.07158 L 85.86437 160.07158 L 88.74531 160.07158 L 92.58655 160.07158 L 95.46748 160.07158 L 98.34842 160.07158 L 101.22935 161.03189" scribmaster:penstyle="draw" style="stroke:#000000;stroke-width:5.0;stroke-linejoin:round;stroke-linecap:round;stroke-opacity:1.0;fill:none"/>
        <path transform="matrix(1,0,0,1,0,0)" d="M 64.73753 224.41241 L 61.8566 222.49179 L 62.81691 220.57117 L 64.73753 220.57117 L 66.65815 220.57117 L 69.539085 219.61086 L 74.340645 219.61086 L 79.1422 219.61086 L 85.86437 219.61086 L 92.58655 219.61086 L 97.38811 220.57117 L 102.18966 220.57117 L 106.99122 220.57117 L 111.79277 220.57117 L 116.59433 220.57117 L 120.43557 220.57117 L 124.27682 220.57117 L 127.157745 220.57117 L 129.07837 220.57117 L 130.999 220.57117" scribmaster:penstyle="draw" style="stroke:#000000;stroke-width:5.0;stroke-linejoin:round;stroke-linecap:round;stroke-opacity:1.0;fill:none"/>
      </g>
    </g>
  </g>
</svg>
