<?xml version='1.0' encoding='ASCII' standalone='yes'?>
<svg width = "6in" height = "4in" xmlns="http://www.w3.org/2000/svg" xmlns:xlink="http://www.w3.org/1999/xlink" version="1.1">
  <g transform="translate(-0.34906978865732063, 0) scale(1 1) translate(-0.1163554293259576, 0) scale(1 1) translate(0.1163554293259576, 0) scale(1 1) translate(0.34906978865732075, 0) scale(1 1) translate(0.5817946504483253, 0) scale(1 1) translate(0.814537017743164, 0) scale(1 1) translate(1.0473038956930552, 0) scale(1 1) translate(0, 0) scale(0.1 0.1)  skewX(-1.000000) skewX(-0.777778) skewX(-0.555556) skewX(-0.333333) skewX(-0.111111) skewX(0.111111) skewX(0.333333)">
    <sodipodi:namedview xmlns:sodipodi="http://sodipodi.sourceforge.net/DTD/sodipodi-0.dtd" id="ScribMaster"/>
    <filter id="blur">
      <feGaussianBlur stdDeviation="5.0"/>
    </filter>
    <defs/>
    <g xmlns:inkscape="http://www.inkscape.org/namespaces/inkscape" xmlns:scribmaster="http://scribmaster.com/scribmaster" id="1627854135008" transform="matrix(1.041329,0,0,1.041329,-16.413086,-15.68722)" style="opacity:1.0">
      <g id="1627851273342" inkscape:groupmode="layer" transform="matrix(1,0,0,1,0,0)" style="opacity:1.0">
        <path transform="matrix(1,0,0,1,0,0)" d="M 70.4994 80.36577 L 69.539085 79.40546 L 68.57877 79.40546 L 68.57877 80.36577 L 68.57877 83.2467 L 68.57877 88.048256 L 68.57877 96.691055 L 68.57877 108.21478 L 68.57877 121.65914 L 69.539085 136.0638 L 71.45971 150.46846 L 72.42002 161.9922 L 74.340645 172.55562 L 75.30095 181.19843 L 76.26126 188.8809 L 77.22157 196.5634 L 78.181885 203.28557 L 78.181885 210.00775 L 78.181885 214.80931 L 78.181885 218.65054 L 78.181885 220.57117 L 78.181885 222.49179 L 78.181885 223.4521 L 78.181885 222.49179 L 78.181885 221.53148 L 78.181885 220.57117 L 78.181885 219.61086 L 78.181885 218.65054 L 79.1422 216.72993" scribmaster:penstyle="draw" style="stroke:#000000;stroke-width:5.0;stroke-linejoin:round;stroke-linecap:round;stroke-opacity:1.0;fill:none"/>
        <path transform="matrix(1,0,0,1,0,0)" d="M 65.697845 87.087944 L 66.65815 87.087944 L 68.57877 87.087944 L 71.45971 87.087944 L 75.30095 87.087944 L 80.10251 87.087944 L 85.86437 87.087944 L 92.58655 87.087944 L 99.30872 87.087944 L 106.03091 87.087944 L 111.79277 87.087944 L 117.554634 87.087944 L 123.316505 87.087944 L 129.07837 87.087944 L 132.91962 87.087944 L 136.76086 87.087944 L 139.6418 87.087944" scribmaster:penstyle="draw" style="stroke:#000000;stroke-width:5.0;stroke-linejoin:round;stroke-linecap:round;stroke-opacity:1.0;fill:none"/>
        <path transform="matrix(1,0,0,1,0,0)" d="M 85.86437 171.5953 L 86.824684 171.5953 L 88.74531 171.5953 L 89.70562 171.5953 L 92.58655 171.5953 L 95.46748 170.635 L 98.34842 170.635 L 102.18966 170.635 L 106.03091 169.67468 L 109.87215 169.67468 L 114.673706 169.67468 L 119.47526 169.67468 L 124.27682 168.71437 L 129.07837 168.71437" scribmaster:penstyle="draw" style="stroke:#000000;stroke-width:5.0;stroke-linejoin:round;stroke-linecap:round;stroke-opacity:1.0;fill:none"/>
        <path transform="matrix(1,0,0,1,0,0)" d="M 80.10251 225.37273 L 81.06282 224.41241 L 82.98344 224.41241 L 85.86437 223.4521 L 88.74531 223.4521 L 94.50717 223.4521 L 99.30872 222.49179 L 104.11028 222.49179 L 110.83246 222.49179 L 116.59433 221.53148 L 123.316505 221.53148 L 130.03868 220.57117 L 136.76086 220.57117 L 143.48303 219.61086 L 148.28459 218.65054 L 154.04646 217.69023 L 157.88771 216.72993" scribmaster:penstyle="draw" style="stroke:#000000;stroke-width:5.0;stroke-linejoin:round;stroke-linecap:round;stroke-opacity:1.0;fill:none"/>
        <path transform="matrix(1,0,0,1,0,0)" d="M 99.30872 171.5953 L 97.38811 171.5953 L 96.427795 171.5953 L 95.46748 171.5953 L 94.50717 171.5953 L 93.54686 171.5953 L 92.58655 171.5953 L 91.626236 171.5953 L 89.70562 171.5953 L 88.74531 171.5953 L 87.784996 171.5953 L 85.86437 171.5953 L 83.94375 171.5953 L 82.023125 172.55562 L 80.10251 172.55562 L 78.181885 172.55562 L 77.22157 172.55562 L 75.30095 172.55562 L 74.340645 173.51593 L 72.42002 173.51593" scribmaster:penstyle="draw" style="stroke:#000000;stroke-width:5.0;stroke-linejoin:round;stroke-linecap:round;stroke-opacity:1.0;fill:none"/>
      </g>
    </g>
  </g>
</svg>
