<?xml version='1.0' encoding='ASCII' standalone='yes'?>
<svg width = "6in" height = "4in" xmlns="http://www.w3.org/2000/svg" xmlns:xlink="http://www.w3.org/1999/xlink" version="1.1">
  <g transform="translate(-1.0473038956930552, 0) scale(1 1) translate(-0.8145370177431639, 0) scale(1 1) translate(-0.581794650448325, 0) scale(1 1) translate(-0.34906978865732063, 0) scale(1 1) translate(-0.1163554293259576, 0) scale(1 1) translate(0.1163554293259576, 0) scale(1 1) translate(0.34906978865732075, 0) scale(1 1) translate(0.5817946504483253, 0) scale(1 1) translate(0.814537017743164, 0) scale(1 1) translate(1.0473038956930552, 0) scale(1 1) translate(0, 0) scale(0.1 0.1)  skewX(-1.000000) skewX(-0.777778) skewX(-0.555556) skewX(-0.333333) skewX(-0.111111) skewX(0.111111) skewX(0.333333) skewX(0.555556) skewX(0.777778) skewX(1.000000)">
    <sodipodi:namedview xmlns:sodipodi="http://sodipodi.sourceforge.net/DTD/sodipodi-0.dtd" id="ScribMaster"/>
    <filter id="blur">
      <feGaussianBlur stdDeviation="5.0"/>
    </filter>
    <defs/>
    <g xmlns:inkscape="http://www.inkscape.org/namespaces/inkscape" xmlns:scribmaster="http://scribmaster.com/scribmaster" id="1627852687053" transform="matrix(1.032782,0,0,1.032782,-14.899414,-13.325867)" style="opacity:1.0">
      <g id="1627851273342" inkscape:groupmode="layer" transform="matrix(1,0,0,1,0,0)" style="opacity:1.0">
        <path transform="matrix(1,0,0,1,0,0)" d="M 96.72846 156.20514 L 95.7602 154.26863 L 94.79195 153.30037 L 93.823685 152.3321 L 92.85542 151.36385 L 91.88717 151.36385 L 89.95065 151.36385 L 87.045876 151.36385 L 84.1411 152.3321 L 79.299805 154.26863 L 75.42677 157.1734 L 70.58548 161.04643 L 64.77593 167.82425 L 59.93464 173.6338 L 57.02986 182.34813 L 56.0616 190.0942 L 56.0616 196.87201 L 57.02986 202.68155 L 58.966377 207.52284 L 60.902893 209.45937 L 63.80767 211.39589 L 66.71245 211.39589 L 68.648964 211.39589 L 70.58548 210.42763 L 72.521996 208.4911 L 75.42677 205.58633 L 77.36329 201.7133 L 81.23632 197.84026 L 84.1411 192.03072 L 86.077614 185.2529 L 88.01414 179.44334 L 89.95065 174.60205 L 91.88717 170.72902 L 91.88717 167.82425 L 92.85542 165.88773 L 93.823685 164.91946 L 93.823685 165.88773 L 93.823685 166.85599 L 92.85542 169.76076 L 90.91891 179.44334 L 87.045876 191.06245 L 83.172844 205.58633 L 77.36329 227.85628 L 74.45852 245.28493 L 73.49026 257.8723 L 76.395035 267.5549 L 81.23632 274.3327 L 87.045876 278.20575 L 92.85542 280.14224 L 98.66498 279.174 L 103.50627 278.20575 L 109.31582 277.2375 L 114.15711 274.3327 L 119.96667 272.39618" scribmaster:penstyle="draw" style="stroke:#000000;stroke-width:5.0;stroke-linejoin:round;stroke-linecap:round;stroke-opacity:1.0;fill:none"/>
      </g>
    </g>
  </g>
</svg>
