<?xml version='1.0' encoding='ASCII' standalone='yes'?>
<svg width = "6in" height = "4in" xmlns="http://www.w3.org/2000/svg" xmlns:xlink="http://www.w3.org/1999/xlink" version="1.1">
  <g transform="translate(-0.581794650448325, 0) scale(1 1) translate(-0.34906978865732063, 0) scale(1 1) translate(-0.1163554293259576, 0) scale(1 1) translate(0.1163554293259576, 0) scale(1 1) translate(0.34906978865732075, 0) scale(1 1) translate(0.5817946504483253, 0) scale(1 1) translate(0.814537017743164, 0) scale(1 1) translate(1.0473038956930552, 0) scale(1 1) translate(0, 0) scale(0.1 0.1)  skewX(-1.000000) skewX(-0.777778) skewX(-0.555556) skewX(-0.333333) skewX(-0.111111) skewX(0.111111) skewX(0.333333) skewX(0.555556)">
    <sodipodi:namedview xmlns:sodipodi="http://sodipodi.sourceforge.net/DTD/sodipodi-0.dtd" id="ScribMaster"/>
    <filter id="blur">
      <feGaussianBlur stdDeviation="5.0"/>
    </filter>
    <defs/>
    <g xmlns:inkscape="http://www.inkscape.org/namespaces/inkscape" xmlns:scribmaster="http://scribmaster.com/scribmaster" id="1625350274474" transform="matrix(1,0,0,1,-1.316833,-1.489594)" style="opacity:1.0">
      <g id="1625348338071" inkscape:groupmode="layer" transform="matrix(1,0,0,1,0,0)" style="opacity:1.0">
        <path transform="matrix(1,0,0,1,0,0)" d="M 45.316833 32.489594 L 45.316833 34.489594 L 44.316833 35.489594 L 44.316833 38.489594 L 44.316833 42.489594 L 43.316833 49.489594 L 42.316833 60.489594 L 42.316833 73.48959 L 41.316833 89.48959 L 41.316833 103.48959 L 41.316833 116.48959 L 41.316833 128.4896 L 41.316833 143.4896 L 40.316833 156.4896 L 40.316833 167.4896 L 40.316833 177.4896 L 39.316833 188.4896 L 38.316833 197.4896 L 37.316833 205.4896 L 35.316833 211.4896 L 34.316833 217.4896 L 32.316833 221.4896 L 32.316833 223.4896 L 31.316833 225.4896 L 31.316833 226.4896 L 30.316833 226.4896 L 30.316833 225.4896 L 30.316833 224.4896" scribmaster:penstyle="draw" style="stroke:#000000;stroke-width:5.0;stroke-linejoin:round;stroke-linecap:round;stroke-opacity:1.0;fill:none"/>
        <path transform="matrix(1,0,0,1,0,0)" d="M 45.316833 46.489594 L 44.316833 47.489594 L 44.316833 50.489594 L 44.316833 54.489594 L 44.316833 59.489594 L 45.316833 66.48959 L 46.316833 76.48959 L 48.316833 88.48959 L 51.316833 99.48959 L 55.316833 110.48959 L 58.316833 120.48959 L 61.316833 131.4896 L 64.31683 142.4896 L 67.31683 151.4896 L 70.31683 160.4896 L 73.31683 167.4896 L 76.31683 173.4896 L 78.31683 176.4896 L 80.31683 178.4896 L 81.31683 179.4896 L 83.31683 179.4896 L 84.31683 178.4896 L 85.31683 176.4896 L 86.31683 174.4896 L 88.31683 170.4896 L 91.31683 165.4896 L 93.31683 158.4896 L 96.31683 149.4896 L 99.31683 139.4896 L 102.31683 127.48959 L 106.31683 117.48959 L 108.31683 107.48959 L 110.31683 97.48959 L 113.31683 88.48959 L 115.31683 79.48959 L 117.31683 72.48959 L 119.31683 65.48959 L 121.31683 60.489594 L 123.31683 56.489594 L 125.31683 53.489594 L 126.31683 50.489594 L 127.31683 49.489594 L 128.31683 48.489594 L 129.31683 47.489594 L 130.31683 46.489594 L 131.31683 46.489594 L 131.31683 47.489594 L 131.31683 48.489594 L 131.31683 51.489594 L 131.31683 56.489594 L 131.31683 68.48959 L 131.31683 85.48959 L 131.31683 106.48959 L 131.31683 124.48959 L 132.31683 142.4896 L 131.31683 158.4896 L 132.31683 172.4896 L 133.31683 183.4896 L 133.31683 195.4896 L 134.31683 205.4896 L 134.31683 214.4896 L 135.31683 221.4896 L 136.31683 227.4896 L 138.31683 233.4896 L 140.31683 235.4896 L 141.31683 237.4896" scribmaster:penstyle="draw" style="stroke:#000000;stroke-width:5.0;stroke-linejoin:round;stroke-linecap:round;stroke-opacity:1.0;fill:none"/>
      </g>
    </g>
  </g>
</svg>
