<?xml version='1.0' encoding='ASCII' standalone='yes'?>
<svg width = "6in" height = "4in" xmlns="http://www.w3.org/2000/svg" xmlns:xlink="http://www.w3.org/1999/xlink" version="1.1">
  <g transform="translate(1.0473038956930552, 0) scale(1 1) translate(0, 0) scale(0.1 0.1)  skewX(-1.000000)">
    <sodipodi:namedview xmlns:sodipodi="http://sodipodi.sourceforge.net/DTD/sodipodi-0.dtd" id="ScribMaster"/>
    <filter id="blur">
      <feGaussianBlur stdDeviation="5.0"/>
    </filter>
    <defs/>
    <g xmlns:inkscape="http://www.inkscape.org/namespaces/inkscape" xmlns:scribmaster="http://scribmaster.com/scribmaster" id="1625350294824" transform="matrix(1,0,0,1,-1.316833,-1.489594)" style="opacity:1.0">
      <g id="1625348338071" inkscape:groupmode="layer" transform="matrix(1,0,0,1,0,0)" style="opacity:1.0">
        <path transform="matrix(1,0,0,1,0,0)" d="M 50.316833 39.489594 L 50.316833 40.489594 L 50.316833 42.489594 L 50.316833 44.489594 L 50.316833 49.489594 L 50.316833 55.489594 L 50.316833 64.48959 L 49.316833 78.48959 L 49.316833 94.48959 L 48.316833 111.48959 L 48.316833 125.48959 L 48.316833 138.4896 L 48.316833 149.4896 L 47.316833 159.4896 L 47.316833 169.4896 L 46.316833 178.4896 L 45.316833 189.4896 L 45.316833 197.4896 L 44.316833 205.4896 L 43.316833 213.4896 L 43.316833 219.4896 L 43.316833 223.4896 L 43.316833 226.4896 L 43.316833 228.4896 L 44.316833 227.4896" scribmaster:penstyle="draw" style="stroke:#000000;stroke-width:5.0;stroke-linejoin:round;stroke-linecap:round;stroke-opacity:1.0;fill:none"/>
        <path transform="matrix(1,0,0,1,0,0)" d="M 52.316833 38.489594 L 53.316833 39.489594 L 55.316833 41.489594 L 56.316833 45.489594 L 58.316833 50.489594 L 60.316833 58.489594 L 63.316833 69.48959 L 66.31683 82.48959 L 68.31683 94.48959 L 71.31683 104.48959 L 73.31683 113.48959 L 75.31683 121.48959 L 77.31683 127.48959 L 80.31683 132.4896 L 82.31683 136.4896 L 84.31683 139.4896 L 86.31683 142.4896 L 87.31683 144.4896 L 88.31683 146.4896 L 89.31683 148.4896 L 90.31683 149.4896 L 91.31683 151.4896 L 92.31683 153.4896 L 93.31683 154.4896 L 94.31683 156.4896 L 95.31683 157.4896 L 96.31683 158.4896 L 98.31683 157.4896 L 99.31683 156.4896 L 101.31683 154.4896 L 102.31683 151.4896 L 105.31683 146.4896 L 110.31683 136.4896 L 115.31683 124.48959 L 120.31683 110.48959 L 125.31683 97.48959 L 129.31683 85.48959 L 132.31683 75.48959 L 136.31683 67.48959 L 138.31683 61.489594 L 140.31683 56.489594 L 141.31683 54.489594 L 142.31683 52.489594 L 142.31683 51.489594 L 143.31683 51.489594 L 144.31683 51.489594 L 144.31683 52.489594 L 144.31683 54.489594 L 144.31683 55.489594 L 145.31683 59.489594 L 145.31683 64.48959 L 145.31683 71.48959 L 145.31683 83.48959 L 146.31683 98.48959 L 146.31683 114.48959 L 146.31683 132.4896 L 146.31683 151.4896 L 146.31683 167.4896 L 147.31683 181.4896 L 148.31683 192.4896 L 149.31683 201.4896 L 150.31683 207.4896 L 152.31683 212.4896 L 153.31683 214.4896 L 154.31683 216.4896 L 156.31683 217.4896 L 156.31683 219.4896 L 157.31683 219.4896 L 158.31683 220.4896 L 159.31683 221.4896 L 160.31683 221.4896" scribmaster:penstyle="draw" style="stroke:#000000;stroke-width:5.0;stroke-linejoin:round;stroke-linecap:round;stroke-opacity:1.0;fill:none"/>
      </g>
    </g>
  </g>
</svg>
