<?xml version='1.0' encoding='ASCII' standalone='yes'?>
<svg width = "6in" height = "4in" xmlns="http://www.w3.org/2000/svg" xmlns:xlink="http://www.w3.org/1999/xlink" version="1.1">
  <g transform="translate(-0.581794650448325, 0) scale(1 1) translate(-0.34906978865732063, 0) scale(1 1) translate(-0.1163554293259576, 0) scale(1 1) translate(0.1163554293259576, 0) scale(1 1) translate(0.34906978865732075, 0) scale(1 1) translate(0.5817946504483253, 0) scale(1 1) translate(0.814537017743164, 0) scale(1 1) translate(1.0473038956930552, 0) scale(1 1) translate(0, 0) scale(0.1 0.1)  skewX(-1.000000) skewX(-0.777778) skewX(-0.555556) skewX(-0.333333) skewX(-0.111111) skewX(0.111111) skewX(0.333333) skewX(0.555556)">
    <sodipodi:namedview xmlns:sodipodi="http://sodipodi.sourceforge.net/DTD/sodipodi-0.dtd" id="ScribMaster"/>
    <filter id="blur">
      <feGaussianBlur stdDeviation="5.0"/>
    </filter>
    <defs/>
    <g xmlns:inkscape="http://www.inkscape.org/namespaces/inkscape" xmlns:scribmaster="http://scribmaster.com/scribmaster" id="1627854151632" transform="matrix(1.041329,0,0,1.041329,-16.413086,-15.68722)" style="opacity:1.0">
      <g id="1627851273342" inkscape:groupmode="layer" transform="matrix(1,0,0,1,0,0)" style="opacity:1.0">
        <path transform="matrix(1,0,0,1,0,0)" d="M 61.8566 81.32607 L 60.89629 82.286385 L 60.89629 84.20701 L 60.89629 87.087944 L 60.89629 89.96887 L 60.89629 97.65137 L 60.89629 106.29417 L 60.89629 116.85758 L 59.935978 129.34163 L 58.975666 144.7066 L 58.975666 160.07158 L 58.015354 175.43655 L 58.015354 187.9206 L 58.015354 199.44434 L 58.015354 207.12682 L 58.015354 213.849 L 58.015354 219.61086 L 58.015354 223.4521 L 58.015354 225.37273 L 58.015354 228.25366 L 57.055046 229.21397 L 57.055046 231.1346 L 57.055046 232.09491 L 56.094734 232.09491 L 56.094734 231.1346 L 56.094734 230.17429 L 56.094734 229.21397" scribmaster:penstyle="draw" style="stroke:#000000;stroke-width:5.0;stroke-linejoin:round;stroke-linecap:round;stroke-opacity:1.0;fill:none"/>
        <path transform="matrix(1,0,0,1,0,0)" d="M 60.89629 84.20701 L 63.77722 84.20701 L 67.61846 85.16732 L 72.42002 85.16732 L 77.22157 85.16732 L 83.94375 86.12763 L 90.665924 87.087944 L 96.427795 87.087944 L 102.18966 87.087944 L 107.95153 87.087944 L 113.713394 87.087944 L 118.514946 87.087944 L 123.316505 86.12763 L 128.11806 85.16732 L 131.9593 85.16732 L 133.87993 84.20701 L 135.80055 85.16732 L 137.72118 85.16732" scribmaster:penstyle="draw" style="stroke:#000000;stroke-width:5.0;stroke-linejoin:round;stroke-linecap:round;stroke-opacity:1.0;fill:none"/>
        <path transform="matrix(1,0,0,1,0,0)" d="M 61.8566 161.9922 L 63.77722 161.03189 L 65.697845 161.03189 L 68.57877 161.03189 L 71.45971 160.07158 L 75.30095 160.07158 L 78.181885 160.07158 L 82.023125 160.07158 L 84.90406 160.07158 L 87.784996 159.11127 L 90.665924 159.11127 L 94.50717 159.11127" scribmaster:penstyle="draw" style="stroke:#000000;stroke-width:5.0;stroke-linejoin:round;stroke-linecap:round;stroke-opacity:1.0;fill:none"/>
      </g>
    </g>
  </g>
</svg>
