<?xml version='1.0' encoding='UTF-8' standalone='no' ?><svg xmlns="http://www.w3.org/2000/svg" xmlns:scribmaster="http://scribmaster.com/scribmaster" xmlns:sodipodi="http://sodipodi.sourceforge.net/DTD/sodipodi-0.dtd" xmlns:inkscape="http://www.inkscape.org/namespaces/inkscape" xmlns:xlink="http://www.w3.org/1999/xlink" version="1.2" width="800" height="1014"><sodipodi:namedview id="ScribMaster" /><filter id="blur"><feGaussianBlur stdDeviation="5.0" /></filter><defs /><g id="1627853170188" transform="matrix(1.032782,0,0,1.032782,-14.899414,-13.325867)" style="opacity:1.0"><g id="1627851273342" inkscape:groupmode="layer" transform="matrix(1,0,0,1,0,0)" style="opacity:1.0"><path transform="matrix(1,0,0,1,0,0)" d="M 60.902893 137.80824 L 57.998123 136.83998 L 59.93464 136.83998 L 60.902893 136.83998 L 62.839417 136.83998 L 64.77593 136.83998 L 67.6807 136.83998 L 71.55374 136.83998 L 75.42677 136.83998 L 80.26807 136.83998 L 85.10936 136.83998 L 89.95065 136.83998 L 94.79195 136.83998 L 99.63324 136.83998 L 103.50627 135.87172 L 107.3793 135.87172 L 111.25234 135.87172 L 113.18886 135.87172 L 116.093636 135.87172 L 118.03015 135.87172 L 120.93492 134.90346 L 121.90318 134.90346 L 122.871445 134.90346 L 123.8397 134.90346 L 124.80796 134.90346 L 125.776215 134.90346 L 125.776215 135.87172 L 125.776215 136.83998 L 125.776215 137.80824 L 124.80796 138.77649 L 123.8397 139.74475 L 122.871445 140.71301 L 120.93492 142.64952 L 118.998405 144.58604 L 115.125374 148.45908 L 111.25234 152.3321 L 106.41105 158.14166 L 100.601494 163.95122 L 93.823685 171.69728 L 86.077614 179.44334 L 79.299805 187.18942 L 73.49026 193.96722 L 68.648964 199.77678 L 63.80767 204.61807 L 60.902893 209.45937 L 57.998123 211.39589 L 57.02986 214.30066 L 56.0616 215.26892 L 56.0616 217.20543 L 55.093346 218.17369 L 54.125084 219.14195 L 54.125084 220.11021 L 54.125084 222.04672 L 54.125084 223.01498 L 54.125084 223.98325 L 54.125084 224.9515 L 54.125084 225.91975 L 55.093346 226.88802 L 56.0616 226.88802 L 57.02986 226.88802 L 57.998123 227.85628 L 61.871155 227.85628 L 64.77593 227.85628 L 67.6807 228.82454 L 71.55374 228.82454 L 77.36329 228.82454 L 81.23632 229.7928 L 86.077614 229.7928 L 90.91891 230.76105 L 95.7602 230.76105 L 99.63324 230.76105 L 103.50627 230.76105 L 107.3793 230.76105 L 109.31582 230.76105 L 112.2206 230.76105" scribmaster:penstyle="draw" style="stroke:#000000;stroke-width:5.0;stroke-linejoin:round;stroke-linecap:round;stroke-opacity:1.0;fill:none" /></g></g></svg>