<?xml version='1.0' encoding='ASCII' standalone='yes'?>
<svg width = "6in" height = "4in" xmlns="http://www.w3.org/2000/svg" xmlns:xlink="http://www.w3.org/1999/xlink" version="1.1">
  <g transform="translate(-0.34906978865732063, 0) scale(1 1) translate(-0.1163554293259576, 0) scale(1 1) translate(0.1163554293259576, 0) scale(1 1) translate(0.34906978865732075, 0) scale(1 1) translate(0.5817946504483253, 0) scale(1 1) translate(0.814537017743164, 0) scale(1 1) translate(1.0473038956930552, 0) scale(1 1) translate(0, 0) scale(0.1 0.1)  skewX(-1.000000) skewX(-0.777778) skewX(-0.555556) skewX(-0.333333) skewX(-0.111111) skewX(0.111111) skewX(0.333333)">
    <sodipodi:namedview xmlns:sodipodi="http://sodipodi.sourceforge.net/DTD/sodipodi-0.dtd" id="ScribMaster"/>
    <filter id="blur">
      <feGaussianBlur stdDeviation="5.0"/>
    </filter>
    <defs/>
    <g xmlns:inkscape="http://www.inkscape.org/namespaces/inkscape" xmlns:scribmaster="http://scribmaster.com/scribmaster" id="1625351770158" transform="matrix(1,0,0,1,-1.316833,-1.489594)" style="opacity:1.0">
      <g id="1625348338071" inkscape:groupmode="layer" transform="matrix(1,0,0,1,0,0)" style="opacity:1.0">
        <path transform="matrix(1,0,0,1,0,0)" d="M 67.31683 53.489594 L 68.31683 51.489594 L 68.31683 52.489594 L 67.31683 54.489594 L 66.31683 56.489594 L 63.316833 60.489594 L 61.316833 64.48959 L 57.316833 70.48959 L 54.316833 76.48959 L 50.316833 82.48959 L 44.316833 90.48959 L 41.316833 98.48959 L 39.316833 105.48959 L 39.316833 111.48959 L 40.316833 114.48959 L 41.316833 118.48959 L 43.316833 121.48959 L 46.316833 124.48959 L 52.316833 126.48959 L 58.316833 128.4896 L 66.31683 129.4896 L 75.31683 130.4896 L 84.31683 131.4896 L 92.31683 130.4896 L 99.31683 129.4896 L 106.31683 128.4896 L 113.31683 127.48959 L 118.31683 125.48959 L 123.31683 124.48959 L 125.31683 124.48959" scribmaster:penstyle="draw" style="stroke:#000000;stroke-width:5.0;stroke-linejoin:round;stroke-linecap:round;stroke-opacity:1.0;fill:none"/>
        <path transform="matrix(1,0,0,1,0,0)" d="M 142.31683 49.489594 L 142.31683 48.489594 L 142.31683 47.489594 L 142.31683 46.489594 L 143.31683 45.489594 L 143.31683 46.489594 L 144.31683 47.489594 L 143.31683 52.489594 L 142.31683 60.489594 L 140.31683 75.48959 L 134.31683 100.48959 L 127.31683 129.4896 L 122.31683 162.4896 L 118.31683 185.4896 L 116.31683 205.4896 L 114.31683 217.4896 L 112.31683 225.4896 L 112.31683 230.4896 L 114.31683 231.4896" scribmaster:penstyle="draw" style="stroke:#000000;stroke-width:5.0;stroke-linejoin:round;stroke-linecap:round;stroke-opacity:1.0;fill:none"/>
      </g>
    </g>
  </g>
</svg>
