<?xml version='1.0' encoding='ASCII' standalone='yes'?>
<svg width = "6in" height = "4in" xmlns="http://www.w3.org/2000/svg" xmlns:xlink="http://www.w3.org/1999/xlink" version="1.1">
  <g transform="translate(0.5817946504483253, 0) scale(1 1) translate(0.814537017743164, 0) scale(1 1) translate(1.0473038956930552, 0) scale(1 1) translate(0, 0) scale(0.1 0.1)  skewX(-1.000000) skewX(-0.777778) skewX(-0.555556)">
    <sodipodi:namedview xmlns:sodipodi="http://sodipodi.sourceforge.net/DTD/sodipodi-0.dtd" id="ScribMaster"/>
    <filter id="blur">
      <feGaussianBlur stdDeviation="5.0"/>
    </filter>
    <defs/>
    <g xmlns:inkscape="http://www.inkscape.org/namespaces/inkscape" xmlns:scribmaster="http://scribmaster.com/scribmaster" id="1627851011688" transform="matrix(1.032782,0,0,1.032782,-14.899414,-13.325867)" style="opacity:1.0">
      <g id="1627850815592" inkscape:groupmode="layer" transform="matrix(1,0,0,1,0,0)" style="opacity:1.0">
        <path transform="matrix(1,0,0,1,0,0)" d="M 793.0 698.0 L 793.0 698.01" scribmaster:penstyle="draw" style="stroke:#000000;stroke-width:5.0;stroke-linejoin:round;stroke-linecap:round;stroke-opacity:1.0;fill:none"/>
        <path transform="matrix(1,0,0,1,0,0)" d="M 782.25555 593.85803 L 782.25555 590.95325 L 782.25555 589.985 L 782.25555 590.95325 L 782.25555 591.9215 L 782.25555 592.8898 L 782.25555 593.85803 L 782.25555 594.8263 L 782.25555 595.79456 L 781.2873 594.8263 L 781.2873 593.85803 L 781.2873 592.8898" scribmaster:penstyle="draw" style="stroke:#000000;stroke-width:5.0;stroke-linejoin:round;stroke-linecap:round;stroke-opacity:1.0;fill:none"/>
        <path transform="matrix(1,0,0,1,0,0)" d="M 120.93492 150.3956 L 118.998405 150.3956 L 118.998405 151.36385 L 118.03015 151.36385 L 117.06189 151.36385 L 116.093636 151.36385 L 115.125374 152.3321 L 113.18886 152.3321 L 111.25234 153.30037 L 109.31582 153.30037 L 106.41105 155.2369 L 103.50627 157.1734 L 100.601494 159.10992 L 95.7602 162.0147 L 89.95065 167.82425 L 83.172844 174.60205 L 77.36329 183.31639 L 73.49026 192.03072 L 70.58548 199.77678 L 69.617226 207.52284 L 70.58548 214.30066 L 72.521996 219.14195 L 75.42677 222.04672 L 78.33155 223.98325 L 81.23632 224.9515 L 84.1411 224.9515 L 88.01414 223.98325 L 91.88717 223.01498 L 94.79195 222.04672 L 98.66498 219.14195 L 102.53801 216.23718 L 105.44279 213.3324 L 109.31582 208.4911 L 113.18886 202.68155 L 116.093636 196.87201 L 118.998405 191.06245 L 120.93492 185.2529 L 121.90318 179.44334 L 122.871445 174.60205 L 122.871445 170.72902 L 122.871445 167.82425 L 122.871445 166.85599 L 122.871445 164.91946 L 123.8397 164.91946 L 123.8397 163.95122 L 123.8397 164.91946 L 124.80796 165.88773 L 125.776215 168.79251 L 127.71274 172.66554 L 130.61751 182.34813 L 135.4588 193.96722 L 140.3001 203.64981 L 146.10965 212.36414 L 152.88745 219.14195 L 160.63353 224.9515 L 170.31612 229.7928 L 179.03044 231.72931 L 186.7765 233.66583" scribmaster:penstyle="draw" style="stroke:#000000;stroke-width:5.0;stroke-linejoin:round;stroke-linecap:round;stroke-opacity:1.0;fill:none"/>
      </g>
    </g>
  </g>
</svg>
