<?xml version='1.0' encoding='ASCII' standalone='yes'?>
<svg width = "6in" height = "4in" xmlns="http://www.w3.org/2000/svg" xmlns:xlink="http://www.w3.org/1999/xlink" version="1.1">
  <g transform="translate(-0.8145370177431639, 0) scale(1 1) translate(-0.581794650448325, 0) scale(1 1) translate(-0.34906978865732063, 0) scale(1 1) translate(-0.1163554293259576, 0) scale(1 1) translate(0.1163554293259576, 0) scale(1 1) translate(0.34906978865732075, 0) scale(1 1) translate(0.5817946504483253, 0) scale(1 1) translate(0.814537017743164, 0) scale(1 1) translate(1.0473038956930552, 0) scale(1 1) translate(0, 0) scale(0.1 0.1)  skewX(-1.000000) skewX(-0.777778) skewX(-0.555556) skewX(-0.333333) skewX(-0.111111) skewX(0.111111) skewX(0.333333) skewX(0.555556) skewX(0.777778)">
    <sodipodi:namedview xmlns:sodipodi="http://sodipodi.sourceforge.net/DTD/sodipodi-0.dtd" id="ScribMaster"/>
    <filter id="blur">
      <feGaussianBlur stdDeviation="5.0"/>
    </filter>
    <defs/>
    <g xmlns:inkscape="http://www.inkscape.org/namespaces/inkscape" xmlns:scribmaster="http://scribmaster.com/scribmaster" id="1627851158052" transform="matrix(1.032782,0,0,1.032782,-14.899414,-13.325867)" style="opacity:1.0">
      <g id="1627850815592" inkscape:groupmode="layer" transform="matrix(1,0,0,1,0,0)" style="opacity:1.0">
        <path transform="matrix(1,0,0,1,0,0)" d="M 793.0 698.0 L 793.0 698.01" scribmaster:penstyle="draw" style="stroke:#000000;stroke-width:5.0;stroke-linejoin:round;stroke-linecap:round;stroke-opacity:1.0;fill:none"/>
        <path transform="matrix(1,0,0,1,0,0)" d="M 782.25555 593.85803 L 782.25555 590.95325 L 782.25555 589.985 L 782.25555 590.95325 L 782.25555 591.9215 L 782.25555 592.8898 L 782.25555 593.85803 L 782.25555 594.8263 L 782.25555 595.79456 L 781.2873 594.8263 L 781.2873 593.85803 L 781.2873 592.8898" scribmaster:penstyle="draw" style="stroke:#000000;stroke-width:5.0;stroke-linejoin:round;stroke-linecap:round;stroke-opacity:1.0;fill:none"/>
        <path transform="matrix(1,0,0,1,0,0)" d="M 115.125374 161.04643 L 113.18886 161.04643 L 112.2206 160.07819 L 111.25234 160.07819 L 110.28408 159.10992 L 109.31582 159.10992 L 108.347565 159.10992 L 107.3793 158.14166 L 106.41105 158.14166 L 105.44279 158.14166 L 103.50627 158.14166 L 102.53801 157.1734 L 101.569756 157.1734 L 99.63324 157.1734 L 97.69672 157.1734 L 95.7602 158.14166 L 91.88717 159.10992 L 88.98239 161.04643 L 84.1411 164.91946 L 80.26807 169.76076 L 75.42677 175.57031 L 71.55374 183.31639 L 68.648964 191.06245 L 67.6807 196.87201 L 66.71245 203.64981 L 67.6807 208.4911 L 69.617226 213.3324 L 72.521996 217.20543 L 74.45852 220.11021 L 77.36329 223.01498 L 79.299805 224.9515 L 82.20458 226.88802 L 85.10936 227.85628 L 88.01414 228.82454 L 90.91891 227.85628 L 92.85542 226.88802 L 95.7602 224.9515 L 99.63324 222.04672 L 105.44279 215.26892 L 109.31582 208.4911 L 113.18886 199.77678 L 117.06189 191.06245 L 119.96667 183.31639 L 121.90318 176.53857 L 123.8397 172.66554 L 124.80796 168.79251 L 125.776215 167.82425 L 126.74448 168.79251 L 127.71274 169.76076 L 128.681 172.66554 L 130.61751 175.57031 L 133.5223 181.37987 L 138.36359 189.12593 L 143.20486 197.84026 L 148.04616 206.5546 L 152.88745 215.26892 L 158.697 223.98325 L 165.47482 233.66583 L 172.25262 239.47539" scribmaster:penstyle="draw" style="stroke:#000000;stroke-width:5.0;stroke-linejoin:round;stroke-linecap:round;stroke-opacity:1.0;fill:none"/>
      </g>
    </g>
  </g>
</svg>
