<?xml version='1.0' encoding='ASCII' standalone='yes'?>
<svg width = "6in" height = "4in" xmlns="http://www.w3.org/2000/svg" xmlns:xlink="http://www.w3.org/1999/xlink" version="1.1">
  <g transform="translate(-0.34906978865732063, 0) scale(1 1) translate(-0.1163554293259576, 0) scale(1 1) translate(0.1163554293259576, 0) scale(1 1) translate(0.34906978865732075, 0) scale(1 1) translate(0.5817946504483253, 0) scale(1 1) translate(0.814537017743164, 0) scale(1 1) translate(1.0473038956930552, 0) scale(1 1) translate(0, 0) scale(0.1 0.1)  skewX(-1.000000) skewX(-0.777778) skewX(-0.555556) skewX(-0.333333) skewX(-0.111111) skewX(0.111111) skewX(0.333333)">
    <sodipodi:namedview xmlns:sodipodi="http://sodipodi.sourceforge.net/DTD/sodipodi-0.dtd" id="ScribMaster"/>
    <filter id="blur">
      <feGaussianBlur stdDeviation="5.0"/>
    </filter>
    <defs/>
    <g xmlns:inkscape="http://www.inkscape.org/namespaces/inkscape" xmlns:scribmaster="http://scribmaster.com/scribmaster" id="1627851123907" transform="matrix(1.032782,0,0,1.032782,-14.899414,-13.325867)" style="opacity:1.0">
      <g id="1627850815592" inkscape:groupmode="layer" transform="matrix(1,0,0,1,0,0)" style="opacity:1.0">
        <path transform="matrix(1,0,0,1,0,0)" d="M 793.0 698.0 L 793.0 698.01" scribmaster:penstyle="draw" style="stroke:#000000;stroke-width:5.0;stroke-linejoin:round;stroke-linecap:round;stroke-opacity:1.0;fill:none"/>
        <path transform="matrix(1,0,0,1,0,0)" d="M 782.25555 593.85803 L 782.25555 590.95325 L 782.25555 589.985 L 782.25555 590.95325 L 782.25555 591.9215 L 782.25555 592.8898 L 782.25555 593.85803 L 782.25555 594.8263 L 782.25555 595.79456 L 781.2873 594.8263 L 781.2873 593.85803 L 781.2873 592.8898" scribmaster:penstyle="draw" style="stroke:#000000;stroke-width:5.0;stroke-linejoin:round;stroke-linecap:round;stroke-opacity:1.0;fill:none"/>
        <path transform="matrix(1,0,0,1,0,0)" d="M 116.093636 153.30037 L 114.15711 150.3956 L 113.18886 150.3956 L 112.2206 150.3956 L 111.25234 150.3956 L 110.28408 150.3956 L 108.347565 150.3956 L 106.41105 150.3956 L 105.44279 151.36385 L 102.53801 152.3321 L 99.63324 154.26863 L 94.79195 157.1734 L 88.98239 162.0147 L 84.1411 167.82425 L 78.33155 174.60205 L 74.45852 184.28464 L 70.58548 192.99896 L 67.6807 201.7133 L 66.71245 209.45937 L 66.71245 219.14195 L 67.6807 226.88802 L 70.58548 232.69757 L 72.521996 236.5706 L 74.45852 238.50713 L 77.36329 239.47539 L 78.33155 238.50713 L 80.26807 238.50713 L 82.20458 236.5706 L 84.1411 234.6341 L 87.045876 232.69757 L 89.95065 228.82454 L 93.823685 222.04672 L 97.69672 214.30066 L 101.569756 206.5546 L 105.44279 199.77678 L 108.347565 192.03072 L 110.28408 186.22116 L 112.2206 180.4116 L 114.15711 174.60205 L 115.125374 169.76076 L 116.093636 165.88773 L 116.093636 163.95122 L 117.06189 162.0147 L 117.06189 161.04643 L 118.03015 161.04643 L 118.03015 162.0147 L 118.998405 163.95122 L 120.93492 168.79251 L 122.871445 179.44334 L 126.74448 189.12593 L 130.61751 196.87201 L 136.42706 203.64981 L 141.26836 209.45937 L 146.10965 214.30066 L 150.95094 218.17369 L 154.82397 221.07846 L 159.66527 223.98325 L 165.47482 224.9515 L 170.31612 226.88802" scribmaster:penstyle="draw" style="stroke:#000000;stroke-width:5.0;stroke-linejoin:round;stroke-linecap:round;stroke-opacity:1.0;fill:none"/>
      </g>
    </g>
  </g>
</svg>
