<?xml version='1.0' encoding='UTF-8' standalone='no' ?><svg xmlns="http://www.w3.org/2000/svg" xmlns:scribmaster="http://scribmaster.com/scribmaster" xmlns:sodipodi="http://sodipodi.sourceforge.net/DTD/sodipodi-0.dtd" xmlns:inkscape="http://www.inkscape.org/namespaces/inkscape" xmlns:xlink="http://www.w3.org/1999/xlink" version="1.2" width="800" height="1014"><sodipodi:namedview id="ScribMaster" /><filter id="blur"><feGaussianBlur stdDeviation="5.0" /></filter><defs /><g id="1625351800841" transform="matrix(1,0,0,1,-1.316833,-1.489594)" style="opacity:1.0"><g id="1625348338071" inkscape:groupmode="layer" transform="matrix(1,0,0,1,0,0)" style="opacity:1.0"><path transform="matrix(1,0,0,1,0,0)" d="M 96.31683 47.489594 L 95.31683 48.489594 L 95.31683 50.489594 L 94.31683 56.489594 L 92.31683 65.48959 L 91.31683 76.48959 L 88.31683 91.48959 L 86.31683 104.48959 L 84.31683 115.48959 L 82.31683 125.48959 L 81.31683 133.4896 L 80.31683 139.4896 L 80.31683 143.4896 L 80.31683 146.4896 L 81.31683 147.4896 L 82.31683 147.4896 L 84.31683 147.4896 L 86.31683 146.4896 L 90.31683 145.4896 L 93.31683 145.4896 L 98.31683 144.4896 L 102.31683 144.4896 L 107.31683 144.4896 L 113.31683 144.4896 L 117.31683 145.4896 L 122.31683 146.4896 L 127.31683 148.4896 L 131.31683 151.4896 L 134.31683 154.4896 L 137.31683 159.4896 L 138.31683 163.4896 L 139.31683 167.4896 L 139.31683 174.4896 L 137.31683 180.4896 L 134.31683 186.4896 L 130.31683 192.4896 L 125.31683 198.4896 L 117.31683 204.4896 L 109.31683 209.4896 L 99.31683 212.4896 L 89.31683 214.4896 L 78.31683 214.4896 L 68.31683 213.4896 L 60.316833 211.4896 L 54.316833 209.4896 L 51.316833 207.4896" scribmaster:penstyle="draw" style="stroke:#000000;stroke-width:5.0;stroke-linejoin:round;stroke-linecap:round;stroke-opacity:1.0;fill:none" /><path transform="matrix(1,0,0,1,0,0)" d="M 109.31683 58.489594 L 110.31683 57.489594 L 113.31683 56.489594 L 117.31683 56.489594 L 126.31683 57.489594 L 140.31683 58.489594 L 161.31683 59.489594 L 181.31683 59.489594" scribmaster:penstyle="draw" style="stroke:#000000;stroke-width:5.0;stroke-linejoin:round;stroke-linecap:round;stroke-opacity:1.0;fill:none" /></g></g></svg>