<?xml version='1.0' encoding='ASCII' standalone='yes'?>
<svg width = "6in" height = "4in" xmlns="http://www.w3.org/2000/svg" xmlns:xlink="http://www.w3.org/1999/xlink" version="1.1">
  <g transform="translate(0.5817946504483253, 0) scale(1 1) translate(0.814537017743164, 0) scale(1 1) translate(1.0473038956930552, 0) scale(1 1) translate(0, 0) scale(0.1 0.1)  skewX(-1.000000) skewX(-0.777778) skewX(-0.555556)">
    <sodipodi:namedview xmlns:sodipodi="http://sodipodi.sourceforge.net/DTD/sodipodi-0.dtd" id="ScribMaster"/>
    <filter id="blur">
      <feGaussianBlur stdDeviation="5.0"/>
    </filter>
    <defs/>
    <g xmlns:inkscape="http://www.inkscape.org/namespaces/inkscape" xmlns:scribmaster="http://scribmaster.com/scribmaster" id="1625349765008" transform="matrix(1,0,0,1,-1.316833,-1.489594)" style="opacity:1.0">
      <g id="1625348338071" inkscape:groupmode="layer" transform="matrix(1,0,0,1,0,0)" style="opacity:1.0">
        <path transform="matrix(1,0,0,1,0,0)" d="M 56.316833 32.489594 L 56.316833 34.489594 L 56.316833 37.489594 L 56.316833 43.489594 L 56.316833 50.489594 L 56.316833 64.48959 L 57.316833 81.48959 L 58.316833 100.48959 L 58.316833 120.48959 L 58.316833 137.4896 L 58.316833 155.4896 L 58.316833 170.4896 L 60.316833 183.4896 L 60.316833 195.4896 L 60.316833 204.4896 L 60.316833 211.4896 L 59.316833 217.4896 L 57.316833 222.4896 L 56.316833 226.4896 L 56.316833 228.4896 L 55.316833 230.4896 L 54.316833 232.4896 L 54.316833 234.4896 L 55.316833 234.4896" scribmaster:penstyle="draw" style="stroke:#000000;stroke-width:5.0;stroke-linejoin:round;stroke-linecap:round;stroke-opacity:1.0;fill:none"/>
        <path transform="matrix(1,0,0,1,0,0)" d="M 67.31683 46.489594 L 65.31683 45.489594 L 64.31683 45.489594 L 67.31683 47.489594 L 70.31683 48.489594 L 74.31683 50.489594 L 79.31683 53.489594 L 85.31683 56.489594 L 91.31683 60.489594 L 97.31683 64.48959 L 102.31683 69.48959 L 107.31683 74.48959 L 113.31683 79.48959 L 119.31683 85.48959 L 123.31683 92.48959 L 126.31683 99.48959 L 129.31683 107.48959 L 131.31683 114.48959 L 131.31683 123.48959 L 131.31683 134.4896 L 130.31683 145.4896 L 127.31683 157.4896 L 123.31683 167.4896 L 116.31683 181.4896 L 107.31683 194.4896 L 95.31683 207.4896 L 84.31683 217.4896 L 74.31683 225.4896 L 64.31683 233.4896 L 56.316833 239.4896 L 49.316833 244.4896 L 45.316833 247.4896 L 43.316833 248.4896 L 43.316833 247.4896" scribmaster:penstyle="draw" style="stroke:#000000;stroke-width:5.0;stroke-linejoin:round;stroke-linecap:round;stroke-opacity:1.0;fill:none"/>
      </g>
    </g>
  </g>
</svg>
