<?xml version='1.0' encoding='ASCII' standalone='yes'?>
<svg width = "6in" height = "4in" xmlns="http://www.w3.org/2000/svg" xmlns:xlink="http://www.w3.org/1999/xlink" version="1.1">
  <g transform="translate(-1.0473038956930552, 0) scale(1 1) translate(-0.8145370177431639, 0) scale(1 1) translate(-0.581794650448325, 0) scale(1 1) translate(-0.34906978865732063, 0) scale(1 1) translate(-0.1163554293259576, 0) scale(1 1) translate(0.1163554293259576, 0) scale(1 1) translate(0.34906978865732075, 0) scale(1 1) translate(0.5817946504483253, 0) scale(1 1) translate(0.814537017743164, 0) scale(1 1) translate(1.0473038956930552, 0) scale(1 1) translate(0, 0) scale(0.1 0.1)  skewX(-1.000000) skewX(-0.777778) skewX(-0.555556) skewX(-0.333333) skewX(-0.111111) skewX(0.111111) skewX(0.333333) skewX(0.555556) skewX(0.777778) skewX(1.000000)">
    <sodipodi:namedview xmlns:sodipodi="http://sodipodi.sourceforge.net/DTD/sodipodi-0.dtd" id="ScribMaster"/>
    <filter id="blur">
      <feGaussianBlur stdDeviation="5.0"/>
    </filter>
    <defs/>
    <g xmlns:inkscape="http://www.inkscape.org/namespaces/inkscape" xmlns:scribmaster="http://scribmaster.com/scribmaster" id="1625349780879" transform="matrix(1,0,0,1,-1.316833,-1.489594)" style="opacity:1.0">
      <g id="1625348338071" inkscape:groupmode="layer" transform="matrix(1,0,0,1,0,0)" style="opacity:1.0">
        <path transform="matrix(1,0,0,1,0,0)" d="M 48.316833 35.489594 L 47.316833 36.489594 L 47.316833 39.489594 L 46.316833 44.489594 L 46.316833 54.489594 L 46.316833 69.48959 L 45.316833 90.48959 L 45.316833 114.48959 L 44.316833 134.4896 L 44.316833 154.4896 L 44.316833 170.4896 L 44.316833 182.4896 L 43.316833 195.4896 L 43.316833 206.4896 L 43.316833 215.4896 L 42.316833 225.4896 L 42.316833 232.4896 L 42.316833 239.4896 L 42.316833 245.4896 L 42.316833 248.4896 L 42.316833 249.4896 L 42.316833 250.4896 L 43.316833 249.4896 L 43.316833 246.4896" scribmaster:penstyle="draw" style="stroke:#000000;stroke-width:5.0;stroke-linejoin:round;stroke-linecap:round;stroke-opacity:1.0;fill:none"/>
        <path transform="matrix(1,0,0,1,0,0)" d="M 48.316833 42.489594 L 48.316833 41.489594 L 48.316833 40.489594 L 49.316833 40.489594 L 50.316833 40.489594 L 53.316833 40.489594 L 60.316833 42.489594 L 70.31683 46.489594 L 78.31683 49.489594 L 87.31683 54.489594 L 96.31683 60.489594 L 104.31683 66.48959 L 111.31683 72.48959 L 117.31683 79.48959 L 122.31683 87.48959 L 127.31683 97.48959 L 130.31683 107.48959 L 132.31683 117.48959 L 132.31683 126.48959 L 131.31683 136.4896 L 127.31683 147.4896 L 123.31683 159.4896 L 116.31683 172.4896 L 106.31683 186.4896 L 94.31683 199.4896 L 82.31683 210.4896 L 70.31683 219.4896 L 58.316833 226.4896 L 48.316833 232.4896 L 35.316833 238.4896 L 25.316833 244.4896 L 20.316833 249.4896" scribmaster:penstyle="draw" style="stroke:#000000;stroke-width:5.0;stroke-linejoin:round;stroke-linecap:round;stroke-opacity:1.0;fill:none"/>
      </g>
    </g>
  </g>
</svg>
