<?xml version='1.0' encoding='ASCII' standalone='yes'?>
<svg width = "6in" height = "4in" xmlns="http://www.w3.org/2000/svg" xmlns:xlink="http://www.w3.org/1999/xlink" version="1.1">
  <g transform="translate(0.34906978865732075, 0) scale(1 1) translate(0.5817946504483253, 0) scale(1 1) translate(0.814537017743164, 0) scale(1 1) translate(1.0473038956930552, 0) scale(1 1) translate(0, 0) scale(0.1 0.1)  skewX(-1.000000) skewX(-0.777778) skewX(-0.555556) skewX(-0.333333)">
    <sodipodi:namedview xmlns:sodipodi="http://sodipodi.sourceforge.net/DTD/sodipodi-0.dtd" id="ScribMaster"/>
    <filter id="blur">
      <feGaussianBlur stdDeviation="5.0"/>
    </filter>
    <defs/>
    <g xmlns:inkscape="http://www.inkscape.org/namespaces/inkscape" xmlns:scribmaster="http://scribmaster.com/scribmaster" id="1625351355245" transform="matrix(1,0,0,1,-1.316833,-1.489594)" style="opacity:1.0">
      <g id="1625348338071" inkscape:groupmode="layer" transform="matrix(1,0,0,1,0,0)" style="opacity:1.0">
        <path transform="matrix(1,0,0,1,0,0)" d="M 27.316833 46.489594 L 28.316833 45.489594 L 30.316833 44.489594 L 31.316833 44.489594 L 34.316833 43.489594 L 37.316833 43.489594 L 43.316833 42.489594 L 52.316833 42.489594 L 65.31683 42.489594 L 76.31683 42.489594 L 89.31683 42.489594 L 100.31683 42.489594 L 110.31683 42.489594 L 119.31683 42.489594 L 127.31683 41.489594 L 134.31683 41.489594 L 139.31683 40.489594 L 144.31683 40.489594 L 147.31683 39.489594" scribmaster:penstyle="draw" style="stroke:#000000;stroke-width:5.0;stroke-linejoin:round;stroke-linecap:round;stroke-opacity:1.0;fill:none"/>
        <path transform="matrix(1,0,0,1,0,0)" d="M 104.31683 46.489594 L 103.31683 48.489594 L 102.31683 51.489594 L 101.31683 57.489594 L 99.31683 68.48959 L 97.31683 84.48959 L 95.31683 104.48959 L 92.31683 125.48959 L 89.31683 147.4896 L 88.31683 166.4896 L 88.31683 180.4896 L 86.31683 195.4896 L 85.31683 205.4896 L 83.31683 214.4896 L 82.31683 221.4896 L 81.31683 226.4896 L 80.31683 229.4896 L 80.31683 231.4896 L 81.31683 232.4896 L 82.31683 232.4896" scribmaster:penstyle="draw" style="stroke:#000000;stroke-width:5.0;stroke-linejoin:round;stroke-linecap:round;stroke-opacity:1.0;fill:none"/>
      </g>
    </g>
  </g>
</svg>
