<?xml version='1.0' encoding='ASCII' standalone='yes'?>
<svg width = "6in" height = "4in" xmlns="http://www.w3.org/2000/svg" xmlns:xlink="http://www.w3.org/1999/xlink" version="1.1">
  <g transform="translate(-0.1163554293259576, 0) scale(1 1) translate(0.1163554293259576, 0) scale(1 1) translate(0.34906978865732075, 0) scale(1 1) translate(0.5817946504483253, 0) scale(1 1) translate(0.814537017743164, 0) scale(1 1) translate(1.0473038956930552, 0) scale(1 1) translate(0, 0) scale(0.1 0.1)  skewX(-1.000000) skewX(-0.777778) skewX(-0.555556) skewX(-0.333333) skewX(-0.111111) skewX(0.111111)">
    <sodipodi:namedview xmlns:sodipodi="http://sodipodi.sourceforge.net/DTD/sodipodi-0.dtd" id="ScribMaster"/>
    <filter id="blur">
      <feGaussianBlur stdDeviation="5.0"/>
    </filter>
    <defs/>
    <g xmlns:inkscape="http://www.inkscape.org/namespaces/inkscape" xmlns:scribmaster="http://scribmaster.com/scribmaster" id="1625351323508" transform="matrix(1,0,0,1,-1.316833,-1.489594)" style="opacity:1.0">
      <g id="1625348338071" inkscape:groupmode="layer" transform="matrix(1,0,0,1,0,0)" style="opacity:1.0">
        <path transform="matrix(1,0,0,1,0,0)" d="M 11.3168335 44.489594 L 14.3168335 43.489594 L 19.316833 43.489594 L 24.316833 42.489594 L 28.316833 42.489594 L 36.316833 41.489594 L 43.316833 40.489594 L 52.316833 40.489594 L 62.316833 39.489594 L 71.31683 39.489594 L 81.31683 38.489594 L 90.31683 37.489594 L 98.31683 35.489594 L 106.31683 34.489594 L 114.31683 34.489594 L 120.31683 34.489594 L 126.31683 34.489594 L 131.31683 35.489594 L 134.31683 37.489594 L 136.31683 39.489594" scribmaster:penstyle="draw" style="stroke:#000000;stroke-width:5.0;stroke-linejoin:round;stroke-linecap:round;stroke-opacity:1.0;fill:none"/>
        <path transform="matrix(1,0,0,1,0,0)" d="M 79.31683 52.489594 L 79.31683 50.489594 L 79.31683 49.489594 L 79.31683 52.489594 L 79.31683 55.489594 L 78.31683 63.489594 L 77.31683 76.48959 L 76.31683 98.48959 L 74.31683 121.48959 L 72.31683 148.4896 L 70.31683 170.4896 L 69.31683 186.4896 L 68.31683 201.4896 L 66.31683 212.4896 L 66.31683 219.4896 L 66.31683 224.4896 L 67.31683 226.4896 L 69.31683 225.4896" scribmaster:penstyle="draw" style="stroke:#000000;stroke-width:5.0;stroke-linejoin:round;stroke-linecap:round;stroke-opacity:1.0;fill:none"/>
      </g>
    </g>
  </g>
</svg>
