<?xml version='1.0' encoding='ASCII' standalone='yes'?>
<svg width = "6in" height = "4in" xmlns="http://www.w3.org/2000/svg" xmlns:xlink="http://www.w3.org/1999/xlink" version="1.1">
  <g transform="translate(0.1163554293259576, 0) scale(1 1) translate(0.34906978865732075, 0) scale(1 1) translate(0.5817946504483253, 0) scale(1 1) translate(0.814537017743164, 0) scale(1 1) translate(1.0473038956930552, 0) scale(1 1) translate(0, 0) scale(0.1 0.1)  skewX(-1.000000) skewX(-0.777778) skewX(-0.555556) skewX(-0.333333) skewX(-0.111111)">
    <sodipodi:namedview xmlns:sodipodi="http://sodipodi.sourceforge.net/DTD/sodipodi-0.dtd" id="ScribMaster"/>
    <filter id="blur">
      <feGaussianBlur stdDeviation="5.0"/>
    </filter>
    <defs/>
    <g xmlns:inkscape="http://www.inkscape.org/namespaces/inkscape" xmlns:scribmaster="http://scribmaster.com/scribmaster" id="1625351834511" transform="matrix(1,0,0,1,-1.316833,-1.489594)" style="opacity:1.0">
      <g id="1625348338071" inkscape:groupmode="layer" transform="matrix(1,0,0,1,0,0)" style="opacity:1.0">
        <path transform="matrix(1,0,0,1,0,0)" d="M 129.31683 35.489594 L 129.31683 34.489594 L 128.31683 34.489594 L 127.31683 34.489594 L 127.31683 33.489594 L 126.31683 33.489594 L 124.31683 34.489594 L 122.31683 35.489594 L 119.31683 38.489594 L 114.31683 42.489594 L 107.31683 50.489594 L 100.31683 60.489594 L 91.31683 73.48959 L 81.31683 90.48959 L 72.31683 112.48959 L 63.316833 131.4896 L 56.316833 151.4896 L 53.316833 170.4896 L 52.316833 184.4896 L 53.316833 197.4896 L 59.316833 208.4896 L 66.31683 215.4896 L 73.31683 220.4896 L 79.31683 221.4896 L 86.31683 221.4896 L 93.31683 221.4896 L 99.31683 219.4896 L 106.31683 216.4896 L 113.31683 211.4896 L 120.31683 204.4896 L 127.31683 196.4896 L 134.31683 187.4896 L 138.31683 177.4896 L 141.31683 169.4896 L 142.31683 162.4896 L 141.31683 156.4896 L 139.31683 153.4896 L 136.31683 151.4896 L 132.31683 149.4896 L 128.31683 149.4896 L 123.31683 149.4896 L 113.31683 149.4896 L 101.31683 150.4896 L 87.31683 152.4896 L 76.31683 155.4896 L 66.31683 158.4896 L 59.316833 161.4896 L 54.316833 163.4896" scribmaster:penstyle="draw" style="stroke:#000000;stroke-width:5.0;stroke-linejoin:round;stroke-linecap:round;stroke-opacity:1.0;fill:none"/>
      </g>
    </g>
  </g>
</svg>
