<?xml version='1.0' encoding='ASCII' standalone='yes'?>
<svg width = "6in" height = "4in" xmlns="http://www.w3.org/2000/svg" xmlns:xlink="http://www.w3.org/1999/xlink" version="1.1">
  <g transform="translate(0.34906978865732075, 0) scale(1 1) translate(0.5817946504483253, 0) scale(1 1) translate(0.814537017743164, 0) scale(1 1) translate(1.0473038956930552, 0) scale(1 1) translate(0, 0) scale(0.1 0.1)  skewX(-1.000000) skewX(-0.777778) skewX(-0.555556) skewX(-0.333333)">
    <sodipodi:namedview xmlns:sodipodi="http://sodipodi.sourceforge.net/DTD/sodipodi-0.dtd" id="ScribMaster"/>
    <filter id="blur">
      <feGaussianBlur stdDeviation="5.0"/>
    </filter>
    <defs/>
    <g xmlns:inkscape="http://www.inkscape.org/namespaces/inkscape" xmlns:scribmaster="http://scribmaster.com/scribmaster" id="1625351852475" transform="matrix(1,0,0,1,-1.316833,-1.489594)" style="opacity:1.0">
      <g id="1625348338071" inkscape:groupmode="layer" transform="matrix(1,0,0,1,0,0)" style="opacity:1.0">
        <path transform="matrix(1,0,0,1,0,0)" d="M 127.31683 19.489594 L 126.31683 20.489594 L 124.31683 22.489594 L 122.31683 25.489594 L 119.31683 29.489594 L 114.31683 37.489594 L 107.31683 49.489594 L 98.31683 66.48959 L 87.31683 89.48959 L 78.31683 111.48959 L 72.31683 131.4896 L 68.31683 149.4896 L 66.31683 166.4896 L 65.31683 181.4896 L 66.31683 194.4896 L 70.31683 204.4896 L 75.31683 211.4896 L 81.31683 216.4896 L 88.31683 219.4896 L 94.31683 220.4896 L 100.31683 220.4896 L 105.31683 219.4896 L 111.31683 218.4896 L 116.31683 215.4896 L 121.31683 212.4896 L 127.31683 206.4896 L 133.31683 200.4896 L 138.31683 193.4896 L 143.31683 186.4896 L 147.31683 178.4896 L 149.31683 171.4896 L 151.31683 164.4896 L 150.31683 158.4896 L 147.31683 153.4896 L 143.31683 149.4896 L 139.31683 147.4896 L 135.31683 146.4896 L 129.31683 145.4896 L 122.31683 145.4896 L 114.31683 146.4896 L 107.31683 147.4896 L 101.31683 149.4896" scribmaster:penstyle="draw" style="stroke:#000000;stroke-width:5.0;stroke-linejoin:round;stroke-linecap:round;stroke-opacity:1.0;fill:none"/>
      </g>
    </g>
  </g>
</svg>
