<?xml version='1.0' encoding='ASCII' standalone='yes'?>
<svg width = "6in" height = "4in" xmlns="http://www.w3.org/2000/svg" xmlns:xlink="http://www.w3.org/1999/xlink" version="1.1">
  <g transform="translate(0.34906978865732075, 0) scale(1 1) translate(0.5817946504483253, 0) scale(1 1) translate(0.814537017743164, 0) scale(1 1) translate(1.0473038956930552, 0) scale(1 1) translate(0, 0) scale(0.1 0.1)  skewX(-1.000000) skewX(-0.777778) skewX(-0.555556) skewX(-0.333333)">
    <sodipodi:namedview xmlns:sodipodi="http://sodipodi.sourceforge.net/DTD/sodipodi-0.dtd" id="ScribMaster"/>
    <filter id="blur">
      <feGaussianBlur stdDeviation="5.0"/>
    </filter>
    <defs/>
    <g xmlns:inkscape="http://www.inkscape.org/namespaces/inkscape" xmlns:scribmaster="http://scribmaster.com/scribmaster" id="1627853202231" transform="matrix(1.041329,0,0,1.041329,-16.413086,-15.68722)" style="opacity:1.0">
      <g id="1627851273342" inkscape:groupmode="layer" transform="matrix(1,0,0,1,0,0)" style="opacity:1.0">
        <path transform="matrix(1,0,0,1,0,0)" d="M 58.015354 136.0638 L 58.015354 134.14317 L 58.975666 134.14317 L 60.89629 134.14317 L 61.8566 134.14317 L 63.77722 134.14317 L 65.697845 135.10349 L 68.57877 135.10349 L 71.45971 135.10349 L 75.30095 136.0638 L 78.181885 136.0638 L 82.98344 136.0638 L 87.784996 136.0638 L 93.54686 136.0638 L 98.34842 136.0638 L 102.18966 136.0638 L 106.99122 136.0638 L 111.79277 136.0638 L 116.59433 136.0638 L 121.39588 136.0638 L 126.19743 136.0638 L 130.03868 136.0638 L 133.87993 135.10349 L 137.72118 135.10349 L 140.60211 135.10349 L 143.48303 134.14317 L 146.36398 134.14317 L 148.28459 134.14317 L 150.20522 134.14317 L 151.16553 134.14317 L 152.12584 135.10349 L 152.12584 136.0638 L 151.16553 137.02411 L 151.16553 137.98442 L 149.2449 139.90504 L 147.3243 140.86536 L 144.44336 142.78598 L 140.60211 146.62723 L 136.76086 150.46846 L 131.9593 155.27002 L 126.19743 161.03189 L 119.47526 166.79375 L 111.79277 172.55562 L 105.070595 178.31749 L 99.30872 184.07935 L 93.54686 188.8809 L 88.74531 192.72215 L 83.94375 196.5634 L 79.1422 200.40463 L 75.30095 204.24588 L 73.38033 205.20619 L 71.45971 207.12682 L 70.4994 208.08713 L 69.539085 209.04744 L 68.57877 210.00775 L 68.57877 210.96806 L 68.57877 211.92838 L 68.57877 212.88869 L 70.4994 212.88869 L 71.45971 213.849 L 73.38033 213.849 L 76.26126 213.849 L 79.1422 214.80931 L 84.90406 214.80931 L 91.626236 214.80931 L 97.38811 215.76962 L 104.11028 215.76962 L 110.83246 216.72993 L 116.59433 217.69023 L 123.316505 218.65054 L 129.07837 219.61086 L 133.87993 220.57117 L 139.6418 221.53148 L 143.48303 222.49179" scribmaster:penstyle="draw" style="stroke:#000000;stroke-width:5.0;stroke-linejoin:round;stroke-linecap:round;stroke-opacity:1.0;fill:none"/>
      </g>
    </g>
  </g>
</svg>
