<?xml version='1.0' encoding='ASCII' standalone='yes'?>
<svg width = "6in" height = "4in" xmlns="http://www.w3.org/2000/svg" xmlns:xlink="http://www.w3.org/1999/xlink" version="1.1">
  <g transform="translate(0.5817946504483253, 0) scale(1 1) translate(0.814537017743164, 0) scale(1 1) translate(1.0473038956930552, 0) scale(1 1) translate(0, 0) scale(0.1 0.1)  skewX(-1.000000) skewX(-0.777778) skewX(-0.555556)">
    <sodipodi:namedview xmlns:sodipodi="http://sodipodi.sourceforge.net/DTD/sodipodi-0.dtd" id="ScribMaster"/>
    <filter id="blur">
      <feGaussianBlur stdDeviation="5.0"/>
    </filter>
    <defs/>
    <g xmlns:inkscape="http://www.inkscape.org/namespaces/inkscape" xmlns:scribmaster="http://scribmaster.com/scribmaster" id="1627853191908" transform="matrix(1.041329,0,0,1.041329,-16.413086,-15.68722)" style="opacity:1.0">
      <g id="1627851273342" inkscape:groupmode="layer" transform="matrix(1,0,0,1,0,0)" style="opacity:1.0">
        <path transform="matrix(1,0,0,1,0,0)" d="M 58.015354 126.46069 L 58.975666 126.46069 L 60.89629 126.46069 L 63.77722 127.421005 L 67.61846 127.421005 L 70.4994 127.421005 L 74.340645 128.38132 L 78.181885 128.38132 L 82.98344 128.38132 L 87.784996 128.38132 L 92.58655 129.34163 L 97.38811 129.34163 L 102.18966 129.34163 L 106.03091 129.34163 L 109.87215 129.34163 L 114.673706 129.34163 L 118.514946 128.38132 L 121.39588 128.38132 L 124.27682 128.38132 L 126.19743 128.38132 L 129.07837 128.38132 L 130.999 129.34163 L 131.9593 129.34163 L 132.91962 129.34163 L 132.91962 130.30194 L 132.91962 131.26225 L 131.9593 131.26225 L 130.999 132.22256 L 130.999 133.18288 L 130.03868 134.14317 L 128.11806 136.0638 L 126.19743 137.98442 L 122.35619 141.82567 L 117.554634 146.62723 L 111.79277 153.3494 L 105.070595 160.07158 L 98.34842 167.75406 L 91.626236 175.43655 L 84.90406 183.11903 L 79.1422 189.84122 L 74.340645 195.60309 L 70.4994 200.40463 L 67.61846 204.24588 L 65.697845 206.1665 L 64.73753 209.04744 L 63.77722 210.00775 L 63.77722 211.92838 L 63.77722 212.88869 L 63.77722 214.80931 L 64.73753 215.76962 L 65.697845 215.76962 L 67.61846 216.72993 L 69.539085 216.72993 L 72.42002 217.69023 L 76.26126 218.65054 L 82.023125 218.65054 L 86.824684 219.61086 L 93.54686 219.61086 L 100.269035 219.61086 L 106.99122 219.61086 L 113.713394 220.57117 L 119.47526 220.57117 L 125.23713 220.57117 L 130.03868 220.57117" scribmaster:penstyle="draw" style="stroke:#000000;stroke-width:5.0;stroke-linejoin:round;stroke-linecap:round;stroke-opacity:1.0;fill:none"/>
      </g>
    </g>
  </g>
</svg>
