<?xml version='1.0' encoding='ASCII' standalone='yes'?>
<svg width = "6in" height = "4in" xmlns="http://www.w3.org/2000/svg" xmlns:xlink="http://www.w3.org/1999/xlink" version="1.1">
  <g transform="translate(-0.1163554293259576, 0) scale(1 1) translate(0.1163554293259576, 0) scale(1 1) translate(0.34906978865732075, 0) scale(1 1) translate(0.5817946504483253, 0) scale(1 1) translate(0.814537017743164, 0) scale(1 1) translate(1.0473038956930552, 0) scale(1 1) translate(0, 0) scale(0.1 0.1)  skewX(-1.000000) skewX(-0.777778) skewX(-0.555556) skewX(-0.333333) skewX(-0.111111) skewX(0.111111)">
    <sodipodi:namedview xmlns:sodipodi="http://sodipodi.sourceforge.net/DTD/sodipodi-0.dtd" id="ScribMaster"/>
    <filter id="blur">
      <feGaussianBlur stdDeviation="5.0"/>
    </filter>
    <defs/>
    <g xmlns:inkscape="http://www.inkscape.org/namespaces/inkscape" xmlns:scribmaster="http://scribmaster.com/scribmaster" id="1625350163951" transform="matrix(1,0,0,1,-1.316833,-1.489594)" style="opacity:1.0">
      <g id="1625348338071" inkscape:groupmode="layer" transform="matrix(1,0,0,1,0,0)" style="opacity:1.0">
        <path transform="matrix(1,0,0,1,0,0)" d="M 52.316833 29.489594 L 53.316833 31.489594 L 54.316833 36.489594 L 55.316833 47.489594 L 56.316833 62.489594 L 56.316833 82.48959 L 57.316833 106.48959 L 56.316833 126.48959 L 55.316833 146.4896 L 54.316833 165.4896 L 53.316833 179.4896 L 53.316833 192.4896 L 53.316833 203.4896 L 53.316833 210.4896 L 52.316833 215.4896 L 52.316833 219.4896 L 52.316833 220.4896 L 53.316833 220.4896 L 53.316833 219.4896" scribmaster:penstyle="draw" style="stroke:#000000;stroke-width:5.0;stroke-linejoin:round;stroke-linecap:round;stroke-opacity:1.0;fill:none"/>
        <path transform="matrix(1,0,0,1,0,0)" d="M 150.31683 57.489594 L 150.31683 55.489594 L 149.31683 55.489594 L 148.31683 56.489594 L 146.31683 58.489594 L 143.31683 61.489594 L 140.31683 64.48959 L 136.31683 68.48959 L 131.31683 74.48959 L 126.31683 80.48959 L 120.31683 86.48959 L 113.31683 94.48959 L 106.31683 101.48959 L 101.31683 107.48959 L 95.31683 112.48959 L 90.31683 117.48959 L 86.31683 120.48959 L 82.31683 124.48959 L 80.31683 126.48959 L 78.31683 128.4896 L 77.31683 129.4896 L 77.31683 130.4896 L 76.31683 130.4896 L 76.31683 131.4896 L 76.31683 132.4896 L 76.31683 133.4896 L 76.31683 134.4896 L 77.31683 134.4896 L 77.31683 135.4896" scribmaster:penstyle="draw" style="stroke:#000000;stroke-width:5.0;stroke-linejoin:round;stroke-linecap:round;stroke-opacity:1.0;fill:none"/>
        <path transform="matrix(1,0,0,1,0,0)" d="M 71.31683 139.4896 L 70.31683 138.4896 L 70.31683 137.4896 L 69.31683 137.4896 L 71.31683 140.4896 L 73.31683 144.4896 L 78.31683 149.4896 L 84.31683 156.4896 L 93.31683 164.4896 L 103.31683 174.4896 L 116.31683 186.4896 L 127.31683 195.4896 L 140.31683 203.4896 L 153.31683 210.4896" scribmaster:penstyle="draw" style="stroke:#000000;stroke-width:5.0;stroke-linejoin:round;stroke-linecap:round;stroke-opacity:1.0;fill:none"/>
      </g>
    </g>
  </g>
</svg>
