<?xml version='1.0' encoding='ASCII' standalone='yes'?>
<svg width = "6in" height = "4in" xmlns="http://www.w3.org/2000/svg" xmlns:xlink="http://www.w3.org/1999/xlink" version="1.1">
  <g transform="translate(1.0473038956930552, 0) scale(1 1) translate(0, 0) scale(0.1 0.1)  skewX(-1.000000)">
    <sodipodi:namedview xmlns:sodipodi="http://sodipodi.sourceforge.net/DTD/sodipodi-0.dtd" id="ScribMaster"/>
    <filter id="blur">
      <feGaussianBlur stdDeviation="5.0"/>
    </filter>
    <defs/>
    <g xmlns:inkscape="http://www.inkscape.org/namespaces/inkscape" xmlns:scribmaster="http://scribmaster.com/scribmaster" id="1625351863601" transform="matrix(1,0,0,1,-1.316833,-1.489594)" style="opacity:1.0">
      <g id="1625348338071" inkscape:groupmode="layer" transform="matrix(1,0,0,1,0,0)" style="opacity:1.0">
        <path transform="matrix(1,0,0,1,0,0)" d="M 41.316833 27.489594 L 41.316833 28.489594 L 42.316833 29.489594 L 44.316833 30.489594 L 48.316833 31.489594 L 53.316833 32.489594 L 58.316833 33.489594 L 64.31683 33.489594 L 71.31683 33.489594 L 77.31683 33.489594 L 84.31683 32.489594 L 90.31683 31.489594 L 96.31683 31.489594 L 101.31683 30.489594 L 106.31683 30.489594 L 110.31683 30.489594 L 113.31683 30.489594 L 115.31683 30.489594 L 117.31683 31.489594 L 119.31683 32.489594 L 120.31683 34.489594 L 120.31683 36.489594 L 121.31683 39.489594 L 120.31683 44.489594 L 119.31683 51.489594 L 117.31683 62.489594 L 113.31683 78.48959 L 108.31683 100.48959 L 102.31683 119.48959 L 97.31683 139.4896 L 91.31683 156.4896 L 88.31683 171.4896 L 83.31683 183.4896 L 80.31683 193.4896 L 77.31683 202.4896 L 74.31683 209.4896 L 72.31683 212.4896 L 72.31683 214.4896 L 73.31683 215.4896" scribmaster:penstyle="draw" style="stroke:#000000;stroke-width:5.0;stroke-linejoin:round;stroke-linecap:round;stroke-opacity:1.0;fill:none"/>
      </g>
    </g>
  </g>
</svg>
