<?xml version='1.0' encoding='ASCII' standalone='yes'?>
<svg width = "6in" height = "4in" xmlns="http://www.w3.org/2000/svg" xmlns:xlink="http://www.w3.org/1999/xlink" version="1.1">
  <g transform="translate(-0.581794650448325, 0) scale(1 1) translate(-0.34906978865732063, 0) scale(1 1) translate(-0.1163554293259576, 0) scale(1 1) translate(0.1163554293259576, 0) scale(1 1) translate(0.34906978865732075, 0) scale(1 1) translate(0.5817946504483253, 0) scale(1 1) translate(0.814537017743164, 0) scale(1 1) translate(1.0473038956930552, 0) scale(1 1) translate(0, 0) scale(0.1 0.1)  skewX(-1.000000) skewX(-0.777778) skewX(-0.555556) skewX(-0.333333) skewX(-0.111111) skewX(0.111111) skewX(0.333333) skewX(0.555556)">
    <sodipodi:namedview xmlns:sodipodi="http://sodipodi.sourceforge.net/DTD/sodipodi-0.dtd" id="ScribMaster"/>
    <filter id="blur">
      <feGaussianBlur stdDeviation="5.0"/>
    </filter>
    <defs/>
    <g xmlns:inkscape="http://www.inkscape.org/namespaces/inkscape" xmlns:scribmaster="http://scribmaster.com/scribmaster" id="1625349718475" transform="matrix(1,0,0,1,-1.316833,-1.489594)" style="opacity:1.0">
      <g id="1625348338071" inkscape:groupmode="layer" transform="matrix(1,0,0,1,0,0)" style="opacity:1.0">
        <path transform="matrix(1,0,0,1,0,0)" d="M 104.31683 49.489594 L 102.31683 48.489594 L 101.31683 48.489594 L 100.31683 48.489594 L 99.31683 49.489594 L 98.31683 49.489594 L 96.31683 49.489594 L 94.31683 51.489594 L 91.31683 53.489594 L 87.31683 56.489594 L 82.31683 61.489594 L 76.31683 67.48959 L 69.31683 75.48959 L 60.316833 87.48959 L 51.316833 99.48959 L 36.316833 119.48959 L 26.316833 134.4896 L 19.316833 151.4896 L 16.316833 166.4896 L 15.3168335 179.4896 L 14.3168335 191.4896 L 16.316833 203.4896 L 19.316833 211.4896 L 27.316833 218.4896 L 37.316833 224.4896 L 45.316833 228.4896 L 59.316833 230.4896 L 74.31683 232.4896 L 90.31683 232.4896 L 106.31683 230.4896" scribmaster:penstyle="draw" style="stroke:#000000;stroke-width:5.0;stroke-linejoin:round;stroke-linecap:round;stroke-opacity:1.0;fill:none"/>
      </g>
    </g>
  </g>
</svg>
