<?xml version='1.0' encoding='ASCII' standalone='yes'?>
<svg width = "6in" height = "4in" xmlns="http://www.w3.org/2000/svg" xmlns:xlink="http://www.w3.org/1999/xlink" version="1.1">
  <g transform="translate(0.1163554293259576, 0) scale(1 1) translate(0.34906978865732075, 0) scale(1 1) translate(0.5817946504483253, 0) scale(1 1) translate(0.814537017743164, 0) scale(1 1) translate(1.0473038956930552, 0) scale(1 1) translate(0, 0) scale(0.1 0.1)  skewX(-1.000000) skewX(-0.777778) skewX(-0.555556) skewX(-0.333333) skewX(-0.111111)">
    <sodipodi:namedview xmlns:sodipodi="http://sodipodi.sourceforge.net/DTD/sodipodi-0.dtd" id="ScribMaster"/>
    <filter id="blur">
      <feGaussianBlur stdDeviation="5.0"/>
    </filter>
    <defs/>
    <g xmlns:inkscape="http://www.inkscape.org/namespaces/inkscape" xmlns:scribmaster="http://scribmaster.com/scribmaster" id="1625349735536" transform="matrix(1,0,0,1,-1.316833,-1.489594)" style="opacity:1.0">
      <g id="1625348338071" inkscape:groupmode="layer" transform="matrix(1,0,0,1,0,0)" style="opacity:1.0">
        <path transform="matrix(1,0,0,1,0,0)" d="M 115.31683 50.489594 L 115.31683 49.489594 L 115.31683 48.489594 L 114.31683 48.489594 L 113.31683 48.489594 L 111.31683 49.489594 L 110.31683 49.489594 L 108.31683 51.489594 L 106.31683 53.489594 L 103.31683 55.489594 L 99.31683 59.489594 L 95.31683 63.489594 L 90.31683 68.48959 L 85.31683 74.48959 L 77.31683 82.48959 L 70.31683 91.48959 L 63.316833 101.48959 L 58.316833 110.48959 L 52.316833 119.48959 L 48.316833 127.48959 L 44.316833 138.4896 L 41.316833 148.4896 L 40.316833 158.4896 L 40.316833 168.4896 L 41.316833 178.4896 L 43.316833 187.4896 L 45.316833 195.4896 L 48.316833 202.4896 L 54.316833 207.4896 L 61.316833 211.4896 L 70.31683 215.4896 L 78.31683 217.4896 L 88.31683 218.4896 L 99.31683 218.4896 L 111.31683 219.4896" scribmaster:penstyle="draw" style="stroke:#000000;stroke-width:5.0;stroke-linejoin:round;stroke-linecap:round;stroke-opacity:1.0;fill:none"/>
      </g>
    </g>
  </g>
</svg>
