<?xml version='1.0' encoding='ASCII' standalone='yes'?>
<svg width = "6in" height = "4in" xmlns="http://www.w3.org/2000/svg" xmlns:xlink="http://www.w3.org/1999/xlink" version="1.1">
  <g transform="translate(-0.8145370177431639, 0) scale(1 1) translate(-0.581794650448325, 0) scale(1 1) translate(-0.34906978865732063, 0) scale(1 1) translate(-0.1163554293259576, 0) scale(1 1) translate(0.1163554293259576, 0) scale(1 1) translate(0.34906978865732075, 0) scale(1 1) translate(0.5817946504483253, 0) scale(1 1) translate(0.814537017743164, 0) scale(1 1) translate(1.0473038956930552, 0) scale(1 1) translate(0, 0) scale(0.1 0.1)  skewX(-1.000000) skewX(-0.777778) skewX(-0.555556) skewX(-0.333333) skewX(-0.111111) skewX(0.111111) skewX(0.333333) skewX(0.555556) skewX(0.777778)">
    <sodipodi:namedview xmlns:sodipodi="http://sodipodi.sourceforge.net/DTD/sodipodi-0.dtd" id="ScribMaster"/>
    <filter id="blur">
      <feGaussianBlur stdDeviation="5.0"/>
    </filter>
    <defs/>
    <g xmlns:inkscape="http://www.inkscape.org/namespaces/inkscape" xmlns:scribmaster="http://scribmaster.com/scribmaster" id="1625349132757" transform="matrix(1,0,0,1,0,0)" style="opacity:1.0">
      <g id="1625348338071" inkscape:groupmode="layer" transform="matrix(1,0,0,1,0,0)" style="opacity:1.0">
        <path transform="matrix(1,0,0,1,0,0)" d="M 51.0 145.0 L 50.0 146.0 L 49.0 147.0 L 49.0 149.0 L 49.0 152.0 L 49.0 156.0 L 48.0 161.0 L 48.0 169.0 L 47.0 178.0 L 47.0 187.0 L 46.0 195.0 L 46.0 205.0 L 45.0 217.0 L 45.0 228.0 L 45.0 238.0 L 44.0 248.0 L 44.0 256.0 L 44.0 267.0 L 44.0 278.0 L 44.0 286.0 L 44.0 294.0 L 44.0 301.0 L 44.0 307.0 L 44.0 311.0 L 44.0 316.0 L 44.0 319.0 L 43.0 322.0 L 43.0 325.0 L 43.0 328.0 L 43.0 329.0 L 43.0 331.0 L 42.0 332.0 L 42.0 333.0 L 41.0 333.0 L 41.0 332.0 L 41.0 330.0 L 41.0 327.0 L 41.0 323.0 L 41.0 318.0 L 41.0 308.0 L 42.0 298.0 L 42.0 286.0 L 43.0 270.0 L 44.0 253.0 L 46.0 237.0 L 47.0 224.0 L 49.0 212.0 L 50.0 201.0 L 51.0 193.0 L 51.0 185.0 L 52.0 179.0 L 52.0 173.0 L 53.0 170.0 L 54.0 166.0 L 55.0 163.0 L 56.0 160.0 L 58.0 158.0 L 60.0 156.0 L 62.0 155.0 L 64.0 153.0 L 67.0 152.0 L 70.0 151.0 L 73.0 151.0 L 77.0 150.0 L 80.0 150.0 L 84.0 151.0 L 88.0 152.0 L 92.0 154.0 L 96.0 156.0 L 99.0 159.0 L 102.0 162.0 L 105.0 166.0 L 107.0 170.0 L 108.0 175.0 L 109.0 180.0 L 109.0 185.0 L 109.0 190.0 L 107.0 194.0 L 105.0 199.0 L 102.0 203.0 L 98.0 206.0 L 93.0 209.0 L 88.0 212.0 L 82.0 214.0 L 76.0 215.0 L 71.0 217.0 L 66.0 218.0 L 62.0 218.0" scribmaster:penstyle="draw" style="stroke:#000000;stroke-width:5.0;stroke-linejoin:round;stroke-linecap:round;stroke-opacity:1.0;fill:none"/>
      </g>
    </g>
  </g>
</svg>
