<?xml version='1.0' encoding='ASCII' standalone='yes'?>
<svg width = "6in" height = "4in" xmlns="http://www.w3.org/2000/svg" xmlns:xlink="http://www.w3.org/1999/xlink" version="1.1">
  <g transform="translate(-0.34906978865732063, 0) scale(1 1) translate(-0.1163554293259576, 0) scale(1 1) translate(0.1163554293259576, 0) scale(1 1) translate(0.34906978865732075, 0) scale(1 1) translate(0.5817946504483253, 0) scale(1 1) translate(0.814537017743164, 0) scale(1 1) translate(1.0473038956930552, 0) scale(1 1) translate(0, 0) scale(0.1 0.1)  skewX(-1.000000) skewX(-0.777778) skewX(-0.555556) skewX(-0.333333) skewX(-0.111111) skewX(0.111111) skewX(0.333333)">
    <sodipodi:namedview xmlns:sodipodi="http://sodipodi.sourceforge.net/DTD/sodipodi-0.dtd" id="ScribMaster"/>
    <filter id="blur">
      <feGaussianBlur stdDeviation="5.0"/>
    </filter>
    <defs/>
    <g xmlns:inkscape="http://www.inkscape.org/namespaces/inkscape" xmlns:scribmaster="http://scribmaster.com/scribmaster" id="1625349114598" transform="matrix(1,0,0,1,0,0)" style="opacity:1.0">
      <g id="1625348338071" inkscape:groupmode="layer" transform="matrix(1,0,0,1,0,0)" style="opacity:1.0">
        <path transform="matrix(1,0,0,1,0,0)" d="M 41.0 147.0 L 41.0 148.0 L 42.0 155.0 L 43.0 168.0 L 44.0 192.0 L 44.0 225.0 L 45.0 258.0 L 45.0 283.0 L 45.0 305.0 L 44.0 323.0 L 44.0 336.0 L 43.0 346.0 L 44.0 352.0 L 43.0 355.0 L 44.0 353.0 L 44.0 348.0 L 44.0 342.0 L 45.0 334.0 L 46.0 325.0 L 47.0 308.0 L 49.0 283.0 L 51.0 253.0 L 53.0 231.0 L 55.0 214.0 L 57.0 196.0 L 60.0 181.0 L 63.0 170.0 L 67.0 159.0 L 72.0 150.0 L 79.0 144.0 L 86.0 139.0 L 92.0 138.0 L 96.0 138.0 L 100.0 140.0 L 104.0 142.0 L 106.0 146.0 L 108.0 150.0 L 110.0 155.0 L 112.0 159.0 L 113.0 164.0 L 114.0 170.0 L 115.0 176.0 L 115.0 182.0 L 113.0 188.0 L 110.0 194.0 L 107.0 199.0 L 102.0 204.0 L 98.0 208.0 L 92.0 211.0 L 87.0 213.0 L 82.0 215.0" scribmaster:penstyle="draw" style="stroke:#000000;stroke-width:5.0;stroke-linejoin:round;stroke-linecap:round;stroke-opacity:1.0;fill:none"/>
      </g>
    </g>
  </g>
</svg>
