<?xml version='1.0' encoding='ASCII' standalone='yes'?>
<svg width = "6in" height = "4in" xmlns="http://www.w3.org/2000/svg" xmlns:xlink="http://www.w3.org/1999/xlink" version="1.1">
  <g transform="translate(-0.581794650448325, 0) scale(1 1) translate(-0.34906978865732063, 0) scale(1 1) translate(-0.1163554293259576, 0) scale(1 1) translate(0.1163554293259576, 0) scale(1 1) translate(0.34906978865732075, 0) scale(1 1) translate(0.5817946504483253, 0) scale(1 1) translate(0.814537017743164, 0) scale(1 1) translate(1.0473038956930552, 0) scale(1 1) translate(0, 0) scale(0.1 0.1)  skewX(-1.000000) skewX(-0.777778) skewX(-0.555556) skewX(-0.333333) skewX(-0.111111) skewX(0.111111) skewX(0.333333) skewX(0.555556)">
    <sodipodi:namedview xmlns:sodipodi="http://sodipodi.sourceforge.net/DTD/sodipodi-0.dtd" id="ScribMaster"/>
    <filter id="blur">
      <feGaussianBlur stdDeviation="5.0"/>
    </filter>
    <defs/>
    <g xmlns:inkscape="http://www.inkscape.org/namespaces/inkscape" xmlns:scribmaster="http://scribmaster.com/scribmaster" id="1627851940105" transform="matrix(1.032782,0,0,1.032782,-14.899414,-13.325867)" style="opacity:1.0">
      <g id="1627851273342" inkscape:groupmode="layer" transform="matrix(1,0,0,1,0,0)" style="opacity:1.0">
        <path transform="matrix(1,0,0,1,0,0)" d="M 781.2873 540.6038 L 781.2873 540.6135" scribmaster:penstyle="draw" style="stroke:#000000;stroke-width:5.0;stroke-linejoin:round;stroke-linecap:round;stroke-opacity:1.0;fill:none"/>
        <path transform="matrix(1,0,0,1,0,0)" d="M 123.8397 160.07819 L 122.871445 160.07819 L 121.90318 159.10992 L 120.93492 159.10992 L 119.96667 159.10992 L 118.998405 159.10992 L 117.06189 159.10992 L 116.093636 159.10992 L 114.15711 159.10992 L 111.25234 161.04643 L 106.41105 163.95122 L 102.53801 166.85599 L 98.66498 172.66554 L 94.79195 177.50684 L 92.85542 183.31639 L 91.88717 188.15768 L 92.85542 192.99896 L 94.79195 196.87201 L 96.72846 199.77678 L 99.63324 201.7133 L 103.50627 203.64981 L 106.41105 204.61807 L 109.31582 204.61807 L 112.2206 202.68155 L 116.093636 200.74504 L 118.03015 198.80852 L 120.93492 195.90375 L 122.871445 192.99896 L 125.776215 190.0942 L 126.74448 186.22116 L 128.681 182.34813 L 129.64926 178.4751 L 129.64926 175.57031 L 130.61751 172.66554 L 130.61751 170.72902 L 130.61751 168.79251 L 130.61751 166.85599 L 130.61751 165.88773 L 130.61751 164.91946 L 130.61751 163.95122 L 130.61751 162.98296 L 131.58577 162.98296 L 132.55403 163.95122 L 133.5223 165.88773 L 135.4588 169.76076 L 138.36359 180.4116 L 142.23662 192.99896 L 146.10965 207.52284 L 149.01442 223.01498 L 149.98268 235.60234 L 150.95094 245.28493 L 150.95094 254.96751 L 149.98268 262.7136 L 146.10965 268.52313 L 141.26836 273.36444 L 136.42706 277.2375 L 131.58577 280.14224 L 125.776215 281.1105 L 121.90318 281.1105 L 117.06189 279.174 L 114.15711 277.2375 L 112.2206 274.3327" scribmaster:penstyle="draw" style="stroke:#000000;stroke-width:5.0;stroke-linejoin:round;stroke-linecap:round;stroke-opacity:1.0;fill:none"/>
      </g>
    </g>
  </g>
</svg>
