<?xml version='1.0' encoding='ASCII' standalone='yes'?>
<svg width = "6in" height = "4in" xmlns="http://www.w3.org/2000/svg" xmlns:xlink="http://www.w3.org/1999/xlink" version="1.1">
  <g transform="translate(0.814537017743164, 0) scale(1 1) translate(1.0473038956930552, 0) scale(1 1) translate(0, 0) scale(0.1 0.1)  skewX(-1.000000) skewX(-0.777778)">
    <sodipodi:namedview xmlns:sodipodi="http://sodipodi.sourceforge.net/DTD/sodipodi-0.dtd" id="ScribMaster"/>
    <filter id="blur">
      <feGaussianBlur stdDeviation="5.0"/>
    </filter>
    <defs/>
    <g xmlns:inkscape="http://www.inkscape.org/namespaces/inkscape" xmlns:scribmaster="http://scribmaster.com/scribmaster" id="1627851965580" transform="matrix(1.032782,0,0,1.032782,-14.899414,-13.325867)" style="opacity:1.0">
      <g id="1627851273342" inkscape:groupmode="layer" transform="matrix(1,0,0,1,0,0)" style="opacity:1.0">
        <path transform="matrix(1,0,0,1,0,0)" d="M 119.96667 156.20514 L 118.03015 155.2369 L 117.06189 155.2369 L 116.093636 154.26863 L 115.125374 154.26863 L 113.18886 153.30037 L 112.2206 153.30037 L 109.31582 153.30037 L 106.41105 154.26863 L 102.53801 155.2369 L 98.66498 158.14166 L 91.88717 162.0147 L 88.01414 167.82425 L 84.1411 172.66554 L 81.23632 180.4116 L 80.26807 188.15768 L 80.26807 194.93549 L 82.20458 201.7133 L 85.10936 206.5546 L 88.98239 210.42763 L 93.823685 213.3324 L 98.66498 214.30066 L 102.53801 214.30066 L 106.41105 214.30066 L 109.31582 213.3324 L 112.2206 210.42763 L 115.125374 208.4911 L 117.06189 205.58633 L 119.96667 202.68155 L 120.93492 198.80852 L 122.871445 194.93549 L 123.8397 192.03072 L 123.8397 188.15768 L 123.8397 184.28464 L 123.8397 181.37987 L 122.871445 177.50684 L 122.871445 175.57031 L 121.90318 173.6338 L 120.93492 171.69728 L 119.96667 169.76076 L 118.998405 168.79251 L 118.998405 167.82425 L 118.03015 166.85599 L 118.03015 165.88773 L 118.03015 164.91946 L 118.998405 164.91946 L 119.96667 165.88773 L 120.93492 166.85599 L 123.8397 168.79251 L 125.776215 173.6338 L 130.61751 181.37987 L 134.49055 191.06245 L 139.33185 202.68155 L 143.20486 214.30066 L 145.14139 228.82454 L 147.07791 240.44363 L 147.07791 251.09448 L 147.07791 259.8088 L 146.10965 267.5549 L 144.17313 275.30096 L 140.3001 282.07877 L 137.39532 286.92007 L 133.5223 291.76135 L 130.61751 293.69788 L 126.74448 294.66614 L 123.8397 294.66614 L 119.96667 294.66614 L 116.093636 294.66614 L 112.2206 294.66614 L 109.31582 294.66614 L 106.41105 294.66614" scribmaster:penstyle="draw" style="stroke:#000000;stroke-width:5.0;stroke-linejoin:round;stroke-linecap:round;stroke-opacity:1.0;fill:none"/>
      </g>
    </g>
  </g>
</svg>
