<?xml version='1.0' encoding='ASCII' standalone='yes'?>
<svg width = "6in" height = "4in" xmlns="http://www.w3.org/2000/svg" xmlns:xlink="http://www.w3.org/1999/xlink" version="1.1">
  <g transform="translate(-0.581794650448325, 0) scale(1 1) translate(-0.34906978865732063, 0) scale(1 1) translate(-0.1163554293259576, 0) scale(1 1) translate(0.1163554293259576, 0) scale(1 1) translate(0.34906978865732075, 0) scale(1 1) translate(0.5817946504483253, 0) scale(1 1) translate(0.814537017743164, 0) scale(1 1) translate(1.0473038956930552, 0) scale(1 1) translate(0, 0) scale(0.1 0.1)  skewX(-1.000000) skewX(-0.777778) skewX(-0.555556) skewX(-0.333333) skewX(-0.111111) skewX(0.111111) skewX(0.333333) skewX(0.555556)">
    <sodipodi:namedview xmlns:sodipodi="http://sodipodi.sourceforge.net/DTD/sodipodi-0.dtd" id="ScribMaster"/>
    <filter id="blur">
      <feGaussianBlur stdDeviation="5.0"/>
    </filter>
    <defs/>
    <g xmlns:inkscape="http://www.inkscape.org/namespaces/inkscape" xmlns:scribmaster="http://scribmaster.com/scribmaster" id="1627851979652" transform="matrix(1.032782,0,0,1.032782,-14.899414,-13.325867)" style="opacity:1.0">
      <g id="1627851273342" inkscape:groupmode="layer" transform="matrix(1,0,0,1,0,0)" style="opacity:1.0">
        <path transform="matrix(1,0,0,1,0,0)" d="M 112.2206 157.1734 L 111.25234 155.2369 L 110.28408 154.26863 L 110.28408 153.30037 L 109.31582 152.3321 L 108.347565 151.36385 L 107.3793 151.36385 L 106.41105 149.42734 L 105.44279 149.42734 L 103.50627 148.45908 L 101.569756 147.49081 L 98.66498 147.49081 L 95.7602 148.45908 L 90.91891 151.36385 L 85.10936 155.2369 L 80.26807 162.0147 L 75.42677 168.79251 L 72.521996 174.60205 L 70.58548 181.37987 L 70.58548 187.18942 L 72.521996 192.99896 L 75.42677 196.87201 L 77.36329 199.77678 L 80.26807 201.7133 L 83.172844 203.64981 L 87.045876 203.64981 L 89.95065 203.64981 L 93.823685 202.68155 L 96.72846 200.74504 L 100.601494 198.80852 L 103.50627 195.90375 L 106.41105 192.03072 L 109.31582 189.12593 L 111.25234 184.28464 L 113.18886 179.44334 L 115.125374 175.57031 L 116.093636 170.72902 L 116.093636 165.88773 L 117.06189 162.0147 L 118.03015 158.14166 L 118.03015 157.1734 L 118.998405 156.20514 L 118.998405 155.2369 L 118.998405 156.20514 L 118.998405 158.14166 L 119.96667 162.98296 L 120.93492 172.66554 L 122.871445 185.2529 L 123.8397 197.84026 L 125.776215 212.36414 L 127.71274 228.82454 L 128.681 242.38016 L 128.681 253.031 L 127.71274 262.7136 L 126.74448 269.49142 L 125.776215 275.30096 L 122.871445 280.14224 L 118.998405 283.04703 L 115.125374 284.98355 L 111.25234 285.9518 L 107.3793 285.9518 L 103.50627 284.98355 L 99.63324 284.98355 L 96.72846 283.04703 L 93.823685 282.07877 L 92.85542 281.1105 L 91.88717 280.14224" scribmaster:penstyle="draw" style="stroke:#000000;stroke-width:5.0;stroke-linejoin:round;stroke-linecap:round;stroke-opacity:1.0;fill:none"/>
      </g>
    </g>
  </g>
</svg>
