<?xml version='1.0' encoding='ASCII' standalone='yes'?>
<svg width = "6in" height = "4in" xmlns="http://www.w3.org/2000/svg" xmlns:xlink="http://www.w3.org/1999/xlink" version="1.1">
  <g transform="translate(-0.1163554293259576, 0) scale(1 1) translate(0.1163554293259576, 0) scale(1 1) translate(0.34906978865732075, 0) scale(1 1) translate(0.5817946504483253, 0) scale(1 1) translate(0.814537017743164, 0) scale(1 1) translate(1.0473038956930552, 0) scale(1 1) translate(0, 0) scale(0.1 0.1)  skewX(-1.000000) skewX(-0.777778) skewX(-0.555556) skewX(-0.333333) skewX(-0.111111) skewX(0.111111)">
    <sodipodi:namedview xmlns:sodipodi="http://sodipodi.sourceforge.net/DTD/sodipodi-0.dtd" id="ScribMaster"/>
    <filter id="blur">
      <feGaussianBlur stdDeviation="5.0"/>
    </filter>
    <defs/>
    <g xmlns:inkscape="http://www.inkscape.org/namespaces/inkscape" xmlns:scribmaster="http://scribmaster.com/scribmaster" id="1625348725988" transform="matrix(1,0,0,1,0,0)" style="opacity:1.0">
      <g id="1625348338071" inkscape:groupmode="layer" transform="matrix(1,0,0,1,0,0)" style="opacity:1.0">
        <path transform="matrix(1,0,0,1,0,0)" d="M 67.0 138.0 L 65.0 138.0 L 63.0 138.0 L 61.0 139.0 L 58.0 141.0 L 52.0 145.0 L 42.0 151.0 L 35.0 158.0 L 28.0 165.0 L 23.0 172.0 L 19.0 180.0 L 16.0 189.0 L 14.0 197.0 L 12.0 204.0 L 11.0 210.0 L 11.0 215.0 L 12.0 218.0 L 13.0 219.0 L 15.0 220.0 L 19.0 220.0 L 23.0 219.0 L 27.0 218.0 L 31.0 215.0 L 37.0 210.0 L 43.0 204.0 L 50.0 197.0 L 57.0 188.0 L 63.0 178.0 L 67.0 169.0 L 70.0 161.0 L 73.0 155.0 L 75.0 150.0 L 75.0 147.0 L 75.0 145.0 L 75.0 144.0 L 75.0 143.0 L 76.0 145.0 L 76.0 149.0 L 77.0 156.0 L 79.0 170.0 L 81.0 192.0 L 82.0 214.0 L 82.0 242.0 L 81.0 261.0 L 78.0 278.0 L 75.0 293.0 L 71.0 304.0 L 66.0 313.0 L 58.0 321.0 L 49.0 328.0 L 42.0 331.0 L 29.0 331.0 L 18.0 328.0 L 12.0 323.0 L 10.0 319.0" scribmaster:penstyle="draw" style="stroke:#000000;stroke-width:5.0;stroke-linejoin:round;stroke-linecap:round;stroke-opacity:1.0;fill:none"/>
      </g>
    </g>
  </g>
</svg>
