<?xml version='1.0' encoding='ASCII' standalone='yes'?>
<svg width = "6in" height = "4in" xmlns="http://www.w3.org/2000/svg" xmlns:xlink="http://www.w3.org/1999/xlink" version="1.1">
  <g transform="translate(0.1163554293259576, 0) scale(1 1) translate(0.34906978865732075, 0) scale(1 1) translate(0.5817946504483253, 0) scale(1 1) translate(0.814537017743164, 0) scale(1 1) translate(1.0473038956930552, 0) scale(1 1) translate(0, 0) scale(0.1 0.1)  skewX(-1.000000) skewX(-0.777778) skewX(-0.555556) skewX(-0.333333) skewX(-0.111111)">
    <sodipodi:namedview xmlns:sodipodi="http://sodipodi.sourceforge.net/DTD/sodipodi-0.dtd" id="ScribMaster"/>
    <filter id="blur">
      <feGaussianBlur stdDeviation="5.0"/>
    </filter>
    <defs/>
    <g xmlns:inkscape="http://www.inkscape.org/namespaces/inkscape" xmlns:scribmaster="http://scribmaster.com/scribmaster" id="1625348737126" transform="matrix(1,0,0,1,0,0)" style="opacity:1.0">
      <g id="1625348338071" inkscape:groupmode="layer" transform="matrix(1,0,0,1,0,0)" style="opacity:1.0">
        <path transform="matrix(1,0,0,1,0,0)" d="M 83.0 138.0 L 81.0 136.0 L 80.0 136.0 L 78.0 136.0 L 77.0 136.0 L 75.0 136.0 L 73.0 137.0 L 70.0 138.0 L 67.0 139.0 L 64.0 140.0 L 61.0 142.0 L 58.0 145.0 L 53.0 148.0 L 45.0 154.0 L 39.0 161.0 L 34.0 169.0 L 30.0 177.0 L 26.0 185.0 L 25.0 193.0 L 23.0 199.0 L 24.0 205.0 L 25.0 209.0 L 27.0 212.0 L 29.0 214.0 L 31.0 215.0 L 33.0 216.0 L 36.0 216.0 L 38.0 216.0 L 41.0 214.0 L 44.0 213.0 L 47.0 210.0 L 50.0 207.0 L 54.0 203.0 L 56.0 199.0 L 59.0 194.0 L 62.0 190.0 L 64.0 185.0 L 65.0 182.0 L 67.0 178.0 L 69.0 174.0 L 70.0 171.0 L 70.0 168.0 L 71.0 166.0 L 71.0 163.0 L 72.0 161.0 L 72.0 159.0 L 73.0 157.0 L 73.0 156.0 L 73.0 155.0 L 74.0 154.0 L 74.0 153.0 L 74.0 152.0 L 75.0 151.0 L 76.0 151.0 L 77.0 152.0 L 78.0 153.0 L 80.0 156.0 L 82.0 163.0 L 86.0 176.0 L 91.0 194.0 L 97.0 220.0 L 101.0 246.0 L 104.0 265.0 L 105.0 283.0 L 105.0 296.0 L 103.0 307.0 L 99.0 315.0 L 94.0 323.0 L 86.0 330.0 L 76.0 335.0 L 65.0 337.0 L 55.0 338.0 L 46.0 337.0 L 35.0 336.0 L 26.0 334.0" scribmaster:penstyle="draw" style="stroke:#000000;stroke-width:5.0;stroke-linejoin:round;stroke-linecap:round;stroke-opacity:1.0;fill:none"/>
      </g>
    </g>
  </g>
</svg>
