<?xml version='1.0' encoding='ASCII' standalone='yes'?>
<svg width = "6in" height = "4in" xmlns="http://www.w3.org/2000/svg" xmlns:xlink="http://www.w3.org/1999/xlink" version="1.1">
  <g transform="translate(1.0473038956930552, 0) scale(1 1) translate(0, 0) scale(0.1 0.1)  skewX(-1.000000)">
    <sodipodi:namedview xmlns:sodipodi="http://sodipodi.sourceforge.net/DTD/sodipodi-0.dtd" id="ScribMaster"/>
    <filter id="blur">
      <feGaussianBlur stdDeviation="5.0"/>
    </filter>
    <defs/>
    <g xmlns:inkscape="http://www.inkscape.org/namespaces/inkscape" xmlns:scribmaster="http://scribmaster.com/scribmaster" id="1627853867127" transform="matrix(1.041329,0,0,1.041329,-16.413086,-15.68722)" style="opacity:1.0">
      <g id="1627851273342" inkscape:groupmode="layer" transform="matrix(1,0,0,1,0,0)" style="opacity:1.0">
        <path transform="matrix(1,0,0,1,0,0)" d="M 127.157745 103.41323 L 126.19743 101.49261 L 125.23713 100.532295 L 124.27682 99.57198 L 123.316505 99.57198 L 122.35619 98.61167 L 121.39588 97.65137 L 119.47526 96.691055 L 116.59433 95.73074 L 113.713394 94.77043 L 108.911835 94.77043 L 103.14997 94.77043 L 96.427795 95.73074 L 89.70562 98.61167 L 83.94375 100.532295 L 77.22157 104.37354 L 68.57877 112.05603 L 55.134422 123.579765 L 47.451935 135.10349 L 41.690067 147.58752 L 37.848824 161.9922 L 36.88851 174.47624 L 38.809135 186.96028 L 45.53131 198.48402 L 50.332867 207.12682 L 56.094734 214.80931 L 66.65815 219.61086 L 77.22157 221.53148 L 88.74531 223.4521 L 99.30872 223.4521 L 109.87215 220.57117 L 119.47526 217.69023 L 128.11806 213.849 L 136.76086 208.08713 L 143.48303 203.28557 L 150.20522 198.48402" scribmaster:penstyle="draw" style="stroke:#000000;stroke-width:5.0;stroke-linejoin:round;stroke-linecap:round;stroke-opacity:1.0;fill:none"/>
      </g>
    </g>
  </g>
</svg>
