<?xml version='1.0' encoding='ASCII' standalone='yes'?>
<svg width = "6in" height = "4in" xmlns="http://www.w3.org/2000/svg" xmlns:xlink="http://www.w3.org/1999/xlink" version="1.1">
  <g transform="translate(-0.8145370177431639, 0) scale(1 1) translate(-0.581794650448325, 0) scale(1 1) translate(-0.34906978865732063, 0) scale(1 1) translate(-0.1163554293259576, 0) scale(1 1) translate(0.1163554293259576, 0) scale(1 1) translate(0.34906978865732075, 0) scale(1 1) translate(0.5817946504483253, 0) scale(1 1) translate(0.814537017743164, 0) scale(1 1) translate(1.0473038956930552, 0) scale(1 1) translate(0, 0) scale(0.1 0.1)  skewX(-1.000000) skewX(-0.777778) skewX(-0.555556) skewX(-0.333333) skewX(-0.111111) skewX(0.111111) skewX(0.333333) skewX(0.555556) skewX(0.777778)">
    <sodipodi:namedview xmlns:sodipodi="http://sodipodi.sourceforge.net/DTD/sodipodi-0.dtd" id="ScribMaster"/>
    <filter id="blur">
      <feGaussianBlur stdDeviation="5.0"/>
    </filter>
    <defs/>
    <g xmlns:inkscape="http://www.inkscape.org/namespaces/inkscape" xmlns:scribmaster="http://scribmaster.com/scribmaster" id="1627853139223" transform="matrix(1.032782,0,0,1.032782,-14.899414,-13.325867)" style="opacity:1.0">
      <g id="1627851273342" inkscape:groupmode="layer" transform="matrix(1,0,0,1,0,0)" style="opacity:1.0">
        <path transform="matrix(1,0,0,1,0,0)" d="M 139.33185 125.22088 L 138.36359 125.22088 L 137.39532 125.22088 L 137.39532 126.18914 L 136.42706 126.18914 L 135.4588 127.157394 L 135.4588 128.12566 L 134.49055 129.0939 L 133.5223 131.03043 L 131.58577 132.96695 L 129.64926 136.83998 L 125.776215 142.64952 L 122.871445 149.42734 L 118.998405 157.1734 L 114.15711 166.85599 L 109.31582 177.50684 L 104.474525 187.18942 L 100.601494 196.87201 L 96.72846 204.61807 L 93.823685 211.39589 L 90.91891 216.23718 L 88.01414 221.07846 L 87.045876 224.9515 L 86.077614 225.91975 L 85.10936 227.85628 L 84.1411 228.82454 L 84.1411 229.7928 L 83.172844 230.76105 L 84.1411 230.76105" scribmaster:penstyle="draw" style="stroke:#000000;stroke-width:5.0;stroke-linejoin:round;stroke-linecap:round;stroke-opacity:1.0;fill:none"/>
        <path transform="matrix(1,0,0,1,0,0)" d="M 65.74419 128.12566 L 66.71245 128.12566 L 67.6807 129.0939 L 67.6807 130.06216 L 68.648964 131.03043 L 69.617226 131.99869 L 70.58548 133.9352 L 70.58548 135.87172 L 72.521996 136.83998 L 73.49026 138.77649 L 75.42677 141.68126 L 77.36329 144.58604 L 79.299805 147.49081 L 82.20458 150.3956 L 84.1411 152.3321 L 86.077614 155.2369 L 88.01414 157.1734 L 90.91891 160.07819 L 92.85542 162.0147 L 94.79195 163.95122 L 96.72846 165.88773 L 97.69672 166.85599 L 99.63324 167.82425 L 100.601494 168.79251 L 101.569756 170.72902 L 102.53801 171.69728 L 103.50627 172.66554 L 104.474525 173.6338 L 105.44279 174.60205 L 105.44279 175.57031 L 106.41105 176.53857 L 107.3793 176.53857 L 108.347565 177.50684 L 108.347565 178.4751 L 109.31582 178.4751 L 109.31582 179.44334 L 110.28408 179.44334" scribmaster:penstyle="draw" style="stroke:#000000;stroke-width:5.0;stroke-linejoin:round;stroke-linecap:round;stroke-opacity:1.0;fill:none"/>
      </g>
    </g>
  </g>
</svg>
