<?xml version='1.0' encoding='ASCII' standalone='yes'?>
<svg width = "6in" height = "4in" xmlns="http://www.w3.org/2000/svg" xmlns:xlink="http://www.w3.org/1999/xlink" version="1.1">
  <g transform="translate(-1.0473038956930552, 0) scale(1 1) translate(-0.8145370177431639, 0) scale(1 1) translate(-0.581794650448325, 0) scale(1 1) translate(-0.34906978865732063, 0) scale(1 1) translate(-0.1163554293259576, 0) scale(1 1) translate(0.1163554293259576, 0) scale(1 1) translate(0.34906978865732075, 0) scale(1 1) translate(0.5817946504483253, 0) scale(1 1) translate(0.814537017743164, 0) scale(1 1) translate(1.0473038956930552, 0) scale(1 1) translate(0, 0) scale(0.1 0.1)  skewX(-1.000000) skewX(-0.777778) skewX(-0.555556) skewX(-0.333333) skewX(-0.111111) skewX(0.111111) skewX(0.333333) skewX(0.555556) skewX(0.777778) skewX(1.000000)">
    <sodipodi:namedview xmlns:sodipodi="http://sodipodi.sourceforge.net/DTD/sodipodi-0.dtd" id="ScribMaster"/>
    <filter id="blur">
      <feGaussianBlur stdDeviation="5.0"/>
    </filter>
    <defs/>
    <g xmlns:inkscape="http://www.inkscape.org/namespaces/inkscape" xmlns:scribmaster="http://scribmaster.com/scribmaster" id="1627853152623" transform="matrix(1.032782,0,0,1.032782,-14.899414,-13.325867)" style="opacity:1.0">
      <g id="1627851273342" inkscape:groupmode="layer" transform="matrix(1,0,0,1,0,0)" style="opacity:1.0">
        <path transform="matrix(1,0,0,1,0,0)" d="M 118.998405 128.12566 L 117.06189 128.12566 L 116.093636 129.0939 L 116.093636 131.03043 L 116.093636 131.99869 L 116.093636 133.9352 L 115.125374 136.83998 L 114.15711 139.74475 L 112.2206 145.5543 L 110.28408 152.3321 L 107.3793 159.10992 L 105.44279 167.82425 L 102.53801 177.50684 L 99.63324 187.18942 L 96.72846 194.93549 L 94.79195 201.7133 L 92.85542 208.4911 L 91.88717 214.30066 L 90.91891 219.14195 L 89.95065 221.07846 L 88.98239 223.01498 L 88.98239 223.98325 L 88.01414 224.9515 L 88.01414 225.91975 L 88.01414 226.88802 L 88.01414 227.85628 L 88.01414 228.82454" scribmaster:penstyle="draw" style="stroke:#000000;stroke-width:5.0;stroke-linejoin:round;stroke-linecap:round;stroke-opacity:1.0;fill:none"/>
        <path transform="matrix(1,0,0,1,0,0)" d="M 70.58548 134.90346 L 69.617226 132.96695 L 70.58548 133.9352 L 71.55374 134.90346 L 73.49026 136.83998 L 75.42677 140.71301 L 77.36329 143.61778 L 78.33155 148.45908 L 81.23632 153.30037 L 83.172844 157.1734 L 86.077614 162.0147 L 88.01414 165.88773 L 90.91891 169.76076 L 92.85542 172.66554 L 94.79195 175.57031 L 95.7602 177.50684 L 96.72846 179.44334 L 98.66498 180.4116 L 98.66498 181.37987 L 99.63324 182.34813" scribmaster:penstyle="draw" style="stroke:#000000;stroke-width:5.0;stroke-linejoin:round;stroke-linecap:round;stroke-opacity:1.0;fill:none"/>
      </g>
    </g>
  </g>
</svg>
