<?xml version='1.0' encoding='ASCII' standalone='yes'?>
<svg width = "6in" height = "4in" xmlns="http://www.w3.org/2000/svg" xmlns:xlink="http://www.w3.org/1999/xlink" version="1.1">
  <g transform="translate(-0.8145370177431639, 0) scale(1 1) translate(-0.581794650448325, 0) scale(1 1) translate(-0.34906978865732063, 0) scale(1 1) translate(-0.1163554293259576, 0) scale(1 1) translate(0.1163554293259576, 0) scale(1 1) translate(0.34906978865732075, 0) scale(1 1) translate(0.5817946504483253, 0) scale(1 1) translate(0.814537017743164, 0) scale(1 1) translate(1.0473038956930552, 0) scale(1 1) translate(0, 0) scale(0.1 0.1)  skewX(-1.000000) skewX(-0.777778) skewX(-0.555556) skewX(-0.333333) skewX(-0.111111) skewX(0.111111) skewX(0.333333) skewX(0.555556) skewX(0.777778)">
    <sodipodi:namedview xmlns:sodipodi="http://sodipodi.sourceforge.net/DTD/sodipodi-0.dtd" id="ScribMaster"/>
    <filter id="blur">
      <feGaussianBlur stdDeviation="5.0"/>
    </filter>
    <defs/>
    <g xmlns:inkscape="http://www.inkscape.org/namespaces/inkscape" xmlns:scribmaster="http://scribmaster.com/scribmaster" id="1627853111960" transform="matrix(1.032782,0,0,1.032782,-14.899414,-13.325867)" style="opacity:1.0">
      <g id="1627851273342" inkscape:groupmode="layer" transform="matrix(1,0,0,1,0,0)" style="opacity:1.0">
        <path transform="matrix(1,0,0,1,0,0)" d="M 147.07791 136.83998 L 146.10965 134.90346 L 145.14139 134.90346 L 144.17313 135.87172 L 144.17313 136.83998 L 143.20486 137.80824 L 141.26836 139.74475 L 140.3001 141.68126 L 137.39532 146.52255 L 134.49055 153.30037 L 129.64926 162.98296 L 124.80796 174.60205 L 118.998405 187.18942 L 115.125374 197.84026 L 111.25234 207.52284 L 109.31582 215.26892 L 107.3793 221.07846 L 105.44279 225.91975 L 105.44279 228.82454 L 105.44279 229.7928 L 105.44279 230.76105 L 105.44279 229.7928 L 106.41105 229.7928" scribmaster:penstyle="draw" style="stroke:#000000;stroke-width:5.0;stroke-linejoin:round;stroke-linecap:round;stroke-opacity:1.0;fill:none"/>
        <path transform="matrix(1,0,0,1,0,0)" d="M 82.20458 136.83998 L 83.172844 137.80824 L 85.10936 139.74475 L 88.01414 144.58604 L 90.91891 149.42734 L 94.79195 154.26863 L 98.66498 160.07819 L 102.53801 164.91946 L 106.41105 169.76076 L 110.28408 173.6338 L 113.18886 177.50684 L 116.093636 181.37987 L 119.96667 184.28464 L 122.871445 187.18942" scribmaster:penstyle="draw" style="stroke:#000000;stroke-width:5.0;stroke-linejoin:round;stroke-linecap:round;stroke-opacity:1.0;fill:none"/>
      </g>
    </g>
  </g>
</svg>
