<?xml version='1.0' encoding='ASCII' standalone='yes'?>
<svg width = "6in" height = "4in" xmlns="http://www.w3.org/2000/svg" xmlns:xlink="http://www.w3.org/1999/xlink" version="1.1">
  <g transform="translate(0.814537017743164, 0) scale(1 1) translate(1.0473038956930552, 0) scale(1 1) translate(0, 0) scale(0.1 0.1)  skewX(-1.000000) skewX(-0.777778)">
    <sodipodi:namedview xmlns:sodipodi="http://sodipodi.sourceforge.net/DTD/sodipodi-0.dtd" id="ScribMaster"/>
    <filter id="blur">
      <feGaussianBlur stdDeviation="5.0"/>
    </filter>
    <defs/>
    <g xmlns:inkscape="http://www.inkscape.org/namespaces/inkscape" xmlns:scribmaster="http://scribmaster.com/scribmaster" id="1627854703558" transform="matrix(1.041329,0,0,1.041329,-16.413086,-15.68722)" style="opacity:1.0">
      <g id="1627851273342" inkscape:groupmode="layer" transform="matrix(1,0,0,1,0,0)" style="opacity:1.0">
        <path transform="matrix(1,0,0,1,0,0)" d="M 65.697845 94.77043 L 65.697845 96.691055 L 66.65815 98.61167 L 66.65815 103.41323 L 67.61846 110.13541 L 68.57877 122.61945 L 69.539085 143.74629 L 70.4994 165.83344 L 71.45971 183.11903 L 73.38033 198.48402 L 75.30095 210.96806 L 76.26126 219.61086 L 78.181885 226.33304 L 80.10251 232.09491 L 81.06282 234.97583 L 82.023125 237.85677 L 82.98344 239.77739 L 82.98344 240.7377 L 83.94375 240.7377 L 83.94375 239.77739 L 84.90406 238.81708" scribmaster:penstyle="draw" style="stroke:#000000;stroke-width:5.0;stroke-linejoin:round;stroke-linecap:round;stroke-opacity:1.0;fill:none"/>
        <path transform="matrix(1,0,0,1,0,0)" d="M 61.8566 102.45292 L 60.89629 99.57198 L 61.8566 98.61167 L 62.81691 97.65137 L 64.73753 96.691055 L 66.65815 94.77043 L 69.539085 93.81012 L 73.38033 92.84981 L 76.26126 91.889496 L 80.10251 91.889496 L 82.98344 90.929184 L 86.824684 90.929184 L 89.70562 90.929184 L 93.54686 91.889496 L 97.38811 93.81012 L 100.269035 94.77043 L 103.14997 96.691055 L 106.03091 98.61167 L 108.911835 101.49261 L 111.79277 104.37354 L 113.713394 109.175095 L 115.63402 113.976654 L 116.59433 117.817894 L 117.554634 122.61945 L 118.514946 126.46069 L 117.554634 131.26225 L 117.554634 135.10349 L 116.59433 137.98442 L 115.63402 140.86536 L 113.713394 142.78598 L 111.79277 144.7066 L 109.87215 146.62723 L 106.99122 147.58752 L 104.11028 149.50815 L 102.18966 150.46846 L 99.30872 152.38908 L 96.427795 153.3494 L 93.54686 154.30971 L 91.626236 155.27002 L 88.74531 156.23033 L 86.824684 157.19064 L 84.90406 158.15096 L 82.98344 158.15096 L 82.023125 159.11127 L 81.06282 159.11127 L 80.10251 159.11127 L 79.1422 160.07158 L 78.181885 160.07158 L 77.22157 161.03189 L 78.181885 161.9922 L 79.1422 162.95251 L 81.06282 162.95251 L 82.98344 164.87312 L 85.86437 166.79375 L 89.70562 168.71437 L 95.46748 172.55562 L 101.22935 177.35718 L 108.911835 184.07935 L 117.554634 192.72215 L 126.19743 200.40463 L 133.87993 207.12682 L 140.60211 213.849 L 146.36398 218.65054 L 151.16553 223.4521 L 155.96709 226.33304 L 159.80833 229.21397 L 161.72896 230.17429 L 163.64958 230.17429" scribmaster:penstyle="draw" style="stroke:#000000;stroke-width:5.0;stroke-linejoin:round;stroke-linecap:round;stroke-opacity:1.0;fill:none"/>
      </g>
    </g>
  </g>
</svg>
