<?xml version='1.0' encoding='ASCII' standalone='yes'?>
<svg width = "6in" height = "4in" xmlns="http://www.w3.org/2000/svg" xmlns:xlink="http://www.w3.org/1999/xlink" version="1.1">
  <g transform="translate(-0.581794650448325, 0) scale(1 1) translate(-0.34906978865732063, 0) scale(1 1) translate(-0.1163554293259576, 0) scale(1 1) translate(0.1163554293259576, 0) scale(1 1) translate(0.34906978865732075, 0) scale(1 1) translate(0.5817946504483253, 0) scale(1 1) translate(0.814537017743164, 0) scale(1 1) translate(1.0473038956930552, 0) scale(1 1) translate(0, 0) scale(0.1 0.1)  skewX(-1.000000) skewX(-0.777778) skewX(-0.555556) skewX(-0.333333) skewX(-0.111111) skewX(0.111111) skewX(0.333333) skewX(0.555556)">
    <sodipodi:namedview xmlns:sodipodi="http://sodipodi.sourceforge.net/DTD/sodipodi-0.dtd" id="ScribMaster"/>
    <filter id="blur">
      <feGaussianBlur stdDeviation="5.0"/>
    </filter>
    <defs/>
    <g xmlns:inkscape="http://www.inkscape.org/namespaces/inkscape" xmlns:scribmaster="http://scribmaster.com/scribmaster" id="1627854730036" transform="matrix(1.041329,0,0,1.041329,-16.413086,-15.68722)" style="opacity:1.0">
      <g id="1627851273342" inkscape:groupmode="layer" transform="matrix(1,0,0,1,0,0)" style="opacity:1.0">
        <path transform="matrix(1,0,0,1,0,0)" d="M 61.8566 90.929184 L 59.935978 92.84981 L 59.935978 94.77043 L 59.935978 99.57198 L 60.89629 106.29417 L 60.89629 117.817894 L 60.89629 131.26225 L 60.89629 148.54784 L 60.89629 164.87312 L 61.8566 178.31749 L 61.8566 189.84122 L 62.81691 200.40463 L 63.77722 207.12682 L 63.77722 213.849 L 64.73753 219.61086 L 64.73753 225.37273 L 64.73753 229.21397 L 64.73753 231.1346 L 64.73753 233.05522 L 64.73753 234.01553 L 63.77722 233.05522 L 63.77722 232.09491" scribmaster:penstyle="draw" style="stroke:#000000;stroke-width:5.0;stroke-linejoin:round;stroke-linecap:round;stroke-opacity:1.0;fill:none"/>
        <path transform="matrix(1,0,0,1,0,0)" d="M 63.77722 91.889496 L 62.81691 89.96887 L 63.77722 89.96887 L 64.73753 89.00857 L 66.65815 88.048256 L 68.57877 87.087944 L 71.45971 86.12763 L 75.30095 86.12763 L 78.181885 86.12763 L 82.023125 86.12763 L 84.90406 87.087944 L 88.74531 89.00857 L 92.58655 90.929184 L 96.427795 94.77043 L 99.30872 97.65137 L 102.18966 101.49261 L 105.070595 106.29417 L 106.99122 111.09572 L 108.911835 114.936966 L 109.87215 119.73852 L 109.87215 123.579765 L 108.911835 128.38132 L 106.99122 132.22256 L 106.03091 136.0638 L 103.14997 139.90504 L 100.269035 142.78598 L 97.38811 145.66692 L 95.46748 147.58752 L 92.58655 149.50815 L 88.74531 151.42877 L 85.86437 152.38908 L 82.98344 154.30971 L 79.1422 155.27002 L 77.22157 157.19064 L 75.30095 158.15096 L 73.38033 159.11127 L 71.45971 160.07158 L 70.4994 161.03189 L 70.4994 161.9922 L 70.4994 162.95251 L 70.4994 163.91283 L 71.45971 165.83344 L 73.38033 168.71437 L 76.26126 171.5953 L 81.06282 177.35718 L 87.784996 185.03966 L 96.427795 194.64278 L 106.03091 203.28557 L 116.59433 211.92838 L 126.19743 218.65054 L 134.84024 224.41241 L 141.56242 228.25366 L 148.28459 230.17429 L 152.12584 233.05522" scribmaster:penstyle="draw" style="stroke:#000000;stroke-width:5.0;stroke-linejoin:round;stroke-linecap:round;stroke-opacity:1.0;fill:none"/>
      </g>
    </g>
  </g>
</svg>
