<?xml version='1.0' encoding='UTF-8' standalone='no' ?><svg xmlns="http://www.w3.org/2000/svg" xmlns:scribmaster="http://scribmaster.com/scribmaster" xmlns:sodipodi="http://sodipodi.sourceforge.net/DTD/sodipodi-0.dtd" xmlns:inkscape="http://www.inkscape.org/namespaces/inkscape" xmlns:xlink="http://www.w3.org/1999/xlink" version="1.2" width="800" height="1014"><sodipodi:namedview id="ScribMaster" /><filter id="blur"><feGaussianBlur stdDeviation="5.0" /></filter><defs /><g id="1625351786153" transform="matrix(1,0,0,1,-1.316833,-1.489594)" style="opacity:1.0"><g id="1625348338071" inkscape:groupmode="layer" transform="matrix(1,0,0,1,0,0)" style="opacity:1.0"><path transform="matrix(1,0,0,1,0,0)" d="M 63.316833 46.489594 L 61.316833 47.489594 L 59.316833 49.489594 L 58.316833 53.489594 L 56.316833 59.489594 L 53.316833 68.48959 L 50.316833 78.48959 L 47.316833 90.48959 L 45.316833 101.48959 L 44.316833 111.48959 L 42.316833 119.48959 L 42.316833 127.48959 L 41.316833 132.4896 L 42.316833 136.4896 L 42.316833 139.4896 L 43.316833 140.4896 L 45.316833 140.4896 L 47.316833 141.4896 L 51.316833 141.4896 L 57.316833 141.4896 L 64.31683 141.4896 L 72.31683 141.4896 L 81.31683 141.4896 L 90.31683 140.4896 L 98.31683 139.4896 L 105.31683 137.4896 L 112.31683 135.4896 L 118.31683 134.4896 L 124.31683 132.4896 L 129.31683 131.4896" scribmaster:penstyle="draw" style="stroke:#000000;stroke-width:5.0;stroke-linejoin:round;stroke-linecap:round;stroke-opacity:1.0;fill:none" /><path transform="matrix(1,0,0,1,0,0)" d="M 132.31683 53.489594 L 132.31683 54.489594 L 132.31683 55.489594 L 131.31683 57.489594 L 131.31683 60.489594 L 130.31683 67.48959 L 128.31683 80.48959 L 125.31683 98.48959 L 122.31683 117.48959 L 119.31683 137.4896 L 116.31683 158.4896 L 113.31683 174.4896 L 111.31683 189.4896 L 108.31683 200.4896 L 105.31683 209.4896 L 104.31683 215.4896 L 103.31683 220.4896 L 103.31683 221.4896 L 103.31683 220.4896" scribmaster:penstyle="draw" style="stroke:#000000;stroke-width:5.0;stroke-linejoin:round;stroke-linecap:round;stroke-opacity:1.0;fill:none" /></g></g></svg>