<?xml version='1.0' encoding='ASCII' standalone='yes'?>
<svg width = "6in" height = "4in" xmlns="http://www.w3.org/2000/svg" xmlns:xlink="http://www.w3.org/1999/xlink" version="1.1">
  <g transform="translate(0.1163554293259576, 0) scale(1 1) translate(0.34906978865732075, 0) scale(1 1) translate(0.5817946504483253, 0) scale(1 1) translate(0.814537017743164, 0) scale(1 1) translate(1.0473038956930552, 0) scale(1 1) translate(0, 0) scale(0.1 0.1)  skewX(-1.000000) skewX(-0.777778) skewX(-0.555556) skewX(-0.333333) skewX(-0.111111)">
    <sodipodi:namedview xmlns:sodipodi="http://sodipodi.sourceforge.net/DTD/sodipodi-0.dtd" id="ScribMaster"/>
    <filter id="blur">
      <feGaussianBlur stdDeviation="5.0"/>
    </filter>
    <defs/>
    <g xmlns:inkscape="http://www.inkscape.org/namespaces/inkscape" xmlns:scribmaster="http://scribmaster.com/scribmaster" id="1625350259438" transform="matrix(1,0,0,1,-1.316833,-1.489594)" style="opacity:1.0">
      <g id="1625348338071" inkscape:groupmode="layer" transform="matrix(1,0,0,1,0,0)" style="opacity:1.0">
        <path transform="matrix(1,0,0,1,0,0)" d="M 51.316833 29.489594 L 51.316833 31.489594 L 51.316833 32.489594 L 52.316833 34.489594 L 53.316833 37.489594 L 55.316833 40.489594 L 56.316833 46.489594 L 57.316833 53.489594 L 58.316833 60.489594 L 59.316833 69.48959 L 60.316833 82.48959 L 60.316833 94.48959 L 59.316833 107.48959 L 59.316833 119.48959 L 59.316833 129.4896 L 59.316833 142.4896 L 58.316833 153.4896 L 58.316833 164.4896 L 57.316833 173.4896 L 56.316833 181.4896 L 56.316833 190.4896 L 56.316833 197.4896 L 56.316833 202.4896 L 56.316833 207.4896 L 56.316833 210.4896 L 56.316833 213.4896 L 56.316833 214.4896 L 57.316833 215.4896 L 57.316833 216.4896 L 57.316833 217.4896 L 58.316833 218.4896 L 58.316833 219.4896 L 59.316833 220.4896 L 59.316833 221.4896 L 59.316833 222.4896 L 60.316833 222.4896 L 60.316833 223.4896 L 60.316833 224.4896 L 60.316833 225.4896 L 61.316833 225.4896 L 61.316833 226.4896 L 62.316833 226.4896 L 63.316833 226.4896 L 64.31683 226.4896 L 66.31683 226.4896 L 68.31683 226.4896 L 71.31683 226.4896 L 76.31683 226.4896 L 82.31683 225.4896 L 89.31683 224.4896 L 95.31683 224.4896 L 102.31683 223.4896 L 108.31683 221.4896 L 114.31683 220.4896 L 120.31683 219.4896 L 125.31683 219.4896" scribmaster:penstyle="draw" style="stroke:#000000;stroke-width:5.0;stroke-linejoin:round;stroke-linecap:round;stroke-opacity:1.0;fill:none"/>
      </g>
    </g>
  </g>
</svg>
