<?xml version='1.0' encoding='ASCII' standalone='yes'?>
<svg width = "6in" height = "4in" xmlns="http://www.w3.org/2000/svg" xmlns:xlink="http://www.w3.org/1999/xlink" version="1.1">
  <g transform="translate(-0.1163554293259576, 0) scale(1 1) translate(0.1163554293259576, 0) scale(1 1) translate(0.34906978865732075, 0) scale(1 1) translate(0.5817946504483253, 0) scale(1 1) translate(0.814537017743164, 0) scale(1 1) translate(1.0473038956930552, 0) scale(1 1) translate(0, 0) scale(0.1 0.1)  skewX(-1.000000) skewX(-0.777778) skewX(-0.555556) skewX(-0.333333) skewX(-0.111111) skewX(0.111111)">
    <sodipodi:namedview xmlns:sodipodi="http://sodipodi.sourceforge.net/DTD/sodipodi-0.dtd" id="ScribMaster"/>
    <filter id="blur">
      <feGaussianBlur stdDeviation="5.0"/>
    </filter>
    <defs/>
    <g xmlns:inkscape="http://www.inkscape.org/namespaces/inkscape" xmlns:scribmaster="http://scribmaster.com/scribmaster" id="1625349496958" transform="matrix(1.005007,0,0,1.005007,-1.316833,-1.489594)" style="opacity:1.0">
      <g id="1625348338071" inkscape:groupmode="layer" transform="matrix(1,0,0,1,0,0)" style="opacity:1.0">
        <path transform="matrix(1,0,0,1,0,0)" d="M 34.145863 135.8096 L 33.15085 134.81458 L 32.15583 134.81458 L 31.16081 133.81956 L 32.15583 133.81956 L 34.145863 133.81956 L 35.14088 133.81956 L 37.130917 133.81956 L 41.11099 133.81956 L 44.096043 133.81956 L 48.076115 134.81458 L 52.056187 134.81458 L 56.03626 134.81458 L 61.01135 135.8096 L 64.991425 135.8096 L 68.97149 136.80461 L 71.95654 137.79964 L 74.9416 137.79964 L 76.93163 138.79465 L 78.92167 139.78967 L 80.911705 140.78468 L 81.90672 142.77472 L 81.90672 145.75978 L 81.90672 148.74483 L 80.911705 152.7249 L 78.92167 157.7 L 75.936615 164.66512 L 71.95654 174.6153 L 66.98145 183.57047 L 63.001385 191.53061 L 59.021313 199.49075 L 55.04124 205.46086 L 52.056187 211.43097 L 49.071133 216.40605 L 47.081097 220.38612 L 45.09106 223.37119 L 45.09106 225.36122 L 44.096043 227.35126 L 44.096043 228.34627 L 45.09106 229.3413 L 45.09106 230.3363 L 47.081097 231.33133 L 51.06117 232.32634 L 55.04124 232.32634 L 62.006367 232.32634 L 68.97149 232.32634 L 78.92167 231.33133 L 87.87683 231.33133 L 97.82701 230.3363 L 106.78217 229.3413 L 114.74232 229.3413 L 121.70744 228.34627 L 127.67755 228.34627" scribmaster:penstyle="draw" style="stroke:#000000;stroke-width:5.0;stroke-linejoin:round;stroke-linecap:round;stroke-opacity:1.0;fill:none"/>
      </g>
    </g>
  </g>
</svg>
