<?xml version='1.0' encoding='ASCII' standalone='yes'?>
<svg width = "6in" height = "4in" xmlns="http://www.w3.org/2000/svg" xmlns:xlink="http://www.w3.org/1999/xlink" version="1.1">
  <g transform="translate(-0.1163554293259576, 0) scale(1 1) translate(0.1163554293259576, 0) scale(1 1) translate(0.34906978865732075, 0) scale(1 1) translate(0.5817946504483253, 0) scale(1 1) translate(0.814537017743164, 0) scale(1 1) translate(1.0473038956930552, 0) scale(1 1) translate(0, 0) scale(0.1 0.1)  skewX(-1.000000) skewX(-0.777778) skewX(-0.555556) skewX(-0.333333) skewX(-0.111111) skewX(0.111111)">
    <sodipodi:namedview xmlns:sodipodi="http://sodipodi.sourceforge.net/DTD/sodipodi-0.dtd" id="ScribMaster"/>
    <filter id="blur">
      <feGaussianBlur stdDeviation="5.0"/>
    </filter>
    <defs/>
    <g xmlns:inkscape="http://www.inkscape.org/namespaces/inkscape" xmlns:scribmaster="http://scribmaster.com/scribmaster" id="1625349524512" transform="matrix(1.005007,0,0,1.005007,-1.316833,-1.489594)" style="opacity:1.0">
      <g id="1625348338071" inkscape:groupmode="layer" transform="matrix(1,0,0,1,0,0)" style="opacity:1.0">
        <path transform="matrix(1,0,0,1,0,0)" d="M 49.071133 137.79964 L 50.06615 137.79964 L 52.056187 137.79964 L 55.04124 137.79964 L 58.026295 137.79964 L 62.006367 138.79465 L 66.98145 138.79465 L 73.94658 138.79465 L 80.911705 138.79465 L 86.88181 138.79465 L 92.85192 138.79465 L 97.82701 138.79465 L 101.80708 138.79465 L 104.79214 138.79465 L 105.787155 139.78967 L 106.78217 140.78468 L 106.78217 141.77971 L 106.78217 143.76974 L 105.787155 146.75479 L 101.80708 151.72989 L 97.82701 156.70497 L 90.861885 164.66512 L 82.90174 173.62029 L 72.95156 183.57047 L 65.986435 191.53061 L 59.021313 198.49573 L 53.051205 204.46584 L 49.071133 209.44093 L 47.081097 213.421 L 46.08608 215.41104 L 46.08608 217.40108 L 47.081097 218.39609 L 48.076115 219.39111 L 51.06117 220.38612 L 54.046223 221.38115 L 59.021313 222.37616 L 67.97647 223.37119 L 80.911705 224.3662 L 91.8569 224.3662 L 105.787155 224.3662 L 116.73235 224.3662 L 126.68253 224.3662" scribmaster:penstyle="draw" style="stroke:#000000;stroke-width:5.0;stroke-linejoin:round;stroke-linecap:round;stroke-opacity:1.0;fill:none"/>
      </g>
    </g>
  </g>
</svg>
