<?xml version='1.0' encoding='ASCII' standalone='yes'?>
<svg width = "6in" height = "4in" xmlns="http://www.w3.org/2000/svg" xmlns:xlink="http://www.w3.org/1999/xlink" version="1.1">
  <g transform="translate(-0.581794650448325, 0) scale(1 1) translate(-0.34906978865732063, 0) scale(1 1) translate(-0.1163554293259576, 0) scale(1 1) translate(0.1163554293259576, 0) scale(1 1) translate(0.34906978865732075, 0) scale(1 1) translate(0.5817946504483253, 0) scale(1 1) translate(0.814537017743164, 0) scale(1 1) translate(1.0473038956930552, 0) scale(1 1) translate(0, 0) scale(0.1 0.1)  skewX(-1.000000) skewX(-0.777778) skewX(-0.555556) skewX(-0.333333) skewX(-0.111111) skewX(0.111111) skewX(0.333333) skewX(0.555556)">
    <sodipodi:namedview xmlns:sodipodi="http://sodipodi.sourceforge.net/DTD/sodipodi-0.dtd" id="ScribMaster"/>
    <filter id="blur">
      <feGaussianBlur stdDeviation="5.0"/>
    </filter>
    <defs/>
    <g xmlns:inkscape="http://www.inkscape.org/namespaces/inkscape" xmlns:scribmaster="http://scribmaster.com/scribmaster" id="1627855234454" transform="matrix(1.041329,0,0,1.041329,-16.413086,-15.68722)" style="opacity:1.0">
      <g id="1627851273342" inkscape:groupmode="layer" transform="matrix(1,0,0,1,0,0)" style="opacity:1.0">
        <path transform="matrix(1,0,0,1,0,0)" d="M 103.14997 90.929184 L 101.22935 92.84981 L 101.22935 95.73074 L 101.22935 103.41323 L 100.269035 115.89728 L 99.30872 135.10349 L 98.34842 157.19064 L 97.38811 176.39687 L 96.427795 190.80153 L 95.46748 203.28557 L 95.46748 210.96806 L 93.54686 217.69023 L 92.58655 222.49179 L 92.58655 225.37273 L 92.58655 226.33304 L 92.58655 227.29335 L 92.58655 228.25366 L 93.54686 228.25366 L 93.54686 227.29335 L 94.50717 227.29335" scribmaster:penstyle="draw" style="stroke:#000000;stroke-width:5.0;stroke-linejoin:round;stroke-linecap:round;stroke-opacity:1.0;fill:none"/>
        <path transform="matrix(1,0,0,1,0,0)" d="M 109.87215 94.77043 L 106.99122 93.81012 L 106.03091 94.77043 L 104.11028 96.691055 L 102.18966 98.61167 L 98.34842 102.45292 L 93.54686 108.21478 L 88.74531 112.05603 L 83.94375 116.85758 L 80.10251 120.69883 L 77.22157 124.54008 L 74.340645 127.421005 L 73.38033 130.30194 L 71.45971 131.26225 L 71.45971 133.18288" scribmaster:penstyle="draw" style="stroke:#000000;stroke-width:5.0;stroke-linejoin:round;stroke-linecap:round;stroke-opacity:1.0;fill:none"/>
        <path transform="matrix(1,0,0,1,0,0)" d="M 67.61846 235.93614 L 67.61846 234.97583 L 68.57877 234.97583 L 69.539085 234.01553 L 71.45971 233.05522 L 72.42002 232.09491 L 76.26126 231.1346 L 82.023125 230.17429 L 87.784996 228.25366 L 94.50717 226.33304 L 101.22935 225.37273 L 106.99122 224.41241 L 113.713394 223.4521 L 120.43557 223.4521 L 126.19743 222.49179 L 130.999 222.49179 L 135.80055 223.4521 L 139.6418 223.4521" scribmaster:penstyle="draw" style="stroke:#000000;stroke-width:5.0;stroke-linejoin:round;stroke-linecap:round;stroke-opacity:1.0;fill:none"/>
      </g>
    </g>
  </g>
</svg>
