<?xml version='1.0' encoding='ASCII' standalone='yes'?>
<svg width = "6in" height = "4in" xmlns="http://www.w3.org/2000/svg" xmlns:xlink="http://www.w3.org/1999/xlink" version="1.1">
  <g transform="translate(0.814537017743164, 0) scale(1 1) translate(1.0473038956930552, 0) scale(1 1) translate(0, 0) scale(0.1 0.1)  skewX(-1.000000) skewX(-0.777778)">
    <sodipodi:namedview xmlns:sodipodi="http://sodipodi.sourceforge.net/DTD/sodipodi-0.dtd" id="ScribMaster"/>
    <filter id="blur">
      <feGaussianBlur stdDeviation="5.0"/>
    </filter>
    <defs/>
    <g xmlns:inkscape="http://www.inkscape.org/namespaces/inkscape" xmlns:scribmaster="http://scribmaster.com/scribmaster" id="1627855264173" transform="matrix(1.041329,0,0,1.041329,-16.413086,-15.68722)" style="opacity:1.0">
      <g id="1627851273342" inkscape:groupmode="layer" transform="matrix(1,0,0,1,0,0)" style="opacity:1.0">
        <path transform="matrix(1,0,0,1,0,0)" d="M 99.30872 94.77043 L 98.34842 93.81012 L 97.38811 93.81012 L 96.427795 95.73074 L 95.46748 99.57198 L 95.46748 104.37354 L 95.46748 113.01634 L 94.50717 125.50038 L 94.50717 139.90504 L 93.54686 154.30971 L 92.58655 170.635 L 92.58655 183.11903 L 92.58655 194.64278 L 94.50717 203.28557 L 95.46748 209.04744 L 95.46748 213.849 L 96.427795 215.76962 L 96.427795 217.69023 L 97.38811 218.65054 L 97.38811 219.61086 L 97.38811 220.57117 L 97.38811 219.61086 L 98.34842 218.65054 L 98.34842 217.69023" scribmaster:penstyle="draw" style="stroke:#000000;stroke-width:5.0;stroke-linejoin:round;stroke-linecap:round;stroke-opacity:1.0;fill:none"/>
        <path transform="matrix(1,0,0,1,0,0)" d="M 106.03091 90.929184 L 103.14997 90.929184 L 102.18966 91.889496 L 101.22935 92.84981 L 99.30872 95.73074 L 96.427795 98.61167 L 92.58655 104.37354 L 87.784996 109.175095 L 82.98344 114.936966 L 78.181885 119.73852 L 74.340645 124.54008 L 69.539085 128.38132 L 65.697845 132.22256 L 62.81691 135.10349 L 60.89629 137.98442 L 58.975666 138.94473 L 58.015354 140.86536" scribmaster:penstyle="draw" style="stroke:#000000;stroke-width:5.0;stroke-linejoin:round;stroke-linecap:round;stroke-opacity:1.0;fill:none"/>
        <path transform="matrix(1,0,0,1,0,0)" d="M 67.61846 222.49179 L 67.61846 221.53148 L 69.539085 221.53148 L 73.38033 220.57117 L 78.181885 220.57117 L 82.98344 219.61086 L 89.70562 219.61086 L 95.46748 218.65054 L 100.269035 218.65054 L 106.03091 217.69023 L 111.79277 217.69023 L 116.59433 217.69023 L 122.35619 217.69023 L 127.157745 217.69023 L 131.9593 216.72993 L 136.76086 216.72993 L 139.6418 215.76962 L 141.56242 215.76962 L 143.48303 215.76962" scribmaster:penstyle="draw" style="stroke:#000000;stroke-width:5.0;stroke-linejoin:round;stroke-linecap:round;stroke-opacity:1.0;fill:none"/>
      </g>
    </g>
  </g>
</svg>
