<?xml version='1.0' encoding='ASCII' standalone='yes'?>
<svg width = "6in" height = "4in" xmlns="http://www.w3.org/2000/svg" xmlns:xlink="http://www.w3.org/1999/xlink" version="1.1">
  <g transform="translate(-1.0473038956930552, 0) scale(1 1) translate(-0.8145370177431639, 0) scale(1 1) translate(-0.581794650448325, 0) scale(1 1) translate(-0.34906978865732063, 0) scale(1 1) translate(-0.1163554293259576, 0) scale(1 1) translate(0.1163554293259576, 0) scale(1 1) translate(0.34906978865732075, 0) scale(1 1) translate(0.5817946504483253, 0) scale(1 1) translate(0.814537017743164, 0) scale(1 1) translate(1.0473038956930552, 0) scale(1 1) translate(0, 0) scale(0.1 0.1)  skewX(-1.000000) skewX(-0.777778) skewX(-0.555556) skewX(-0.333333) skewX(-0.111111) skewX(0.111111) skewX(0.333333) skewX(0.555556) skewX(0.777778) skewX(1.000000)">
    <sodipodi:namedview xmlns:sodipodi="http://sodipodi.sourceforge.net/DTD/sodipodi-0.dtd" id="ScribMaster"/>
    <filter id="blur">
      <feGaussianBlur stdDeviation="5.0"/>
    </filter>
    <defs/>
    <g xmlns:inkscape="http://www.inkscape.org/namespaces/inkscape" xmlns:scribmaster="http://scribmaster.com/scribmaster" id="1627854245478" transform="matrix(1.041329,0,0,1.041329,-16.413086,-15.68722)" style="opacity:1.0">
      <g id="1627851273342" inkscape:groupmode="layer" transform="matrix(1,0,0,1,0,0)" style="opacity:1.0">
        <path transform="matrix(1,0,0,1,0,0)" d="M 78.181885 93.81012 L 77.22157 92.84981 L 76.26126 91.889496 L 76.26126 92.84981 L 76.26126 94.77043 L 77.22157 98.61167 L 77.22157 105.333855 L 77.22157 117.817894 L 77.22157 135.10349 L 77.22157 155.27002 L 77.22157 176.39687 L 78.181885 194.64278 L 78.181885 208.08713 L 79.1422 217.69023 L 80.10251 225.37273 L 81.06282 231.1346 L 81.06282 234.97583 L 81.06282 237.85677 L 81.06282 239.77739 L 81.06282 241.69801 L 80.10251 243.61864 L 80.10251 244.57895 L 80.10251 246.49957 L 79.1422 248.4202 L 78.181885 248.4202 L 78.181885 247.45988 L 78.181885 246.49957 L 78.181885 245.53926 L 78.181885 243.61864 L 78.181885 242.65833" scribmaster:penstyle="draw" style="stroke:#000000;stroke-width:5.0;stroke-linejoin:round;stroke-linecap:round;stroke-opacity:1.0;fill:none"/>
        <path transform="matrix(1,0,0,1,0,0)" d="M 152.12584 99.57198 L 152.12584 98.61167 L 151.16553 98.61167 L 150.20522 99.57198 L 150.20522 100.532295 L 150.20522 103.41323 L 149.2449 108.21478 L 148.28459 113.976654 L 147.3243 124.54008 L 146.36398 140.86536 L 145.40367 161.9922 L 145.40367 181.19843 L 145.40367 199.44434 L 145.40367 211.92838 L 146.36398 221.53148 L 147.3243 229.21397 L 148.28459 234.97583 L 149.2449 237.85677 L 149.2449 240.7377 L 149.2449 242.65833 L 150.20522 244.57895 L 150.20522 245.53926 L 150.20522 246.49957 L 150.20522 245.53926 L 150.20522 243.61864 L 150.20522 241.69801" scribmaster:penstyle="draw" style="stroke:#000000;stroke-width:5.0;stroke-linejoin:round;stroke-linecap:round;stroke-opacity:1.0;fill:none"/>
        <path transform="matrix(1,0,0,1,0,0)" d="M 80.10251 185.03966 L 78.181885 184.07935 L 79.1422 184.07935 L 80.10251 184.07935 L 82.023125 184.07935 L 82.98344 184.07935 L 85.86437 184.07935 L 89.70562 184.07935 L 92.58655 184.07935 L 96.427795 184.07935 L 100.269035 185.03966 L 104.11028 185.03966 L 106.99122 185.03966 L 110.83246 185.99997 L 114.673706 185.99997 L 118.514946 185.99997 L 122.35619 185.99997 L 126.19743 185.99997 L 129.07837 185.03966 L 132.91962 185.03966 L 135.80055 184.07935 L 138.68149 183.11903 L 140.60211 183.11903 L 143.48303 183.11903 L 144.44336 183.11903 L 146.36398 183.11903" scribmaster:penstyle="draw" style="stroke:#000000;stroke-width:5.0;stroke-linejoin:round;stroke-linecap:round;stroke-opacity:1.0;fill:none"/>
      </g>
    </g>
  </g>
</svg>
