<?xml version='1.0' encoding='ASCII' standalone='yes'?>
<svg width = "6in" height = "4in" xmlns="http://www.w3.org/2000/svg" xmlns:xlink="http://www.w3.org/1999/xlink" version="1.1">
  <g transform="translate(0.5817946504483253, 0) scale(1 1) translate(0.814537017743164, 0) scale(1 1) translate(1.0473038956930552, 0) scale(1 1) translate(0, 0) scale(0.1 0.1)  skewX(-1.000000) skewX(-0.777778) skewX(-0.555556)">
    <sodipodi:namedview xmlns:sodipodi="http://sodipodi.sourceforge.net/DTD/sodipodi-0.dtd" id="ScribMaster"/>
    <filter id="blur">
      <feGaussianBlur stdDeviation="5.0"/>
    </filter>
    <defs/>
    <g xmlns:inkscape="http://www.inkscape.org/namespaces/inkscape" xmlns:scribmaster="http://scribmaster.com/scribmaster" id="1627854260995" transform="matrix(1.041329,0,0,1.041329,-16.413086,-15.68722)" style="opacity:1.0">
      <g id="1627851273342" inkscape:groupmode="layer" transform="matrix(1,0,0,1,0,0)" style="opacity:1.0">
        <path transform="matrix(1,0,0,1,0,0)" d="M 71.45971 75.56421 L 70.4994 76.52452 L 70.4994 80.36577 L 71.45971 85.16732 L 71.45971 94.77043 L 71.45971 107.25448 L 72.42002 122.61945 L 71.45971 141.82567 L 71.45971 158.15096 L 71.45971 172.55562 L 70.4994 185.03966 L 70.4994 195.60309 L 70.4994 204.24588 L 70.4994 210.00775 L 69.539085 214.80931 L 69.539085 216.72993 L 69.539085 218.65054 L 69.539085 217.69023 L 70.4994 217.69023" scribmaster:penstyle="draw" style="stroke:#000000;stroke-width:5.0;stroke-linejoin:round;stroke-linecap:round;stroke-opacity:1.0;fill:none"/>
        <path transform="matrix(1,0,0,1,0,0)" d="M 152.12584 82.286385 L 151.16553 81.32607 L 151.16553 80.36577 L 150.20522 83.2467 L 150.20522 88.048256 L 150.20522 98.61167 L 150.20522 113.01634 L 150.20522 132.22256 L 150.20522 157.19064 L 150.20522 178.31749 L 151.16553 193.68246 L 152.12584 204.24588 L 152.12584 210.96806 L 153.08615 216.72993 L 154.04646 220.57117 L 155.00677 223.4521 L 155.00677 225.37273 L 155.00677 226.33304 L 155.96709 228.25366 L 155.96709 230.17429 L 155.96709 231.1346 L 155.96709 232.09491 L 155.96709 231.1346 L 155.96709 230.17429 L 155.96709 229.21397 L 155.96709 228.25366 L 155.96709 227.29335 L 155.96709 225.37273 L 155.96709 224.41241" scribmaster:penstyle="draw" style="stroke:#000000;stroke-width:5.0;stroke-linejoin:round;stroke-linecap:round;stroke-opacity:1.0;fill:none"/>
        <path transform="matrix(1,0,0,1,0,0)" d="M 75.30095 160.07158 L 76.26126 159.11127 L 77.22157 159.11127 L 79.1422 159.11127 L 81.06282 159.11127 L 83.94375 159.11127 L 87.784996 158.15096 L 91.626236 158.15096 L 94.50717 158.15096 L 97.38811 157.19064 L 101.22935 157.19064 L 105.070595 157.19064 L 107.95153 157.19064 L 112.75308 156.23033 L 116.59433 156.23033 L 120.43557 156.23033 L 124.27682 155.27002 L 128.11806 155.27002 L 131.9593 155.27002 L 134.84024 155.27002 L 136.76086 155.27002 L 139.6418 155.27002 L 141.56242 155.27002 L 143.48303 155.27002" scribmaster:penstyle="draw" style="stroke:#000000;stroke-width:5.0;stroke-linejoin:round;stroke-linecap:round;stroke-opacity:1.0;fill:none"/>
      </g>
    </g>
  </g>
</svg>
