<?xml version='1.0' encoding='ASCII' standalone='yes'?>
<svg width = "6in" height = "4in" xmlns="http://www.w3.org/2000/svg" xmlns:xlink="http://www.w3.org/1999/xlink" version="1.1">
  <g transform="translate(0.5817946504483253, 0) scale(1 1) translate(0.814537017743164, 0) scale(1 1) translate(1.0473038956930552, 0) scale(1 1) translate(0, 0) scale(0.1 0.1)  skewX(-1.000000) skewX(-0.777778) skewX(-0.555556)">
    <sodipodi:namedview xmlns:sodipodi="http://sodipodi.sourceforge.net/DTD/sodipodi-0.dtd" id="ScribMaster"/>
    <filter id="blur">
      <feGaussianBlur stdDeviation="5.0"/>
    </filter>
    <defs/>
    <g xmlns:inkscape="http://www.inkscape.org/namespaces/inkscape" xmlns:scribmaster="http://scribmaster.com/scribmaster" id="1625349920021" transform="matrix(1,0,0,1,-1.316833,-1.489594)" style="opacity:1.0">
      <g id="1625348338071" inkscape:groupmode="layer" transform="matrix(1,0,0,1,0,0)" style="opacity:1.0">
        <path transform="matrix(1,0,0,1,0,0)" d="M 124.31683 42.489594 L 124.31683 40.489594 L 124.31683 39.489594 L 124.31683 38.489594 L 124.31683 37.489594 L 123.31683 36.489594 L 122.31683 36.489594 L 121.31683 37.489594 L 120.31683 37.489594 L 119.31683 38.489594 L 117.31683 39.489594 L 115.31683 40.489594 L 112.31683 42.489594 L 110.31683 44.489594 L 106.31683 48.489594 L 101.31683 54.489594 L 97.31683 59.489594 L 91.31683 66.48959 L 86.31683 73.48959 L 81.31683 82.48959 L 73.31683 94.48959 L 67.31683 105.48959 L 61.316833 115.48959 L 56.316833 124.48959 L 52.316833 134.4896 L 47.316833 145.4896 L 44.316833 156.4896 L 40.316833 166.4896 L 35.316833 177.4896 L 31.316833 188.4896 L 29.316833 197.4896 L 29.316833 205.4896 L 31.316833 212.4896 L 34.316833 219.4896 L 37.316833 224.4896 L 40.316833 228.4896 L 42.316833 231.4896 L 45.316833 234.4896 L 50.316833 235.4896 L 55.316833 237.4896 L 61.316833 238.4896 L 67.31683 238.4896 L 75.31683 236.4896 L 82.31683 233.4896 L 91.31683 228.4896 L 99.31683 221.4896 L 107.31683 213.4896 L 115.31683 204.4896 L 121.31683 196.4896 L 125.31683 190.4896 L 128.31683 185.4896 L 130.31683 181.4896 L 131.31683 179.4896 L 132.31683 177.4896 L 132.31683 176.4896 L 132.31683 174.4896 L 132.31683 173.4896" scribmaster:penstyle="draw" style="stroke:#000000;stroke-width:5.0;stroke-linejoin:round;stroke-linecap:round;stroke-opacity:1.0;fill:none"/>
        <path transform="matrix(1,0,0,1,0,0)" d="M 115.31683 174.4896 L 116.31683 173.4896 L 116.31683 172.4896 L 120.31683 171.4896 L 124.31683 169.4896 L 131.31683 168.4896 L 144.31683 166.4896" scribmaster:penstyle="draw" style="stroke:#000000;stroke-width:5.0;stroke-linejoin:round;stroke-linecap:round;stroke-opacity:1.0;fill:none"/>
      </g>
    </g>
  </g>
</svg>
