<?xml version='1.0' encoding='UTF-8' standalone='no' ?><svg xmlns="http://www.w3.org/2000/svg" xmlns:scribmaster="http://scribmaster.com/scribmaster" xmlns:sodipodi="http://sodipodi.sourceforge.net/DTD/sodipodi-0.dtd" xmlns:inkscape="http://www.inkscape.org/namespaces/inkscape" xmlns:xlink="http://www.w3.org/1999/xlink" version="1.2" width="800" height="1014"><sodipodi:namedview id="ScribMaster" /><filter id="blur"><feGaussianBlur stdDeviation="5.0" /></filter><defs /><g id="1625348496155" transform="matrix(1,0,0,1,0,0)" style="opacity:1.0"><g id="1625348338071" inkscape:groupmode="layer" transform="matrix(1,0,0,1,0,0)" style="opacity:1.0"><path transform="matrix(1,0,0,1,0,0)" d="M 49.0 3.0 L 49.0 4.0 L 49.0 5.0 L 49.0 7.0 L 49.0 9.0 L 48.0 13.0 L 48.0 17.0 L 47.0 24.0 L 46.0 32.0 L 45.0 43.0 L 44.0 55.0 L 43.0 67.0 L 43.0 78.0 L 42.0 93.0 L 41.0 106.0 L 40.0 120.0 L 40.0 131.0 L 39.0 145.0 L 39.0 157.0 L 39.0 168.0 L 39.0 178.0 L 39.0 189.0 L 39.0 198.0 L 38.0 207.0 L 36.0 214.0 L 36.0 220.0 L 36.0 224.0 L 37.0 226.0 L 37.0 227.0 L 38.0 227.0 L 38.0 225.0 L 39.0 224.0 L 39.0 221.0 L 40.0 218.0 L 41.0 214.0 L 41.0 210.0 L 43.0 204.0 L 45.0 196.0 L 48.0 185.0 L 52.0 176.0 L 56.0 168.0 L 59.0 161.0 L 62.0 155.0 L 64.0 152.0 L 66.0 149.0 L 68.0 148.0 L 70.0 146.0 L 72.0 145.0 L 75.0 145.0 L 78.0 145.0 L 80.0 144.0 L 84.0 144.0 L 87.0 145.0 L 90.0 145.0 L 93.0 146.0 L 95.0 148.0 L 98.0 150.0 L 100.0 153.0 L 102.0 157.0 L 104.0 160.0 L 105.0 164.0 L 106.0 170.0 L 106.0 176.0 L 105.0 183.0 L 102.0 189.0 L 98.0 197.0 L 93.0 203.0 L 87.0 209.0 L 81.0 214.0 L 75.0 217.0 L 68.0 220.0 L 62.0 221.0 L 57.0 222.0 L 54.0 223.0" scribmaster:penstyle="draw" style="stroke:#000000;stroke-width:5.0;stroke-linejoin:round;stroke-linecap:round;stroke-opacity:1.0;fill:none" /></g></g></svg>