<?xml version='1.0' encoding='ASCII' standalone='yes'?>
<svg width = "6in" height = "4in" xmlns="http://www.w3.org/2000/svg" xmlns:xlink="http://www.w3.org/1999/xlink" version="1.1">
  <g transform="translate(0.34906978865732075, 0) scale(1 1) translate(0.5817946504483253, 0) scale(1 1) translate(0.814537017743164, 0) scale(1 1) translate(1.0473038956930552, 0) scale(1 1) translate(0, 0) scale(0.1 0.1)  skewX(-1.000000) skewX(-0.777778) skewX(-0.555556) skewX(-0.333333)">
    <sodipodi:namedview xmlns:sodipodi="http://sodipodi.sourceforge.net/DTD/sodipodi-0.dtd" id="ScribMaster"/>
    <filter id="blur">
      <feGaussianBlur stdDeviation="5.0"/>
    </filter>
    <defs/>
    <g xmlns:inkscape="http://www.inkscape.org/namespaces/inkscape" xmlns:scribmaster="http://scribmaster.com/scribmaster" id="1625348627807" transform="matrix(1,0,0,1,0,0)" style="opacity:1.0">
      <g id="1625348338071" inkscape:groupmode="layer" transform="matrix(1,0,0,1,0,0)" style="opacity:1.0">
        <path transform="matrix(1,0,0,1,0,0)" d="M 40.0 185.0 L 41.0 185.0 L 42.0 185.0 L 44.0 184.0 L 45.0 184.0 L 48.0 183.0 L 51.0 181.0 L 54.0 179.0 L 57.0 176.0 L 61.0 173.0 L 65.0 169.0 L 68.0 165.0 L 71.0 162.0 L 73.0 158.0 L 74.0 155.0 L 74.0 153.0 L 73.0 150.0 L 72.0 148.0 L 70.0 147.0 L 68.0 145.0 L 65.0 143.0 L 62.0 142.0 L 57.0 141.0 L 44.0 140.0 L 34.0 140.0 L 26.0 141.0 L 20.0 144.0 L 16.0 148.0 L 13.0 154.0 L 12.0 160.0 L 11.0 166.0 L 10.0 173.0 L 9.0 183.0 L 8.0 191.0 L 9.0 199.0 L 11.0 207.0 L 16.0 213.0 L 25.0 220.0 L 34.0 225.0 L 46.0 227.0 L 68.0 226.0 L 90.0 223.0" scribmaster:penstyle="draw" style="stroke:#000000;stroke-width:5.0;stroke-linejoin:round;stroke-linecap:round;stroke-opacity:1.0;fill:none"/>
      </g>
    </g>
  </g>
</svg>
