<?xml version='1.0' encoding='ASCII' standalone='yes'?>
<svg width = "6in" height = "4in" xmlns="http://www.w3.org/2000/svg" xmlns:xlink="http://www.w3.org/1999/xlink" version="1.1">
  <g transform="translate(0.814537017743164, 0) scale(1 1) translate(1.0473038956930552, 0) scale(1 1) translate(0, 0) scale(0.1 0.1)  skewX(-1.000000) skewX(-0.777778)">
    <sodipodi:namedview xmlns:sodipodi="http://sodipodi.sourceforge.net/DTD/sodipodi-0.dtd" id="ScribMaster"/>
    <filter id="blur">
      <feGaussianBlur stdDeviation="5.0"/>
    </filter>
    <defs/>
    <g xmlns:inkscape="http://www.inkscape.org/namespaces/inkscape" xmlns:scribmaster="http://scribmaster.com/scribmaster" id="1625348614957" transform="matrix(1,0,0,1,0,0)" style="opacity:1.0">
      <g id="1625348338071" inkscape:groupmode="layer" transform="matrix(1,0,0,1,0,0)" style="opacity:1.0">
        <path transform="matrix(1,0,0,1,0,0)" d="M 40.0 184.0 L 40.0 183.0 L 41.0 182.0 L 43.0 182.0 L 45.0 181.0 L 48.0 180.0 L 51.0 180.0 L 55.0 178.0 L 58.0 177.0 L 63.0 174.0 L 68.0 171.0 L 71.0 167.0 L 74.0 164.0 L 76.0 161.0 L 78.0 158.0 L 78.0 156.0 L 78.0 153.0 L 78.0 151.0 L 76.0 150.0 L 75.0 148.0 L 72.0 147.0 L 69.0 146.0 L 65.0 145.0 L 59.0 145.0 L 46.0 146.0 L 37.0 147.0 L 30.0 149.0 L 23.0 153.0 L 19.0 157.0 L 16.0 162.0 L 13.0 168.0 L 11.0 174.0 L 10.0 180.0 L 10.0 188.0 L 10.0 195.0 L 11.0 202.0 L 13.0 208.0 L 17.0 213.0 L 24.0 219.0 L 30.0 223.0 L 39.0 227.0 L 50.0 228.0 L 65.0 229.0 L 81.0 228.0" scribmaster:penstyle="draw" style="stroke:#000000;stroke-width:5.0;stroke-linejoin:round;stroke-linecap:round;stroke-opacity:1.0;fill:none"/>
      </g>
    </g>
  </g>
</svg>
