<?xml version='1.0' encoding='ASCII' standalone='yes'?>
<svg width = "6in" height = "4in" xmlns="http://www.w3.org/2000/svg" xmlns:xlink="http://www.w3.org/1999/xlink" version="1.1">
  <g transform="translate(0.1163554293259576, 0) scale(1 1) translate(0.34906978865732075, 0) scale(1 1) translate(0.5817946504483253, 0) scale(1 1) translate(0.814537017743164, 0) scale(1 1) translate(1.0473038956930552, 0) scale(1 1) translate(0, 0) scale(0.1 0.1)  skewX(-1.000000) skewX(-0.777778) skewX(-0.555556) skewX(-0.333333) skewX(-0.111111)">
    <sodipodi:namedview xmlns:sodipodi="http://sodipodi.sourceforge.net/DTD/sodipodi-0.dtd" id="ScribMaster"/>
    <filter id="blur">
      <feGaussianBlur stdDeviation="5.0"/>
    </filter>
    <defs/>
    <g xmlns:inkscape="http://www.inkscape.org/namespaces/inkscape" xmlns:scribmaster="http://scribmaster.com/scribmaster" id="1625349371066" transform="matrix(1,0,0,1,0,0)" style="opacity:1.0">
      <g id="1625348338071" inkscape:groupmode="layer" transform="matrix(1,0,0,1,0,0)" style="opacity:1.0">
        <path transform="matrix(1,0,0,1,0,0)" d="M 52.0 126.0 L 52.0 128.0 L 52.0 130.0 L 53.0 135.0 L 55.0 145.0 L 56.0 158.0 L 59.0 175.0 L 62.0 190.0 L 64.0 201.0 L 66.0 211.0 L 68.0 218.0 L 70.0 222.0 L 70.0 224.0 L 71.0 224.0 L 72.0 223.0 L 72.0 222.0 L 72.0 221.0 L 73.0 219.0 L 74.0 218.0 L 75.0 217.0 L 75.0 215.0 L 77.0 211.0 L 80.0 204.0 L 84.0 196.0 L 88.0 186.0 L 93.0 174.0 L 98.0 163.0 L 101.0 153.0 L 104.0 146.0 L 106.0 141.0 L 108.0 138.0 L 110.0 137.0 L 111.0 137.0 L 112.0 138.0 L 113.0 138.0" scribmaster:penstyle="draw" style="stroke:#000000;stroke-width:5.0;stroke-linejoin:round;stroke-linecap:round;stroke-opacity:1.0;fill:none"/>
      </g>
    </g>
  </g>
</svg>
