<?xml version='1.0' encoding='ASCII' standalone='yes'?>
<svg width = "6in" height = "4in" xmlns="http://www.w3.org/2000/svg" xmlns:xlink="http://www.w3.org/1999/xlink" version="1.1">
  <g transform="translate(-0.1163554293259576, 0) scale(1 1) translate(0.1163554293259576, 0) scale(1 1) translate(0.34906978865732075, 0) scale(1 1) translate(0.5817946504483253, 0) scale(1 1) translate(0.814537017743164, 0) scale(1 1) translate(1.0473038956930552, 0) scale(1 1) translate(0, 0) scale(0.1 0.1)  skewX(-1.000000) skewX(-0.777778) skewX(-0.555556) skewX(-0.333333) skewX(-0.111111) skewX(0.111111)">
    <sodipodi:namedview xmlns:sodipodi="http://sodipodi.sourceforge.net/DTD/sodipodi-0.dtd" id="ScribMaster"/>
    <filter id="blur">
      <feGaussianBlur stdDeviation="5.0"/>
    </filter>
    <defs/>
    <g xmlns:inkscape="http://www.inkscape.org/namespaces/inkscape" xmlns:scribmaster="http://scribmaster.com/scribmaster" id="1625349381991" transform="matrix(1,0,0,1,0,0)" style="opacity:1.0">
      <g id="1625348338071" inkscape:groupmode="layer" transform="matrix(1,0,0,1,0,0)" style="opacity:1.0">
        <path transform="matrix(1,0,0,1,0,0)" d="M 23.0 130.0 L 23.0 131.0 L 24.0 133.0 L 26.0 138.0 L 29.0 144.0 L 31.0 152.0 L 34.0 160.0 L 36.0 170.0 L 38.0 181.0 L 40.0 190.0 L 41.0 199.0 L 43.0 207.0 L 44.0 213.0 L 46.0 217.0 L 47.0 219.0 L 48.0 221.0 L 50.0 221.0 L 51.0 220.0 L 53.0 219.0 L 55.0 218.0 L 57.0 213.0 L 61.0 207.0 L 67.0 198.0 L 73.0 187.0 L 81.0 173.0 L 87.0 162.0 L 92.0 152.0 L 96.0 144.0 L 98.0 139.0 L 100.0 136.0 L 101.0 133.0 L 102.0 132.0 L 103.0 132.0 L 104.0 131.0" scribmaster:penstyle="draw" style="stroke:#000000;stroke-width:5.0;stroke-linejoin:round;stroke-linecap:round;stroke-opacity:1.0;fill:none"/>
      </g>
    </g>
  </g>
</svg>
