<?xml version='1.0' encoding='ASCII' standalone='yes'?>
<svg width = "6in" height = "4in" xmlns="http://www.w3.org/2000/svg" xmlns:xlink="http://www.w3.org/1999/xlink" version="1.1">
  <g transform="translate(1.0473038956930552, 0) scale(1 1) translate(0, 0) scale(0.1 0.1)  skewX(-1.000000)">
    <sodipodi:namedview xmlns:sodipodi="http://sodipodi.sourceforge.net/DTD/sodipodi-0.dtd" id="ScribMaster"/>
    <filter id="blur">
      <feGaussianBlur stdDeviation="5.0"/>
    </filter>
    <defs/>
    <g xmlns:inkscape="http://www.inkscape.org/namespaces/inkscape" xmlns:scribmaster="http://scribmaster.com/scribmaster" id="1625370493366" transform="matrix(1,0,0,1,-1.316833,-1.489594)" style="opacity:1.0">
      <g id="1625348338071" inkscape:groupmode="layer" transform="matrix(1,0,0,1,0,0)" style="opacity:1.0">
        <path transform="matrix(1,0,0,1,0,0)" d="M 42.316833 132.4896 L 42.316833 135.4896 L 42.316833 140.4896 L 41.316833 148.4896 L 41.316833 159.4896 L 41.316833 173.4896 L 41.316833 186.4896 L 41.316833 197.4896 L 42.316833 206.4896 L 42.316833 214.4896 L 43.316833 220.4896 L 44.316833 224.4896 L 45.316833 225.4896 L 45.316833 226.4896 L 46.316833 225.4896 L 47.316833 224.4896 L 48.316833 223.4896 L 48.316833 221.4896 L 49.316833 219.4896 L 51.316833 216.4896 L 52.316833 212.4896 L 54.316833 207.4896 L 56.316833 202.4896 L 58.316833 196.4896 L 59.316833 191.4896 L 61.316833 186.4896 L 62.316833 182.4896 L 63.316833 178.4896 L 64.31683 175.4896 L 64.31683 173.4896 L 65.31683 171.4896 L 65.31683 169.4896 L 66.31683 168.4896 L 66.31683 166.4896 L 66.31683 165.4896 L 66.31683 164.4896 L 66.31683 162.4896 L 67.31683 161.4896 L 67.31683 160.4896 L 67.31683 159.4896 L 68.31683 159.4896 L 68.31683 158.4896 L 68.31683 157.4896 L 68.31683 156.4896 L 69.31683 158.4896 L 69.31683 161.4896 L 70.31683 165.4896 L 71.31683 172.4896 L 72.31683 179.4896 L 74.31683 186.4896 L 76.31683 192.4896 L 78.31683 197.4896 L 81.31683 202.4896 L 83.31683 205.4896 L 86.31683 207.4896 L 88.31683 207.4896 L 90.31683 206.4896 L 91.31683 204.4896 L 95.31683 199.4896 L 98.31683 192.4896 L 101.31683 182.4896 L 104.31683 173.4896 L 106.31683 164.4896 L 108.31683 156.4896 L 109.31683 150.4896 L 110.31683 145.4896 L 111.31683 142.4896 L 111.31683 140.4896 L 111.31683 138.4896 L 111.31683 137.4896" scribmaster:penstyle="draw" style="stroke:#000000;stroke-width:5.0;stroke-linejoin:round;stroke-linecap:round;stroke-opacity:1.0;fill:none"/>
      </g>
    </g>
  </g>
</svg>
