<?xml version='1.0' encoding='ASCII' standalone='yes'?>
<svg width = "6in" height = "4in" xmlns="http://www.w3.org/2000/svg" xmlns:xlink="http://www.w3.org/1999/xlink" version="1.1">
  <g transform="translate(0.34906978865732075, 0) scale(1 1) translate(0.5817946504483253, 0) scale(1 1) translate(0.814537017743164, 0) scale(1 1) translate(1.0473038956930552, 0) scale(1 1) translate(0, 0) scale(0.1 0.1)  skewX(-1.000000) skewX(-0.777778) skewX(-0.555556) skewX(-0.333333)">
    <sodipodi:namedview xmlns:sodipodi="http://sodipodi.sourceforge.net/DTD/sodipodi-0.dtd" id="ScribMaster"/>
    <filter id="blur">
      <feGaussianBlur stdDeviation="5.0"/>
    </filter>
    <defs/>
    <g xmlns:inkscape="http://www.inkscape.org/namespaces/inkscape" xmlns:scribmaster="http://scribmaster.com/scribmaster" id="1625349971649" transform="matrix(1,0,0,1,-1.316833,-1.489594)" style="opacity:1.0">
      <g id="1625348338071" inkscape:groupmode="layer" transform="matrix(1,0,0,1,0,0)" style="opacity:1.0">
        <path transform="matrix(1,0,0,1,0,0)" d="M 53.316833 48.489594 L 53.316833 49.489594 L 53.316833 51.489594 L 53.316833 55.489594 L 53.316833 60.489594 L 53.316833 72.48959 L 53.316833 90.48959 L 53.316833 114.48959 L 52.316833 144.4896 L 51.316833 168.4896 L 51.316833 186.4896 L 51.316833 204.4896 L 50.316833 216.4896 L 50.316833 226.4896 L 49.316833 235.4896 L 48.316833 244.4896 L 46.316833 251.4896 L 45.316833 256.4896 L 44.316833 258.4896 L 43.316833 259.4896 L 44.316833 258.4896 L 44.316833 255.4896" scribmaster:penstyle="draw" style="stroke:#000000;stroke-width:5.0;stroke-linejoin:round;stroke-linecap:round;stroke-opacity:1.0;fill:none"/>
        <path transform="matrix(1,0,0,1,0,0)" d="M 115.31683 66.48959 L 113.31683 64.48959 L 113.31683 63.489594 L 114.31683 64.48959 L 114.31683 67.48959 L 115.31683 72.48959 L 116.31683 83.48959 L 116.31683 98.48959 L 117.31683 118.48959 L 118.31683 144.4896 L 117.31683 166.4896 L 117.31683 183.4896 L 117.31683 199.4896 L 117.31683 210.4896 L 116.31683 220.4896 L 116.31683 228.4896 L 116.31683 234.4896 L 115.31683 240.4896 L 115.31683 242.4896 L 115.31683 243.4896 L 116.31683 241.4896 L 116.31683 239.4896" scribmaster:penstyle="draw" style="stroke:#000000;stroke-width:5.0;stroke-linejoin:round;stroke-linecap:round;stroke-opacity:1.0;fill:none"/>
        <path transform="matrix(1,0,0,1,0,0)" d="M 53.316833 167.4896 L 54.316833 166.4896 L 57.316833 166.4896 L 62.316833 166.4896 L 69.31683 165.4896 L 76.31683 165.4896 L 83.31683 165.4896 L 90.31683 164.4896 L 96.31683 164.4896 L 102.31683 162.4896 L 108.31683 161.4896 L 114.31683 160.4896" scribmaster:penstyle="draw" style="stroke:#000000;stroke-width:5.0;stroke-linejoin:round;stroke-linecap:round;stroke-opacity:1.0;fill:none"/>
      </g>
    </g>
  </g>
</svg>
