<?xml version='1.0' encoding='UTF-8' standalone='no' ?><svg xmlns="http://www.w3.org/2000/svg" xmlns:scribmaster="http://scribmaster.com/scribmaster" xmlns:sodipodi="http://sodipodi.sourceforge.net/DTD/sodipodi-0.dtd" xmlns:inkscape="http://www.inkscape.org/namespaces/inkscape" xmlns:xlink="http://www.w3.org/1999/xlink" version="1.2" width="800" height="1014"><sodipodi:namedview id="ScribMaster" /><filter id="blur"><feGaussianBlur stdDeviation="5.0" /></filter><defs /><g id="1625349396162" transform="matrix(1,0,0,1,0,0)" style="opacity:1.0"><g id="1625348338071" inkscape:groupmode="layer" transform="matrix(1,0,0,1,0,0)" style="opacity:1.0"><path transform="matrix(1,0,0,1,0,0)" d="M 43.0 135.0 L 43.0 136.0 L 43.0 140.0 L 44.0 147.0 L 44.0 156.0 L 45.0 168.0 L 46.0 180.0 L 47.0 192.0 L 47.0 202.0 L 48.0 210.0 L 49.0 217.0 L 49.0 222.0 L 50.0 224.0 L 51.0 225.0 L 52.0 224.0 L 53.0 222.0 L 55.0 219.0 L 56.0 214.0 L 59.0 206.0 L 62.0 198.0 L 65.0 189.0 L 68.0 182.0 L 70.0 175.0 L 73.0 169.0 L 75.0 165.0 L 77.0 162.0 L 78.0 162.0 L 79.0 162.0 L 80.0 163.0 L 80.0 164.0 L 81.0 167.0 L 81.0 170.0 L 82.0 175.0 L 83.0 181.0 L 83.0 188.0 L 84.0 194.0 L 85.0 199.0 L 86.0 204.0 L 87.0 206.0 L 88.0 207.0 L 89.0 207.0 L 90.0 205.0 L 93.0 202.0 L 97.0 195.0 L 101.0 185.0 L 105.0 175.0 L 108.0 165.0 L 112.0 158.0 L 115.0 152.0 L 117.0 148.0 L 119.0 145.0 L 120.0 144.0 L 122.0 143.0 L 123.0 143.0 L 124.0 142.0 L 125.0 142.0 L 126.0 142.0" scribmaster:penstyle="draw" style="stroke:#000000;stroke-width:5.0;stroke-linejoin:round;stroke-linecap:round;stroke-opacity:1.0;fill:none" /></g></g></svg>