<?xml version='1.0' encoding='UTF-8' standalone='no' ?><svg xmlns="http://www.w3.org/2000/svg" xmlns:scribmaster="http://scribmaster.com/scribmaster" xmlns:sodipodi="http://sodipodi.sourceforge.net/DTD/sodipodi-0.dtd" xmlns:inkscape="http://www.inkscape.org/namespaces/inkscape" xmlns:xlink="http://www.w3.org/1999/xlink" version="1.2" width="800" height="1014"><sodipodi:namedview id="ScribMaster" /><filter id="blur"><feGaussianBlur stdDeviation="5.0" /></filter><defs /><g id="1627855721460" transform="matrix(1.041329,0,0,1.041329,-16.413086,-18.68722)" style="opacity:1.0"><g id="1627851273342" inkscape:groupmode="layer" transform="matrix(1,0,0,1,0,0)" style="opacity:1.0"><path transform="matrix(1,0,0,1,0,0)" d="M 777.2883 360.7766 L 777.2883 360.78622" scribmaster:penstyle="draw" style="stroke:#000000;stroke-width:5.0;stroke-linejoin:round;stroke-linecap:round;stroke-opacity:1.0;fill:none" /><path transform="matrix(1,0,0,1,0,0)" d="M 106.03091 96.69105 L 104.11028 94.770424 L 103.14997 94.770424 L 102.18966 94.770424 L 101.22935 94.770424 L 100.269035 94.770424 L 98.34842 94.770424 L 96.427795 95.730736 L 93.54686 96.69105 L 89.70562 99.57198 L 85.86437 102.45291 L 80.10251 109.175095 L 74.340645 117.817894 L 68.57877 129.34163 L 63.77722 143.74629 L 60.89629 157.19064 L 59.935978 170.635 L 60.89629 184.07936 L 63.77722 196.5634 L 69.539085 206.1665 L 75.30095 212.88869 L 81.06282 217.69025 L 86.824684 221.53148 L 92.58655 223.4521 L 96.427795 223.4521 L 100.269035 224.41241 L 103.14997 223.4521 L 106.03091 222.49179 L 109.87215 221.53148 L 112.75308 218.65056 L 115.63402 213.849 L 118.514946 209.04744 L 121.39588 203.28557 L 125.23713 193.68246 L 129.07837 182.15874 L 132.91962 169.67468 L 135.80055 157.19064 L 137.72118 144.7066 L 139.6418 133.18288 L 139.6418 123.57976 L 137.72118 114.93696 L 135.80055 107.25447 L 130.999 102.45291 L 125.23713 98.61167 L 118.514946 96.69105 L 112.75308 95.730736 L 106.99122 95.730736 L 102.18966 96.69105 L 97.38811 96.69105" scribmaster:penstyle="draw" style="stroke:#000000;stroke-width:5.0;stroke-linejoin:round;stroke-linecap:round;stroke-opacity:1.0;fill:none" /></g></g></svg>