<?xml version='1.0' encoding='ASCII' standalone='yes'?>
<svg width = "6in" height = "4in" xmlns="http://www.w3.org/2000/svg" xmlns:xlink="http://www.w3.org/1999/xlink" version="1.1">
  <g transform="translate(-0.8145370177431639, 0) scale(1 1) translate(-0.581794650448325, 0) scale(1 1) translate(-0.34906978865732063, 0) scale(1 1) translate(-0.1163554293259576, 0) scale(1 1) translate(0.1163554293259576, 0) scale(1 1) translate(0.34906978865732075, 0) scale(1 1) translate(0.5817946504483253, 0) scale(1 1) translate(0.814537017743164, 0) scale(1 1) translate(1.0473038956930552, 0) scale(1 1) translate(0, 0) scale(0.1 0.1)  skewX(-1.000000) skewX(-0.777778) skewX(-0.555556) skewX(-0.333333) skewX(-0.111111) skewX(0.111111) skewX(0.333333) skewX(0.555556) skewX(0.777778)">
    <sodipodi:namedview xmlns:sodipodi="http://sodipodi.sourceforge.net/DTD/sodipodi-0.dtd" id="ScribMaster"/>
    <filter id="blur">
      <feGaussianBlur stdDeviation="5.0"/>
    </filter>
    <defs/>
    <g xmlns:inkscape="http://www.inkscape.org/namespaces/inkscape" xmlns:scribmaster="http://scribmaster.com/scribmaster" id="1627854437932" transform="matrix(1.041329,0,0,1.041329,-16.413086,-15.68722)" style="opacity:1.0">
      <g id="1627851273342" inkscape:groupmode="layer" transform="matrix(1,0,0,1,0,0)" style="opacity:1.0">
        <path transform="matrix(1,0,0,1,0,0)" d="M 54.17411 215.76962 L 54.17411 213.849 L 54.17411 211.92838 L 54.17411 210.96806 L 54.17411 210.00775 L 55.134422 208.08713 L 55.134422 206.1665 L 55.134422 204.24588 L 56.094734 200.40463 L 57.055046 196.5634 L 57.055046 191.76184 L 58.015354 186.96028 L 58.015354 183.11903 L 58.975666 178.31749 L 59.935978 174.47624 L 60.89629 170.635 L 61.8566 165.83344 L 62.81691 161.9922 L 63.77722 157.19064 L 64.73753 152.38908 L 65.697845 147.58752 L 67.61846 140.86536 L 68.57877 134.14317 L 69.539085 128.38132 L 70.4994 123.579765 L 71.45971 118.778206 L 72.42002 113.976654 L 73.38033 110.13541 L 73.38033 108.21478 L 73.38033 105.333855 L 74.340645 103.41323 L 74.340645 100.532295 L 75.30095 98.61167 L 75.30095 94.77043 L 75.30095 92.84981 L 75.30095 89.96887 L 76.26126 88.048256 L 76.26126 86.12763 L 76.26126 85.16732 L 76.26126 84.20701 L 76.26126 82.286385 L 76.26126 81.32607 L 77.22157 80.36577 L 77.22157 79.40546 L 78.181885 78.445145 L 78.181885 77.48483 L 78.181885 76.52452 L 78.181885 75.56421 L 79.1422 74.6039 L 80.10251 74.6039 L 80.10251 75.56421 L 81.06282 75.56421 L 82.023125 76.52452 L 82.023125 78.445145 L 83.94375 80.36577 L 84.90406 83.2467 L 86.824684 86.12763 L 88.74531 90.929184 L 91.626236 98.61167 L 95.46748 106.29417 L 99.30872 115.89728 L 103.14997 125.50038 L 106.99122 134.14317 L 111.79277 143.74629 L 113.713394 153.3494 L 116.59433 161.9922 L 119.47526 168.71437 L 121.39588 174.47624 L 122.35619 180.23811 L 124.27682 184.07935 L 125.23713 186.96028 L 126.19743 188.8809 L 127.157745 190.80153 L 127.157745 191.76184 L 128.11806 193.68246 L 129.07837 194.64278 L 129.07837 195.60309 L 130.03868 196.5634 L 130.03868 197.52371 L 130.999 197.52371 L 130.999 196.5634 L 130.999 195.60309 L 130.999 194.64278 L 130.999 192.72215 L 130.999 189.84122 L 130.999 186.96028 L 130.999 181.19843 L 131.9593 175.43655 L 131.9593 167.75406 L 132.91962 159.11127 L 133.87993 150.46846 L 133.87993 140.86536 L 135.80055 133.18288 L 136.76086 126.46069 L 137.72118 119.73852 L 139.6418 113.976654 L 140.60211 109.175095 L 142.52274 104.37354 L 143.48303 100.532295 L 144.44336 97.65137 L 145.40367 94.77043 L 147.3243 92.84981 L 148.28459 90.929184 L 149.2449 89.96887 L 150.20522 89.96887 L 150.20522 89.00857 L 151.16553 89.96887 L 152.12584 89.96887 L 153.08615 90.929184 L 154.04646 93.81012 L 155.96709 96.691055 L 158.84802 103.41323 L 161.72896 111.09572 L 165.57019 121.65914 L 170.37175 132.22256 L 175.17331 147.58752 L 179.01456 161.9922 L 181.8955 175.43655 L 184.77641 186.96028 L 187.65735 196.5634 L 188.61766 204.24588 L 190.53828 210.00775 L 192.45891 213.849 L 193.41922 215.76962 L 193.41922 216.72993 L 194.37953 217.69023 L 195.33984 217.69023 L 195.33984 218.65054 L 196.30016 218.65054 L 197.26047 218.65054" scribmaster:penstyle="draw" style="stroke:#000000;stroke-width:5.0;stroke-linejoin:round;stroke-linecap:round;stroke-opacity:1.0;fill:none"/>
      </g>
    </g>
  </g>
</svg>
