<?xml version='1.0' encoding='ASCII' standalone='yes'?>
<svg width = "6in" height = "4in" xmlns="http://www.w3.org/2000/svg" xmlns:xlink="http://www.w3.org/1999/xlink" version="1.1">
  <g transform="translate(-0.581794650448325, 0) scale(1 1) translate(-0.34906978865732063, 0) scale(1 1) translate(-0.1163554293259576, 0) scale(1 1) translate(0.1163554293259576, 0) scale(1 1) translate(0.34906978865732075, 0) scale(1 1) translate(0.5817946504483253, 0) scale(1 1) translate(0.814537017743164, 0) scale(1 1) translate(1.0473038956930552, 0) scale(1 1) translate(0, 0) scale(0.1 0.1)  skewX(-1.000000) skewX(-0.777778) skewX(-0.555556) skewX(-0.333333) skewX(-0.111111) skewX(0.111111) skewX(0.333333) skewX(0.555556)">
    <sodipodi:namedview xmlns:sodipodi="http://sodipodi.sourceforge.net/DTD/sodipodi-0.dtd" id="ScribMaster"/>
    <filter id="blur">
      <feGaussianBlur stdDeviation="5.0"/>
    </filter>
    <defs/>
    <g xmlns:inkscape="http://www.inkscape.org/namespaces/inkscape" xmlns:scribmaster="http://scribmaster.com/scribmaster" id="1627854456700" transform="matrix(1.041329,0,0,1.041329,-16.413086,-15.68722)" style="opacity:1.0">
      <g id="1627851273342" inkscape:groupmode="layer" transform="matrix(1,0,0,1,0,0)" style="opacity:1.0">
        <path transform="matrix(1,0,0,1,0,0)" d="M 60.89629 234.01553 L 58.975666 231.1346 L 58.975666 229.21397 L 58.975666 228.25366 L 59.935978 225.37273 L 60.89629 221.53148 L 60.89629 217.69023 L 62.81691 212.88869 L 63.77722 208.08713 L 65.697845 202.32526 L 67.61846 195.60309 L 68.57877 188.8809 L 70.4994 182.15872 L 72.42002 176.39687 L 74.340645 169.67468 L 75.30095 163.91283 L 77.22157 157.19064 L 79.1422 151.42877 L 80.10251 145.66692 L 82.023125 139.90504 L 82.98344 134.14317 L 84.90406 128.38132 L 85.86437 123.579765 L 86.824684 118.778206 L 87.784996 114.936966 L 88.74531 112.05603 L 89.70562 110.13541 L 90.665924 109.175095 L 91.626236 107.25448 L 91.626236 106.29417 L 92.58655 105.333855 L 93.54686 104.37354 L 93.54686 103.41323 L 94.50717 102.45292 L 95.46748 101.49261 L 96.427795 100.532295 L 97.38811 99.57198 L 97.38811 100.532295 L 98.34842 100.532295 L 99.30872 101.49261 L 99.30872 103.41323 L 100.269035 104.37354 L 101.22935 107.25448 L 102.18966 110.13541 L 103.14997 115.89728 L 105.070595 122.61945 L 106.99122 136.0638 L 109.87215 147.58752 L 111.79277 160.07158 L 112.75308 171.5953 L 114.673706 180.23811 L 116.59433 188.8809 L 117.554634 195.60309 L 118.514946 200.40463 L 119.47526 203.28557 L 119.47526 205.20619 L 120.43557 206.1665 L 120.43557 207.12682 L 121.39588 207.12682 L 121.39588 206.1665 L 121.39588 205.20619 L 121.39588 204.24588 L 121.39588 202.32526 L 122.35619 200.40463 L 122.35619 196.5634 L 123.316505 188.8809 L 124.27682 182.15872 L 125.23713 173.51593 L 126.19743 165.83344 L 127.157745 158.15096 L 128.11806 150.46846 L 130.03868 142.78598 L 130.999 136.0638 L 133.87993 130.30194 L 135.80055 124.54008 L 137.72118 118.778206 L 140.60211 113.976654 L 142.52274 109.175095 L 144.44336 104.37354 L 146.36398 99.57198 L 148.28459 97.65137 L 149.2449 95.73074 L 150.20522 94.77043 L 151.16553 94.77043 L 152.12584 94.77043 L 153.08615 94.77043 L 154.04646 95.73074 L 155.00677 97.65137 L 156.9274 101.49261 L 158.84802 108.21478 L 161.72896 115.89728 L 164.6099 128.38132 L 168.45113 143.74629 L 171.33206 161.9922 L 174.213 176.39687 L 177.09393 188.8809 L 179.01456 198.48402 L 180.93518 206.1665 L 182.85579 210.96806 L 184.77641 214.80931 L 186.69704 216.72993 L 186.69704 217.69023 L 187.65735 217.69023 L 188.61766 217.69023 L 189.57797 216.72993 L 189.57797 215.76962 L 190.53828 215.76962 L 191.4986 214.80931" scribmaster:penstyle="draw" style="stroke:#000000;stroke-width:5.0;stroke-linejoin:round;stroke-linecap:round;stroke-opacity:1.0;fill:none"/>
      </g>
    </g>
  </g>
</svg>
