<?xml version='1.0' encoding='ASCII' standalone='yes'?>
<svg width = "6in" height = "4in" xmlns="http://www.w3.org/2000/svg" xmlns:xlink="http://www.w3.org/1999/xlink" version="1.1">
  <g transform="translate(1.0473038956930552, 0) scale(1 1) translate(0, 0) scale(0.1 0.1)  skewX(-1.000000)">
    <sodipodi:namedview xmlns:sodipodi="http://sodipodi.sourceforge.net/DTD/sodipodi-0.dtd" id="ScribMaster"/>
    <filter id="blur">
      <feGaussianBlur stdDeviation="5.0"/>
    </filter>
    <defs/>
    <g xmlns:inkscape="http://www.inkscape.org/namespaces/inkscape" xmlns:scribmaster="http://scribmaster.com/scribmaster" id="1625351586857" transform="matrix(1,0,0,1,-1.316833,-1.489594)" style="opacity:1.0">
      <g id="1625348338071" inkscape:groupmode="layer" transform="matrix(1,0,0,1,0,0)" style="opacity:1.0">
        <path transform="matrix(1,0,0,1,0,0)" d="M 49.316833 39.489594 L 49.316833 41.489594 L 50.316833 43.489594 L 52.316833 48.489594 L 55.316833 55.489594 L 59.316833 65.48959 L 63.316833 75.48959 L 68.31683 86.48959 L 73.31683 96.48959 L 78.31683 104.48959 L 82.31683 111.48959 L 86.31683 116.48959 L 90.31683 120.48959 L 93.31683 122.48959 L 95.31683 123.48959 L 97.31683 124.48959 L 99.31683 124.48959 L 101.31683 124.48959 L 102.31683 123.48959" scribmaster:penstyle="draw" style="stroke:#000000;stroke-width:5.0;stroke-linejoin:round;stroke-linecap:round;stroke-opacity:1.0;fill:none"/>
        <path transform="matrix(1,0,0,1,0,0)" d="M 181.31683 52.489594 L 181.31683 51.489594 L 181.31683 50.489594 L 181.31683 49.489594 L 180.31683 49.489594 L 179.31683 49.489594 L 178.31683 50.489594 L 176.31683 53.489594 L 173.31683 56.489594 L 168.31683 62.489594 L 162.31683 70.48959 L 155.31683 80.48959 L 146.31683 90.48959 L 139.31683 100.48959 L 131.31683 108.48959 L 125.31683 115.48959 L 120.31683 122.48959 L 116.31683 126.48959 L 112.31683 129.4896 L 111.31683 131.4896 L 109.31683 131.4896" scribmaster:penstyle="draw" style="stroke:#000000;stroke-width:5.0;stroke-linejoin:round;stroke-linecap:round;stroke-opacity:1.0;fill:none"/>
        <path transform="matrix(1,0,0,1,0,0)" d="M 114.31683 135.4896 L 113.31683 134.4896 L 113.31683 133.4896 L 113.31683 134.4896 L 113.31683 136.4896 L 113.31683 141.4896 L 113.31683 149.4896 L 112.31683 161.4896 L 112.31683 175.4896 L 111.31683 187.4896 L 110.31683 197.4896 L 109.31683 206.4896 L 108.31683 213.4896 L 107.31683 219.4896 L 106.31683 224.4896 L 106.31683 226.4896 L 106.31683 228.4896" scribmaster:penstyle="draw" style="stroke:#000000;stroke-width:5.0;stroke-linejoin:round;stroke-linecap:round;stroke-opacity:1.0;fill:none"/>
      </g>
    </g>
  </g>
</svg>
