<?xml version='1.0' encoding='ASCII' standalone='yes'?>
<svg width = "6in" height = "4in" xmlns="http://www.w3.org/2000/svg" xmlns:xlink="http://www.w3.org/1999/xlink" version="1.1">
  <g transform="translate(0.5817946504483253, 0) scale(1 1) translate(0.814537017743164, 0) scale(1 1) translate(1.0473038956930552, 0) scale(1 1) translate(0, 0) scale(0.1 0.1)  skewX(-1.000000) skewX(-0.777778) skewX(-0.555556)">
    <sodipodi:namedview xmlns:sodipodi="http://sodipodi.sourceforge.net/DTD/sodipodi-0.dtd" id="ScribMaster"/>
    <filter id="blur">
      <feGaussianBlur stdDeviation="5.0"/>
    </filter>
    <defs/>
    <g xmlns:inkscape="http://www.inkscape.org/namespaces/inkscape" xmlns:scribmaster="http://scribmaster.com/scribmaster" id="1625351603696" transform="matrix(1,0,0,1,-1.316833,-1.489594)" style="opacity:1.0">
      <g id="1625348338071" inkscape:groupmode="layer" transform="matrix(1,0,0,1,0,0)" style="opacity:1.0">
        <path transform="matrix(1,0,0,1,0,0)" d="M 46.316833 39.489594 L 47.316833 40.489594 L 48.316833 43.489594 L 51.316833 50.489594 L 54.316833 59.489594 L 59.316833 71.48959 L 64.31683 84.48959 L 70.31683 96.48959 L 75.31683 107.48959 L 79.31683 115.48959 L 84.31683 121.48959 L 87.31683 125.48959 L 90.31683 128.4896 L 92.31683 128.4896 L 94.31683 128.4896" scribmaster:penstyle="draw" style="stroke:#000000;stroke-width:5.0;stroke-linejoin:round;stroke-linecap:round;stroke-opacity:1.0;fill:none"/>
        <path transform="matrix(1,0,0,1,0,0)" d="M 92.31683 139.4896 L 94.31683 137.4896 L 96.31683 136.4896 L 100.31683 132.4896 L 105.31683 127.48959 L 112.31683 119.48959 L 120.31683 109.48959 L 127.31683 98.48959 L 134.31683 87.48959 L 140.31683 78.48959 L 146.31683 69.48959 L 151.31683 61.489594 L 156.31683 54.489594 L 160.31683 49.489594 L 163.31683 45.489594 L 166.31683 43.489594 L 167.31683 42.489594 L 168.31683 41.489594" scribmaster:penstyle="draw" style="stroke:#000000;stroke-width:5.0;stroke-linejoin:round;stroke-linecap:round;stroke-opacity:1.0;fill:none"/>
        <path transform="matrix(1,0,0,1,0,0)" d="M 96.31683 142.4896 L 96.31683 140.4896 L 96.31683 139.4896 L 97.31683 140.4896 L 97.31683 141.4896 L 97.31683 143.4896 L 97.31683 146.4896 L 97.31683 151.4896 L 97.31683 161.4896 L 96.31683 174.4896 L 96.31683 188.4896 L 96.31683 203.4896 L 95.31683 218.4896 L 95.31683 230.4896 L 95.31683 239.4896 L 96.31683 246.4896 L 98.31683 246.4896" scribmaster:penstyle="draw" style="stroke:#000000;stroke-width:5.0;stroke-linejoin:round;stroke-linecap:round;stroke-opacity:1.0;fill:none"/>
      </g>
    </g>
  </g>
</svg>
