<?xml version='1.0' encoding='ASCII' standalone='yes'?>
<svg width = "6in" height = "4in" xmlns="http://www.w3.org/2000/svg" xmlns:xlink="http://www.w3.org/1999/xlink" version="1.1">
  <g transform="translate(1.0473038956930552, 0) scale(1 1) translate(0, 0) scale(0.1 0.1)  skewX(-1.000000)">
    <sodipodi:namedview xmlns:sodipodi="http://sodipodi.sourceforge.net/DTD/sodipodi-0.dtd" id="ScribMaster"/>
    <filter id="blur">
      <feGaussianBlur stdDeviation="5.0"/>
    </filter>
    <defs/>
    <g xmlns:inkscape="http://www.inkscape.org/namespaces/inkscape" xmlns:scribmaster="http://scribmaster.com/scribmaster" id="1626134430637" transform="matrix(1,0,0,1,-7.316833,10.510406)" style="opacity:1.0">
      <g id="1625348338071" inkscape:groupmode="layer" transform="matrix(1,0,0,1,0,0)" style="opacity:1.0">
        <path transform="matrix(1,0,0,1,0,0)" d="M 56.316833 32.489594 L 56.316833 34.489594 L 56.316833 36.489594 L 57.316833 39.489594 L 58.316833 43.489594 L 60.316833 48.489594 L 62.316833 54.489594 L 64.31683 61.489594 L 67.31683 67.48959 L 70.31683 73.48959 L 73.31683 80.48959 L 77.31683 86.48959 L 80.31683 91.48959 L 83.31683 95.48959 L 87.31683 100.48959 L 89.31683 103.48959 L 92.31683 106.48959 L 94.31683 108.48959 L 96.31683 110.48959 L 97.31683 111.48959 L 99.31683 112.48959 L 100.31683 112.48959 L 101.31683 113.48959" scribmaster:penstyle="draw" style="stroke:#000000;stroke-width:5.0;stroke-linejoin:round;stroke-linecap:round;stroke-opacity:1.0;fill:none"/>
        <path transform="matrix(1,0,0,1,0,0)" d="M 160.31683 33.489594 L 160.31683 34.489594 L 161.31683 35.489594 L 161.31683 36.489594 L 161.31683 37.489594 L 161.31683 38.489594 L 161.31683 40.489594 L 161.31683 42.489594 L 161.31683 44.489594 L 160.31683 47.489594 L 159.31683 50.489594 L 158.31683 54.489594 L 157.31683 57.489594 L 155.31683 61.489594 L 153.31683 65.48959 L 151.31683 69.48959 L 148.31683 74.48959 L 146.31683 79.48959 L 142.31683 83.48959 L 139.31683 87.48959 L 137.31683 91.48959 L 133.31683 95.48959 L 132.31683 97.48959 L 130.31683 99.48959 L 127.31683 101.48959 L 126.31683 103.48959 L 124.31683 105.48959 L 122.31683 106.48959 L 121.31683 107.48959 L 120.31683 108.48959 L 119.31683 109.48959 L 118.31683 110.48959 L 117.31683 111.48959 L 116.31683 112.48959 L 115.31683 112.48959 L 114.31683 113.48959 L 112.31683 113.48959 L 112.31683 114.48959 L 110.31683 115.48959 L 109.31683 116.48959 L 108.31683 117.48959 L 107.31683 118.48959 L 106.31683 120.48959 L 105.31683 121.48959 L 104.31683 122.48959 L 103.31683 124.48959 L 102.31683 126.48959 L 101.31683 129.4896 L 101.31683 133.4896 L 100.31683 137.4896 L 99.31683 141.4896 L 98.31683 147.4896 L 98.31683 153.4896 L 98.31683 159.4896 L 98.31683 164.4896 L 98.31683 172.4896 L 99.31683 178.4896 L 99.31683 185.4896 L 99.31683 192.4896 L 100.31683 198.4896 L 101.31683 203.4896 L 102.31683 208.4896 L 103.31683 211.4896" scribmaster:penstyle="draw" style="stroke:#000000;stroke-width:5.0;stroke-linejoin:round;stroke-linecap:round;stroke-opacity:1.0;fill:none"/>
      </g>
    </g>
  </g>
</svg>
