<?xml version='1.0' encoding='UTF-8' standalone='no' ?><svg xmlns="http://www.w3.org/2000/svg" xmlns:scribmaster="http://scribmaster.com/scribmaster" xmlns:sodipodi="http://sodipodi.sourceforge.net/DTD/sodipodi-0.dtd" xmlns:inkscape="http://www.inkscape.org/namespaces/inkscape" xmlns:xlink="http://www.w3.org/1999/xlink" version="1.2" width="800" height="1014"><sodipodi:namedview id="ScribMaster" /><filter id="blur"><feGaussianBlur stdDeviation="5.0" /></filter><defs /><g id="1625351431499" transform="matrix(1,0,0,1,-1.316833,-1.489594)" style="opacity:1.0"><g id="1625348338071" inkscape:groupmode="layer" transform="matrix(1,0,0,1,0,0)" style="opacity:1.0"><path transform="matrix(1,0,0,1,0,0)" d="M 48.316833 70.48959 L 46.316833 71.48959 L 46.316833 73.48959 L 45.316833 76.48959 L 45.316833 79.48959 L 44.316833 85.48959 L 42.316833 93.48959 L 41.316833 104.48959 L 40.316833 117.48959 L 40.316833 134.4896 L 40.316833 152.4896 L 41.316833 167.4896 L 42.316833 180.4896 L 44.316833 190.4896 L 47.316833 199.4896 L 50.316833 205.4896 L 55.316833 209.4896 L 59.316833 212.4896 L 62.316833 214.4896 L 66.31683 216.4896 L 68.31683 218.4896 L 71.31683 219.4896 L 74.31683 219.4896 L 76.31683 219.4896 L 79.31683 218.4896 L 81.31683 216.4896 L 84.31683 214.4896 L 87.31683 211.4896 L 90.31683 208.4896 L 94.31683 202.4896 L 97.31683 196.4896 L 102.31683 186.4896 L 108.31683 175.4896 L 112.31683 164.4896 L 117.31683 153.4896 L 121.31683 142.4896 L 125.31683 132.4896 L 128.31683 123.48959 L 131.31683 114.48959 L 133.31683 107.48959 L 135.31683 100.48959 L 137.31683 93.48959 L 139.31683 86.48959 L 140.31683 80.48959 L 141.31683 74.48959 L 142.31683 71.48959 L 142.31683 68.48959 L 142.31683 67.48959 L 142.31683 66.48959 L 141.31683 67.48959 L 141.31683 68.48959 L 140.31683 70.48959 L 140.31683 73.48959 L 139.31683 77.48959 L 137.31683 87.48959 L 135.31683 100.48959 L 132.31683 115.48959 L 130.31683 135.4896 L 127.31683 156.4896 L 126.31683 172.4896 L 126.31683 189.4896 L 127.31683 201.4896 L 129.31683 210.4896 L 132.31683 217.4896 L 137.31683 221.4896 L 141.31683 222.4896" scribmaster:penstyle="draw" style="stroke:#000000;stroke-width:5.0;stroke-linejoin:round;stroke-linecap:round;stroke-opacity:1.0;fill:none" /></g></g></svg>