<?xml version='1.0' encoding='ASCII' standalone='yes'?>
<svg width = "6in" height = "4in" xmlns="http://www.w3.org/2000/svg" xmlns:xlink="http://www.w3.org/1999/xlink" version="1.1">
  <g transform="translate(-0.34906978865732063, 0) scale(1 1) translate(-0.1163554293259576, 0) scale(1 1) translate(0.1163554293259576, 0) scale(1 1) translate(0.34906978865732075, 0) scale(1 1) translate(0.5817946504483253, 0) scale(1 1) translate(0.814537017743164, 0) scale(1 1) translate(1.0473038956930552, 0) scale(1 1) translate(0, 0) scale(0.1 0.1)  skewX(-1.000000) skewX(-0.777778) skewX(-0.555556) skewX(-0.333333) skewX(-0.111111) skewX(0.111111) skewX(0.333333)">
    <sodipodi:namedview xmlns:sodipodi="http://sodipodi.sourceforge.net/DTD/sodipodi-0.dtd" id="ScribMaster"/>
    <filter id="blur">
      <feGaussianBlur stdDeviation="5.0"/>
    </filter>
    <defs/>
    <g xmlns:inkscape="http://www.inkscape.org/namespaces/inkscape" xmlns:scribmaster="http://scribmaster.com/scribmaster" id="1625350373956" transform="matrix(1,0,0,1,-1.316833,-1.489594)" style="opacity:1.0">
      <g id="1625348338071" inkscape:groupmode="layer" transform="matrix(1,0,0,1,0,0)" style="opacity:1.0">
        <path transform="matrix(1,0,0,1,0,0)" d="M 99.31683 56.489594 L 96.31683 56.489594 L 95.31683 57.489594 L 94.31683 58.489594 L 93.31683 59.489594 L 91.31683 60.489594 L 89.31683 63.489594 L 87.31683 66.48959 L 83.31683 71.48959 L 78.31683 78.48959 L 72.31683 88.48959 L 66.31683 99.48959 L 61.316833 112.48959 L 57.316833 124.48959 L 53.316833 139.4896 L 50.316833 155.4896 L 48.316833 171.4896 L 47.316833 191.4896 L 47.316833 205.4896 L 48.316833 217.4896 L 49.316833 226.4896 L 52.316833 234.4896 L 56.316833 241.4896 L 63.316833 245.4896 L 69.31683 247.4896 L 74.31683 248.4896 L 79.31683 248.4896 L 84.31683 245.4896 L 90.31683 241.4896 L 96.31683 236.4896 L 104.31683 228.4896 L 114.31683 214.4896 L 124.31683 198.4896 L 132.31683 179.4896 L 140.31683 159.4896 L 144.31683 143.4896 L 146.31683 129.4896 L 146.31683 116.48959 L 145.31683 105.48959 L 143.31683 96.48959 L 139.31683 89.48959 L 135.31683 83.48959 L 131.31683 78.48959 L 125.31683 74.48959 L 120.31683 70.48959 L 115.31683 68.48959 L 109.31683 66.48959 L 103.31683 65.48959 L 97.31683 65.48959" scribmaster:penstyle="draw" style="stroke:#000000;stroke-width:5.0;stroke-linejoin:round;stroke-linecap:round;stroke-opacity:1.0;fill:none"/>
      </g>
    </g>
  </g>
</svg>
