<?xml version='1.0' encoding='ASCII' standalone='yes'?>
<svg width = "6in" height = "4in" xmlns="http://www.w3.org/2000/svg" xmlns:xlink="http://www.w3.org/1999/xlink" version="1.1">
  <g transform="translate(0.34906978865732075, 0) scale(1 1) translate(0.5817946504483253, 0) scale(1 1) translate(0.814537017743164, 0) scale(1 1) translate(1.0473038956930552, 0) scale(1 1) translate(0, 0) scale(0.1 0.1)  skewX(-1.000000) skewX(-0.777778) skewX(-0.555556) skewX(-0.333333)">
    <sodipodi:namedview xmlns:sodipodi="http://sodipodi.sourceforge.net/DTD/sodipodi-0.dtd" id="ScribMaster"/>
    <filter id="blur">
      <feGaussianBlur stdDeviation="5.0"/>
    </filter>
    <defs/>
    <g xmlns:inkscape="http://www.inkscape.org/namespaces/inkscape" xmlns:scribmaster="http://scribmaster.com/scribmaster" id="1625350357682" transform="matrix(1,0,0,1,-1.316833,-1.489594)" style="opacity:1.0">
      <g id="1625348338071" inkscape:groupmode="layer" transform="matrix(1,0,0,1,0,0)" style="opacity:1.0">
        <path transform="matrix(1,0,0,1,0,0)" d="M 83.31683 71.48959 L 82.31683 70.48959 L 81.31683 69.48959 L 80.31683 69.48959 L 79.31683 68.48959 L 78.31683 68.48959 L 77.31683 68.48959 L 76.31683 68.48959 L 75.31683 69.48959 L 72.31683 72.48959 L 68.31683 78.48959 L 65.31683 84.48959 L 59.316833 95.48959 L 54.316833 108.48959 L 49.316833 123.48959 L 45.316833 145.4896 L 43.316833 166.4896 L 42.316833 189.4896 L 43.316833 205.4896 L 44.316833 219.4896 L 45.316833 228.4896 L 48.316833 237.4896 L 54.316833 243.4896 L 62.316833 245.4896 L 70.31683 245.4896 L 77.31683 244.4896 L 84.31683 242.4896 L 91.31683 239.4896 L 97.31683 234.4896 L 105.31683 229.4896 L 113.31683 221.4896 L 122.31683 210.4896 L 131.31683 195.4896 L 139.31683 177.4896 L 145.31683 160.4896 L 149.31683 145.4896 L 150.31683 131.4896 L 149.31683 118.48959 L 145.31683 106.48959 L 141.31683 95.48959 L 136.31683 86.48959 L 131.31683 77.48959 L 124.31683 69.48959 L 117.31683 65.48959 L 110.31683 63.489594 L 104.31683 63.489594 L 98.31683 65.48959 L 93.31683 68.48959 L 88.31683 71.48959" scribmaster:penstyle="draw" style="stroke:#000000;stroke-width:5.0;stroke-linejoin:round;stroke-linecap:round;stroke-opacity:1.0;fill:none"/>
      </g>
    </g>
  </g>
</svg>
