<?xml version='1.0' encoding='ASCII' standalone='yes'?>
<svg width = "6in" height = "4in" xmlns="http://www.w3.org/2000/svg" xmlns:xlink="http://www.w3.org/1999/xlink" version="1.1">
  <g transform="translate(-0.8145370177431639, 0) scale(1 1) translate(-0.581794650448325, 0) scale(1 1) translate(-0.34906978865732063, 0) scale(1 1) translate(-0.1163554293259576, 0) scale(1 1) translate(0.1163554293259576, 0) scale(1 1) translate(0.34906978865732075, 0) scale(1 1) translate(0.5817946504483253, 0) scale(1 1) translate(0.814537017743164, 0) scale(1 1) translate(1.0473038956930552, 0) scale(1 1) translate(0, 0) scale(0.1 0.1)  skewX(-1.000000) skewX(-0.777778) skewX(-0.555556) skewX(-0.333333) skewX(-0.111111) skewX(0.111111) skewX(0.333333) skewX(0.555556) skewX(0.777778)">
    <sodipodi:namedview xmlns:sodipodi="http://sodipodi.sourceforge.net/DTD/sodipodi-0.dtd" id="ScribMaster"/>
    <filter id="blur">
      <feGaussianBlur stdDeviation="5.0"/>
    </filter>
    <defs/>
    <g xmlns:inkscape="http://www.inkscape.org/namespaces/inkscape" xmlns:scribmaster="http://scribmaster.com/scribmaster" id="1627852753175" transform="matrix(1.032782,0,0,1.032782,-14.899414,-13.325867)" style="opacity:1.0">
      <g id="1627851273342" inkscape:groupmode="layer" transform="matrix(1,0,0,1,0,0)" style="opacity:1.0">
        <path transform="matrix(1,0,0,1,0,0)" d="M 57.998123 146.52255 L 57.998123 145.5543 L 57.02986 144.58604 L 57.02986 143.61778 L 57.02986 145.5543 L 57.998123 150.3956 L 57.998123 158.14166 L 58.966377 170.72902 L 59.93464 184.28464 L 60.902893 195.90375 L 60.902893 206.5546 L 61.871155 215.26892 L 61.871155 223.01498 L 62.839417 228.82454 L 62.839417 230.76105 L 62.839417 232.69757 L 62.839417 233.66583 L 62.839417 232.69757 L 62.839417 231.72931 L 62.839417 229.7928 L 62.839417 226.88802 L 62.839417 221.07846 L 62.839417 213.3324 L 62.839417 204.61807 L 63.80767 192.03072 L 64.77593 181.37987 L 66.71245 171.69728 L 68.648964 163.95122 L 71.55374 157.1734 L 74.45852 151.36385 L 77.36329 147.49081 L 81.23632 144.58604 L 84.1411 142.64952 L 88.98239 140.71301 L 92.85542 139.74475 L 96.72846 137.80824 L 101.569756 137.80824 L 104.474525 137.80824 L 108.347565 138.77649 L 111.25234 139.74475 L 113.18886 141.68126 L 116.093636 143.61778 L 118.03015 145.5543" scribmaster:penstyle="draw" style="stroke:#000000;stroke-width:5.0;stroke-linejoin:round;stroke-linecap:round;stroke-opacity:1.0;fill:none"/>
      </g>
    </g>
  </g>
</svg>
