<?xml version='1.0' encoding='ASCII' standalone='yes'?>
<svg width = "6in" height = "4in" xmlns="http://www.w3.org/2000/svg" xmlns:xlink="http://www.w3.org/1999/xlink" version="1.1">
  <g transform="translate(0.1163554293259576, 0) scale(1 1) translate(0.34906978865732075, 0) scale(1 1) translate(0.5817946504483253, 0) scale(1 1) translate(0.814537017743164, 0) scale(1 1) translate(1.0473038956930552, 0) scale(1 1) translate(0, 0) scale(0.1 0.1)  skewX(-1.000000) skewX(-0.777778) skewX(-0.555556) skewX(-0.333333) skewX(-0.111111)">
    <sodipodi:namedview xmlns:sodipodi="http://sodipodi.sourceforge.net/DTD/sodipodi-0.dtd" id="ScribMaster"/>
    <filter id="blur">
      <feGaussianBlur stdDeviation="5.0"/>
    </filter>
    <defs/>
    <g xmlns:inkscape="http://www.inkscape.org/namespaces/inkscape" xmlns:scribmaster="http://scribmaster.com/scribmaster" id="1627852734245" transform="matrix(1.032782,0,0,1.032782,-14.899414,-13.325867)" style="opacity:1.0">
      <g id="1627851273342" inkscape:groupmode="layer" transform="matrix(1,0,0,1,0,0)" style="opacity:1.0">
        <path transform="matrix(1,0,0,1,0,0)" d="M 79.299805 146.52255 L 77.36329 145.5543 L 76.395035 146.52255 L 76.395035 148.45908 L 76.395035 151.36385 L 76.395035 156.20514 L 76.395035 164.91946 L 77.36329 177.50684 L 77.36329 189.12593 L 77.36329 198.80852 L 77.36329 208.4911 L 77.36329 217.20543 L 77.36329 224.9515 L 77.36329 233.66583 L 77.36329 240.44363 L 77.36329 245.28493 L 77.36329 249.15796 L 77.36329 252.06274 L 77.36329 253.031 L 78.33155 253.031 L 78.33155 251.09448 L 78.33155 248.18971 L 78.33155 244.31668 L 78.33155 239.47539 L 79.299805 229.7928 L 79.299805 217.20543 L 79.299805 205.58633 L 80.26807 194.93549 L 82.20458 184.28464 L 83.172844 175.57031 L 87.045876 167.82425 L 89.95065 162.0147 L 94.79195 158.14166 L 98.66498 154.26863 L 104.474525 151.36385 L 108.347565 149.42734 L 112.2206 149.42734 L 115.125374 148.45908 L 118.03015 149.42734 L 119.96667 149.42734 L 122.871445 151.36385 L 125.776215 153.30037 L 128.681 156.20514" scribmaster:penstyle="draw" style="stroke:#000000;stroke-width:5.0;stroke-linejoin:round;stroke-linecap:round;stroke-opacity:1.0;fill:none"/>
      </g>
    </g>
  </g>
</svg>
