<?xml version='1.0' encoding='ASCII' standalone='yes'?>
<svg width = "6in" height = "4in" xmlns="http://www.w3.org/2000/svg" xmlns:xlink="http://www.w3.org/1999/xlink" version="1.1">
  <g transform="translate(-0.1163554293259576, 0) scale(1 1) translate(0.1163554293259576, 0) scale(1 1) translate(0.34906978865732075, 0) scale(1 1) translate(0.5817946504483253, 0) scale(1 1) translate(0.814537017743164, 0) scale(1 1) translate(1.0473038956930552, 0) scale(1 1) translate(0, 0) scale(0.1 0.1)  skewX(-1.000000) skewX(-0.777778) skewX(-0.555556) skewX(-0.333333) skewX(-0.111111) skewX(0.111111)">
    <sodipodi:namedview xmlns:sodipodi="http://sodipodi.sourceforge.net/DTD/sodipodi-0.dtd" id="ScribMaster"/>
    <filter id="blur">
      <feGaussianBlur stdDeviation="5.0"/>
    </filter>
    <defs/>
    <g xmlns:inkscape="http://www.inkscape.org/namespaces/inkscape" xmlns:scribmaster="http://scribmaster.com/scribmaster" id="1627852743650" transform="matrix(1.032782,0,0,1.032782,-14.899414,-13.325867)" style="opacity:1.0">
      <g id="1627851273342" inkscape:groupmode="layer" transform="matrix(1,0,0,1,0,0)" style="opacity:1.0">
        <path transform="matrix(1,0,0,1,0,0)" d="M 60.902893 149.42734 L 60.902893 151.36385 L 61.871155 157.1734 L 63.80767 165.88773 L 65.74419 178.4751 L 66.71245 190.0942 L 67.6807 199.77678 L 68.648964 207.52284 L 69.617226 215.26892 L 69.617226 221.07846 L 70.58548 224.9515 L 70.58548 227.85628 L 70.58548 228.82454 L 70.58548 227.85628 L 70.58548 226.88802 L 70.58548 224.9515 L 70.58548 219.14195 L 70.58548 212.36414 L 71.55374 203.64981 L 72.521996 193.96722 L 74.45852 185.2529 L 76.395035 176.53857 L 79.299805 170.72902 L 83.172844 164.91946 L 88.01414 161.04643 L 92.85542 157.1734 L 98.66498 155.2369 L 103.50627 153.30037 L 108.347565 153.30037 L 111.25234 153.30037 L 115.125374 154.26863 L 117.06189 156.20514 L 119.96667 158.14166 L 122.871445 161.04643 L 125.776215 162.98296" scribmaster:penstyle="draw" style="stroke:#000000;stroke-width:5.0;stroke-linejoin:round;stroke-linecap:round;stroke-opacity:1.0;fill:none"/>
      </g>
    </g>
  </g>
</svg>
