<?xml version="1.0" encoding="UTF-8" standalone="no"?>
<svg
   xmlns:scribmaster="http://scribmaster.com/scribmaster"
   xmlns:dc="http://purl.org/dc/elements/1.1/"
   xmlns:cc="http://creativecommons.org/ns#"
   xmlns:rdf="http://www.w3.org/1999/02/22-rdf-syntax-ns#"
   xmlns:svg="http://www.w3.org/2000/svg"
   xmlns="http://www.w3.org/2000/svg"
   xmlns:sodipodi="http://sodipodi.sourceforge.net/DTD/sodipodi-0.dtd"
   xmlns:inkscape="http://www.inkscape.org/namespaces/inkscape"
   version="1.2"
   width="800"
   height="520"
   id="svg12"
   sodipodi:docname="b.svg"
   inkscape:version="1.0.2-2 (e86c870879, 2021-01-15)">
  <metadata
     id="metadata14">
    <rdf:RDF>
      <cc:Work
         rdf:about="">
        <dc:format>image/svg+xml</dc:format>
        <dc:type
           rdf:resource="http://purl.org/dc/dcmitype/StillImage" />
      </cc:Work>
    </rdf:RDF>
  </metadata>
  <sodipodi:namedview
     id="ScribMaster"
     inkscape:document-rotation="0"
     showgrid="false"
     inkscape:zoom="1.3025"
     inkscape:cx="400"
     inkscape:cy="260"
     inkscape:window-width="1258"
     inkscape:window-height="1041"
     inkscape:window-x="968"
     inkscape:window-y="158"
     inkscape:window-maximized="0"
     inkscape:current-layer="svg12" />
  <filter
     id="blur">
    <feGaussianBlur
       stdDeviation="5.0"
       id="feGaussianBlur3" />
  </filter>
  <defs
     id="defs6" />
  <g
     id="1620598725525"
     transform="matrix(1.0065902,0,0,0.76634136,-224.94496,-22.328185)"
     style="opacity:1">
    <g
       id="1620536817093"
       inkscape:groupmode="layer"
       style="opacity:1">
      <path
         d="m 334,32 1,1 1,2 1,3 1,5 v 7 7 10 15 l -1,13 -1,13 -1,13 v 16 l -1,16 v 15 18 l -1,14 v 13 l -1,13 v 12 l -1,10 -1,10 -1,7 -1,7 -1,6 -1,6 -1,3 v 1 1 -1 -1 -2 -3 -4 -3 l 1,-6 1,-6 1,-8 1,-7 1,-7 1,-7 2,-6 2,-7 2,-6 2,-6 2,-6 3,-6 3,-4 4,-5 4,-3 4,-3 5,-1 5,-1 6,2 7,3 7,5 7,6 7,7 6,9 4,9 3,8 1,9 -1,8 -2,9 -4,8 -6,8 -7,7 -8,5 -9,3 h -10 l -11,-3 -11,-5 -10,-10"
         scribmaster:penstyle="draw"
         style="fill:none;stroke:#000000;stroke-width:5;stroke-linecap:round;stroke-linejoin:round;stroke-opacity:1"
         id="path8" />
    </g>
  </g>
</svg>
