<?xml version='1.0' encoding='UTF-8' standalone='no' ?><svg xmlns="http://www.w3.org/2000/svg" xmlns:scribmaster="http://scribmaster.com/scribmaster" xmlns:sodipodi="http://sodipodi.sourceforge.net/DTD/sodipodi-0.dtd" xmlns:inkscape="http://www.inkscape.org/namespaces/inkscape" xmlns:xlink="http://www.w3.org/1999/xlink" version="1.2" width="800" height="520"><sodipodi:namedview id="ScribMaster" /><filter id="blur"><feGaussianBlur stdDeviation="5.0" /></filter><defs /><g id="1620598741784" transform="matrix(1,0,0,1,0,0)" style="opacity:1.0"><g id="1620536817093" inkscape:groupmode="layer" transform="matrix(1,0,0,1,0,0)" style="opacity:1.0"><path transform="matrix(1,0,0,1,0,0)" d="M 381.0 80.0 L 380.0 81.0 L 379.0 81.0 L 378.0 82.0 L 376.0 83.0 L 373.0 85.0 L 369.0 88.0 L 363.0 92.0 L 356.0 97.0 L 347.0 103.0 L 338.0 110.0 L 329.0 116.0 L 321.0 123.0 L 314.0 130.0 L 308.0 138.0 L 302.0 147.0 L 297.0 156.0 L 294.0 164.0 L 292.0 173.0 L 292.0 182.0 L 294.0 189.0 L 296.0 196.0 L 302.0 202.0 L 309.0 207.0 L 319.0 209.0 L 330.0 211.0 L 346.0 210.0 L 369.0 207.0" scribmaster:penstyle="draw" style="stroke:#000000;stroke-width:5.0;stroke-linejoin:round;stroke-linecap:round;stroke-opacity:1.0;fill:none" /></g></g></svg>