<?xml version='1.0' encoding='UTF-8' standalone='no' ?><svg xmlns="http://www.w3.org/2000/svg" xmlns:scribmaster="http://scribmaster.com/scribmaster" xmlns:sodipodi="http://sodipodi.sourceforge.net/DTD/sodipodi-0.dtd" xmlns:inkscape="http://www.inkscape.org/namespaces/inkscape" xmlns:xlink="http://www.w3.org/1999/xlink" version="1.2" width="800" height="520"><sodipodi:namedview id="ScribMaster" /><filter id="blur"><feGaussianBlur stdDeviation="5.0" /></filter><defs /><g id="1620598768464" transform="matrix(1,0,0,1,0,0)" style="opacity:1.0"><g id="1620536817093" inkscape:groupmode="layer" transform="matrix(1,0,0,1,0,0)" style="opacity:1.0"><path transform="matrix(1,0,0,1,0,0)" d="M 391.0 206.0 L 391.0 205.0 L 390.0 205.0 L 389.0 204.0 L 388.0 204.0 L 387.0 204.0 L 385.0 204.0 L 382.0 205.0 L 377.0 207.0 L 370.0 209.0 L 362.0 213.0 L 353.0 219.0 L 345.0 224.0 L 337.0 231.0 L 330.0 238.0 L 325.0 244.0 L 321.0 250.0 L 319.0 257.0 L 319.0 263.0 L 320.0 268.0 L 322.0 272.0 L 324.0 274.0 L 328.0 275.0 L 332.0 275.0 L 338.0 274.0 L 346.0 270.0 L 356.0 263.0 L 369.0 251.0 L 382.0 235.0 L 394.0 220.0 L 403.0 203.0 L 409.0 187.0 L 414.0 173.0 L 417.0 162.0 L 420.0 151.0 L 421.0 142.0 L 421.0 134.0 L 421.0 127.0 L 421.0 120.0 L 420.0 115.0 L 418.0 111.0 L 417.0 106.0 L 415.0 103.0 L 414.0 100.0 L 412.0 98.0 L 410.0 96.0 L 409.0 95.0 L 407.0 93.0 L 406.0 93.0 L 405.0 95.0 L 405.0 97.0 L 405.0 100.0 L 405.0 106.0 L 406.0 113.0 L 407.0 127.0 L 409.0 144.0 L 412.0 168.0 L 416.0 191.0 L 420.0 208.0 L 426.0 225.0 L 431.0 237.0 L 437.0 247.0 L 443.0 253.0 L 450.0 258.0" scribmaster:penstyle="draw" style="stroke:#000000;stroke-width:5.0;stroke-linejoin:round;stroke-linecap:round;stroke-opacity:1.0;fill:none" /></g></g></svg>