<?xml version='1.0' encoding='UTF-8' standalone='no' ?><svg xmlns="http://www.w3.org/2000/svg" xmlns:scribmaster="http://scribmaster.com/scribmaster" xmlns:sodipodi="http://sodipodi.sourceforge.net/DTD/sodipodi-0.dtd" xmlns:inkscape="http://www.inkscape.org/namespaces/inkscape" xmlns:xlink="http://www.w3.org/1999/xlink" version="1.2" width="800" height="520"><sodipodi:namedview id="ScribMaster" /><filter id="blur"><feGaussianBlur stdDeviation="5.0" /></filter><defs /><g id="1620598792172" transform="matrix(1,0,0,1,0,0)" style="opacity:1.0"><g id="1620536817093" inkscape:groupmode="layer" transform="matrix(1,0,0,1,0,0)" style="opacity:1.0"><path transform="matrix(1,0,0,1,0,0)" d="M 353.0 178.0 L 352.0 177.0 L 353.0 176.0 L 355.0 176.0 L 356.0 175.0 L 359.0 175.0 L 363.0 175.0 L 366.0 174.0 L 371.0 173.0 L 376.0 170.0 L 382.0 167.0 L 388.0 163.0 L 392.0 158.0 L 396.0 154.0 L 399.0 149.0 L 401.0 145.0 L 402.0 141.0 L 402.0 138.0 L 402.0 136.0 L 400.0 135.0 L 397.0 133.0 L 393.0 132.0 L 386.0 131.0 L 376.0 131.0 L 365.0 133.0 L 354.0 135.0 L 342.0 140.0 L 333.0 146.0 L 325.0 153.0 L 319.0 161.0 L 315.0 170.0 L 312.0 180.0 L 312.0 190.0 L 313.0 199.0 L 317.0 208.0 L 322.0 215.0 L 330.0 221.0 L 341.0 225.0 L 354.0 228.0 L 374.0 226.0 L 402.0 218.0" scribmaster:penstyle="draw" style="stroke:#000000;stroke-width:5.0;stroke-linejoin:round;stroke-linecap:round;stroke-opacity:1.0;fill:none" /></g></g></svg>