<?xml version='1.0' encoding='UTF-8' standalone='no' ?><svg xmlns="http://www.w3.org/2000/svg" xmlns:scribmaster="http://scribmaster.com/scribmaster" xmlns:sodipodi="http://sodipodi.sourceforge.net/DTD/sodipodi-0.dtd" xmlns:inkscape="http://www.inkscape.org/namespaces/inkscape" xmlns:xlink="http://www.w3.org/1999/xlink" version="1.2" width="800" height="520"><sodipodi:namedview id="ScribMaster" /><filter id="blur"><feGaussianBlur stdDeviation="5.0" /></filter><defs /><g id="1620598810815" transform="matrix(1,0,0,1,0,0)" style="opacity:1.0"><g id="1620536817093" inkscape:groupmode="layer" transform="matrix(1,0,0,1,0,0)" style="opacity:1.0"><path transform="matrix(1,0,0,1,0,0)" d="M 400.0 84.0 L 398.0 83.0 L 397.0 83.0 L 396.0 84.0 L 395.0 85.0 L 394.0 86.0 L 392.0 87.0 L 391.0 88.0 L 389.0 91.0 L 387.0 93.0 L 385.0 96.0 L 382.0 98.0 L 380.0 101.0 L 379.0 104.0 L 377.0 107.0 L 375.0 110.0 L 375.0 113.0 L 374.0 117.0 L 374.0 121.0 L 374.0 124.0 L 374.0 128.0 L 374.0 134.0 L 374.0 140.0 L 374.0 146.0 L 374.0 153.0 L 374.0 163.0 L 373.0 171.0 L 372.0 180.0 L 371.0 188.0 L 370.0 198.0 L 370.0 207.0 L 368.0 215.0 L 367.0 224.0 L 365.0 234.0 L 364.0 243.0 L 363.0 252.0 L 361.0 260.0 L 360.0 267.0 L 359.0 273.0 L 359.0 278.0 L 358.0 281.0 L 359.0 283.0 L 359.0 284.0 L 360.0 285.0" scribmaster:penstyle="draw" style="stroke:#000000;stroke-width:5.0;stroke-linejoin:round;stroke-linecap:round;stroke-opacity:1.0;fill:none" /><path transform="matrix(1,0,0,1,0,0)" d="M 340.0 216.0 L 341.0 215.0 L 344.0 214.0 L 352.0 212.0 L 366.0 208.0 L 396.0 199.0" scribmaster:penstyle="draw" style="stroke:#000000;stroke-width:5.0;stroke-linejoin:round;stroke-linecap:round;stroke-opacity:1.0;fill:none" /></g></g></svg>