<?xml version='1.0' encoding='UTF-8' standalone='no' ?><svg xmlns="http://www.w3.org/2000/svg" xmlns:scribmaster="http://scribmaster.com/scribmaster" xmlns:sodipodi="http://sodipodi.sourceforge.net/DTD/sodipodi-0.dtd" xmlns:inkscape="http://www.inkscape.org/namespaces/inkscape" xmlns:xlink="http://www.w3.org/1999/xlink" version="1.2" width="800" height="520"><sodipodi:namedview id="ScribMaster" /><filter id="blur"><feGaussianBlur stdDeviation="5.0" /></filter><defs /><g id="1620599029727" transform="matrix(1,0,0,1,0,0)" style="opacity:1.0"><g id="1620536817093" inkscape:groupmode="layer" transform="matrix(1,0,0,1,0,0)" style="opacity:1.0"><path transform="matrix(1,0,0,1,0,0)" d="M 313.0 177.0 L 313.0 178.0 L 312.0 180.0 L 312.0 183.0 L 311.0 188.0 L 310.0 197.0 L 309.0 210.0 L 306.0 223.0 L 304.0 236.0 L 301.0 248.0 L 299.0 258.0 L 298.0 267.0 L 296.0 275.0 L 295.0 281.0 L 294.0 286.0 L 293.0 288.0 L 293.0 289.0 L 293.0 290.0 L 293.0 289.0 L 294.0 288.0 L 294.0 287.0 L 295.0 283.0 L 296.0 278.0 L 299.0 269.0 L 303.0 256.0 L 309.0 243.0 L 316.0 229.0 L 325.0 213.0 L 335.0 197.0 L 343.0 184.0 L 351.0 175.0 L 357.0 168.0 L 362.0 163.0 L 366.0 159.0 L 370.0 158.0 L 373.0 158.0 L 375.0 159.0 L 377.0 161.0 L 379.0 164.0 L 381.0 168.0 L 383.0 174.0 L 385.0 181.0 L 388.0 192.0 L 390.0 204.0 L 393.0 218.0 L 394.0 230.0 L 396.0 242.0 L 397.0 254.0 L 399.0 265.0 L 400.0 274.0 L 400.0 283.0 L 400.0 289.0 L 400.0 293.0 L 400.0 296.0 L 401.0 298.0 L 403.0 298.0 L 404.0 297.0 L 406.0 297.0" scribmaster:penstyle="draw" style="stroke:#000000;stroke-width:5.0;stroke-linejoin:round;stroke-linecap:round;stroke-opacity:1.0;fill:none" /></g></g></svg>