<?xml version='1.0' encoding='UTF-8' standalone='no' ?><svg xmlns="http://www.w3.org/2000/svg" xmlns:scribmaster="http://scribmaster.com/scribmaster" xmlns:sodipodi="http://sodipodi.sourceforge.net/DTD/sodipodi-0.dtd" xmlns:inkscape="http://www.inkscape.org/namespaces/inkscape" xmlns:xlink="http://www.w3.org/1999/xlink" version="1.2" width="800" height="520"><sodipodi:namedview id="ScribMaster" /><filter id="blur"><feGaussianBlur stdDeviation="5.0" /></filter><defs /><g id="1620599043350" transform="matrix(1,0,0,1,0,0)" style="opacity:1.0"><g id="1620536817093" inkscape:groupmode="layer" transform="matrix(1,0,0,1,0,0)" style="opacity:1.0"><path transform="matrix(1,0,0,1,0,0)" d="M 355.0 202.0 L 354.0 201.0 L 353.0 200.0 L 352.0 200.0 L 351.0 201.0 L 349.0 201.0 L 347.0 203.0 L 343.0 206.0 L 340.0 209.0 L 334.0 217.0 L 328.0 225.0 L 323.0 233.0 L 319.0 242.0 L 316.0 250.0 L 314.0 258.0 L 313.0 267.0 L 313.0 276.0 L 316.0 285.0 L 320.0 295.0 L 325.0 305.0 L 333.0 313.0 L 344.0 320.0 L 355.0 324.0 L 365.0 325.0 L 374.0 321.0 L 383.0 315.0 L 393.0 308.0 L 403.0 298.0 L 411.0 285.0 L 418.0 273.0 L 423.0 261.0 L 426.0 246.0 L 428.0 233.0 L 427.0 222.0 L 425.0 213.0 L 421.0 206.0 L 415.0 200.0 L 408.0 197.0 L 401.0 195.0 L 393.0 195.0 L 386.0 195.0 L 376.0 197.0 L 365.0 200.0 L 354.0 204.0" scribmaster:penstyle="draw" style="stroke:#000000;stroke-width:5.0;stroke-linejoin:round;stroke-linecap:round;stroke-opacity:1.0;fill:none" /></g></g></svg>