<?xml version='1.0' encoding='UTF-8' standalone='no' ?><svg xmlns="http://www.w3.org/2000/svg" xmlns:scribmaster="http://scribmaster.com/scribmaster" xmlns:sodipodi="http://sodipodi.sourceforge.net/DTD/sodipodi-0.dtd" xmlns:inkscape="http://www.inkscape.org/namespaces/inkscape" xmlns:xlink="http://www.w3.org/1999/xlink" version="1.2" width="800" height="520"><sodipodi:namedview id="ScribMaster" /><filter id="blur"><feGaussianBlur stdDeviation="5.0" /></filter><defs /><g id="1620599123086" transform="matrix(1,0,0,1,0,0)" style="opacity:1.0"><g id="1620536817093" inkscape:groupmode="layer" transform="matrix(1,0,0,1,0,0)" style="opacity:1.0"><path transform="matrix(1,0,0,1,0,0)" d="M 339.0 181.0 L 338.0 182.0 L 338.0 183.0 L 338.0 186.0 L 338.0 189.0 L 339.0 194.0 L 340.0 205.0 L 341.0 221.0 L 342.0 238.0 L 343.0 258.0 L 345.0 274.0 L 346.0 287.0 L 346.0 297.0 L 345.0 303.0 L 345.0 307.0 L 344.0 307.0 L 343.0 304.0 L 342.0 299.0 L 341.0 292.0 L 341.0 279.0 L 343.0 255.0 L 348.0 228.0 L 357.0 201.0 L 370.0 179.0 L 383.0 165.0 L 395.0 156.0 L 406.0 152.0 L 417.0 151.0 L 428.0 151.0 L 441.0 153.0 L 452.0 154.0" scribmaster:penstyle="draw" style="stroke:#000000;stroke-width:5.0;stroke-linejoin:round;stroke-linecap:round;stroke-opacity:1.0;fill:none" /></g></g></svg>