<?xml version='1.0' encoding='UTF-8' standalone='no' ?><svg xmlns="http://www.w3.org/2000/svg" xmlns:scribmaster="http://scribmaster.com/scribmaster" xmlns:sodipodi="http://sodipodi.sourceforge.net/DTD/sodipodi-0.dtd" xmlns:inkscape="http://www.inkscape.org/namespaces/inkscape" xmlns:xlink="http://www.w3.org/1999/xlink" version="1.2" width="800" height="520"><sodipodi:namedview id="ScribMaster" /><filter id="blur"><feGaussianBlur stdDeviation="5.0" /></filter><defs /><g id="1620599169281" transform="matrix(1,0,0,1,0,0)" style="opacity:1.0"><g id="1620536817093" inkscape:groupmode="layer" transform="matrix(1,0,0,1,0,0)" style="opacity:1.0"><path transform="matrix(1,0,0,1,0,0)" d="M 310.0 159.0 L 308.0 159.0 L 307.0 162.0 L 305.0 166.0 L 304.0 173.0 L 301.0 182.0 L 299.0 193.0 L 297.0 207.0 L 296.0 219.0 L 295.0 233.0 L 296.0 245.0 L 298.0 257.0 L 300.0 267.0 L 303.0 277.0 L 307.0 285.0 L 312.0 292.0 L 318.0 296.0 L 324.0 299.0 L 328.0 300.0 L 333.0 299.0 L 338.0 297.0 L 345.0 294.0 L 351.0 290.0 L 358.0 283.0 L 365.0 275.0 L 372.0 266.0 L 380.0 255.0 L 386.0 243.0 L 394.0 228.0 L 399.0 215.0 L 403.0 199.0 L 405.0 186.0 L 407.0 175.0 L 408.0 166.0 L 408.0 158.0 L 407.0 151.0 L 407.0 148.0 L 407.0 147.0 L 406.0 146.0 L 406.0 145.0 L 405.0 145.0 L 405.0 147.0 L 405.0 148.0 L 405.0 150.0 L 405.0 154.0 L 405.0 164.0 L 406.0 181.0 L 407.0 203.0 L 410.0 230.0 L 412.0 252.0 L 416.0 271.0 L 420.0 285.0 L 424.0 295.0 L 429.0 302.0 L 437.0 304.0 L 448.0 302.0" scribmaster:penstyle="draw" style="stroke:#000000;stroke-width:5.0;stroke-linejoin:round;stroke-linecap:round;stroke-opacity:1.0;fill:none" /></g></g></svg>