<?xml version='1.0' encoding='UTF-8' standalone='no' ?><svg xmlns="http://www.w3.org/2000/svg" xmlns:scribmaster="http://scribmaster.com/scribmaster" xmlns:sodipodi="http://sodipodi.sourceforge.net/DTD/sodipodi-0.dtd" xmlns:inkscape="http://www.inkscape.org/namespaces/inkscape" xmlns:xlink="http://www.w3.org/1999/xlink" version="1.2" width="800" height="520"><sodipodi:namedview id="ScribMaster" /><filter id="blur"><feGaussianBlur stdDeviation="5.0" /></filter><defs /><g id="1620599179243" transform="matrix(1,0,0,1,0,0)" style="opacity:1.0"><g id="1620536817093" inkscape:groupmode="layer" transform="matrix(1,0,0,1,0,0)" style="opacity:1.0"><path transform="matrix(1,0,0,1,0,0)" d="M 310.0 185.0 L 310.0 186.0 L 311.0 187.0 L 313.0 189.0 L 315.0 193.0 L 317.0 198.0 L 321.0 206.0 L 327.0 224.0 L 334.0 241.0 L 340.0 262.0 L 345.0 280.0 L 352.0 296.0 L 358.0 308.0 L 361.0 317.0 L 365.0 323.0 L 368.0 326.0 L 370.0 325.0 L 373.0 322.0 L 375.0 317.0 L 379.0 309.0 L 383.0 300.0 L 391.0 283.0 L 403.0 253.0 L 417.0 223.0 L 430.0 199.0 L 438.0 186.0 L 443.0 178.0 L 450.0 173.0 L 456.0 170.0 L 461.0 166.0" scribmaster:penstyle="draw" style="stroke:#000000;stroke-width:5.0;stroke-linejoin:round;stroke-linecap:round;stroke-opacity:1.0;fill:none" /></g></g></svg>