<?xml version='1.0' encoding='UTF-8' standalone='no' ?><svg xmlns="http://www.w3.org/2000/svg" xmlns:scribmaster="http://scribmaster.com/scribmaster" xmlns:sodipodi="http://sodipodi.sourceforge.net/DTD/sodipodi-0.dtd" xmlns:inkscape="http://www.inkscape.org/namespaces/inkscape" xmlns:xlink="http://www.w3.org/1999/xlink" version="1.2" width="800" height="520"><sodipodi:namedview id="ScribMaster" /><filter id="blur"><feGaussianBlur stdDeviation="5.0" /></filter><defs /><g id="1620599212449" transform="matrix(1,0,0,1,0,0)" style="opacity:1.0"><g id="1620536817093" inkscape:groupmode="layer" transform="matrix(1,0,0,1,0,0)" style="opacity:1.0"><path transform="matrix(1,0,0,1,0,0)" d="M 288.0 133.0 L 289.0 136.0 L 291.0 139.0 L 293.0 144.0 L 296.0 150.0 L 299.0 159.0 L 303.0 171.0 L 306.0 182.0 L 309.0 193.0 L 312.0 202.0 L 315.0 212.0 L 317.0 220.0 L 320.0 228.0 L 322.0 234.0 L 324.0 239.0 L 325.0 243.0 L 327.0 246.0 L 328.0 248.0 L 329.0 249.0 L 330.0 249.0 L 331.0 249.0 L 333.0 248.0 L 335.0 246.0 L 336.0 243.0 L 338.0 240.0 L 340.0 236.0 L 344.0 229.0 L 347.0 221.0 L 350.0 213.0 L 353.0 204.0 L 355.0 198.0 L 357.0 191.0 L 359.0 186.0 L 360.0 182.0 L 362.0 178.0 L 363.0 176.0 L 363.0 175.0 L 364.0 174.0 L 364.0 173.0 L 365.0 173.0 L 366.0 173.0 L 367.0 174.0 L 368.0 177.0 L 370.0 180.0 L 371.0 183.0 L 373.0 186.0 L 374.0 190.0 L 376.0 194.0 L 378.0 198.0 L 379.0 201.0 L 381.0 204.0 L 383.0 208.0 L 385.0 211.0 L 386.0 213.0 L 388.0 216.0 L 390.0 218.0 L 391.0 219.0 L 393.0 219.0 L 394.0 219.0 L 395.0 218.0 L 397.0 216.0 L 399.0 213.0 L 401.0 209.0 L 404.0 203.0 L 406.0 197.0 L 409.0 190.0 L 411.0 183.0 L 414.0 175.0 L 417.0 168.0 L 419.0 162.0 L 421.0 156.0 L 423.0 151.0 L 425.0 147.0 L 426.0 143.0 L 427.0 140.0 L 428.0 136.0 L 430.0 132.0 L 431.0 128.0 L 432.0 125.0 L 433.0 121.0 L 435.0 118.0" scribmaster:penstyle="draw" style="stroke:#000000;stroke-width:5.0;stroke-linejoin:round;stroke-linecap:round;stroke-opacity:1.0;fill:none" /></g></g></svg>