<?xml version='1.0' encoding='UTF-8' standalone='no' ?><svg xmlns="http://www.w3.org/2000/svg" xmlns:scribmaster="http://scribmaster.com/scribmaster" xmlns:sodipodi="http://sodipodi.sourceforge.net/DTD/sodipodi-0.dtd" xmlns:inkscape="http://www.inkscape.org/namespaces/inkscape" xmlns:xlink="http://www.w3.org/1999/xlink" version="1.2" width="800" height="520"><sodipodi:namedview id="ScribMaster" /><filter id="blur"><feGaussianBlur stdDeviation="5.0" /></filter><defs /><g id="1620599224250" transform="matrix(1,0,0,1,0,0)" style="opacity:1.0"><g id="1620536817093" inkscape:groupmode="layer" transform="matrix(1,0,0,1,0,0)" style="opacity:1.0"><path transform="matrix(1,0,0,1,0,0)" d="M 437.0 132.0 L 436.0 132.0 L 435.0 133.0 L 435.0 135.0 L 433.0 137.0 L 430.0 142.0 L 426.0 150.0 L 420.0 161.0 L 414.0 171.0 L 405.0 184.0 L 397.0 195.0 L 390.0 205.0 L 383.0 214.0 L 375.0 223.0 L 368.0 230.0 L 362.0 237.0 L 356.0 244.0 L 350.0 249.0 L 346.0 253.0 L 342.0 257.0 L 340.0 259.0 L 339.0 260.0 L 338.0 261.0 L 338.0 260.0" scribmaster:penstyle="draw" style="stroke:#000000;stroke-width:5.0;stroke-linejoin:round;stroke-linecap:round;stroke-opacity:1.0;fill:none" /><path transform="matrix(1,0,0,1,0,0)" d="M 354.0 158.0 L 354.0 159.0 L 355.0 160.0 L 356.0 163.0 L 357.0 167.0 L 360.0 173.0 L 365.0 183.0 L 371.0 193.0 L 377.0 203.0 L 385.0 214.0 L 392.0 225.0 L 400.0 234.0 L 407.0 242.0 L 414.0 248.0 L 421.0 252.0 L 428.0 255.0 L 435.0 258.0" scribmaster:penstyle="draw" style="stroke:#000000;stroke-width:5.0;stroke-linejoin:round;stroke-linecap:round;stroke-opacity:1.0;fill:none" /></g></g></svg>