<?xml version='1.0' encoding='UTF-8' standalone='no' ?><svg xmlns="http://www.w3.org/2000/svg" xmlns:scribmaster="http://scribmaster.com/scribmaster" xmlns:sodipodi="http://sodipodi.sourceforge.net/DTD/sodipodi-0.dtd" xmlns:inkscape="http://www.inkscape.org/namespaces/inkscape" xmlns:xlink="http://www.w3.org/1999/xlink" version="1.2" width="800" height="1014"><sodipodi:namedview id="ScribMaster" /><filter id="blur"><feGaussianBlur stdDeviation="5.0" /></filter><defs /><g id="1620599270355" transform="matrix(1,0,0,1,0,0)" style="opacity:1.0"><g id="1620536817093" inkscape:groupmode="layer" transform="matrix(1,0,0,1,0,0)" style="opacity:1.0"><path transform="matrix(1,0,0,1,0,0)" d="M 330.0 163.0 L 331.0 163.0 L 331.0 162.0 L 333.0 161.0 L 335.0 160.0 L 339.0 159.0 L 344.0 158.0 L 349.0 158.0 L 354.0 158.0 L 359.0 158.0 L 364.0 158.0 L 370.0 159.0 L 374.0 159.0 L 379.0 160.0 L 383.0 161.0 L 386.0 163.0 L 388.0 165.0 L 389.0 167.0 L 389.0 170.0 L 386.0 177.0 L 382.0 186.0 L 377.0 195.0 L 370.0 204.0 L 363.0 214.0 L 354.0 225.0 L 346.0 235.0 L 339.0 243.0 L 334.0 250.0 L 330.0 256.0 L 328.0 260.0 L 327.0 263.0 L 328.0 266.0 L 329.0 267.0 L 332.0 268.0 L 335.0 268.0 L 340.0 268.0 L 347.0 267.0 L 359.0 266.0 L 371.0 265.0 L 385.0 263.0 L 402.0 262.0 L 415.0 261.0 L 429.0 261.0 L 442.0 262.0" scribmaster:penstyle="draw" style="stroke:#000000;stroke-width:5.0;stroke-linejoin:round;stroke-linecap:round;stroke-opacity:1.0;fill:none" /></g></g></svg>