<?xml version='1.0' encoding='UTF-8' standalone='no' ?><svg xmlns="http://www.w3.org/2000/svg" xmlns:scribmaster="http://scribmaster.com/scribmaster" xmlns:sodipodi="http://sodipodi.sourceforge.net/DTD/sodipodi-0.dtd" xmlns:inkscape="http://www.inkscape.org/namespaces/inkscape" xmlns:xlink="http://www.w3.org/1999/xlink" version="1.2" width="800" height="1014"><sodipodi:namedview id="ScribMaster" /><filter id="blur"><feGaussianBlur stdDeviation="5.0" /></filter><defs /><g id="1620599305540" transform="matrix(1,0,0,1,0,0)" style="opacity:1.0"><g id="1620536817093" inkscape:groupmode="layer" transform="matrix(1,0,0,1,0,0)" style="opacity:1.0"><path transform="matrix(1,0,0,1,0,0)" d="M 344.0 72.0 L 344.0 70.0 L 344.0 69.0 L 345.0 68.0 L 345.0 69.0 L 345.0 70.0 L 345.0 73.0 L 346.0 76.0 L 346.0 83.0 L 345.0 91.0 L 344.0 100.0 L 343.0 110.0 L 340.0 121.0 L 337.0 134.0 L 332.0 147.0 L 328.0 161.0 L 324.0 175.0 L 320.0 188.0 L 315.0 199.0 L 311.0 208.0 L 307.0 218.0 L 303.0 226.0 L 299.0 234.0 L 296.0 242.0 L 294.0 248.0 L 291.0 253.0 L 289.0 258.0 L 288.0 261.0 L 287.0 263.0 L 286.0 264.0 L 286.0 266.0 L 285.0 267.0 L 285.0 268.0 L 285.0 269.0 L 285.0 270.0" scribmaster:penstyle="draw" style="stroke:#000000;stroke-width:5.0;stroke-linejoin:round;stroke-linecap:round;stroke-opacity:1.0;fill:none" /><path transform="matrix(1,0,0,1,0,0)" d="M 342.0 57.0 L 342.0 58.0 L 342.0 59.0 L 343.0 61.0 L 344.0 63.0 L 345.0 67.0 L 347.0 70.0 L 349.0 75.0 L 353.0 82.0 L 356.0 90.0 L 360.0 98.0 L 364.0 106.0 L 369.0 114.0 L 374.0 124.0 L 379.0 134.0 L 383.0 144.0 L 387.0 155.0 L 392.0 167.0 L 396.0 179.0 L 400.0 190.0 L 402.0 200.0 L 405.0 209.0 L 408.0 218.0 L 411.0 227.0 L 414.0 235.0 L 416.0 243.0 L 419.0 249.0 L 421.0 255.0 L 424.0 260.0 L 425.0 263.0 L 426.0 266.0 L 427.0 268.0 L 428.0 269.0 L 428.0 271.0 L 429.0 272.0 L 429.0 273.0 L 429.0 274.0" scribmaster:penstyle="draw" style="stroke:#000000;stroke-width:5.0;stroke-linejoin:round;stroke-linecap:round;stroke-opacity:1.0;fill:none" /><path transform="matrix(1,0,0,1,0,0)" d="M 320.0 200.0 L 321.0 200.0 L 323.0 200.0 L 326.0 201.0 L 330.0 202.0 L 337.0 202.0 L 346.0 202.0 L 360.0 201.0 L 375.0 200.0 L 390.0 199.0 L 409.0 196.0 L 426.0 191.0" scribmaster:penstyle="draw" style="stroke:#000000;stroke-width:5.0;stroke-linejoin:round;stroke-linecap:round;stroke-opacity:1.0;fill:none" /></g></g></svg>