<?xml version='1.0' encoding='UTF-8' standalone='no' ?><svg xmlns="http://www.w3.org/2000/svg" xmlns:scribmaster="http://scribmaster.com/scribmaster" xmlns:sodipodi="http://sodipodi.sourceforge.net/DTD/sodipodi-0.dtd" xmlns:inkscape="http://www.inkscape.org/namespaces/inkscape" xmlns:xlink="http://www.w3.org/1999/xlink" version="1.2" width="800" height="520"><sodipodi:namedview id="ScribMaster" /><filter id="blur"><feGaussianBlur stdDeviation="5.0" /></filter><defs /><g id="1620599324121" transform="matrix(1,0,0,1,0,0)" style="opacity:1.0"><g id="1620536817093" inkscape:groupmode="layer" transform="matrix(1,0,0,1,0,0)" style="opacity:1.0"><path transform="matrix(1,0,0,1,0,0)" d="M 310.0 92.0 L 309.0 93.0 L 309.0 96.0 L 309.0 100.0 L 310.0 106.0 L 311.0 114.0 L 312.0 125.0 L 313.0 138.0 L 315.0 151.0 L 316.0 165.0 L 317.0 178.0 L 318.0 193.0 L 319.0 207.0 L 319.0 223.0 L 320.0 237.0 L 320.0 248.0 L 320.0 258.0 L 321.0 268.0 L 321.0 275.0 L 322.0 282.0 L 322.0 288.0 L 322.0 291.0 L 321.0 293.0 L 321.0 295.0 L 322.0 294.0 L 323.0 292.0" scribmaster:penstyle="draw" style="stroke:#000000;stroke-width:5.0;stroke-linejoin:round;stroke-linecap:round;stroke-opacity:1.0;fill:none" /><path transform="matrix(1,0,0,1,0,0)" d="M 325.0 90.0 L 325.0 91.0 L 325.0 92.0 L 326.0 92.0 L 329.0 93.0 L 331.0 93.0 L 335.0 94.0 L 339.0 95.0 L 344.0 97.0 L 349.0 98.0 L 356.0 100.0 L 363.0 102.0 L 371.0 106.0 L 379.0 109.0 L 386.0 113.0 L 392.0 116.0 L 397.0 120.0 L 401.0 124.0 L 404.0 129.0 L 406.0 135.0 L 407.0 142.0 L 406.0 149.0 L 404.0 155.0 L 401.0 162.0 L 398.0 168.0 L 393.0 175.0 L 387.0 182.0 L 381.0 188.0 L 374.0 193.0 L 367.0 198.0 L 361.0 201.0 L 355.0 204.0 L 350.0 207.0 L 345.0 208.0 L 341.0 209.0 L 338.0 210.0 L 336.0 210.0 L 335.0 211.0 L 333.0 211.0 L 332.0 211.0 L 331.0 211.0 L 330.0 211.0 L 331.0 211.0 L 332.0 211.0 L 334.0 210.0 L 337.0 210.0 L 340.0 210.0 L 345.0 210.0 L 353.0 210.0 L 360.0 210.0 L 367.0 210.0 L 375.0 210.0 L 383.0 211.0 L 390.0 211.0 L 398.0 212.0 L 404.0 213.0 L 410.0 215.0 L 416.0 217.0 L 421.0 219.0 L 425.0 222.0 L 426.0 225.0 L 427.0 228.0 L 427.0 231.0 L 426.0 235.0 L 424.0 239.0 L 421.0 243.0 L 416.0 247.0 L 410.0 252.0 L 399.0 258.0 L 388.0 263.0 L 374.0 269.0 L 358.0 275.0 L 342.0 280.0 L 330.0 284.0 L 321.0 287.0 L 315.0 289.0" scribmaster:penstyle="draw" style="stroke:#000000;stroke-width:5.0;stroke-linejoin:round;stroke-linecap:round;stroke-opacity:1.0;fill:none" /></g></g></svg>