<?xml version='1.0' encoding='UTF-8' standalone='no' ?><svg xmlns="http://www.w3.org/2000/svg" xmlns:scribmaster="http://scribmaster.com/scribmaster" xmlns:sodipodi="http://sodipodi.sourceforge.net/DTD/sodipodi-0.dtd" xmlns:inkscape="http://www.inkscape.org/namespaces/inkscape" xmlns:xlink="http://www.w3.org/1999/xlink" version="1.2" width="800" height="520"><sodipodi:namedview id="ScribMaster" /><filter id="blur"><feGaussianBlur stdDeviation="5.0" /></filter><defs /><g id="1620599339334" transform="matrix(1,0,0,1,0,0)" style="opacity:1.0"><g id="1620536817093" inkscape:groupmode="layer" transform="matrix(1,0,0,1,0,0)" style="opacity:1.0"><path transform="matrix(1,0,0,1,0,0)" d="M 371.0 76.0 L 371.0 75.0 L 371.0 74.0 L 371.0 73.0 L 372.0 73.0 L 372.0 72.0 L 373.0 71.0 L 373.0 70.0 L 373.0 69.0 L 374.0 68.0 L 374.0 67.0 L 373.0 67.0 L 372.0 66.0 L 370.0 65.0 L 366.0 65.0 L 359.0 67.0 L 347.0 70.0 L 334.0 74.0 L 319.0 81.0 L 302.0 91.0 L 286.0 105.0 L 272.0 119.0 L 263.0 131.0 L 255.0 146.0 L 249.0 162.0 L 245.0 178.0 L 243.0 195.0 L 243.0 210.0 L 246.0 223.0 L 250.0 235.0 L 256.0 246.0 L 264.0 254.0 L 273.0 262.0 L 285.0 265.0 L 298.0 268.0 L 315.0 269.0 L 333.0 268.0 L 353.0 266.0 L 371.0 262.0 L 393.0 256.0 L 413.0 248.0" scribmaster:penstyle="draw" style="stroke:#000000;stroke-width:5.0;stroke-linejoin:round;stroke-linecap:round;stroke-opacity:1.0;fill:none" /></g></g></svg>