<?xml version='1.0' encoding='UTF-8' standalone='no' ?><svg xmlns="http://www.w3.org/2000/svg" xmlns:scribmaster="http://scribmaster.com/scribmaster" xmlns:sodipodi="http://sodipodi.sourceforge.net/DTD/sodipodi-0.dtd" xmlns:inkscape="http://www.inkscape.org/namespaces/inkscape" xmlns:xlink="http://www.w3.org/1999/xlink" version="1.2" width="800" height="520"><sodipodi:namedview id="ScribMaster" /><filter id="blur"><feGaussianBlur stdDeviation="5.0" /></filter><defs /><g id="1620599364331" transform="matrix(1,0,0,1,0,0)" style="opacity:1.0"><g id="1620536817093" inkscape:groupmode="layer" transform="matrix(1,0,0,1,0,0)" style="opacity:1.0"><path transform="matrix(1,0,0,1,0,0)" d="M 310.0 86.0 L 309.0 87.0 L 308.0 88.0 L 308.0 91.0 L 307.0 97.0 L 306.0 106.0 L 306.0 119.0 L 305.0 136.0 L 305.0 150.0 L 304.0 165.0 L 304.0 180.0 L 304.0 194.0 L 304.0 205.0 L 304.0 216.0 L 303.0 226.0 L 303.0 237.0 L 303.0 246.0 L 303.0 254.0 L 303.0 262.0 L 303.0 269.0 L 303.0 275.0 L 303.0 280.0 L 304.0 283.0 L 304.0 284.0 L 304.0 285.0 L 304.0 286.0 L 305.0 285.0" scribmaster:penstyle="draw" style="stroke:#000000;stroke-width:5.0;stroke-linejoin:round;stroke-linecap:round;stroke-opacity:1.0;fill:none" /><path transform="matrix(1,0,0,1,0,0)" d="M 298.0 99.0 L 298.0 98.0 L 298.0 97.0 L 299.0 97.0 L 300.0 96.0 L 301.0 97.0 L 304.0 97.0 L 310.0 98.0 L 317.0 99.0 L 328.0 101.0 L 339.0 103.0 L 350.0 106.0 L 363.0 108.0 L 374.0 112.0 L 384.0 116.0 L 392.0 121.0 L 400.0 127.0 L 407.0 133.0 L 412.0 141.0 L 416.0 150.0 L 419.0 159.0 L 420.0 168.0 L 420.0 178.0 L 418.0 189.0 L 415.0 198.0 L 410.0 207.0 L 405.0 216.0 L 397.0 225.0 L 387.0 236.0 L 376.0 245.0 L 365.0 252.0 L 355.0 258.0 L 344.0 262.0 L 334.0 266.0 L 324.0 270.0 L 317.0 273.0 L 313.0 275.0 L 312.0 275.0" scribmaster:penstyle="draw" style="stroke:#000000;stroke-width:5.0;stroke-linejoin:round;stroke-linecap:round;stroke-opacity:1.0;fill:none" /></g></g></svg>