<?xml version='1.0' encoding='UTF-8' standalone='no' ?><svg xmlns="http://www.w3.org/2000/svg" xmlns:scribmaster="http://scribmaster.com/scribmaster" xmlns:sodipodi="http://sodipodi.sourceforge.net/DTD/sodipodi-0.dtd" xmlns:inkscape="http://www.inkscape.org/namespaces/inkscape" xmlns:xlink="http://www.w3.org/1999/xlink" version="1.2" width="800" height="1014"><sodipodi:namedview id="ScribMaster" /><filter id="blur"><feGaussianBlur stdDeviation="5.0" /></filter><defs /><g id="1620599405137" transform="matrix(1,0,0,1,0,0)" style="opacity:1.0"><g id="1620536817093" inkscape:groupmode="layer" transform="matrix(1,0,0,1,0,0)" style="opacity:1.0"><path transform="matrix(1,0,0,1,0,0)" d="M 292.0 89.0 L 291.0 88.0 L 291.0 89.0 L 292.0 92.0 L 292.0 95.0 L 293.0 98.0 L 294.0 102.0 L 295.0 107.0 L 296.0 113.0 L 298.0 121.0 L 300.0 132.0 L 302.0 144.0 L 304.0 156.0 L 306.0 169.0 L 307.0 183.0 L 308.0 195.0 L 310.0 207.0 L 310.0 219.0 L 310.0 231.0 L 310.0 241.0 L 310.0 250.0 L 310.0 259.0 L 310.0 267.0 L 310.0 274.0 L 310.0 280.0 L 310.0 286.0 L 310.0 290.0 L 310.0 293.0 L 310.0 295.0 L 310.0 297.0 L 310.0 298.0 L 310.0 299.0 L 311.0 300.0 L 311.0 299.0 L 310.0 299.0" scribmaster:penstyle="draw" style="stroke:#000000;stroke-width:5.0;stroke-linejoin:round;stroke-linecap:round;stroke-opacity:1.0;fill:none" /><path transform="matrix(1,0,0,1,0,0)" d="M 287.0 93.0 L 288.0 93.0 L 289.0 93.0 L 291.0 93.0 L 294.0 93.0 L 299.0 92.0 L 306.0 92.0 L 314.0 90.0 L 322.0 89.0 L 331.0 88.0 L 339.0 87.0 L 346.0 86.0 L 354.0 85.0 L 361.0 84.0 L 367.0 84.0 L 373.0 84.0 L 377.0 84.0 L 380.0 84.0 L 382.0 84.0 L 384.0 85.0 L 385.0 85.0 L 386.0 85.0 L 387.0 86.0 L 388.0 86.0" scribmaster:penstyle="draw" style="stroke:#000000;stroke-width:5.0;stroke-linejoin:round;stroke-linecap:round;stroke-opacity:1.0;fill:none" /><path transform="matrix(1,0,0,1,0,0)" d="M 322.0 207.0 L 321.0 207.0 L 320.0 207.0 L 323.0 206.0 L 326.0 205.0 L 331.0 204.0 L 338.0 201.0 L 345.0 198.0 L 355.0 194.0 L 364.0 189.0 L 372.0 186.0 L 380.0 183.0 L 387.0 180.0 L 393.0 178.0 L 399.0 176.0 L 403.0 175.0 L 407.0 174.0 L 409.0 174.0 L 411.0 174.0 L 412.0 174.0 L 414.0 175.0" scribmaster:penstyle="draw" style="stroke:#000000;stroke-width:5.0;stroke-linejoin:round;stroke-linecap:round;stroke-opacity:1.0;fill:none" /><path transform="matrix(1,0,0,1,0,0)" d="M 327.0 299.0 L 328.0 298.0 L 329.0 298.0 L 332.0 297.0 L 335.0 297.0 L 342.0 295.0 L 351.0 292.0 L 363.0 288.0 L 377.0 285.0 L 390.0 281.0 L 405.0 277.0 L 420.0 273.0 L 433.0 271.0 L 445.0 269.0" scribmaster:penstyle="draw" style="stroke:#000000;stroke-width:5.0;stroke-linejoin:round;stroke-linecap:round;stroke-opacity:1.0;fill:none" /></g></g></svg>