<?xml version='1.0' encoding='UTF-8' standalone='no' ?><svg xmlns="http://www.w3.org/2000/svg" xmlns:scribmaster="http://scribmaster.com/scribmaster" xmlns:sodipodi="http://sodipodi.sourceforge.net/DTD/sodipodi-0.dtd" xmlns:inkscape="http://www.inkscape.org/namespaces/inkscape" xmlns:xlink="http://www.w3.org/1999/xlink" version="1.2" width="800" height="520"><sodipodi:namedview id="ScribMaster" /><filter id="blur"><feGaussianBlur stdDeviation="5.0" /></filter><defs /><g id="1620599432931" transform="matrix(1,0,0,1,0,0)" style="opacity:1.0"><g id="1620536817093" inkscape:groupmode="layer" transform="matrix(1,0,0,1,0,0)" style="opacity:1.0"><path transform="matrix(1,0,0,1,0,0)" d="M 279.0 94.0 L 278.0 93.0 L 277.0 93.0 L 277.0 92.0 L 277.0 93.0 L 277.0 96.0 L 278.0 100.0 L 279.0 105.0 L 280.0 111.0 L 280.0 120.0 L 281.0 132.0 L 282.0 144.0 L 283.0 155.0 L 284.0 170.0 L 285.0 187.0 L 285.0 200.0 L 285.0 213.0 L 285.0 225.0 L 285.0 237.0 L 285.0 247.0 L 286.0 256.0 L 287.0 264.0 L 287.0 271.0 L 288.0 278.0 L 288.0 283.0 L 289.0 287.0 L 290.0 289.0 L 290.0 291.0 L 291.0 292.0 L 291.0 293.0 L 292.0 293.0 L 292.0 294.0 L 292.0 293.0" scribmaster:penstyle="draw" style="stroke:#000000;stroke-width:5.0;stroke-linejoin:round;stroke-linecap:round;stroke-opacity:1.0;fill:none" /><path transform="matrix(1,0,0,1,0,0)" d="M 289.0 87.0 L 288.0 87.0 L 287.0 87.0 L 286.0 87.0 L 285.0 87.0 L 284.0 87.0 L 283.0 87.0 L 282.0 87.0 L 283.0 87.0 L 284.0 87.0 L 287.0 87.0 L 291.0 87.0 L 297.0 87.0 L 308.0 85.0 L 320.0 83.0 L 333.0 82.0 L 347.0 79.0 L 360.0 77.0 L 373.0 74.0 L 383.0 72.0 L 393.0 70.0 L 401.0 69.0 L 407.0 68.0 L 412.0 68.0 L 415.0 68.0 L 417.0 68.0 L 418.0 69.0 L 418.0 70.0 L 418.0 72.0 L 417.0 73.0 L 417.0 75.0" scribmaster:penstyle="draw" style="stroke:#000000;stroke-width:5.0;stroke-linejoin:round;stroke-linecap:round;stroke-opacity:1.0;fill:none" /><path transform="matrix(1,0,0,1,0,0)" d="M 292.0 181.0 L 292.0 180.0 L 291.0 180.0 L 291.0 179.0 L 292.0 178.0 L 293.0 178.0 L 296.0 177.0 L 301.0 177.0 L 310.0 175.0 L 322.0 173.0 L 336.0 171.0 L 351.0 168.0 L 370.0 162.0 L 387.0 158.0 L 403.0 153.0 L 419.0 150.0 L 434.0 149.0" scribmaster:penstyle="draw" style="stroke:#000000;stroke-width:5.0;stroke-linejoin:round;stroke-linecap:round;stroke-opacity:1.0;fill:none" /></g></g></svg>