<?xml version='1.0' encoding='UTF-8' standalone='no' ?><svg xmlns="http://www.w3.org/2000/svg" xmlns:scribmaster="http://scribmaster.com/scribmaster" xmlns:sodipodi="http://sodipodi.sourceforge.net/DTD/sodipodi-0.dtd" xmlns:inkscape="http://www.inkscape.org/namespaces/inkscape" xmlns:xlink="http://www.w3.org/1999/xlink" version="1.2" width="800" height="520"><sodipodi:namedview id="ScribMaster" /><filter id="blur"><feGaussianBlur stdDeviation="5.0" /></filter><defs /><g id="1620599501589" transform="matrix(1,0,0,1,0,0)" style="opacity:1.0"><g id="1620536817093" inkscape:groupmode="layer" transform="matrix(1,0,0,1,0,0)" style="opacity:1.0"><path transform="matrix(1,0,0,1,0,0)" d="M 280.0 91.0 L 281.0 91.0 L 282.0 91.0 L 285.0 90.0 L 292.0 89.0 L 303.0 88.0 L 318.0 87.0 L 333.0 87.0 L 350.0 86.0 L 367.0 84.0 L 383.0 83.0 L 396.0 81.0 L 410.0 79.0 L 421.0 76.0 L 432.0 73.0 L 441.0 71.0 L 449.0 69.0 L 454.0 69.0 L 458.0 69.0 L 459.0 70.0" scribmaster:penstyle="draw" style="stroke:#000000;stroke-width:5.0;stroke-linejoin:round;stroke-linecap:round;stroke-opacity:1.0;fill:none" /><path transform="matrix(1,0,0,1,0,0)" d="M 367.0 106.0 L 367.0 107.0 L 366.0 108.0 L 366.0 110.0 L 365.0 113.0 L 365.0 117.0 L 365.0 122.0 L 364.0 132.0 L 362.0 142.0 L 360.0 154.0 L 360.0 168.0 L 358.0 180.0 L 356.0 190.0 L 355.0 200.0 L 353.0 210.0 L 352.0 219.0 L 351.0 228.0 L 350.0 236.0 L 350.0 243.0 L 350.0 248.0 L 350.0 253.0 L 351.0 256.0 L 352.0 258.0 L 353.0 259.0 L 354.0 259.0 L 355.0 260.0" scribmaster:penstyle="draw" style="stroke:#000000;stroke-width:5.0;stroke-linejoin:round;stroke-linecap:round;stroke-opacity:1.0;fill:none" /><path transform="matrix(1,0,0,1,0,0)" d="M 284.0 296.0 L 285.0 295.0 L 288.0 294.0 L 295.0 292.0 L 310.0 288.0 L 328.0 284.0 L 348.0 280.0 L 370.0 275.0 L 386.0 272.0 L 405.0 269.0 L 424.0 267.0 L 438.0 264.0 L 460.0 261.0" scribmaster:penstyle="draw" style="stroke:#000000;stroke-width:5.0;stroke-linejoin:round;stroke-linecap:round;stroke-opacity:1.0;fill:none" /></g></g></svg>