<?xml version='1.0' encoding='UTF-8' standalone='no' ?><svg xmlns="http://www.w3.org/2000/svg" xmlns:scribmaster="http://scribmaster.com/scribmaster" xmlns:sodipodi="http://sodipodi.sourceforge.net/DTD/sodipodi-0.dtd" xmlns:inkscape="http://www.inkscape.org/namespaces/inkscape" xmlns:xlink="http://www.w3.org/1999/xlink" version="1.2" width="800" height="520"><sodipodi:namedview id="ScribMaster" /><filter id="blur"><feGaussianBlur stdDeviation="5.0" /></filter><defs /><g id="1620599522027" transform="matrix(1,0,0,1,0,0)" style="opacity:1.0"><g id="1620536817093" inkscape:groupmode="layer" transform="matrix(1,0,0,1,0,0)" style="opacity:1.0"><path transform="matrix(1,0,0,1,0,0)" d="M 312.0 79.0 L 312.0 80.0 L 311.0 80.0 L 310.0 81.0 L 310.0 82.0 L 309.0 83.0 L 308.0 84.0 L 309.0 84.0 L 310.0 84.0 L 312.0 84.0 L 315.0 84.0 L 320.0 83.0 L 326.0 83.0 L 333.0 82.0 L 340.0 82.0 L 348.0 80.0 L 359.0 79.0 L 370.0 78.0 L 380.0 77.0 L 390.0 77.0 L 400.0 76.0 L 409.0 76.0 L 417.0 75.0 L 424.0 75.0 L 430.0 75.0 L 436.0 75.0 L 440.0 76.0 L 443.0 77.0 L 445.0 77.0 L 447.0 77.0 L 448.0 78.0 L 449.0 78.0 L 450.0 78.0 L 451.0 79.0 L 452.0 79.0 L 453.0 79.0 L 454.0 79.0" scribmaster:penstyle="draw" style="stroke:#000000;stroke-width:5.0;stroke-linejoin:round;stroke-linecap:round;stroke-opacity:1.0;fill:none" /><path transform="matrix(1,0,0,1,0,0)" d="M 392.0 96.0 L 393.0 97.0 L 394.0 98.0 L 395.0 100.0 L 397.0 103.0 L 400.0 108.0 L 402.0 112.0 L 405.0 119.0 L 408.0 128.0 L 410.0 136.0 L 412.0 145.0 L 413.0 155.0 L 413.0 166.0 L 410.0 178.0 L 407.0 189.0 L 402.0 199.0 L 396.0 208.0 L 389.0 218.0 L 381.0 226.0 L 372.0 233.0 L 361.0 240.0 L 350.0 244.0 L 340.0 247.0 L 328.0 248.0 L 319.0 246.0 L 310.0 243.0 L 303.0 238.0 L 297.0 232.0 L 293.0 226.0 L 292.0 221.0 L 292.0 216.0 L 292.0 211.0" scribmaster:penstyle="draw" style="stroke:#000000;stroke-width:5.0;stroke-linejoin:round;stroke-linecap:round;stroke-opacity:1.0;fill:none" /></g></g></svg>