<?xml version='1.0' encoding='UTF-8' standalone='no' ?><svg xmlns="http://www.w3.org/2000/svg" xmlns:scribmaster="http://scribmaster.com/scribmaster" xmlns:sodipodi="http://sodipodi.sourceforge.net/DTD/sodipodi-0.dtd" xmlns:inkscape="http://www.inkscape.org/namespaces/inkscape" xmlns:xlink="http://www.w3.org/1999/xlink" version="1.2" width="800" height="520"><sodipodi:namedview id="ScribMaster" /><filter id="blur"><feGaussianBlur stdDeviation="5.0" /></filter><defs /><g id="1620599543322" transform="matrix(1,0,0,1,0,0)" style="opacity:1.0"><g id="1620536817093" inkscape:groupmode="layer" transform="matrix(1,0,0,1,0,0)" style="opacity:1.0"><path transform="matrix(1,0,0,1,0,0)" d="M 310.0 61.0 L 309.0 59.0 L 310.0 60.0 L 310.0 62.0 L 311.0 63.0 L 312.0 66.0 L 313.0 69.0 L 313.0 73.0 L 315.0 80.0 L 316.0 89.0 L 317.0 100.0 L 319.0 112.0 L 320.0 128.0 L 320.0 147.0 L 320.0 167.0 L 321.0 189.0 L 320.0 205.0 L 320.0 220.0 L 320.0 235.0 L 319.0 248.0 L 318.0 258.0 L 317.0 267.0 L 316.0 275.0 L 315.0 282.0 L 315.0 288.0 L 312.0 293.0 L 311.0 296.0 L 310.0 298.0 L 310.0 300.0 L 310.0 302.0 L 310.0 303.0 L 311.0 303.0" scribmaster:penstyle="draw" style="stroke:#000000;stroke-width:5.0;stroke-linejoin:round;stroke-linecap:round;stroke-opacity:1.0;fill:none" /><path transform="matrix(1,0,0,1,0,0)" d="M 434.0 82.0 L 432.0 82.0 L 431.0 82.0 L 430.0 83.0 L 430.0 84.0 L 428.0 86.0 L 426.0 89.0 L 422.0 95.0 L 416.0 102.0 L 410.0 111.0 L 402.0 120.0 L 394.0 131.0 L 385.0 142.0 L 377.0 151.0 L 370.0 160.0 L 364.0 166.0 L 358.0 172.0 L 353.0 177.0 L 349.0 181.0 L 345.0 184.0 L 343.0 186.0 L 342.0 187.0 L 340.0 188.0 L 339.0 188.0 L 340.0 187.0 L 341.0 187.0 L 342.0 187.0 L 343.0 187.0 L 345.0 188.0 L 348.0 189.0 L 351.0 191.0 L 355.0 194.0 L 361.0 199.0 L 368.0 204.0 L 376.0 211.0 L 385.0 219.0 L 394.0 227.0 L 401.0 235.0 L 409.0 242.0 L 416.0 248.0 L 422.0 254.0 L 428.0 260.0 L 433.0 264.0 L 439.0 268.0 L 446.0 271.0" scribmaster:penstyle="draw" style="stroke:#000000;stroke-width:5.0;stroke-linejoin:round;stroke-linecap:round;stroke-opacity:1.0;fill:none" /></g></g></svg>