<?xml version='1.0' encoding='UTF-8' standalone='no' ?><svg xmlns="http://www.w3.org/2000/svg" xmlns:scribmaster="http://scribmaster.com/scribmaster" xmlns:sodipodi="http://sodipodi.sourceforge.net/DTD/sodipodi-0.dtd" xmlns:inkscape="http://www.inkscape.org/namespaces/inkscape" xmlns:xlink="http://www.w3.org/1999/xlink" version="1.2" width="800" height="520"><sodipodi:namedview id="ScribMaster" /><filter id="blur"><feGaussianBlur stdDeviation="5.0" /></filter><defs /><g id="1620599763414" transform="matrix(1,0,0,1,0,0)" style="opacity:1.0"><g id="1620536817093" inkscape:groupmode="layer" transform="matrix(1,0,0,1,0,0)" style="opacity:1.0"><path transform="matrix(1,0,0,1,0,0)" d="M 330.0 66.0 L 330.0 65.0 L 329.0 65.0 L 329.0 64.0 L 329.0 63.0 L 328.0 63.0 L 328.0 62.0 L 327.0 62.0 L 326.0 62.0 L 325.0 63.0 L 324.0 64.0 L 322.0 67.0 L 320.0 69.0 L 315.0 75.0 L 310.0 82.0 L 305.0 91.0 L 298.0 101.0 L 292.0 111.0 L 287.0 121.0 L 281.0 132.0 L 277.0 143.0 L 273.0 155.0 L 271.0 166.0 L 269.0 179.0 L 269.0 190.0 L 269.0 201.0 L 270.0 212.0 L 272.0 223.0 L 274.0 232.0 L 277.0 240.0 L 280.0 248.0 L 284.0 255.0 L 288.0 262.0 L 293.0 268.0 L 298.0 273.0 L 304.0 279.0 L 310.0 283.0 L 316.0 288.0 L 323.0 291.0 L 330.0 293.0 L 336.0 294.0 L 342.0 294.0 L 349.0 293.0 L 355.0 291.0 L 362.0 288.0 L 368.0 284.0 L 374.0 278.0 L 382.0 271.0 L 391.0 261.0 L 400.0 250.0 L 407.0 237.0 L 414.0 225.0 L 419.0 214.0 L 424.0 203.0 L 426.0 190.0 L 429.0 178.0 L 430.0 166.0 L 431.0 155.0 L 430.0 144.0 L 428.0 136.0 L 424.0 127.0 L 419.0 120.0 L 414.0 113.0 L 408.0 106.0 L 401.0 100.0 L 393.0 95.0 L 385.0 92.0 L 376.0 90.0 L 368.0 88.0 L 359.0 87.0 L 351.0 87.0" scribmaster:penstyle="draw" style="stroke:#000000;stroke-width:5.0;stroke-linejoin:round;stroke-linecap:round;stroke-opacity:1.0;fill:none" /></g></g></svg>