<?xml version='1.0' encoding='UTF-8' standalone='no' ?><svg xmlns="http://www.w3.org/2000/svg" xmlns:scribmaster="http://scribmaster.com/scribmaster" xmlns:sodipodi="http://sodipodi.sourceforge.net/DTD/sodipodi-0.dtd" xmlns:inkscape="http://www.inkscape.org/namespaces/inkscape" xmlns:xlink="http://www.w3.org/1999/xlink" version="1.2" width="800" height="520"><sodipodi:namedview id="ScribMaster" /><filter id="blur"><feGaussianBlur stdDeviation="5.0" /></filter><defs /><g id="1620599778430" transform="matrix(1,0,0,1,0,0)" style="opacity:1.0"><g id="1620536817093" inkscape:groupmode="layer" transform="matrix(1,0,0,1,0,0)" style="opacity:1.0"><path transform="matrix(1,0,0,1,0,0)" d="M 310.0 64.0 L 310.0 66.0 L 310.0 67.0 L 310.0 70.0 L 310.0 73.0 L 311.0 80.0 L 311.0 92.0 L 311.0 104.0 L 310.0 121.0 L 309.0 144.0 L 308.0 167.0 L 305.0 194.0 L 304.0 214.0 L 302.0 236.0 L 300.0 254.0 L 299.0 270.0 L 298.0 288.0 L 297.0 303.0 L 296.0 318.0 L 296.0 331.0 L 296.0 338.0 L 298.0 344.0 L 300.0 346.0" scribmaster:penstyle="draw" style="stroke:#000000;stroke-width:5.0;stroke-linejoin:round;stroke-linecap:round;stroke-opacity:1.0;fill:none" /><path transform="matrix(1,0,0,1,0,0)" d="M 322.0 77.0 L 322.0 76.0 L 322.0 75.0 L 323.0 73.0 L 324.0 72.0 L 327.0 70.0 L 330.0 69.0 L 335.0 68.0 L 341.0 67.0 L 348.0 67.0 L 357.0 67.0 L 369.0 69.0 L 380.0 71.0 L 390.0 73.0 L 400.0 76.0 L 409.0 79.0 L 419.0 84.0 L 427.0 89.0 L 433.0 96.0 L 437.0 103.0 L 440.0 111.0 L 440.0 119.0 L 439.0 128.0 L 436.0 138.0 L 432.0 148.0 L 425.0 158.0 L 416.0 168.0 L 407.0 177.0 L 395.0 185.0 L 383.0 190.0 L 371.0 193.0 L 359.0 192.0 L 348.0 188.0" scribmaster:penstyle="draw" style="stroke:#000000;stroke-width:5.0;stroke-linejoin:round;stroke-linecap:round;stroke-opacity:1.0;fill:none" /></g></g></svg>