<?xml version='1.0' encoding='UTF-8' standalone='no' ?><svg xmlns="http://www.w3.org/2000/svg" xmlns:scribmaster="http://scribmaster.com/scribmaster" xmlns:sodipodi="http://sodipodi.sourceforge.net/DTD/sodipodi-0.dtd" xmlns:inkscape="http://www.inkscape.org/namespaces/inkscape" xmlns:xlink="http://www.w3.org/1999/xlink" version="1.2" width="800" height="520"><sodipodi:namedview id="ScribMaster" /><filter id="blur"><feGaussianBlur stdDeviation="5.0" /></filter><defs /><g id="1620599833608" transform="matrix(1,0,0,1,0,0)" style="opacity:1.0"><g id="1620536817093" inkscape:groupmode="layer" transform="matrix(1,0,0,1,0,0)" style="opacity:1.0"><path transform="matrix(1,0,0,1,0,0)" d="M 296.0 63.0 L 296.0 65.0 L 296.0 68.0 L 295.0 73.0 L 295.0 81.0 L 295.0 92.0 L 294.0 104.0 L 293.0 116.0 L 293.0 131.0 L 293.0 148.0 L 293.0 163.0 L 293.0 180.0 L 294.0 195.0 L 294.0 208.0 L 295.0 221.0 L 295.0 234.0 L 296.0 245.0 L 297.0 255.0 L 297.0 263.0 L 298.0 269.0 L 299.0 274.0 L 299.0 278.0 L 300.0 280.0 L 300.0 282.0 L 301.0 282.0 L 301.0 281.0 L 302.0 279.0" scribmaster:penstyle="draw" style="stroke:#000000;stroke-width:5.0;stroke-linejoin:round;stroke-linecap:round;stroke-opacity:1.0;fill:none" /><path transform="matrix(1,0,0,1,0,0)" d="M 289.0 67.0 L 290.0 66.0 L 291.0 65.0 L 294.0 64.0 L 298.0 64.0 L 305.0 63.0 L 313.0 63.0 L 326.0 64.0 L 337.0 65.0 L 348.0 66.0 L 360.0 68.0 L 371.0 70.0 L 380.0 73.0 L 389.0 77.0 L 396.0 80.0 L 403.0 84.0 L 408.0 90.0 L 411.0 96.0 L 414.0 104.0 L 414.0 112.0 L 413.0 120.0 L 411.0 127.0 L 408.0 136.0 L 403.0 144.0 L 397.0 151.0 L 391.0 158.0 L 384.0 164.0 L 377.0 169.0 L 370.0 173.0 L 363.0 175.0 L 356.0 178.0 L 350.0 179.0 L 345.0 179.0 L 341.0 180.0 L 339.0 180.0 L 337.0 180.0 L 335.0 180.0 L 334.0 180.0 L 335.0 180.0 L 336.0 181.0 L 339.0 182.0 L 342.0 184.0 L 347.0 187.0 L 353.0 191.0 L 360.0 196.0 L 369.0 203.0 L 380.0 212.0 L 390.0 220.0 L 400.0 230.0 L 409.0 238.0 L 418.0 246.0 L 426.0 253.0 L 433.0 259.0 L 440.0 265.0 L 447.0 270.0 L 454.0 272.0" scribmaster:penstyle="draw" style="stroke:#000000;stroke-width:5.0;stroke-linejoin:round;stroke-linecap:round;stroke-opacity:1.0;fill:none" /></g></g></svg>