<?xml version='1.0' encoding='UTF-8' standalone='no' ?><svg xmlns="http://www.w3.org/2000/svg" xmlns:scribmaster="http://scribmaster.com/scribmaster" xmlns:sodipodi="http://sodipodi.sourceforge.net/DTD/sodipodi-0.dtd" xmlns:inkscape="http://www.inkscape.org/namespaces/inkscape" xmlns:xlink="http://www.w3.org/1999/xlink" version="1.2" width="800" height="520"><sodipodi:namedview id="ScribMaster" /><filter id="blur"><feGaussianBlur stdDeviation="5.0" /></filter><defs /><g id="1620599950885" transform="matrix(1,0,0,1,0,0)" style="opacity:1.0"><g id="1620536817093" inkscape:groupmode="layer" transform="matrix(1,0,0,1,0,0)" style="opacity:1.0"><path transform="matrix(1,0,0,1,0,0)" d="M 298.0 63.0 L 299.0 65.0 L 299.0 67.0 L 300.0 71.0 L 301.0 74.0 L 302.0 80.0 L 305.0 87.0 L 306.0 95.0 L 308.0 102.0 L 311.0 110.0 L 313.0 118.0 L 317.0 130.0 L 321.0 140.0 L 325.0 150.0 L 329.0 159.0 L 333.0 168.0 L 336.0 177.0 L 340.0 185.0 L 344.0 193.0 L 346.0 200.0 L 350.0 207.0 L 353.0 214.0 L 355.0 221.0 L 357.0 227.0 L 360.0 233.0 L 361.0 238.0 L 363.0 242.0 L 365.0 244.0 L 366.0 246.0 L 368.0 246.0 L 369.0 246.0" scribmaster:penstyle="draw" style="stroke:#000000;stroke-width:5.0;stroke-linejoin:round;stroke-linecap:round;stroke-opacity:1.0;fill:none" /><path transform="matrix(1,0,0,1,0,0)" d="M 460.0 88.0 L 458.0 88.0 L 458.0 90.0 L 457.0 91.0 L 456.0 94.0 L 454.0 97.0 L 452.0 102.0 L 449.0 108.0 L 445.0 117.0 L 440.0 127.0 L 434.0 138.0 L 427.0 150.0 L 421.0 163.0 L 415.0 174.0 L 407.0 187.0 L 400.0 199.0 L 394.0 209.0 L 389.0 218.0 L 384.0 228.0 L 380.0 236.0 L 378.0 242.0" scribmaster:penstyle="draw" style="stroke:#000000;stroke-width:5.0;stroke-linejoin:round;stroke-linecap:round;stroke-opacity:1.0;fill:none" /></g></g></svg>