<?xml version='1.0' encoding='UTF-8' standalone='no' ?><svg xmlns="http://www.w3.org/2000/svg" xmlns:scribmaster="http://scribmaster.com/scribmaster" xmlns:sodipodi="http://sodipodi.sourceforge.net/DTD/sodipodi-0.dtd" xmlns:inkscape="http://www.inkscape.org/namespaces/inkscape" xmlns:xlink="http://www.w3.org/1999/xlink" version="1.2" width="800" height="1014"><sodipodi:namedview id="ScribMaster" /><filter id="blur"><feGaussianBlur stdDeviation="5.0" /></filter><defs /><g id="1620599987795" transform="matrix(1,0,0,1,0,0)" style="opacity:1.0"><g id="1620536817093" inkscape:groupmode="layer" transform="matrix(1,0,0,1,0,0)" style="opacity:1.0"><path transform="matrix(1,0,0,1,0,0)" d="M 468.0 39.0 L 467.0 39.0 L 466.0 39.0 L 466.0 40.0 L 465.0 42.0 L 464.0 43.0 L 462.0 46.0 L 460.0 49.0 L 455.0 55.0 L 449.0 62.0 L 439.0 71.0 L 427.0 82.0 L 411.0 98.0 L 394.0 114.0 L 379.0 129.0 L 365.0 143.0 L 351.0 157.0 L 337.0 170.0 L 326.0 180.0 L 317.0 190.0 L 310.0 198.0 L 303.0 206.0 L 299.0 211.0 L 295.0 215.0 L 294.0 218.0 L 293.0 220.0 L 293.0 223.0" scribmaster:penstyle="draw" style="stroke:#000000;stroke-width:5.0;stroke-linejoin:round;stroke-linecap:round;stroke-opacity:1.0;fill:none" /><path transform="matrix(1,0,0,1,0,0)" d="M 327.0 43.0 L 326.0 42.0 L 325.0 42.0 L 324.0 42.0 L 324.0 43.0 L 325.0 46.0 L 327.0 51.0 L 329.0 57.0 L 332.0 67.0 L 337.0 82.0 L 343.0 98.0 L 349.0 112.0 L 355.0 126.0 L 361.0 142.0 L 368.0 154.0 L 374.0 164.0 L 380.0 173.0 L 386.0 180.0 L 392.0 186.0 L 397.0 193.0 L 402.0 200.0 L 406.0 206.0 L 410.0 210.0 L 414.0 214.0 L 417.0 218.0" scribmaster:penstyle="draw" style="stroke:#000000;stroke-width:5.0;stroke-linejoin:round;stroke-linecap:round;stroke-opacity:1.0;fill:none" /></g></g></svg>