<?xml version='1.0' encoding='UTF-8' standalone='no' ?><svg xmlns="http://www.w3.org/2000/svg" xmlns:scribmaster="http://scribmaster.com/scribmaster" xmlns:sodipodi="http://sodipodi.sourceforge.net/DTD/sodipodi-0.dtd" xmlns:inkscape="http://www.inkscape.org/namespaces/inkscape" xmlns:xlink="http://www.w3.org/1999/xlink" version="1.2" width="800" height="1014"><sodipodi:namedview id="ScribMaster" /><filter id="blur"><feGaussianBlur stdDeviation="5.0" /></filter><defs /><g id="1620600036861" transform="matrix(1,0,0,1,0,0)" style="opacity:1.0"><g id="1620536817093" inkscape:groupmode="layer" transform="matrix(1,0,0,1,0,0)" style="opacity:1.0"><path transform="matrix(1,0,0,1,0,0)" d="M 298.0 43.0 L 297.0 42.0 L 297.0 41.0 L 297.0 40.0 L 296.0 39.0 L 296.0 38.0 L 296.0 37.0 L 297.0 37.0 L 297.0 38.0 L 298.0 38.0 L 299.0 39.0 L 300.0 41.0 L 301.0 42.0 L 303.0 45.0 L 306.0 49.0 L 310.0 55.0 L 314.0 60.0 L 319.0 66.0 L 323.0 71.0 L 329.0 78.0 L 334.0 85.0 L 340.0 93.0 L 345.0 100.0 L 350.0 107.0 L 354.0 113.0 L 357.0 118.0 L 361.0 123.0 L 364.0 127.0 L 366.0 129.0 L 367.0 131.0 L 369.0 133.0 L 370.0 134.0 L 371.0 135.0 L 372.0 136.0 L 373.0 136.0 L 374.0 137.0 L 375.0 136.0 L 376.0 136.0" scribmaster:penstyle="draw" style="stroke:#000000;stroke-width:5.0;stroke-linejoin:round;stroke-linecap:round;stroke-opacity:1.0;fill:none" /><path transform="matrix(1,0,0,1,0,0)" d="M 435.0 47.0 L 435.0 46.0 L 436.0 46.0 L 437.0 47.0 L 438.0 48.0 L 437.0 50.0 L 436.0 53.0 L 434.0 56.0 L 431.0 60.0 L 428.0 64.0 L 425.0 70.0 L 420.0 77.0 L 415.0 85.0 L 408.0 96.0 L 402.0 105.0 L 396.0 113.0 L 391.0 119.0 L 386.0 125.0 L 383.0 130.0 L 380.0 135.0 L 378.0 137.0 L 377.0 138.0 L 377.0 139.0 L 377.0 140.0 L 378.0 139.0" scribmaster:penstyle="draw" style="stroke:#000000;stroke-width:5.0;stroke-linejoin:round;stroke-linecap:round;stroke-opacity:1.0;fill:none" /><path transform="matrix(1,0,0,1,0,0)" d="M 379.0 140.0 L 377.0 141.0 L 377.0 142.0 L 376.0 145.0 L 376.0 148.0 L 375.0 154.0 L 374.0 161.0 L 373.0 172.0 L 372.0 183.0 L 371.0 193.0 L 371.0 203.0 L 370.0 213.0 L 370.0 223.0 L 370.0 233.0 L 370.0 240.0 L 370.0 247.0 L 371.0 253.0 L 373.0 258.0 L 374.0 260.0" scribmaster:penstyle="draw" style="stroke:#000000;stroke-width:5.0;stroke-linejoin:round;stroke-linecap:round;stroke-opacity:1.0;fill:none" /></g></g></svg>