<?xml version='1.0' encoding='UTF-8' standalone='no' ?><svg xmlns="http://www.w3.org/2000/svg" xmlns:scribmaster="http://scribmaster.com/scribmaster" xmlns:sodipodi="http://sodipodi.sourceforge.net/DTD/sodipodi-0.dtd" xmlns:inkscape="http://www.inkscape.org/namespaces/inkscape" xmlns:xlink="http://www.w3.org/1999/xlink" version="1.2" width="800" height="1014"><sodipodi:namedview id="ScribMaster" /><filter id="blur"><feGaussianBlur stdDeviation="5.0" /></filter><defs /><g id="1620600057896" transform="matrix(1,0,0,1,0,0)" style="opacity:1.0"><g id="1620536817093" inkscape:groupmode="layer" transform="matrix(1,0,0,1,0,0)" style="opacity:1.0"><path transform="matrix(1,0,0,1,0,0)" d="M 274.0 61.0 L 274.0 60.0 L 273.0 60.0 L 273.0 59.0 L 273.0 58.0 L 272.0 58.0 L 273.0 58.0 L 274.0 58.0 L 276.0 58.0 L 279.0 58.0 L 282.0 57.0 L 288.0 57.0 L 295.0 57.0 L 306.0 56.0 L 321.0 54.0 L 335.0 54.0 L 349.0 53.0 L 363.0 52.0 L 378.0 52.0 L 390.0 52.0 L 401.0 52.0 L 410.0 52.0 L 420.0 52.0 L 428.0 52.0 L 434.0 53.0 L 439.0 53.0 L 443.0 54.0 L 445.0 55.0 L 446.0 56.0 L 447.0 56.0 L 448.0 57.0 L 449.0 57.0 L 450.0 57.0 L 450.0 58.0 L 451.0 58.0 L 451.0 59.0 L 452.0 59.0 L 453.0 60.0 L 454.0 60.0 L 455.0 61.0 L 455.0 62.0 L 455.0 63.0 L 455.0 65.0 L 454.0 66.0 L 452.0 68.0 L 450.0 71.0 L 446.0 75.0 L 441.0 80.0 L 435.0 87.0 L 428.0 97.0 L 420.0 106.0 L 413.0 114.0 L 406.0 122.0 L 398.0 132.0 L 389.0 144.0 L 379.0 155.0 L 371.0 166.0 L 364.0 174.0 L 357.0 182.0 L 350.0 190.0 L 342.0 197.0 L 335.0 204.0 L 328.0 209.0 L 322.0 214.0 L 316.0 219.0 L 311.0 223.0 L 306.0 227.0 L 304.0 229.0 L 302.0 230.0 L 300.0 231.0 L 299.0 232.0 L 298.0 233.0 L 297.0 233.0 L 298.0 233.0 L 299.0 232.0 L 300.0 232.0 L 301.0 231.0 L 303.0 231.0 L 304.0 230.0 L 306.0 229.0 L 308.0 228.0 L 311.0 228.0 L 315.0 227.0 L 319.0 226.0 L 325.0 224.0 L 333.0 223.0 L 345.0 222.0 L 357.0 220.0 L 372.0 219.0 L 386.0 218.0 L 403.0 216.0 L 420.0 214.0 L 435.0 213.0 L 447.0 211.0 L 458.0 210.0 L 469.0 209.0 L 477.0 209.0 L 484.0 209.0 L 492.0 209.0" scribmaster:penstyle="draw" style="stroke:#000000;stroke-width:5.0;stroke-linejoin:round;stroke-linecap:round;stroke-opacity:1.0;fill:none" /></g></g></svg>