<?xml version='1.0' encoding='ASCII' standalone='yes'?>
<svg width = "6in" height = "4in" xmlns="http://www.w3.org/2000/svg" xmlns:xlink="http://www.w3.org/1999/xlink" version="1.1">
  <g transform="translate(-1.0473038956930552, 0) scale(1 1) translate(-0.8145370177431639, 0) scale(1 1) translate(-0.581794650448325, 0) scale(1 1) translate(-0.34906978865732063, 0) scale(1 1) translate(-0.1163554293259576, 0) scale(1 1) translate(0.1163554293259576, 0) scale(1 1) translate(0.34906978865732075, 0) scale(1 1) translate(0.5817946504483253, 0) scale(1 1) translate(0.814537017743164, 0) scale(1 1) translate(1.0473038956930552, 0) scale(1 1) translate(0, 0) scale(0.1 0.1)  skewX(-1.000000) skewX(-0.777778) skewX(-0.555556) skewX(-0.333333) skewX(-0.111111) skewX(0.111111) skewX(0.333333) skewX(0.555556) skewX(0.777778) skewX(1.000000)">
    <sodipodi:namedview xmlns:sodipodi="http://sodipodi.sourceforge.net/DTD/sodipodi-0.dtd" id="ScribMaster"/>
    <filter id="blur">
      <feGaussianBlur stdDeviation="5.0"/>
    </filter>
    <defs/>
    <g xmlns:inkscape="http://www.inkscape.org/namespaces/inkscape" xmlns:scribmaster="http://scribmaster.com/scribmaster" id="1625348980437" transform="matrix(1,0,0,1,0,0)" style="opacity:1.0">
      <g id="1625348338071" inkscape:groupmode="layer" transform="matrix(1,0,0,1,0,0)" style="opacity:1.0">
        <path transform="matrix(1,0,0,1,0,0)" d="M 16.0 136.0 L 15.0 138.0 L 15.0 142.0 L 15.0 147.0 L 14.0 152.0 L 14.0 160.0 L 14.0 169.0 L 14.0 180.0 L 14.0 189.0 L 14.0 198.0 L 14.0 206.0 L 13.0 213.0 L 13.0 219.0 L 13.0 224.0 L 13.0 229.0 L 13.0 231.0 L 13.0 232.0 L 14.0 231.0 L 14.0 229.0 L 15.0 227.0 L 16.0 222.0 L 17.0 215.0 L 19.0 208.0 L 22.0 199.0 L 25.0 192.0 L 28.0 185.0 L 30.0 178.0 L 33.0 172.0 L 35.0 167.0 L 37.0 162.0 L 39.0 158.0 L 41.0 155.0 L 43.0 152.0 L 44.0 150.0 L 47.0 149.0 L 49.0 148.0 L 51.0 147.0 L 53.0 147.0 L 55.0 148.0 L 57.0 149.0 L 59.0 151.0 L 61.0 153.0 L 62.0 156.0 L 64.0 159.0 L 65.0 164.0 L 66.0 171.0 L 67.0 178.0 L 68.0 185.0 L 68.0 192.0 L 69.0 198.0 L 69.0 204.0 L 69.0 209.0 L 70.0 213.0 L 70.0 215.0 L 70.0 217.0 L 70.0 218.0 L 70.0 219.0 L 71.0 218.0 L 71.0 217.0 L 72.0 214.0 L 74.0 210.0 L 76.0 204.0 L 79.0 197.0 L 81.0 191.0 L 85.0 183.0 L 89.0 174.0 L 92.0 166.0 L 96.0 159.0 L 100.0 153.0 L 103.0 148.0 L 106.0 144.0 L 109.0 141.0 L 111.0 139.0 L 113.0 138.0 L 115.0 138.0 L 116.0 138.0 L 118.0 139.0 L 119.0 140.0 L 120.0 141.0 L 121.0 142.0 L 123.0 145.0 L 123.0 148.0 L 124.0 154.0 L 125.0 161.0 L 125.0 173.0 L 125.0 183.0 L 125.0 192.0 L 126.0 200.0 L 126.0 208.0 L 126.0 214.0 L 126.0 219.0 L 127.0 222.0" scribmaster:penstyle="draw" style="stroke:#000000;stroke-width:5.0;stroke-linejoin:round;stroke-linecap:round;stroke-opacity:1.0;fill:none"/>
      </g>
    </g>
  </g>
</svg>
