<?xml version='1.0' encoding='ASCII' standalone='yes'?>
<svg width = "6in" height = "4in" xmlns="http://www.w3.org/2000/svg" xmlns:xlink="http://www.w3.org/1999/xlink" version="1.1">
  <g transform="translate(-1.0473038956930552, 0) scale(1 1) translate(-0.8145370177431639, 0) scale(1 1) translate(-0.581794650448325, 0) scale(1 1) translate(-0.34906978865732063, 0) scale(1 1) translate(-0.1163554293259576, 0) scale(1 1) translate(0.1163554293259576, 0) scale(1 1) translate(0.34906978865732075, 0) scale(1 1) translate(0.5817946504483253, 0) scale(1 1) translate(0.814537017743164, 0) scale(1 1) translate(1.0473038956930552, 0) scale(1 1) translate(0, 0) scale(0.1 0.1)  skewX(-1.000000) skewX(-0.777778) skewX(-0.555556) skewX(-0.333333) skewX(-0.111111) skewX(0.111111) skewX(0.333333) skewX(0.555556) skewX(0.777778) skewX(1.000000)">
    <sodipodi:namedview xmlns:sodipodi="http://sodipodi.sourceforge.net/DTD/sodipodi-0.dtd" id="ScribMaster"/>
    <filter id="blur">
      <feGaussianBlur stdDeviation="5.0"/>
    </filter>
    <defs/>
    <g xmlns:inkscape="http://www.inkscape.org/namespaces/inkscape" xmlns:scribmaster="http://scribmaster.com/scribmaster" id="1625348997320" transform="matrix(1,0,0,1,0,0)" style="opacity:1.0">
      <g id="1625348338071" inkscape:groupmode="layer" transform="matrix(1,0,0,1,0,0)" style="opacity:1.0">
        <path transform="matrix(1,0,0,1,0,0)" d="M 15.0 137.0 L 15.0 139.0 L 15.0 143.0 L 15.0 150.0 L 15.0 159.0 L 16.0 175.0 L 16.0 191.0 L 16.0 204.0 L 16.0 215.0 L 15.0 225.0 L 15.0 233.0 L 14.0 240.0 L 14.0 245.0 L 13.0 247.0 L 13.0 248.0 L 13.0 246.0 L 13.0 244.0 L 13.0 242.0 L 13.0 238.0 L 13.0 234.0 L 14.0 227.0 L 15.0 219.0 L 18.0 210.0 L 23.0 199.0 L 28.0 189.0 L 33.0 179.0 L 37.0 170.0 L 41.0 162.0 L 44.0 155.0 L 47.0 150.0 L 50.0 146.0 L 52.0 145.0 L 54.0 143.0 L 55.0 143.0 L 56.0 143.0 L 57.0 143.0 L 58.0 144.0 L 59.0 145.0 L 59.0 147.0 L 60.0 149.0 L 60.0 152.0 L 61.0 155.0 L 62.0 159.0 L 62.0 165.0 L 63.0 173.0 L 64.0 183.0 L 65.0 191.0 L 65.0 199.0 L 66.0 206.0 L 66.0 212.0 L 67.0 217.0 L 68.0 220.0 L 68.0 223.0 L 69.0 223.0 L 69.0 224.0 L 70.0 223.0 L 70.0 221.0 L 71.0 218.0 L 73.0 214.0 L 74.0 209.0 L 76.0 203.0 L 79.0 197.0 L 81.0 190.0 L 85.0 182.0 L 88.0 175.0 L 92.0 168.0 L 96.0 162.0 L 100.0 156.0 L 104.0 151.0 L 107.0 147.0 L 110.0 144.0 L 112.0 143.0 L 114.0 142.0 L 115.0 142.0 L 116.0 143.0 L 116.0 144.0 L 117.0 147.0 L 117.0 150.0 L 117.0 156.0 L 117.0 165.0 L 117.0 178.0 L 116.0 190.0 L 116.0 202.0 L 116.0 213.0 L 116.0 224.0 L 117.0 232.0 L 119.0 237.0" scribmaster:penstyle="draw" style="stroke:#000000;stroke-width:5.0;stroke-linejoin:round;stroke-linecap:round;stroke-opacity:1.0;fill:none"/>
      </g>
    </g>
  </g>
</svg>
