<?xml version='1.0' encoding='ASCII' standalone='yes'?>
<svg width = "6in" height = "4in" xmlns="http://www.w3.org/2000/svg" xmlns:xlink="http://www.w3.org/1999/xlink" version="1.1">
  <g transform="translate(0.1163554293259576, 0) scale(1 1) translate(0.34906978865732075, 0) scale(1 1) translate(0.5817946504483253, 0) scale(1 1) translate(0.814537017743164, 0) scale(1 1) translate(1.0473038956930552, 0) scale(1 1) translate(0, 0) scale(0.1 0.1)  skewX(-1.000000) skewX(-0.777778) skewX(-0.555556) skewX(-0.333333) skewX(-0.111111)">
    <sodipodi:namedview xmlns:sodipodi="http://sodipodi.sourceforge.net/DTD/sodipodi-0.dtd" id="ScribMaster"/>
    <filter id="blur">
      <feGaussianBlur stdDeviation="5.0"/>
    </filter>
    <defs/>
    <g xmlns:inkscape="http://www.inkscape.org/namespaces/inkscape" xmlns:scribmaster="http://scribmaster.com/scribmaster" id="1625351495030" transform="matrix(1,0,0,1,-1.316833,-1.489594)" style="opacity:1.0">
      <g id="1625348338071" inkscape:groupmode="layer" transform="matrix(1,0,0,1,0,0)" style="opacity:1.0">
        <path transform="matrix(1,0,0,1,0,0)" d="M 45.316833 43.489594 L 45.316833 44.489594 L 45.316833 46.489594 L 45.316833 50.489594 L 45.316833 55.489594 L 45.316833 64.48959 L 45.316833 80.48959 L 45.316833 99.48959 L 45.316833 119.48959 L 46.316833 142.4896 L 46.316833 160.4896 L 46.316833 175.4896 L 47.316833 188.4896 L 47.316833 200.4896 L 48.316833 210.4896 L 48.316833 217.4896 L 49.316833 222.4896 L 50.316833 225.4896 L 51.316833 226.4896 L 51.316833 225.4896 L 52.316833 224.4896 L 53.316833 221.4896 L 55.316833 218.4896 L 56.316833 214.4896 L 59.316833 207.4896 L 61.316833 199.4896 L 65.31683 189.4896 L 69.31683 178.4896 L 72.31683 169.4896 L 76.31683 161.4896 L 80.31683 152.4896 L 83.31683 145.4896 L 86.31683 138.4896 L 90.31683 132.4896 L 92.31683 127.48959 L 95.31683 124.48959 L 96.31683 123.48959 L 97.31683 124.48959 L 98.31683 125.48959 L 98.31683 127.48959 L 99.31683 130.4896 L 100.31683 136.4896 L 101.31683 145.4896 L 101.31683 156.4896 L 102.31683 169.4896 L 103.31683 182.4896 L 104.31683 193.4896 L 106.31683 202.4896 L 107.31683 208.4896 L 109.31683 212.4896 L 110.31683 214.4896 L 111.31683 214.4896 L 112.31683 213.4896 L 113.31683 211.4896 L 115.31683 209.4896 L 117.31683 203.4896 L 122.31683 192.4896 L 129.31683 175.4896 L 135.31683 159.4896 L 141.31683 145.4896 L 147.31683 131.4896 L 152.31683 118.48959 L 158.31683 107.48959 L 163.31683 97.48959 L 167.31683 89.48959 L 171.31683 80.48959 L 176.31683 72.48959 L 179.31683 64.48959 L 182.31683 58.489594 L 184.31683 53.489594 L 185.31683 50.489594 L 185.31683 49.489594 L 185.31683 50.489594 L 184.31683 51.489594 L 184.31683 53.489594 L 184.31683 54.489594" scribmaster:penstyle="draw" style="stroke:#000000;stroke-width:5.0;stroke-linejoin:round;stroke-linecap:round;stroke-opacity:1.0;fill:none"/>
      </g>
    </g>
  </g>
</svg>
