<?xml version='1.0' encoding='ASCII' standalone='yes'?>
<svg width = "6in" height = "4in" xmlns="http://www.w3.org/2000/svg" xmlns:xlink="http://www.w3.org/1999/xlink" version="1.1">
  <g transform="translate(0.5817946504483253, 0) scale(1 1) translate(0.814537017743164, 0) scale(1 1) translate(1.0473038956930552, 0) scale(1 1) translate(0, 0) scale(0.1 0.1)  skewX(-1.000000) skewX(-0.777778) skewX(-0.555556)">
    <sodipodi:namedview xmlns:sodipodi="http://sodipodi.sourceforge.net/DTD/sodipodi-0.dtd" id="ScribMaster"/>
    <filter id="blur">
      <feGaussianBlur stdDeviation="5.0"/>
    </filter>
    <defs/>
    <g xmlns:inkscape="http://www.inkscape.org/namespaces/inkscape" xmlns:scribmaster="http://scribmaster.com/scribmaster" id="1627853737281" transform="matrix(1.041329,0,0,1.041329,-16.413086,-15.68722)" style="opacity:1.0">
      <g id="1627851273342" inkscape:groupmode="layer" transform="matrix(1,0,0,1,0,0)" style="opacity:1.0">
        <path transform="matrix(1,0,0,1,0,0)" d="M 102.18966 89.00857 L 99.30872 88.048256 L 99.30872 89.00857 L 98.34842 90.929184 L 98.34842 92.84981 L 97.38811 95.73074 L 95.46748 101.49261 L 93.54686 108.21478 L 91.626236 117.817894 L 87.784996 128.38132 L 83.94375 140.86536 L 79.1422 152.38908 L 75.30095 162.95251 L 70.4994 172.55562 L 67.61846 182.15872 L 63.77722 190.80153 L 60.89629 198.48402 L 58.015354 206.1665 L 57.055046 211.92838 L 54.17411 217.69023 L 51.29318 223.4521 L 48.412247 227.29335 L 45.53131 231.1346 L 43.610687 234.97583 L 40.729755 236.89645 L 39.769444 238.81708 L 38.809135 239.77739 L 37.848824 241.69801 L 36.88851 242.65833 L 36.88851 243.61864 L 35.9282 243.61864 L 35.9282 244.57895 L 34.967888 244.57895 L 35.9282 243.61864 L 36.88851 242.65833 L 37.848824 242.65833 L 37.848824 241.69801 L 37.848824 239.77739 L 38.809135 239.77739 L 39.769444 239.77739 L 39.769444 238.81708 L 40.729755 238.81708 L 41.690067 238.81708 L 42.65038 238.81708 L 42.65038 236.89645 L 43.610687 235.93614 L 44.571 234.01553 L 44.571 233.05522 L 45.53131 230.17429 L 45.53131 229.21397 L 46.491623 229.21397 L 47.451935 228.25366 L 47.451935 227.29335 L 48.412247 225.37273 L 49.372555 224.41241 L 50.332867 222.49179 L 50.332867 221.53148 L 51.29318 220.57117 L 51.29318 219.61086 L 52.25349 217.69023 L 53.2138 215.76962 L 53.2138 214.80931 L 54.17411 212.88869 L 54.17411 210.96806 L 55.134422 209.04744 L 56.094734 207.12682 L 56.094734 206.1665 L 57.055046 204.24588 L 58.015354 202.32526 L 58.015354 200.40463 L 58.975666 198.48402 L 59.935978 196.5634 L 60.89629 194.64278 L 61.8566 192.72215 L 62.81691 190.80153 L 63.77722 188.8809 L 64.73753 187.9206 L 65.697845 185.99997 L 67.61846 184.07935 L 68.57877 182.15872 L 68.57877 180.23811 L 69.539085 178.31749 L 70.4994 176.39687 L 71.45971 174.47624 L 72.42002 172.55562 L 73.38033 170.635 L 74.340645 168.71437 L 75.30095 166.79375 L 75.30095 164.87312 L 76.26126 162.95251 L 77.22157 161.03189 L 78.181885 159.11127 L 79.1422 157.19064 L 79.1422 155.27002 L 80.10251 153.3494 L 81.06282 152.38908 L 82.023125 150.46846 L 82.023125 148.54784 L 82.98344 146.62723 L 82.98344 145.66692 L 83.94375 143.74629 L 84.90406 141.82567 L 84.90406 140.86536 L 85.86437 138.94473 L 85.86437 137.02411 L 86.824684 135.10349 L 87.784996 133.18288 L 87.784996 131.26225 L 88.74531 129.34163 L 88.74531 127.421005 L 89.70562 125.50038 L 90.665924 123.579765 L 91.626236 121.65914 L 92.58655 119.73852 L 92.58655 117.817894 L 93.54686 115.89728 L 94.50717 113.976654 L 95.46748 112.05603 L 95.46748 110.13541 L 96.427795 108.21478 L 96.427795 106.29417 L 97.38811 104.37354 L 97.38811 103.41323 L 98.34842 101.49261 L 99.30872 99.57198 L 99.30872 98.61167 L 100.269035 97.65137 L 100.269035 96.691055 L 101.22935 94.77043 L 101.22935 93.81012 L 102.18966 92.84981 L 102.18966 91.889496 L 102.18966 90.929184 L 102.18966 89.96887 L 103.14997 89.00857 L 103.14997 88.048256 L 104.11028 87.087944 L 104.11028 86.12763 L 105.070595 86.12763 L 105.070595 87.087944 L 106.03091 87.087944 L 106.03091 88.048256 L 106.03091 89.00857 L 106.99122 89.96887 L 106.99122 91.889496 L 107.95153 94.77043 L 108.911835 98.61167 L 109.87215 103.41323 L 110.83246 108.21478 L 111.79277 113.01634 L 112.75308 118.778206 L 112.75308 123.579765 L 114.673706 130.30194 L 115.63402 137.98442 L 116.59433 146.62723 L 118.514946 154.30971 L 119.47526 161.9922 L 121.39588 168.71437 L 122.35619 176.39687 L 123.316505 183.11903 L 125.23713 189.84122 L 126.19743 195.60309 L 128.11806 200.40463 L 129.07837 205.20619 L 130.03868 209.04744 L 130.999 210.96806 L 130.999 213.849 L 131.9593 214.80931 L 131.9593 216.72993 L 131.9593 217.69023 L 132.91962 218.65054 L 132.91962 219.61086 L 132.91962 220.57117 L 132.91962 221.53148 L 133.87993 222.49179 L 133.87993 223.4521 L 133.87993 224.41241 L 134.84024 225.37273 L 134.84024 226.33304 L 135.80055 227.29335 L 135.80055 228.25366 L 135.80055 229.21397 L 136.76086 229.21397 L 136.76086 230.17429 L 136.76086 231.1346 L 137.72118 231.1346 L 137.72118 232.09491 L 137.72118 231.1346" scribmaster:penstyle="draw" style="stroke:#000000;stroke-width:5.0;stroke-linejoin:round;stroke-linecap:round;stroke-opacity:1.0;fill:none"/>
        <path transform="matrix(1,0,0,1,0,0)" d="M 78.181885 181.19843 L 75.30095 181.19843 L 74.340645 182.15872 L 73.38033 182.15872 L 72.42002 182.15872 L 73.38033 181.19843 L 73.38033 180.23811 L 74.340645 180.23811 L 75.30095 180.23811 L 76.26126 180.23811 L 77.22157 180.23811 L 78.181885 180.23811 L 79.1422 180.23811 L 81.06282 180.23811 L 82.023125 180.23811 L 82.98344 180.23811 L 84.90406 180.23811 L 86.824684 180.23811 L 88.74531 180.23811 L 90.665924 180.23811 L 92.58655 181.19843 L 94.50717 181.19843 L 96.427795 181.19843 L 99.30872 181.19843 L 101.22935 181.19843 L 102.18966 181.19843 L 105.070595 180.23811 L 106.03091 180.23811 L 107.95153 180.23811 L 109.87215 179.2778 L 111.79277 179.2778 L 112.75308 179.2778 L 114.673706 179.2778 L 116.59433 179.2778 L 118.514946 179.2778 L 119.47526 179.2778 L 120.43557 179.2778 L 121.39588 179.2778" scribmaster:penstyle="draw" style="stroke:#000000;stroke-width:5.0;stroke-linejoin:round;stroke-linecap:round;stroke-opacity:1.0;fill:none"/>
      </g>
    </g>
  </g>
</svg>
