<?xml version='1.0' encoding='ASCII' standalone='yes'?>
<svg width = "6in" height = "4in" xmlns="http://www.w3.org/2000/svg" xmlns:xlink="http://www.w3.org/1999/xlink" version="1.1">
  <g transform="translate(1.0473038956930552, 0) scale(1 1) translate(0, 0) scale(0.1 0.1)  skewX(-1.000000)">
    <sodipodi:namedview xmlns:sodipodi="http://sodipodi.sourceforge.net/DTD/sodipodi-0.dtd" id="ScribMaster"/>
    <filter id="blur">
      <feGaussianBlur stdDeviation="5.0"/>
    </filter>
    <defs/>
    <g xmlns:inkscape="http://www.inkscape.org/namespaces/inkscape" xmlns:scribmaster="http://scribmaster.com/scribmaster" id="1627853774743" transform="matrix(1.041329,0,0,1.041329,-16.413086,-15.68722)" style="opacity:1.0">
      <g id="1627851273342" inkscape:groupmode="layer" transform="matrix(1,0,0,1,0,0)" style="opacity:1.0">
        <path transform="matrix(1,0,0,1,0,0)" d="M 57.055046 225.37273 L 57.055046 223.4521 L 57.055046 221.53148 L 58.015354 219.61086 L 58.015354 215.76962 L 58.975666 212.88869 L 59.935978 207.12682 L 61.8566 201.36494 L 64.73753 194.64278 L 67.61846 185.99997 L 70.4994 176.39687 L 73.38033 166.79375 L 76.26126 157.19064 L 78.181885 147.58752 L 81.06282 137.98442 L 83.94375 129.34163 L 85.86437 122.61945 L 87.784996 115.89728 L 89.70562 110.13541 L 91.626236 105.333855 L 92.58655 101.49261 L 94.50717 98.61167 L 95.46748 95.73074 L 96.427795 93.81012 L 97.38811 89.96887 L 98.34842 88.048256 L 99.30872 85.16732 L 99.30872 82.286385 L 100.269035 80.36577 L 101.22935 79.40546 L 102.18966 78.445145 L 102.18966 77.48483 L 102.18966 76.52452 L 103.14997 77.48483 L 103.14997 78.445145 L 104.11028 79.40546 L 105.070595 82.286385 L 106.03091 89.00857 L 108.911835 101.49261 L 110.83246 115.89728 L 113.713394 132.22256 L 116.59433 152.38908 L 120.43557 171.5953 L 123.316505 185.99997 L 126.19743 199.44434 L 129.07837 210.00775 L 130.999 216.72993 L 133.87993 221.53148 L 134.84024 225.37273 L 135.80055 226.33304 L 135.80055 227.29335 L 135.80055 226.33304 L 135.80055 225.37273 L 135.80055 224.41241 L 136.76086 223.4521" scribmaster:penstyle="draw" style="stroke:#000000;stroke-width:5.0;stroke-linejoin:round;stroke-linecap:round;stroke-opacity:1.0;fill:none"/>
        <path transform="matrix(1,0,0,1,0,0)" d="M 72.42002 180.23811 L 71.45971 178.31749 L 72.42002 177.35718 L 73.38033 177.35718 L 74.340645 177.35718 L 75.30095 177.35718 L 76.26126 177.35718 L 77.22157 176.39687 L 78.181885 176.39687 L 80.10251 176.39687 L 82.023125 176.39687 L 82.98344 176.39687 L 84.90406 176.39687 L 86.824684 176.39687 L 88.74531 176.39687 L 90.665924 176.39687 L 92.58655 176.39687 L 95.46748 176.39687 L 97.38811 176.39687 L 99.30872 176.39687 L 101.22935 176.39687 L 102.18966 176.39687 L 104.11028 176.39687 L 106.03091 176.39687 L 106.99122 176.39687 L 107.95153 176.39687 L 109.87215 176.39687 L 110.83246 176.39687 L 111.79277 176.39687 L 112.75308 176.39687 L 113.713394 176.39687 L 114.673706 176.39687 L 115.63402 176.39687 L 116.59433 176.39687 L 117.554634 176.39687 L 118.514946 176.39687 L 119.47526 176.39687 L 120.43557 176.39687 L 121.39588 176.39687 L 122.35619 176.39687" scribmaster:penstyle="draw" style="stroke:#000000;stroke-width:5.0;stroke-linejoin:round;stroke-linecap:round;stroke-opacity:1.0;fill:none"/>
      </g>
    </g>
  </g>
</svg>
