<?xml version='1.0' encoding='ASCII' standalone='yes'?>
<svg width = "6in" height = "4in" xmlns="http://www.w3.org/2000/svg" xmlns:xlink="http://www.w3.org/1999/xlink" version="1.1">
  <g transform="translate(-0.34906978865732063, 0) scale(1 1) translate(-0.1163554293259576, 0) scale(1 1) translate(0.1163554293259576, 0) scale(1 1) translate(0.34906978865732075, 0) scale(1 1) translate(0.5817946504483253, 0) scale(1 1) translate(0.814537017743164, 0) scale(1 1) translate(1.0473038956930552, 0) scale(1 1) translate(0, 0) scale(0.1 0.1)  skewX(-1.000000) skewX(-0.777778) skewX(-0.555556) skewX(-0.333333) skewX(-0.111111) skewX(0.111111) skewX(0.333333)">
    <sodipodi:namedview xmlns:sodipodi="http://sodipodi.sourceforge.net/DTD/sodipodi-0.dtd" id="ScribMaster"/>
    <filter id="blur">
      <feGaussianBlur stdDeviation="5.0"/>
    </filter>
    <defs/>
    <g xmlns:inkscape="http://www.inkscape.org/namespaces/inkscape" xmlns:scribmaster="http://scribmaster.com/scribmaster" id="1625350407524" transform="matrix(1,0,0,1,-1.316833,-1.489594)" style="opacity:1.0">
      <g id="1625348338071" inkscape:groupmode="layer" transform="matrix(1,0,0,1,0,0)" style="opacity:1.0">
        <path transform="matrix(1,0,0,1,0,0)" d="M 58.316833 46.489594 L 59.316833 44.489594 L 60.316833 44.489594 L 61.316833 45.489594 L 61.316833 48.489594 L 61.316833 53.489594 L 61.316833 62.489594 L 61.316833 74.48959 L 61.316833 88.48959 L 61.316833 103.48959 L 61.316833 120.48959 L 60.316833 134.4896 L 59.316833 149.4896 L 59.316833 162.4896 L 57.316833 173.4896 L 56.316833 181.4896 L 56.316833 189.4896 L 56.316833 197.4896 L 55.316833 204.4896 L 55.316833 210.4896 L 54.316833 215.4896 L 54.316833 218.4896 L 53.316833 220.4896 L 53.316833 222.4896 L 53.316833 224.4896 L 53.316833 223.4896 L 53.316833 221.4896" scribmaster:penstyle="draw" style="stroke:#000000;stroke-width:5.0;stroke-linejoin:round;stroke-linecap:round;stroke-opacity:1.0;fill:none"/>
        <path transform="matrix(1,0,0,1,0,0)" d="M 55.316833 50.489594 L 54.316833 49.489594 L 54.316833 48.489594 L 55.316833 47.489594 L 56.316833 46.489594 L 57.316833 45.489594 L 61.316833 44.489594 L 66.31683 44.489594 L 72.31683 44.489594 L 81.31683 45.489594 L 89.31683 46.489594 L 96.31683 48.489594 L 104.31683 50.489594 L 111.31683 52.489594 L 117.31683 55.489594 L 123.31683 58.489594 L 128.31683 62.489594 L 132.31683 67.48959 L 136.31683 71.48959 L 138.31683 76.48959 L 139.31683 80.48959 L 139.31683 84.48959 L 138.31683 88.48959 L 135.31683 92.48959 L 131.31683 97.48959 L 126.31683 103.48959 L 118.31683 110.48959 L 109.31683 117.48959 L 101.31683 124.48959 L 92.31683 130.4896 L 85.31683 135.4896 L 78.31683 139.4896 L 73.31683 142.4896 L 71.31683 143.4896" scribmaster:penstyle="draw" style="stroke:#000000;stroke-width:5.0;stroke-linejoin:round;stroke-linecap:round;stroke-opacity:1.0;fill:none"/>
      </g>
    </g>
  </g>
</svg>
