<?xml version='1.0' encoding='ASCII' standalone='yes'?>
<svg width = "6in" height = "4in" xmlns="http://www.w3.org/2000/svg" xmlns:xlink="http://www.w3.org/1999/xlink" version="1.1">
  <g transform="translate(1.0473038956930552, 0) scale(1 1) translate(0, 0) scale(0.1 0.1)  skewX(-1.000000)">
    <sodipodi:namedview xmlns:sodipodi="http://sodipodi.sourceforge.net/DTD/sodipodi-0.dtd" id="ScribMaster"/>
    <filter id="blur">
      <feGaussianBlur stdDeviation="5.0"/>
    </filter>
    <defs/>
    <g xmlns:inkscape="http://www.inkscape.org/namespaces/inkscape" xmlns:scribmaster="http://scribmaster.com/scribmaster" id="1625350418871" transform="matrix(1,0,0,1,-1.316833,-1.489594)" style="opacity:1.0">
      <g id="1625348338071" inkscape:groupmode="layer" transform="matrix(1,0,0,1,0,0)" style="opacity:1.0">
        <path transform="matrix(1,0,0,1,0,0)" d="M 56.316833 40.489594 L 56.316833 42.489594 L 56.316833 44.489594 L 56.316833 50.489594 L 55.316833 59.489594 L 53.316833 73.48959 L 51.316833 94.48959 L 50.316833 117.48959 L 48.316833 138.4896 L 46.316833 158.4896 L 46.316833 175.4896 L 45.316833 189.4896 L 45.316833 201.4896 L 45.316833 210.4896 L 45.316833 217.4896 L 45.316833 222.4896 L 45.316833 226.4896 L 45.316833 229.4896 L 45.316833 231.4896 L 45.316833 233.4896 L 45.316833 234.4896" scribmaster:penstyle="draw" style="stroke:#000000;stroke-width:5.0;stroke-linejoin:round;stroke-linecap:round;stroke-opacity:1.0;fill:none"/>
        <path transform="matrix(1,0,0,1,0,0)" d="M 54.316833 48.489594 L 53.316833 47.489594 L 52.316833 46.489594 L 52.316833 45.489594 L 52.316833 44.489594 L 52.316833 43.489594 L 54.316833 42.489594 L 57.316833 41.489594 L 61.316833 40.489594 L 66.31683 39.489594 L 73.31683 40.489594 L 80.31683 40.489594 L 88.31683 41.489594 L 96.31683 42.489594 L 104.31683 43.489594 L 111.31683 44.489594 L 117.31683 46.489594 L 123.31683 49.489594 L 128.31683 52.489594 L 131.31683 57.489594 L 133.31683 62.489594 L 134.31683 68.48959 L 134.31683 74.48959 L 131.31683 80.48959 L 128.31683 87.48959 L 122.31683 97.48959 L 115.31683 105.48959 L 108.31683 113.48959 L 99.31683 121.48959 L 91.31683 127.48959 L 83.31683 132.4896 L 76.31683 136.4896 L 70.31683 139.4896 L 66.31683 141.4896 L 63.316833 142.4896" scribmaster:penstyle="draw" style="stroke:#000000;stroke-width:5.0;stroke-linejoin:round;stroke-linecap:round;stroke-opacity:1.0;fill:none"/>
      </g>
    </g>
  </g>
</svg>
