<?xml version='1.0' encoding='ASCII' standalone='yes'?>
<svg width = "6in" height = "4in" xmlns="http://www.w3.org/2000/svg" xmlns:xlink="http://www.w3.org/1999/xlink" version="1.1">
  <g transform="translate(0.5817946504483253, 0) scale(1 1) translate(0.814537017743164, 0) scale(1 1) translate(1.0473038956930552, 0) scale(1 1) translate(0, 0) scale(0.1 0.1)  skewX(-1.000000) skewX(-0.777778) skewX(-0.555556)">
    <sodipodi:namedview xmlns:sodipodi="http://sodipodi.sourceforge.net/DTD/sodipodi-0.dtd" id="ScribMaster"/>
    <filter id="blur">
      <feGaussianBlur stdDeviation="5.0"/>
    </filter>
    <defs/>
    <g xmlns:inkscape="http://www.inkscape.org/namespaces/inkscape" xmlns:scribmaster="http://scribmaster.com/scribmaster" id="1625351463794" transform="matrix(1,0,0,1,-1.316833,-1.489594)" style="opacity:1.0">
      <g id="1625348338071" inkscape:groupmode="layer" transform="matrix(1,0,0,1,0,0)" style="opacity:1.0">
        <path transform="matrix(1,0,0,1,0,0)" d="M 27.316833 34.489594 L 28.316833 35.489594 L 30.316833 39.489594 L 32.316833 46.489594 L 34.316833 57.489594 L 37.316833 71.48959 L 41.316833 91.48959 L 45.316833 111.48959 L 49.316833 127.48959 L 54.316833 142.4896 L 61.316833 156.4896 L 66.31683 169.4896 L 71.31683 179.4896 L 77.31683 189.4896 L 82.31683 198.4896 L 86.31683 205.4896 L 91.31683 211.4896 L 94.31683 217.4896 L 98.31683 220.4896 L 100.31683 222.4896 L 102.31683 223.4896 L 103.31683 222.4896" scribmaster:penstyle="draw" style="stroke:#000000;stroke-width:5.0;stroke-linejoin:round;stroke-linecap:round;stroke-opacity:1.0;fill:none"/>
        <path transform="matrix(1,0,0,1,0,0)" d="M 178.31683 29.489594 L 178.31683 30.489594 L 177.31683 31.489594 L 177.31683 33.489594 L 176.31683 34.489594 L 176.31683 35.489594 L 175.31683 37.489594 L 174.31683 40.489594 L 172.31683 45.489594 L 169.31683 52.489594 L 165.31683 63.489594 L 160.31683 78.48959 L 152.31683 97.48959 L 146.31683 113.48959 L 141.31683 126.48959 L 135.31683 141.4896 L 129.31683 154.4896 L 124.31683 165.4896 L 120.31683 175.4896 L 115.31683 184.4896 L 111.31683 194.4896 L 106.31683 202.4896 L 103.31683 209.4896 L 102.31683 215.4896 L 100.31683 220.4896" scribmaster:penstyle="draw" style="stroke:#000000;stroke-width:5.0;stroke-linejoin:round;stroke-linecap:round;stroke-opacity:1.0;fill:none"/>
      </g>
    </g>
  </g>
</svg>
