<?xml version='1.0' encoding='ASCII' standalone='yes'?>
<svg width = "6in" height = "4in" xmlns="http://www.w3.org/2000/svg" xmlns:xlink="http://www.w3.org/1999/xlink" version="1.1">
  <g transform="translate(0.5817946504483253, 0) scale(1 1) translate(0.814537017743164, 0) scale(1 1) translate(1.0473038956930552, 0) scale(1 1) translate(0, 0) scale(0.1 0.1)  skewX(-1.000000) skewX(-0.777778) skewX(-0.555556)">
    <sodipodi:namedview xmlns:sodipodi="http://sodipodi.sourceforge.net/DTD/sodipodi-0.dtd" id="ScribMaster"/>
    <filter id="blur">
      <feGaussianBlur stdDeviation="5.0"/>
    </filter>
    <defs/>
    <g xmlns:inkscape="http://www.inkscape.org/namespaces/inkscape" xmlns:scribmaster="http://scribmaster.com/scribmaster" id="1625351445333" transform="matrix(1,0,0,1,-1.316833,-1.489594)" style="opacity:1.0">
      <g id="1625348338071" inkscape:groupmode="layer" transform="matrix(1,0,0,1,0,0)" style="opacity:1.0">
        <path transform="matrix(1,0,0,1,0,0)" d="M 46.316833 48.489594 L 46.316833 50.489594 L 47.316833 54.489594 L 48.316833 60.489594 L 51.316833 72.48959 L 55.316833 90.48959 L 60.316833 115.48959 L 65.31683 143.4896 L 69.31683 163.4896 L 73.31683 178.4896 L 76.31683 191.4896 L 80.31683 201.4896 L 83.31683 208.4896 L 86.31683 213.4896 L 88.31683 216.4896 L 90.31683 219.4896 L 91.31683 221.4896 L 92.31683 223.4896 L 94.31683 225.4896 L 95.31683 226.4896 L 96.31683 227.4896 L 97.31683 228.4896" scribmaster:penstyle="draw" style="stroke:#000000;stroke-width:5.0;stroke-linejoin:round;stroke-linecap:round;stroke-opacity:1.0;fill:none"/>
        <path transform="matrix(1,0,0,1,0,0)" d="M 179.31683 39.489594 L 178.31683 39.489594 L 178.31683 38.489594 L 177.31683 39.489594 L 176.31683 40.489594 L 174.31683 43.489594 L 171.31683 50.489594 L 165.31683 65.48959 L 156.31683 90.48959 L 147.31683 114.48959 L 139.31683 135.4896 L 131.31683 157.4896 L 125.31683 172.4896 L 120.31683 184.4896 L 115.31683 195.4896 L 112.31683 205.4896 L 107.31683 212.4896 L 104.31683 217.4896 L 101.31683 222.4896 L 101.31683 225.4896 L 102.31683 226.4896" scribmaster:penstyle="draw" style="stroke:#000000;stroke-width:5.0;stroke-linejoin:round;stroke-linecap:round;stroke-opacity:1.0;fill:none"/>
      </g>
    </g>
  </g>
</svg>
