<?xml version='1.0' encoding='UTF-8' standalone='no' ?><svg xmlns="http://www.w3.org/2000/svg" xmlns:scribmaster="http://scribmaster.com/scribmaster" xmlns:sodipodi="http://sodipodi.sourceforge.net/DTD/sodipodi-0.dtd" xmlns:inkscape="http://www.inkscape.org/namespaces/inkscape" xmlns:xlink="http://www.w3.org/1999/xlink" version="1.2" width="800" height="1014"><sodipodi:namedview id="ScribMaster" /><filter id="blur"><feGaussianBlur stdDeviation="5.0" /></filter><defs /><g id="1627854613999" transform="matrix(1.041329,0,0,1.041329,-16.413086,-15.68722)" style="opacity:1.0"><g id="1627851273342" inkscape:groupmode="layer" transform="matrix(1,0,0,1,0,0)" style="opacity:1.0"><path transform="matrix(1,0,0,1,0,0)" d="M 111.79277 81.32607 L 110.83246 79.40546 L 109.87215 79.40546 L 109.87215 78.445145 L 108.911835 77.48483 L 107.95153 77.48483 L 106.99122 76.52452 L 106.03091 75.56421 L 104.11028 75.56421 L 102.18966 75.56421 L 101.22935 75.56421 L 97.38811 75.56421 L 94.50717 75.56421 L 90.665924 75.56421 L 87.784996 76.52452 L 83.94375 77.48483 L 80.10251 79.40546 L 77.22157 81.32607 L 74.340645 84.20701 L 71.45971 87.087944 L 67.61846 90.929184 L 63.77722 94.77043 L 58.975666 101.49261 L 55.134422 108.21478 L 51.29318 114.936966 L 49.372555 121.65914 L 47.451935 128.38132 L 47.451935 135.10349 L 47.451935 141.82567 L 48.412247 149.50815 L 49.372555 157.19064 L 50.332867 165.83344 L 51.29318 173.51593 L 53.2138 181.19843 L 54.17411 188.8809 L 56.094734 194.64278 L 58.015354 200.40463 L 59.935978 205.20619 L 63.77722 209.04744 L 67.61846 211.92838 L 71.45971 214.80931 L 75.30095 217.69023 L 78.181885 219.61086 L 82.023125 220.57117 L 84.90406 221.53148 L 89.70562 222.49179 L 93.54686 222.49179 L 98.34842 222.49179 L 102.18966 220.57117 L 106.99122 219.61086 L 110.83246 216.72993 L 115.63402 213.849 L 119.47526 210.00775 L 123.316505 205.20619 L 126.19743 201.36494 L 130.03868 196.5634 L 132.91962 191.76184 L 135.80055 186.96028 L 137.72118 182.15872 L 140.60211 176.39687 L 141.56242 171.5953 L 143.48303 165.83344 L 145.40367 160.07158 L 146.36398 154.30971 L 147.3243 147.58752 L 148.28459 142.78598 L 148.28459 137.02411 L 147.3243 132.22256 L 147.3243 127.421005 L 145.40367 123.579765 L 144.44336 118.778206 L 142.52274 114.936966 L 140.60211 111.09572 L 137.72118 107.25448 L 134.84024 104.37354 L 132.91962 100.532295 L 130.03868 98.61167 L 128.11806 96.691055 L 126.19743 93.81012 L 123.316505 92.84981 L 121.39588 91.889496 L 119.47526 90.929184 L 117.554634 89.96887 L 115.63402 89.00857 L 112.75308 89.00857 L 110.83246 89.00857 L 109.87215 89.00857" scribmaster:penstyle="draw" style="stroke:#000000;stroke-width:5.0;stroke-linejoin:round;stroke-linecap:round;stroke-opacity:1.0;fill:none" /></g></g></svg>