<?xml version='1.0' encoding='UTF-8' standalone='no' ?><svg xmlns="http://www.w3.org/2000/svg" xmlns:scribmaster="http://scribmaster.com/scribmaster" xmlns:sodipodi="http://sodipodi.sourceforge.net/DTD/sodipodi-0.dtd" xmlns:inkscape="http://www.inkscape.org/namespaces/inkscape" xmlns:xlink="http://www.w3.org/1999/xlink" version="1.2" width="800" height="1014"><sodipodi:namedview id="ScribMaster" /><filter id="blur"><feGaussianBlur stdDeviation="5.0" /></filter><defs /><g id="1625348840771" transform="matrix(1,0,0,1,0,0)" style="opacity:1.0"><g id="1625348338071" inkscape:groupmode="layer" transform="matrix(1,0,0,1,0,0)" style="opacity:1.0"><path transform="matrix(1,0,0,1,0,0)" d="M 85.0 128.0 L 84.0 130.0 L 84.0 131.0 L 84.0 133.0 L 84.0 136.0 L 84.0 141.0 L 85.0 148.0 L 85.0 156.0 L 85.0 167.0 L 84.0 180.0 L 83.0 194.0 L 81.0 208.0 L 80.0 225.0 L 77.0 239.0 L 75.0 251.0 L 72.0 260.0 L 69.0 267.0 L 64.0 273.0 L 58.0 278.0 L 53.0 283.0 L 49.0 285.0 L 44.0 287.0 L 40.0 288.0 L 35.0 289.0 L 31.0 290.0 L 28.0 290.0" scribmaster:penstyle="draw" style="stroke:#000000;stroke-width:5.0;stroke-linejoin:round;stroke-linecap:round;stroke-opacity:1.0;fill:none" /><path transform="matrix(1,0,0,1,0,0)" d="M 87.0 97.0 L 86.0 96.0 L 85.0 96.0 L 84.0 96.0 L 85.0 96.0" scribmaster:penstyle="draw" style="stroke:#000000;stroke-width:5.0;stroke-linejoin:round;stroke-linecap:round;stroke-opacity:1.0;fill:none" /></g></g></svg>