<?xml version='1.0' encoding='ASCII' standalone='yes'?>
<svg width = "6in" height = "4in" xmlns="http://www.w3.org/2000/svg" xmlns:xlink="http://www.w3.org/1999/xlink" version="1.1">
  <g transform="translate(-10.579618842507898, 0) scale(1 1) translate(0, 0) scale(0.15 0.15)  skewX(10.000000)">
    <sodipodi:namedview xmlns:sodipodi="http://sodipodi.sourceforge.net/DTD/sodipodi-0.dtd" id="ScribMaster"/>
    <filter id="blur">
      <feGaussianBlur stdDeviation="5.0"/>
    </filter>
    <defs/>
    <g xmlns:inkscape="http://www.inkscape.org/namespaces/inkscape" xmlns:scribmaster="http://scribmaster.com/scribmaster" id="1620939628226" transform="matrix(1,0,0,1,124.996094,181.889359)" style="opacity:1.0">
      <g id="1620536817093" inkscape:groupmode="layer" transform="matrix(1,0,0,1,0,0)" style="opacity:1.0">
        <path transform="matrix(1,0,0,1,0,0)" d="M 20.003906 126.11064 L 20.003906 127.11064 L 20.003906 129.11064 L 20.003906 130.11064 L 21.003906 133.11064 L 21.003906 136.11064 L 22.003906 140.11064 L 23.003906 144.11064 L 24.003906 148.11064 L 25.003906 154.11064 L 26.003906 161.11064 L 27.003906 171.11064 L 28.003906 179.11064 L 29.003906 190.11064 L 30.003906 200.11064 L 31.003906 208.11064 L 31.003906 217.11064 L 32.003906 224.11064 L 32.003906 231.11064 L 33.003906 236.11064 L 33.003906 239.11064 L 33.003906 241.11064 L 33.003906 243.11064 L 34.003906 241.11064 L 34.003906 238.11064 L 35.003906 235.11064 L 37.003906 230.11064 L 39.003906 223.11064 L 42.003906 215.11064 L 45.003906 206.11064 L 48.003906 196.11064 L 51.003906 188.11064 L 54.003906 179.11064 L 57.003906 170.11064 L 60.003906 162.11064 L 63.003906 155.11064 L 66.00391 149.11064 L 70.00391 143.11064 L 73.00391 139.11064 L 76.00391 135.11064 L 78.00391 133.11064 L 80.00391 131.11064 L 81.00391 131.11064 L 83.00391 131.11064 L 84.00391 131.11064 L 86.00391 132.11064 L 87.00391 134.11064 L 89.00391 136.11064 L 90.00391 140.11064 L 91.00391 143.11064 L 93.00391 146.11064 L 94.00391 152.11064 L 95.00391 159.11064 L 95.00391 166.11064 L 95.00391 173.11064 L 95.00391 180.11064 L 95.00391 186.11064 L 95.00391 192.11064 L 95.00391 198.11064 L 94.00391 202.11064 L 94.00391 206.11064 L 94.00391 209.11064 L 93.00391 211.11064 L 93.00391 212.11064 L 93.00391 213.11064 L 94.00391 213.11064 L 94.00391 212.11064 L 95.00391 211.11064 L 95.00391 208.11064 L 96.00391 204.11064 L 98.00391 198.11064 L 100.00391 192.11064 L 102.00391 186.11064 L 104.00391 179.11064 L 107.00391 171.11064 L 111.00391 164.11064 L 114.00391 156.11064 L 117.00391 150.11064 L 121.00391 145.11064 L 124.00391 140.11064 L 127.00391 135.11064 L 130.0039 132.11064 L 133.0039 130.11064 L 135.0039 129.11064 L 136.0039 128.11064 L 138.0039 128.11064 L 140.0039 128.11064 L 142.0039 129.11064 L 144.0039 130.11064 L 145.0039 132.11064 L 147.0039 135.11064 L 149.0039 139.11064 L 150.0039 143.11064 L 152.0039 148.11064 L 153.0039 155.11064 L 155.0039 164.11064 L 156.0039 174.11064 L 156.0039 184.11064 L 157.0039 193.11064 L 158.0039 201.11064 L 158.0039 209.11064 L 158.0039 216.11064 L 159.0039 223.11064 L 159.0039 228.11064 L 160.0039 232.11064 L 161.0039 234.11064" scribmaster:penstyle="draw" style="stroke:#000000;stroke-width:1.0;stroke-linejoin:round;stroke-linecap:round;stroke-opacity:1.0;fill:none"/>
      </g>
    </g>
    <defs/>
    <g xmlns:inkscape="http://www.inkscape.org/namespaces/inkscape" id="1620939628228" transform="matrix(1,0,0,1,0,0)" style="opacity:1.0">
      <g id="1620621491459" inkscape:groupmode="layer" transform="matrix(1,0,0,1,0,0)" style="opacity:1.0"/>
    </g>
  </g>
</svg>
