<?xml version='1.0' encoding='ASCII' standalone='yes'?>
<svg width = "6in" height = "4in" xmlns="http://www.w3.org/2000/svg" xmlns:xlink="http://www.w3.org/1999/xlink" version="1.1">
  <g transform="translate(-1.0473038956930552, 0) scale(1 1) translate(-0.8145370177431639, 0) scale(1 1) translate(-0.581794650448325, 0) scale(1 1) translate(-0.34906978865732063, 0) scale(1 1) translate(-0.1163554293259576, 0) scale(1 1) translate(0.1163554293259576, 0) scale(1 1) translate(0.34906978865732075, 0) scale(1 1) translate(0.5817946504483253, 0) scale(1 1) translate(0.814537017743164, 0) scale(1 1) translate(1.0473038956930552, 0) scale(1 1) translate(0, 0) scale(0.1 0.1)  skewX(-1.000000) skewX(-0.777778) skewX(-0.555556) skewX(-0.333333) skewX(-0.111111) skewX(0.111111) skewX(0.333333) skewX(0.555556) skewX(0.777778) skewX(1.000000)">
    <sodipodi:namedview xmlns:sodipodi="http://sodipodi.sourceforge.net/DTD/sodipodi-0.dtd" id="ScribMaster"/>
    <filter id="blur">
      <feGaussianBlur stdDeviation="5.0"/>
    </filter>
    <defs/>
    <g xmlns:inkscape="http://www.inkscape.org/namespaces/inkscape" xmlns:scribmaster="http://scribmaster.com/scribmaster" id="1625349484839" transform="matrix(1.005007,0,0,1.005007,-1.316833,-1.489594)" style="opacity:1.0">
      <g id="1625348338071" inkscape:groupmode="layer" transform="matrix(1,0,0,1,0,0)" style="opacity:1.0">
        <path transform="matrix(1,0,0,1,0,0)" d="M 39.120953 135.8096 L 39.120953 136.80461 L 40.11597 139.78967 L 41.11099 146.75479 L 42.106007 155.70996 L 44.096043 166.65515 L 46.08608 178.59537 L 49.071133 188.54555 L 53.051205 197.50072 L 56.03626 205.46086 L 59.021313 211.43097 L 62.006367 216.40605 L 64.991425 220.38612 L 66.98145 224.3662 L 68.97149 226.35623 L 70.961525 228.34627 L 71.95654 229.3413 L 73.94658 229.3413" scribmaster:penstyle="draw" style="stroke:#000000;stroke-width:5.0;stroke-linejoin:round;stroke-linecap:round;stroke-opacity:1.0;fill:none"/>
        <path transform="matrix(1,0,0,1,0,0)" d="M 113.7473 147.74982 L 111.75726 148.74483 L 110.762245 151.72989 L 109.76723 155.70996 L 107.77719 163.6701 L 103.79712 176.60533 L 98.82203 190.53558 L 92.85192 204.46584 L 84.89178 223.37119 L 77.92665 239.29147 L 70.961525 253.22173 L 63.996403 264.1669 L 58.026295 276.10712 L 53.051205 286.0573 L 49.071133 295.01248 L 47.081097 302.97263 L 45.09106 309.93774 L 45.09106 314.91284 L 46.08608 319.8879" scribmaster:penstyle="draw" style="stroke:#000000;stroke-width:5.0;stroke-linejoin:round;stroke-linecap:round;stroke-opacity:1.0;fill:none"/>
      </g>
    </g>
  </g>
</svg>
