<?xml version='1.0' encoding='ASCII' standalone='yes'?>
<svg width = "6in" height = "4in" xmlns="http://www.w3.org/2000/svg" xmlns:xlink="http://www.w3.org/1999/xlink" version="1.1">
  <g transform="translate(-0.1163554293259576, 0) scale(1 1) translate(0.1163554293259576, 0) scale(1 1) translate(0.34906978865732075, 0) scale(1 1) translate(0.5817946504483253, 0) scale(1 1) translate(0.814537017743164, 0) scale(1 1) translate(1.0473038956930552, 0) scale(1 1) translate(0, 0) scale(0.1 0.1)  skewX(-1.000000) skewX(-0.777778) skewX(-0.555556) skewX(-0.333333) skewX(-0.111111) skewX(0.111111)">
    <sodipodi:namedview xmlns:sodipodi="http://sodipodi.sourceforge.net/DTD/sodipodi-0.dtd" id="ScribMaster"/>
    <filter id="blur">
      <feGaussianBlur stdDeviation="5.0"/>
    </filter>
    <defs/>
    <g xmlns:inkscape="http://www.inkscape.org/namespaces/inkscape" xmlns:scribmaster="http://scribmaster.com/scribmaster" id="1625349469576" transform="matrix(1.005007,0,0,1.005007,-1.316833,-1.489594)" style="opacity:1.0">
      <g id="1625348338071" inkscape:groupmode="layer" transform="matrix(1,0,0,1,0,0)" style="opacity:1.0">
        <path transform="matrix(1,0,0,1,0,0)" d="M 64.991425 138.79465 L 63.996403 140.78468 L 64.991425 144.76476 L 64.991425 151.72989 L 65.986435 160.68504 L 67.97647 172.62526 L 68.97149 183.57047 L 70.961525 192.52562 L 72.95156 200.48576 L 73.94658 208.4459 L 75.936615 214.41602 L 76.93163 219.39111 L 78.92167 223.37119 L 80.911705 224.3662 L 81.90672 226.35623" scribmaster:penstyle="draw" style="stroke:#000000;stroke-width:5.0;stroke-linejoin:round;stroke-linecap:round;stroke-opacity:1.0;fill:none"/>
        <path transform="matrix(1,0,0,1,0,0)" d="M 124.6925 146.75479 L 124.6925 145.75978 L 124.6925 144.76476 L 125.687515 144.76476 L 125.687515 143.76974 L 124.6925 144.76476 L 122.70246 146.75479 L 119.71741 150.73486 L 115.737335 158.695 L 108.77221 170.63522 L 100.812065 184.56548 L 91.8569 203.47083 L 82.90174 223.37119 L 72.95156 242.27652 L 64.991425 258.1968 L 57.031277 270.13702 L 51.06117 281.0822 L 46.08608 291.0324 L 43.101025 297.99753 L 42.106007 303.96762 L 41.11099 305.95767" scribmaster:penstyle="draw" style="stroke:#000000;stroke-width:5.0;stroke-linejoin:round;stroke-linecap:round;stroke-opacity:1.0;fill:none"/>
      </g>
    </g>
  </g>
</svg>
