<?xml version='1.0' encoding='UTF-8' standalone='no' ?><svg xmlns="http://www.w3.org/2000/svg" xmlns:scribmaster="http://scribmaster.com/scribmaster" xmlns:sodipodi="http://sodipodi.sourceforge.net/DTD/sodipodi-0.dtd" xmlns:inkscape="http://www.inkscape.org/namespaces/inkscape" xmlns:xlink="http://www.w3.org/1999/xlink" version="1.2" width="800" height="1014"><sodipodi:namedview id="ScribMaster" /><filter id="blur"><feGaussianBlur stdDeviation="5.0" /></filter><defs /><g id="1620600274942" transform="matrix(1,0,0,1,0,0)" style="opacity:1.0"><g id="1620536817093" inkscape:groupmode="layer" transform="matrix(1,0,0,1,0,0)" style="opacity:1.0"><path transform="matrix(1,0,0,1,0,0)" d="M 328.0 55.0 L 327.0 56.0 L 326.0 58.0 L 326.0 60.0 L 326.0 63.0 L 326.0 67.0 L 325.0 72.0 L 325.0 80.0 L 325.0 91.0 L 324.0 101.0 L 324.0 113.0 L 325.0 127.0 L 325.0 141.0 L 327.0 156.0 L 329.0 170.0 L 331.0 186.0 L 333.0 199.0 L 335.0 210.0 L 337.0 221.0 L 339.0 233.0 L 341.0 243.0 L 343.0 251.0 L 345.0 258.0 L 347.0 263.0 L 348.0 268.0 L 349.0 271.0 L 350.0 273.0 L 350.0 274.0 L 351.0 274.0" scribmaster:penstyle="draw" style="stroke:#000000;stroke-width:5.0;stroke-linejoin:round;stroke-linecap:round;stroke-opacity:1.0;fill:none" /><path transform="matrix(1,0,0,1,0,0)" d="M 418.0 52.0 L 418.0 53.0 L 418.0 55.0 L 419.0 58.0 L 420.0 62.0 L 420.0 66.0 L 422.0 72.0 L 424.0 82.0 L 425.0 93.0 L 427.0 103.0 L 428.0 115.0 L 430.0 129.0 L 431.0 143.0 L 432.0 155.0 L 434.0 169.0 L 435.0 183.0 L 437.0 196.0 L 439.0 206.0 L 440.0 216.0 L 443.0 225.0 L 444.0 234.0 L 445.0 243.0 L 446.0 250.0 L 448.0 256.0 L 450.0 261.0 L 451.0 265.0 L 452.0 267.0 L 452.0 268.0 L 453.0 269.0 L 453.0 270.0 L 454.0 269.0 L 454.0 268.0" scribmaster:penstyle="draw" style="stroke:#000000;stroke-width:5.0;stroke-linejoin:round;stroke-linecap:round;stroke-opacity:1.0;fill:none" /><path transform="matrix(1,0,0,1,0,0)" d="M 281.0 133.0 L 282.0 132.0 L 283.0 132.0 L 286.0 132.0 L 289.0 131.0 L 295.0 131.0 L 302.0 131.0 L 315.0 131.0 L 331.0 130.0 L 346.0 130.0 L 363.0 129.0 L 379.0 128.0 L 394.0 126.0 L 409.0 124.0 L 425.0 122.0 L 439.0 121.0 L 451.0 120.0 L 464.0 118.0 L 475.0 117.0 L 486.0 116.0 L 494.0 116.0 L 501.0 116.0 L 507.0 116.0 L 512.0 117.0 L 514.0 117.0 L 515.0 118.0 L 515.0 119.0 L 515.0 120.0 L 514.0 122.0" scribmaster:penstyle="draw" style="stroke:#000000;stroke-width:5.0;stroke-linejoin:round;stroke-linecap:round;stroke-opacity:1.0;fill:none" /><path transform="matrix(1,0,0,1,0,0)" d="M 301.0 233.0 L 302.0 232.0 L 303.0 232.0 L 304.0 231.0 L 306.0 230.0 L 309.0 229.0 L 314.0 228.0 L 322.0 227.0 L 331.0 226.0 L 341.0 224.0 L 353.0 222.0 L 369.0 220.0 L 383.0 218.0 L 401.0 216.0 L 420.0 213.0 L 438.0 211.0 L 453.0 208.0 L 470.0 206.0 L 483.0 204.0 L 495.0 203.0 L 507.0 203.0 L 516.0 202.0 L 525.0 203.0" scribmaster:penstyle="draw" style="stroke:#000000;stroke-width:5.0;stroke-linejoin:round;stroke-linecap:round;stroke-opacity:1.0;fill:none" /></g></g></svg>