<?xml version='1.0' encoding='UTF-8' standalone='no' ?><svg xmlns="http://www.w3.org/2000/svg" xmlns:scribmaster="http://scribmaster.com/scribmaster" xmlns:sodipodi="http://sodipodi.sourceforge.net/DTD/sodipodi-0.dtd" xmlns:inkscape="http://www.inkscape.org/namespaces/inkscape" xmlns:xlink="http://www.w3.org/1999/xlink" version="1.2" width="800" height="1014"><sodipodi:namedview id="ScribMaster" /><filter id="blur"><feGaussianBlur stdDeviation="5.0" /></filter><defs /><g id="1620598676355" transform="matrix(1,0,0,1,0,0)" style="opacity:1.0"><g id="1620536817093" inkscape:groupmode="layer" transform="matrix(1,0,0,1,0,0)" style="opacity:1.0"><path transform="matrix(1,0,0,1,0,0)" d="M 365.0 124.0 L 364.0 124.0 L 363.0 124.0 L 361.0 124.0 L 358.0 126.0 L 356.0 127.0 L 353.0 129.0 L 350.0 131.0 L 345.0 137.0 L 338.0 143.0 L 331.0 151.0 L 325.0 159.0 L 320.0 167.0 L 316.0 175.0 L 313.0 181.0 L 312.0 188.0 L 311.0 193.0 L 312.0 197.0 L 313.0 199.0 L 315.0 201.0 L 317.0 202.0 L 320.0 202.0 L 323.0 201.0 L 328.0 198.0 L 333.0 194.0 L 340.0 188.0 L 346.0 182.0 L 352.0 175.0 L 356.0 169.0 L 360.0 163.0 L 363.0 158.0 L 365.0 153.0 L 366.0 150.0 L 367.0 148.0 L 368.0 146.0 L 368.0 145.0 L 368.0 144.0 L 368.0 145.0 L 368.0 146.0 L 369.0 148.0 L 369.0 151.0 L 370.0 155.0 L 371.0 160.0 L 373.0 168.0 L 376.0 175.0 L 381.0 181.0 L 390.0 186.0" scribmaster:penstyle="draw" style="stroke:#000000;stroke-width:5.0;stroke-linejoin:round;stroke-linecap:round;stroke-opacity:1.0;fill:none" /></g></g></svg>