<?xml version='1.0' encoding='UTF-8' standalone='no' ?><svg xmlns="http://www.w3.org/2000/svg" xmlns:scribmaster="http://scribmaster.com/scribmaster" xmlns:sodipodi="http://sodipodi.sourceforge.net/DTD/sodipodi-0.dtd" xmlns:inkscape="http://www.inkscape.org/namespaces/inkscape" xmlns:xlink="http://www.w3.org/1999/xlink" version="1.2" width="800" height="520"><sodipodi:namedview id="ScribMaster" /><filter id="blur"><feGaussianBlur stdDeviation="5.0" /></filter><defs /><g id="1620598725525" transform="matrix(1,0,0,1,0,0)" style="opacity:1.0"><g id="1620536817093" inkscape:groupmode="layer" transform="matrix(1,0,0,1,0,0)" style="opacity:1.0"><path transform="matrix(1,0,0,1,0,0)" d="M 334.0 32.0 L 335.0 33.0 L 336.0 35.0 L 337.0 38.0 L 338.0 43.0 L 338.0 50.0 L 338.0 57.0 L 338.0 67.0 L 338.0 82.0 L 337.0 95.0 L 336.0 108.0 L 335.0 121.0 L 335.0 137.0 L 334.0 153.0 L 334.0 168.0 L 334.0 186.0 L 333.0 200.0 L 333.0 213.0 L 332.0 226.0 L 332.0 238.0 L 331.0 248.0 L 330.0 258.0 L 329.0 265.0 L 328.0 272.0 L 327.0 278.0 L 326.0 284.0 L 325.0 287.0 L 325.0 288.0 L 325.0 289.0 L 325.0 288.0 L 325.0 287.0 L 325.0 285.0 L 325.0 282.0 L 325.0 278.0 L 325.0 275.0 L 326.0 269.0 L 327.0 263.0 L 328.0 255.0 L 329.0 248.0 L 330.0 241.0 L 331.0 234.0 L 333.0 228.0 L 335.0 221.0 L 337.0 215.0 L 339.0 209.0 L 341.0 203.0 L 344.0 197.0 L 347.0 193.0 L 351.0 188.0 L 355.0 185.0 L 359.0 182.0 L 364.0 181.0 L 369.0 180.0 L 375.0 182.0 L 382.0 185.0 L 389.0 190.0 L 396.0 196.0 L 403.0 203.0 L 409.0 212.0 L 413.0 221.0 L 416.0 229.0 L 417.0 238.0 L 416.0 246.0 L 414.0 255.0 L 410.0 263.0 L 404.0 271.0 L 397.0 278.0 L 389.0 283.0 L 380.0 286.0 L 370.0 286.0 L 359.0 283.0 L 348.0 278.0 L 338.0 268.0" scribmaster:penstyle="draw" style="stroke:#000000;stroke-width:5.0;stroke-linejoin:round;stroke-linecap:round;stroke-opacity:1.0;fill:none" /></g></g></svg>