<?xml version='1.0' encoding='UTF-8' standalone='no' ?><svg xmlns="http://www.w3.org/2000/svg" xmlns:scribmaster="http://scribmaster.com/scribmaster" xmlns:sodipodi="http://sodipodi.sourceforge.net/DTD/sodipodi-0.dtd" xmlns:inkscape="http://www.inkscape.org/namespaces/inkscape" xmlns:xlink="http://www.w3.org/1999/xlink" version="1.2" width="800" height="520"><sodipodi:namedview id="ScribMaster" /><filter id="blur"><feGaussianBlur stdDeviation="5.0" /></filter><defs /><g id="1620598864936" transform="matrix(1,0,0,1,0,0)" style="opacity:1.0"><g id="1620536817093" inkscape:groupmode="layer" transform="matrix(1,0,0,1,0,0)" style="opacity:1.0"><path transform="matrix(1,0,0,1,0,0)" d="M 392.0 131.0 L 392.0 129.0 L 392.0 128.0 L 391.0 128.0 L 390.0 128.0 L 387.0 128.0 L 382.0 130.0 L 374.0 133.0 L 363.0 138.0 L 351.0 145.0 L 340.0 152.0 L 330.0 160.0 L 323.0 168.0 L 317.0 175.0 L 314.0 183.0 L 312.0 189.0 L 313.0 194.0 L 316.0 198.0 L 319.0 199.0 L 321.0 199.0 L 324.0 199.0 L 328.0 198.0 L 334.0 194.0 L 341.0 189.0 L 349.0 182.0 L 358.0 174.0 L 365.0 165.0 L 373.0 155.0 L 379.0 146.0 L 384.0 138.0 L 387.0 131.0 L 390.0 125.0 L 391.0 122.0 L 392.0 120.0 L 393.0 119.0 L 393.0 118.0 L 393.0 119.0 L 393.0 121.0 L 393.0 124.0 L 393.0 129.0 L 392.0 137.0 L 392.0 150.0 L 392.0 176.0 L 392.0 196.0 L 392.0 223.0 L 391.0 242.0 L 392.0 254.0 L 391.0 266.0 L 389.0 275.0 L 385.0 283.0 L 381.0 288.0 L 377.0 290.0 L 372.0 292.0 L 365.0 293.0 L 357.0 294.0 L 350.0 295.0 L 342.0 295.0 L 335.0 293.0" scribmaster:penstyle="draw" style="stroke:#000000;stroke-width:5.0;stroke-linejoin:round;stroke-linecap:round;stroke-opacity:1.0;fill:none" /></g></g></svg>