<?xml version='1.0' encoding='UTF-8' standalone='no' ?><svg xmlns="http://www.w3.org/2000/svg" xmlns:scribmaster="http://scribmaster.com/scribmaster" xmlns:sodipodi="http://sodipodi.sourceforge.net/DTD/sodipodi-0.dtd" xmlns:inkscape="http://www.inkscape.org/namespaces/inkscape" xmlns:xlink="http://www.w3.org/1999/xlink" version="1.2" width="800" height="520"><sodipodi:namedview id="ScribMaster" /><filter id="blur"><feGaussianBlur stdDeviation="5.0" /></filter><defs /><g id="1620598890921" transform="matrix(1,0,0,1,0,0)" style="opacity:1.0"><g id="1620536817093" inkscape:groupmode="layer" transform="matrix(1,0,0,1,0,0)" style="opacity:1.0"><path transform="matrix(1,0,0,1,0,0)" d="M 340.0 49.0 L 339.0 50.0 L 339.0 52.0 L 339.0 55.0 L 338.0 60.0 L 337.0 67.0 L 336.0 81.0 L 334.0 98.0 L 332.0 117.0 L 330.0 137.0 L 328.0 153.0 L 327.0 170.0 L 325.0 186.0 L 323.0 199.0 L 321.0 209.0 L 320.0 219.0 L 320.0 228.0 L 320.0 236.0 L 320.0 244.0 L 320.0 250.0 L 320.0 253.0 L 320.0 255.0 L 320.0 257.0 L 320.0 258.0 L 321.0 258.0 L 322.0 256.0 L 323.0 254.0 L 324.0 251.0 L 326.0 246.0 L 329.0 239.0 L 333.0 229.0 L 338.0 217.0 L 343.0 204.0 L 348.0 194.0 L 352.0 185.0 L 357.0 178.0 L 361.0 173.0 L 366.0 169.0 L 369.0 168.0 L 373.0 168.0 L 375.0 169.0 L 378.0 170.0 L 380.0 173.0 L 383.0 178.0 L 386.0 184.0 L 390.0 192.0 L 395.0 204.0 L 400.0 215.0 L 406.0 227.0 L 411.0 238.0 L 418.0 251.0" scribmaster:penstyle="draw" style="stroke:#000000;stroke-width:5.0;stroke-linejoin:round;stroke-linecap:round;stroke-opacity:1.0;fill:none" /></g></g></svg>