<?xml version='1.0' encoding='UTF-8' standalone='no' ?><svg xmlns="http://www.w3.org/2000/svg" xmlns:scribmaster="http://scribmaster.com/scribmaster" xmlns:sodipodi="http://sodipodi.sourceforge.net/DTD/sodipodi-0.dtd" xmlns:inkscape="http://www.inkscape.org/namespaces/inkscape" xmlns:xlink="http://www.w3.org/1999/xlink" version="1.2" width="800" height="520"><sodipodi:namedview id="ScribMaster" /><filter id="blur"><feGaussianBlur stdDeviation="5.0" /></filter><defs /><g id="1620598911817" transform="matrix(1,0,0,1,0,0)" style="opacity:1.0"><g id="1620536817093" inkscape:groupmode="layer" transform="matrix(1,0,0,1,0,0)" style="opacity:1.0"><path transform="matrix(1,0,0,1,0,0)" d="M 379.0 151.0 L 379.0 152.0 L 379.0 153.0 L 379.0 155.0 L 380.0 158.0 L 380.0 162.0 L 381.0 167.0 L 382.0 173.0 L 383.0 178.0 L 384.0 184.0 L 385.0 189.0 L 385.0 194.0 L 386.0 200.0 L 387.0 205.0 L 388.0 211.0 L 389.0 217.0 L 390.0 222.0 L 390.0 228.0 L 390.0 233.0 L 391.0 238.0 L 391.0 242.0 L 392.0 246.0 L 392.0 250.0 L 392.0 252.0 L 392.0 254.0 L 392.0 257.0 L 392.0 258.0 L 392.0 259.0 L 392.0 261.0 L 392.0 262.0 L 392.0 263.0 L 393.0 263.0" scribmaster:penstyle="draw" style="stroke:#000000;stroke-width:5.0;stroke-linejoin:round;stroke-linecap:round;stroke-opacity:1.0;fill:none" /><path transform="matrix(1,0,0,1,0,0)" d="M 377.0 103.0 L 375.0 103.0 L 375.0 105.0 L 375.0 106.0 L 374.0 107.0 L 373.0 110.0" scribmaster:penstyle="draw" style="stroke:#000000;stroke-width:5.0;stroke-linejoin:round;stroke-linecap:round;stroke-opacity:1.0;fill:none" /></g></g></svg>