<?xml version='1.0' encoding='UTF-8' standalone='no' ?><svg xmlns="http://www.w3.org/2000/svg" xmlns:scribmaster="http://scribmaster.com/scribmaster" xmlns:sodipodi="http://sodipodi.sourceforge.net/DTD/sodipodi-0.dtd" xmlns:inkscape="http://www.inkscape.org/namespaces/inkscape" xmlns:xlink="http://www.w3.org/1999/xlink" version="1.2" width="800" height="520"><sodipodi:namedview id="ScribMaster" /><filter id="blur"><feGaussianBlur stdDeviation="5.0" /></filter><defs /><g id="1620598943477" transform="matrix(1,0,0,1,0,0)" style="opacity:1.0"><g id="1620536817093" inkscape:groupmode="layer" transform="matrix(1,0,0,1,0,0)" style="opacity:1.0"><path transform="matrix(1,0,0,1,0,0)" d="M 375.0 159.0 L 374.0 159.0 L 373.0 159.0 L 372.0 160.0 L 371.0 160.0 L 371.0 162.0 L 371.0 163.0 L 370.0 165.0 L 370.0 168.0 L 370.0 171.0 L 370.0 175.0 L 369.0 179.0 L 368.0 183.0 L 368.0 187.0 L 367.0 192.0 L 367.0 198.0 L 367.0 204.0 L 366.0 211.0 L 366.0 218.0 L 365.0 225.0 L 365.0 231.0 L 364.0 238.0 L 362.0 243.0 L 360.0 248.0 L 357.0 253.0 L 354.0 258.0 L 351.0 261.0 L 347.0 264.0 L 343.0 267.0 L 338.0 268.0 L 334.0 269.0 L 329.0 269.0 L 325.0 268.0 L 320.0 266.0 L 316.0 263.0 L 313.0 261.0 L 310.0 258.0 L 307.0 255.0 L 305.0 253.0 L 303.0 249.0" scribmaster:penstyle="draw" style="stroke:#000000;stroke-width:5.0;stroke-linejoin:round;stroke-linecap:round;stroke-opacity:1.0;fill:none" /><path transform="matrix(1,0,0,1,0,0)" d="M 379.0 100.0 L 378.0 99.0 L 378.0 98.0" scribmaster:penstyle="draw" style="stroke:#000000;stroke-width:5.0;stroke-linejoin:round;stroke-linecap:round;stroke-opacity:1.0;fill:none" /></g></g></svg>