<?xml version='1.0' encoding='UTF-8' standalone='no' ?><svg xmlns="http://www.w3.org/2000/svg" xmlns:scribmaster="http://scribmaster.com/scribmaster" xmlns:sodipodi="http://sodipodi.sourceforge.net/DTD/sodipodi-0.dtd" xmlns:inkscape="http://www.inkscape.org/namespaces/inkscape" xmlns:xlink="http://www.w3.org/1999/xlink" version="1.2" width="800" height="520"><sodipodi:namedview id="ScribMaster" /><filter id="blur"><feGaussianBlur stdDeviation="5.0" /></filter><defs /><g id="1620598972242" transform="matrix(1,0,0,1,0,0)" style="opacity:1.0"><g id="1620536817093" inkscape:groupmode="layer" transform="matrix(1,0,0,1,0,0)" style="opacity:1.0"><path transform="matrix(1,0,0,1,0,0)" d="M 355.0 69.0 L 355.0 70.0 L 354.0 72.0 L 354.0 75.0 L 354.0 80.0 L 354.0 89.0 L 354.0 103.0 L 354.0 119.0 L 354.0 139.0 L 354.0 158.0 L 355.0 177.0 L 356.0 194.0 L 356.0 207.0 L 356.0 219.0 L 355.0 231.0 L 355.0 243.0 L 354.0 253.0 L 354.0 263.0 L 355.0 271.0 L 355.0 278.0 L 356.0 282.0 L 358.0 283.0 L 360.0 283.0 L 361.0 281.0 L 363.0 279.0" scribmaster:penstyle="draw" style="stroke:#000000;stroke-width:5.0;stroke-linejoin:round;stroke-linecap:round;stroke-opacity:1.0;fill:none" /><path transform="matrix(1,0,0,1,0,0)" d="M 447.0 122.0 L 447.0 121.0 L 448.0 120.0 L 448.0 119.0 L 448.0 118.0 L 447.0 117.0 L 446.0 117.0 L 444.0 118.0 L 442.0 120.0 L 438.0 123.0 L 433.0 128.0 L 425.0 136.0 L 417.0 144.0 L 408.0 152.0 L 400.0 161.0 L 392.0 170.0 L 385.0 179.0 L 379.0 187.0 L 373.0 194.0 L 367.0 200.0 L 362.0 204.0 L 358.0 208.0 L 355.0 210.0 L 354.0 211.0 L 353.0 212.0 L 353.0 213.0 L 354.0 213.0 L 355.0 214.0 L 356.0 214.0 L 358.0 214.0 L 361.0 215.0 L 364.0 215.0 L 370.0 216.0 L 376.0 218.0 L 382.0 221.0 L 389.0 224.0 L 396.0 229.0 L 404.0 236.0 L 411.0 243.0 L 418.0 252.0 L 427.0 261.0" scribmaster:penstyle="draw" style="stroke:#000000;stroke-width:5.0;stroke-linejoin:round;stroke-linecap:round;stroke-opacity:1.0;fill:none" /></g></g></svg>