<?xml version='1.0' encoding='UTF-8' standalone='no' ?><svg xmlns="http://www.w3.org/2000/svg" xmlns:scribmaster="http://scribmaster.com/scribmaster" xmlns:sodipodi="http://sodipodi.sourceforge.net/DTD/sodipodi-0.dtd" xmlns:inkscape="http://www.inkscape.org/namespaces/inkscape" xmlns:xlink="http://www.w3.org/1999/xlink" version="1.2" width="800" height="520"><sodipodi:namedview id="ScribMaster" /><filter id="blur"><feGaussianBlur stdDeviation="5.0" /></filter><defs /><g id="1620599013872" transform="matrix(1,0,0,1,0,0)" style="opacity:1.0"><g id="1620536817093" inkscape:groupmode="layer" transform="matrix(1,0,0,1,0,0)" style="opacity:1.0"><path transform="matrix(1,0,0,1,0,0)" d="M 303.0 235.0 L 302.0 236.0 L 302.0 238.0 L 302.0 241.0 L 302.0 244.0 L 301.0 249.0 L 300.0 254.0 L 300.0 260.0 L 299.0 266.0 L 298.0 271.0 L 297.0 276.0 L 297.0 280.0 L 296.0 284.0 L 296.0 288.0 L 295.0 290.0 L 295.0 292.0 L 295.0 293.0 L 295.0 291.0 L 296.0 288.0 L 298.0 283.0 L 299.0 276.0 L 302.0 266.0 L 304.0 254.0 L 307.0 243.0 L 310.0 234.0 L 313.0 224.0 L 316.0 215.0 L 319.0 207.0 L 321.0 200.0 L 324.0 193.0 L 326.0 188.0 L 329.0 184.0 L 331.0 181.0 L 334.0 179.0 L 335.0 178.0 L 337.0 177.0 L 338.0 176.0 L 340.0 176.0 L 342.0 177.0 L 344.0 178.0 L 346.0 180.0 L 349.0 184.0 L 352.0 188.0 L 355.0 193.0 L 358.0 199.0 L 361.0 206.0 L 364.0 214.0 L 367.0 223.0 L 370.0 230.0 L 373.0 238.0 L 375.0 245.0 L 378.0 252.0 L 380.0 258.0 L 381.0 263.0 L 383.0 268.0 L 385.0 272.0 L 385.0 273.0 L 386.0 274.0 L 386.0 275.0 L 387.0 274.0 L 387.0 273.0 L 387.0 271.0 L 387.0 268.0 L 388.0 264.0 L 388.0 259.0 L 389.0 253.0 L 390.0 246.0 L 390.0 239.0 L 392.0 232.0 L 394.0 224.0 L 395.0 215.0 L 398.0 208.0 L 400.0 200.0 L 403.0 194.0 L 406.0 188.0 L 410.0 183.0 L 413.0 179.0 L 416.0 175.0 L 419.0 173.0 L 422.0 171.0 L 425.0 171.0 L 426.0 171.0 L 428.0 171.0 L 430.0 173.0 L 432.0 175.0 L 434.0 178.0 L 435.0 183.0 L 437.0 188.0 L 439.0 195.0 L 440.0 204.0 L 443.0 215.0 L 445.0 227.0 L 446.0 238.0 L 448.0 248.0 L 449.0 257.0 L 450.0 264.0 L 453.0 270.0" scribmaster:penstyle="draw" style="stroke:#000000;stroke-width:5.0;stroke-linejoin:round;stroke-linecap:round;stroke-opacity:1.0;fill:none" /></g></g></svg>