<?xml version='1.0' encoding='UTF-8' standalone='no' ?><svg xmlns="http://www.w3.org/2000/svg" xmlns:scribmaster="http://scribmaster.com/scribmaster" xmlns:sodipodi="http://sodipodi.sourceforge.net/DTD/sodipodi-0.dtd" xmlns:inkscape="http://www.inkscape.org/namespaces/inkscape" xmlns:xlink="http://www.w3.org/1999/xlink" version="1.2" width="800" height="520"><sodipodi:namedview id="ScribMaster" /><filter id="blur"><feGaussianBlur stdDeviation="5.0" /></filter><defs /><g id="1620599086302" transform="matrix(1,0,0,1,0,0)" style="opacity:1.0"><g id="1620536817093" inkscape:groupmode="layer" transform="matrix(1,0,0,1,0,0)" style="opacity:1.0"><path transform="matrix(1,0,0,1,0,0)" d="M 344.0 210.0 L 343.0 210.0 L 343.0 211.0 L 342.0 212.0 L 341.0 214.0 L 340.0 218.0 L 338.0 225.0 L 335.0 238.0 L 332.0 256.0 L 329.0 279.0 L 327.0 308.0 L 326.0 328.0 L 326.0 347.0 L 328.0 366.0 L 329.0 379.0 L 330.0 389.0 L 331.0 398.0 L 333.0 405.0 L 334.0 410.0 L 335.0 413.0 L 335.0 412.0 L 335.0 410.0 L 335.0 408.0 L 335.0 405.0 L 335.0 403.0 L 335.0 399.0 L 335.0 393.0 L 334.0 384.0 L 334.0 374.0 L 333.0 360.0 L 331.0 343.0 L 330.0 326.0 L 330.0 309.0 L 330.0 292.0 L 330.0 277.0 L 331.0 265.0 L 333.0 253.0 L 336.0 241.0 L 340.0 230.0 L 344.0 223.0 L 350.0 217.0 L 356.0 212.0 L 364.0 208.0 L 372.0 205.0 L 380.0 204.0 L 387.0 205.0 L 393.0 206.0 L 399.0 208.0 L 405.0 210.0 L 410.0 213.0 L 416.0 217.0 L 421.0 220.0 L 424.0 225.0 L 426.0 229.0 L 426.0 233.0 L 424.0 238.0 L 421.0 243.0 L 417.0 248.0 L 410.0 256.0 L 399.0 266.0 L 384.0 279.0 L 369.0 290.0 L 355.0 300.0 L 343.0 307.0" scribmaster:penstyle="draw" style="stroke:#000000;stroke-width:5.0;stroke-linejoin:round;stroke-linecap:round;stroke-opacity:1.0;fill:none" /></g></g></svg>