<?xml version='1.0' encoding='UTF-8' standalone='no' ?><svg xmlns="http://www.w3.org/2000/svg" xmlns:scribmaster="http://scribmaster.com/scribmaster" xmlns:sodipodi="http://sodipodi.sourceforge.net/DTD/sodipodi-0.dtd" xmlns:inkscape="http://www.inkscape.org/namespaces/inkscape" xmlns:xlink="http://www.w3.org/1999/xlink" version="1.2" width="800" height="520"><sodipodi:namedview id="ScribMaster" /><filter id="blur"><feGaussianBlur stdDeviation="5.0" /></filter><defs /><g id="1620599109701" transform="matrix(1,0,0,1,0,0)" style="opacity:1.0"><g id="1620536817093" inkscape:groupmode="layer" transform="matrix(1,0,0,1,0,0)" style="opacity:1.0"><path transform="matrix(1,0,0,1,0,0)" d="M 381.0 110.0 L 380.0 109.0 L 379.0 108.0 L 378.0 108.0 L 376.0 108.0 L 374.0 108.0 L 371.0 109.0 L 366.0 111.0 L 358.0 114.0 L 346.0 119.0 L 335.0 123.0 L 325.0 128.0 L 314.0 134.0 L 305.0 140.0 L 295.0 148.0 L 287.0 156.0 L 280.0 163.0 L 275.0 171.0 L 272.0 178.0 L 270.0 185.0 L 269.0 191.0 L 269.0 195.0 L 270.0 198.0 L 272.0 200.0 L 274.0 202.0 L 277.0 203.0 L 280.0 204.0 L 283.0 203.0 L 288.0 203.0 L 293.0 201.0 L 300.0 198.0 L 310.0 192.0 L 319.0 187.0 L 328.0 180.0 L 338.0 174.0 L 347.0 167.0 L 355.0 159.0 L 361.0 153.0 L 367.0 146.0 L 371.0 140.0 L 375.0 136.0 L 378.0 132.0 L 379.0 129.0 L 380.0 127.0 L 381.0 126.0 L 381.0 125.0 L 381.0 124.0 L 382.0 124.0 L 382.0 123.0 L 381.0 123.0 L 381.0 124.0 L 381.0 125.0 L 381.0 127.0 L 380.0 132.0 L 379.0 141.0 L 379.0 157.0 L 379.0 178.0 L 379.0 202.0 L 379.0 227.0 L 379.0 248.0 L 380.0 265.0 L 382.0 279.0 L 383.0 290.0 L 384.0 298.0 L 387.0 306.0 L 388.0 312.0 L 390.0 315.0" scribmaster:penstyle="draw" style="stroke:#000000;stroke-width:5.0;stroke-linejoin:round;stroke-linecap:round;stroke-opacity:1.0;fill:none" /></g></g></svg>