<?xml version='1.0' encoding='UTF-8' standalone='no' ?><svg xmlns="http://www.w3.org/2000/svg" xmlns:scribmaster="http://scribmaster.com/scribmaster" xmlns:sodipodi="http://sodipodi.sourceforge.net/DTD/sodipodi-0.dtd" xmlns:inkscape="http://www.inkscape.org/namespaces/inkscape" xmlns:xlink="http://www.w3.org/1999/xlink" version="1.2" width="800" height="520"><sodipodi:namedview id="ScribMaster" /><filter id="blur"><feGaussianBlur stdDeviation="5.0" /></filter><defs /><g id="1620599141879" transform="matrix(1,0,0,1,0,0)" style="opacity:1.0"><g id="1620536817093" inkscape:groupmode="layer" transform="matrix(1,0,0,1,0,0)" style="opacity:1.0"><path transform="matrix(1,0,0,1,0,0)" d="M 401.0 152.0 L 400.0 151.0 L 399.0 151.0 L 398.0 151.0 L 396.0 151.0 L 395.0 151.0 L 389.0 155.0 L 380.0 160.0 L 366.0 170.0 L 351.0 182.0 L 336.0 195.0 L 324.0 206.0 L 314.0 215.0 L 306.0 224.0 L 302.0 233.0 L 299.0 240.0 L 300.0 245.0 L 302.0 249.0 L 308.0 252.0 L 314.0 253.0 L 323.0 255.0 L 339.0 258.0 L 360.0 261.0 L 380.0 265.0 L 401.0 271.0 L 415.0 277.0 L 425.0 281.0 L 429.0 286.0 L 429.0 290.0 L 426.0 296.0 L 420.0 301.0 L 411.0 307.0 L 400.0 313.0 L 380.0 321.0 L 355.0 329.0 L 332.0 335.0 L 310.0 337.0" scribmaster:penstyle="draw" style="stroke:#000000;stroke-width:5.0;stroke-linejoin:round;stroke-linecap:round;stroke-opacity:1.0;fill:none" /></g></g></svg>