<?xml version='1.0' encoding='UTF-8' standalone='no' ?><svg xmlns="http://www.w3.org/2000/svg" xmlns:scribmaster="http://scribmaster.com/scribmaster" xmlns:sodipodi="http://sodipodi.sourceforge.net/DTD/sodipodi-0.dtd" xmlns:inkscape="http://www.inkscape.org/namespaces/inkscape" xmlns:xlink="http://www.w3.org/1999/xlink" version="1.2" width="800" height="520"><sodipodi:namedview id="ScribMaster" /><filter id="blur"><feGaussianBlur stdDeviation="5.0" /></filter><defs /><g id="1620599156438" transform="matrix(1,0,0,1,0,0)" style="opacity:1.0"><g id="1620536817093" inkscape:groupmode="layer" transform="matrix(1,0,0,1,0,0)" style="opacity:1.0"><path transform="matrix(1,0,0,1,0,0)" d="M 266.0 192.0 L 267.0 192.0 L 268.0 192.0 L 271.0 192.0 L 278.0 192.0 L 289.0 191.0 L 304.0 190.0 L 319.0 189.0 L 336.0 188.0 L 353.0 188.0 L 368.0 185.0 L 383.0 183.0 L 395.0 181.0 L 407.0 179.0 L 417.0 176.0 L 426.0 174.0 L 434.0 170.0 L 440.0 169.0" scribmaster:penstyle="draw" style="stroke:#000000;stroke-width:5.0;stroke-linejoin:round;stroke-linecap:round;stroke-opacity:1.0;fill:none" /><path transform="matrix(1,0,0,1,0,0)" d="M 368.0 108.0 L 367.0 108.0 L 367.0 109.0 L 366.0 111.0 L 365.0 114.0 L 363.0 121.0 L 358.0 136.0 L 352.0 170.0 L 347.0 205.0 L 343.0 236.0 L 341.0 258.0 L 339.0 278.0 L 337.0 297.0 L 336.0 314.0 L 333.0 329.0 L 330.0 339.0 L 328.0 348.0 L 327.0 354.0 L 328.0 360.0 L 330.0 361.0" scribmaster:penstyle="draw" style="stroke:#000000;stroke-width:5.0;stroke-linejoin:round;stroke-linecap:round;stroke-opacity:1.0;fill:none" /></g></g></svg>