<?xml version='1.0' encoding='UTF-8' standalone='no' ?><svg xmlns="http://www.w3.org/2000/svg" xmlns:scribmaster="http://scribmaster.com/scribmaster" xmlns:sodipodi="http://sodipodi.sourceforge.net/DTD/sodipodi-0.dtd" xmlns:inkscape="http://www.inkscape.org/namespaces/inkscape" xmlns:xlink="http://www.w3.org/1999/xlink" version="1.2" width="800" height="520"><sodipodi:namedview id="ScribMaster" /><filter id="blur"><feGaussianBlur stdDeviation="5.0" /></filter><defs /><g id="1620599244087" transform="matrix(1,0,0,1,0,0)" style="opacity:1.0"><g id="1620536817093" inkscape:groupmode="layer" transform="matrix(1,0,0,1,0,0)" style="opacity:1.0"><path transform="matrix(1,0,0,1,0,0)" d="M 323.0 136.0 L 321.0 136.0 L 322.0 138.0 L 323.0 143.0 L 324.0 150.0 L 327.0 160.0 L 331.0 175.0 L 335.0 188.0 L 339.0 199.0 L 344.0 211.0 L 349.0 221.0 L 355.0 229.0" scribmaster:penstyle="draw" style="stroke:#000000;stroke-width:5.0;stroke-linejoin:round;stroke-linecap:round;stroke-opacity:1.0;fill:none" /><path transform="matrix(1,0,0,1,0,0)" d="M 432.0 129.0 L 431.0 129.0 L 430.0 130.0 L 428.0 130.0 L 427.0 131.0 L 425.0 134.0 L 421.0 138.0 L 416.0 145.0 L 409.0 157.0 L 401.0 174.0 L 392.0 193.0 L 383.0 214.0 L 374.0 235.0 L 366.0 253.0 L 359.0 266.0 L 352.0 278.0 L 345.0 290.0 L 340.0 299.0 L 335.0 307.0 L 331.0 316.0 L 328.0 322.0 L 325.0 327.0 L 326.0 328.0" scribmaster:penstyle="draw" style="stroke:#000000;stroke-width:5.0;stroke-linejoin:round;stroke-linecap:round;stroke-opacity:1.0;fill:none" /></g></g></svg>