<?xml version='1.0' encoding='UTF-8' standalone='no' ?><svg xmlns="http://www.w3.org/2000/svg" xmlns:scribmaster="http://scribmaster.com/scribmaster" xmlns:sodipodi="http://sodipodi.sourceforge.net/DTD/sodipodi-0.dtd" xmlns:inkscape="http://www.inkscape.org/namespaces/inkscape" xmlns:xlink="http://www.w3.org/1999/xlink" version="1.2" width="800" height="520"><sodipodi:namedview id="ScribMaster" /><filter id="blur"><feGaussianBlur stdDeviation="5.0" /></filter><defs /><g id="1620599449673" transform="matrix(1,0,0,1,0,0)" style="opacity:1.0"><g id="1620536817093" inkscape:groupmode="layer" transform="matrix(1,0,0,1,0,0)" style="opacity:1.0"><path transform="matrix(1,0,0,1,0,0)" d="M 359.0 73.0 L 358.0 72.0 L 357.0 72.0 L 356.0 71.0 L 355.0 71.0 L 354.0 71.0 L 352.0 71.0 L 350.0 71.0 L 347.0 72.0 L 342.0 74.0 L 337.0 77.0 L 331.0 80.0 L 326.0 84.0 L 320.0 91.0 L 312.0 101.0 L 305.0 111.0 L 299.0 123.0 L 293.0 138.0 L 288.0 153.0 L 287.0 167.0 L 287.0 179.0 L 287.0 191.0 L 289.0 201.0 L 292.0 210.0 L 296.0 218.0 L 301.0 224.0 L 307.0 231.0 L 314.0 236.0 L 322.0 239.0 L 330.0 240.0 L 339.0 240.0 L 349.0 239.0 L 358.0 235.0 L 367.0 229.0 L 376.0 223.0 L 385.0 216.0 L 392.0 208.0 L 399.0 200.0 L 405.0 193.0 L 408.0 188.0 L 410.0 183.0 L 411.0 181.0 L 411.0 180.0 L 410.0 180.0 L 410.0 181.0 L 409.0 181.0 L 408.0 181.0 L 408.0 182.0 L 407.0 182.0" scribmaster:penstyle="draw" style="stroke:#000000;stroke-width:5.0;stroke-linejoin:round;stroke-linecap:round;stroke-opacity:1.0;fill:none" /><path transform="matrix(1,0,0,1,0,0)" d="M 371.0 192.0 L 370.0 192.0 L 370.0 191.0 L 372.0 190.0 L 377.0 189.0 L 387.0 188.0 L 404.0 184.0 L 433.0 178.0 L 459.0 175.0" scribmaster:penstyle="draw" style="stroke:#000000;stroke-width:5.0;stroke-linejoin:round;stroke-linecap:round;stroke-opacity:1.0;fill:none" /></g></g></svg>