<?xml version='1.0' encoding='UTF-8' standalone='no' ?><svg xmlns="http://www.w3.org/2000/svg" xmlns:scribmaster="http://scribmaster.com/scribmaster" xmlns:sodipodi="http://sodipodi.sourceforge.net/DTD/sodipodi-0.dtd" xmlns:inkscape="http://www.inkscape.org/namespaces/inkscape" xmlns:xlink="http://www.w3.org/1999/xlink" version="1.2" width="800" height="520"><sodipodi:namedview id="ScribMaster" /><filter id="blur"><feGaussianBlur stdDeviation="5.0" /></filter><defs /><g id="1620599479510" transform="matrix(1,0,0,1,0,0)" style="opacity:1.0"><g id="1620536817093" inkscape:groupmode="layer" transform="matrix(1,0,0,1,0,0)" style="opacity:1.0"><path transform="matrix(1,0,0,1,0,0)" d="M 283.0 53.0 L 282.0 53.0 L 281.0 54.0 L 281.0 55.0 L 280.0 56.0 L 280.0 58.0 L 279.0 62.0 L 278.0 67.0 L 278.0 74.0 L 277.0 85.0 L 277.0 97.0 L 276.0 108.0 L 275.0 121.0 L 274.0 137.0 L 273.0 152.0 L 271.0 166.0 L 270.0 180.0 L 269.0 193.0 L 268.0 204.0 L 267.0 213.0 L 266.0 222.0 L 266.0 229.0 L 265.0 236.0 L 265.0 242.0 L 266.0 246.0 L 266.0 248.0 L 267.0 250.0 L 267.0 252.0 L 267.0 253.0 L 268.0 253.0" scribmaster:penstyle="draw" style="stroke:#000000;stroke-width:5.0;stroke-linejoin:round;stroke-linecap:round;stroke-opacity:1.0;fill:none" /><path transform="matrix(1,0,0,1,0,0)" d="M 410.0 56.0 L 408.0 54.0 L 408.0 55.0 L 409.0 57.0 L 409.0 59.0 L 409.0 62.0 L 410.0 65.0 L 410.0 69.0 L 410.0 74.0 L 411.0 82.0 L 411.0 89.0 L 411.0 98.0 L 411.0 108.0 L 411.0 121.0 L 410.0 136.0 L 410.0 150.0 L 409.0 164.0 L 408.0 179.0 L 407.0 192.0 L 405.0 203.0 L 403.0 211.0 L 402.0 219.0 L 402.0 226.0 L 401.0 233.0 L 401.0 238.0 L 401.0 242.0 L 402.0 245.0 L 403.0 248.0 L 403.0 249.0 L 403.0 250.0 L 404.0 251.0" scribmaster:penstyle="draw" style="stroke:#000000;stroke-width:5.0;stroke-linejoin:round;stroke-linecap:round;stroke-opacity:1.0;fill:none" /><path transform="matrix(1,0,0,1,0,0)" d="M 275.0 162.0 L 274.0 162.0 L 276.0 162.0 L 279.0 163.0 L 283.0 163.0 L 290.0 164.0 L 301.0 164.0 L 314.0 165.0 L 330.0 165.0 L 345.0 165.0 L 360.0 164.0 L 374.0 163.0 L 385.0 162.0 L 395.0 161.0 L 404.0 161.0 L 411.0 162.0" scribmaster:penstyle="draw" style="stroke:#000000;stroke-width:5.0;stroke-linejoin:round;stroke-linecap:round;stroke-opacity:1.0;fill:none" /></g></g></svg>