<?xml version='1.0' encoding='UTF-8' standalone='no' ?><svg xmlns="http://www.w3.org/2000/svg" xmlns:scribmaster="http://scribmaster.com/scribmaster" xmlns:sodipodi="http://sodipodi.sourceforge.net/DTD/sodipodi-0.dtd" xmlns:inkscape="http://www.inkscape.org/namespaces/inkscape" xmlns:xlink="http://www.w3.org/1999/xlink" version="1.2" width="800" height="520"><sodipodi:namedview id="ScribMaster" /><filter id="blur"><feGaussianBlur stdDeviation="5.0" /></filter><defs /><g id="1620599568943" transform="matrix(1,0,0,1,0,0)" style="opacity:1.0"><g id="1620536817093" inkscape:groupmode="layer" transform="matrix(1,0,0,1,0,0)" style="opacity:1.0"><path transform="matrix(1,0,0,1,0,0)" d="M 323.0 46.0 L 322.0 46.0 L 322.0 48.0 L 322.0 50.0 L 322.0 55.0 L 321.0 60.0 L 321.0 65.0 L 321.0 72.0 L 320.0 83.0 L 320.0 96.0 L 319.0 107.0 L 317.0 120.0 L 316.0 138.0 L 315.0 158.0 L 314.0 178.0 L 314.0 198.0 L 314.0 214.0 L 314.0 229.0 L 314.0 243.0 L 314.0 254.0 L 315.0 263.0 L 315.0 271.0 L 314.0 277.0 L 313.0 282.0 L 313.0 284.0 L 313.0 286.0 L 313.0 287.0 L 313.0 288.0 L 314.0 288.0 L 315.0 288.0" scribmaster:penstyle="draw" style="stroke:#000000;stroke-width:5.0;stroke-linejoin:round;stroke-linecap:round;stroke-opacity:1.0;fill:none" /><path transform="matrix(1,0,0,1,0,0)" d="M 314.0 303.0 L 313.0 302.0 L 312.0 302.0 L 312.0 301.0 L 312.0 300.0 L 312.0 299.0 L 313.0 299.0 L 315.0 299.0 L 316.0 299.0 L 320.0 299.0 L 324.0 299.0 L 331.0 300.0 L 338.0 300.0 L 346.0 300.0 L 357.0 299.0 L 369.0 298.0 L 380.0 297.0 L 390.0 295.0 L 400.0 293.0 L 409.0 292.0 L 417.0 290.0 L 425.0 289.0 L 430.0 288.0 L 435.0 288.0 L 438.0 288.0 L 440.0 288.0 L 443.0 288.0 L 446.0 288.0 L 449.0 286.0" scribmaster:penstyle="draw" style="stroke:#000000;stroke-width:5.0;stroke-linejoin:round;stroke-linecap:round;stroke-opacity:1.0;fill:none" /></g></g></svg>