<?xml version='1.0' encoding='UTF-8' standalone='no' ?><svg xmlns="http://www.w3.org/2000/svg" xmlns:scribmaster="http://scribmaster.com/scribmaster" xmlns:sodipodi="http://sodipodi.sourceforge.net/DTD/sodipodi-0.dtd" xmlns:inkscape="http://www.inkscape.org/namespaces/inkscape" xmlns:xlink="http://www.w3.org/1999/xlink" version="1.2" width="800" height="520"><sodipodi:namedview id="ScribMaster" /><filter id="blur"><feGaussianBlur stdDeviation="5.0" /></filter><defs /><g id="1620599585554" transform="matrix(1,0,0,1,0,0)" style="opacity:1.0"><g id="1620536817093" inkscape:groupmode="layer" transform="matrix(1,0,0,1,0,0)" style="opacity:1.0"><path transform="matrix(1,0,0,1,0,0)" d="M 245.0 83.0 L 244.0 82.0 L 244.0 81.0 L 244.0 82.0 L 243.0 85.0 L 242.0 89.0 L 241.0 97.0 L 239.0 105.0 L 237.0 117.0 L 235.0 131.0 L 232.0 148.0 L 230.0 169.0 L 229.0 191.0 L 229.0 208.0 L 228.0 227.0 L 229.0 244.0 L 229.0 257.0 L 230.0 267.0 L 230.0 278.0 L 231.0 286.0 L 231.0 292.0 L 232.0 297.0 L 232.0 301.0 L 232.0 303.0 L 233.0 306.0 L 233.0 307.0 L 233.0 308.0 L 234.0 309.0 L 234.0 310.0 L 234.0 311.0" scribmaster:penstyle="draw" style="stroke:#000000;stroke-width:5.0;stroke-linejoin:round;stroke-linecap:round;stroke-opacity:1.0;fill:none" /><path transform="matrix(1,0,0,1,0,0)" d="M 256.0 91.0 L 257.0 91.0 L 259.0 94.0 L 261.0 98.0 L 263.0 103.0 L 266.0 109.0 L 270.0 116.0 L 274.0 126.0 L 279.0 137.0 L 284.0 147.0 L 289.0 157.0 L 293.0 166.0 L 298.0 175.0 L 302.0 184.0 L 306.0 192.0 L 310.0 199.0 L 313.0 204.0 L 317.0 210.0 L 321.0 214.0 L 324.0 217.0 L 326.0 219.0 L 328.0 221.0 L 329.0 222.0 L 330.0 222.0 L 331.0 223.0 L 332.0 223.0 L 333.0 223.0 L 334.0 223.0 L 335.0 223.0 L 335.0 222.0 L 336.0 221.0 L 338.0 220.0 L 339.0 217.0 L 342.0 211.0 L 345.0 203.0 L 350.0 193.0 L 354.0 181.0 L 359.0 168.0 L 363.0 157.0 L 367.0 147.0 L 373.0 136.0 L 378.0 125.0 L 383.0 115.0 L 387.0 107.0 L 391.0 100.0 L 394.0 95.0 L 396.0 91.0 L 399.0 88.0 L 400.0 87.0 L 401.0 86.0 L 402.0 85.0 L 403.0 84.0 L 404.0 84.0 L 405.0 84.0 L 405.0 85.0 L 405.0 86.0 L 405.0 87.0 L 406.0 89.0 L 406.0 92.0 L 407.0 98.0 L 407.0 103.0 L 409.0 111.0 L 410.0 124.0 L 413.0 141.0 L 415.0 160.0 L 419.0 184.0 L 421.0 203.0 L 422.0 218.0 L 424.0 234.0 L 426.0 247.0 L 428.0 257.0 L 429.0 266.0 L 431.0 274.0 L 432.0 283.0 L 434.0 290.0 L 436.0 297.0 L 438.0 303.0 L 440.0 306.0 L 442.0 308.0" scribmaster:penstyle="draw" style="stroke:#000000;stroke-width:5.0;stroke-linejoin:round;stroke-linecap:round;stroke-opacity:1.0;fill:none" /></g></g></svg>