<?xml version='1.0' encoding='UTF-8' standalone='no' ?><svg xmlns="http://www.w3.org/2000/svg" xmlns:scribmaster="http://scribmaster.com/scribmaster" xmlns:sodipodi="http://sodipodi.sourceforge.net/DTD/sodipodi-0.dtd" xmlns:inkscape="http://www.inkscape.org/namespaces/inkscape" xmlns:xlink="http://www.w3.org/1999/xlink" version="1.2" width="800" height="520"><sodipodi:namedview id="ScribMaster" /><filter id="blur"><feGaussianBlur stdDeviation="5.0" /></filter><defs /><g id="1620599605720" transform="matrix(1,0,0,1,0,0)" style="opacity:1.0"><g id="1620536817093" inkscape:groupmode="layer" transform="matrix(1,0,0,1,0,0)" style="opacity:1.0"><path transform="matrix(1,0,0,1,0,0)" d="M 252.0 94.0 L 252.0 93.0 L 253.0 94.0 L 253.0 95.0 L 253.0 100.0 L 254.0 106.0 L 254.0 115.0 L 253.0 127.0 L 252.0 141.0 L 252.0 154.0 L 250.0 172.0 L 248.0 191.0 L 246.0 207.0 L 244.0 226.0 L 242.0 245.0 L 240.0 259.0 L 239.0 274.0 L 237.0 289.0 L 236.0 301.0 L 235.0 311.0 L 235.0 322.0 L 234.0 330.0 L 234.0 335.0 L 234.0 338.0 L 234.0 340.0 L 234.0 341.0 L 234.0 340.0 L 235.0 338.0 L 235.0 337.0 L 235.0 334.0 L 236.0 332.0 L 236.0 328.0" scribmaster:penstyle="draw" style="stroke:#000000;stroke-width:5.0;stroke-linejoin:round;stroke-linecap:round;stroke-opacity:1.0;fill:none" /><path transform="matrix(1,0,0,1,0,0)" d="M 249.0 87.0 L 249.0 88.0 L 250.0 90.0 L 251.0 93.0 L 253.0 98.0 L 255.0 103.0 L 259.0 109.0 L 263.0 117.0 L 267.0 127.0 L 273.0 139.0 L 280.0 150.0 L 287.0 163.0 L 295.0 178.0 L 304.0 193.0 L 311.0 206.0 L 319.0 217.0 L 328.0 229.0 L 336.0 242.0 L 344.0 253.0 L 352.0 263.0 L 359.0 273.0 L 365.0 282.0 L 370.0 290.0 L 376.0 298.0 L 381.0 304.0 L 385.0 309.0 L 390.0 313.0 L 392.0 317.0 L 394.0 318.0 L 396.0 319.0 L 397.0 320.0 L 398.0 320.0 L 399.0 320.0 L 399.0 319.0" scribmaster:penstyle="draw" style="stroke:#000000;stroke-width:5.0;stroke-linejoin:round;stroke-linecap:round;stroke-opacity:1.0;fill:none" /><path transform="matrix(1,0,0,1,0,0)" d="M 415.0 98.0 L 416.0 100.0 L 417.0 101.0 L 417.0 104.0 L 418.0 107.0 L 419.0 112.0 L 420.0 120.0 L 421.0 131.0 L 422.0 143.0 L 423.0 160.0 L 424.0 178.0 L 424.0 193.0 L 424.0 207.0 L 423.0 223.0 L 422.0 238.0 L 421.0 251.0 L 421.0 263.0 L 420.0 275.0 L 420.0 286.0 L 419.0 296.0 L 419.0 306.0 L 419.0 315.0 L 419.0 323.0 L 420.0 329.0 L 421.0 333.0" scribmaster:penstyle="draw" style="stroke:#000000;stroke-width:5.0;stroke-linejoin:round;stroke-linecap:round;stroke-opacity:1.0;fill:none" /></g></g></svg>