<?xml version='1.0' encoding='UTF-8' standalone='no' ?><svg xmlns="http://www.w3.org/2000/svg" xmlns:scribmaster="http://scribmaster.com/scribmaster" xmlns:sodipodi="http://sodipodi.sourceforge.net/DTD/sodipodi-0.dtd" xmlns:inkscape="http://www.inkscape.org/namespaces/inkscape" xmlns:xlink="http://www.w3.org/1999/xlink" version="1.2" width="800" height="520"><sodipodi:namedview id="ScribMaster" /><filter id="blur"><feGaussianBlur stdDeviation="5.0" /></filter><defs /><g id="1620599802235" transform="matrix(1,0,0,1,0,0)" style="opacity:1.0"><g id="1620536817093" inkscape:groupmode="layer" transform="matrix(1,0,0,1,0,0)" style="opacity:1.0"><path transform="matrix(1,0,0,1,0,0)" d="M 367.0 111.0 L 367.0 110.0 L 366.0 110.0 L 365.0 109.0 L 364.0 108.0 L 362.0 108.0 L 360.0 107.0 L 356.0 107.0 L 353.0 108.0 L 348.0 109.0 L 341.0 112.0 L 331.0 117.0 L 320.0 123.0 L 309.0 131.0 L 296.0 142.0 L 284.0 154.0 L 275.0 165.0 L 266.0 177.0 L 259.0 190.0 L 253.0 202.0 L 249.0 213.0 L 246.0 225.0 L 245.0 237.0 L 245.0 248.0 L 246.0 258.0 L 249.0 267.0 L 253.0 276.0 L 260.0 284.0 L 266.0 292.0 L 274.0 297.0 L 281.0 302.0 L 290.0 305.0 L 301.0 308.0 L 313.0 309.0 L 324.0 309.0 L 335.0 309.0 L 348.0 307.0 L 362.0 304.0 L 372.0 299.0 L 384.0 293.0 L 398.0 283.0 L 410.0 271.0 L 418.0 258.0 L 426.0 244.0 L 435.0 227.0 L 440.0 214.0 L 443.0 201.0 L 444.0 186.0 L 442.0 174.0 L 440.0 163.0 L 436.0 154.0 L 431.0 146.0 L 424.0 141.0 L 417.0 138.0 L 409.0 136.0 L 402.0 133.0 L 395.0 132.0 L 388.0 131.0 L 380.0 129.0 L 372.0 128.0 L 364.0 126.0 L 357.0 124.0" scribmaster:penstyle="draw" style="stroke:#000000;stroke-width:5.0;stroke-linejoin:round;stroke-linecap:round;stroke-opacity:1.0;fill:none" /><path transform="matrix(1,0,0,1,0,0)" d="M 377.0 278.0 L 377.0 279.0 L 378.0 280.0 L 380.0 283.0 L 383.0 287.0 L 387.0 292.0 L 395.0 303.0 L 402.0 312.0 L 410.0 320.0" scribmaster:penstyle="draw" style="stroke:#000000;stroke-width:5.0;stroke-linejoin:round;stroke-linecap:round;stroke-opacity:1.0;fill:none" /></g></g></svg>