<?xml version='1.0' encoding='UTF-8' standalone='no' ?><svg xmlns="http://www.w3.org/2000/svg" xmlns:scribmaster="http://scribmaster.com/scribmaster" xmlns:sodipodi="http://sodipodi.sourceforge.net/DTD/sodipodi-0.dtd" xmlns:inkscape="http://www.inkscape.org/namespaces/inkscape" xmlns:xlink="http://www.w3.org/1999/xlink" version="1.2" width="800" height="520"><sodipodi:namedview id="ScribMaster" /><filter id="blur"><feGaussianBlur stdDeviation="5.0" /></filter><defs /><g id="1620599852824" transform="matrix(1,0,0,1,0,0)" style="opacity:1.0"><g id="1620536817093" inkscape:groupmode="layer" transform="matrix(1,0,0,1,0,0)" style="opacity:1.0"><path transform="matrix(1,0,0,1,0,0)" d="M 390.0 45.0 L 389.0 44.0 L 388.0 44.0 L 387.0 44.0 L 385.0 45.0 L 384.0 45.0 L 381.0 47.0 L 376.0 49.0 L 370.0 53.0 L 360.0 57.0 L 349.0 63.0 L 338.0 70.0 L 327.0 76.0 L 317.0 83.0 L 307.0 90.0 L 299.0 98.0 L 292.0 106.0 L 286.0 113.0 L 282.0 120.0 L 279.0 127.0 L 278.0 134.0 L 278.0 141.0 L 279.0 148.0 L 281.0 154.0 L 285.0 159.0 L 288.0 163.0 L 292.0 168.0 L 301.0 174.0 L 311.0 182.0 L 324.0 191.0 L 340.0 200.0 L 353.0 207.0 L 364.0 213.0 L 373.0 219.0 L 381.0 224.0 L 389.0 229.0 L 394.0 233.0 L 399.0 238.0 L 401.0 242.0 L 401.0 245.0 L 400.0 248.0 L 396.0 251.0 L 392.0 253.0 L 386.0 256.0 L 376.0 259.0 L 362.0 263.0 L 345.0 267.0 L 326.0 270.0 L 309.0 273.0 L 295.0 272.0 L 283.0 269.0 L 274.0 266.0 L 267.0 261.0 L 261.0 253.0" scribmaster:penstyle="draw" style="stroke:#000000;stroke-width:5.0;stroke-linejoin:round;stroke-linecap:round;stroke-opacity:1.0;fill:none" /></g></g></svg>