<?xml version='1.0' encoding='UTF-8' standalone='no' ?><svg xmlns="http://www.w3.org/2000/svg" xmlns:scribmaster="http://scribmaster.com/scribmaster" xmlns:sodipodi="http://sodipodi.sourceforge.net/DTD/sodipodi-0.dtd" xmlns:inkscape="http://www.inkscape.org/namespaces/inkscape" xmlns:xlink="http://www.w3.org/1999/xlink" version="1.2" width="800" height="520"><sodipodi:namedview id="ScribMaster" /><filter id="blur"><feGaussianBlur stdDeviation="5.0" /></filter><defs /><g id="1620599866727" transform="matrix(1,0,0,1,0,0)" style="opacity:1.0"><g id="1620536817093" inkscape:groupmode="layer" transform="matrix(1,0,0,1,0,0)" style="opacity:1.0"><path transform="matrix(1,0,0,1,0,0)" d="M 260.0 55.0 L 261.0 56.0 L 262.0 57.0 L 263.0 57.0 L 263.0 58.0 L 265.0 58.0 L 266.0 59.0 L 268.0 60.0 L 270.0 61.0 L 274.0 61.0 L 278.0 62.0 L 283.0 62.0 L 290.0 63.0 L 300.0 64.0 L 312.0 65.0 L 324.0 66.0 L 338.0 67.0 L 352.0 67.0 L 368.0 67.0 L 384.0 68.0 L 396.0 68.0 L 409.0 68.0 L 421.0 68.0 L 432.0 68.0 L 442.0 69.0 L 450.0 71.0 L 457.0 72.0 L 463.0 73.0 L 468.0 74.0 L 471.0 75.0 L 474.0 75.0 L 475.0 76.0 L 476.0 76.0 L 477.0 77.0 L 477.0 76.0 L 477.0 75.0" scribmaster:penstyle="draw" style="stroke:#000000;stroke-width:5.0;stroke-linejoin:round;stroke-linecap:round;stroke-opacity:1.0;fill:none" /><path transform="matrix(1,0,0,1,0,0)" d="M 374.0 82.0 L 372.0 82.0 L 371.0 83.0 L 371.0 84.0 L 371.0 85.0 L 370.0 88.0 L 370.0 93.0 L 369.0 98.0 L 368.0 105.0 L 367.0 112.0 L 367.0 123.0 L 366.0 136.0 L 366.0 150.0 L 366.0 167.0 L 366.0 185.0 L 366.0 200.0 L 367.0 213.0 L 367.0 227.0 L 367.0 239.0 L 367.0 250.0 L 366.0 259.0 L 366.0 267.0 L 366.0 273.0 L 367.0 277.0" scribmaster:penstyle="draw" style="stroke:#000000;stroke-width:5.0;stroke-linejoin:round;stroke-linecap:round;stroke-opacity:1.0;fill:none" /></g></g></svg>