<?xml version='1.0' encoding='UTF-8' standalone='no' ?><svg xmlns="http://www.w3.org/2000/svg" xmlns:scribmaster="http://scribmaster.com/scribmaster" xmlns:sodipodi="http://sodipodi.sourceforge.net/DTD/sodipodi-0.dtd" xmlns:inkscape="http://www.inkscape.org/namespaces/inkscape" xmlns:xlink="http://www.w3.org/1999/xlink" version="1.2" width="800" height="520"><sodipodi:namedview id="ScribMaster" /><filter id="blur"><feGaussianBlur stdDeviation="5.0" /></filter><defs /><g id="1620599898567" transform="matrix(1,0,0,1,0,0)" style="opacity:1.0"><g id="1620536817093" inkscape:groupmode="layer" transform="matrix(1,0,0,1,0,0)" style="opacity:1.0"><path transform="matrix(1,0,0,1,0,0)" d="M 292.0 40.0 L 290.0 40.0 L 290.0 41.0 L 290.0 42.0 L 289.0 43.0 L 289.0 44.0 L 289.0 46.0 L 288.0 48.0 L 288.0 49.0 L 288.0 53.0 L 287.0 56.0 L 285.0 59.0 L 285.0 63.0 L 284.0 69.0 L 282.0 75.0 L 281.0 82.0 L 280.0 90.0 L 279.0 97.0 L 278.0 104.0 L 277.0 110.0 L 277.0 117.0 L 277.0 123.0 L 277.0 129.0 L 277.0 136.0 L 277.0 142.0 L 278.0 148.0 L 279.0 154.0 L 280.0 160.0 L 282.0 165.0 L 284.0 171.0 L 285.0 176.0 L 288.0 182.0 L 291.0 187.0 L 294.0 191.0 L 297.0 196.0 L 301.0 200.0 L 306.0 204.0 L 310.0 208.0 L 316.0 212.0 L 321.0 215.0 L 326.0 218.0 L 332.0 221.0 L 338.0 224.0 L 345.0 226.0 L 353.0 229.0 L 360.0 230.0 L 366.0 231.0 L 372.0 231.0 L 378.0 231.0 L 385.0 230.0 L 391.0 228.0 L 396.0 226.0 L 402.0 223.0 L 407.0 219.0 L 411.0 215.0 L 416.0 211.0 L 420.0 205.0 L 424.0 199.0 L 428.0 191.0 L 432.0 182.0 L 436.0 173.0 L 439.0 163.0 L 443.0 154.0 L 445.0 145.0 L 447.0 134.0 L 449.0 124.0 L 450.0 114.0 L 451.0 104.0 L 452.0 96.0 L 453.0 87.0 L 453.0 79.0 L 453.0 72.0 L 453.0 65.0 L 452.0 59.0 L 451.0 53.0 L 450.0 49.0 L 449.0 46.0 L 448.0 43.0 L 448.0 41.0 L 447.0 40.0 L 447.0 39.0 L 446.0 38.0 L 446.0 37.0 L 447.0 36.0" scribmaster:penstyle="draw" style="stroke:#000000;stroke-width:5.0;stroke-linejoin:round;stroke-linecap:round;stroke-opacity:1.0;fill:none" /></g></g></svg>