<?xml version='1.0' encoding='UTF-8' standalone='no' ?><svg xmlns="http://www.w3.org/2000/svg" xmlns:scribmaster="http://scribmaster.com/scribmaster" xmlns:sodipodi="http://sodipodi.sourceforge.net/DTD/sodipodi-0.dtd" xmlns:inkscape="http://www.inkscape.org/namespaces/inkscape" xmlns:xlink="http://www.w3.org/1999/xlink" version="1.2" width="800" height="520"><sodipodi:namedview id="ScribMaster" /><filter id="blur"><feGaussianBlur stdDeviation="5.0" /></filter><defs /><g id="1620599968410" transform="matrix(1,0,0,1,0,0)" style="opacity:1.0"><g id="1620536817093" inkscape:groupmode="layer" transform="matrix(1,0,0,1,0,0)" style="opacity:1.0"><path transform="matrix(1,0,0,1,0,0)" d="M 239.0 57.0 L 238.0 57.0 L 239.0 59.0 L 240.0 62.0 L 240.0 65.0 L 242.0 70.0 L 244.0 78.0 L 245.0 87.0 L 248.0 97.0 L 250.0 107.0 L 253.0 118.0 L 255.0 128.0 L 258.0 141.0 L 261.0 151.0 L 264.0 162.0 L 266.0 174.0 L 269.0 185.0 L 271.0 195.0 L 273.0 204.0 L 275.0 213.0 L 276.0 222.0 L 278.0 229.0 L 279.0 236.0 L 280.0 242.0 L 281.0 248.0 L 281.0 251.0 L 282.0 254.0 L 282.0 257.0 L 283.0 259.0 L 284.0 260.0 L 284.0 262.0 L 285.0 263.0 L 286.0 264.0 L 287.0 263.0 L 288.0 263.0 L 289.0 262.0 L 290.0 260.0 L 292.0 258.0 L 295.0 253.0 L 297.0 248.0 L 299.0 244.0 L 302.0 239.0 L 305.0 234.0 L 309.0 228.0 L 312.0 222.0 L 315.0 216.0 L 318.0 211.0 L 320.0 206.0 L 323.0 203.0 L 324.0 199.0 L 325.0 198.0 L 327.0 196.0 L 328.0 194.0 L 329.0 193.0 L 330.0 193.0 L 331.0 193.0 L 331.0 194.0 L 332.0 195.0 L 333.0 197.0 L 334.0 199.0 L 335.0 200.0 L 335.0 203.0 L 337.0 207.0 L 338.0 210.0 L 339.0 214.0 L 341.0 218.0 L 342.0 222.0 L 344.0 226.0 L 345.0 230.0 L 346.0 234.0 L 348.0 238.0 L 349.0 241.0 L 350.0 244.0 L 352.0 247.0 L 353.0 249.0 L 355.0 251.0 L 356.0 253.0 L 357.0 253.0 L 358.0 253.0 L 360.0 253.0 L 361.0 251.0 L 364.0 248.0 L 367.0 242.0 L 372.0 232.0 L 377.0 219.0 L 383.0 200.0 L 389.0 180.0 L 395.0 160.0 L 400.0 145.0 L 403.0 131.0 L 407.0 119.0 L 411.0 107.0 L 414.0 98.0 L 418.0 91.0 L 421.0 85.0 L 425.0 80.0 L 426.0 77.0 L 428.0 74.0 L 428.0 73.0 L 429.0 72.0" scribmaster:penstyle="draw" style="stroke:#000000;stroke-width:5.0;stroke-linejoin:round;stroke-linecap:round;stroke-opacity:1.0;fill:none" /></g></g></svg>