<?xml version='1.0' encoding='ASCII' standalone='yes'?>
<svg width = "6in" height = "4in" xmlns="http://www.w3.org/2000/svg" xmlns:xlink="http://www.w3.org/1999/xlink" version="1.1">
  <g transform="translate(-0.581794650448325, 0) scale(1 1) translate(-0.34906978865732063, 0) scale(1 1) translate(-0.1163554293259576, 0) scale(1 1) translate(0.1163554293259576, 0) scale(1 1) translate(0.34906978865732075, 0) scale(1 1) translate(0.5817946504483253, 0) scale(1 1) translate(0.814537017743164, 0) scale(1 1) translate(1.0473038956930552, 0) scale(1 1) translate(0, 0) scale(0.1 0.1)  skewX(-1.000000) skewX(-0.777778) skewX(-0.555556) skewX(-0.333333) skewX(-0.111111) skewX(0.111111) skewX(0.333333) skewX(0.555556)">
    <sodipodi:namedview xmlns:sodipodi="http://sodipodi.sourceforge.net/DTD/sodipodi-0.dtd" id="ScribMaster"/>
    <filter id="blur">
      <feGaussianBlur stdDeviation="5.0"/>
    </filter>
    <defs/>
    <g xmlns:inkscape="http://www.inkscape.org/namespaces/inkscape" xmlns:scribmaster="http://scribmaster.com/scribmaster" id="1627854845592" transform="matrix(1.041329,0,0,1.041329,-16.413086,-15.68722)" style="opacity:1.0">
      <g id="1627851273342" inkscape:groupmode="layer" transform="matrix(1,0,0,1,0,0)" style="opacity:1.0">
        <path transform="matrix(1,0,0,1,0,0)" d="M 63.77722 84.20701 L 61.8566 82.286385 L 61.8566 83.2467 L 61.8566 85.16732 L 61.8566 88.048256 L 61.8566 90.929184 L 60.89629 98.61167 L 60.89629 107.25448 L 59.935978 116.85758 L 59.935978 128.38132 L 58.975666 141.82567 L 58.975666 154.30971 L 58.975666 164.87312 L 59.935978 174.47624 L 61.8566 183.11903 L 64.73753 191.76184 L 68.57877 199.44434 L 72.42002 205.20619 L 77.22157 210.00775 L 82.023125 214.80931 L 86.824684 217.69023 L 91.626236 220.57117 L 95.46748 221.53148 L 99.30872 222.49179 L 102.18966 221.53148 L 105.070595 220.57117 L 107.95153 219.61086 L 111.79277 217.69023 L 114.673706 214.80931 L 117.554634 210.00775 L 121.39588 205.20619 L 126.19743 199.44434 L 130.03868 192.72215 L 133.87993 184.07935 L 137.72118 176.39687 L 140.60211 168.71437 L 144.44336 160.07158 L 146.36398 152.38908 L 148.28459 142.78598 L 150.20522 134.14317 L 150.20522 126.46069 L 151.16553 118.778206 L 151.16553 113.976654 L 151.16553 109.175095 L 151.16553 106.29417 L 151.16553 103.41323 L 150.20522 102.45292 L 150.20522 100.532295 L 150.20522 99.57198 L 149.2449 98.61167 L 149.2449 97.65137 L 149.2449 96.691055" scribmaster:penstyle="draw" style="stroke:#000000;stroke-width:5.0;stroke-linejoin:round;stroke-linecap:round;stroke-opacity:1.0;fill:none"/>
      </g>
    </g>
  </g>
</svg>
