<?xml version='1.0' encoding='ASCII' standalone='yes'?>
<svg width = "6in" height = "4in" xmlns="http://www.w3.org/2000/svg" xmlns:xlink="http://www.w3.org/1999/xlink" version="1.1">
  <g transform="translate(-0.34906978865732063, 0) scale(1 1) translate(-0.1163554293259576, 0) scale(1 1) translate(0.1163554293259576, 0) scale(1 1) translate(0.34906978865732075, 0) scale(1 1) translate(0.5817946504483253, 0) scale(1 1) translate(0.814537017743164, 0) scale(1 1) translate(1.0473038956930552, 0) scale(1 1) translate(0, 0) scale(0.1 0.1)  skewX(-1.000000) skewX(-0.777778) skewX(-0.555556) skewX(-0.333333) skewX(-0.111111) skewX(0.111111) skewX(0.333333)">
    <sodipodi:namedview xmlns:sodipodi="http://sodipodi.sourceforge.net/DTD/sodipodi-0.dtd" id="ScribMaster"/>
    <filter id="blur">
      <feGaussianBlur stdDeviation="5.0"/>
    </filter>
    <defs/>
    <g xmlns:inkscape="http://www.inkscape.org/namespaces/inkscape" xmlns:scribmaster="http://scribmaster.com/scribmaster" id="1627854867236" transform="matrix(1.041329,0,0,1.041329,-16.413086,-15.68722)" style="opacity:1.0">
      <g id="1627851273342" inkscape:groupmode="layer" transform="matrix(1,0,0,1,0,0)" style="opacity:1.0">
        <path transform="matrix(1,0,0,1,0,0)" d="M 64.73753 83.2467 L 63.77722 85.16732 L 63.77722 86.12763 L 63.77722 89.00857 L 63.77722 91.889496 L 63.77722 94.77043 L 63.77722 100.532295 L 63.77722 106.29417 L 63.77722 113.01634 L 64.73753 120.69883 L 64.73753 127.421005 L 64.73753 137.98442 L 66.65815 148.54784 L 67.61846 157.19064 L 68.57877 165.83344 L 69.539085 173.51593 L 71.45971 182.15872 L 73.38033 189.84122 L 75.30095 196.5634 L 77.22157 203.28557 L 79.1422 209.04744 L 82.023125 214.80931 L 83.94375 219.61086 L 86.824684 224.41241 L 89.70562 228.25366 L 92.58655 231.1346 L 95.46748 234.01553 L 98.34842 235.93614 L 101.22935 237.85677 L 104.11028 238.81708 L 106.99122 239.77739 L 110.83246 239.77739 L 113.713394 238.81708 L 116.59433 237.85677 L 120.43557 235.93614 L 123.316505 234.01553 L 126.19743 231.1346 L 130.03868 229.21397 L 133.87993 225.37273 L 136.76086 220.57117 L 139.6418 214.80931 L 143.48303 208.08713 L 146.36398 200.40463 L 150.20522 190.80153 L 152.12584 180.23811 L 154.04646 170.635 L 155.96709 161.9922 L 156.9274 153.3494 L 157.88771 145.66692 L 157.88771 137.98442 L 157.88771 131.26225 L 157.88771 124.54008 L 157.88771 118.778206 L 156.9274 113.01634 L 155.96709 108.21478 L 155.00677 105.333855 L 154.04646 103.41323 L 154.04646 101.49261 L 153.08615 99.57198 L 152.12584 98.61167 L 151.16553 96.691055 L 151.16553 93.81012 L 150.20522 91.889496 L 150.20522 89.00857 L 150.20522 87.087944 L 150.20522 85.16732 L 149.2449 83.2467 L 149.2449 81.32607 L 149.2449 79.40546" scribmaster:penstyle="draw" style="stroke:#000000;stroke-width:5.0;stroke-linejoin:round;stroke-linecap:round;stroke-opacity:1.0;fill:none"/>
      </g>
    </g>
  </g>
</svg>
