<?xml version='1.0' encoding='ASCII' standalone='yes'?>
<svg width = "6in" height = "4in" xmlns="http://www.w3.org/2000/svg" xmlns:xlink="http://www.w3.org/1999/xlink" version="1.1">
  <g transform="translate(-0.34906978865732063, 0) scale(1 1) translate(-0.1163554293259576, 0) scale(1 1) translate(0.1163554293259576, 0) scale(1 1) translate(0.34906978865732075, 0) scale(1 1) translate(0.5817946504483253, 0) scale(1 1) translate(0.814537017743164, 0) scale(1 1) translate(1.0473038956930552, 0) scale(1 1) translate(0, 0) scale(0.1 0.1)  skewX(-1.000000) skewX(-0.777778) skewX(-0.555556) skewX(-0.333333) skewX(-0.111111) skewX(0.111111) skewX(0.333333)">
    <sodipodi:namedview xmlns:sodipodi="http://sodipodi.sourceforge.net/DTD/sodipodi-0.dtd" id="ScribMaster"/>
    <filter id="blur">
      <feGaussianBlur stdDeviation="5.0"/>
    </filter>
    <defs/>
    <g xmlns:inkscape="http://www.inkscape.org/namespaces/inkscape" xmlns:scribmaster="http://scribmaster.com/scribmaster" id="1625351312973" transform="matrix(1,0,0,1,-1.316833,-1.489594)" style="opacity:1.0">
      <g id="1625348338071" inkscape:groupmode="layer" transform="matrix(1,0,0,1,0,0)" style="opacity:1.0">
        <path transform="matrix(1,0,0,1,0,0)" d="M 124.31683 50.489594 L 124.31683 49.489594 L 124.31683 48.489594 L 123.31683 47.489594 L 122.31683 48.489594 L 121.31683 49.489594 L 120.31683 49.489594 L 119.31683 51.489594 L 116.31683 53.489594 L 114.31683 55.489594 L 112.31683 58.489594 L 109.31683 61.489594 L 106.31683 66.48959 L 103.31683 70.48959 L 101.31683 75.48959 L 98.31683 80.48959 L 96.31683 85.48959 L 95.31683 91.48959 L 94.31683 96.48959 L 94.31683 101.48959 L 94.31683 106.48959 L 95.31683 111.48959 L 96.31683 115.48959 L 99.31683 119.48959 L 101.31683 124.48959 L 103.31683 128.4896 L 106.31683 133.4896 L 108.31683 137.4896 L 111.31683 142.4896 L 113.31683 146.4896 L 115.31683 149.4896 L 117.31683 153.4896 L 118.31683 157.4896 L 119.31683 161.4896 L 118.31683 165.4896 L 117.31683 170.4896 L 116.31683 174.4896 L 114.31683 179.4896 L 111.31683 185.4896 L 106.31683 190.4896 L 102.31683 195.4896 L 96.31683 201.4896 L 90.31683 206.4896 L 84.31683 211.4896 L 78.31683 215.4896 L 73.31683 219.4896 L 67.31683 222.4896 L 63.316833 225.4896 L 60.316833 227.4896 L 58.316833 229.4896 L 57.316833 230.4896" scribmaster:penstyle="draw" style="stroke:#000000;stroke-width:5.0;stroke-linejoin:round;stroke-linecap:round;stroke-opacity:1.0;fill:none"/>
      </g>
    </g>
  </g>
</svg>
