<?xml version='1.0' encoding='ASCII' standalone='yes'?>
<svg width = "6in" height = "4in" xmlns="http://www.w3.org/2000/svg" xmlns:xlink="http://www.w3.org/1999/xlink" version="1.1">
  <g transform="translate(-1.0473038956930552, 0) scale(1 1) translate(-0.8145370177431639, 0) scale(1 1) translate(-0.581794650448325, 0) scale(1 1) translate(-0.34906978865732063, 0) scale(1 1) translate(-0.1163554293259576, 0) scale(1 1) translate(0.1163554293259576, 0) scale(1 1) translate(0.34906978865732075, 0) scale(1 1) translate(0.5817946504483253, 0) scale(1 1) translate(0.814537017743164, 0) scale(1 1) translate(1.0473038956930552, 0) scale(1 1) translate(0, 0) scale(0.1 0.1)  skewX(-1.000000) skewX(-0.777778) skewX(-0.555556) skewX(-0.333333) skewX(-0.111111) skewX(0.111111) skewX(0.333333) skewX(0.555556) skewX(0.777778) skewX(1.000000)">
    <sodipodi:namedview xmlns:sodipodi="http://sodipodi.sourceforge.net/DTD/sodipodi-0.dtd" id="ScribMaster"/>
    <filter id="blur">
      <feGaussianBlur stdDeviation="5.0"/>
    </filter>
    <defs/>
    <g xmlns:inkscape="http://www.inkscape.org/namespaces/inkscape" xmlns:scribmaster="http://scribmaster.com/scribmaster" id="1625351276708" transform="matrix(1,0,0,1,-1.316833,-1.489594)" style="opacity:1.0">
      <g id="1625348338071" inkscape:groupmode="layer" transform="matrix(1,0,0,1,0,0)" style="opacity:1.0">
        <path transform="matrix(1,0,0,1,0,0)" d="M 127.31683 46.489594 L 127.31683 45.489594 L 127.31683 44.489594 L 127.31683 43.489594 L 127.31683 42.489594 L 126.31683 43.489594 L 124.31683 44.489594 L 123.31683 45.489594 L 121.31683 48.489594 L 117.31683 51.489594 L 114.31683 55.489594 L 110.31683 61.489594 L 105.31683 66.48959 L 100.31683 73.48959 L 95.31683 80.48959 L 90.31683 89.48959 L 86.31683 98.48959 L 82.31683 106.48959 L 79.31683 114.48959 L 76.31683 121.48959 L 75.31683 127.48959 L 74.31683 132.4896 L 75.31683 138.4896 L 77.31683 143.4896 L 80.31683 148.4896 L 83.31683 152.4896 L 88.31683 156.4896 L 93.31683 159.4896 L 98.31683 162.4896 L 103.31683 165.4896 L 107.31683 168.4896 L 110.31683 170.4896 L 112.31683 173.4896 L 114.31683 175.4896 L 115.31683 177.4896 L 115.31683 181.4896 L 114.31683 185.4896 L 113.31683 189.4896 L 109.31683 194.4896 L 105.31683 200.4896 L 98.31683 208.4896 L 91.31683 214.4896 L 83.31683 221.4896 L 74.31683 227.4896 L 67.31683 232.4896 L 60.316833 235.4896 L 55.316833 238.4896 L 51.316833 240.4896 L 49.316833 241.4896" scribmaster:penstyle="draw" style="stroke:#000000;stroke-width:5.0;stroke-linejoin:round;stroke-linecap:round;stroke-opacity:1.0;fill:none"/>
      </g>
    </g>
  </g>
</svg>
