<?xml version='1.0' encoding='ASCII' standalone='yes'?>
<svg width = "6in" height = "4in" xmlns="http://www.w3.org/2000/svg" xmlns:xlink="http://www.w3.org/1999/xlink" version="1.1">
  <g transform="translate(0.34906978865732075, 0) scale(1 1) translate(0.5817946504483253, 0) scale(1 1) translate(0.814537017743164, 0) scale(1 1) translate(1.0473038956930552, 0) scale(1 1) translate(0, 0) scale(0.1 0.1)  skewX(-1.000000) skewX(-0.777778) skewX(-0.555556) skewX(-0.333333)">
    <sodipodi:namedview xmlns:sodipodi="http://sodipodi.sourceforge.net/DTD/sodipodi-0.dtd" id="ScribMaster"/>
    <filter id="blur">
      <feGaussianBlur stdDeviation="5.0"/>
    </filter>
    <defs/>
    <g xmlns:inkscape="http://www.inkscape.org/namespaces/inkscape" xmlns:scribmaster="http://scribmaster.com/scribmaster" id="1627852787332" transform="matrix(1.032782,0,0,1.032782,-14.899414,-13.325867)" style="opacity:1.0">
      <g id="1627851273342" inkscape:groupmode="layer" transform="matrix(1,0,0,1,0,0)" style="opacity:1.0">
        <path transform="matrix(1,0,0,1,0,0)" d="M 133.5223 151.36385 L 133.5223 150.3956 L 133.5223 149.42734 L 133.5223 148.45908 L 133.5223 147.49081 L 132.55403 146.52255 L 132.55403 145.5543 L 131.58577 144.58604 L 130.61751 143.61778 L 129.64926 141.68126 L 128.681 140.71301 L 126.74448 138.77649 L 125.776215 136.83998 L 122.871445 134.90346 L 119.96667 133.9352 L 117.06189 132.96695 L 113.18886 131.99869 L 108.347565 132.96695 L 103.50627 133.9352 L 98.66498 135.87172 L 94.79195 137.80824 L 90.91891 139.74475 L 88.01414 142.64952 L 85.10936 145.5543 L 82.20458 149.42734 L 81.23632 153.30037 L 81.23632 157.1734 L 81.23632 161.04643 L 82.20458 163.95122 L 84.1411 167.82425 L 87.045876 170.72902 L 89.95065 174.60205 L 94.79195 178.4751 L 99.63324 182.34813 L 105.44279 188.15768 L 111.25234 192.99896 L 116.093636 197.84026 L 118.998405 201.7133 L 122.871445 205.58633 L 123.8397 209.45937 L 124.80796 212.36414 L 124.80796 214.30066 L 124.80796 217.20543 L 122.871445 219.14195 L 120.93492 221.07846 L 117.06189 224.9515 L 113.18886 227.85628 L 108.347565 229.7928 L 103.50627 230.76105 L 96.72846 231.72931 L 90.91891 231.72931 L 86.077614 229.7928 L 81.23632 228.82454 L 77.36329 227.85628" scribmaster:penstyle="draw" style="stroke:#000000;stroke-width:5.0;stroke-linejoin:round;stroke-linecap:round;stroke-opacity:1.0;fill:none"/>
      </g>
    </g>
  </g>
</svg>
