<?xml version='1.0' encoding='ASCII' standalone='yes'?>
<svg width = "6in" height = "4in" xmlns="http://www.w3.org/2000/svg" xmlns:xlink="http://www.w3.org/1999/xlink" version="1.1">
  <g transform="translate(-1.0473038956930552, 0) scale(1 1) translate(-0.8145370177431639, 0) scale(1 1) translate(-0.581794650448325, 0) scale(1 1) translate(-0.34906978865732063, 0) scale(1 1) translate(-0.1163554293259576, 0) scale(1 1) translate(0.1163554293259576, 0) scale(1 1) translate(0.34906978865732075, 0) scale(1 1) translate(0.5817946504483253, 0) scale(1 1) translate(0.814537017743164, 0) scale(1 1) translate(1.0473038956930552, 0) scale(1 1) translate(0, 0) scale(0.1 0.1)  skewX(-1.000000) skewX(-0.777778) skewX(-0.555556) skewX(-0.333333) skewX(-0.111111) skewX(0.111111) skewX(0.333333) skewX(0.555556) skewX(0.777778) skewX(1.000000)">
    <sodipodi:namedview xmlns:sodipodi="http://sodipodi.sourceforge.net/DTD/sodipodi-0.dtd" id="ScribMaster"/>
    <filter id="blur">
      <feGaussianBlur stdDeviation="5.0"/>
    </filter>
    <defs/>
    <g xmlns:inkscape="http://www.inkscape.org/namespaces/inkscape" xmlns:scribmaster="http://scribmaster.com/scribmaster" id="1627852819645" transform="matrix(1.032782,0,0,1.032782,-14.899414,-13.325867)" style="opacity:1.0">
      <g id="1627851273342" inkscape:groupmode="layer" transform="matrix(1,0,0,1,0,0)" style="opacity:1.0">
        <path transform="matrix(1,0,0,1,0,0)" d="M 132.55403 152.3321 L 132.55403 151.36385 L 132.55403 150.3956 L 132.55403 149.42734 L 132.55403 148.45908 L 131.58577 147.49081 L 131.58577 146.52255 L 130.61751 146.52255 L 129.64926 145.5543 L 129.64926 144.58604 L 127.71274 143.61778 L 125.776215 142.64952 L 123.8397 141.68126 L 121.90318 140.71301 L 118.998405 139.74475 L 116.093636 139.74475 L 113.18886 139.74475 L 110.28408 140.71301 L 106.41105 141.68126 L 105.44279 142.64952 L 102.53801 144.58604 L 101.569756 146.52255 L 99.63324 149.42734 L 98.66498 152.3321 L 97.69672 155.2369 L 97.69672 158.14166 L 98.66498 161.04643 L 99.63324 164.91946 L 103.50627 170.72902 L 108.347565 175.57031 L 114.15711 180.4116 L 121.90318 187.18942 L 128.681 193.96722 L 135.4588 199.77678 L 141.26836 204.61807 L 145.14139 209.45937 L 149.98268 214.30066 L 152.88745 219.14195 L 153.85571 222.04672 L 154.82397 224.9515 L 154.82397 225.91975 L 153.85571 227.85628 L 151.9192 229.7928 L 149.98268 230.76105 L 147.07791 231.72931 L 143.20486 232.69757 L 138.36359 232.69757 L 131.58577 233.66583 L 124.80796 232.69757 L 118.03015 232.69757 L 111.25234 231.72931 L 105.44279 230.76105 L 98.66498 229.7928" scribmaster:penstyle="draw" style="stroke:#000000;stroke-width:5.0;stroke-linejoin:round;stroke-linecap:round;stroke-opacity:1.0;fill:none"/>
      </g>
    </g>
  </g>
</svg>
