<?xml version='1.0' encoding='ASCII' standalone='yes'?>
<svg width = "6in" height = "4in" xmlns="http://www.w3.org/2000/svg" xmlns:xlink="http://www.w3.org/1999/xlink" version="1.1">
  <g transform="translate(-1.0473038956930552, 0) scale(1 1) translate(-0.8145370177431639, 0) scale(1 1) translate(-0.581794650448325, 0) scale(1 1) translate(-0.34906978865732063, 0) scale(1 1) translate(-0.1163554293259576, 0) scale(1 1) translate(0.1163554293259576, 0) scale(1 1) translate(0.34906978865732075, 0) scale(1 1) translate(0.5817946504483253, 0) scale(1 1) translate(0.814537017743164, 0) scale(1 1) translate(1.0473038956930552, 0) scale(1 1) translate(0, 0) scale(0.1 0.1)  skewX(-1.000000) skewX(-0.777778) skewX(-0.555556) skewX(-0.333333) skewX(-0.111111) skewX(0.111111) skewX(0.333333) skewX(0.555556) skewX(0.777778) skewX(1.000000)">
    <sodipodi:namedview xmlns:sodipodi="http://sodipodi.sourceforge.net/DTD/sodipodi-0.dtd" id="ScribMaster"/>
    <filter id="blur">
      <feGaussianBlur stdDeviation="5.0"/>
    </filter>
    <defs/>
    <g xmlns:inkscape="http://www.inkscape.org/namespaces/inkscape" xmlns:scribmaster="http://scribmaster.com/scribmaster" id="1627852769269" transform="matrix(1.032782,0,0,1.032782,-14.899414,-13.325867)" style="opacity:1.0">
      <g id="1627851273342" inkscape:groupmode="layer" transform="matrix(1,0,0,1,0,0)" style="opacity:1.0">
        <path transform="matrix(1,0,0,1,0,0)" d="M 120.93492 143.61778 L 119.96667 142.64952 L 118.998405 141.68126 L 118.03015 140.71301 L 117.06189 139.74475 L 116.093636 139.74475 L 115.125374 139.74475 L 113.18886 139.74475 L 111.25234 139.74475 L 108.347565 139.74475 L 104.474525 141.68126 L 101.569756 142.64952 L 95.7602 144.58604 L 89.95065 149.42734 L 85.10936 153.30037 L 81.23632 158.14166 L 78.33155 162.0147 L 78.33155 165.88773 L 79.299805 170.72902 L 81.23632 173.6338 L 84.1411 176.53857 L 88.01414 179.44334 L 92.85542 182.34813 L 98.66498 185.2529 L 103.50627 189.12593 L 108.347565 192.99896 L 112.2206 196.87201 L 115.125374 199.77678 L 118.03015 203.64981 L 119.96667 205.58633 L 120.93492 208.4911 L 120.93492 210.42763 L 118.998405 213.3324 L 117.06189 215.26892 L 114.15711 219.14195 L 108.347565 222.04672 L 102.53801 223.98325 L 95.7602 225.91975 L 89.95065 226.88802 L 84.1411 226.88802 L 79.299805 227.85628 L 75.42677 227.85628" scribmaster:penstyle="draw" style="stroke:#000000;stroke-width:5.0;stroke-linejoin:round;stroke-linecap:round;stroke-opacity:1.0;fill:none"/>
      </g>
    </g>
  </g>
</svg>
