<?xml version='1.0' encoding='ASCII' standalone='yes'?>
<svg width = "6in" height = "4in" xmlns="http://www.w3.org/2000/svg" xmlns:xlink="http://www.w3.org/1999/xlink" version="1.1">
  <g transform="translate(-0.581794650448325, 0) scale(1 1) translate(-0.34906978865732063, 0) scale(1 1) translate(-0.1163554293259576, 0) scale(1 1) translate(0.1163554293259576, 0) scale(1 1) translate(0.34906978865732075, 0) scale(1 1) translate(0.5817946504483253, 0) scale(1 1) translate(0.814537017743164, 0) scale(1 1) translate(1.0473038956930552, 0) scale(1 1) translate(0, 0) scale(0.1 0.1)  skewX(-1.000000) skewX(-0.777778) skewX(-0.555556) skewX(-0.333333) skewX(-0.111111) skewX(0.111111) skewX(0.333333) skewX(0.555556)">
    <sodipodi:namedview xmlns:sodipodi="http://sodipodi.sourceforge.net/DTD/sodipodi-0.dtd" id="ScribMaster"/>
    <filter id="blur">
      <feGaussianBlur stdDeviation="5.0"/>
    </filter>
    <defs/>
    <g xmlns:inkscape="http://www.inkscape.org/namespaces/inkscape" xmlns:scribmaster="http://scribmaster.com/scribmaster" id="1627853841550" transform="matrix(1.041329,0,0,1.041329,-16.413086,-15.68722)" style="opacity:1.0">
      <g id="1627851273342" inkscape:groupmode="layer" transform="matrix(1,0,0,1,0,0)" style="opacity:1.0">
        <path transform="matrix(1,0,0,1,0,0)" d="M 80.10251 85.16732 L 78.181885 86.12763 L 78.181885 88.048256 L 78.181885 89.96887 L 77.22157 92.84981 L 76.26126 97.65137 L 75.30095 104.37354 L 74.340645 113.976654 L 73.38033 125.50038 L 72.42002 139.90504 L 70.4994 154.30971 L 70.4994 168.71437 L 69.539085 184.07935 L 70.4994 196.5634 L 70.4994 206.1665 L 71.45971 214.80931 L 71.45971 220.57117 L 71.45971 225.37273 L 71.45971 227.29335 L 71.45971 229.21397 L 70.4994 230.17429 L 70.4994 231.1346 L 70.4994 230.17429 L 69.539085 230.17429 L 69.539085 229.21397 L 69.539085 227.29335 L 69.539085 225.37273 L 68.57877 220.57117 L 68.57877 212.88869 L 67.61846 204.24588 L 67.61846 192.72215 L 67.61846 181.19843 L 67.61846 170.635 L 68.57877 161.03189 L 68.57877 152.38908 L 70.4994 144.7066 L 72.42002 137.98442 L 73.38033 131.26225 L 76.26126 125.50038 L 78.181885 120.69883 L 82.023125 114.936966 L 86.824684 110.13541 L 90.665924 106.29417 L 95.46748 103.41323 L 99.30872 100.532295 L 102.18966 99.57198 L 105.070595 100.532295 L 106.99122 101.49261 L 109.87215 103.41323 L 110.83246 105.333855 L 112.75308 108.21478 L 113.713394 112.05603 L 115.63402 114.936966 L 116.59433 118.778206 L 116.59433 121.65914 L 116.59433 125.50038 L 116.59433 129.34163 L 115.63402 133.18288 L 113.713394 138.94473 L 111.79277 143.74629 L 107.95153 150.46846 L 104.11028 155.27002 L 101.22935 160.07158 L 97.38811 163.91283 L 93.54686 167.75406 L 91.626236 170.635 L 88.74531 171.5953 L 87.784996 172.55562 L 86.824684 171.5953 L 87.784996 171.5953 L 87.784996 169.67468 L 89.70562 168.71437 L 91.626236 168.71437 L 94.50717 168.71437 L 97.38811 168.71437 L 101.22935 169.67468 L 104.11028 170.635 L 106.99122 172.55562 L 111.79277 174.47624 L 114.673706 177.35718 L 118.514946 181.19843 L 120.43557 185.03966 L 122.35619 188.8809 L 123.316505 193.68246 L 123.316505 197.52371 L 123.316505 202.32526 L 122.35619 206.1665 L 120.43557 210.00775 L 118.514946 211.92838 L 115.63402 214.80931 L 112.75308 216.72993 L 108.911835 217.69023 L 104.11028 219.61086 L 100.269035 219.61086 L 95.46748 220.57117 L 91.626236 220.57117 L 86.824684 221.53148 L 82.98344 221.53148 L 79.1422 221.53148 L 76.26126 221.53148 L 74.340645 220.57117" scribmaster:penstyle="draw" style="stroke:#000000;stroke-width:5.0;stroke-linejoin:round;stroke-linecap:round;stroke-opacity:1.0;fill:none"/>
      </g>
    </g>
  </g>
</svg>
