<?xml version='1.0' encoding='ASCII' standalone='yes'?>
<svg width = "6in" height = "4in" xmlns="http://www.w3.org/2000/svg" xmlns:xlink="http://www.w3.org/1999/xlink" version="1.1">
  <g transform="translate(-0.1163554293259576, 0) scale(1 1) translate(0.1163554293259576, 0) scale(1 1) translate(0.34906978865732075, 0) scale(1 1) translate(0.5817946504483253, 0) scale(1 1) translate(0.814537017743164, 0) scale(1 1) translate(1.0473038956930552, 0) scale(1 1) translate(0, 0) scale(0.1 0.1)  skewX(-1.000000) skewX(-0.777778) skewX(-0.555556) skewX(-0.333333) skewX(-0.111111) skewX(0.111111)">
    <sodipodi:namedview xmlns:sodipodi="http://sodipodi.sourceforge.net/DTD/sodipodi-0.dtd" id="ScribMaster"/>
    <filter id="blur">
      <feGaussianBlur stdDeviation="5.0"/>
    </filter>
    <defs/>
    <g xmlns:inkscape="http://www.inkscape.org/namespaces/inkscape" xmlns:scribmaster="http://scribmaster.com/scribmaster" id="1627853819328" transform="matrix(1.041329,0,0,1.041329,-16.413086,-15.68722)" style="opacity:1.0">
      <g id="1627851273342" inkscape:groupmode="layer" transform="matrix(1,0,0,1,0,0)" style="opacity:1.0">
        <path transform="matrix(1,0,0,1,0,0)" d="M 63.77722 94.77043 L 60.89629 93.81012 L 60.89629 94.77043 L 60.89629 95.73074 L 59.935978 96.691055 L 59.935978 98.61167 L 59.935978 101.49261 L 59.935978 104.37354 L 59.935978 108.21478 L 59.935978 113.01634 L 59.935978 118.778206 L 58.975666 125.50038 L 58.975666 133.18288 L 58.015354 139.90504 L 58.015354 146.62723 L 57.055046 152.38908 L 57.055046 159.11127 L 56.094734 164.87312 L 56.094734 170.635 L 55.134422 176.39687 L 55.134422 182.15872 L 54.17411 187.9206 L 54.17411 193.68246 L 54.17411 197.52371 L 53.2138 202.32526 L 53.2138 205.20619 L 52.25349 207.12682 L 52.25349 209.04744 L 51.29318 210.00775 L 50.332867 211.92838 L 50.332867 213.849 L 50.332867 214.80931 L 49.372555 215.76962 L 48.412247 216.72993 L 48.412247 217.69023 L 48.412247 218.65054 L 47.451935 219.61086 L 47.451935 220.57117 L 46.491623 221.53148 L 46.491623 222.49179 L 45.53131 222.49179 L 45.53131 223.4521 L 44.571 223.4521 L 43.610687 223.4521 L 43.610687 222.49179 L 43.610687 221.53148 L 43.610687 220.57117 L 43.610687 219.61086 L 44.571 218.65054 L 44.571 217.69023 L 44.571 215.76962 L 44.571 213.849 L 45.53131 210.96806 L 45.53131 208.08713 L 46.491623 205.20619 L 47.451935 201.36494 L 48.412247 198.48402 L 48.412247 195.60309 L 49.372555 192.72215 L 49.372555 189.84122 L 50.332867 186.96028 L 50.332867 183.11903 L 51.29318 180.23811 L 51.29318 176.39687 L 52.25349 173.51593 L 52.25349 169.67468 L 53.2138 165.83344 L 53.2138 161.9922 L 53.2138 159.11127 L 54.17411 155.27002 L 54.17411 152.38908 L 54.17411 149.50815 L 55.134422 146.62723 L 55.134422 144.7066 L 55.134422 142.78598 L 56.094734 140.86536 L 56.094734 138.94473 L 56.094734 136.0638 L 56.094734 134.14317 L 57.055046 132.22256 L 57.055046 129.34163 L 57.055046 127.421005 L 57.055046 125.50038 L 58.015354 123.579765 L 58.015354 121.65914 L 58.015354 119.73852 L 58.975666 117.817894 L 58.975666 115.89728 L 59.935978 113.976654 L 59.935978 112.05603 L 60.89629 109.175095 L 61.8566 108.21478 L 62.81691 106.29417 L 63.77722 104.37354 L 64.73753 103.41323 L 65.697845 101.49261 L 66.65815 99.57198 L 67.61846 98.61167 L 68.57877 97.65137 L 68.57877 96.691055 L 69.539085 95.73074 L 69.539085 94.77043 L 70.4994 93.81012 L 71.45971 93.81012 L 71.45971 92.84981 L 71.45971 91.889496 L 71.45971 90.929184 L 72.42002 90.929184 L 72.42002 89.96887 L 72.42002 89.00857 L 73.38033 89.00857 L 73.38033 88.048256 L 73.38033 87.087944 L 73.38033 85.16732 L 74.340645 85.16732 L 75.30095 85.16732 L 76.26126 85.16732 L 77.22157 85.16732 L 78.181885 86.12763 L 80.10251 87.087944 L 81.06282 88.048256 L 82.023125 89.00857 L 82.98344 89.00857 L 83.94375 89.96887 L 84.90406 91.889496 L 86.824684 93.81012 L 87.784996 94.77043 L 88.74531 96.691055 L 88.74531 98.61167 L 89.70562 102.45292 L 90.665924 105.333855 L 90.665924 109.175095 L 91.626236 112.05603 L 91.626236 114.936966 L 90.665924 118.778206 L 90.665924 121.65914 L 89.70562 125.50038 L 88.74531 128.38132 L 86.824684 131.26225 L 85.86437 134.14317 L 83.94375 137.02411 L 82.98344 139.90504 L 81.06282 142.78598 L 78.181885 144.7066 L 77.22157 146.62723 L 75.30095 148.54784 L 73.38033 150.46846 L 71.45971 151.42877 L 70.4994 153.3494 L 68.57877 154.30971 L 67.61846 155.27002 L 66.65815 156.23033 L 65.697845 157.19064 L 64.73753 158.15096 L 63.77722 159.11127 L 63.77722 160.07158 L 62.81691 160.07158 L 61.8566 161.03189 L 62.81691 161.03189 L 63.77722 161.03189 L 65.697845 161.03189 L 67.61846 161.03189 L 69.539085 161.03189 L 72.42002 161.03189 L 75.30095 161.9922 L 78.181885 161.9922 L 82.023125 162.95251 L 84.90406 163.91283 L 87.784996 165.83344 L 90.665924 166.79375 L 93.54686 168.71437 L 96.427795 169.67468 L 98.34842 171.5953 L 101.22935 174.47624 L 103.14997 176.39687 L 105.070595 179.2778 L 106.03091 181.19843 L 106.99122 184.07935 L 107.95153 186.96028 L 108.911835 189.84122 L 108.911835 192.72215 L 107.95153 195.60309 L 106.99122 198.48402 L 105.070595 201.36494 L 103.14997 203.28557 L 101.22935 206.1665 L 98.34842 209.04744 L 94.50717 210.96806 L 89.70562 213.849 L 85.86437 215.76962 L 82.023125 217.69023 L 78.181885 218.65054 L 73.38033 219.61086 L 70.4994 220.57117 L 67.61846 220.57117 L 64.73753 221.53148 L 63.77722 221.53148 L 61.8566 221.53148 L 60.89629 221.53148" scribmaster:penstyle="draw" style="stroke:#000000;stroke-width:5.0;stroke-linejoin:round;stroke-linecap:round;stroke-opacity:1.0;fill:none"/>
      </g>
    </g>
  </g>
</svg>
