<?xml version='1.0' encoding='ASCII' standalone='yes'?>
<svg width = "6in" height = "4in" xmlns="http://www.w3.org/2000/svg" xmlns:xlink="http://www.w3.org/1999/xlink" version="1.1">
  <g transform="translate(1.0473038956930552, 0) scale(1 1) translate(0, 0) scale(0.1 0.1)  skewX(-1.000000)">
    <sodipodi:namedview xmlns:sodipodi="http://sodipodi.sourceforge.net/DTD/sodipodi-0.dtd" id="ScribMaster"/>
    <filter id="blur">
      <feGaussianBlur stdDeviation="5.0"/>
    </filter>
    <defs/>
    <g xmlns:inkscape="http://www.inkscape.org/namespaces/inkscape" xmlns:scribmaster="http://scribmaster.com/scribmaster" id="1625349698798" transform="matrix(1,0,0,1,-1.316833,-1.489594)" style="opacity:1.0">
      <g id="1625348338071" inkscape:groupmode="layer" transform="matrix(1,0,0,1,0,0)" style="opacity:1.0">
        <path transform="matrix(1,0,0,1,0,0)" d="M 109.31683 57.489594 L 107.31683 59.489594 L 106.31683 61.489594 L 105.31683 64.48959 L 104.31683 68.48959 L 101.31683 74.48959 L 96.31683 85.48959 L 91.31683 98.48959 L 86.31683 111.48959 L 79.31683 124.48959 L 70.31683 145.4896 L 61.316833 164.4896 L 54.316833 177.4896 L 48.316833 191.4896 L 44.316833 202.4896 L 42.316833 209.4896 L 40.316833 215.4896 L 39.316833 219.4896 L 39.316833 222.4896 L 40.316833 223.4896 L 40.316833 224.4896 L 41.316833 225.4896" scribmaster:penstyle="draw" style="stroke:#000000;stroke-width:5.0;stroke-linejoin:round;stroke-linecap:round;stroke-opacity:1.0;fill:none"/>
        <path transform="matrix(1,0,0,1,0,0)" d="M 104.31683 62.489594 L 106.31683 61.489594 L 108.31683 60.489594 L 109.31683 60.489594 L 110.31683 60.489594 L 111.31683 60.489594 L 112.31683 60.489594 L 113.31683 60.489594 L 113.31683 63.489594 L 114.31683 66.48959 L 115.31683 72.48959 L 117.31683 82.48959 L 120.31683 95.48959 L 123.31683 109.48959 L 127.31683 124.48959 L 131.31683 142.4896 L 135.31683 159.4896 L 138.31683 173.4896 L 140.31683 186.4896 L 143.31683 197.4896 L 145.31683 205.4896 L 147.31683 212.4896 L 149.31683 217.4896 L 151.31683 220.4896 L 151.31683 222.4896 L 152.31683 224.4896 L 152.31683 225.4896 L 153.31683 226.4896 L 153.31683 228.4896" scribmaster:penstyle="draw" style="stroke:#000000;stroke-width:5.0;stroke-linejoin:round;stroke-linecap:round;stroke-opacity:1.0;fill:none"/>
        <path transform="matrix(1,0,0,1,0,0)" d="M 76.31683 160.4896 L 77.31683 159.4896 L 84.31683 159.4896 L 96.31683 159.4896 L 113.31683 159.4896 L 129.31683 158.4896" scribmaster:penstyle="draw" style="stroke:#000000;stroke-width:5.0;stroke-linejoin:round;stroke-linecap:round;stroke-opacity:1.0;fill:none"/>
      </g>
    </g>
  </g>
</svg>
