<?xml version='1.0' encoding='ASCII' standalone='yes'?>
<svg width = "6in" height = "4in" xmlns="http://www.w3.org/2000/svg" xmlns:xlink="http://www.w3.org/1999/xlink" version="1.1">
  <g transform="translate(-0.8145370177431639, 0) scale(1 1) translate(-0.581794650448325, 0) scale(1 1) translate(-0.34906978865732063, 0) scale(1 1) translate(-0.1163554293259576, 0) scale(1 1) translate(0.1163554293259576, 0) scale(1 1) translate(0.34906978865732075, 0) scale(1 1) translate(0.5817946504483253, 0) scale(1 1) translate(0.814537017743164, 0) scale(1 1) translate(1.0473038956930552, 0) scale(1 1) translate(0, 0) scale(0.1 0.1)  skewX(-1.000000) skewX(-0.777778) skewX(-0.555556) skewX(-0.333333) skewX(-0.111111) skewX(0.111111) skewX(0.333333) skewX(0.555556) skewX(0.777778)">
    <sodipodi:namedview xmlns:sodipodi="http://sodipodi.sourceforge.net/DTD/sodipodi-0.dtd" id="ScribMaster"/>
    <filter id="blur">
      <feGaussianBlur stdDeviation="5.0"/>
    </filter>
    <defs/>
    <g xmlns:inkscape="http://www.inkscape.org/namespaces/inkscape" xmlns:scribmaster="http://scribmaster.com/scribmaster" id="1625349628379" transform="matrix(1,0,0,1,-1.316833,-1.489594)" style="opacity:1.0">
      <g id="1625348338071" inkscape:groupmode="layer" transform="matrix(1,0,0,1,0,0)" style="opacity:1.0">
        <path transform="matrix(1,0,0,1,0,0)" d="M 99.31683 54.489594 L 99.31683 51.489594 L 98.31683 51.489594 L 98.31683 52.489594 L 97.31683 53.489594 L 96.31683 56.489594 L 95.31683 59.489594 L 93.31683 64.48959 L 90.31683 73.48959 L 87.31683 87.48959 L 83.31683 101.48959 L 79.31683 115.48959 L 76.31683 128.4896 L 72.31683 143.4896 L 68.31683 156.4896 L 64.31683 169.4896 L 59.316833 179.4896 L 56.316833 189.4896 L 52.316833 199.4896 L 49.316833 207.4896 L 46.316833 215.4896 L 44.316833 222.4896 L 42.316833 227.4896 L 41.316833 231.4896 L 41.316833 234.4896 L 41.316833 236.4896 L 40.316833 238.4896 L 40.316833 239.4896 L 41.316833 239.4896 L 41.316833 238.4896 L 41.316833 237.4896 L 42.316833 237.4896 L 42.316833 236.4896" scribmaster:penstyle="draw" style="stroke:#000000;stroke-width:5.0;stroke-linejoin:round;stroke-linecap:round;stroke-opacity:1.0;fill:none"/>
        <path transform="matrix(1,0,0,1,0,0)" d="M 111.31683 53.489594 L 110.31683 51.489594 L 109.31683 51.489594 L 109.31683 50.489594 L 109.31683 49.489594 L 109.31683 50.489594 L 109.31683 51.489594 L 109.31683 52.489594 L 110.31683 57.489594 L 111.31683 63.489594 L 114.31683 76.48959 L 117.31683 93.48959 L 121.31683 112.48959 L 126.31683 129.4896 L 129.31683 148.4896 L 133.31683 163.4896 L 136.31683 176.4896 L 138.31683 187.4896 L 139.31683 197.4896 L 141.31683 205.4896 L 142.31683 213.4896 L 144.31683 219.4896 L 145.31683 222.4896 L 146.31683 225.4896 L 146.31683 226.4896 L 147.31683 227.4896 L 147.31683 226.4896" scribmaster:penstyle="draw" style="stroke:#000000;stroke-width:5.0;stroke-linejoin:round;stroke-linecap:round;stroke-opacity:1.0;fill:none"/>
        <path transform="matrix(1,0,0,1,0,0)" d="M 72.31683 161.4896 L 74.31683 160.4896 L 76.31683 159.4896 L 78.31683 159.4896 L 81.31683 159.4896 L 84.31683 159.4896 L 88.31683 159.4896 L 91.31683 159.4896 L 95.31683 159.4896 L 98.31683 159.4896 L 102.31683 159.4896 L 105.31683 159.4896 L 108.31683 159.4896 L 111.31683 159.4896 L 113.31683 159.4896 L 115.31683 158.4896" scribmaster:penstyle="draw" style="stroke:#000000;stroke-width:5.0;stroke-linejoin:round;stroke-linecap:round;stroke-opacity:1.0;fill:none"/>
      </g>
    </g>
  </g>
</svg>
