<?xml version='1.0' encoding='ASCII' standalone='yes'?>
<svg width = "6in" height = "4in" xmlns="http://www.w3.org/2000/svg" xmlns:xlink="http://www.w3.org/1999/xlink" version="1.1">
  <g transform="translate(-0.581794650448325, 0) scale(1 1) translate(-0.34906978865732063, 0) scale(1 1) translate(-0.1163554293259576, 0) scale(1 1) translate(0.1163554293259576, 0) scale(1 1) translate(0.34906978865732075, 0) scale(1 1) translate(0.5817946504483253, 0) scale(1 1) translate(0.814537017743164, 0) scale(1 1) translate(1.0473038956930552, 0) scale(1 1) translate(0, 0) scale(0.1 0.1)  skewX(-1.000000) skewX(-0.777778) skewX(-0.555556) skewX(-0.333333) skewX(-0.111111) skewX(0.111111) skewX(0.333333) skewX(0.555556)">
    <sodipodi:namedview xmlns:sodipodi="http://sodipodi.sourceforge.net/DTD/sodipodi-0.dtd" id="ScribMaster"/>
    <filter id="blur">
      <feGaussianBlur stdDeviation="5.0"/>
    </filter>
    <defs/>
    <g xmlns:inkscape="http://www.inkscape.org/namespaces/inkscape" xmlns:scribmaster="http://scribmaster.com/scribmaster" id="1625352146202" transform="matrix(1,0,0,1,-1.316833,-1.489594)" style="opacity:1.0">
      <g id="1625348338071" inkscape:groupmode="layer" transform="matrix(1,0,0,1,0,0)" style="opacity:1.0">
        <path transform="matrix(1,0,0,1,0,0)" d="M 40.316833 97.48959 L 40.316833 99.48959 L 40.316833 102.48959 L 40.316833 109.48959 L 40.316833 120.48959 L 40.316833 136.4896 L 40.316833 154.4896 L 40.316833 171.4896 L 40.316833 190.4896 L 39.316833 204.4896 L 38.316833 214.4896 L 37.316833 223.4896 L 37.316833 229.4896 L 39.316833 232.4896 L 40.316833 233.4896 L 41.316833 233.4896" scribmaster:penstyle="draw" style="stroke:#000000;stroke-width:5.0;stroke-linejoin:round;stroke-linecap:round;stroke-opacity:1.0;fill:none"/>
        <path transform="matrix(1,0,0,1,0,0)" d="M 96.31683 98.48959 L 95.31683 100.48959 L 95.31683 103.48959 L 96.31683 110.48959 L 96.31683 118.48959 L 96.31683 134.4896 L 97.31683 152.4896 L 97.31683 168.4896 L 97.31683 183.4896 L 97.31683 195.4896 L 97.31683 205.4896 L 97.31683 212.4896 L 97.31683 217.4896 L 98.31683 219.4896 L 99.31683 220.4896" scribmaster:penstyle="draw" style="stroke:#000000;stroke-width:5.0;stroke-linejoin:round;stroke-linecap:round;stroke-opacity:1.0;fill:none"/>
        <path transform="matrix(1,0,0,1,0,0)" d="M 11.3168335 150.4896 L 13.3168335 149.4896 L 19.316833 148.4896 L 28.316833 146.4896 L 38.316833 144.4896 L 50.316833 142.4896 L 71.31683 138.4896 L 88.31683 134.4896 L 101.31683 132.4896 L 111.31683 129.4896 L 119.31683 127.48959 L 126.31683 124.48959 L 129.31683 123.48959 L 131.31683 123.48959 L 133.31683 122.48959" scribmaster:penstyle="draw" style="stroke:#000000;stroke-width:5.0;stroke-linejoin:round;stroke-linecap:round;stroke-opacity:1.0;fill:none"/>
        <path transform="matrix(1,0,0,1,0,0)" d="M 10.3168335 214.4896 L 19.316833 211.4896 L 29.316833 208.4896 L 44.316833 202.4896 L 66.31683 196.4896 L 84.31683 193.4896 L 99.31683 191.4896 L 111.31683 188.4896" scribmaster:penstyle="draw" style="stroke:#000000;stroke-width:5.0;stroke-linejoin:round;stroke-linecap:round;stroke-opacity:1.0;fill:none"/>
      </g>
    </g>
  </g>
</svg>
