<?xml version='1.0' encoding='ASCII' standalone='yes'?>
<svg width = "6in" height = "4in" xmlns="http://www.w3.org/2000/svg" xmlns:xlink="http://www.w3.org/1999/xlink" version="1.1">
  <g transform="translate(-0.8145370177431639, 0) scale(1 1) translate(-0.581794650448325, 0) scale(1 1) translate(-0.34906978865732063, 0) scale(1 1) translate(-0.1163554293259576, 0) scale(1 1) translate(0.1163554293259576, 0) scale(1 1) translate(0.34906978865732075, 0) scale(1 1) translate(0.5817946504483253, 0) scale(1 1) translate(0.814537017743164, 0) scale(1 1) translate(1.0473038956930552, 0) scale(1 1) translate(0, 0) scale(0.1 0.1)  skewX(-1.000000) skewX(-0.777778) skewX(-0.555556) skewX(-0.333333) skewX(-0.111111) skewX(0.111111) skewX(0.333333) skewX(0.555556) skewX(0.777778)">
    <sodipodi:namedview xmlns:sodipodi="http://sodipodi.sourceforge.net/DTD/sodipodi-0.dtd" id="ScribMaster"/>
    <filter id="blur">
      <feGaussianBlur stdDeviation="5.0"/>
    </filter>
    <defs/>
    <g xmlns:inkscape="http://www.inkscape.org/namespaces/inkscape" xmlns:scribmaster="http://scribmaster.com/scribmaster" id="1625352122079" transform="matrix(1,0,0,1,-1.316833,-1.489594)" style="opacity:1.0">
      <g id="1625348338071" inkscape:groupmode="layer" transform="matrix(1,0,0,1,0,0)" style="opacity:1.0">
        <path transform="matrix(1,0,0,1,0,0)" d="M 49.316833 100.48959 L 49.316833 99.48959 L 49.316833 98.48959 L 48.316833 97.48959 L 48.316833 96.48959 L 48.316833 95.48959 L 48.316833 94.48959 L 48.316833 93.48959 L 48.316833 94.48959 L 48.316833 99.48959 L 48.316833 107.48959 L 48.316833 119.48959 L 49.316833 141.4896 L 49.316833 161.4896 L 48.316833 179.4896 L 48.316833 194.4896 L 48.316833 204.4896 L 48.316833 214.4896 L 48.316833 220.4896 L 48.316833 226.4896 L 48.316833 229.4896 L 48.316833 231.4896 L 48.316833 232.4896 L 48.316833 233.4896 L 49.316833 232.4896 L 49.316833 231.4896 L 49.316833 230.4896" scribmaster:penstyle="draw" style="stroke:#000000;stroke-width:5.0;stroke-linejoin:round;stroke-linecap:round;stroke-opacity:1.0;fill:none"/>
        <path transform="matrix(1,0,0,1,0,0)" d="M 108.31683 96.48959 L 107.31683 96.48959 L 108.31683 99.48959 L 109.31683 104.48959 L 109.31683 113.48959 L 110.31683 126.48959 L 111.31683 143.4896 L 111.31683 162.4896 L 111.31683 178.4896 L 111.31683 191.4896 L 111.31683 201.4896 L 111.31683 210.4896 L 111.31683 216.4896 L 111.31683 221.4896 L 111.31683 223.4896 L 111.31683 224.4896 L 112.31683 224.4896" scribmaster:penstyle="draw" style="stroke:#000000;stroke-width:5.0;stroke-linejoin:round;stroke-linecap:round;stroke-opacity:1.0;fill:none"/>
        <path transform="matrix(1,0,0,1,0,0)" d="M 20.316833 143.4896 L 23.316833 142.4896 L 28.316833 140.4896 L 37.316833 137.4896 L 46.316833 135.4896 L 62.316833 133.4896 L 79.31683 130.4896 L 96.31683 128.4896 L 111.31683 126.48959 L 125.31683 124.48959 L 136.31683 122.48959 L 145.31683 121.48959 L 152.31683 118.48959 L 158.31683 116.48959 L 162.31683 115.48959 L 163.31683 116.48959 L 162.31683 116.48959" scribmaster:penstyle="draw" style="stroke:#000000;stroke-width:5.0;stroke-linejoin:round;stroke-linecap:round;stroke-opacity:1.0;fill:none"/>
        <path transform="matrix(1,0,0,1,0,0)" d="M 28.316833 182.4896 L 27.316833 182.4896 L 27.316833 181.4896 L 26.316833 181.4896 L 27.316833 181.4896 L 29.316833 182.4896 L 31.316833 182.4896 L 34.316833 182.4896 L 41.316833 181.4896 L 51.316833 181.4896 L 64.31683 180.4896 L 77.31683 179.4896 L 90.31683 177.4896 L 101.31683 175.4896 L 111.31683 174.4896 L 121.31683 172.4896 L 128.31683 172.4896" scribmaster:penstyle="draw" style="stroke:#000000;stroke-width:5.0;stroke-linejoin:round;stroke-linecap:round;stroke-opacity:1.0;fill:none"/>
      </g>
    </g>
  </g>
</svg>
