<?xml version='1.0' encoding='ASCII' standalone='yes'?>
<svg width = "6in" height = "4in" xmlns="http://www.w3.org/2000/svg" xmlns:xlink="http://www.w3.org/1999/xlink" version="1.1">
  <g transform="translate(-0.8145370177431639, 0) scale(1 1) translate(-0.581794650448325, 0) scale(1 1) translate(-0.34906978865732063, 0) scale(1 1) translate(-0.1163554293259576, 0) scale(1 1) translate(0.1163554293259576, 0) scale(1 1) translate(0.34906978865732075, 0) scale(1 1) translate(0.5817946504483253, 0) scale(1 1) translate(0.814537017743164, 0) scale(1 1) translate(1.0473038956930552, 0) scale(1 1) translate(0, 0) scale(0.1 0.1)  skewX(-1.000000) skewX(-0.777778) skewX(-0.555556) skewX(-0.333333) skewX(-0.111111) skewX(0.111111) skewX(0.333333) skewX(0.555556) skewX(0.777778)">
    <sodipodi:namedview xmlns:sodipodi="http://sodipodi.sourceforge.net/DTD/sodipodi-0.dtd" id="ScribMaster"/>
    <filter id="blur">
      <feGaussianBlur stdDeviation="5.0"/>
    </filter>
    <defs/>
    <g xmlns:inkscape="http://www.inkscape.org/namespaces/inkscape" xmlns:scribmaster="http://scribmaster.com/scribmaster" id="1627852068459" transform="matrix(1.032782,0,0,1.032782,-14.899414,-13.325867)" style="opacity:1.0">
      <g id="1627851273342" inkscape:groupmode="layer" transform="matrix(1,0,0,1,0,0)" style="opacity:1.0">
        <path transform="matrix(1,0,0,1,0,0)" d="M 77.36329 72.93491 L 75.42677 70.9984 L 76.395035 72.93491 L 76.395035 75.83969 L 77.36329 79.71272 L 77.36329 88.427055 L 78.33155 101.98267 L 79.299805 120.379585 L 80.26807 145.5543 L 81.23632 167.82425 L 83.172844 186.22116 L 84.1411 202.68155 L 86.077614 213.3324 L 87.045876 220.11021 L 88.01414 225.91975 L 88.98239 229.7928 L 88.98239 231.72931 L 88.01414 230.76105 L 88.01414 229.7928 L 88.98239 227.85628 L 88.98239 224.9515 L 88.98239 222.04672 L 89.95065 216.23718 L 90.91891 209.45937 L 92.85542 199.77678 L 94.79195 192.03072 L 96.72846 185.2529 L 98.66498 178.4751 L 101.569756 173.6338 L 103.50627 170.72902 L 105.44279 167.82425 L 106.41105 166.85599 L 108.347565 166.85599 L 110.28408 167.82425 L 112.2206 168.79251 L 114.15711 171.69728 L 118.03015 176.53857 L 120.93492 185.2529 L 124.80796 192.03072 L 126.74448 199.77678 L 129.64926 205.58633 L 131.58577 212.36414 L 133.5223 217.20543 L 134.49055 221.07846 L 135.4588 224.9515 L 135.4588 227.85628 L 136.42706 229.7928 L 137.39532 232.69757 L 137.39532 234.6341" scribmaster:penstyle="draw" style="stroke:#000000;stroke-width:5.0;stroke-linejoin:round;stroke-linecap:round;stroke-opacity:1.0;fill:none"/>
      </g>
    </g>
  </g>
</svg>
