<?xml version='1.0' encoding='ASCII' standalone='yes'?>
<svg width = "6in" height = "4in" xmlns="http://www.w3.org/2000/svg" xmlns:xlink="http://www.w3.org/1999/xlink" version="1.1">
  <g transform="translate(-0.34906978865732063, 0) scale(1 1) translate(-0.1163554293259576, 0) scale(1 1) translate(0.1163554293259576, 0) scale(1 1) translate(0.34906978865732075, 0) scale(1 1) translate(0.5817946504483253, 0) scale(1 1) translate(0.814537017743164, 0) scale(1 1) translate(1.0473038956930552, 0) scale(1 1) translate(0, 0) scale(0.1 0.1)  skewX(-1.000000) skewX(-0.777778) skewX(-0.555556) skewX(-0.333333) skewX(-0.111111) skewX(0.111111) skewX(0.333333)">
    <sodipodi:namedview xmlns:sodipodi="http://sodipodi.sourceforge.net/DTD/sodipodi-0.dtd" id="ScribMaster"/>
    <filter id="blur">
      <feGaussianBlur stdDeviation="5.0"/>
    </filter>
    <defs/>
    <g xmlns:inkscape="http://www.inkscape.org/namespaces/inkscape" xmlns:scribmaster="http://scribmaster.com/scribmaster" id="1627852055388" transform="matrix(1.032782,0,0,1.032782,-14.899414,-13.325867)" style="opacity:1.0">
      <g id="1627851273342" inkscape:groupmode="layer" transform="matrix(1,0,0,1,0,0)" style="opacity:1.0">
        <path transform="matrix(1,0,0,1,0,0)" d="M 82.20458 68.09362 L 81.23632 70.030136 L 80.26807 75.83969 L 80.26807 86.49054 L 79.299805 102.95093 L 78.33155 125.22088 L 78.33155 149.42734 L 79.299805 166.85599 L 78.33155 180.4116 L 79.299805 189.12593 L 79.299805 197.84026 L 79.299805 205.58633 L 79.299805 212.36414 L 79.299805 217.20543 L 79.299805 221.07846 L 79.299805 223.98325 L 79.299805 224.9515 L 79.299805 226.88802 L 79.299805 227.85628 L 80.26807 227.85628 L 80.26807 226.88802 L 81.23632 225.91975 L 81.23632 223.98325 L 81.23632 220.11021 L 82.20458 216.23718 L 84.1411 210.42763 L 86.077614 203.64981 L 88.01414 196.87201 L 90.91891 188.15768 L 94.79195 181.37987 L 97.69672 174.60205 L 101.569756 168.79251 L 105.44279 163.95122 L 109.31582 160.07819 L 112.2206 158.14166 L 116.093636 156.20514 L 118.998405 156.20514 L 120.93492 158.14166 L 123.8397 161.04643 L 126.74448 163.95122 L 129.64926 167.82425 L 132.55403 173.6338 L 135.4588 179.44334 L 137.39532 187.18942 L 140.3001 194.93549 L 141.26836 200.74504 L 143.20486 205.58633 L 144.17313 207.52284 L 145.14139 208.4911 L 146.10965 208.4911" scribmaster:penstyle="draw" style="stroke:#000000;stroke-width:5.0;stroke-linejoin:round;stroke-linecap:round;stroke-opacity:1.0;fill:none"/>
      </g>
    </g>
  </g>
</svg>
