<?xml version='1.0' encoding='ASCII' standalone='yes'?>
<svg width = "6in" height = "4in" xmlns="http://www.w3.org/2000/svg" xmlns:xlink="http://www.w3.org/1999/xlink" version="1.1">
  <g transform="translate(1.0473038956930552, 0) scale(1 1) translate(0, 0) scale(0.1 0.1)  skewX(-1.000000)">
    <sodipodi:namedview xmlns:sodipodi="http://sodipodi.sourceforge.net/DTD/sodipodi-0.dtd" id="ScribMaster"/>
    <filter id="blur">
      <feGaussianBlur stdDeviation="5.0"/>
    </filter>
    <defs/>
    <g xmlns:inkscape="http://www.inkscape.org/namespaces/inkscape" xmlns:scribmaster="http://scribmaster.com/scribmaster" id="1627852081368" transform="matrix(1.032782,0,0,1.032782,-14.899414,-13.325867)" style="opacity:1.0">
      <g id="1627851273342" inkscape:groupmode="layer" transform="matrix(1,0,0,1,0,0)" style="opacity:1.0">
        <path transform="matrix(1,0,0,1,0,0)" d="M 64.77593 67.12537 L 64.77593 66.157104 L 65.74419 66.157104 L 65.74419 65.18884 L 66.71245 67.12537 L 67.6807 70.030136 L 69.617226 76.807945 L 70.58548 88.427055 L 72.521996 102.95093 L 74.45852 124.25262 L 76.395035 153.30037 L 78.33155 179.44334 L 81.23632 200.74504 L 84.1411 214.30066 L 85.10936 222.04672 L 86.077614 226.88802 L 87.045876 229.7928 L 87.045876 230.76105 L 87.045876 229.7928 L 87.045876 227.85628 L 87.045876 224.9515 L 87.045876 220.11021 L 87.045876 214.30066 L 88.01414 206.5546 L 90.91891 192.03072 L 92.85542 180.4116 L 95.7602 168.79251 L 99.63324 161.04643 L 103.50627 154.26863 L 108.347565 150.3956 L 111.25234 148.45908 L 114.15711 148.45908 L 117.06189 149.42734 L 119.96667 150.3956 L 122.871445 153.30037 L 125.776215 156.20514 L 129.64926 162.98296 L 133.5223 171.69728 L 138.36359 185.2529 L 142.23662 196.87201 L 145.14139 206.5546 L 148.04616 214.30066 L 150.95094 219.14195 L 151.9192 220.11021 L 153.85571 220.11021" scribmaster:penstyle="draw" style="stroke:#000000;stroke-width:5.0;stroke-linejoin:round;stroke-linecap:round;stroke-opacity:1.0;fill:none"/>
      </g>
    </g>
  </g>
</svg>
