<?xml version='1.0' encoding='ASCII' standalone='yes'?>
<svg width = "6in" height = "4in" xmlns="http://www.w3.org/2000/svg" xmlns:xlink="http://www.w3.org/1999/xlink" version="1.1">
  <g transform="translate(-1.0473038956930552, 0) scale(1 1) translate(-0.8145370177431639, 0) scale(1 1) translate(-0.581794650448325, 0) scale(1 1) translate(-0.34906978865732063, 0) scale(1 1) translate(-0.1163554293259576, 0) scale(1 1) translate(0.1163554293259576, 0) scale(1 1) translate(0.34906978865732075, 0) scale(1 1) translate(0.5817946504483253, 0) scale(1 1) translate(0.814537017743164, 0) scale(1 1) translate(1.0473038956930552, 0) scale(1 1) translate(0, 0) scale(0.1 0.1)  skewX(-1.000000) skewX(-0.777778) skewX(-0.555556) skewX(-0.333333) skewX(-0.111111) skewX(0.111111) skewX(0.333333) skewX(0.555556) skewX(0.777778) skewX(1.000000)">
    <sodipodi:namedview xmlns:sodipodi="http://sodipodi.sourceforge.net/DTD/sodipodi-0.dtd" id="ScribMaster"/>
    <filter id="blur">
      <feGaussianBlur stdDeviation="5.0"/>
    </filter>
    <defs/>
    <g xmlns:inkscape="http://www.inkscape.org/namespaces/inkscape" xmlns:scribmaster="http://scribmaster.com/scribmaster" id="1627852572643" transform="matrix(1.032782,0,0,1.032782,-14.899414,-13.325867)" style="opacity:1.0">
      <g id="1627851273342" inkscape:groupmode="layer" transform="matrix(1,0,0,1,0,0)" style="opacity:1.0">
        <path transform="matrix(1,0,0,1,0,0)" d="M 59.93464 126.18914 L 59.93464 127.157394 L 59.93464 129.0939 L 59.93464 131.99869 L 59.93464 135.87172 L 60.902893 143.61778 L 60.902893 154.26863 L 61.871155 167.82425 L 61.871155 181.37987 L 62.839417 192.99896 L 62.839417 202.68155 L 62.839417 211.39589 L 62.839417 220.11021 L 62.839417 225.91975 L 63.80767 231.72931 L 63.80767 234.6341 L 63.80767 237.53886 L 63.80767 238.50713 L 64.77593 238.50713 L 65.74419 237.53886 L 65.74419 236.5706 L 65.74419 235.60234 L 65.74419 233.66583 L 65.74419 231.72931 L 65.74419 228.82454 L 66.71245 223.01498 L 67.6807 216.23718 L 68.648964 207.52284 L 69.617226 198.80852 L 71.55374 188.15768 L 72.521996 179.44334 L 74.45852 171.69728 L 76.395035 164.91946 L 79.299805 158.14166 L 82.20458 152.3321 L 85.10936 147.49081 L 88.98239 142.64952 L 92.85542 138.77649 L 96.72846 134.90346 L 100.601494 132.96695 L 103.50627 131.03043 L 106.41105 131.03043 L 109.31582 131.99869 L 110.28408 132.96695 L 112.2206 134.90346 L 115.125374 139.74475 L 118.998405 146.52255 L 122.871445 156.20514 L 127.71274 164.91946 L 131.58577 172.66554 L 135.4588 183.31639 L 138.36359 192.03072 L 140.3001 200.74504 L 142.23662 208.4911 L 144.17313 215.26892 L 145.14139 220.11021 L 147.07791 224.9515 L 148.04616 226.88802 L 149.01442 228.82454 L 149.98268 228.82454 L 150.95094 228.82454" scribmaster:penstyle="draw" style="stroke:#000000;stroke-width:5.0;stroke-linejoin:round;stroke-linecap:round;stroke-opacity:1.0;fill:none"/>
      </g>
    </g>
  </g>
</svg>
