<?xml version='1.0' encoding='ASCII' standalone='yes'?>
<svg width = "6in" height = "4in" xmlns="http://www.w3.org/2000/svg" xmlns:xlink="http://www.w3.org/1999/xlink" version="1.1">
  <g transform="translate(-1.0473038956930552, 0) scale(1 1) translate(-0.8145370177431639, 0) scale(1 1) translate(-0.581794650448325, 0) scale(1 1) translate(-0.34906978865732063, 0) scale(1 1) translate(-0.1163554293259576, 0) scale(1 1) translate(0.1163554293259576, 0) scale(1 1) translate(0.34906978865732075, 0) scale(1 1) translate(0.5817946504483253, 0) scale(1 1) translate(0.814537017743164, 0) scale(1 1) translate(1.0473038956930552, 0) scale(1 1) translate(0, 0) scale(0.1 0.1)  skewX(-1.000000) skewX(-0.777778) skewX(-0.555556) skewX(-0.333333) skewX(-0.111111) skewX(0.111111) skewX(0.333333) skewX(0.555556) skewX(0.777778) skewX(1.000000)">
    <sodipodi:namedview xmlns:sodipodi="http://sodipodi.sourceforge.net/DTD/sodipodi-0.dtd" id="ScribMaster"/>
    <filter id="blur">
      <feGaussianBlur stdDeviation="5.0"/>
    </filter>
    <defs/>
    <g xmlns:inkscape="http://www.inkscape.org/namespaces/inkscape" xmlns:scribmaster="http://scribmaster.com/scribmaster" id="1627852549714" transform="matrix(1.032782,0,0,1.032782,-14.899414,-13.325867)" style="opacity:1.0">
      <g id="1627851273342" inkscape:groupmode="layer" transform="matrix(1,0,0,1,0,0)" style="opacity:1.0">
        <path transform="matrix(1,0,0,1,0,0)" d="M 52.18857 138.77649 L 51.220314 137.80824 L 52.18857 138.77649 L 53.15683 143.61778 L 53.15683 150.3956 L 55.093346 161.04643 L 56.0616 173.6338 L 57.02986 185.2529 L 57.998123 194.93549 L 58.966377 202.68155 L 59.93464 209.45937 L 59.93464 214.30066 L 59.93464 217.20543 L 59.93464 218.17369 L 60.902893 217.20543 L 60.902893 215.26892 L 61.871155 213.3324 L 62.839417 207.52284 L 65.74419 196.87201 L 68.648964 184.28464 L 72.521996 171.69728 L 75.42677 161.04643 L 78.33155 151.36385 L 81.23632 144.58604 L 84.1411 138.77649 L 88.01414 134.90346 L 91.88717 132.96695 L 94.79195 132.96695 L 97.69672 133.9352 L 99.63324 136.83998 L 103.50627 141.68126 L 107.3793 151.36385 L 112.2206 165.88773 L 115.125374 178.4751 L 118.03015 190.0942 L 119.96667 198.80852 L 120.93492 205.58633 L 120.93492 209.45937 L 121.90318 211.39589 L 122.871445 212.36414 L 122.871445 213.3324" scribmaster:penstyle="draw" style="stroke:#000000;stroke-width:5.0;stroke-linejoin:round;stroke-linecap:round;stroke-opacity:1.0;fill:none"/>
      </g>
    </g>
  </g>
</svg>
