<?xml version='1.0' encoding='ASCII' standalone='yes'?>
<svg width = "6in" height = "4in" xmlns="http://www.w3.org/2000/svg" xmlns:xlink="http://www.w3.org/1999/xlink" version="1.1">
  <g transform="translate(0.814537017743164, 0) scale(1 1) translate(1.0473038956930552, 0) scale(1 1) translate(0, 0) scale(0.1 0.1)  skewX(-1.000000) skewX(-0.777778)">
    <sodipodi:namedview xmlns:sodipodi="http://sodipodi.sourceforge.net/DTD/sodipodi-0.dtd" id="ScribMaster"/>
    <filter id="blur">
      <feGaussianBlur stdDeviation="5.0"/>
    </filter>
    <defs/>
    <g xmlns:inkscape="http://www.inkscape.org/namespaces/inkscape" xmlns:scribmaster="http://scribmaster.com/scribmaster" id="1627852539452" transform="matrix(1.032782,0,0,1.032782,-14.899414,-13.325867)" style="opacity:1.0">
      <g id="1627851273342" inkscape:groupmode="layer" transform="matrix(1,0,0,1,0,0)" style="opacity:1.0">
        <path transform="matrix(1,0,0,1,0,0)" d="M 56.0616 134.90346 L 54.125084 134.90346 L 54.125084 135.87172 L 54.125084 136.83998 L 54.125084 137.80824 L 54.125084 138.77649 L 54.125084 140.71301 L 54.125084 144.58604 L 54.125084 148.45908 L 54.125084 154.26863 L 54.125084 161.04643 L 54.125084 167.82425 L 54.125084 175.57031 L 54.125084 182.34813 L 54.125084 189.12593 L 55.093346 194.93549 L 55.093346 199.77678 L 55.093346 204.61807 L 55.093346 208.4911 L 56.0616 211.39589 L 56.0616 213.3324 L 56.0616 215.26892 L 56.0616 216.23718 L 56.0616 218.17369 L 56.0616 219.14195 L 55.093346 219.14195 L 55.093346 218.17369 L 55.093346 217.20543 L 55.093346 215.26892 L 55.093346 213.3324 L 55.093346 210.42763 L 55.093346 206.5546 L 55.093346 202.68155 L 56.0616 197.84026 L 56.0616 192.99896 L 57.02986 186.22116 L 57.998123 179.44334 L 59.93464 172.66554 L 61.871155 166.85599 L 63.80767 161.04643 L 66.71245 157.1734 L 68.648964 153.30037 L 71.55374 151.36385 L 73.49026 149.42734 L 76.395035 148.45908 L 80.26807 148.45908 L 83.172844 148.45908 L 86.077614 149.42734 L 89.95065 151.36385 L 92.85542 153.30037 L 95.7602 157.1734 L 99.63324 162.98296 L 102.53801 168.79251 L 106.41105 175.57031 L 108.347565 183.31639 L 110.28408 191.06245 L 112.2206 196.87201 L 114.15711 202.68155 L 115.125374 207.52284 L 116.093636 210.42763 L 116.093636 213.3324 L 117.06189 215.26892 L 117.06189 216.23718 L 118.03015 218.17369 L 118.03015 219.14195" scribmaster:penstyle="draw" style="stroke:#000000;stroke-width:5.0;stroke-linejoin:round;stroke-linecap:round;stroke-opacity:1.0;fill:none"/>
      </g>
    </g>
  </g>
</svg>
