<?xml version='1.0' encoding='ASCII' standalone='yes'?>
<svg width = "6in" height = "4in" xmlns="http://www.w3.org/2000/svg" xmlns:xlink="http://www.w3.org/1999/xlink" version="1.1">
  <g transform="translate(-0.1163554293259576, 0) scale(1 1) translate(0.1163554293259576, 0) scale(1 1) translate(0.34906978865732075, 0) scale(1 1) translate(0.5817946504483253, 0) scale(1 1) translate(0.814537017743164, 0) scale(1 1) translate(1.0473038956930552, 0) scale(1 1) translate(0, 0) scale(0.1 0.1)  skewX(-1.000000) skewX(-0.777778) skewX(-0.555556) skewX(-0.333333) skewX(-0.111111) skewX(0.111111)">
    <sodipodi:namedview xmlns:sodipodi="http://sodipodi.sourceforge.net/DTD/sodipodi-0.dtd" id="ScribMaster"/>
    <filter id="blur">
      <feGaussianBlur stdDeviation="5.0"/>
    </filter>
    <defs/>
    <g xmlns:inkscape="http://www.inkscape.org/namespaces/inkscape" xmlns:scribmaster="http://scribmaster.com/scribmaster" id="1627851335281" transform="matrix(1.032782,0,0,1.032782,-14.899414,-13.325867)" style="opacity:1.0">
      <g id="1627851273342" inkscape:groupmode="layer" transform="matrix(1,0,0,1,0,0)" style="opacity:1.0">
        <path transform="matrix(1,0,0,1,0,0)" d="M 793.0 698.0 L 793.0 698.01" scribmaster:penstyle="draw" style="stroke:#000000;stroke-width:5.0;stroke-linejoin:round;stroke-linecap:round;stroke-opacity:1.0;fill:none"/>
        <path transform="matrix(1,0,0,1,0,0)" d="M 62.839417 71.96665 L 60.902893 73.903175 L 61.871155 76.807945 L 61.871155 81.64925 L 62.839417 90.36357 L 63.80767 102.95093 L 63.80767 116.50655 L 65.74419 129.0939 L 66.71245 142.64952 L 66.71245 155.2369 L 67.6807 165.88773 L 67.6807 175.57031 L 67.6807 183.31639 L 66.71245 190.0942 L 66.71245 195.90375 L 65.74419 201.7133 L 65.74419 205.58633 L 64.77593 209.45937 L 64.77593 212.36414 L 64.77593 214.30066 L 63.80767 215.26892 L 63.80767 217.20543 L 63.80767 215.26892 L 63.80767 213.3324 L 64.77593 209.45937 L 65.74419 205.58633 L 67.6807 202.68155 L 68.648964 198.80852 L 70.58548 195.90375 L 72.521996 193.96722 L 74.45852 192.03072 L 77.36329 190.0942 L 81.23632 189.12593 L 84.1411 189.12593 L 88.01414 188.15768 L 92.85542 188.15768 L 97.69672 188.15768 L 102.53801 189.12593 L 106.41105 190.0942 L 110.28408 191.06245 L 113.18886 192.99896 L 116.093636 195.90375 L 118.03015 198.80852 L 119.96667 201.7133 L 120.93492 205.58633 L 120.93492 209.45937 L 119.96667 212.36414 L 118.03015 215.26892 L 116.093636 219.14195 L 114.15711 221.07846 L 111.25234 223.98325 L 107.3793 224.9515 L 103.50627 226.88802 L 99.63324 227.85628 L 94.79195 228.82454 L 90.91891 228.82454 L 87.045876 228.82454 L 82.20458 227.85628 L 79.299805 226.88802 L 76.395035 224.9515" scribmaster:penstyle="draw" style="stroke:#000000;stroke-width:5.0;stroke-linejoin:round;stroke-linecap:round;stroke-opacity:1.0;fill:none"/>
      </g>
    </g>
  </g>
</svg>
