<?xml version='1.0' encoding='ASCII' standalone='yes'?>
<svg width = "6in" height = "4in" xmlns="http://www.w3.org/2000/svg" xmlns:xlink="http://www.w3.org/1999/xlink" version="1.1">
  <g transform="translate(0.34906978865732075, 0) scale(1 1) translate(0.5817946504483253, 0) scale(1 1) translate(0.814537017743164, 0) scale(1 1) translate(1.0473038956930552, 0) scale(1 1) translate(0, 0) scale(0.1 0.1)  skewX(-1.000000) skewX(-0.777778) skewX(-0.555556) skewX(-0.333333)">
    <sodipodi:namedview xmlns:sodipodi="http://sodipodi.sourceforge.net/DTD/sodipodi-0.dtd" id="ScribMaster"/>
    <filter id="blur">
      <feGaussianBlur stdDeviation="5.0"/>
    </filter>
    <defs/>
    <g xmlns:inkscape="http://www.inkscape.org/namespaces/inkscape" xmlns:scribmaster="http://scribmaster.com/scribmaster" id="1627851282183" transform="matrix(1.032782,0,0,1.032782,-14.899414,-13.325867)" style="opacity:1.0">
      <g id="1627851273342" inkscape:groupmode="layer" transform="matrix(1,0,0,1,0,0)" style="opacity:1.0">
        <path transform="matrix(1,0,0,1,0,0)" d="M 793.0 698.0 L 793.0 698.01" scribmaster:penstyle="draw" style="stroke:#000000;stroke-width:5.0;stroke-linejoin:round;stroke-linecap:round;stroke-opacity:1.0;fill:none"/>
        <path transform="matrix(1,0,0,1,0,0)" d="M 86.077614 110.697 L 84.1411 110.697 L 83.172844 110.697 L 82.20458 110.697 L 82.20458 111.66526 L 81.23632 111.66526 L 81.23632 112.633514 L 81.23632 114.57004 L 81.23632 117.47481 L 80.26807 121.34785 L 80.26807 127.157394 L 80.26807 135.87172 L 80.26807 148.45908 L 80.26807 160.07819 L 80.26807 172.66554 L 80.26807 186.22116 L 79.299805 196.87201 L 79.299805 205.58633 L 79.299805 212.36414 L 79.299805 217.20543 L 79.299805 220.11021 L 79.299805 222.04672 L 79.299805 223.98325 L 78.33155 223.98325 L 77.36329 223.01498 L 77.36329 221.07846 L 77.36329 219.14195 L 77.36329 216.23718 L 77.36329 213.3324 L 78.33155 209.45937 L 78.33155 206.5546 L 79.299805 203.64981 L 80.26807 199.77678 L 82.20458 196.87201 L 84.1411 192.99896 L 86.077614 190.0942 L 88.01414 187.18942 L 90.91891 184.28464 L 93.823685 182.34813 L 96.72846 182.34813 L 99.63324 182.34813 L 102.53801 184.28464 L 105.44279 187.18942 L 108.347565 191.06245 L 111.25234 194.93549 L 112.2206 199.77678 L 114.15711 203.64981 L 115.125374 208.4911 L 116.093636 212.36414 L 115.125374 216.23718 L 114.15711 219.14195 L 112.2206 223.01498 L 111.25234 224.9515 L 109.31582 227.85628 L 106.41105 229.7928 L 103.50627 230.76105 L 100.601494 231.72931 L 96.72846 232.69757 L 93.823685 233.66583 L 89.95065 233.66583 L 86.077614 232.69757" scribmaster:penstyle="draw" style="stroke:#000000;stroke-width:5.0;stroke-linejoin:round;stroke-linecap:round;stroke-opacity:1.0;fill:none"/>
      </g>
    </g>
  </g>
</svg>
