<?xml version='1.0' encoding='ASCII' standalone='yes'?>
<svg width = "6in" height = "4in" xmlns="http://www.w3.org/2000/svg" xmlns:xlink="http://www.w3.org/1999/xlink" version="1.1">
  <g transform="translate(-0.581794650448325, 0) scale(1 1) translate(-0.34906978865732063, 0) scale(1 1) translate(-0.1163554293259576, 0) scale(1 1) translate(0.1163554293259576, 0) scale(1 1) translate(0.34906978865732075, 0) scale(1 1) translate(0.5817946504483253, 0) scale(1 1) translate(0.814537017743164, 0) scale(1 1) translate(1.0473038956930552, 0) scale(1 1) translate(0, 0) scale(0.1 0.1)  skewX(-1.000000) skewX(-0.777778) skewX(-0.555556) skewX(-0.333333) skewX(-0.111111) skewX(0.111111) skewX(0.333333) skewX(0.555556)">
    <sodipodi:namedview xmlns:sodipodi="http://sodipodi.sourceforge.net/DTD/sodipodi-0.dtd" id="ScribMaster"/>
    <filter id="blur">
      <feGaussianBlur stdDeviation="5.0"/>
    </filter>
    <defs/>
    <g xmlns:inkscape="http://www.inkscape.org/namespaces/inkscape" xmlns:scribmaster="http://scribmaster.com/scribmaster" id="1627851312757" transform="matrix(1.032782,0,0,1.032782,-14.899414,-13.325867)" style="opacity:1.0">
      <g id="1627851273342" inkscape:groupmode="layer" transform="matrix(1,0,0,1,0,0)" style="opacity:1.0">
        <path transform="matrix(1,0,0,1,0,0)" d="M 793.0 698.0 L 793.0 698.01" scribmaster:penstyle="draw" style="stroke:#000000;stroke-width:5.0;stroke-linejoin:round;stroke-linecap:round;stroke-opacity:1.0;fill:none"/>
        <path transform="matrix(1,0,0,1,0,0)" d="M 64.77593 77.77621 L 63.80767 74.87143 L 63.80767 73.903175 L 63.80767 72.93491 L 63.80767 75.83969 L 63.80767 80.680984 L 63.80767 91.331825 L 63.80767 102.95093 L 63.80767 116.50655 L 64.77593 131.03043 L 64.77593 143.61778 L 64.77593 154.26863 L 65.74419 163.95122 L 65.74419 173.6338 L 64.77593 181.37987 L 64.77593 190.0942 L 63.80767 196.87201 L 63.80767 202.68155 L 63.80767 207.52284 L 63.80767 209.45937 L 63.80767 210.42763 L 63.80767 211.39589 L 63.80767 210.42763 L 64.77593 208.4911 L 64.77593 206.5546 L 65.74419 204.61807 L 66.71245 200.74504 L 67.6807 197.84026 L 68.648964 193.96722 L 70.58548 191.06245 L 72.521996 188.15768 L 75.42677 185.2529 L 77.36329 182.34813 L 81.23632 180.4116 L 84.1411 177.50684 L 88.01414 176.53857 L 92.85542 175.57031 L 97.69672 174.60205 L 102.53801 174.60205 L 107.3793 175.57031 L 112.2206 177.50684 L 116.093636 180.4116 L 119.96667 183.31639 L 123.8397 188.15768 L 126.74448 193.96722 L 129.64926 199.77678 L 130.61751 204.61807 L 131.58577 209.45937 L 131.58577 214.30066 L 130.61751 219.14195 L 128.681 223.01498 L 126.74448 224.9515 L 123.8397 225.91975 L 119.96667 226.88802 L 116.093636 227.85628 L 111.25234 226.88802 L 106.41105 225.91975 L 101.569756 224.9515 L 96.72846 223.01498 L 91.88717 221.07846 L 88.01414 219.14195 L 84.1411 215.26892 L 81.23632 212.36414 L 78.33155 209.45937 L 77.36329 204.61807 L 76.395035 200.74504" scribmaster:penstyle="draw" style="stroke:#000000;stroke-width:5.0;stroke-linejoin:round;stroke-linecap:round;stroke-opacity:1.0;fill:none"/>
      </g>
    </g>
  </g>
</svg>
