<?xml version='1.0' encoding='ASCII' standalone='yes'?>
<svg width = "6in" height = "4in" xmlns="http://www.w3.org/2000/svg" xmlns:xlink="http://www.w3.org/1999/xlink" version="1.1">
  <g transform="translate(-0.8145370177431639, 0) scale(1 1) translate(-0.581794650448325, 0) scale(1 1) translate(-0.34906978865732063, 0) scale(1 1) translate(-0.1163554293259576, 0) scale(1 1) translate(0.1163554293259576, 0) scale(1 1) translate(0.34906978865732075, 0) scale(1 1) translate(0.5817946504483253, 0) scale(1 1) translate(0.814537017743164, 0) scale(1 1) translate(1.0473038956930552, 0) scale(1 1) translate(0, 0) scale(0.1 0.1)  skewX(-1.000000) skewX(-0.777778) skewX(-0.555556) skewX(-0.333333) skewX(-0.111111) skewX(0.111111) skewX(0.333333) skewX(0.555556) skewX(0.777778)">
    <sodipodi:namedview xmlns:sodipodi="http://sodipodi.sourceforge.net/DTD/sodipodi-0.dtd" id="ScribMaster"/>
    <filter id="blur">
      <feGaussianBlur stdDeviation="5.0"/>
    </filter>
    <defs/>
    <g xmlns:inkscape="http://www.inkscape.org/namespaces/inkscape" xmlns:scribmaster="http://scribmaster.com/scribmaster" id="1625350340898" transform="matrix(1,0,0,1,-1.316833,-1.489594)" style="opacity:1.0">
      <g id="1625348338071" inkscape:groupmode="layer" transform="matrix(1,0,0,1,0,0)" style="opacity:1.0">
        <path transform="matrix(1,0,0,1,0,0)" d="M 46.316833 40.489594 L 46.316833 42.489594 L 46.316833 45.489594 L 46.316833 50.489594 L 46.316833 58.489594 L 45.316833 69.48959 L 45.316833 87.48959 L 44.316833 104.48959 L 43.316833 121.48959 L 42.316833 137.4896 L 42.316833 153.4896 L 41.316833 167.4896 L 40.316833 180.4896 L 37.316833 194.4896 L 36.316833 205.4896 L 33.316833 214.4896 L 31.316833 221.4896 L 28.316833 227.4896 L 27.316833 231.4896 L 26.316833 234.4896" scribmaster:penstyle="draw" style="stroke:#000000;stroke-width:5.0;stroke-linejoin:round;stroke-linecap:round;stroke-opacity:1.0;fill:none"/>
        <path transform="matrix(1,0,0,1,0,0)" d="M 52.316833 39.489594 L 52.316833 41.489594 L 54.316833 44.489594 L 56.316833 49.489594 L 57.316833 55.489594 L 60.316833 64.48959 L 63.316833 78.48959 L 67.31683 94.48959 L 71.31683 110.48959 L 75.31683 124.48959 L 80.31683 138.4896 L 84.31683 150.4896 L 87.31683 161.4896 L 91.31683 170.4896 L 95.31683 178.4896 L 99.31683 185.4896 L 102.31683 193.4896 L 105.31683 199.4896 L 107.31683 205.4896 L 109.31683 210.4896 L 111.31683 214.4896 L 112.31683 216.4896 L 113.31683 219.4896 L 113.31683 220.4896 L 114.31683 221.4896 L 114.31683 222.4896 L 114.31683 223.4896 L 115.31683 224.4896 L 115.31683 225.4896 L 115.31683 226.4896 L 115.31683 227.4896 L 115.31683 228.4896 L 115.31683 229.4896" scribmaster:penstyle="draw" style="stroke:#000000;stroke-width:5.0;stroke-linejoin:round;stroke-linecap:round;stroke-opacity:1.0;fill:none"/>
        <path transform="matrix(1,0,0,1,0,0)" d="M 139.31683 34.489594 L 139.31683 35.489594 L 139.31683 36.489594 L 139.31683 38.489594 L 139.31683 41.489594 L 138.31683 44.489594 L 137.31683 52.489594 L 136.31683 61.489594 L 135.31683 73.48959 L 133.31683 88.48959 L 131.31683 104.48959 L 129.31683 121.48959 L 127.31683 136.4896 L 126.31683 149.4896 L 124.31683 163.4896 L 123.31683 174.4896 L 122.31683 186.4896 L 121.31683 197.4896 L 120.31683 206.4896 L 119.31683 213.4896 L 119.31683 219.4896 L 118.31683 223.4896 L 118.31683 225.4896 L 119.31683 226.4896 L 120.31683 227.4896" scribmaster:penstyle="draw" style="stroke:#000000;stroke-width:5.0;stroke-linejoin:round;stroke-linecap:round;stroke-opacity:1.0;fill:none"/>
      </g>
    </g>
  </g>
</svg>
