<?xml version='1.0' encoding='ASCII' standalone='yes'?>
<svg width = "6in" height = "4in" xmlns="http://www.w3.org/2000/svg" xmlns:xlink="http://www.w3.org/1999/xlink" version="1.1">
  <g transform="translate(-0.1163554293259576, 0) scale(1 1) translate(0.1163554293259576, 0) scale(1 1) translate(0.34906978865732075, 0) scale(1 1) translate(0.5817946504483253, 0) scale(1 1) translate(0.814537017743164, 0) scale(1 1) translate(1.0473038956930552, 0) scale(1 1) translate(0, 0) scale(0.1 0.1)  skewX(-1.000000) skewX(-0.777778) skewX(-0.555556) skewX(-0.333333) skewX(-0.111111) skewX(0.111111)">
    <sodipodi:namedview xmlns:sodipodi="http://sodipodi.sourceforge.net/DTD/sodipodi-0.dtd" id="ScribMaster"/>
    <filter id="blur">
      <feGaussianBlur stdDeviation="5.0"/>
    </filter>
    <defs/>
    <g xmlns:inkscape="http://www.inkscape.org/namespaces/inkscape" xmlns:scribmaster="http://scribmaster.com/scribmaster" id="1625350321023" transform="matrix(1,0,0,1,-1.316833,-1.489594)" style="opacity:1.0">
      <g id="1625348338071" inkscape:groupmode="layer" transform="matrix(1,0,0,1,0,0)" style="opacity:1.0">
        <path transform="matrix(1,0,0,1,0,0)" d="M 48.316833 34.489594 L 48.316833 36.489594 L 48.316833 39.489594 L 48.316833 44.489594 L 48.316833 54.489594 L 47.316833 66.48959 L 47.316833 81.48959 L 46.316833 96.48959 L 46.316833 109.48959 L 45.316833 121.48959 L 45.316833 131.4896 L 44.316833 143.4896 L 43.316833 154.4896 L 42.316833 164.4896 L 42.316833 173.4896 L 41.316833 181.4896 L 41.316833 190.4896 L 40.316833 197.4896 L 40.316833 203.4896 L 40.316833 206.4896 L 40.316833 209.4896 L 40.316833 210.4896 L 40.316833 211.4896 L 40.316833 212.4896 L 40.316833 213.4896 L 40.316833 214.4896 L 40.316833 215.4896 L 40.316833 216.4896 L 41.316833 216.4896 L 41.316833 217.4896" scribmaster:penstyle="draw" style="stroke:#000000;stroke-width:5.0;stroke-linejoin:round;stroke-linecap:round;stroke-opacity:1.0;fill:none"/>
        <path transform="matrix(1,0,0,1,0,0)" d="M 53.316833 46.489594 L 54.316833 48.489594 L 56.316833 51.489594 L 58.316833 57.489594 L 61.316833 66.48959 L 65.31683 83.48959 L 70.31683 102.48959 L 73.31683 119.48959 L 77.31683 139.4896 L 81.31683 158.4896 L 83.31683 173.4896 L 86.31683 184.4896 L 89.31683 194.4896 L 92.31683 202.4896 L 95.31683 207.4896 L 98.31683 209.4896 L 101.31683 209.4896 L 103.31683 207.4896 L 106.31683 203.4896 L 108.31683 197.4896 L 110.31683 191.4896 L 113.31683 180.4896 L 116.31683 162.4896 L 121.31683 134.4896 L 125.31683 111.48959 L 127.31683 94.48959 L 129.31683 80.48959 L 129.31683 70.48959 L 129.31683 64.48959 L 128.31683 61.489594 L 127.31683 59.489594 L 126.31683 58.489594 L 126.31683 57.489594 L 126.31683 56.489594 L 126.31683 55.489594" scribmaster:penstyle="draw" style="stroke:#000000;stroke-width:5.0;stroke-linejoin:round;stroke-linecap:round;stroke-opacity:1.0;fill:none"/>
      </g>
    </g>
  </g>
</svg>
