<?xml version='1.0' encoding='ASCII' standalone='yes'?>
<svg width = "6in" height = "4in" xmlns="http://www.w3.org/2000/svg" xmlns:xlink="http://www.w3.org/1999/xlink" version="1.1">
  <g transform="translate(-0.34906978865732063, 0) scale(1 1) translate(-0.1163554293259576, 0) scale(1 1) translate(0.1163554293259576, 0) scale(1 1) translate(0.34906978865732075, 0) scale(1 1) translate(0.5817946504483253, 0) scale(1 1) translate(0.814537017743164, 0) scale(1 1) translate(1.0473038956930552, 0) scale(1 1) translate(0, 0) scale(0.1 0.1)  skewX(-1.000000) skewX(-0.777778) skewX(-0.555556) skewX(-0.333333) skewX(-0.111111) skewX(0.111111) skewX(0.333333)">
    <sodipodi:namedview xmlns:sodipodi="http://sodipodi.sourceforge.net/DTD/sodipodi-0.dtd" id="ScribMaster"/>
    <filter id="blur">
      <feGaussianBlur stdDeviation="5.0"/>
    </filter>
    <defs/>
    <g xmlns:inkscape="http://www.inkscape.org/namespaces/inkscape" xmlns:scribmaster="http://scribmaster.com/scribmaster" id="1627851676648" transform="matrix(1.032782,0,0,1.032782,-14.899414,-13.325867)" style="opacity:1.0">
      <g id="1627851273342" inkscape:groupmode="layer" transform="matrix(1,0,0,1,0,0)" style="opacity:1.0">
        <path transform="matrix(1,0,0,1,0,0)" d="M 793.0 698.0 L 793.0 698.01" scribmaster:penstyle="draw" style="stroke:#000000;stroke-width:5.0;stroke-linejoin:round;stroke-linecap:round;stroke-opacity:1.0;fill:none"/>
        <path transform="matrix(1,0,0,1,0,0)" d="M 84.1411 182.34813 L 86.077614 182.34813 L 87.045876 183.31639 L 88.01414 183.31639 L 89.95065 183.31639 L 92.85542 183.31639 L 95.7602 183.31639 L 98.66498 182.34813 L 102.53801 182.34813 L 105.44279 181.37987 L 109.31582 180.4116 L 112.2206 179.44334 L 116.093636 178.4751 L 119.96667 176.53857 L 122.871445 174.60205 L 125.776215 172.66554 L 129.64926 170.72902 L 132.55403 167.82425 L 135.4588 164.91946 L 138.36359 162.0147 L 140.3001 159.10992 L 141.26836 156.20514 L 142.23662 153.30037 L 143.20486 150.3956 L 143.20486 147.49081 L 142.23662 144.58604 L 140.3001 142.64952 L 138.36359 139.74475 L 135.4588 137.80824 L 131.58577 136.83998 L 125.776215 135.87172 L 118.998405 135.87172 L 111.25234 136.83998 L 104.474525 139.74475 L 97.69672 143.61778 L 89.95065 149.42734 L 82.20458 159.10992 L 77.36329 169.76076 L 73.49026 180.4116 L 72.521996 191.06245 L 75.42677 199.77678 L 79.299805 208.4911 L 86.077614 214.30066 L 94.79195 219.14195 L 103.50627 222.04672 L 113.18886 223.01498 L 123.8397 223.01498 L 133.5223 221.07846 L 143.20486 220.11021 L 152.88745 217.20543 L 161.60179 215.26892 L 169.34785 214.30066" scribmaster:penstyle="draw" style="stroke:#000000;stroke-width:5.0;stroke-linejoin:round;stroke-linecap:round;stroke-opacity:1.0;fill:none"/>
      </g>
    </g>
  </g>
</svg>
