<?xml version='1.0' encoding='ASCII' standalone='yes'?>
<svg width = "6in" height = "4in" xmlns="http://www.w3.org/2000/svg" xmlns:xlink="http://www.w3.org/1999/xlink" version="1.1">
  <g transform="translate(1.0473038956930552, 0) scale(1 1) translate(0, 0) scale(0.1 0.1)  skewX(-1.000000)">
    <sodipodi:namedview xmlns:sodipodi="http://sodipodi.sourceforge.net/DTD/sodipodi-0.dtd" id="ScribMaster"/>
    <filter id="blur">
      <feGaussianBlur stdDeviation="5.0"/>
    </filter>
    <defs/>
    <g xmlns:inkscape="http://www.inkscape.org/namespaces/inkscape" xmlns:scribmaster="http://scribmaster.com/scribmaster" id="1627851769430" transform="matrix(1.032782,0,0,1.032782,-14.899414,-13.325867)" style="opacity:1.0">
      <g id="1627851273342" inkscape:groupmode="layer" transform="matrix(1,0,0,1,0,0)" style="opacity:1.0">
        <path transform="matrix(1,0,0,1,0,0)" d="M 793.0 698.0 L 793.0 698.01" scribmaster:penstyle="draw" style="stroke:#000000;stroke-width:5.0;stroke-linejoin:round;stroke-linecap:round;stroke-opacity:1.0;fill:none"/>
        <path transform="matrix(1,0,0,1,0,0)" d="M 97.69672 179.44334 L 99.63324 178.4751 L 101.569756 178.4751 L 103.50627 178.4751 L 107.3793 178.4751 L 111.25234 178.4751 L 116.093636 177.50684 L 120.93492 177.50684 L 125.776215 176.53857 L 130.61751 175.57031 L 135.4588 174.60205 L 139.33185 172.66554 L 144.17313 169.76076 L 147.07791 167.82425 L 149.98268 164.91946 L 152.88745 162.0147 L 154.82397 160.07819 L 155.79224 157.1734 L 155.79224 155.2369 L 155.79224 153.30037 L 154.82397 150.3956 L 153.85571 148.45908 L 150.95094 146.52255 L 147.07791 143.61778 L 142.23662 142.64952 L 136.42706 141.68126 L 128.681 142.64952 L 119.96667 145.5543 L 112.2206 149.42734 L 101.569756 156.20514 L 92.85542 166.85599 L 87.045876 178.4751 L 84.1411 190.0942 L 84.1411 200.74504 L 88.01414 209.45937 L 93.823685 217.20543 L 102.53801 222.04672 L 112.2206 225.91975 L 123.8397 226.88802 L 136.42706 226.88802 L 147.07791 224.9515 L 156.7605 223.98325 L 166.44307 222.04672 L 176.12566 220.11021 L 182.90347 219.14195" scribmaster:penstyle="draw" style="stroke:#000000;stroke-width:5.0;stroke-linejoin:round;stroke-linecap:round;stroke-opacity:1.0;fill:none"/>
      </g>
    </g>
  </g>
</svg>
