<?xml version='1.0' encoding='ASCII' standalone='yes'?>
<svg width = "6in" height = "4in" xmlns="http://www.w3.org/2000/svg" xmlns:xlink="http://www.w3.org/1999/xlink" version="1.1">
  <g transform="translate(-1.0473038956930552, 0) scale(1 1) translate(-0.8145370177431639, 0) scale(1 1) translate(-0.581794650448325, 0) scale(1 1) translate(-0.34906978865732063, 0) scale(1 1) translate(-0.1163554293259576, 0) scale(1 1) translate(0.1163554293259576, 0) scale(1 1) translate(0.34906978865732075, 0) scale(1 1) translate(0.5817946504483253, 0) scale(1 1) translate(0.814537017743164, 0) scale(1 1) translate(1.0473038956930552, 0) scale(1 1) translate(0, 0) scale(0.1 0.1)  skewX(-1.000000) skewX(-0.777778) skewX(-0.555556) skewX(-0.333333) skewX(-0.111111) skewX(0.111111) skewX(0.333333) skewX(0.555556) skewX(0.777778) skewX(1.000000)">
    <sodipodi:namedview xmlns:sodipodi="http://sodipodi.sourceforge.net/DTD/sodipodi-0.dtd" id="ScribMaster"/>
    <filter id="blur">
      <feGaussianBlur stdDeviation="5.0"/>
    </filter>
    <defs/>
    <g xmlns:inkscape="http://www.inkscape.org/namespaces/inkscape" xmlns:scribmaster="http://scribmaster.com/scribmaster" id="1627853953760" transform="matrix(1.041329,0,0,1.041329,-16.413086,-15.68722)" style="opacity:1.0">
      <g id="1627851273342" inkscape:groupmode="layer" transform="matrix(1,0,0,1,0,0)" style="opacity:1.0">
        <path transform="matrix(1,0,0,1,0,0)" d="M 64.73753 87.087944 L 62.81691 88.048256 L 62.81691 90.929184 L 62.81691 97.65137 L 62.81691 106.29417 L 62.81691 118.778206 L 62.81691 136.0638 L 62.81691 153.3494 L 62.81691 172.55562 L 62.81691 186.96028 L 62.81691 199.44434 L 62.81691 207.12682 L 63.77722 214.80931 L 63.77722 219.61086 L 62.81691 223.4521 L 62.81691 226.33304 L 62.81691 229.21397 L 62.81691 231.1346 L 61.8566 232.09491 L 61.8566 233.05522 L 61.8566 234.01553 L 61.8566 234.97583 L 60.89629 234.97583 L 60.89629 234.01553 L 60.89629 233.05522 L 60.89629 232.09491" scribmaster:penstyle="draw" style="stroke:#000000;stroke-width:5.0;stroke-linejoin:round;stroke-linecap:round;stroke-opacity:1.0;fill:none"/>
        <path transform="matrix(1,0,0,1,0,0)" d="M 76.26126 91.889496 L 74.340645 91.889496 L 76.26126 91.889496 L 78.181885 91.889496 L 81.06282 91.889496 L 83.94375 92.84981 L 88.74531 94.77043 L 93.54686 97.65137 L 99.30872 101.49261 L 106.03091 107.25448 L 113.713394 114.936966 L 121.39588 123.579765 L 129.07837 132.22256 L 133.87993 140.86536 L 138.68149 149.50815 L 142.52274 157.19064 L 144.44336 165.83344 L 145.40367 173.51593 L 145.40367 180.23811 L 144.44336 186.96028 L 141.56242 194.64278 L 137.72118 200.40463 L 133.87993 206.1665 L 129.07837 210.00775 L 123.316505 214.80931 L 117.554634 217.69023 L 110.83246 220.57117 L 104.11028 224.41241 L 97.38811 226.33304 L 91.626236 229.21397 L 83.94375 232.09491 L 78.181885 234.01553 L 73.38033 235.93614 L 69.539085 237.85677 L 67.61846 238.81708 L 65.697845 238.81708" scribmaster:penstyle="draw" style="stroke:#000000;stroke-width:5.0;stroke-linejoin:round;stroke-linecap:round;stroke-opacity:1.0;fill:none"/>
      </g>
    </g>
  </g>
</svg>
