<?xml version='1.0' encoding='ASCII' standalone='yes'?>
<svg width = "6in" height = "4in" xmlns="http://www.w3.org/2000/svg" xmlns:xlink="http://www.w3.org/1999/xlink" version="1.1">
  <g transform="translate(0.814537017743164, 0) scale(1 1) translate(1.0473038956930552, 0) scale(1 1) translate(0, 0) scale(0.1 0.1)  skewX(-1.000000) skewX(-0.777778)">
    <sodipodi:namedview xmlns:sodipodi="http://sodipodi.sourceforge.net/DTD/sodipodi-0.dtd" id="ScribMaster"/>
    <filter id="blur">
      <feGaussianBlur stdDeviation="5.0"/>
    </filter>
    <defs/>
    <g xmlns:inkscape="http://www.inkscape.org/namespaces/inkscape" xmlns:scribmaster="http://scribmaster.com/scribmaster" id="1627853999538" transform="matrix(1.041329,0,0,1.041329,-16.413086,-15.68722)" style="opacity:1.0">
      <g id="1627851273342" inkscape:groupmode="layer" transform="matrix(1,0,0,1,0,0)" style="opacity:1.0">
        <path transform="matrix(1,0,0,1,0,0)" d="M 82.023125 76.52452 L 79.1422 76.52452 L 78.181885 76.52452 L 78.181885 79.40546 L 78.181885 80.36577 L 78.181885 84.20701 L 78.181885 88.048256 L 78.181885 94.77043 L 79.1422 102.45292 L 79.1422 111.09572 L 79.1422 121.65914 L 80.10251 132.22256 L 80.10251 143.74629 L 81.06282 153.3494 L 81.06282 161.9922 L 82.023125 170.635 L 82.023125 178.31749 L 82.023125 185.99997 L 82.023125 192.72215 L 82.023125 198.48402 L 82.023125 204.24588 L 82.023125 208.08713 L 82.023125 210.96806 L 82.023125 213.849 L 82.023125 215.76962 L 82.023125 216.72993 L 82.023125 218.65054 L 81.06282 220.57117 L 81.06282 221.53148 L 81.06282 222.49179 L 81.06282 224.41241 L 82.023125 223.4521 L 82.023125 222.49179" scribmaster:penstyle="draw" style="stroke:#000000;stroke-width:5.0;stroke-linejoin:round;stroke-linecap:round;stroke-opacity:1.0;fill:none"/>
        <path transform="matrix(1,0,0,1,0,0)" d="M 82.98344 83.2467 L 82.023125 81.32607 L 81.06282 81.32607 L 81.06282 80.36577 L 80.10251 80.36577 L 80.10251 79.40546 L 79.1422 79.40546 L 80.10251 78.445145 L 81.06282 77.48483 L 82.023125 77.48483 L 82.98344 76.52452 L 84.90406 76.52452 L 87.784996 76.52452 L 90.665924 76.52452 L 93.54686 77.48483 L 97.38811 78.445145 L 100.269035 79.40546 L 102.18966 81.32607 L 106.03091 83.2467 L 108.911835 85.16732 L 112.75308 89.00857 L 116.59433 92.84981 L 119.47526 96.691055 L 123.316505 100.532295 L 126.19743 105.333855 L 130.03868 111.09572 L 132.91962 116.85758 L 134.84024 122.61945 L 136.76086 128.38132 L 138.68149 134.14317 L 139.6418 139.90504 L 139.6418 145.66692 L 139.6418 151.42877 L 139.6418 157.19064 L 137.72118 162.95251 L 136.76086 168.71437 L 134.84024 173.51593 L 131.9593 178.31749 L 130.03868 184.07935 L 126.19743 188.8809 L 122.35619 193.68246 L 118.514946 197.52371 L 114.673706 202.32526 L 110.83246 206.1665 L 106.99122 209.04744 L 102.18966 211.92838 L 99.30872 214.80931 L 95.46748 216.72993 L 93.54686 217.69023 L 91.626236 218.65054 L 90.665924 219.61086 L 88.74531 219.61086" scribmaster:penstyle="draw" style="stroke:#000000;stroke-width:5.0;stroke-linejoin:round;stroke-linecap:round;stroke-opacity:1.0;fill:none"/>
      </g>
    </g>
  </g>
</svg>
