<?xml version='1.0' encoding='ASCII' standalone='yes'?>
<svg width = "6in" height = "4in" xmlns="http://www.w3.org/2000/svg" xmlns:xlink="http://www.w3.org/1999/xlink" version="1.1">
  <g transform="translate(-1.0473038956930552, 0) scale(1 1) translate(-0.8145370177431639, 0) scale(1 1) translate(-0.581794650448325, 0) scale(1 1) translate(-0.34906978865732063, 0) scale(1 1) translate(-0.1163554293259576, 0) scale(1 1) translate(0.1163554293259576, 0) scale(1 1) translate(0.34906978865732075, 0) scale(1 1) translate(0.5817946504483253, 0) scale(1 1) translate(0.814537017743164, 0) scale(1 1) translate(1.0473038956930552, 0) scale(1 1) translate(0, 0) scale(0.1 0.1)  skewX(-1.000000) skewX(-0.777778) skewX(-0.555556) skewX(-0.333333) skewX(-0.111111) skewX(0.111111) skewX(0.333333) skewX(0.555556) skewX(0.777778) skewX(1.000000)">
    <sodipodi:namedview xmlns:sodipodi="http://sodipodi.sourceforge.net/DTD/sodipodi-0.dtd" id="ScribMaster"/>
    <filter id="blur">
      <feGaussianBlur stdDeviation="5.0"/>
    </filter>
    <defs/>
    <g xmlns:inkscape="http://www.inkscape.org/namespaces/inkscape" xmlns:scribmaster="http://scribmaster.com/scribmaster" id="1625352046376" transform="matrix(1,0,0,1,-1.316833,-1.489594)" style="opacity:1.0">
      <g id="1625348338071" inkscape:groupmode="layer" transform="matrix(1,0,0,1,0,0)" style="opacity:1.0">
        <path transform="matrix(1,0,0,1,0,0)" d="M 91.31683 37.489594 L 89.31683 36.489594 L 88.31683 37.489594 L 85.31683 39.489594 L 83.31683 41.489594 L 79.31683 44.489594 L 74.31683 50.489594 L 69.31683 58.489594 L 63.316833 68.48959 L 57.316833 79.48959 L 51.316833 96.48959 L 46.316833 112.48959 L 44.316833 127.48959 L 42.316833 144.4896 L 42.316833 159.4896 L 43.316833 172.4896 L 45.316833 184.4896 L 47.316833 195.4896 L 50.316833 205.4896 L 56.316833 213.4896 L 62.316833 220.4896 L 68.31683 225.4896 L 74.31683 229.4896 L 80.31683 231.4896 L 85.31683 232.4896 L 89.31683 233.4896 L 95.31683 232.4896 L 99.31683 232.4896 L 103.31683 230.4896 L 107.31683 229.4896 L 113.31683 225.4896 L 120.31683 219.4896 L 127.31683 210.4896 L 135.31683 196.4896 L 144.31683 178.4896 L 152.31683 156.4896 L 158.31683 138.4896 L 161.31683 119.48959 L 162.31683 103.48959 L 161.31683 90.48959 L 158.31683 78.48959 L 153.31683 68.48959 L 147.31683 59.489594 L 139.31683 53.489594 L 130.31683 48.489594 L 120.31683 44.489594 L 113.31683 42.489594 L 109.31683 40.489594" scribmaster:penstyle="draw" style="stroke:#000000;stroke-width:5.0;stroke-linejoin:round;stroke-linecap:round;stroke-opacity:1.0;fill:none"/>
      </g>
    </g>
  </g>
</svg>
