<?xml version='1.0' encoding='ASCII' standalone='yes'?>
<svg width = "6in" height = "4in" xmlns="http://www.w3.org/2000/svg" xmlns:xlink="http://www.w3.org/1999/xlink" version="1.1">
  <g transform="translate(-0.1163554293259576, 0) scale(1 1) translate(0.1163554293259576, 0) scale(1 1) translate(0.34906978865732075, 0) scale(1 1) translate(0.5817946504483253, 0) scale(1 1) translate(0.814537017743164, 0) scale(1 1) translate(1.0473038956930552, 0) scale(1 1) translate(0, 0) scale(0.1 0.1)  skewX(-1.000000) skewX(-0.777778) skewX(-0.555556) skewX(-0.333333) skewX(-0.111111) skewX(0.111111)">
    <sodipodi:namedview xmlns:sodipodi="http://sodipodi.sourceforge.net/DTD/sodipodi-0.dtd" id="ScribMaster"/>
    <filter id="blur">
      <feGaussianBlur stdDeviation="5.0"/>
    </filter>
    <defs/>
    <g xmlns:inkscape="http://www.inkscape.org/namespaces/inkscape" xmlns:scribmaster="http://scribmaster.com/scribmaster" id="1625352026075" transform="matrix(1,0,0,1,-1.316833,-1.489594)" style="opacity:1.0">
      <g id="1625348338071" inkscape:groupmode="layer" transform="matrix(1,0,0,1,0,0)" style="opacity:1.0">
        <path transform="matrix(1,0,0,1,0,0)" d="M 86.31683 63.489594 L 85.31683 61.489594 L 84.31683 61.489594 L 83.31683 61.489594 L 82.31683 61.489594 L 81.31683 63.489594 L 78.31683 64.48959 L 76.31683 67.48959 L 72.31683 70.48959 L 68.31683 76.48959 L 63.316833 84.48959 L 58.316833 95.48959 L 53.316833 108.48959 L 49.316833 120.48959 L 46.316833 136.4896 L 44.316833 150.4896 L 44.316833 164.4896 L 43.316833 176.4896 L 44.316833 189.4896 L 45.316833 199.4896 L 47.316833 207.4896 L 52.316833 214.4896 L 58.316833 219.4896 L 66.31683 221.4896 L 72.31683 223.4896 L 78.31683 223.4896 L 84.31683 222.4896 L 89.31683 221.4896 L 95.31683 218.4896 L 101.31683 214.4896 L 108.31683 205.4896 L 116.31683 194.4896 L 124.31683 181.4896 L 131.31683 165.4896 L 137.31683 150.4896 L 141.31683 137.4896 L 143.31683 123.48959 L 144.31683 111.48959 L 143.31683 99.48959 L 141.31683 89.48959 L 138.31683 78.48959 L 134.31683 69.48959 L 128.31683 62.489594 L 122.31683 57.489594 L 116.31683 54.489594 L 109.31683 54.489594 L 102.31683 54.489594 L 97.31683 56.489594 L 93.31683 58.489594" scribmaster:penstyle="draw" style="stroke:#000000;stroke-width:5.0;stroke-linejoin:round;stroke-linecap:round;stroke-opacity:1.0;fill:none"/>
      </g>
    </g>
  </g>
</svg>
