<?xml version='1.0' encoding='UTF-8' standalone='no' ?><svg xmlns="http://www.w3.org/2000/svg" xmlns:scribmaster="http://scribmaster.com/scribmaster" xmlns:sodipodi="http://sodipodi.sourceforge.net/DTD/sodipodi-0.dtd" xmlns:inkscape="http://www.inkscape.org/namespaces/inkscape" xmlns:xlink="http://www.w3.org/1999/xlink" version="1.2" width="800" height="1014"><sodipodi:namedview id="ScribMaster" /><filter id="blur"><feGaussianBlur stdDeviation="5.0" /></filter><defs /><g id="1627852288278" transform="matrix(1.032782,0,0,1.032782,-14.899414,-13.325867)" style="opacity:1.0"><g id="1627851273342" inkscape:groupmode="layer" transform="matrix(1,0,0,1,0,0)" style="opacity:1.0"><path transform="matrix(1,0,0,1,0,0)" d="M 92.85542 142.64952 L 91.88717 141.68126 L 91.88717 140.71301 L 91.88717 141.68126 L 91.88717 144.58604 L 91.88717 150.3956 L 93.823685 159.10992 L 94.79195 171.69728 L 95.7602 183.31639 L 96.72846 192.99896 L 96.72846 201.7133 L 97.69672 209.45937 L 96.72846 216.23718 L 96.72846 222.04672 L 95.7602 226.88802 L 93.823685 229.7928 L 91.88717 230.76105 L 90.91891 231.72931 L 88.01414 231.72931 L 86.077614 230.76105 L 83.172844 230.76105 L 80.26807 229.7928 L 77.36329 228.82454 L 74.45852 228.82454 L 72.521996 227.85628" scribmaster:penstyle="draw" style="stroke:#000000;stroke-width:5.0;stroke-linejoin:round;stroke-linecap:round;stroke-opacity:1.0;fill:none" /></g></g></svg>