<?xml version='1.0' encoding='ASCII' standalone='yes'?>
<svg width = "6in" height = "4in" xmlns="http://www.w3.org/2000/svg" xmlns:xlink="http://www.w3.org/1999/xlink" version="1.1">
  <g transform="translate(0.814537017743164, 0) scale(1 1) translate(1.0473038956930552, 0) scale(1 1) translate(0, 0) scale(0.1 0.1)  skewX(-1.000000) skewX(-0.777778)">
    <sodipodi:namedview xmlns:sodipodi="http://sodipodi.sourceforge.net/DTD/sodipodi-0.dtd" id="ScribMaster"/>
    <filter id="blur">
      <feGaussianBlur stdDeviation="5.0"/>
    </filter>
    <defs/>
    <g xmlns:inkscape="http://www.inkscape.org/namespaces/inkscape" xmlns:scribmaster="http://scribmaster.com/scribmaster" id="1625350123878" transform="matrix(1,0,0,1,-1.316833,-1.489594)" style="opacity:1.0">
      <g id="1625348338071" inkscape:groupmode="layer" transform="matrix(1,0,0,1,0,0)" style="opacity:1.0">
        <path transform="matrix(1,0,0,1,0,0)" d="M 36.316833 56.489594 L 37.316833 56.489594 L 40.316833 56.489594 L 43.316833 56.489594 L 50.316833 55.489594 L 62.316833 54.489594 L 77.31683 53.489594 L 90.31683 50.489594 L 101.31683 48.489594 L 114.31683 45.489594 L 125.31683 43.489594 L 136.31683 41.489594 L 145.31683 40.489594 L 153.31683 40.489594 L 160.31683 42.489594" scribmaster:penstyle="draw" style="stroke:#000000;stroke-width:5.0;stroke-linejoin:round;stroke-linecap:round;stroke-opacity:1.0;fill:none"/>
        <path transform="matrix(1,0,0,1,0,0)" d="M 103.31683 69.48959 L 101.31683 66.48959 L 102.31683 65.48959 L 103.31683 67.48959 L 104.31683 70.48959 L 105.31683 78.48959 L 106.31683 92.48959 L 107.31683 109.48959 L 108.31683 124.48959 L 107.31683 141.4896 L 106.31683 155.4896 L 105.31683 168.4896 L 102.31683 178.4896 L 100.31683 188.4896 L 96.31683 197.4896 L 92.31683 204.4896 L 88.31683 209.4896 L 84.31683 214.4896 L 81.31683 216.4896 L 77.31683 216.4896 L 74.31683 216.4896 L 70.31683 214.4896 L 65.31683 211.4896 L 56.316833 206.4896 L 43.316833 198.4896 L 34.316833 192.4896 L 27.316833 187.4896" scribmaster:penstyle="draw" style="stroke:#000000;stroke-width:5.0;stroke-linejoin:round;stroke-linecap:round;stroke-opacity:1.0;fill:none"/>
      </g>
    </g>
  </g>
</svg>
