<?xml version='1.0' encoding='ASCII' standalone='yes'?>
<svg width = "6in" height = "4in" xmlns="http://www.w3.org/2000/svg" xmlns:xlink="http://www.w3.org/1999/xlink" version="1.1">
  <g transform="translate(0.34906978865732075, 0) scale(1 1) translate(0.5817946504483253, 0) scale(1 1) translate(0.814537017743164, 0) scale(1 1) translate(1.0473038956930552, 0) scale(1 1) translate(0, 0) scale(0.1 0.1)  skewX(-1.000000) skewX(-0.777778) skewX(-0.555556) skewX(-0.333333)">
    <sodipodi:namedview xmlns:sodipodi="http://sodipodi.sourceforge.net/DTD/sodipodi-0.dtd" id="ScribMaster"/>
    <filter id="blur">
      <feGaussianBlur stdDeviation="5.0"/>
    </filter>
    <defs/>
    <g xmlns:inkscape="http://www.inkscape.org/namespaces/inkscape" xmlns:scribmaster="http://scribmaster.com/scribmaster" id="1625350113153" transform="matrix(1,0,0,1,-1.316833,-1.489594)" style="opacity:1.0">
      <g id="1625348338071" inkscape:groupmode="layer" transform="matrix(1,0,0,1,0,0)" style="opacity:1.0">
        <path transform="matrix(1,0,0,1,0,0)" d="M 30.316833 51.489594 L 31.316833 51.489594 L 32.316833 51.489594 L 33.316833 50.489594 L 34.316833 50.489594 L 36.316833 50.489594 L 39.316833 50.489594 L 43.316833 50.489594 L 50.316833 51.489594 L 59.316833 52.489594 L 72.31683 53.489594 L 84.31683 54.489594 L 97.31683 54.489594 L 109.31683 54.489594 L 120.31683 54.489594 L 130.31683 54.489594 L 138.31683 55.489594 L 146.31683 55.489594 L 152.31683 56.489594 L 156.31683 57.489594 L 158.31683 58.489594 L 159.31683 59.489594 L 158.31683 59.489594 L 158.31683 58.489594" scribmaster:penstyle="draw" style="stroke:#000000;stroke-width:5.0;stroke-linejoin:round;stroke-linecap:round;stroke-opacity:1.0;fill:none"/>
        <path transform="matrix(1,0,0,1,0,0)" d="M 93.31683 68.48959 L 94.31683 66.48959 L 95.31683 67.48959 L 96.31683 69.48959 L 97.31683 72.48959 L 99.31683 79.48959 L 100.31683 92.48959 L 101.31683 109.48959 L 100.31683 128.4896 L 98.31683 148.4896 L 95.31683 166.4896 L 91.31683 181.4896 L 87.31683 195.4896 L 81.31683 206.4896 L 76.31683 214.4896 L 70.31683 218.4896 L 61.316833 219.4896 L 54.316833 217.4896 L 49.316833 213.4896 L 42.316833 207.4896 L 37.316833 200.4896 L 32.316833 195.4896 L 27.316833 189.4896 L 24.316833 186.4896" scribmaster:penstyle="draw" style="stroke:#000000;stroke-width:5.0;stroke-linejoin:round;stroke-linecap:round;stroke-opacity:1.0;fill:none"/>
      </g>
    </g>
  </g>
</svg>
