<?xml version='1.0' encoding='ASCII' standalone='yes'?>
<svg width = "6in" height = "4in" xmlns="http://www.w3.org/2000/svg" xmlns:xlink="http://www.w3.org/1999/xlink" version="1.1">
  <g transform="translate(0.34906978865732075, 0) scale(1 1) translate(0.5817946504483253, 0) scale(1 1) translate(0.814537017743164, 0) scale(1 1) translate(1.0473038956930552, 0) scale(1 1) translate(0, 0) scale(0.1 0.1)  skewX(-1.000000) skewX(-0.777778) skewX(-0.555556) skewX(-0.333333)">
    <sodipodi:namedview xmlns:sodipodi="http://sodipodi.sourceforge.net/DTD/sodipodi-0.dtd" id="ScribMaster"/>
    <filter id="blur">
      <feGaussianBlur stdDeviation="5.0"/>
    </filter>
    <defs/>
    <g xmlns:inkscape="http://www.inkscape.org/namespaces/inkscape" xmlns:scribmaster="http://scribmaster.com/scribmaster" id="1627854296667" transform="matrix(1.041329,0,0,1.041329,-16.413086,-15.68722)" style="opacity:1.0">
      <g id="1627851273342" inkscape:groupmode="layer" transform="matrix(1,0,0,1,0,0)" style="opacity:1.0">
        <path transform="matrix(1,0,0,1,0,0)" d="M 63.77722 91.889496 L 63.77722 90.929184 L 65.697845 90.929184 L 68.57877 90.929184 L 72.42002 90.929184 L 79.1422 90.929184 L 85.86437 90.929184 L 92.58655 91.889496 L 98.34842 91.889496 L 105.070595 92.84981 L 110.83246 92.84981 L 116.59433 93.81012 L 123.316505 93.81012 L 128.11806 93.81012 L 133.87993 93.81012 L 138.68149 93.81012 L 142.52274 94.77043 L 146.36398 94.77043 L 148.28459 94.77043" scribmaster:penstyle="draw" style="stroke:#000000;stroke-width:5.0;stroke-linejoin:round;stroke-linecap:round;stroke-opacity:1.0;fill:none"/>
        <path transform="matrix(1,0,0,1,0,0)" d="M 118.514946 105.333855 L 116.59433 108.21478 L 114.673706 111.09572 L 112.75308 115.89728 L 109.87215 124.54008 L 106.03091 137.02411 L 102.18966 150.46846 L 99.30872 163.91283 L 97.38811 177.35718 L 94.50717 191.76184 L 93.54686 204.24588 L 93.54686 213.849 L 94.50717 220.57117 L 97.38811 225.37273 L 99.30872 226.33304 L 101.22935 227.29335" scribmaster:penstyle="draw" style="stroke:#000000;stroke-width:5.0;stroke-linejoin:round;stroke-linecap:round;stroke-opacity:1.0;fill:none"/>
        <path transform="matrix(1,0,0,1,0,0)" d="M 64.73753 235.93614 L 62.81691 234.01553 L 62.81691 233.05522 L 62.81691 232.09491 L 63.77722 232.09491 L 64.73753 231.1346 L 65.697845 230.17429 L 67.61846 230.17429 L 70.4994 230.17429 L 74.340645 229.21397 L 79.1422 229.21397 L 85.86437 229.21397 L 92.58655 229.21397 L 99.30872 229.21397 L 106.99122 229.21397 L 116.59433 229.21397 L 126.19743 229.21397 L 134.84024 229.21397 L 142.52274 229.21397 L 150.20522 229.21397 L 155.96709 229.21397 L 161.72896 229.21397 L 164.6099 230.17429 L 167.49081 230.17429 L 169.41144 231.1346" scribmaster:penstyle="draw" style="stroke:#000000;stroke-width:5.0;stroke-linejoin:round;stroke-linecap:round;stroke-opacity:1.0;fill:none"/>
      </g>
    </g>
  </g>
</svg>
