<?xml version='1.0' encoding='ASCII' standalone='yes'?>
<svg width = "6in" height = "4in" xmlns="http://www.w3.org/2000/svg" xmlns:xlink="http://www.w3.org/1999/xlink" version="1.1">
  <g transform="translate(-0.34906978865732063, 0) scale(1 1) translate(-0.1163554293259576, 0) scale(1 1) translate(0.1163554293259576, 0) scale(1 1) translate(0.34906978865732075, 0) scale(1 1) translate(0.5817946504483253, 0) scale(1 1) translate(0.814537017743164, 0) scale(1 1) translate(1.0473038956930552, 0) scale(1 1) translate(0, 0) scale(0.1 0.1)  skewX(-1.000000) skewX(-0.777778) skewX(-0.555556) skewX(-0.333333) skewX(-0.111111) skewX(0.111111) skewX(0.333333)">
    <sodipodi:namedview xmlns:sodipodi="http://sodipodi.sourceforge.net/DTD/sodipodi-0.dtd" id="ScribMaster"/>
    <filter id="blur">
      <feGaussianBlur stdDeviation="5.0"/>
    </filter>
    <defs/>
    <g xmlns:inkscape="http://www.inkscape.org/namespaces/inkscape" xmlns:scribmaster="http://scribmaster.com/scribmaster" id="1627854278059" transform="matrix(1.041329,0,0,1.041329,-16.413086,-15.68722)" style="opacity:1.0">
      <g id="1627851273342" inkscape:groupmode="layer" transform="matrix(1,0,0,1,0,0)" style="opacity:1.0">
        <path transform="matrix(1,0,0,1,0,0)" d="M 62.81691 88.048256 L 63.77722 88.048256 L 65.697845 89.00857 L 68.57877 89.00857 L 72.42002 89.96887 L 76.26126 89.96887 L 80.10251 89.96887 L 84.90406 90.929184 L 90.665924 90.929184 L 95.46748 90.929184 L 99.30872 91.889496 L 103.14997 91.889496 L 106.99122 91.889496 L 109.87215 91.889496 L 112.75308 91.889496 L 114.673706 91.889496 L 116.59433 91.889496 L 118.514946 91.889496 L 119.47526 91.889496 L 120.43557 91.889496 L 121.39588 91.889496 L 122.35619 91.889496 L 123.316505 90.929184 L 124.27682 90.929184 L 125.23713 90.929184 L 126.19743 90.929184 L 126.19743 91.889496" scribmaster:penstyle="draw" style="stroke:#000000;stroke-width:5.0;stroke-linejoin:round;stroke-linecap:round;stroke-opacity:1.0;fill:none"/>
        <path transform="matrix(1,0,0,1,0,0)" d="M 98.34842 97.65137 L 96.427795 98.61167 L 96.427795 102.45292 L 96.427795 105.333855 L 96.427795 111.09572 L 95.46748 120.69883 L 95.46748 133.18288 L 95.46748 147.58752 L 95.46748 164.87312 L 95.46748 185.99997 L 95.46748 200.40463 L 96.427795 210.96806 L 95.46748 219.61086 L 95.46748 225.37273 L 95.46748 229.21397 L 95.46748 231.1346 L 95.46748 233.05522 L 95.46748 234.01553 L 95.46748 234.97583 L 94.50717 234.97583 L 94.50717 234.01553 L 95.46748 234.01553 L 95.46748 233.05522" scribmaster:penstyle="draw" style="stroke:#000000;stroke-width:5.0;stroke-linejoin:round;stroke-linecap:round;stroke-opacity:1.0;fill:none"/>
        <path transform="matrix(1,0,0,1,0,0)" d="M 63.77722 232.09491 L 64.73753 230.17429 L 65.697845 230.17429 L 68.57877 230.17429 L 71.45971 230.17429 L 75.30095 230.17429 L 80.10251 230.17429 L 84.90406 229.21397 L 90.665924 229.21397 L 96.427795 229.21397 L 102.18966 228.25366 L 106.99122 228.25366 L 113.713394 227.29335 L 119.47526 227.29335 L 125.23713 226.33304 L 130.03868 226.33304 L 133.87993 225.37273 L 136.76086 225.37273 L 138.68149 225.37273 L 140.60211 225.37273" scribmaster:penstyle="draw" style="stroke:#000000;stroke-width:5.0;stroke-linejoin:round;stroke-linecap:round;stroke-opacity:1.0;fill:none"/>
      </g>
    </g>
  </g>
</svg>
