<?xml version='1.0' encoding='UTF-8' standalone='no' ?><svg xmlns="http://www.w3.org/2000/svg" xmlns:scribmaster="http://scribmaster.com/scribmaster" xmlns:sodipodi="http://sodipodi.sourceforge.net/DTD/sodipodi-0.dtd" xmlns:inkscape="http://www.inkscape.org/namespaces/inkscape" xmlns:xlink="http://www.w3.org/1999/xlink" version="1.2" width="800" height="1014"><sodipodi:namedview id="ScribMaster" /><filter id="blur"><feGaussianBlur stdDeviation="5.0" /></filter><defs /><g id="1627852864735" transform="matrix(1.032782,0,0,1.032782,-14.899414,-13.325867)" style="opacity:1.0"><g id="1627851273342" inkscape:groupmode="layer" transform="matrix(1,0,0,1,0,0)" style="opacity:1.0"><path transform="matrix(1,0,0,1,0,0)" d="M 89.95065 130.06216 L 88.01414 129.0939 L 87.045876 129.0939 L 87.045876 131.03043 L 86.077614 133.9352 L 86.077614 139.74475 L 86.077614 149.42734 L 86.077614 162.0147 L 85.10936 175.57031 L 85.10936 188.15768 L 85.10936 198.80852 L 85.10936 207.52284 L 85.10936 215.26892 L 85.10936 221.07846 L 85.10936 225.91975 L 86.077614 229.7928 L 86.077614 231.72931 L 86.077614 232.69757 L 86.077614 233.66583 L 86.077614 234.6341 L 86.077614 233.66583 L 85.10936 233.66583" scribmaster:penstyle="draw" style="stroke:#000000;stroke-width:5.0;stroke-linejoin:round;stroke-linecap:round;stroke-opacity:1.0;fill:none" /><path transform="matrix(1,0,0,1,0,0)" d="M 67.6807 157.1734 L 68.648964 157.1734 L 70.58548 158.14166 L 74.45852 158.14166 L 77.36329 159.10992 L 83.172844 160.07819 L 88.01414 160.07819 L 92.85542 161.04643 L 97.69672 161.04643 L 102.53801 162.0147" scribmaster:penstyle="draw" style="stroke:#000000;stroke-width:5.0;stroke-linejoin:round;stroke-linecap:round;stroke-opacity:1.0;fill:none" /></g></g></svg>