<?xml version='1.0' encoding='ASCII' standalone='yes'?>
<svg width = "6in" height = "4in" xmlns="http://www.w3.org/2000/svg" xmlns:xlink="http://www.w3.org/1999/xlink" version="1.1">
  <g transform="translate(-0.34906978865732063, 0) scale(1 1) translate(-0.1163554293259576, 0) scale(1 1) translate(0.1163554293259576, 0) scale(1 1) translate(0.34906978865732075, 0) scale(1 1) translate(0.5817946504483253, 0) scale(1 1) translate(0.814537017743164, 0) scale(1 1) translate(1.0473038956930552, 0) scale(1 1) translate(0, 0) scale(0.1 0.1)  skewX(-1.000000) skewX(-0.777778) skewX(-0.555556) skewX(-0.333333) skewX(-0.111111) skewX(0.111111) skewX(0.333333)">
    <sodipodi:namedview xmlns:sodipodi="http://sodipodi.sourceforge.net/DTD/sodipodi-0.dtd" id="ScribMaster"/>
    <filter id="blur">
      <feGaussianBlur stdDeviation="5.0"/>
    </filter>
    <defs/>
    <g xmlns:inkscape="http://www.inkscape.org/namespaces/inkscape" xmlns:scribmaster="http://scribmaster.com/scribmaster" id="1627854367867" transform="matrix(1.041329,0,0,1.041329,-16.413086,-15.68722)" style="opacity:1.0">
      <g id="1627851273342" inkscape:groupmode="layer" transform="matrix(1,0,0,1,0,0)" style="opacity:1.0">
        <path transform="matrix(1,0,0,1,0,0)" d="M 75.30095 77.48483 L 74.340645 78.445145 L 73.38033 79.40546 L 73.38033 80.36577 L 73.38033 82.286385 L 73.38033 84.20701 L 73.38033 88.048256 L 73.38033 91.889496 L 73.38033 98.61167 L 73.38033 109.175095 L 73.38033 121.65914 L 74.340645 137.98442 L 74.340645 155.27002 L 75.30095 170.635 L 76.26126 182.15872 L 78.181885 192.72215 L 78.181885 200.40463 L 78.181885 208.08713 L 78.181885 213.849 L 78.181885 217.69023 L 78.181885 221.53148 L 78.181885 224.41241 L 78.181885 226.33304 L 78.181885 227.29335 L 78.181885 228.25366 L 78.181885 229.21397 L 77.22157 229.21397 L 77.22157 228.25366 L 77.22157 227.29335 L 77.22157 226.33304 L 77.22157 225.37273 L 78.181885 224.41241" scribmaster:penstyle="draw" style="stroke:#000000;stroke-width:5.0;stroke-linejoin:round;stroke-linecap:round;stroke-opacity:1.0;fill:none"/>
        <path transform="matrix(1,0,0,1,0,0)" d="M 152.12584 102.45292 L 151.16553 102.45292 L 150.20522 102.45292 L 149.2449 103.41323 L 148.28459 103.41323 L 147.3243 104.37354 L 145.40367 105.333855 L 144.44336 107.25448 L 141.56242 109.175095 L 139.6418 112.05603 L 136.76086 114.936966 L 131.9593 117.817894 L 128.11806 121.65914 L 123.316505 124.54008 L 118.514946 129.34163 L 112.75308 133.18288 L 107.95153 137.02411 L 104.11028 140.86536 L 99.30872 143.74629 L 95.46748 146.62723 L 92.58655 148.54784 L 89.70562 150.46846 L 87.784996 152.38908 L 85.86437 154.30971 L 84.90406 155.27002 L 82.98344 157.19064 L 82.023125 158.15096 L 81.06282 159.11127 L 81.06282 160.07158 L 81.06282 161.03189 L 81.06282 161.9922 L 82.023125 161.9922 L 82.023125 162.95251 L 82.023125 163.91283 L 82.98344 163.91283 L 82.98344 164.87312 L 83.94375 164.87312 L 84.90406 165.83344 L 84.90406 166.79375 L 86.824684 167.75406 L 87.784996 169.67468 L 89.70562 171.5953 L 92.58655 173.51593 L 95.46748 176.39687 L 99.30872 180.23811 L 103.14997 184.07935 L 106.99122 187.9206 L 109.87215 192.72215 L 113.713394 195.60309 L 116.59433 199.44434 L 120.43557 202.32526 L 123.316505 205.20619 L 126.19743 207.12682 L 130.03868 209.04744 L 132.91962 210.96806 L 134.84024 212.88869 L 136.76086 214.80931 L 139.6418 216.72993 L 140.60211 218.65054 L 143.48303 219.61086 L 144.44336 221.53148" scribmaster:penstyle="draw" style="stroke:#000000;stroke-width:5.0;stroke-linejoin:round;stroke-linecap:round;stroke-opacity:1.0;fill:none"/>
      </g>
    </g>
  </g>
</svg>
