<?xml version='1.0' encoding='ASCII' standalone='yes'?>
<svg width = "6in" height = "4in" xmlns="http://www.w3.org/2000/svg" xmlns:xlink="http://www.w3.org/1999/xlink" version="1.1">
  <g transform="translate(0.814537017743164, 0) scale(1 1) translate(1.0473038956930552, 0) scale(1 1) translate(0, 0) scale(0.1 0.1)  skewX(-1.000000) skewX(-0.777778)">
    <sodipodi:namedview xmlns:sodipodi="http://sodipodi.sourceforge.net/DTD/sodipodi-0.dtd" id="ScribMaster"/>
    <filter id="blur">
      <feGaussianBlur stdDeviation="5.0"/>
    </filter>
    <defs/>
    <g xmlns:inkscape="http://www.inkscape.org/namespaces/inkscape" xmlns:scribmaster="http://scribmaster.com/scribmaster" id="1627854355085" transform="matrix(1.041329,0,0,1.041329,-16.413086,-15.68722)" style="opacity:1.0">
      <g id="1627851273342" inkscape:groupmode="layer" transform="matrix(1,0,0,1,0,0)" style="opacity:1.0">
        <path transform="matrix(1,0,0,1,0,0)" d="M 87.784996 79.40546 L 85.86437 79.40546 L 85.86437 80.36577 L 84.90406 81.32607 L 84.90406 84.20701 L 83.94375 89.00857 L 82.98344 97.65137 L 82.98344 107.25448 L 82.98344 121.65914 L 82.98344 139.90504 L 82.98344 160.07158 L 82.98344 181.19843 L 82.023125 201.36494 L 82.023125 214.80931 L 82.023125 222.49179 L 81.06282 228.25366 L 81.06282 233.05522 L 81.06282 234.01553 L 81.06282 234.97583 L 80.10251 234.97583 L 80.10251 234.01553" scribmaster:penstyle="draw" style="stroke:#000000;stroke-width:5.0;stroke-linejoin:round;stroke-linecap:round;stroke-opacity:1.0;fill:none"/>
        <path transform="matrix(1,0,0,1,0,0)" d="M 174.213 84.20701 L 172.29237 84.20701 L 171.33206 85.16732 L 170.37175 86.12763 L 169.41144 88.048256 L 168.45113 89.96887 L 166.5305 91.889496 L 164.6099 94.77043 L 160.76865 98.61167 L 156.9274 103.41323 L 153.08615 107.25448 L 149.2449 110.13541 L 145.40367 113.976654 L 140.60211 116.85758 L 136.76086 120.69883 L 131.9593 123.579765 L 128.11806 127.421005 L 125.23713 131.26225 L 121.39588 134.14317 L 117.554634 137.02411 L 114.673706 139.90504 L 111.79277 142.78598 L 108.911835 144.7066 L 106.99122 146.62723 L 105.070595 147.58752 L 103.14997 149.50815 L 101.22935 150.46846 L 99.30872 152.38908 L 98.34842 152.38908 L 97.38811 154.30971 L 96.427795 155.27002 L 95.46748 156.23033 L 94.50717 157.19064 L 93.54686 158.15096 L 92.58655 159.11127 L 92.58655 160.07158 L 91.626236 161.03189 L 90.665924 161.9922 L 89.70562 162.95251 L 88.74531 162.95251 L 88.74531 163.91283 L 87.784996 164.87312 L 87.784996 165.83344 L 86.824684 165.83344 L 86.824684 166.79375 L 85.86437 166.79375 L 83.94375 166.79375 L 83.94375 167.75406 L 84.90406 168.71437 L 85.86437 170.635 L 86.824684 171.5953 L 87.784996 173.51593 L 90.665924 176.39687 L 92.58655 178.31749 L 95.46748 182.15872 L 99.30872 185.03966 L 104.11028 188.8809 L 107.95153 192.72215 L 112.75308 195.60309 L 116.59433 199.44434 L 121.39588 202.32526 L 126.19743 205.20619 L 130.03868 208.08713 L 134.84024 210.96806 L 138.68149 214.80931 L 142.52274 216.72993 L 146.36398 219.61086 L 150.20522 220.57117 L 153.08615 222.49179 L 156.9274 224.41241 L 158.84802 225.37273 L 160.76865 226.33304 L 163.64958 227.29335 L 165.57019 228.25366 L 166.5305 228.25366 L 168.45113 229.21397 L 169.41144 229.21397" scribmaster:penstyle="draw" style="stroke:#000000;stroke-width:5.0;stroke-linejoin:round;stroke-linecap:round;stroke-opacity:1.0;fill:none"/>
      </g>
    </g>
  </g>
</svg>
