<?xml version='1.0' encoding='ASCII' standalone='yes'?>
<svg width = "6in" height = "4in" xmlns="http://www.w3.org/2000/svg" xmlns:xlink="http://www.w3.org/1999/xlink" version="1.1">
  <g transform="translate(-1.0473038956930552, 0) scale(1 1) translate(-0.8145370177431639, 0) scale(1 1) translate(-0.581794650448325, 0) scale(1 1) translate(-0.34906978865732063, 0) scale(1 1) translate(-0.1163554293259576, 0) scale(1 1) translate(0.1163554293259576, 0) scale(1 1) translate(0.34906978865732075, 0) scale(1 1) translate(0.5817946504483253, 0) scale(1 1) translate(0.814537017743164, 0) scale(1 1) translate(1.0473038956930552, 0) scale(1 1) translate(0, 0) scale(0.1 0.1)  skewX(-1.000000) skewX(-0.777778) skewX(-0.555556) skewX(-0.333333) skewX(-0.111111) skewX(0.111111) skewX(0.333333) skewX(0.555556) skewX(0.777778) skewX(1.000000)">
    <sodipodi:namedview xmlns:sodipodi="http://sodipodi.sourceforge.net/DTD/sodipodi-0.dtd" id="ScribMaster"/>
    <filter id="blur">
      <feGaussianBlur stdDeviation="5.0"/>
    </filter>
    <defs/>
    <g xmlns:inkscape="http://www.inkscape.org/namespaces/inkscape" xmlns:scribmaster="http://scribmaster.com/scribmaster" id="1627852982710" transform="matrix(1.032782,0,0,1.032782,-14.899414,-13.325867)" style="opacity:1.0">
      <g id="1627851273342" inkscape:groupmode="layer" transform="matrix(1,0,0,1,0,0)" style="opacity:1.0">
        <path transform="matrix(1,0,0,1,0,0)" d="M 61.871155 141.68126 L 60.902893 140.71301 L 60.902893 139.74475 L 60.902893 138.77649 L 60.902893 137.80824 L 61.871155 139.74475 L 61.871155 140.71301 L 62.839417 144.58604 L 63.80767 149.42734 L 65.74419 158.14166 L 67.6807 168.79251 L 70.58548 181.37987 L 72.521996 191.06245 L 74.45852 199.77678 L 76.395035 208.4911 L 78.33155 215.26892 L 81.23632 221.07846 L 83.172844 225.91975 L 84.1411 229.7928 L 86.077614 232.69757 L 87.045876 234.6341 L 88.01414 236.5706 L 88.98239 238.50713 L 89.95065 238.50713 L 90.91891 239.47539 L 91.88717 239.47539 L 92.85542 239.47539 L 93.823685 238.50713 L 94.79195 238.50713 L 95.7602 237.53886 L 96.72846 234.6341 L 98.66498 231.72931 L 101.569756 227.85628 L 104.474525 221.07846 L 107.3793 212.36414 L 111.25234 202.68155 L 115.125374 192.03072 L 118.03015 181.37987 L 120.93492 171.69728 L 123.8397 163.95122 L 125.776215 157.1734 L 128.681 152.3321 L 130.61751 148.45908 L 131.58577 146.52255 L 133.5223 144.58604" scribmaster:penstyle="draw" style="stroke:#000000;stroke-width:5.0;stroke-linejoin:round;stroke-linecap:round;stroke-opacity:1.0;fill:none"/>
      </g>
    </g>
  </g>
</svg>
