<?xml version='1.0' encoding='ASCII' standalone='yes'?>
<svg width = "6in" height = "4in" xmlns="http://www.w3.org/2000/svg" xmlns:xlink="http://www.w3.org/1999/xlink" version="1.1">
  <g transform="translate(-0.1163554293259576, 0) scale(1 1) translate(0.1163554293259576, 0) scale(1 1) translate(0.34906978865732075, 0) scale(1 1) translate(0.5817946504483253, 0) scale(1 1) translate(0.814537017743164, 0) scale(1 1) translate(1.0473038956930552, 0) scale(1 1) translate(0, 0) scale(0.1 0.1)  skewX(-1.000000) skewX(-0.777778) skewX(-0.555556) skewX(-0.333333) skewX(-0.111111) skewX(0.111111)">
    <sodipodi:namedview xmlns:sodipodi="http://sodipodi.sourceforge.net/DTD/sodipodi-0.dtd" id="ScribMaster"/>
    <filter id="blur">
      <feGaussianBlur stdDeviation="5.0"/>
    </filter>
    <defs/>
    <g xmlns:inkscape="http://www.inkscape.org/namespaces/inkscape" xmlns:scribmaster="http://scribmaster.com/scribmaster" id="1627852993082" transform="matrix(1.032782,0,0,1.032782,-14.899414,-13.325867)" style="opacity:1.0">
      <g id="1627851273342" inkscape:groupmode="layer" transform="matrix(1,0,0,1,0,0)" style="opacity:1.0">
        <path transform="matrix(1,0,0,1,0,0)" d="M 57.02986 130.06216 L 57.02986 131.99869 L 57.998123 133.9352 L 58.966377 136.83998 L 61.871155 143.61778 L 64.77593 152.3321 L 69.617226 166.85599 L 73.49026 182.34813 L 77.36329 194.93549 L 81.23632 206.5546 L 84.1411 216.23718 L 87.045876 224.9515 L 89.95065 232.69757 L 91.88717 239.47539 L 94.79195 245.28493 L 96.72846 248.18971 L 98.66498 251.09448 L 99.63324 252.06274 L 100.601494 253.031 L 101.569756 252.06274 L 102.53801 250.12622 L 103.50627 248.18971 L 104.474525 245.28493 L 105.44279 241.4119 L 106.41105 234.6341 L 108.347565 223.01498 L 111.25234 208.4911 L 115.125374 192.99896 L 117.06189 179.44334 L 119.96667 168.79251 L 121.90318 161.04643 L 123.8397 153.30037 L 125.776215 147.49081 L 127.71274 143.61778 L 128.681 140.71301 L 129.64926 139.74475" scribmaster:penstyle="draw" style="stroke:#000000;stroke-width:5.0;stroke-linejoin:round;stroke-linecap:round;stroke-opacity:1.0;fill:none"/>
      </g>
    </g>
  </g>
</svg>
