<?xml version='1.0' encoding='ASCII' standalone='yes'?>
<svg width = "6in" height = "4in" xmlns="http://www.w3.org/2000/svg" xmlns:xlink="http://www.w3.org/1999/xlink" version="1.1">
  <g transform="translate(-0.1163554293259576, 0) scale(1 1) translate(0.1163554293259576, 0) scale(1 1) translate(0.34906978865732075, 0) scale(1 1) translate(0.5817946504483253, 0) scale(1 1) translate(0.814537017743164, 0) scale(1 1) translate(1.0473038956930552, 0) scale(1 1) translate(0, 0) scale(0.1 0.1)  skewX(-1.000000) skewX(-0.777778) skewX(-0.555556) skewX(-0.333333) skewX(-0.111111) skewX(0.111111)">
    <sodipodi:namedview xmlns:sodipodi="http://sodipodi.sourceforge.net/DTD/sodipodi-0.dtd" id="ScribMaster"/>
    <filter id="blur">
      <feGaussianBlur stdDeviation="5.0"/>
    </filter>
    <defs/>
    <g xmlns:inkscape="http://www.inkscape.org/namespaces/inkscape" xmlns:scribmaster="http://scribmaster.com/scribmaster" id="1627852969352" transform="matrix(1.032782,0,0,1.032782,-14.899414,-13.325867)" style="opacity:1.0">
      <g id="1627851273342" inkscape:groupmode="layer" transform="matrix(1,0,0,1,0,0)" style="opacity:1.0">
        <path transform="matrix(1,0,0,1,0,0)" d="M 61.871155 127.157394 L 60.902893 129.0939 L 61.871155 131.99869 L 61.871155 136.83998 L 62.839417 144.58604 L 65.74419 157.1734 L 68.648964 174.60205 L 72.521996 192.99896 L 74.45852 206.5546 L 76.395035 218.17369 L 78.33155 225.91975 L 80.26807 232.69757 L 82.20458 238.50713 L 83.172844 241.4119 L 84.1411 243.34842 L 85.10936 243.34842 L 86.077614 243.34842 L 87.045876 243.34842 L 87.045876 242.38016 L 88.01414 241.4119 L 88.98239 239.47539 L 89.95065 236.5706 L 91.88717 233.66583 L 94.79195 225.91975 L 99.63324 214.30066 L 105.44279 199.77678 L 109.31582 183.31639 L 113.18886 169.76076 L 116.093636 158.14166 L 118.998405 148.45908 L 119.96667 141.68126 L 120.93492 136.83998 L 121.90318 133.9352 L 122.871445 133.9352" scribmaster:penstyle="draw" style="stroke:#000000;stroke-width:5.0;stroke-linejoin:round;stroke-linecap:round;stroke-opacity:1.0;fill:none"/>
      </g>
    </g>
  </g>
</svg>
