<?xml version='1.0' encoding='ASCII' standalone='yes'?>
<svg width = "6in" height = "4in" xmlns="http://www.w3.org/2000/svg" xmlns:xlink="http://www.w3.org/1999/xlink" version="1.1">
  <g transform="translate(-0.8145370177431639, 0) scale(1 1) translate(-0.581794650448325, 0) scale(1 1) translate(-0.34906978865732063, 0) scale(1 1) translate(-0.1163554293259576, 0) scale(1 1) translate(0.1163554293259576, 0) scale(1 1) translate(0.34906978865732075, 0) scale(1 1) translate(0.5817946504483253, 0) scale(1 1) translate(0.814537017743164, 0) scale(1 1) translate(1.0473038956930552, 0) scale(1 1) translate(0, 0) scale(0.1 0.1)  skewX(-1.000000) skewX(-0.777778) skewX(-0.555556) skewX(-0.333333) skewX(-0.111111) skewX(0.111111) skewX(0.333333) skewX(0.555556) skewX(0.777778)">
    <sodipodi:namedview xmlns:sodipodi="http://sodipodi.sourceforge.net/DTD/sodipodi-0.dtd" id="ScribMaster"/>
    <filter id="blur">
      <feGaussianBlur stdDeviation="5.0"/>
    </filter>
    <defs/>
    <g xmlns:inkscape="http://www.inkscape.org/namespaces/inkscape" xmlns:scribmaster="http://scribmaster.com/scribmaster" id="1627854646085" transform="matrix(1.041329,0,0,1.041329,-16.413086,-15.68722)" style="opacity:1.0">
      <g id="1627851273342" inkscape:groupmode="layer" transform="matrix(1,0,0,1,0,0)" style="opacity:1.0">
        <path transform="matrix(1,0,0,1,0,0)" d="M 67.61846 78.445145 L 65.697845 79.40546 L 65.697845 80.36577 L 64.73753 84.20701 L 64.73753 87.087944 L 64.73753 94.77043 L 63.77722 105.333855 L 63.77722 117.817894 L 62.81691 131.26225 L 61.8566 147.58752 L 60.89629 161.9922 L 60.89629 173.51593 L 60.89629 183.11903 L 59.935978 191.76184 L 59.935978 200.40463 L 59.935978 207.12682 L 59.935978 212.88869 L 59.935978 218.65054 L 58.975666 221.53148 L 58.975666 224.41241 L 58.975666 226.33304 L 58.975666 227.29335 L 58.975666 228.25366 L 58.975666 229.21397 L 58.975666 230.17429 L 58.975666 229.21397 L 58.975666 228.25366" scribmaster:penstyle="draw" style="stroke:#000000;stroke-width:5.0;stroke-linejoin:round;stroke-linecap:round;stroke-opacity:1.0;fill:none"/>
        <path transform="matrix(1,0,0,1,0,0)" d="M 70.4994 86.12763 L 70.4994 84.20701 L 71.45971 83.2467 L 72.42002 82.286385 L 73.38033 81.32607 L 74.340645 81.32607 L 76.26126 80.36577 L 78.181885 80.36577 L 82.023125 80.36577 L 84.90406 81.32607 L 87.784996 82.286385 L 91.626236 84.20701 L 95.46748 87.087944 L 99.30872 89.96887 L 102.18966 93.81012 L 106.03091 97.65137 L 109.87215 102.45292 L 112.75308 108.21478 L 115.63402 112.05603 L 118.514946 116.85758 L 119.47526 120.69883 L 120.43557 123.579765 L 121.39588 127.421005 L 121.39588 130.30194 L 120.43557 134.14317 L 118.514946 137.02411 L 116.59433 139.90504 L 114.673706 142.78598 L 111.79277 145.66692 L 108.911835 147.58752 L 105.070595 148.54784 L 101.22935 150.46846 L 96.427795 151.42877 L 91.626236 152.38908 L 86.824684 153.3494 L 82.023125 155.27002 L 77.22157 157.19064 L 73.38033 158.15096 L 69.539085 160.07158 L 66.65815 161.9922 L 64.73753 162.95251" scribmaster:penstyle="draw" style="stroke:#000000;stroke-width:5.0;stroke-linejoin:round;stroke-linecap:round;stroke-opacity:1.0;fill:none"/>
      </g>
    </g>
  </g>
</svg>
