<?xml version='1.0' encoding='ASCII' standalone='yes'?>
<svg width = "6in" height = "4in" xmlns="http://www.w3.org/2000/svg" xmlns:xlink="http://www.w3.org/1999/xlink" version="1.1">
  <g transform="translate(-0.1163554293259576, 0) scale(1 1) translate(0.1163554293259576, 0) scale(1 1) translate(0.34906978865732075, 0) scale(1 1) translate(0.5817946504483253, 0) scale(1 1) translate(0.814537017743164, 0) scale(1 1) translate(1.0473038956930552, 0) scale(1 1) translate(0, 0) scale(0.1 0.1)  skewX(-1.000000) skewX(-0.777778) skewX(-0.555556) skewX(-0.333333) skewX(-0.111111) skewX(0.111111)">
    <sodipodi:namedview xmlns:sodipodi="http://sodipodi.sourceforge.net/DTD/sodipodi-0.dtd" id="ScribMaster"/>
    <filter id="blur">
      <feGaussianBlur stdDeviation="5.0"/>
    </filter>
    <defs/>
    <g xmlns:inkscape="http://www.inkscape.org/namespaces/inkscape" xmlns:scribmaster="http://scribmaster.com/scribmaster" id="1625351632099" transform="matrix(1,0,0,1,-1.316833,-1.489594)" style="opacity:1.0">
      <g id="1625348338071" inkscape:groupmode="layer" transform="matrix(1,0,0,1,0,0)" style="opacity:1.0">
        <path transform="matrix(1,0,0,1,0,0)" d="M 28.316833 61.489594 L 30.316833 61.489594 L 31.316833 62.489594 L 33.316833 63.489594 L 36.316833 64.48959 L 39.316833 66.48959 L 45.316833 68.48959 L 53.316833 69.48959 L 64.31683 71.48959 L 74.31683 72.48959 L 83.31683 73.48959 L 92.31683 73.48959 L 100.31683 73.48959 L 108.31683 74.48959 L 116.31683 74.48959 L 123.31683 74.48959 L 128.31683 74.48959 L 133.31683 75.48959 L 137.31683 76.48959 L 139.31683 77.48959 L 141.31683 78.48959 L 141.31683 80.48959 L 141.31683 82.48959 L 141.31683 84.48959 L 139.31683 87.48959 L 137.31683 92.48959 L 134.31683 98.48959 L 129.31683 105.48959 L 123.31683 114.48959 L 116.31683 124.48959 L 108.31683 134.4896 L 99.31683 145.4896 L 90.31683 156.4896 L 81.31683 166.4896 L 70.31683 175.4896 L 61.316833 183.4896 L 53.316833 190.4896 L 45.316833 197.4896 L 37.316833 203.4896 L 31.316833 208.4896 L 26.316833 212.4896 L 22.316833 215.4896 L 21.316833 217.4896 L 20.316833 219.4896 L 20.316833 220.4896 L 21.316833 220.4896 L 22.316833 220.4896 L 25.316833 221.4896 L 28.316833 221.4896 L 31.316833 221.4896 L 35.316833 220.4896 L 40.316833 220.4896 L 46.316833 220.4896 L 55.316833 219.4896 L 65.31683 218.4896 L 74.31683 216.4896 L 85.31683 215.4896 L 94.31683 215.4896 L 102.31683 214.4896 L 110.31683 214.4896 L 116.31683 214.4896 L 123.31683 215.4896 L 128.31683 215.4896 L 134.31683 215.4896" scribmaster:penstyle="draw" style="stroke:#000000;stroke-width:5.0;stroke-linejoin:round;stroke-linecap:round;stroke-opacity:1.0;fill:none"/>
      </g>
    </g>
  </g>
</svg>
