<?xml version='1.0' encoding='ASCII' standalone='yes'?>
<svg width = "6in" height = "4in" xmlns="http://www.w3.org/2000/svg" xmlns:xlink="http://www.w3.org/1999/xlink" version="1.1">
  <g transform="translate(0.814537017743164, 0) scale(1 1) translate(1.0473038956930552, 0) scale(1 1) translate(0, 0) scale(0.1 0.1)  skewX(-1.000000) skewX(-0.777778)">
    <sodipodi:namedview xmlns:sodipodi="http://sodipodi.sourceforge.net/DTD/sodipodi-0.dtd" id="ScribMaster"/>
    <filter id="blur">
      <feGaussianBlur stdDeviation="5.0"/>
    </filter>
    <defs/>
    <g xmlns:inkscape="http://www.inkscape.org/namespaces/inkscape" xmlns:scribmaster="http://scribmaster.com/scribmaster" id="1625351658187" transform="matrix(1,0,0,1,-1.316833,-1.489594)" style="opacity:1.0">
      <g id="1625348338071" inkscape:groupmode="layer" transform="matrix(1,0,0,1,0,0)" style="opacity:1.0">
        <path transform="matrix(1,0,0,1,0,0)" d="M 17.316833 51.489594 L 15.3168335 51.489594 L 16.316833 51.489594 L 19.316833 51.489594 L 24.316833 51.489594 L 28.316833 52.489594 L 33.316833 52.489594 L 37.316833 52.489594 L 43.316833 51.489594 L 50.316833 51.489594 L 58.316833 51.489594 L 66.31683 50.489594 L 73.31683 50.489594 L 82.31683 50.489594 L 90.31683 50.489594 L 96.31683 50.489594 L 103.31683 50.489594 L 109.31683 50.489594 L 115.31683 51.489594 L 120.31683 52.489594 L 125.31683 52.489594 L 130.31683 53.489594 L 132.31683 54.489594 L 135.31683 54.489594 L 136.31683 54.489594 L 138.31683 54.489594 L 139.31683 55.489594 L 140.31683 55.489594 L 141.31683 56.489594 L 142.31683 56.489594 L 143.31683 57.489594 L 144.31683 57.489594 L 145.31683 58.489594 L 146.31683 58.489594 L 147.31683 59.489594 L 148.31683 59.489594 L 149.31683 59.489594 L 149.31683 60.489594 L 150.31683 60.489594 L 150.31683 61.489594 L 150.31683 62.489594 L 150.31683 63.489594 L 150.31683 64.48959 L 149.31683 66.48959 L 148.31683 68.48959 L 146.31683 72.48959 L 144.31683 76.48959 L 141.31683 80.48959 L 137.31683 86.48959 L 133.31683 93.48959 L 129.31683 99.48959 L 124.31683 106.48959 L 117.31683 114.48959 L 111.31683 121.48959 L 105.31683 128.4896 L 99.31683 134.4896 L 91.31683 142.4896 L 86.31683 150.4896 L 80.31683 156.4896 L 75.31683 163.4896 L 69.31683 170.4896 L 64.31683 176.4896 L 59.316833 181.4896 L 55.316833 186.4896 L 51.316833 192.4896 L 48.316833 196.4896 L 45.316833 201.4896 L 41.316833 204.4896 L 37.316833 208.4896 L 34.316833 210.4896 L 32.316833 213.4896 L 31.316833 215.4896 L 30.316833 216.4896 L 29.316833 217.4896 L 29.316833 218.4896 L 29.316833 219.4896 L 30.316833 220.4896 L 31.316833 220.4896 L 31.316833 221.4896 L 32.316833 221.4896 L 33.316833 221.4896 L 34.316833 222.4896 L 36.316833 222.4896 L 37.316833 222.4896 L 39.316833 223.4896 L 42.316833 224.4896 L 45.316833 224.4896 L 50.316833 225.4896 L 58.316833 225.4896 L 65.31683 225.4896 L 72.31683 225.4896 L 81.31683 225.4896 L 89.31683 225.4896 L 96.31683 225.4896 L 103.31683 226.4896 L 110.31683 227.4896 L 116.31683 228.4896 L 122.31683 228.4896 L 128.31683 229.4896 L 135.31683 228.4896 L 142.31683 227.4896 L 151.31683 226.4896" scribmaster:penstyle="draw" style="stroke:#000000;stroke-width:5.0;stroke-linejoin:round;stroke-linecap:round;stroke-opacity:1.0;fill:none"/>
      </g>
    </g>
  </g>
</svg>
