<?xml version='1.0' encoding='ASCII' standalone='yes'?>
<svg width = "6in" height = "4in" xmlns="http://www.w3.org/2000/svg" xmlns:xlink="http://www.w3.org/1999/xlink" version="1.1">
  <g transform="translate(0.814537017743164, 0) scale(1 1) translate(1.0473038956930552, 0) scale(1 1) translate(0, 0) scale(0.1 0.1)  skewX(-1.000000) skewX(-0.777778)">
    <sodipodi:namedview xmlns:sodipodi="http://sodipodi.sourceforge.net/DTD/sodipodi-0.dtd" id="ScribMaster"/>
    <filter id="blur">
      <feGaussianBlur stdDeviation="5.0"/>
    </filter>
    <defs/>
    <g xmlns:inkscape="http://www.inkscape.org/namespaces/inkscape" xmlns:scribmaster="http://scribmaster.com/scribmaster" id="1627854759314" transform="matrix(1.041329,0,0,1.041329,-16.413086,-15.68722)" style="opacity:1.0">
      <g id="1627851273342" inkscape:groupmode="layer" transform="matrix(1,0,0,1,0,0)" style="opacity:1.0">
        <path transform="matrix(1,0,0,1,0,0)" d="M 130.999 94.77043 L 130.03868 94.77043 L 130.03868 93.81012 L 129.07837 93.81012 L 128.11806 93.81012 L 127.157745 92.84981 L 126.19743 91.889496 L 125.23713 90.929184 L 123.316505 89.96887 L 122.35619 89.96887 L 120.43557 89.96887 L 118.514946 89.00857 L 116.59433 89.00857 L 112.75308 89.00857 L 108.911835 89.00857 L 104.11028 89.00857 L 97.38811 90.929184 L 91.626236 93.81012 L 84.90406 96.691055 L 80.10251 100.532295 L 75.30095 104.37354 L 71.45971 109.175095 L 68.57877 113.976654 L 65.697845 118.778206 L 63.77722 123.579765 L 63.77722 128.38132 L 63.77722 133.18288 L 65.697845 136.0638 L 68.57877 138.94473 L 72.42002 141.82567 L 77.22157 144.7066 L 82.98344 147.58752 L 89.70562 151.42877 L 98.34842 156.23033 L 105.070595 161.03189 L 110.83246 165.83344 L 116.59433 170.635 L 120.43557 176.39687 L 123.316505 181.19843 L 125.23713 187.9206 L 126.19743 193.68246 L 126.19743 200.40463 L 125.23713 205.20619 L 123.316505 210.00775 L 119.47526 214.80931 L 116.59433 217.69023 L 111.79277 219.61086 L 106.99122 221.53148 L 101.22935 222.49179 L 94.50717 222.49179 L 87.784996 222.49179 L 81.06282 222.49179 L 75.30095 222.49179 L 70.4994 221.53148 L 66.65815 220.57117 L 63.77722 220.57117 L 62.81691 220.57117" scribmaster:penstyle="draw" style="stroke:#000000;stroke-width:5.0;stroke-linejoin:round;stroke-linecap:round;stroke-opacity:1.0;fill:none"/>
      </g>
    </g>
  </g>
</svg>
