<?xml version='1.0' encoding='ASCII' standalone='yes'?>
<svg width = "6in" height = "4in" xmlns="http://www.w3.org/2000/svg" xmlns:xlink="http://www.w3.org/1999/xlink" version="1.1">
  <g transform="translate(-0.581794650448325, 0) scale(1 1) translate(-0.34906978865732063, 0) scale(1 1) translate(-0.1163554293259576, 0) scale(1 1) translate(0.1163554293259576, 0) scale(1 1) translate(0.34906978865732075, 0) scale(1 1) translate(0.5817946504483253, 0) scale(1 1) translate(0.814537017743164, 0) scale(1 1) translate(1.0473038956930552, 0) scale(1 1) translate(0, 0) scale(0.1 0.1)  skewX(-1.000000) skewX(-0.777778) skewX(-0.555556) skewX(-0.333333) skewX(-0.111111) skewX(0.111111) skewX(0.333333) skewX(0.555556)">
    <sodipodi:namedview xmlns:sodipodi="http://sodipodi.sourceforge.net/DTD/sodipodi-0.dtd" id="ScribMaster"/>
    <filter id="blur">
      <feGaussianBlur stdDeviation="5.0"/>
    </filter>
    <defs/>
    <g xmlns:inkscape="http://www.inkscape.org/namespaces/inkscape" xmlns:scribmaster="http://scribmaster.com/scribmaster" id="1627854787099" transform="matrix(1.041329,0,0,1.041329,-16.413086,-15.68722)" style="opacity:1.0">
      <g id="1627851273342" inkscape:groupmode="layer" transform="matrix(1,0,0,1,0,0)" style="opacity:1.0">
        <path transform="matrix(1,0,0,1,0,0)" d="M 155.00677 106.29417 L 155.00677 105.333855 L 155.00677 104.37354 L 155.00677 103.41323 L 155.00677 102.45292 L 155.00677 101.49261 L 154.04646 100.532295 L 153.08615 99.57198 L 151.16553 99.57198 L 150.20522 98.61167 L 147.3243 98.61167 L 144.44336 97.65137 L 139.6418 97.65137 L 132.91962 98.61167 L 126.19743 98.61167 L 120.43557 99.57198 L 114.673706 101.49261 L 109.87215 103.41323 L 104.11028 105.333855 L 99.30872 107.25448 L 94.50717 110.13541 L 90.665924 113.976654 L 87.784996 117.817894 L 84.90406 121.65914 L 83.94375 126.46069 L 83.94375 130.30194 L 84.90406 134.14317 L 87.784996 137.98442 L 92.58655 141.82567 L 99.30872 145.66692 L 106.99122 149.50815 L 116.59433 154.30971 L 125.23713 160.07158 L 131.9593 165.83344 L 138.68149 171.5953 L 143.48303 178.31749 L 147.3243 185.03966 L 150.20522 191.76184 L 151.16553 198.48402 L 151.16553 204.24588 L 150.20522 209.04744 L 148.28459 212.88869 L 145.40367 214.80931 L 141.56242 216.72993 L 138.68149 217.69023 L 133.87993 218.65054 L 127.157745 219.61086 L 121.39588 219.61086 L 114.673706 218.65054 L 108.911835 218.65054 L 103.14997 217.69023 L 97.38811 216.72993 L 92.58655 215.76962 L 87.784996 214.80931 L 82.98344 214.80931 L 79.1422 212.88869" scribmaster:penstyle="draw" style="stroke:#000000;stroke-width:5.0;stroke-linejoin:round;stroke-linecap:round;stroke-opacity:1.0;fill:none"/>
      </g>
    </g>
  </g>
</svg>
