<?xml version='1.0' encoding='ASCII' standalone='yes'?>
<svg width = "6in" height = "4in" xmlns="http://www.w3.org/2000/svg" xmlns:xlink="http://www.w3.org/1999/xlink" version="1.1">
  <g transform="translate(-0.581794650448325, 0) scale(1 1) translate(-0.34906978865732063, 0) scale(1 1) translate(-0.1163554293259576, 0) scale(1 1) translate(0.1163554293259576, 0) scale(1 1) translate(0.34906978865732075, 0) scale(1 1) translate(0.5817946504483253, 0) scale(1 1) translate(0.814537017743164, 0) scale(1 1) translate(1.0473038956930552, 0) scale(1 1) translate(0, 0) scale(0.1 0.1)  skewX(-1.000000) skewX(-0.777778) skewX(-0.555556) skewX(-0.333333) skewX(-0.111111) skewX(0.111111) skewX(0.333333) skewX(0.555556)">
    <sodipodi:namedview xmlns:sodipodi="http://sodipodi.sourceforge.net/DTD/sodipodi-0.dtd" id="ScribMaster"/>
    <filter id="blur">
      <feGaussianBlur stdDeviation="5.0"/>
    </filter>
    <defs/>
    <g xmlns:inkscape="http://www.inkscape.org/namespaces/inkscape" xmlns:scribmaster="http://scribmaster.com/scribmaster" id="1625349856029" transform="matrix(1,0,0,1,-1.316833,-1.489594)" style="opacity:1.0">
      <g id="1625348338071" inkscape:groupmode="layer" transform="matrix(1,0,0,1,0,0)" style="opacity:1.0">
        <path transform="matrix(1,0,0,1,0,0)" d="M 66.31683 38.489594 L 66.31683 39.489594 L 66.31683 43.489594 L 66.31683 46.489594 L 66.31683 52.489594 L 67.31683 59.489594 L 67.31683 66.48959 L 67.31683 74.48959 L 67.31683 84.48959 L 67.31683 94.48959 L 66.31683 104.48959 L 66.31683 113.48959 L 66.31683 121.48959 L 66.31683 129.4896 L 66.31683 139.4896 L 65.31683 148.4896 L 65.31683 157.4896 L 65.31683 165.4896 L 65.31683 172.4896 L 65.31683 179.4896 L 65.31683 186.4896 L 66.31683 191.4896 L 66.31683 196.4896 L 66.31683 200.4896 L 66.31683 204.4896 L 66.31683 207.4896 L 66.31683 210.4896 L 65.31683 214.4896 L 65.31683 218.4896 L 65.31683 221.4896 L 65.31683 224.4896 L 66.31683 225.4896 L 66.31683 226.4896" scribmaster:penstyle="draw" style="stroke:#000000;stroke-width:5.0;stroke-linejoin:round;stroke-linecap:round;stroke-opacity:1.0;fill:none"/>
        <path transform="matrix(1,0,0,1,0,0)" d="M 73.31683 56.489594 L 73.31683 54.489594 L 75.31683 52.489594 L 77.31683 51.489594 L 82.31683 49.489594 L 88.31683 47.489594 L 96.31683 45.489594 L 106.31683 43.489594 L 116.31683 41.489594 L 125.31683 39.489594 L 134.31683 38.489594 L 142.31683 37.489594 L 149.31683 35.489594 L 156.31683 34.489594 L 162.31683 33.489594 L 167.31683 33.489594 L 171.31683 33.489594" scribmaster:penstyle="draw" style="stroke:#000000;stroke-width:5.0;stroke-linejoin:round;stroke-linecap:round;stroke-opacity:1.0;fill:none"/>
        <path transform="matrix(1,0,0,1,0,0)" d="M 94.31683 142.4896 L 92.31683 141.4896 L 91.31683 140.4896 L 90.31683 140.4896 L 89.31683 140.4896 L 88.31683 140.4896 L 87.31683 140.4896 L 87.31683 139.4896 L 88.31683 139.4896 L 91.31683 138.4896 L 94.31683 137.4896 L 99.31683 135.4896 L 106.31683 134.4896 L 112.31683 132.4896 L 119.31683 131.4896 L 126.31683 130.4896 L 132.31683 129.4896 L 138.31683 127.48959 L 144.31683 127.48959 L 149.31683 126.48959 L 154.31683 125.48959 L 159.31683 125.48959" scribmaster:penstyle="draw" style="stroke:#000000;stroke-width:5.0;stroke-linejoin:round;stroke-linecap:round;stroke-opacity:1.0;fill:none"/>
        <path transform="matrix(1,0,0,1,0,0)" d="M 80.31683 230.4896 L 79.31683 230.4896 L 79.31683 229.4896 L 79.31683 228.4896 L 80.31683 227.4896 L 82.31683 225.4896 L 86.31683 224.4896 L 93.31683 221.4896 L 101.31683 219.4896 L 111.31683 216.4896 L 121.31683 213.4896 L 132.31683 209.4896 L 142.31683 205.4896 L 153.31683 201.4896 L 163.31683 199.4896 L 172.31683 196.4896" scribmaster:penstyle="draw" style="stroke:#000000;stroke-width:5.0;stroke-linejoin:round;stroke-linecap:round;stroke-opacity:1.0;fill:none"/>
      </g>
    </g>
  </g>
</svg>
