<?xml version='1.0' encoding='ASCII' standalone='yes'?>
<svg width = "6in" height = "4in" xmlns="http://www.w3.org/2000/svg" xmlns:xlink="http://www.w3.org/1999/xlink" version="1.1">
  <g transform="translate(-1.0473038956930552, 0) scale(1 1) translate(-0.8145370177431639, 0) scale(1 1) translate(-0.581794650448325, 0) scale(1 1) translate(-0.34906978865732063, 0) scale(1 1) translate(-0.1163554293259576, 0) scale(1 1) translate(0.1163554293259576, 0) scale(1 1) translate(0.34906978865732075, 0) scale(1 1) translate(0.5817946504483253, 0) scale(1 1) translate(0.814537017743164, 0) scale(1 1) translate(1.0473038956930552, 0) scale(1 1) translate(0, 0) scale(0.1 0.1)  skewX(-1.000000) skewX(-0.777778) skewX(-0.555556) skewX(-0.333333) skewX(-0.111111) skewX(0.111111) skewX(0.333333) skewX(0.555556) skewX(0.777778) skewX(1.000000)">
    <sodipodi:namedview xmlns:sodipodi="http://sodipodi.sourceforge.net/DTD/sodipodi-0.dtd" id="ScribMaster"/>
    <filter id="blur">
      <feGaussianBlur stdDeviation="5.0"/>
    </filter>
    <defs/>
    <g xmlns:inkscape="http://www.inkscape.org/namespaces/inkscape" xmlns:scribmaster="http://scribmaster.com/scribmaster" id="1625349822257" transform="matrix(1,0,0,1,-1.316833,-1.489594)" style="opacity:1.0">
      <g id="1625348338071" inkscape:groupmode="layer" transform="matrix(1,0,0,1,0,0)" style="opacity:1.0">
        <path transform="matrix(1,0,0,1,0,0)" d="M 81.31683 20.489594 L 79.31683 22.489594 L 78.31683 23.489594 L 78.31683 25.489594 L 77.31683 28.489594 L 76.31683 32.489594 L 75.31683 39.489594 L 73.31683 51.489594 L 72.31683 64.48959 L 70.31683 78.48959 L 69.31683 93.48959 L 67.31683 106.48959 L 66.31683 117.48959 L 65.31683 127.48959 L 63.316833 136.4896 L 61.316833 146.4896 L 60.316833 155.4896 L 59.316833 164.4896 L 58.316833 172.4896 L 56.316833 179.4896 L 56.316833 187.4896 L 55.316833 194.4896 L 54.316833 200.4896 L 53.316833 206.4896 L 53.316833 209.4896 L 53.316833 212.4896 L 53.316833 214.4896 L 53.316833 216.4896 L 53.316833 218.4896 L 53.316833 219.4896 L 53.316833 221.4896 L 53.316833 222.4896 L 53.316833 224.4896" scribmaster:penstyle="draw" style="stroke:#000000;stroke-width:5.0;stroke-linejoin:round;stroke-linecap:round;stroke-opacity:1.0;fill:none"/>
        <path transform="matrix(1,0,0,1,0,0)" d="M 78.31683 40.489594 L 81.31683 39.489594 L 85.31683 39.489594 L 90.31683 39.489594 L 96.31683 39.489594 L 103.31683 38.489594 L 110.31683 38.489594 L 117.31683 38.489594 L 124.31683 38.489594 L 130.31683 39.489594 L 136.31683 39.489594 L 142.31683 39.489594 L 147.31683 39.489594 L 151.31683 40.489594" scribmaster:penstyle="draw" style="stroke:#000000;stroke-width:5.0;stroke-linejoin:round;stroke-linecap:round;stroke-opacity:1.0;fill:none"/>
        <path transform="matrix(1,0,0,1,0,0)" d="M 66.31683 129.4896 L 70.31683 129.4896 L 76.31683 129.4896 L 83.31683 129.4896 L 91.31683 129.4896 L 100.31683 129.4896 L 108.31683 128.4896 L 116.31683 128.4896 L 123.31683 129.4896 L 129.31683 129.4896" scribmaster:penstyle="draw" style="stroke:#000000;stroke-width:5.0;stroke-linejoin:round;stroke-linecap:round;stroke-opacity:1.0;fill:none"/>
        <path transform="matrix(1,0,0,1,0,0)" d="M 49.316833 214.4896 L 51.316833 214.4896 L 55.316833 213.4896 L 59.316833 213.4896 L 67.31683 213.4896 L 76.31683 213.4896 L 84.31683 212.4896 L 91.31683 212.4896 L 99.31683 211.4896 L 106.31683 210.4896 L 113.31683 209.4896 L 120.31683 206.4896 L 126.31683 204.4896 L 131.31683 201.4896" scribmaster:penstyle="draw" style="stroke:#000000;stroke-width:5.0;stroke-linejoin:round;stroke-linecap:round;stroke-opacity:1.0;fill:none"/>
      </g>
    </g>
  </g>
</svg>
