<?xml version='1.0' encoding='ASCII' standalone='yes'?>
<svg width = "6in" height = "4in" xmlns="http://www.w3.org/2000/svg" xmlns:xlink="http://www.w3.org/1999/xlink" version="1.1">
  <g transform="translate(-0.34906978865732063, 0) scale(1 1) translate(-0.1163554293259576, 0) scale(1 1) translate(0.1163554293259576, 0) scale(1 1) translate(0.34906978865732075, 0) scale(1 1) translate(0.5817946504483253, 0) scale(1 1) translate(0.814537017743164, 0) scale(1 1) translate(1.0473038956930552, 0) scale(1 1) translate(0, 0) scale(0.1 0.1)  skewX(-1.000000) skewX(-0.777778) skewX(-0.555556) skewX(-0.333333) skewX(-0.111111) skewX(0.111111) skewX(0.333333)">
    <sodipodi:namedview xmlns:sodipodi="http://sodipodi.sourceforge.net/DTD/sodipodi-0.dtd" id="ScribMaster"/>
    <filter id="blur">
      <feGaussianBlur stdDeviation="5.0"/>
    </filter>
    <defs/>
    <g xmlns:inkscape="http://www.inkscape.org/namespaces/inkscape" xmlns:scribmaster="http://scribmaster.com/scribmaster" id="1627852476327" transform="matrix(1.032782,0,0,1.032782,-14.899414,-13.325867)" style="opacity:1.0">
      <g id="1627851273342" inkscape:groupmode="layer" transform="matrix(1,0,0,1,0,0)" style="opacity:1.0">
        <path transform="matrix(1,0,0,1,0,0)" d="M 56.0616 125.22088 L 55.093346 125.22088 L 54.125084 127.157394 L 54.125084 129.0939 L 54.125084 132.96695 L 54.125084 139.74475 L 54.125084 148.45908 L 54.125084 161.04643 L 54.125084 177.50684 L 54.125084 191.06245 L 55.093346 200.74504 L 55.093346 209.45937 L 56.0616 214.30066 L 56.0616 217.20543 L 56.0616 219.14195 L 56.0616 218.17369 L 56.0616 216.23718 L 56.0616 214.30066 L 56.0616 210.42763 L 56.0616 204.61807 L 56.0616 197.84026 L 56.0616 187.18942 L 57.02986 176.53857 L 57.998123 166.85599 L 58.966377 159.10992 L 59.93464 152.3321 L 62.839417 147.49081 L 64.77593 144.58604 L 67.6807 142.64952 L 68.648964 141.68126 L 70.58548 141.68126 L 72.521996 143.61778 L 74.45852 145.5543 L 78.33155 151.36385 L 82.20458 162.0147 L 85.10936 174.60205 L 88.01414 185.2529 L 89.95065 194.93549 L 90.91891 201.7133 L 91.88717 207.52284 L 92.85542 210.42763 L 92.85542 212.36414 L 93.823685 213.3324 L 93.823685 212.36414 L 94.79195 210.42763 L 94.79195 206.5546 L 95.7602 199.77678 L 97.69672 190.0942 L 99.63324 177.50684 L 102.53801 167.82425 L 105.44279 159.10992 L 108.347565 152.3321 L 112.2206 147.49081 L 116.093636 144.58604 L 118.03015 143.61778 L 120.93492 144.58604 L 123.8397 146.52255 L 125.776215 150.3956 L 130.61751 158.14166 L 134.49055 169.76076 L 138.36359 186.22116 L 141.26836 199.77678 L 143.20486 211.39589 L 144.17313 219.14195 L 145.14139 224.9515 L 146.10965 228.82454 L 147.07791 228.82454 L 148.04616 228.82454" scribmaster:penstyle="draw" style="stroke:#000000;stroke-width:5.0;stroke-linejoin:round;stroke-linecap:round;stroke-opacity:1.0;fill:none"/>
      </g>
    </g>
  </g>
</svg>
