<?xml version='1.0' encoding='ASCII' standalone='yes'?>
<svg width = "6in" height = "4in" xmlns="http://www.w3.org/2000/svg" xmlns:xlink="http://www.w3.org/1999/xlink" version="1.1">
  <g transform="translate(0.5817946504483253, 0) scale(1 1) translate(0.814537017743164, 0) scale(1 1) translate(1.0473038956930552, 0) scale(1 1) translate(0, 0) scale(0.1 0.1)  skewX(-1.000000) skewX(-0.777778) skewX(-0.555556)">
    <sodipodi:namedview xmlns:sodipodi="http://sodipodi.sourceforge.net/DTD/sodipodi-0.dtd" id="ScribMaster"/>
    <filter id="blur">
      <feGaussianBlur stdDeviation="5.0"/>
    </filter>
    <defs/>
    <g xmlns:inkscape="http://www.inkscape.org/namespaces/inkscape" xmlns:scribmaster="http://scribmaster.com/scribmaster" id="1627852466823" transform="matrix(1.032782,0,0,1.032782,-14.899414,-13.325867)" style="opacity:1.0">
      <g id="1627851273342" inkscape:groupmode="layer" transform="matrix(1,0,0,1,0,0)" style="opacity:1.0">
        <path transform="matrix(1,0,0,1,0,0)" d="M 64.77593 128.12566 L 63.80767 127.157394 L 63.80767 126.18914 L 62.839417 126.18914 L 61.871155 127.157394 L 61.871155 129.0939 L 60.902893 130.06216 L 60.902893 133.9352 L 60.902893 138.77649 L 59.93464 145.5543 L 59.93464 154.26863 L 59.93464 166.85599 L 58.966377 180.4116 L 58.966377 191.06245 L 59.93464 200.74504 L 59.93464 208.4911 L 59.93464 215.26892 L 60.902893 220.11021 L 60.902893 223.98325 L 60.902893 226.88802 L 60.902893 228.82454 L 60.902893 229.7928 L 60.902893 228.82454 L 60.902893 227.85628 L 60.902893 225.91975 L 60.902893 222.04672 L 60.902893 216.23718 L 60.902893 209.45937 L 60.902893 200.74504 L 61.871155 192.03072 L 62.839417 184.28464 L 63.80767 176.53857 L 65.74419 170.72902 L 67.6807 163.95122 L 70.58548 158.14166 L 72.521996 153.30037 L 74.45852 149.42734 L 77.36329 146.52255 L 78.33155 144.58604 L 81.23632 142.64952 L 83.172844 141.68126 L 84.1411 141.68126 L 86.077614 141.68126 L 88.01414 141.68126 L 89.95065 143.61778 L 91.88717 144.58604 L 93.823685 147.49081 L 94.79195 150.3956 L 97.69672 155.2369 L 100.601494 162.0147 L 101.569756 168.79251 L 104.474525 179.44334 L 105.44279 188.15768 L 106.41105 196.87201 L 107.3793 204.61807 L 108.347565 211.39589 L 109.31582 217.20543 L 109.31582 221.07846 L 109.31582 223.98325 L 109.31582 224.9515 L 110.28408 223.98325 L 110.28408 222.04672 L 110.28408 218.17369 L 111.25234 211.39589 L 112.2206 200.74504 L 114.15711 187.18942 L 116.093636 175.57031 L 118.03015 164.91946 L 119.96667 157.1734 L 121.90318 151.36385 L 123.8397 146.52255 L 125.776215 144.58604 L 127.71274 142.64952 L 129.64926 141.68126 L 131.58577 142.64952 L 133.5223 143.61778 L 135.4588 144.58604 L 138.36359 149.42734 L 141.26836 155.2369 L 144.17313 163.95122 L 148.04616 175.57031 L 150.95094 186.22116 L 152.88745 195.90375 L 154.82397 203.64981 L 155.79224 210.42763 L 156.7605 215.26892 L 156.7605 219.14195 L 156.7605 221.07846 L 156.7605 223.01498 L 155.79224 223.98325 L 155.79224 224.9515 L 155.79224 225.91975 L 155.79224 226.88802" scribmaster:penstyle="draw" style="stroke:#000000;stroke-width:5.0;stroke-linejoin:round;stroke-linecap:round;stroke-opacity:1.0;fill:none"/>
      </g>
    </g>
  </g>
</svg>
