<?xml version='1.0' encoding='ASCII' standalone='yes'?>
<svg width = "6in" height = "4in" xmlns="http://www.w3.org/2000/svg" xmlns:xlink="http://www.w3.org/1999/xlink" version="1.1">
  <g transform="translate(-0.581794650448325, 0) scale(1 1) translate(-0.34906978865732063, 0) scale(1 1) translate(-0.1163554293259576, 0) scale(1 1) translate(0.1163554293259576, 0) scale(1 1) translate(0.34906978865732075, 0) scale(1 1) translate(0.5817946504483253, 0) scale(1 1) translate(0.814537017743164, 0) scale(1 1) translate(1.0473038956930552, 0) scale(1 1) translate(0, 0) scale(0.1 0.1)  skewX(-1.000000) skewX(-0.777778) skewX(-0.555556) skewX(-0.333333) skewX(-0.111111) skewX(0.111111) skewX(0.333333) skewX(0.555556)">
    <sodipodi:namedview xmlns:sodipodi="http://sodipodi.sourceforge.net/DTD/sodipodi-0.dtd" id="ScribMaster"/>
    <filter id="blur">
      <feGaussianBlur stdDeviation="5.0"/>
    </filter>
    <defs/>
    <g xmlns:inkscape="http://www.inkscape.org/namespaces/inkscape" xmlns:scribmaster="http://scribmaster.com/scribmaster" id="1627852447677" transform="matrix(1.032782,0,0,1.032782,-14.899414,-13.325867)" style="opacity:1.0">
      <g id="1627851273342" inkscape:groupmode="layer" transform="matrix(1,0,0,1,0,0)" style="opacity:1.0">
        <path transform="matrix(1,0,0,1,0,0)" d="M 63.80767 133.9352 L 62.839417 131.99869 L 61.871155 131.99869 L 61.871155 133.9352 L 61.871155 136.83998 L 61.871155 142.64952 L 62.839417 151.36385 L 62.839417 163.95122 L 61.871155 179.44334 L 61.871155 192.03072 L 61.871155 201.7133 L 60.902893 210.42763 L 60.902893 217.20543 L 61.871155 222.04672 L 61.871155 224.9515 L 61.871155 225.91975 L 61.871155 226.88802 L 61.871155 225.91975 L 61.871155 224.9515 L 61.871155 223.98325 L 61.871155 221.07846 L 61.871155 217.20543 L 61.871155 209.45937 L 61.871155 200.74504 L 62.839417 190.0942 L 63.80767 180.4116 L 65.74419 168.79251 L 67.6807 160.07819 L 70.58548 151.36385 L 73.49026 144.58604 L 76.395035 139.74475 L 79.299805 135.87172 L 82.20458 134.90346 L 84.1411 133.9352 L 87.045876 134.90346 L 89.95065 135.87172 L 92.85542 138.77649 L 96.72846 144.58604 L 101.569756 154.26863 L 105.44279 165.88773 L 108.347565 178.4751 L 110.28408 189.12593 L 112.2206 197.84026 L 113.18886 204.61807 L 114.15711 209.45937 L 115.125374 212.36414 L 116.093636 212.36414 L 116.093636 211.39589 L 116.093636 209.45937 L 116.093636 206.5546 L 117.06189 201.7133 L 118.03015 192.03072 L 119.96667 181.37987 L 121.90318 171.69728 L 123.8397 162.98296 L 125.776215 155.2369 L 129.64926 149.42734 L 132.55403 144.58604 L 135.4588 141.68126 L 138.36359 140.71301 L 140.3001 140.71301 L 142.23662 141.68126 L 144.17313 144.58604 L 147.07791 149.42734 L 149.98268 156.20514 L 152.88745 165.88773 L 154.82397 175.57031 L 156.7605 187.18942 L 157.72874 196.87201 L 158.697 205.58633 L 159.66527 212.36414 L 160.63353 216.23718" scribmaster:penstyle="draw" style="stroke:#000000;stroke-width:5.0;stroke-linejoin:round;stroke-linecap:round;stroke-opacity:1.0;fill:none"/>
      </g>
    </g>
  </g>
</svg>
