<?xml version='1.0' encoding='ASCII' standalone='yes'?>
<svg width = "6in" height = "4in" xmlns="http://www.w3.org/2000/svg" xmlns:xlink="http://www.w3.org/1999/xlink" version="1.1">
  <g transform="translate(-0.8145370177431639, 0) scale(1 1) translate(-0.581794650448325, 0) scale(1 1) translate(-0.34906978865732063, 0) scale(1 1) translate(-0.1163554293259576, 0) scale(1 1) translate(0.1163554293259576, 0) scale(1 1) translate(0.34906978865732075, 0) scale(1 1) translate(0.5817946504483253, 0) scale(1 1) translate(0.814537017743164, 0) scale(1 1) translate(1.0473038956930552, 0) scale(1 1) translate(0, 0) scale(0.1 0.1)  skewX(-1.000000) skewX(-0.777778) skewX(-0.555556) skewX(-0.333333) skewX(-0.111111) skewX(0.111111) skewX(0.333333) skewX(0.555556) skewX(0.777778)">
    <sodipodi:namedview xmlns:sodipodi="http://sodipodi.sourceforge.net/DTD/sodipodi-0.dtd" id="ScribMaster"/>
    <filter id="blur">
      <feGaussianBlur stdDeviation="5.0"/>
    </filter>
    <defs/>
    <g xmlns:inkscape="http://www.inkscape.org/namespaces/inkscape" xmlns:scribmaster="http://scribmaster.com/scribmaster" id="1627855333527" transform="matrix(1.041329,0,0,1.041329,-16.413086,-15.68722)" style="opacity:1.0">
      <g id="1627851273342" inkscape:groupmode="layer" transform="matrix(1,0,0,1,0,0)" style="opacity:1.0">
        <path transform="matrix(1,0,0,1,0,0)" d="M 69.539085 101.49261 L 68.57877 98.61167 L 69.539085 98.61167 L 70.4994 97.65137 L 71.45971 95.73074 L 73.38033 94.77043 L 74.340645 93.81012 L 76.26126 92.84981 L 78.181885 91.889496 L 81.06282 91.889496 L 83.94375 90.929184 L 87.784996 91.889496 L 90.665924 92.84981 L 94.50717 93.81012 L 97.38811 95.73074 L 100.269035 97.65137 L 102.18966 100.532295 L 104.11028 104.37354 L 105.070595 109.175095 L 106.03091 113.976654 L 106.03091 118.778206 L 104.11028 123.579765 L 102.18966 129.34163 L 99.30872 135.10349 L 96.427795 139.90504 L 93.54686 144.7066 L 90.665924 149.50815 L 86.824684 153.3494 L 83.94375 156.23033 L 82.023125 159.11127 L 80.10251 160.07158 L 79.1422 161.9922 L 78.181885 161.9922 L 79.1422 161.9922 L 80.10251 161.9922 L 82.023125 162.95251 L 83.94375 162.95251 L 86.824684 163.91283 L 89.70562 164.87312 L 93.54686 165.83344 L 98.34842 167.75406 L 102.18966 169.67468 L 106.99122 171.5953 L 111.79277 174.47624 L 115.63402 177.35718 L 118.514946 180.23811 L 121.39588 183.11903 L 124.27682 186.96028 L 126.19743 190.80153 L 126.19743 194.64278 L 126.19743 198.48402 L 126.19743 201.36494 L 124.27682 205.20619 L 122.35619 207.12682 L 119.47526 210.00775 L 114.673706 211.92838 L 109.87215 214.80931 L 103.14997 217.69023 L 96.427795 220.57117 L 88.74531 222.49179 L 82.98344 224.41241 L 77.22157 224.41241 L 73.38033 224.41241 L 70.4994 222.49179 L 69.539085 221.53148" scribmaster:penstyle="draw" style="stroke:#000000;stroke-width:5.0;stroke-linejoin:round;stroke-linecap:round;stroke-opacity:1.0;fill:none"/>
      </g>
    </g>
  </g>
</svg>
