<?xml version='1.0' encoding='ASCII' standalone='yes'?>
<svg width = "6in" height = "4in" xmlns="http://www.w3.org/2000/svg" xmlns:xlink="http://www.w3.org/1999/xlink" version="1.1">
  <g transform="translate(-0.581794650448325, 0) scale(1 1) translate(-0.34906978865732063, 0) scale(1 1) translate(-0.1163554293259576, 0) scale(1 1) translate(0.1163554293259576, 0) scale(1 1) translate(0.34906978865732075, 0) scale(1 1) translate(0.5817946504483253, 0) scale(1 1) translate(0.814537017743164, 0) scale(1 1) translate(1.0473038956930552, 0) scale(1 1) translate(0, 0) scale(0.1 0.1)  skewX(-1.000000) skewX(-0.777778) skewX(-0.555556) skewX(-0.333333) skewX(-0.111111) skewX(0.111111) skewX(0.333333) skewX(0.555556)">
    <sodipodi:namedview xmlns:sodipodi="http://sodipodi.sourceforge.net/DTD/sodipodi-0.dtd" id="ScribMaster"/>
    <filter id="blur">
      <feGaussianBlur stdDeviation="5.0"/>
    </filter>
    <defs/>
    <g xmlns:inkscape="http://www.inkscape.org/namespaces/inkscape" xmlns:scribmaster="http://scribmaster.com/scribmaster" id="1627855312715" transform="matrix(1.041329,0,0,1.041329,-16.413086,-15.68722)" style="opacity:1.0">
      <g id="1627851273342" inkscape:groupmode="layer" transform="matrix(1,0,0,1,0,0)" style="opacity:1.0">
        <path transform="matrix(1,0,0,1,0,0)" d="M 77.22157 102.45292 L 76.26126 99.57198 L 77.22157 98.61167 L 78.181885 97.65137 L 79.1422 95.73074 L 80.10251 94.77043 L 82.98344 92.84981 L 84.90406 90.929184 L 87.784996 89.96887 L 90.665924 89.96887 L 93.54686 90.929184 L 97.38811 91.889496 L 100.269035 93.81012 L 103.14997 94.77043 L 106.03091 97.65137 L 108.911835 100.532295 L 111.79277 104.37354 L 113.713394 109.175095 L 115.63402 113.01634 L 116.59433 117.817894 L 116.59433 122.61945 L 116.59433 126.46069 L 116.59433 131.26225 L 115.63402 135.10349 L 113.713394 138.94473 L 111.79277 141.82567 L 108.911835 144.7066 L 106.03091 147.58752 L 103.14997 149.50815 L 101.22935 151.42877 L 99.30872 152.38908 L 97.38811 154.30971 L 95.46748 155.27002 L 93.54686 156.23033 L 92.58655 157.19064 L 93.54686 157.19064 L 95.46748 157.19064 L 97.38811 157.19064 L 99.30872 158.15096 L 102.18966 159.11127 L 106.03091 160.07158 L 110.83246 161.9922 L 114.673706 164.87312 L 119.47526 167.75406 L 123.316505 170.635 L 126.19743 174.47624 L 130.03868 178.31749 L 131.9593 181.19843 L 132.91962 185.99997 L 133.87993 190.80153 L 133.87993 194.64278 L 131.9593 198.48402 L 130.999 203.28557 L 128.11806 207.12682 L 124.27682 211.92838 L 120.43557 216.72993 L 113.713394 221.53148 L 107.95153 225.37273 L 102.18966 229.21397 L 95.46748 231.1346 L 89.70562 232.09491 L 83.94375 233.05522 L 79.1422 232.09491 L 74.340645 231.1346 L 71.45971 230.17429 L 68.57877 229.21397 L 67.61846 227.29335 L 65.697845 226.33304 L 64.73753 225.37273" scribmaster:penstyle="draw" style="stroke:#000000;stroke-width:5.0;stroke-linejoin:round;stroke-linecap:round;stroke-opacity:1.0;fill:none"/>
      </g>
    </g>
  </g>
</svg>
