<?xml version='1.0' encoding='ASCII' standalone='yes'?>
<svg width = "6in" height = "4in" xmlns="http://www.w3.org/2000/svg" xmlns:xlink="http://www.w3.org/1999/xlink" version="1.1">
  <g transform="translate(-1.0473038956930552, 0) scale(1 1) translate(-0.8145370177431639, 0) scale(1 1) translate(-0.581794650448325, 0) scale(1 1) translate(-0.34906978865732063, 0) scale(1 1) translate(-0.1163554293259576, 0) scale(1 1) translate(0.1163554293259576, 0) scale(1 1) translate(0.34906978865732075, 0) scale(1 1) translate(0.5817946504483253, 0) scale(1 1) translate(0.814537017743164, 0) scale(1 1) translate(1.0473038956930552, 0) scale(1 1) translate(0, 0) scale(0.1 0.1)  skewX(-1.000000) skewX(-0.777778) skewX(-0.555556) skewX(-0.333333) skewX(-0.111111) skewX(0.111111) skewX(0.333333) skewX(0.555556) skewX(0.777778) skewX(1.000000)">
    <sodipodi:namedview xmlns:sodipodi="http://sodipodi.sourceforge.net/DTD/sodipodi-0.dtd" id="ScribMaster"/>
    <filter id="blur">
      <feGaussianBlur stdDeviation="5.0"/>
    </filter>
    <defs/>
    <g xmlns:inkscape="http://www.inkscape.org/namespaces/inkscape" xmlns:scribmaster="http://scribmaster.com/scribmaster" id="1627855359825" transform="matrix(1.041329,0,0,1.041329,-16.413086,-15.68722)" style="opacity:1.0">
      <g id="1627851273342" inkscape:groupmode="layer" transform="matrix(1,0,0,1,0,0)" style="opacity:1.0">
        <path transform="matrix(1,0,0,1,0,0)" d="M 78.181885 89.00857 L 77.22157 89.96887 L 77.22157 93.81012 L 76.26126 96.691055 L 76.26126 102.45292 L 75.30095 109.175095 L 74.340645 115.89728 L 73.38033 121.65914 L 73.38033 128.38132 L 72.42002 133.18288 L 72.42002 137.98442 L 72.42002 140.86536 L 72.42002 143.74629 L 73.38033 145.66692 L 74.340645 146.62723 L 75.30095 147.58752 L 75.30095 148.54784 L 76.26126 149.50815 L 77.22157 149.50815 L 78.181885 150.46846 L 80.10251 150.46846 L 82.023125 150.46846 L 84.90406 151.42877 L 87.784996 151.42877 L 91.626236 150.46846 L 94.50717 149.50815 L 97.38811 148.54784 L 101.22935 147.58752 L 104.11028 146.62723 L 106.99122 145.66692 L 108.911835 143.74629 L 111.79277 142.78598 L 113.713394 141.82567 L 115.63402 140.86536 L 116.59433 139.90504 L 118.514946 137.98442 L 119.47526 137.02411 L 121.39588 136.0638 L 123.316505 136.0638 L 124.27682 135.10349" scribmaster:penstyle="draw" style="stroke:#000000;stroke-width:5.0;stroke-linejoin:round;stroke-linecap:round;stroke-opacity:1.0;fill:none"/>
        <path transform="matrix(1,0,0,1,0,0)" d="M 126.19743 97.65137 L 125.23713 98.61167 L 125.23713 99.57198 L 124.27682 101.49261 L 124.27682 106.29417 L 124.27682 113.01634 L 124.27682 126.46069 L 124.27682 146.62723 L 124.27682 167.75406 L 125.23713 185.03966 L 126.19743 198.48402 L 126.19743 209.04744 L 126.19743 215.76962 L 125.23713 220.57117 L 126.19743 223.4521 L 126.19743 224.41241 L 127.157745 224.41241 L 128.11806 223.4521" scribmaster:penstyle="draw" style="stroke:#000000;stroke-width:5.0;stroke-linejoin:round;stroke-linecap:round;stroke-opacity:1.0;fill:none"/>
      </g>
    </g>
  </g>
</svg>
