<?xml version='1.0' encoding='ASCII' standalone='yes'?>
<svg width = "6in" height = "4in" xmlns="http://www.w3.org/2000/svg" xmlns:xlink="http://www.w3.org/1999/xlink" version="1.1">
  <g transform="translate(0.814537017743164, 0) scale(1 1) translate(1.0473038956930552, 0) scale(1 1) translate(0, 0) scale(0.1 0.1)  skewX(-1.000000) skewX(-0.777778)">
    <sodipodi:namedview xmlns:sodipodi="http://sodipodi.sourceforge.net/DTD/sodipodi-0.dtd" id="ScribMaster"/>
    <filter id="blur">
      <feGaussianBlur stdDeviation="5.0"/>
    </filter>
    <defs/>
    <g xmlns:inkscape="http://www.inkscape.org/namespaces/inkscape" xmlns:scribmaster="http://scribmaster.com/scribmaster" id="1627855456576" transform="matrix(1.041329,0,0,1.041329,-16.413086,-18.68722)" style="opacity:1.0">
      <g id="1627851273342" inkscape:groupmode="layer" transform="matrix(1,0,0,1,0,0)" style="opacity:1.0">
        <path transform="matrix(1,0,0,1,0,0)" d="M 130.03868 96.69105 L 129.07837 96.69105 L 128.11806 96.69105 L 127.157745 96.69105 L 126.19743 96.69105 L 125.23713 96.69105 L 124.27682 97.65136 L 122.35619 98.61167 L 119.47526 100.532295 L 116.59433 102.45291 L 111.79277 105.33385 L 106.03091 110.13541 L 98.34842 116.85758 L 88.74531 127.421005 L 80.10251 137.98442 L 71.45971 153.3494 L 64.73753 167.75406 L 61.8566 180.23811 L 59.935978 191.76184 L 60.89629 203.28557 L 62.81691 213.849 L 68.57877 222.49179 L 76.26126 229.21397 L 83.94375 234.97585 L 92.58655 238.81708 L 101.22935 241.69801 L 108.911835 242.65833 L 116.59433 242.65833 L 122.35619 241.69801 L 126.19743 240.7377 L 130.999 238.81708 L 134.84024 236.89647 L 138.68149 234.01553 L 141.56242 230.17429 L 144.44336 226.33304 L 147.3243 220.57117 L 149.2449 214.80931 L 150.20522 209.04744 L 149.2449 204.24588 L 147.3243 198.48402 L 144.44336 193.68246 L 140.60211 188.8809 L 134.84024 185.99997 L 127.157745 183.11905 L 118.514946 182.15874 L 107.95153 183.11905 L 95.46748 185.99997 L 84.90406 189.84122 L 78.181885 195.60309 L 72.42002 203.28557 L 71.45971 209.04744" scribmaster:penstyle="draw" style="stroke:#000000;stroke-width:5.0;stroke-linejoin:round;stroke-linecap:round;stroke-opacity:1.0;fill:none"/>
      </g>
    </g>
  </g>
</svg>
