<?xml version='1.0' encoding='ASCII' standalone='yes'?>
<svg width = "6in" height = "4in" xmlns="http://www.w3.org/2000/svg" xmlns:xlink="http://www.w3.org/1999/xlink" version="1.1">
  <g transform="translate(0.1163554293259576, 0) scale(1 1) translate(0.34906978865732075, 0) scale(1 1) translate(0.5817946504483253, 0) scale(1 1) translate(0.814537017743164, 0) scale(1 1) translate(1.0473038956930552, 0) scale(1 1) translate(0, 0) scale(0.1 0.1)  skewX(-1.000000) skewX(-0.777778) skewX(-0.555556) skewX(-0.333333) skewX(-0.111111)">
    <sodipodi:namedview xmlns:sodipodi="http://sodipodi.sourceforge.net/DTD/sodipodi-0.dtd" id="ScribMaster"/>
    <filter id="blur">
      <feGaussianBlur stdDeviation="5.0"/>
    </filter>
    <defs/>
    <g xmlns:inkscape="http://www.inkscape.org/namespaces/inkscape" xmlns:scribmaster="http://scribmaster.com/scribmaster" id="1627855435903" transform="matrix(1.041329,0,0,1.041329,-16.413086,-18.68722)" style="opacity:1.0">
      <g id="1627851273342" inkscape:groupmode="layer" transform="matrix(1,0,0,1,0,0)" style="opacity:1.0">
        <path transform="matrix(1,0,0,1,0,0)" d="M 117.554634 91.889496 L 115.63402 91.889496 L 114.673706 91.889496 L 112.75308 91.889496 L 111.79277 92.8498 L 109.87215 93.81011 L 106.99122 95.730736 L 105.070595 97.65136 L 102.18966 100.532295 L 100.269035 102.45291 L 97.38811 106.29416 L 95.46748 111.09571 L 92.58655 114.93696 L 88.74531 121.659134 L 83.94375 131.26225 L 79.1422 143.74629 L 75.30095 156.23033 L 71.45971 167.75406 L 69.539085 178.31749 L 68.57877 187.9206 L 68.57877 195.60309 L 70.4994 203.28557 L 74.340645 210.00775 L 78.181885 215.76962 L 82.98344 221.53148 L 88.74531 225.37273 L 95.46748 228.25366 L 101.22935 231.1346 L 106.99122 232.09491 L 111.79277 232.09491 L 116.59433 232.09491 L 119.47526 230.17429 L 123.316505 229.21397 L 127.157745 227.29335 L 130.03868 224.41241 L 133.87993 221.53148 L 136.76086 217.69025 L 139.6418 213.849 L 141.56242 209.04744 L 143.48303 205.20619 L 144.44336 200.40465 L 144.44336 196.5634 L 142.52274 193.68246 L 140.60211 190.80153 L 137.72118 188.8809 L 133.87993 186.96028 L 128.11806 185.99997 L 122.35619 186.96028 L 114.673706 187.9206 L 106.99122 189.84122 L 99.30872 191.76184 L 92.58655 194.64278 L 87.784996 197.52371 L 83.94375 200.40465 L 82.98344 203.28557 L 83.94375 204.24588" scribmaster:penstyle="draw" style="stroke:#000000;stroke-width:5.0;stroke-linejoin:round;stroke-linecap:round;stroke-opacity:1.0;fill:none"/>
      </g>
    </g>
  </g>
</svg>
