<?xml version='1.0' encoding='UTF-8' standalone='no' ?><svg xmlns="http://www.w3.org/2000/svg" xmlns:scribmaster="http://scribmaster.com/scribmaster" xmlns:sodipodi="http://sodipodi.sourceforge.net/DTD/sodipodi-0.dtd" xmlns:inkscape="http://www.inkscape.org/namespaces/inkscape" xmlns:xlink="http://www.w3.org/1999/xlink" version="1.2" width="800" height="1014"><sodipodi:namedview id="ScribMaster" /><filter id="blur"><feGaussianBlur stdDeviation="5.0" /></filter><defs /><g id="1625349992234" transform="matrix(1,0,0,1,-1.316833,-1.489594)" style="opacity:1.0"><g id="1625348338071" inkscape:groupmode="layer" transform="matrix(1,0,0,1,0,0)" style="opacity:1.0"><path transform="matrix(1,0,0,1,0,0)" d="M 41.316833 49.489594 L 43.316833 49.489594 L 47.316833 49.489594 L 53.316833 49.489594 L 62.316833 49.489594 L 70.31683 48.489594 L 78.31683 47.489594 L 85.31683 46.489594 L 91.31683 45.489594 L 97.31683 44.489594 L 102.31683 44.489594 L 107.31683 43.489594 L 110.31683 43.489594 L 112.31683 43.489594" scribmaster:penstyle="draw" style="stroke:#000000;stroke-width:5.0;stroke-linejoin:round;stroke-linecap:round;stroke-opacity:1.0;fill:none" /><path transform="matrix(1,0,0,1,0,0)" d="M 81.31683 61.489594 L 81.31683 63.489594 L 81.31683 64.48959 L 81.31683 67.48959 L 81.31683 71.48959 L 81.31683 77.48959 L 81.31683 86.48959 L 80.31683 98.48959 L 79.31683 110.48959 L 78.31683 122.48959 L 76.31683 137.4896 L 75.31683 149.4896 L 74.31683 160.4896 L 73.31683 169.4896 L 72.31683 179.4896 L 71.31683 189.4896 L 70.31683 197.4896 L 69.31683 204.4896 L 69.31683 211.4896 L 68.31683 217.4896 L 68.31683 222.4896 L 68.31683 225.4896 L 68.31683 226.4896 L 68.31683 227.4896 L 69.31683 228.4896 L 70.31683 228.4896" scribmaster:penstyle="draw" style="stroke:#000000;stroke-width:5.0;stroke-linejoin:round;stroke-linecap:round;stroke-opacity:1.0;fill:none" /><path transform="matrix(1,0,0,1,0,0)" d="M 37.316833 235.4896 L 39.316833 233.4896 L 43.316833 231.4896 L 51.316833 229.4896 L 64.31683 227.4896 L 78.31683 224.4896 L 92.31683 221.4896 L 107.31683 219.4896 L 120.31683 215.4896" scribmaster:penstyle="draw" style="stroke:#000000;stroke-width:5.0;stroke-linejoin:round;stroke-linecap:round;stroke-opacity:1.0;fill:none" /></g></g></svg>