<?xml version='1.0' encoding='ASCII' standalone='yes'?>
<svg width = "6in" height = "4in" xmlns="http://www.w3.org/2000/svg" xmlns:xlink="http://www.w3.org/1999/xlink" version="1.1">
  <g transform="translate(-0.8145370177431639, 0) scale(1 1) translate(-0.581794650448325, 0) scale(1 1) translate(-0.34906978865732063, 0) scale(1 1) translate(-0.1163554293259576, 0) scale(1 1) translate(0.1163554293259576, 0) scale(1 1) translate(0.34906978865732075, 0) scale(1 1) translate(0.5817946504483253, 0) scale(1 1) translate(0.814537017743164, 0) scale(1 1) translate(1.0473038956930552, 0) scale(1 1) translate(0, 0) scale(0.1 0.1)  skewX(-1.000000) skewX(-0.777778) skewX(-0.555556) skewX(-0.333333) skewX(-0.111111) skewX(0.111111) skewX(0.333333) skewX(0.555556) skewX(0.777778)">
    <sodipodi:namedview xmlns:sodipodi="http://sodipodi.sourceforge.net/DTD/sodipodi-0.dtd" id="ScribMaster"/>
    <filter id="blur">
      <feGaussianBlur stdDeviation="5.0"/>
    </filter>
    <defs/>
    <g xmlns:inkscape="http://www.inkscape.org/namespaces/inkscape" xmlns:scribmaster="http://scribmaster.com/scribmaster" id="1627855016350" transform="matrix(1.041329,0,0,1.041329,-16.413086,-15.68722)" style="opacity:1.0">
      <g id="1627851273342" inkscape:groupmode="layer" transform="matrix(1,0,0,1,0,0)" style="opacity:1.0">
        <path transform="matrix(1,0,0,1,0,0)" d="M 172.29237 73.643585 L 171.33206 73.643585 L 171.33206 72.68327 L 170.37175 72.68327 L 169.41144 72.68327 L 168.45113 72.68327 L 167.49081 73.643585 L 166.5305 74.6039 L 164.6099 75.56421 L 163.64958 78.445145 L 160.76865 81.32607 L 157.88771 85.16732 L 154.04646 90.929184 L 147.3243 99.57198 L 140.60211 109.175095 L 131.9593 119.73852 L 124.27682 130.30194 L 116.59433 139.90504 L 108.911835 148.54784 L 101.22935 158.15096 L 93.54686 166.79375 L 87.784996 175.43655 L 79.1422 185.03966 L 72.42002 192.72215 L 66.65815 200.40463 L 61.8566 207.12682 L 58.015354 212.88869 L 56.094734 216.72993 L 55.134422 220.57117 L 54.17411 222.49179 L 54.17411 224.41241 L 53.2138 224.41241 L 53.2138 225.37273 L 54.17411 225.37273 L 55.134422 225.37273" scribmaster:penstyle="draw" style="stroke:#000000;stroke-width:5.0;stroke-linejoin:round;stroke-linecap:round;stroke-opacity:1.0;fill:none"/>
        <path transform="matrix(1,0,0,1,0,0)" d="M 65.697845 85.16732 L 66.65815 86.12763 L 67.61846 87.087944 L 69.539085 89.96887 L 71.45971 92.84981 L 73.38033 97.65137 L 76.26126 101.49261 L 79.1422 105.333855 L 82.023125 110.13541 L 84.90406 115.89728 L 89.70562 123.579765 L 94.50717 131.26225 L 98.34842 137.98442 L 105.070595 147.58752 L 110.83246 157.19064 L 116.59433 164.87312 L 121.39588 172.55562 L 127.157745 179.2778 L 132.91962 185.99997 L 137.72118 191.76184 L 143.48303 196.5634 L 147.3243 201.36494 L 152.12584 206.1665 L 156.9274 210.00775 L 160.76865 212.88869 L 165.57019 215.76962 L 169.41144 217.69023 L 172.29237 219.61086 L 175.17331 220.57117 L 177.09393 222.49179 L 179.01456 223.4521 L 180.93518 224.41241 L 181.8955 225.37273 L 182.85579 225.37273 L 183.8161 226.33304 L 184.77641 226.33304 L 185.73672 227.29335" scribmaster:penstyle="draw" style="stroke:#000000;stroke-width:5.0;stroke-linejoin:round;stroke-linecap:round;stroke-opacity:1.0;fill:none"/>
      </g>
    </g>
  </g>
</svg>
