<?xml version='1.0' encoding='ASCII' standalone='yes'?>
<svg width = "6in" height = "4in" xmlns="http://www.w3.org/2000/svg" xmlns:xlink="http://www.w3.org/1999/xlink" version="1.1">
  <g transform="translate(0.5817946504483253, 0) scale(1 1) translate(0.814537017743164, 0) scale(1 1) translate(1.0473038956930552, 0) scale(1 1) translate(0, 0) scale(0.1 0.1)  skewX(-1.000000) skewX(-0.777778) skewX(-0.555556)">
    <sodipodi:namedview xmlns:sodipodi="http://sodipodi.sourceforge.net/DTD/sodipodi-0.dtd" id="ScribMaster"/>
    <filter id="blur">
      <feGaussianBlur stdDeviation="5.0"/>
    </filter>
    <defs/>
    <g xmlns:inkscape="http://www.inkscape.org/namespaces/inkscape" xmlns:scribmaster="http://scribmaster.com/scribmaster" id="1625351938492" transform="matrix(1,0,0,1,-1.316833,-1.489594)" style="opacity:1.0">
      <g id="1625348338071" inkscape:groupmode="layer" transform="matrix(1,0,0,1,0,0)" style="opacity:1.0">
        <path transform="matrix(1,0,0,1,0,0)" d="M 81.31683 52.489594 L 79.31683 52.489594 L 78.31683 53.489594 L 77.31683 54.489594 L 76.31683 55.489594 L 74.31683 58.489594 L 72.31683 61.489594 L 69.31683 65.48959 L 66.31683 70.48959 L 63.316833 76.48959 L 59.316833 83.48959 L 56.316833 91.48959 L 54.316833 99.48959 L 52.316833 107.48959 L 52.316833 114.48959 L 52.316833 121.48959 L 54.316833 127.48959 L 57.316833 133.4896 L 61.316833 139.4896 L 64.31683 145.4896 L 68.31683 151.4896 L 73.31683 156.4896 L 77.31683 162.4896 L 81.31683 167.4896 L 85.31683 173.4896 L 88.31683 179.4896 L 91.31683 185.4896 L 93.31683 190.4896 L 94.31683 196.4896 L 95.31683 202.4896 L 94.31683 208.4896 L 91.31683 214.4896 L 89.31683 219.4896 L 86.31683 224.4896 L 81.31683 229.4896 L 77.31683 232.4896 L 73.31683 234.4896 L 68.31683 234.4896 L 65.31683 234.4896 L 62.316833 232.4896 L 60.316833 230.4896 L 59.316833 228.4896 L 57.316833 225.4896 L 56.316833 220.4896 L 57.316833 214.4896 L 59.316833 205.4896 L 63.316833 193.4896 L 68.31683 178.4896 L 74.31683 165.4896 L 81.31683 151.4896 L 88.31683 139.4896 L 95.31683 124.48959 L 102.31683 111.48959 L 107.31683 100.48959 L 111.31683 90.48959 L 113.31683 81.48959 L 114.31683 73.48959 L 114.31683 67.48959 L 114.31683 63.489594 L 113.31683 60.489594 L 112.31683 59.489594 L 110.31683 58.489594 L 107.31683 57.489594 L 104.31683 56.489594 L 100.31683 55.489594 L 96.31683 55.489594 L 91.31683 55.489594 L 85.31683 56.489594 L 78.31683 57.489594 L 72.31683 58.489594" scribmaster:penstyle="draw" style="stroke:#000000;stroke-width:5.0;stroke-linejoin:round;stroke-linecap:round;stroke-opacity:1.0;fill:none"/>
      </g>
    </g>
  </g>
</svg>
