<?xml version='1.0' encoding='ASCII' standalone='yes'?>
<svg width = "6in" height = "4in" xmlns="http://www.w3.org/2000/svg" xmlns:xlink="http://www.w3.org/1999/xlink" version="1.1">
  <g transform="translate(0.5817946504483253, 0) scale(1 1) translate(0.814537017743164, 0) scale(1 1) translate(1.0473038956930552, 0) scale(1 1) translate(0, 0) scale(0.1 0.1)  skewX(-1.000000) skewX(-0.777778) skewX(-0.555556)">
    <sodipodi:namedview xmlns:sodipodi="http://sodipodi.sourceforge.net/DTD/sodipodi-0.dtd" id="ScribMaster"/>
    <filter id="blur">
      <feGaussianBlur stdDeviation="5.0"/>
    </filter>
    <defs/>
    <g xmlns:inkscape="http://www.inkscape.org/namespaces/inkscape" xmlns:scribmaster="http://scribmaster.com/scribmaster" id="1625351924216" transform="matrix(1,0,0,1,-1.316833,-1.489594)" style="opacity:1.0">
      <g id="1625348338071" inkscape:groupmode="layer" transform="matrix(1,0,0,1,0,0)" style="opacity:1.0">
        <path transform="matrix(1,0,0,1,0,0)" d="M 76.31683 46.489594 L 73.31683 47.489594 L 73.31683 48.489594 L 72.31683 49.489594 L 71.31683 52.489594 L 69.31683 56.489594 L 67.31683 61.489594 L 65.31683 66.48959 L 63.316833 73.48959 L 61.316833 81.48959 L 60.316833 90.48959 L 60.316833 98.48959 L 61.316833 107.48959 L 63.316833 114.48959 L 66.31683 121.48959 L 68.31683 128.4896 L 72.31683 136.4896 L 77.31683 143.4896 L 82.31683 151.4896 L 86.31683 157.4896 L 91.31683 164.4896 L 96.31683 170.4896 L 101.31683 176.4896 L 105.31683 181.4896 L 108.31683 187.4896 L 111.31683 192.4896 L 112.31683 197.4896 L 112.31683 201.4896 L 110.31683 204.4896 L 108.31683 207.4896 L 105.31683 210.4896 L 100.31683 213.4896 L 94.31683 215.4896 L 88.31683 217.4896 L 81.31683 218.4896 L 75.31683 218.4896 L 68.31683 217.4896 L 62.316833 215.4896 L 54.316833 211.4896 L 46.316833 206.4896 L 41.316833 202.4896 L 38.316833 196.4896 L 38.316833 191.4896 L 39.316833 185.4896 L 40.316833 179.4896 L 43.316833 171.4896 L 50.316833 159.4896 L 58.316833 148.4896 L 67.31683 136.4896 L 77.31683 123.48959 L 86.31683 113.48959 L 94.31683 102.48959 L 101.31683 93.48959 L 107.31683 85.48959 L 111.31683 76.48959 L 114.31683 68.48959 L 115.31683 62.489594 L 115.31683 56.489594 L 114.31683 53.489594 L 112.31683 50.489594 L 109.31683 49.489594 L 106.31683 49.489594 L 101.31683 49.489594 L 97.31683 49.489594 L 93.31683 49.489594 L 89.31683 49.489594 L 84.31683 50.489594 L 80.31683 51.489594" scribmaster:penstyle="draw" style="stroke:#000000;stroke-width:5.0;stroke-linejoin:round;stroke-linecap:round;stroke-opacity:1.0;fill:none"/>
      </g>
    </g>
  </g>
</svg>
