<?xml version='1.0' encoding='UTF-8' standalone='no' ?><svg xmlns="http://www.w3.org/2000/svg" xmlns:scribmaster="http://scribmaster.com/scribmaster" xmlns:sodipodi="http://sodipodi.sourceforge.net/DTD/sodipodi-0.dtd" xmlns:inkscape="http://www.inkscape.org/namespaces/inkscape" xmlns:xlink="http://www.w3.org/1999/xlink" version="1.2" width="800" height="1014"><sodipodi:namedview id="ScribMaster" /><filter id="blur"><feGaussianBlur stdDeviation="5.0" /></filter><defs /><g id="1625349027721" transform="matrix(1,0,0,1,0,0)" style="opacity:1.0"><g id="1625348338071" inkscape:groupmode="layer" transform="matrix(1,0,0,1,0,0)" style="opacity:1.0"><path transform="matrix(1,0,0,1,0,0)" d="M 47.0 131.0 L 47.0 132.0 L 47.0 135.0 L 47.0 140.0 L 46.0 147.0 L 45.0 158.0 L 44.0 173.0 L 43.0 185.0 L 42.0 196.0 L 42.0 204.0 L 41.0 211.0 L 40.0 216.0 L 40.0 219.0 L 40.0 220.0 L 40.0 219.0 L 40.0 218.0 L 40.0 215.0 L 41.0 211.0 L 42.0 204.0 L 45.0 191.0 L 51.0 176.0 L 58.0 160.0 L 65.0 147.0 L 72.0 136.0 L 78.0 128.0 L 83.0 122.0 L 87.0 118.0 L 90.0 118.0 L 92.0 119.0 L 94.0 121.0 L 95.0 123.0 L 96.0 127.0 L 97.0 132.0 L 98.0 140.0 L 99.0 150.0 L 99.0 160.0 L 99.0 173.0 L 99.0 183.0 L 99.0 192.0 L 100.0 199.0 L 100.0 205.0 L 101.0 208.0" scribmaster:penstyle="draw" style="stroke:#000000;stroke-width:5.0;stroke-linejoin:round;stroke-linecap:round;stroke-opacity:1.0;fill:none" /></g></g></svg>