<?xml version='1.0' encoding='ASCII' standalone='yes'?>
<svg width = "6in" height = "4in" xmlns="http://www.w3.org/2000/svg" xmlns:xlink="http://www.w3.org/1999/xlink" version="1.1">
  <g transform="translate(-0.8145370177431639, 0) scale(1 1) translate(-0.581794650448325, 0) scale(1 1) translate(-0.34906978865732063, 0) scale(1 1) translate(-0.1163554293259576, 0) scale(1 1) translate(0.1163554293259576, 0) scale(1 1) translate(0.34906978865732075, 0) scale(1 1) translate(0.5817946504483253, 0) scale(1 1) translate(0.814537017743164, 0) scale(1 1) translate(1.0473038956930552, 0) scale(1 1) translate(0, 0) scale(0.1 0.1)  skewX(-1.000000) skewX(-0.777778) skewX(-0.555556) skewX(-0.333333) skewX(-0.111111) skewX(0.111111) skewX(0.333333) skewX(0.555556) skewX(0.777778)">
    <sodipodi:namedview xmlns:sodipodi="http://sodipodi.sourceforge.net/DTD/sodipodi-0.dtd" id="ScribMaster"/>
    <filter id="blur">
      <feGaussianBlur stdDeviation="5.0"/>
    </filter>
    <defs/>
    <g xmlns:inkscape="http://www.inkscape.org/namespaces/inkscape" xmlns:scribmaster="http://scribmaster.com/scribmaster" id="1627851564315" transform="matrix(1.032782,0,0,1.032782,-14.899414,-13.325867)" style="opacity:1.0">
      <g id="1627851273342" inkscape:groupmode="layer" transform="matrix(1,0,0,1,0,0)" style="opacity:1.0">
        <path transform="matrix(1,0,0,1,0,0)" d="M 793.0 698.0 L 793.0 698.01" scribmaster:penstyle="draw" style="stroke:#000000;stroke-width:5.0;stroke-linejoin:round;stroke-linecap:round;stroke-opacity:1.0;fill:none"/>
        <path transform="matrix(1,0,0,1,0,0)" d="M 139.33185 68.09362 L 138.36359 68.09362 L 137.39532 68.09362 L 136.42706 69.06188 L 136.42706 70.030136 L 135.4588 72.93491 L 135.4588 79.71272 L 134.49055 92.30009 L 133.5223 108.76048 L 133.5223 127.157394 L 133.5223 145.5543 L 133.5223 160.07819 L 133.5223 169.76076 L 133.5223 177.50684 L 133.5223 184.28464 L 132.55403 190.0942 L 132.55403 192.03072 L 131.58577 193.96722 L 131.58577 194.93549 L 130.61751 194.93549 L 129.64926 193.96722 L 129.64926 192.99896 L 128.681 192.03072 L 127.71274 190.0942 L 126.74448 189.12593 L 125.776215 187.18942 L 123.8397 185.2529 L 121.90318 182.34813 L 118.998405 179.44334 L 115.125374 176.53857 L 110.28408 174.60205 L 105.44279 172.66554 L 101.569756 171.69728 L 96.72846 172.66554 L 91.88717 173.6338 L 88.01414 175.57031 L 84.1411 178.4751 L 81.23632 183.31639 L 78.33155 189.12593 L 78.33155 194.93549 L 78.33155 200.74504 L 79.299805 206.5546 L 81.23632 212.36414 L 83.172844 217.20543 L 86.077614 222.04672 L 88.98239 224.9515 L 92.85542 227.85628 L 96.72846 228.82454 L 101.569756 227.85628 L 106.41105 224.9515 L 111.25234 222.04672 L 116.093636 217.20543 L 120.93492 212.36414 L 124.80796 208.4911 L 128.681 204.61807 L 131.58577 200.74504" scribmaster:penstyle="draw" style="stroke:#000000;stroke-width:5.0;stroke-linejoin:round;stroke-linecap:round;stroke-opacity:1.0;fill:none"/>
      </g>
    </g>
  </g>
</svg>
