<?xml version='1.0' encoding='ASCII' standalone='yes'?>
<svg width = "6in" height = "4in" xmlns="http://www.w3.org/2000/svg" xmlns:xlink="http://www.w3.org/1999/xlink" version="1.1">
  <g transform="translate(-0.1163554293259576, 0) scale(1 1) translate(0.1163554293259576, 0) scale(1 1) translate(0.34906978865732075, 0) scale(1 1) translate(0.5817946504483253, 0) scale(1 1) translate(0.814537017743164, 0) scale(1 1) translate(1.0473038956930552, 0) scale(1 1) translate(0, 0) scale(0.1 0.1)  skewX(-1.000000) skewX(-0.777778) skewX(-0.555556) skewX(-0.333333) skewX(-0.111111) skewX(0.111111)">
    <sodipodi:namedview xmlns:sodipodi="http://sodipodi.sourceforge.net/DTD/sodipodi-0.dtd" id="ScribMaster"/>
    <filter id="blur">
      <feGaussianBlur stdDeviation="5.0"/>
    </filter>
    <defs/>
    <g xmlns:inkscape="http://www.inkscape.org/namespaces/inkscape" xmlns:scribmaster="http://scribmaster.com/scribmaster" id="1627851599761" transform="matrix(1.032782,0,0,1.032782,-14.899414,-13.325867)" style="opacity:1.0">
      <g id="1627851273342" inkscape:groupmode="layer" transform="matrix(1,0,0,1,0,0)" style="opacity:1.0">
        <path transform="matrix(1,0,0,1,0,0)" d="M 793.0 698.0 L 793.0 698.01" scribmaster:penstyle="draw" style="stroke:#000000;stroke-width:5.0;stroke-linejoin:round;stroke-linecap:round;stroke-opacity:1.0;fill:none"/>
        <path transform="matrix(1,0,0,1,0,0)" d="M 139.33185 77.77621 L 138.36359 77.77621 L 137.39532 77.77621 L 136.42706 76.807945 L 136.42706 78.74447 L 136.42706 81.64925 L 136.42706 86.49054 L 137.39532 97.14138 L 136.42706 111.66526 L 137.39532 127.157394 L 138.36359 149.42734 L 139.33185 163.95122 L 140.3001 176.53857 L 142.23662 185.2529 L 144.17313 191.06245 L 146.10965 195.90375 L 147.07791 197.84026 L 147.07791 198.80852 L 147.07791 197.84026 L 146.10965 196.87201 L 146.10965 195.90375 L 145.14139 193.96722 L 145.14139 192.03072 L 144.17313 191.06245 L 143.20486 189.12593 L 140.3001 186.22116 L 138.36359 183.31639 L 135.4588 180.4116 L 132.55403 177.50684 L 127.71274 175.57031 L 122.871445 172.66554 L 116.093636 171.69728 L 110.28408 170.72902 L 104.474525 171.69728 L 99.63324 173.6338 L 94.79195 177.50684 L 90.91891 183.31639 L 87.045876 192.03072 L 84.1411 202.68155 L 84.1411 212.36414 L 85.10936 220.11021 L 89.95065 225.91975 L 95.7602 228.82454 L 103.50627 228.82454 L 111.25234 226.88802 L 118.998405 223.01498 L 126.74448 217.20543 L 133.5223 212.36414 L 138.36359 208.4911 L 140.3001 204.61807" scribmaster:penstyle="draw" style="stroke:#000000;stroke-width:5.0;stroke-linejoin:round;stroke-linecap:round;stroke-opacity:1.0;fill:none"/>
      </g>
    </g>
  </g>
</svg>
