<?xml version='1.0' encoding='ASCII' standalone='yes'?>
<svg width = "6in" height = "4in" xmlns="http://www.w3.org/2000/svg" xmlns:xlink="http://www.w3.org/1999/xlink" version="1.1">
  <g transform="translate(-1.0473038956930552, 0) scale(1 1) translate(-0.8145370177431639, 0) scale(1 1) translate(-0.581794650448325, 0) scale(1 1) translate(-0.34906978865732063, 0) scale(1 1) translate(-0.1163554293259576, 0) scale(1 1) translate(0.1163554293259576, 0) scale(1 1) translate(0.34906978865732075, 0) scale(1 1) translate(0.5817946504483253, 0) scale(1 1) translate(0.814537017743164, 0) scale(1 1) translate(1.0473038956930552, 0) scale(1 1) translate(0, 0) scale(0.1 0.1)  skewX(-1.000000) skewX(-0.777778) skewX(-0.555556) skewX(-0.333333) skewX(-0.111111) skewX(0.111111) skewX(0.333333) skewX(0.555556) skewX(0.777778) skewX(1.000000)">
    <sodipodi:namedview xmlns:sodipodi="http://sodipodi.sourceforge.net/DTD/sodipodi-0.dtd" id="ScribMaster"/>
    <filter id="blur">
      <feGaussianBlur stdDeviation="5.0"/>
    </filter>
    <defs/>
    <g xmlns:inkscape="http://www.inkscape.org/namespaces/inkscape" xmlns:scribmaster="http://scribmaster.com/scribmaster" id="1627851624944" transform="matrix(1.032782,0,0,1.032782,-14.899414,-13.325867)" style="opacity:1.0">
      <g id="1627851273342" inkscape:groupmode="layer" transform="matrix(1,0,0,1,0,0)" style="opacity:1.0">
        <path transform="matrix(1,0,0,1,0,0)" d="M 793.0 698.0 L 793.0 698.01" scribmaster:penstyle="draw" style="stroke:#000000;stroke-width:5.0;stroke-linejoin:round;stroke-linecap:round;stroke-opacity:1.0;fill:none"/>
        <path transform="matrix(1,0,0,1,0,0)" d="M 131.58577 73.903175 L 130.61751 73.903175 L 129.64926 73.903175 L 129.64926 74.87143 L 130.61751 75.83969 L 130.61751 78.74447 L 130.61751 83.58576 L 132.55403 95.204865 L 133.5223 107.79222 L 134.49055 123.28436 L 136.42706 138.77649 L 138.36359 151.36385 L 140.3001 162.0147 L 141.26836 170.72902 L 143.20486 177.50684 L 144.17313 182.34813 L 144.17313 185.2529 L 144.17313 187.18942 L 144.17313 188.15768 L 144.17313 187.18942 L 144.17313 186.22116 L 143.20486 185.2529 L 142.23662 184.28464 L 141.26836 182.34813 L 139.33185 179.44334 L 137.39532 175.57031 L 135.4588 172.66554 L 132.55403 169.76076 L 128.681 166.85599 L 122.871445 164.91946 L 117.06189 162.98296 L 110.28408 162.0147 L 103.50627 162.0147 L 97.69672 162.98296 L 91.88717 165.88773 L 87.045876 168.79251 L 83.172844 172.66554 L 81.23632 177.50684 L 80.26807 183.31639 L 80.26807 191.06245 L 82.20458 198.80852 L 85.10936 205.58633 L 88.98239 210.42763 L 93.823685 214.30066 L 99.63324 216.23718 L 105.44279 216.23718 L 112.2206 215.26892 L 118.03015 212.36414 L 123.8397 208.4911 L 129.64926 204.61807 L 134.49055 200.74504 L 138.36359 196.87201" scribmaster:penstyle="draw" style="stroke:#000000;stroke-width:5.0;stroke-linejoin:round;stroke-linecap:round;stroke-opacity:1.0;fill:none"/>
      </g>
    </g>
  </g>
</svg>
