<?xml version='1.0' encoding='ASCII' standalone='yes'?>
<svg width = "6in" height = "4in" xmlns="http://www.w3.org/2000/svg" xmlns:xlink="http://www.w3.org/1999/xlink" version="1.1">
  <g transform="translate(0.814537017743164, 0) scale(1 1) translate(1.0473038956930552, 0) scale(1 1) translate(0, 0) scale(0.1 0.1)  skewX(-1.000000) skewX(-0.777778)">
    <sodipodi:namedview xmlns:sodipodi="http://sodipodi.sourceforge.net/DTD/sodipodi-0.dtd" id="ScribMaster"/>
    <filter id="blur">
      <feGaussianBlur stdDeviation="5.0"/>
    </filter>
    <defs/>
    <g xmlns:inkscape="http://www.inkscape.org/namespaces/inkscape" xmlns:scribmaster="http://scribmaster.com/scribmaster" id="1627852670689" transform="matrix(1.032782,0,0,1.032782,-14.899414,-13.325867)" style="opacity:1.0">
      <g id="1627851273342" inkscape:groupmode="layer" transform="matrix(1,0,0,1,0,0)" style="opacity:1.0">
        <path transform="matrix(1,0,0,1,0,0)" d="M 77.36329 175.57031 L 76.395035 177.50684 L 76.395035 180.4116 L 76.395035 185.2529 L 76.395035 192.03072 L 76.395035 202.68155 L 75.42677 218.17369 L 75.42677 232.69757 L 74.45852 245.28493 L 74.45852 255.93578 L 74.45852 263.68185 L 74.45852 271.42792 L 72.521996 276.26923 L 72.521996 280.14224 L 71.55374 281.1105 L 71.55374 282.07877 L 70.58548 281.1105 L 70.58548 280.14224 L 69.617226 278.20575 L 69.617226 277.2375 L 68.648964 274.3327 L 68.648964 268.52313 L 67.6807 261.74533 L 66.71245 253.031 L 66.71245 244.31668 L 66.71245 234.6341 L 66.71245 223.98325 L 67.6807 213.3324 L 68.648964 203.64981 L 70.58548 193.96722 L 72.521996 183.31639 L 76.395035 173.6338 L 79.299805 164.91946 L 82.20458 156.20514 L 86.077614 148.45908 L 89.95065 141.68126 L 92.85542 135.87172 L 96.72846 131.99869 L 100.601494 128.12566 L 103.50627 127.157394 L 106.41105 127.157394 L 109.31582 128.12566 L 112.2206 129.0939 L 114.15711 131.03043 L 117.06189 132.96695 L 119.96667 135.87172 L 122.871445 138.77649 L 124.80796 141.68126 L 126.74448 146.52255 L 128.681 151.36385 L 129.64926 156.20514 L 129.64926 162.98296 L 128.681 169.76076 L 126.74448 176.53857 L 124.80796 183.31639 L 121.90318 189.12593 L 118.03015 193.96722 L 114.15711 198.80852 L 109.31582 202.68155 L 105.44279 205.58633 L 100.601494 208.4911 L 96.72846 210.42763 L 93.823685 212.36414 L 90.91891 213.3324" scribmaster:penstyle="draw" style="stroke:#000000;stroke-width:5.0;stroke-linejoin:round;stroke-linecap:round;stroke-opacity:1.0;fill:none"/>
      </g>
    </g>
  </g>
</svg>
