<?xml version='1.0' encoding='ASCII' standalone='yes'?>
<svg width = "6in" height = "4in" xmlns="http://www.w3.org/2000/svg" xmlns:xlink="http://www.w3.org/1999/xlink" version="1.1">
  <g transform="translate(1.0473038956930552, 0) scale(1 1) translate(0, 0) scale(0.1 0.1)  skewX(-1.000000)">
    <sodipodi:namedview xmlns:sodipodi="http://sodipodi.sourceforge.net/DTD/sodipodi-0.dtd" id="ScribMaster"/>
    <filter id="blur">
      <feGaussianBlur stdDeviation="5.0"/>
    </filter>
    <defs/>
    <g xmlns:inkscape="http://www.inkscape.org/namespaces/inkscape" xmlns:scribmaster="http://scribmaster.com/scribmaster" id="1627852648396" transform="matrix(1.032782,0,0,1.032782,-14.899414,-13.325867)" style="opacity:1.0">
      <g id="1627851273342" inkscape:groupmode="layer" transform="matrix(1,0,0,1,0,0)" style="opacity:1.0">
        <path transform="matrix(1,0,0,1,0,0)" d="M 76.395035 172.66554 L 76.395035 170.72902 L 76.395035 172.66554 L 77.36329 177.50684 L 77.36329 182.34813 L 77.36329 190.0942 L 77.36329 203.64981 L 77.36329 220.11021 L 77.36329 234.6341 L 77.36329 247.22145 L 77.36329 257.8723 L 77.36329 266.58664 L 77.36329 274.3327 L 77.36329 281.1105 L 77.36329 286.92007 L 77.36329 292.7296 L 77.36329 296.60266 L 77.36329 299.50742 L 77.36329 301.44394 L 77.36329 303.38046 L 77.36329 304.34872 L 77.36329 303.38046 L 77.36329 301.44394 L 77.36329 298.53915 L 77.36329 292.7296 L 77.36329 285.9518 L 77.36329 277.2375 L 77.36329 262.7136 L 77.36329 247.22145 L 77.36329 233.66583 L 77.36329 220.11021 L 77.36329 201.7133 L 79.299805 185.2529 L 81.23632 171.69728 L 84.1411 162.98296 L 87.045876 157.1734 L 91.88717 152.3321 L 96.72846 150.3956 L 101.569756 148.45908 L 105.44279 148.45908 L 108.347565 149.42734 L 111.25234 150.3956 L 113.18886 151.36385 L 116.093636 152.3321 L 118.03015 154.26863 L 120.93492 156.20514 L 123.8397 159.10992 L 126.74448 162.0147 L 130.61751 165.88773 L 132.55403 169.76076 L 135.4588 173.6338 L 136.42706 178.4751 L 136.42706 185.2529 L 135.4588 192.03072 L 132.55403 199.77678 L 130.61751 207.52284 L 125.776215 216.23718 L 121.90318 223.98325 L 118.03015 229.7928 L 114.15711 233.66583 L 111.25234 234.6341 L 109.31582 234.6341 L 107.3793 233.66583 L 105.44279 233.66583 L 102.53801 233.66583" scribmaster:penstyle="draw" style="stroke:#000000;stroke-width:5.0;stroke-linejoin:round;stroke-linecap:round;stroke-opacity:1.0;fill:none"/>
      </g>
    </g>
  </g>
</svg>
