<?xml version='1.0' encoding='ASCII' standalone='yes'?>
<svg width = "6in" height = "4in" xmlns="http://www.w3.org/2000/svg" xmlns:xlink="http://www.w3.org/1999/xlink" version="1.1">
  <g transform="translate(1.0473038956930552, 0) scale(1 1) translate(0, 0) scale(0.1 0.1)  skewX(-1.000000)">
    <sodipodi:namedview xmlns:sodipodi="http://sodipodi.sourceforge.net/DTD/sodipodi-0.dtd" id="ScribMaster"/>
    <filter id="blur">
      <feGaussianBlur stdDeviation="5.0"/>
    </filter>
    <defs/>
    <g xmlns:inkscape="http://www.inkscape.org/namespaces/inkscape" xmlns:scribmaster="http://scribmaster.com/scribmaster" id="1625350006518" transform="matrix(1,0,0,1,-1.316833,-1.489594)" style="opacity:1.0">
      <g id="1625348338071" inkscape:groupmode="layer" transform="matrix(1,0,0,1,0,0)" style="opacity:1.0">
        <path transform="matrix(1,0,0,1,0,0)" d="M 40.316833 49.489594 L 41.316833 48.489594 L 43.316833 48.489594 L 47.316833 48.489594 L 52.316833 47.489594 L 60.316833 47.489594 L 68.31683 46.489594 L 76.31683 46.489594 L 83.31683 46.489594 L 90.31683 46.489594 L 95.31683 46.489594 L 100.31683 46.489594 L 104.31683 46.489594 L 106.31683 46.489594" scribmaster:penstyle="draw" style="stroke:#000000;stroke-width:5.0;stroke-linejoin:round;stroke-linecap:round;stroke-opacity:1.0;fill:none"/>
        <path transform="matrix(1,0,0,1,0,0)" d="M 83.31683 58.489594 L 81.31683 60.489594 L 81.31683 63.489594 L 81.31683 67.48959 L 81.31683 73.48959 L 81.31683 82.48959 L 80.31683 93.48959 L 80.31683 105.48959 L 79.31683 116.48959 L 79.31683 131.4896 L 78.31683 144.4896 L 77.31683 155.4896 L 77.31683 165.4896 L 77.31683 173.4896 L 76.31683 180.4896 L 76.31683 186.4896 L 76.31683 192.4896 L 77.31683 195.4896 L 77.31683 197.4896 L 77.31683 199.4896 L 78.31683 199.4896 L 79.31683 199.4896 L 79.31683 200.4896 L 80.31683 200.4896" scribmaster:penstyle="draw" style="stroke:#000000;stroke-width:5.0;stroke-linejoin:round;stroke-linecap:round;stroke-opacity:1.0;fill:none"/>
        <path transform="matrix(1,0,0,1,0,0)" d="M 43.316833 215.4896 L 42.316833 214.4896 L 43.316833 213.4896 L 45.316833 212.4896 L 49.316833 211.4896 L 57.316833 210.4896 L 67.31683 210.4896 L 76.31683 209.4896 L 85.31683 208.4896 L 94.31683 205.4896 L 102.31683 202.4896 L 111.31683 198.4896 L 120.31683 195.4896" scribmaster:penstyle="draw" style="stroke:#000000;stroke-width:5.0;stroke-linejoin:round;stroke-linecap:round;stroke-opacity:1.0;fill:none"/>
      </g>
    </g>
  </g>
</svg>
