<?xml version='1.0' encoding='UTF-8' standalone='no' ?><svg xmlns="http://www.w3.org/2000/svg" xmlns:scribmaster="http://scribmaster.com/scribmaster" xmlns:sodipodi="http://sodipodi.sourceforge.net/DTD/sodipodi-0.dtd" xmlns:inkscape="http://www.inkscape.org/namespaces/inkscape" xmlns:xlink="http://www.w3.org/1999/xlink" version="1.2" width="800" height="1014"><sodipodi:namedview id="ScribMaster" /><filter id="blur"><feGaussianBlur stdDeviation="5.0" /></filter><defs /><g id="1627855420611" transform="matrix(1.041329,0,0,1.041329,-16.413086,-18.68722)" style="opacity:1.0"><g id="1627851273342" inkscape:groupmode="layer" transform="matrix(1,0,0,1,0,0)" style="opacity:1.0"><path transform="matrix(1,0,0,1,0,0)" d="M 164.6099 93.81011 L 164.6099 91.889496 L 163.64958 91.889496 L 162.68927 91.889496 L 161.72896 91.889496 L 159.80833 91.889496 L 158.84802 91.889496 L 155.96709 91.889496 L 152.12584 92.8498 L 149.2449 92.8498 L 143.48303 93.81011 L 136.76086 94.770424 L 130.03868 95.730736 L 123.316505 96.69105 L 116.59433 96.69105 L 110.83246 97.65136 L 105.070595 98.61167 L 99.30872 98.61167 L 94.50717 99.57198 L 89.70562 100.532295 L 85.86437 100.532295 L 82.98344 101.4926 L 81.06282 101.4926 L 79.1422 101.4926 L 78.181885 101.4926 L 77.22157 102.45291 L 78.181885 103.41322 L 79.1422 104.373535 L 80.10251 106.29416 L 81.06282 107.25447 L 82.023125 108.21478 L 82.98344 110.13541 L 83.94375 113.016335 L 84.90406 115.89727 L 86.824684 118.778206 L 87.784996 121.659134 L 89.70562 124.54007 L 90.665924 127.421005 L 92.58655 129.34163 L 95.46748 131.26225 L 97.38811 133.18288 L 101.22935 134.14319 L 105.070595 135.1035 L 109.87215 136.06381 L 114.673706 137.02411 L 120.43557 138.94473 L 125.23713 140.86536 L 130.999 143.74629 L 136.76086 147.58754 L 141.56242 152.38908 L 147.3243 159.11127 L 152.12584 164.87314 L 156.9274 171.5953 L 159.80833 177.35718 L 162.68927 184.07936 L 163.64958 189.84122 L 164.6099 196.5634 L 163.64958 202.32527 L 162.68927 208.08713 L 159.80833 212.88869 L 156.9274 217.69025 L 152.12584 221.53148 L 147.3243 225.37273 L 142.52274 227.29335 L 135.80055 229.21397 L 130.03868 231.1346 L 122.35619 232.09491 L 115.63402 232.09491 L 108.911835 231.1346 L 102.18966 230.17429 L 97.38811 228.25366 L 93.54686 227.29335 L 90.665924 226.33304" scribmaster:penstyle="draw" style="stroke:#000000;stroke-width:5.0;stroke-linejoin:round;stroke-linecap:round;stroke-opacity:1.0;fill:none" /></g></g></svg>