<?xml version='1.0' encoding='UTF-8' standalone='no' ?><svg xmlns="http://www.w3.org/2000/svg" xmlns:scribmaster="http://scribmaster.com/scribmaster" xmlns:sodipodi="http://sodipodi.sourceforge.net/DTD/sodipodi-0.dtd" xmlns:inkscape="http://www.inkscape.org/namespaces/inkscape" xmlns:xlink="http://www.w3.org/1999/xlink" version="1.2" width="800" height="1014"><sodipodi:namedview id="ScribMaster" /><filter id="blur"><feGaussianBlur stdDeviation="5.0" /></filter><defs /><g id="1627855377356" transform="matrix(1.041329,0,0,1.041329,-16.413086,-15.68722)" style="opacity:1.0"><g id="1627851273342" inkscape:groupmode="layer" transform="matrix(1,0,0,1,0,0)" style="opacity:1.0"><path transform="matrix(1,0,0,1,0,0)" d="M 62.81691 86.12763 L 63.77722 86.12763 L 64.73753 88.048256 L 64.73753 89.00857 L 64.73753 90.929184 L 65.697845 93.81012 L 65.697845 97.65137 L 65.697845 101.49261 L 65.697845 105.333855 L 65.697845 109.175095 L 65.697845 113.01634 L 65.697845 116.85758 L 65.697845 119.73852 L 65.697845 123.579765 L 65.697845 126.46069 L 65.697845 128.38132 L 65.697845 131.26225 L 66.65815 132.22256 L 66.65815 133.18288 L 67.61846 134.14317 L 68.57877 135.10349 L 70.4994 136.0638 L 71.45971 136.0638 L 74.340645 137.02411 L 78.181885 137.02411 L 81.06282 137.02411 L 83.94375 137.98442 L 87.784996 137.98442 L 90.665924 137.98442 L 93.54686 137.98442 L 97.38811 137.02411 L 100.269035 137.02411 L 103.14997 137.02411 L 106.03091 136.0638 L 108.911835 136.0638 L 111.79277 135.10349 L 113.713394 134.14317" scribmaster:penstyle="draw" style="stroke:#000000;stroke-width:5.0;stroke-linejoin:round;stroke-linecap:round;stroke-opacity:1.0;fill:none" /><path transform="matrix(1,0,0,1,0,0)" d="M 118.514946 87.087944 L 116.59433 87.087944 L 116.59433 88.048256 L 115.63402 89.00857 L 114.673706 91.889496 L 115.63402 97.65137 L 115.63402 106.29417 L 116.59433 120.69883 L 119.47526 137.98442 L 120.43557 155.27002 L 121.39588 168.71437 L 122.35619 180.23811 L 123.316505 189.84122 L 123.316505 196.5634 L 123.316505 202.32526 L 124.27682 207.12682 L 125.23713 210.00775 L 126.19743 210.96806 L 126.19743 212.88869 L 126.19743 213.849" scribmaster:penstyle="draw" style="stroke:#000000;stroke-width:5.0;stroke-linejoin:round;stroke-linecap:round;stroke-opacity:1.0;fill:none" /></g></g></svg>