<?xml version='1.0' encoding='ASCII' standalone='yes'?>
<svg width = "6in" height = "4in" xmlns="http://www.w3.org/2000/svg" xmlns:xlink="http://www.w3.org/1999/xlink" version="1.1">
  <g transform="translate(-0.1163554293259576, 0) scale(1 1) translate(0.1163554293259576, 0) scale(1 1) translate(0.34906978865732075, 0) scale(1 1) translate(0.5817946504483253, 0) scale(1 1) translate(0.814537017743164, 0) scale(1 1) translate(1.0473038956930552, 0) scale(1 1) translate(0, 0) scale(0.1 0.1)  skewX(-1.000000) skewX(-0.777778) skewX(-0.555556) skewX(-0.333333) skewX(-0.111111) skewX(0.111111)">
    <sodipodi:namedview xmlns:sodipodi="http://sodipodi.sourceforge.net/DTD/sodipodi-0.dtd" id="ScribMaster"/>
    <filter id="blur">
      <feGaussianBlur stdDeviation="5.0"/>
    </filter>
    <defs/>
    <g xmlns:inkscape="http://www.inkscape.org/namespaces/inkscape" xmlns:scribmaster="http://scribmaster.com/scribmaster" id="1625349201755" transform="matrix(1,0,0,1,0,0)" style="opacity:1.0">
      <g id="1625348338071" inkscape:groupmode="layer" transform="matrix(1,0,0,1,0,0)" style="opacity:1.0">
        <path transform="matrix(1,0,0,1,0,0)" d="M 51.0 132.0 L 51.0 130.0 L 51.0 129.0 L 51.0 131.0 L 51.0 134.0 L 51.0 141.0 L 51.0 149.0 L 51.0 160.0 L 50.0 172.0 L 50.0 185.0 L 49.0 196.0 L 49.0 206.0 L 48.0 213.0 L 48.0 219.0 L 48.0 222.0 L 48.0 223.0 L 49.0 220.0 L 50.0 217.0 L 52.0 208.0 L 56.0 194.0 L 62.0 175.0 L 67.0 161.0 L 72.0 150.0 L 76.0 141.0 L 82.0 135.0 L 87.0 131.0 L 92.0 130.0 L 97.0 129.0 L 100.0 129.0 L 104.0 129.0 L 107.0 130.0 L 111.0 130.0 L 115.0 130.0 L 118.0 131.0 L 120.0 131.0 L 121.0 132.0" scribmaster:penstyle="draw" style="stroke:#000000;stroke-width:5.0;stroke-linejoin:round;stroke-linecap:round;stroke-opacity:1.0;fill:none"/>
      </g>
    </g>
  </g>
</svg>
