<?xml version='1.0' encoding='ASCII' standalone='yes'?>
<svg width = "6in" height = "4in" xmlns="http://www.w3.org/2000/svg" xmlns:xlink="http://www.w3.org/1999/xlink" version="1.1">
  <g transform="translate(1.0473038956930552, 0) scale(1 1) translate(0, 0) scale(0.1 0.1)  skewX(-1.000000)">
    <sodipodi:namedview xmlns:sodipodi="http://sodipodi.sourceforge.net/DTD/sodipodi-0.dtd" id="ScribMaster"/>
    <filter id="blur">
      <feGaussianBlur stdDeviation="5.0"/>
    </filter>
    <defs/>
    <g xmlns:inkscape="http://www.inkscape.org/namespaces/inkscape" xmlns:scribmaster="http://scribmaster.com/scribmaster" id="1625349185365" transform="matrix(1,0,0,1,0,0)" style="opacity:1.0">
      <g id="1625348338071" inkscape:groupmode="layer" transform="matrix(1,0,0,1,0,0)" style="opacity:1.0">
        <path transform="matrix(1,0,0,1,0,0)" d="M 42.0 128.0 L 41.0 130.0 L 41.0 132.0 L 40.0 137.0 L 40.0 144.0 L 40.0 155.0 L 39.0 171.0 L 38.0 186.0 L 37.0 198.0 L 36.0 209.0 L 35.0 217.0 L 34.0 223.0 L 34.0 230.0 L 34.0 234.0 L 33.0 238.0 L 33.0 241.0 L 33.0 243.0 L 33.0 242.0 L 33.0 240.0 L 34.0 237.0 L 35.0 232.0 L 37.0 223.0 L 39.0 209.0 L 41.0 198.0 L 44.0 187.0 L 48.0 176.0 L 54.0 167.0 L 58.0 160.0 L 63.0 156.0 L 68.0 153.0 L 72.0 152.0 L 76.0 152.0 L 80.0 152.0 L 85.0 151.0 L 90.0 151.0 L 95.0 150.0" scribmaster:penstyle="draw" style="stroke:#000000;stroke-width:5.0;stroke-linejoin:round;stroke-linecap:round;stroke-opacity:1.0;fill:none"/>
      </g>
    </g>
  </g>
</svg>
