<?xml version='1.0' encoding='UTF-8' standalone='no' ?><svg xmlns="http://www.w3.org/2000/svg" xmlns:scribmaster="http://scribmaster.com/scribmaster" xmlns:sodipodi="http://sodipodi.sourceforge.net/DTD/sodipodi-0.dtd" xmlns:inkscape="http://www.inkscape.org/namespaces/inkscape" xmlns:xlink="http://www.w3.org/1999/xlink" version="1.2" width="800" height="1014"><sodipodi:namedview id="ScribMaster" /><filter id="blur"><feGaussianBlur stdDeviation="5.0" /></filter><defs /><g id="1627852700460" transform="matrix(1.032782,0,0,1.032782,-14.899414,-13.325867)" style="opacity:1.0"><g id="1627851273342" inkscape:groupmode="layer" transform="matrix(1,0,0,1,0,0)" style="opacity:1.0"><path transform="matrix(1,0,0,1,0,0)" d="M 103.50627 155.2369 L 102.53801 154.26863 L 101.569756 153.30037 L 101.569756 152.3321 L 100.601494 151.36385 L 98.66498 151.36385 L 97.69672 149.42734 L 96.72846 148.45908 L 94.79195 147.49081 L 92.85542 146.52255 L 88.98239 145.5543 L 86.077614 144.58604 L 82.20458 144.58604 L 78.33155 145.5543 L 73.49026 147.49081 L 67.6807 151.36385 L 61.871155 157.1734 L 57.02986 163.95122 L 56.0616 171.69728 L 55.093346 182.34813 L 56.0616 191.06245 L 57.998123 197.84026 L 60.902893 203.64981 L 65.74419 206.5546 L 69.617226 208.4911 L 72.521996 208.4911 L 75.42677 206.5546 L 79.299805 204.61807 L 82.20458 200.74504 L 85.10936 197.84026 L 88.01414 193.96722 L 91.88717 189.12593 L 94.79195 183.31639 L 96.72846 177.50684 L 98.66498 172.66554 L 100.601494 166.85599 L 101.569756 162.98296 L 102.53801 158.14166 L 103.50627 156.20514 L 103.50627 154.26863 L 104.474525 152.3321 L 104.474525 151.36385 L 103.50627 151.36385 L 102.53801 151.36385 L 102.53801 153.30037 L 101.569756 156.20514 L 100.601494 161.04643 L 99.63324 169.76076 L 96.72846 185.2529 L 95.7602 202.68155 L 94.79195 220.11021 L 94.79195 236.5706 L 95.7602 249.15796 L 96.72846 259.8088 L 98.66498 267.5549 L 101.569756 275.30096 L 104.474525 281.1105 L 107.3793 286.92007 L 111.25234 290.7931 L 114.15711 292.7296 L 117.06189 292.7296 L 120.93492 291.76135 L 124.80796 289.82483 L 129.64926 286.92007 L 135.4588 282.07877 L 144.17313 277.2375 L 151.9192 273.36444" scribmaster:penstyle="draw" style="stroke:#000000;stroke-width:5.0;stroke-linejoin:round;stroke-linecap:round;stroke-opacity:1.0;fill:none" /></g></g></svg>