<?xml version='1.0' encoding='UTF-8' standalone='no' ?><svg xmlns="http://www.w3.org/2000/svg" xmlns:scribmaster="http://scribmaster.com/scribmaster" xmlns:sodipodi="http://sodipodi.sourceforge.net/DTD/sodipodi-0.dtd" xmlns:inkscape="http://www.inkscape.org/namespaces/inkscape" xmlns:xlink="http://www.w3.org/1999/xlink" version="1.2" width="800" height="1014"><sodipodi:namedview id="ScribMaster" /><filter id="blur"><feGaussianBlur stdDeviation="5.0" /></filter><defs /><g id="1627852712087" transform="matrix(1.032782,0,0,1.032782,-14.899414,-13.325867)" style="opacity:1.0"><g id="1627851273342" inkscape:groupmode="layer" transform="matrix(1,0,0,1,0,0)" style="opacity:1.0"><path transform="matrix(1,0,0,1,0,0)" d="M 102.53801 148.45908 L 101.569756 147.49081 L 100.601494 146.52255 L 99.63324 146.52255 L 98.66498 146.52255 L 96.72846 146.52255 L 95.7602 145.5543 L 94.79195 145.5543 L 92.85542 146.52255 L 90.91891 146.52255 L 88.01414 148.45908 L 83.172844 151.36385 L 78.33155 156.20514 L 73.49026 162.98296 L 68.648964 170.72902 L 65.74419 179.44334 L 64.77593 187.18942 L 64.77593 194.93549 L 66.71245 200.74504 L 69.617226 204.61807 L 73.49026 207.52284 L 76.395035 209.45937 L 78.33155 209.45937 L 81.23632 208.4911 L 83.172844 205.58633 L 86.077614 202.68155 L 88.01414 199.77678 L 89.95065 194.93549 L 92.85542 189.12593 L 94.79195 182.34813 L 96.72846 176.53857 L 98.66498 170.72902 L 99.63324 165.88773 L 101.569756 162.0147 L 101.569756 160.07819 L 102.53801 158.14166 L 101.569756 159.10992 L 101.569756 162.0147 L 99.63324 167.82425 L 95.7602 180.4116 L 91.88717 193.96722 L 87.045876 212.36414 L 84.1411 232.69757 L 84.1411 248.18971 L 85.10936 262.7136 L 88.01414 272.39618 L 92.85542 282.07877 L 98.66498 287.88834 L 105.44279 289.82483 L 111.25234 289.82483 L 116.093636 287.88834 L 119.96667 285.9518 L 123.8397 283.04703 L 127.71274 282.07877 L 131.58577 279.174" scribmaster:penstyle="draw" style="stroke:#000000;stroke-width:5.0;stroke-linejoin:round;stroke-linecap:round;stroke-opacity:1.0;fill:none" /></g></g></svg>