<?xml version='1.0' encoding='ASCII' standalone='yes'?>
<svg width = "6in" height = "4in" xmlns="http://www.w3.org/2000/svg" xmlns:xlink="http://www.w3.org/1999/xlink" version="1.1">
  <g transform="translate(-0.1163554293259576, 0) scale(1 1) translate(0.1163554293259576, 0) scale(1 1) translate(0.34906978865732075, 0) scale(1 1) translate(0.5817946504483253, 0) scale(1 1) translate(0.814537017743164, 0) scale(1 1) translate(1.0473038956930552, 0) scale(1 1) translate(0, 0) scale(0.1 0.1)  skewX(-1.000000) skewX(-0.777778) skewX(-0.555556) skewX(-0.333333) skewX(-0.111111) skewX(0.111111)">
    <sodipodi:namedview xmlns:sodipodi="http://sodipodi.sourceforge.net/DTD/sodipodi-0.dtd" id="ScribMaster"/>
    <filter id="blur">
      <feGaussianBlur stdDeviation="5.0"/>
    </filter>
    <defs/>
    <g xmlns:inkscape="http://www.inkscape.org/namespaces/inkscape" xmlns:scribmaster="http://scribmaster.com/scribmaster" id="1627855625368" transform="matrix(1.041329,0,0,1.041329,-16.413086,-18.68722)" style="opacity:1.0">
      <g id="1627851273342" inkscape:groupmode="layer" transform="matrix(1,0,0,1,0,0)" style="opacity:1.0">
        <path transform="matrix(1,0,0,1,0,0)" d="M 777.2883 360.7766 L 777.2883 360.78622" scribmaster:penstyle="draw" style="stroke:#000000;stroke-width:5.0;stroke-linejoin:round;stroke-linecap:round;stroke-opacity:1.0;fill:none"/>
        <path transform="matrix(1,0,0,1,0,0)" d="M 98.34842 101.4926 L 97.38811 100.532295 L 96.427795 99.57198 L 95.46748 98.61167 L 93.54686 97.65136 L 92.58655 97.65136 L 90.665924 96.69105 L 88.74531 96.69105 L 85.86437 96.69105 L 82.98344 96.69105 L 80.10251 96.69105 L 77.22157 97.65136 L 74.340645 100.532295 L 70.4994 103.41322 L 67.61846 108.21478 L 64.73753 112.05602 L 63.77722 116.85758 L 62.81691 120.69882 L 62.81691 124.54007 L 63.77722 127.421005 L 65.697845 129.34163 L 68.57877 131.26225 L 71.45971 132.22256 L 74.340645 132.22256 L 78.181885 132.22256 L 81.06282 131.26225 L 83.94375 130.30194 L 86.824684 128.38132 L 88.74531 125.50038 L 91.626236 123.57976 L 93.54686 120.69882 L 95.46748 117.817894 L 97.38811 114.93696 L 99.30872 112.05602 L 99.30872 110.13541 L 100.269035 108.21478 L 101.22935 107.25447 L 101.22935 105.33385 L 102.18966 104.373535 L 102.18966 102.45291 L 102.18966 101.4926 L 102.18966 100.532295 L 102.18966 99.57198 L 103.14997 98.61167 L 103.14997 97.65136 L 103.14997 96.69105 L 103.14997 95.730736 L 104.11028 96.69105 L 104.11028 97.65136 L 104.11028 98.61167 L 104.11028 101.4926 L 103.14997 105.33385 L 103.14997 111.09571 L 102.18966 119.73851 L 102.18966 132.22256 L 100.269035 150.46846 L 99.30872 167.75406 L 98.34842 182.15874 L 97.38811 196.5634 L 97.38811 207.12682 L 97.38811 214.80931 L 98.34842 219.61087 L 99.30872 222.49179 L 100.269035 223.4521 L 101.22935 224.41241 L 102.18966 224.41241" scribmaster:penstyle="draw" style="stroke:#000000;stroke-width:5.0;stroke-linejoin:round;stroke-linecap:round;stroke-opacity:1.0;fill:none"/>
      </g>
    </g>
  </g>
</svg>
