<?xml version='1.0' encoding='ASCII' standalone='yes'?>
<svg width = "6in" height = "4in" xmlns="http://www.w3.org/2000/svg" xmlns:xlink="http://www.w3.org/1999/xlink" version="1.1">
  <g transform="translate(-0.1163554293259576, 0) scale(1 1) translate(0.1163554293259576, 0) scale(1 1) translate(0.34906978865732075, 0) scale(1 1) translate(0.5817946504483253, 0) scale(1 1) translate(0.814537017743164, 0) scale(1 1) translate(1.0473038956930552, 0) scale(1 1) translate(0, 0) scale(0.1 0.1)  skewX(-1.000000) skewX(-0.777778) skewX(-0.555556) skewX(-0.333333) skewX(-0.111111) skewX(0.111111)">
    <sodipodi:namedview xmlns:sodipodi="http://sodipodi.sourceforge.net/DTD/sodipodi-0.dtd" id="ScribMaster"/>
    <filter id="blur">
      <feGaussianBlur stdDeviation="5.0"/>
    </filter>
    <defs/>
    <g xmlns:inkscape="http://www.inkscape.org/namespaces/inkscape" xmlns:scribmaster="http://scribmaster.com/scribmaster" id="1627855669754" transform="matrix(1.041329,0,0,1.041329,-16.413086,-18.68722)" style="opacity:1.0">
      <g id="1627851273342" inkscape:groupmode="layer" transform="matrix(1,0,0,1,0,0)" style="opacity:1.0">
        <path transform="matrix(1,0,0,1,0,0)" d="M 777.2883 360.7766 L 777.2883 360.78622" scribmaster:penstyle="draw" style="stroke:#000000;stroke-width:5.0;stroke-linejoin:round;stroke-linecap:round;stroke-opacity:1.0;fill:none"/>
        <path transform="matrix(1,0,0,1,0,0)" d="M 137.72118 83.2467 L 136.76086 83.2467 L 135.80055 83.2467 L 134.84024 84.207 L 133.87993 84.207 L 132.91962 83.2467 L 131.9593 83.2467 L 130.999 83.2467 L 130.03868 82.286385 L 128.11806 82.286385 L 126.19743 81.32607 L 124.27682 80.36576 L 121.39588 79.40545 L 117.554634 78.44514 L 113.713394 78.44514 L 109.87215 77.484825 L 106.03091 77.484825 L 102.18966 77.484825 L 97.38811 79.40545 L 93.54686 82.286385 L 88.74531 87.08794 L 84.90406 91.889496 L 82.98344 97.65136 L 82.023125 104.373535 L 82.023125 110.13541 L 82.98344 115.89727 L 84.90406 119.73851 L 87.784996 124.54007 L 90.665924 126.46069 L 93.54686 129.34163 L 97.38811 129.34163 L 100.269035 130.30194 L 103.14997 129.34163 L 106.99122 129.34163 L 109.87215 127.421005 L 112.75308 124.54007 L 114.673706 121.659134 L 116.59433 118.778206 L 119.47526 115.89727 L 121.39588 112.05602 L 123.316505 109.175095 L 124.27682 106.29416 L 125.23713 103.41322 L 126.19743 101.4926 L 126.19743 99.57198 L 126.19743 98.61167 L 126.19743 97.65136 L 127.157745 97.65136 L 126.19743 98.61167 L 126.19743 100.532295 L 126.19743 107.25447 L 125.23713 118.778206 L 125.23713 134.14319 L 124.27682 157.19064 L 124.27682 174.47624 L 124.27682 190.80153 L 124.27682 203.28557 L 124.27682 211.92838 L 125.23713 217.69025 L 125.23713 220.57117 L 125.23713 222.49179 L 126.19743 222.49179 L 127.157745 221.53148 L 129.07837 221.53148" scribmaster:penstyle="draw" style="stroke:#000000;stroke-width:5.0;stroke-linejoin:round;stroke-linecap:round;stroke-opacity:1.0;fill:none"/>
      </g>
    </g>
  </g>
</svg>
