<?xml version='1.0' encoding='ASCII' standalone='yes'?>
<svg width = "6in" height = "4in" xmlns="http://www.w3.org/2000/svg" xmlns:xlink="http://www.w3.org/1999/xlink" version="1.1">
  <g transform="translate(0.5817946504483253, 0) scale(1 1) translate(0.814537017743164, 0) scale(1 1) translate(1.0473038956930552, 0) scale(1 1) translate(0, 0) scale(0.1 0.1)  skewX(-1.000000) skewX(-0.777778) skewX(-0.555556)">
    <sodipodi:namedview xmlns:sodipodi="http://sodipodi.sourceforge.net/DTD/sodipodi-0.dtd" id="ScribMaster"/>
    <filter id="blur">
      <feGaussianBlur stdDeviation="5.0"/>
    </filter>
    <defs/>
    <g xmlns:inkscape="http://www.inkscape.org/namespaces/inkscape" xmlns:scribmaster="http://scribmaster.com/scribmaster" id="1627855879666" transform="matrix(1.041329,0,0,1.041329,-16.413086,-18.68722)" style="opacity:1.0">
      <g id="1627851273342" inkscape:groupmode="layer" transform="matrix(1,0,0,1,0,0)" style="opacity:1.0">
        <path transform="matrix(1,0,0,1,0,0)" d="M 777.2883 360.7766 L 777.2883 360.78622" scribmaster:penstyle="draw" style="stroke:#000000;stroke-width:5.0;stroke-linejoin:round;stroke-linecap:round;stroke-opacity:1.0;fill:none"/>
        <path transform="matrix(1,0,0,1,0,0)" d="M 78.181885 107.25447 L 77.22157 108.21478 L 76.26126 110.13541 L 75.30095 113.016335 L 74.340645 120.69882 L 73.38033 136.06381 L 71.45971 154.30971 L 68.57877 176.39687 L 66.65815 198.48402 L 65.697845 212.88869 L 65.697845 223.4521 L 64.73753 232.09491 L 64.73753 240.7377 L 64.73753 246.49957 L 64.73753 251.30113 L 64.73753 254.18207 L 65.697845 255.14236 L 66.65815 255.14236 L 66.65815 253.22176" scribmaster:penstyle="draw" style="stroke:#000000;stroke-width:5.0;stroke-linejoin:round;stroke-linecap:round;stroke-opacity:1.0;fill:none"/>
        <path transform="matrix(1,0,0,1,0,0)" d="M 123.316505 116.85758 L 121.39588 119.73851 L 121.39588 126.46069 L 121.39588 139.90504 L 120.43557 156.23033 L 118.514946 176.39687 L 117.554634 194.64278 L 116.59433 208.08713 L 116.59433 217.69025 L 116.59433 225.37273 L 116.59433 231.1346 L 117.554634 234.97585 L 118.514946 236.89647 L 118.514946 237.85677" scribmaster:penstyle="draw" style="stroke:#000000;stroke-width:5.0;stroke-linejoin:round;stroke-linecap:round;stroke-opacity:1.0;fill:none"/>
        <path transform="matrix(1,0,0,1,0,0)" d="M 52.25349 165.83345 L 50.332867 165.83345 L 50.332867 164.87314 L 49.372555 164.87314 L 50.332867 164.87314 L 50.332867 165.83345 L 52.25349 165.83345 L 54.17411 166.79376 L 57.055046 167.75406 L 63.77722 168.71437 L 71.45971 169.67468 L 82.023125 169.67468 L 92.58655 170.635 L 102.18966 170.635 L 111.79277 170.635 L 120.43557 170.635 L 127.157745 169.67468 L 133.87993 168.71437 L 139.6418 167.75406 L 144.44336 166.79376 L 148.28459 166.79376 L 150.20522 165.83345 L 151.16553 164.87314" scribmaster:penstyle="draw" style="stroke:#000000;stroke-width:5.0;stroke-linejoin:round;stroke-linecap:round;stroke-opacity:1.0;fill:none"/>
        <path transform="matrix(1,0,0,1,0,0)" d="M 56.094734 214.80931 L 57.055046 213.849 L 58.975666 213.849 L 63.77722 213.849 L 70.4994 213.849 L 77.22157 213.849 L 85.86437 212.88869 L 95.46748 212.88869 L 105.070595 211.92838 L 113.713394 211.92838 L 122.35619 211.92838 L 130.03868 211.92838 L 137.72118 211.92838 L 144.44336 211.92838" scribmaster:penstyle="draw" style="stroke:#000000;stroke-width:5.0;stroke-linejoin:round;stroke-linecap:round;stroke-opacity:1.0;fill:none"/>
      </g>
    </g>
  </g>
</svg>
