<?xml version='1.0' encoding='ASCII' standalone='yes'?>
<svg width = "6in" height = "4in" xmlns="http://www.w3.org/2000/svg" xmlns:xlink="http://www.w3.org/1999/xlink" version="1.1">
  <g transform="translate(-0.8145370177431639, 0) scale(1 1) translate(-0.581794650448325, 0) scale(1 1) translate(-0.34906978865732063, 0) scale(1 1) translate(-0.1163554293259576, 0) scale(1 1) translate(0.1163554293259576, 0) scale(1 1) translate(0.34906978865732075, 0) scale(1 1) translate(0.5817946504483253, 0) scale(1 1) translate(0.814537017743164, 0) scale(1 1) translate(1.0473038956930552, 0) scale(1 1) translate(0, 0) scale(0.1 0.1)  skewX(-1.000000) skewX(-0.777778) skewX(-0.555556) skewX(-0.333333) skewX(-0.111111) skewX(0.111111) skewX(0.333333) skewX(0.555556) skewX(0.777778)">
    <sodipodi:namedview xmlns:sodipodi="http://sodipodi.sourceforge.net/DTD/sodipodi-0.dtd" id="ScribMaster"/>
    <filter id="blur">
      <feGaussianBlur stdDeviation="5.0"/>
    </filter>
    <defs/>
    <g xmlns:inkscape="http://www.inkscape.org/namespaces/inkscape" xmlns:scribmaster="http://scribmaster.com/scribmaster" id="1627855797409" transform="matrix(1.041329,0,0,1.041329,-16.413086,-18.68722)" style="opacity:1.0">
      <g id="1627851273342" inkscape:groupmode="layer" transform="matrix(1,0,0,1,0,0)" style="opacity:1.0">
        <path transform="matrix(1,0,0,1,0,0)" d="M 777.2883 360.7766 L 777.2883 360.78622" scribmaster:penstyle="draw" style="stroke:#000000;stroke-width:5.0;stroke-linejoin:round;stroke-linecap:round;stroke-opacity:1.0;fill:none"/>
        <path transform="matrix(1,0,0,1,0,0)" d="M 82.023125 113.016335 L 81.06282 114.93696 L 80.10251 116.85758 L 78.181885 121.659134 L 77.22157 133.18288 L 73.38033 147.58754 L 70.4994 164.87314 L 67.61846 183.11905 L 64.73753 199.44434 L 62.81691 212.88869 L 60.89629 223.4521 L 60.89629 231.1346 L 60.89629 236.89647 L 60.89629 241.69801 L 60.89629 243.61864 L 61.8566 246.49957 L 62.81691 247.45988 L 63.77722 247.45988" scribmaster:penstyle="draw" style="stroke:#000000;stroke-width:5.0;stroke-linejoin:round;stroke-linecap:round;stroke-opacity:1.0;fill:none"/>
        <path transform="matrix(1,0,0,1,0,0)" d="M 130.03868 128.38132 L 129.07837 127.421005 L 128.11806 126.46069 L 127.157745 126.46069 L 127.157745 125.50038 L 126.19743 125.50038 L 125.23713 126.46069 L 125.23713 128.38132 L 124.27682 133.18288 L 122.35619 144.7066 L 120.43557 161.03189 L 117.554634 184.07936 L 116.59433 204.24588 L 115.63402 219.61087 L 114.673706 231.1346 L 114.673706 239.77739 L 115.63402 246.49957 L 116.59433 250.34082 L 116.59433 251.30113 L 117.554634 251.30113 L 118.514946 248.4202" scribmaster:penstyle="draw" style="stroke:#000000;stroke-width:5.0;stroke-linejoin:round;stroke-linecap:round;stroke-opacity:1.0;fill:none"/>
        <path transform="matrix(1,0,0,1,0,0)" d="M 54.17411 162.95251 L 52.25349 161.9922 L 50.332867 161.9922 L 49.372555 161.9922 L 48.412247 161.03189 L 49.372555 161.03189 L 50.332867 161.9922 L 52.25349 161.9922 L 57.055046 161.9922 L 62.81691 161.9922 L 72.42002 161.03189 L 82.98344 161.03189 L 93.54686 160.07158 L 104.11028 160.07158 L 112.75308 160.07158 L 122.35619 159.11127 L 130.999 159.11127 L 137.72118 160.07158 L 143.48303 160.07158 L 148.28459 160.07158 L 151.16553 160.07158" scribmaster:penstyle="draw" style="stroke:#000000;stroke-width:5.0;stroke-linejoin:round;stroke-linecap:round;stroke-opacity:1.0;fill:none"/>
        <path transform="matrix(1,0,0,1,0,0)" d="M 48.412247 211.92838 L 47.451935 210.96806 L 46.491623 210.96806 L 45.53131 210.96806 L 46.491623 210.96806 L 47.451935 210.96806 L 48.412247 210.96806 L 49.372555 210.96806 L 53.2138 210.96806 L 58.015354 210.96806 L 67.61846 210.00775 L 79.1422 209.04744 L 91.626236 208.08713 L 102.18966 206.1665 L 111.79277 205.20619 L 121.39588 204.24588 L 130.03868 203.28557 L 137.72118 203.28557 L 144.44336 202.32527 L 151.16553 200.40465 L 157.88771 198.48402" scribmaster:penstyle="draw" style="stroke:#000000;stroke-width:5.0;stroke-linejoin:round;stroke-linecap:round;stroke-opacity:1.0;fill:none"/>
      </g>
    </g>
  </g>
</svg>
