<?xml version='1.0' encoding='ASCII' standalone='yes'?>
<svg width = "6in" height = "4in" xmlns="http://www.w3.org/2000/svg" xmlns:xlink="http://www.w3.org/1999/xlink" version="1.1">
  <g transform="translate(-0.581794650448325, 0) scale(1 1) translate(-0.34906978865732063, 0) scale(1 1) translate(-0.1163554293259576, 0) scale(1 1) translate(0.1163554293259576, 0) scale(1 1) translate(0.34906978865732075, 0) scale(1 1) translate(0.5817946504483253, 0) scale(1 1) translate(0.814537017743164, 0) scale(1 1) translate(1.0473038956930552, 0) scale(1 1) translate(0, 0) scale(0.1 0.1)  skewX(-1.000000) skewX(-0.777778) skewX(-0.555556) skewX(-0.333333) skewX(-0.111111) skewX(0.111111) skewX(0.333333) skewX(0.555556)">
    <sodipodi:namedview xmlns:sodipodi="http://sodipodi.sourceforge.net/DTD/sodipodi-0.dtd" id="ScribMaster"/>
    <filter id="blur">
      <feGaussianBlur stdDeviation="5.0"/>
    </filter>
    <defs/>
    <g xmlns:inkscape="http://www.inkscape.org/namespaces/inkscape" xmlns:scribmaster="http://scribmaster.com/scribmaster" id="1627854808131" transform="matrix(1.041329,0,0,1.041329,-16.413086,-15.68722)" style="opacity:1.0">
      <g id="1627851273342" inkscape:groupmode="layer" transform="matrix(1,0,0,1,0,0)" style="opacity:1.0">
        <path transform="matrix(1,0,0,1,0,0)" d="M 99.30872 228.25366 L 97.38811 225.37273 L 97.38811 224.41241 L 97.38811 223.4521 L 97.38811 220.57117 L 97.38811 217.69023 L 96.427795 214.80931 L 95.46748 209.04744 L 94.50717 202.32526 L 93.54686 195.60309 L 92.58655 186.96028 L 91.626236 179.2778 L 90.665924 172.55562 L 89.70562 165.83344 L 88.74531 160.07158 L 88.74531 154.30971 L 88.74531 148.54784 L 88.74531 142.78598 L 88.74531 137.02411 L 88.74531 132.22256 L 87.784996 127.421005 L 87.784996 123.579765 L 86.824684 120.69883 L 86.824684 118.778206 L 85.86437 116.85758 L 85.86437 114.936966 L 85.86437 113.976654 L 86.824684 113.01634 L 87.784996 112.05603 L 88.74531 112.05603" scribmaster:penstyle="draw" style="stroke:#000000;stroke-width:5.0;stroke-linejoin:round;stroke-linecap:round;stroke-opacity:1.0;fill:none"/>
        <path transform="matrix(1,0,0,1,0,0)" d="M 41.690067 110.13541 L 43.610687 110.13541 L 44.571 110.13541 L 45.53131 111.09572 L 46.491623 111.09572 L 48.412247 111.09572 L 51.29318 111.09572 L 54.17411 111.09572 L 58.015354 111.09572 L 63.77722 111.09572 L 71.45971 111.09572 L 78.181885 112.05603 L 86.824684 112.05603 L 94.50717 112.05603 L 102.18966 112.05603 L 108.911835 112.05603 L 115.63402 113.01634 L 122.35619 113.01634 L 129.07837 113.01634 L 133.87993 113.01634 L 138.68149 112.05603 L 142.52274 112.05603 L 145.40367 111.09572 L 147.3243 111.09572" scribmaster:penstyle="draw" style="stroke:#000000;stroke-width:5.0;stroke-linejoin:round;stroke-linecap:round;stroke-opacity:1.0;fill:none"/>
      </g>
    </g>
  </g>
</svg>
