<?xml version='1.0' encoding='ASCII' standalone='yes'?>
<svg width = "6in" height = "4in" xmlns="http://www.w3.org/2000/svg" xmlns:xlink="http://www.w3.org/1999/xlink" version="1.1">
  <g transform="translate(0.34906978865732075, 0) scale(1 1) translate(0.5817946504483253, 0) scale(1 1) translate(0.814537017743164, 0) scale(1 1) translate(1.0473038956930552, 0) scale(1 1) translate(0, 0) scale(0.1 0.1)  skewX(-1.000000) skewX(-0.777778) skewX(-0.555556) skewX(-0.333333)">
    <sodipodi:namedview xmlns:sodipodi="http://sodipodi.sourceforge.net/DTD/sodipodi-0.dtd" id="ScribMaster"/>
    <filter id="blur">
      <feGaussianBlur stdDeviation="5.0"/>
    </filter>
    <defs/>
    <g xmlns:inkscape="http://www.inkscape.org/namespaces/inkscape" xmlns:scribmaster="http://scribmaster.com/scribmaster" id="1627854824088" transform="matrix(1.041329,0,0,1.041329,-16.413086,-15.68722)" style="opacity:1.0">
      <g id="1627851273342" inkscape:groupmode="layer" transform="matrix(1,0,0,1,0,0)" style="opacity:1.0">
        <path transform="matrix(1,0,0,1,0,0)" d="M 102.18966 96.691055 L 102.18966 98.61167 L 102.18966 101.49261 L 102.18966 107.25448 L 102.18966 117.817894 L 101.22935 133.18288 L 101.22935 152.38908 L 101.22935 169.67468 L 101.22935 186.96028 L 101.22935 199.44434 L 100.269035 210.00775 L 100.269035 216.72993 L 100.269035 222.49179 L 101.22935 225.37273 L 101.22935 228.25366 L 101.22935 229.21397 L 100.269035 230.17429 L 101.22935 230.17429 L 101.22935 229.21397" scribmaster:penstyle="draw" style="stroke:#000000;stroke-width:5.0;stroke-linejoin:round;stroke-linecap:round;stroke-opacity:1.0;fill:none"/>
        <path transform="matrix(1,0,0,1,0,0)" d="M 53.2138 94.77043 L 52.25349 94.77043 L 51.29318 94.77043 L 50.332867 93.81012 L 49.372555 93.81012 L 49.372555 92.84981 L 48.412247 92.84981 L 49.372555 91.889496 L 50.332867 90.929184 L 51.29318 90.929184 L 54.17411 90.929184 L 57.055046 89.96887 L 62.81691 89.96887 L 69.539085 89.96887 L 78.181885 90.929184 L 87.784996 91.889496 L 97.38811 92.84981 L 107.95153 93.81012 L 117.554634 93.81012 L 127.157745 93.81012 L 135.80055 93.81012 L 144.44336 93.81012 L 152.12584 93.81012 L 158.84802 92.84981 L 163.64958 91.889496 L 168.45113 90.929184 L 171.33206 89.96887 L 172.29237 89.96887 L 173.25269 89.96887" scribmaster:penstyle="draw" style="stroke:#000000;stroke-width:5.0;stroke-linejoin:round;stroke-linecap:round;stroke-opacity:1.0;fill:none"/>
      </g>
    </g>
  </g>
</svg>
