<?xml version='1.0' encoding='ASCII' standalone='yes'?>
<svg width = "6in" height = "4in" xmlns="http://www.w3.org/2000/svg" xmlns:xlink="http://www.w3.org/1999/xlink" version="1.1">
  <g transform="translate(-0.8145370177431639, 0) scale(1 1) translate(-0.581794650448325, 0) scale(1 1) translate(-0.34906978865732063, 0) scale(1 1) translate(-0.1163554293259576, 0) scale(1 1) translate(0.1163554293259576, 0) scale(1 1) translate(0.34906978865732075, 0) scale(1 1) translate(0.5817946504483253, 0) scale(1 1) translate(0.814537017743164, 0) scale(1 1) translate(1.0473038956930552, 0) scale(1 1) translate(0, 0) scale(0.1 0.1)  skewX(-1.000000) skewX(-0.777778) skewX(-0.555556) skewX(-0.333333) skewX(-0.111111) skewX(0.111111) skewX(0.333333) skewX(0.555556) skewX(0.777778)">
    <sodipodi:namedview xmlns:sodipodi="http://sodipodi.sourceforge.net/DTD/sodipodi-0.dtd" id="ScribMaster"/>
    <filter id="blur">
      <feGaussianBlur stdDeviation="5.0"/>
    </filter>
    <defs/>
    <g xmlns:inkscape="http://www.inkscape.org/namespaces/inkscape" xmlns:scribmaster="http://scribmaster.com/scribmaster" id="1627855087080" transform="matrix(1.041329,0,0,1.041329,-16.413086,-15.68722)" style="opacity:1.0">
      <g id="1627851273342" inkscape:groupmode="layer" transform="matrix(1,0,0,1,0,0)" style="opacity:1.0">
        <path transform="matrix(1,0,0,1,0,0)" d="M 60.89629 81.32607 L 59.935978 82.286385 L 59.935978 83.2467 L 60.89629 85.16732 L 60.89629 87.087944 L 61.8566 89.00857 L 62.81691 92.84981 L 63.77722 95.73074 L 64.73753 99.57198 L 66.65815 103.41323 L 68.57877 108.21478 L 69.539085 111.09572 L 70.4994 114.936966 L 71.45971 117.817894 L 73.38033 121.65914 L 73.38033 123.579765 L 74.340645 126.46069 L 75.30095 128.38132 L 75.30095 129.34163 L 76.26126 131.26225 L 76.26126 132.22256 L 77.22157 133.18288 L 77.22157 134.14317 L 77.22157 135.10349 L 78.181885 135.10349 L 78.181885 136.0638 L 79.1422 136.0638 L 79.1422 135.10349 L 80.10251 134.14317 L 82.023125 132.22256 L 82.98344 129.34163 L 85.86437 124.54008 L 89.70562 119.73852 L 92.58655 113.976654 L 96.427795 109.175095 L 100.269035 103.41323 L 104.11028 98.61167 L 107.95153 92.84981 L 111.79277 89.00857 L 114.673706 84.20701 L 117.554634 81.32607 L 121.39588 78.445145 L 123.316505 76.52452 L 126.19743 74.6039 L 128.11806 73.643585 L 130.03868 72.68327 L 131.9593 71.72296" scribmaster:penstyle="draw" style="stroke:#000000;stroke-width:5.0;stroke-linejoin:round;stroke-linecap:round;stroke-opacity:1.0;fill:none"/>
        <path transform="matrix(1,0,0,1,0,0)" d="M 79.1422 137.98442 L 77.22157 136.0638 L 77.22157 135.10349 L 77.22157 136.0638 L 77.22157 137.02411 L 77.22157 138.94473 L 77.22157 141.82567 L 77.22157 145.66692 L 77.22157 150.46846 L 77.22157 158.15096 L 77.22157 167.75406 L 77.22157 178.31749 L 77.22157 186.96028 L 77.22157 194.64278 L 76.26126 201.36494 L 76.26126 207.12682 L 76.26126 211.92838 L 76.26126 215.76962 L 76.26126 218.65054 L 76.26126 220.57117 L 76.26126 221.53148 L 76.26126 222.49179 L 76.26126 223.4521" scribmaster:penstyle="draw" style="stroke:#000000;stroke-width:5.0;stroke-linejoin:round;stroke-linecap:round;stroke-opacity:1.0;fill:none"/>
      </g>
    </g>
  </g>
</svg>
