<?xml version='1.0' encoding='ASCII' standalone='yes'?>
<svg width = "6in" height = "4in" xmlns="http://www.w3.org/2000/svg" xmlns:xlink="http://www.w3.org/1999/xlink" version="1.1">
  <g transform="translate(0.5817946504483253, 0) scale(1 1) translate(0.814537017743164, 0) scale(1 1) translate(1.0473038956930552, 0) scale(1 1) translate(0, 0) scale(0.1 0.1)  skewX(-1.000000) skewX(-0.777778) skewX(-0.555556)">
    <sodipodi:namedview xmlns:sodipodi="http://sodipodi.sourceforge.net/DTD/sodipodi-0.dtd" id="ScribMaster"/>
    <filter id="blur">
      <feGaussianBlur stdDeviation="5.0"/>
    </filter>
    <defs/>
    <g xmlns:inkscape="http://www.inkscape.org/namespaces/inkscape" xmlns:scribmaster="http://scribmaster.com/scribmaster" id="1627855061806" transform="matrix(1.041329,0,0,1.041329,-16.413086,-15.68722)" style="opacity:1.0">
      <g id="1627851273342" inkscape:groupmode="layer" transform="matrix(1,0,0,1,0,0)" style="opacity:1.0">
        <path transform="matrix(1,0,0,1,0,0)" d="M 57.055046 75.56421 L 58.015354 76.52452 L 58.975666 78.445145 L 60.89629 80.36577 L 62.81691 83.2467 L 64.73753 86.12763 L 67.61846 89.00857 L 69.539085 92.84981 L 72.42002 96.691055 L 75.30095 100.532295 L 78.181885 103.41323 L 81.06282 107.25448 L 82.98344 109.175095 L 84.90406 111.09572 L 87.784996 113.976654 L 89.70562 115.89728 L 91.626236 116.85758 L 92.58655 118.778206 L 94.50717 120.69883 L 96.427795 121.65914 L 97.38811 122.61945 L 98.34842 123.579765 L 99.30872 124.54008 L 100.269035 124.54008 L 101.22935 125.50038 L 102.18966 126.46069 L 102.18966 127.421005 L 103.14997 127.421005 L 104.11028 128.38132 L 105.070595 128.38132 L 106.03091 127.421005 L 106.99122 126.46069 L 108.911835 124.54008 L 109.87215 123.579765 L 111.79277 120.69883 L 113.713394 117.817894 L 117.554634 113.976654 L 121.39588 110.13541 L 125.23713 106.29417 L 129.07837 102.45292 L 131.9593 98.61167 L 135.80055 93.81012 L 138.68149 90.929184 L 141.56242 88.048256 L 144.44336 85.16732 L 146.36398 83.2467" scribmaster:penstyle="draw" style="stroke:#000000;stroke-width:5.0;stroke-linejoin:round;stroke-linecap:round;stroke-opacity:1.0;fill:none"/>
        <path transform="matrix(1,0,0,1,0,0)" d="M 103.14997 132.22256 L 104.11028 132.22256 L 104.11028 134.14317 L 105.070595 137.02411 L 106.03091 139.90504 L 106.99122 143.74629 L 106.99122 148.54784 L 107.95153 154.30971 L 108.911835 162.95251 L 108.911835 171.5953 L 108.911835 181.19843 L 109.87215 189.84122 L 109.87215 196.5634 L 110.83246 202.32526 L 111.79277 207.12682 L 111.79277 210.00775 L 112.75308 211.92838 L 112.75308 212.88869" scribmaster:penstyle="draw" style="stroke:#000000;stroke-width:5.0;stroke-linejoin:round;stroke-linecap:round;stroke-opacity:1.0;fill:none"/>
      </g>
    </g>
  </g>
</svg>
