<?xml version='1.0' encoding='UTF-8' standalone='no' ?><svg xmlns="http://www.w3.org/2000/svg" xmlns:scribmaster="http://scribmaster.com/scribmaster" xmlns:sodipodi="http://sodipodi.sourceforge.net/DTD/sodipodi-0.dtd" xmlns:inkscape="http://www.inkscape.org/namespaces/inkscape" xmlns:xlink="http://www.w3.org/1999/xlink" version="1.2" width="800" height="1014"><sodipodi:namedview id="ScribMaster" /><filter id="blur"><feGaussianBlur stdDeviation="5.0" /></filter><defs /><g id="1627852401412" transform="matrix(1.032782,0,0,1.032782,-14.899414,-13.325867)" style="opacity:1.0"><g id="1627851273342" inkscape:groupmode="layer" transform="matrix(1,0,0,1,0,0)" style="opacity:1.0"><path transform="matrix(1,0,0,1,0,0)" d="M 77.36329 134.90346 L 76.395035 131.99869 L 76.395035 131.03043 L 77.36329 132.96695 L 77.36329 139.74475 L 78.33155 150.3956 L 79.299805 166.85599 L 81.23632 185.2529 L 82.20458 199.77678 L 83.172844 210.42763 L 84.1411 219.14195 L 84.1411 224.9515 L 85.10936 227.85628 L 85.10936 229.7928 L 85.10936 230.76105 L 85.10936 231.72931 L 85.10936 232.69757 L 85.10936 233.66583 L 85.10936 234.6341 L 86.077614 236.5706 L 86.077614 238.50713 L 87.045876 239.47539" scribmaster:penstyle="draw" style="stroke:#000000;stroke-width:5.0;stroke-linejoin:round;stroke-linecap:round;stroke-opacity:1.0;fill:none" /></g></g></svg>