<?xml version='1.0' encoding='ASCII' standalone='yes'?>
<svg width = "6in" height = "4in" xmlns="http://www.w3.org/2000/svg" xmlns:xlink="http://www.w3.org/1999/xlink" version="1.1">
  <g transform="translate(1.0473038956930552, 0) scale(1 1) translate(0, 0) scale(0.1 0.1)  skewX(-1.000000)">
    <sodipodi:namedview xmlns:sodipodi="http://sodipodi.sourceforge.net/DTD/sodipodi-0.dtd" id="ScribMaster"/>
    <filter id="blur">
      <feGaussianBlur stdDeviation="5.0"/>
    </filter>
    <defs/>
    <g xmlns:inkscape="http://www.inkscape.org/namespaces/inkscape" xmlns:scribmaster="http://scribmaster.com/scribmaster" id="1625348514810" transform="matrix(1,0,0,1,0,0)" style="opacity:1.0">
      <g id="1625348338071" inkscape:groupmode="layer" transform="matrix(1,0,0,1,0,0)" style="opacity:1.0">
        <path transform="matrix(1,0,0,1,0,0)" d="M 71.0 137.0 L 69.0 137.0 L 68.0 137.0 L 66.0 137.0 L 64.0 138.0 L 62.0 139.0 L 58.0 141.0 L 52.0 145.0 L 42.0 151.0 L 34.0 157.0 L 28.0 163.0 L 23.0 170.0 L 19.0 176.0 L 16.0 185.0 L 14.0 192.0 L 12.0 199.0 L 11.0 205.0 L 12.0 211.0 L 14.0 215.0 L 18.0 218.0 L 23.0 221.0 L 28.0 224.0 L 33.0 225.0 L 40.0 226.0 L 51.0 225.0 L 66.0 222.0 L 82.0 218.0 L 96.0 214.0" scribmaster:penstyle="draw" style="stroke:#000000;stroke-width:5.0;stroke-linejoin:round;stroke-linecap:round;stroke-opacity:1.0;fill:none"/>
      </g>
    </g>
  </g>
</svg>
